<!-- Generator: Adobe Illustrator 28.1.0, SVG Export Plug-In . SVG Version: 6.00 Build 0)  -->
<svg version="1.1" id="Layer_1" xmlns="http://www.w3.org/2000/svg" xmlns:xlink="http://www.w3.org/1999/xlink" x="0px" y="0px"
	 viewBox="0 0 72 72" style="enable-background:new 0 0 72 72;" xml:space="preserve">
<g>
	<g>
		<path d="M36,55.2c-10.6,0-19.2-8.6-19.2-19.2c0-10.6,8.6-19.2,19.2-19.2c10.6,0,19.2,8.6,19.2,19.2C55.2,46.6,46.6,55.2,36,55.2
			 M36,7.2C20.1,7.2,7.2,20.1,7.2,36c0,15.9,12.9,28.8,28.8,28.8c15.9,0,28.8-12.9,28.8-28.8C64.8,20.1,51.9,7.2,36,7.2z"/>
		<path d="M36,26.1c-5.4,0-9.9,4.4-9.9,9.9c0,5.4,4.4,9.9,9.9,9.9c5.5,0,9.9-4.4,9.9-9.9C45.9,30.5,41.4,26.1,36,26.1"/>
	</g>
</g>
</svg>
