<!-- Generator: Adobe Illustrator 28.1.0, SVG Export Plug-In . SVG Version: 6.00 Build 0)  -->
<svg version="1.1" id="Layer_1" xmlns="http://www.w3.org/2000/svg" xmlns:xlink="http://www.w3.org/1999/xlink" x="0px" y="0px"
	 viewBox="0 0 72 72" style="enable-background:new 0 0 72 72;" xml:space="preserve">
<g>
	<path d="M63.9,47.3h-46c-0.5,0-1,0.2-1.3,0.5L7.5,57c-0.6,0.6-0.2,1.6,0.7,1.6h46c0.5,0,1-0.2,1.3-0.5l9.1-9.1
		C65.1,48.3,64.7,47.3,63.9,47.3z"/>
	<path d="M63.9,13.4h-46c-0.5,0-1,0.2-1.3,0.5l-9.1,9.1c-0.6,0.6-0.2,1.6,0.7,1.6h46c0.5,0,1-0.2,1.3-0.5l9.1-9.1
		C65.1,14.4,64.7,13.4,63.9,13.4z"/>
	<path d="M55.4,30.8c-0.3-0.3-0.8-0.5-1.3-0.5h-46c-0.8,0-1.3,1-0.7,1.6l9.1,9.1c0.3,0.3,0.8,0.5,1.3,0.5h46c0.8,0,1.3-1,0.7-1.6
		L55.4,30.8z"/>
</g>
</svg>
