<!-- Generator: Adobe Illustrator 28.1.0, SVG Export Plug-In . SVG Version: 6.00 Build 0)  -->
<svg version="1.1" id="svg2500" xmlns:svg="http://www.w3.org/2000/svg"
	 xmlns="http://www.w3.org/2000/svg" xmlns:xlink="http://www.w3.org/1999/xlink" x="0px" y="0px" viewBox="0 0 360 180"
	 style="enable-background:new 0 0 360 180;" xml:space="preserve">
<g>
	<path id="path2450" d="M96.9,49.9c-2.5,0-5.2,0.3-8.2,1c0,0-15.3,3.8-32.2,19.5c0,0-8,8.2-13.7,18.6c0,0-5.9,10.9-6.8,20.1
		c0,0-0.9,10.3,4.9,15.5c0,0,6.7,6.1,21.3,4.9c0,0,9.2-1.1,19.1-7.4c0,0,4.8-3.1,7.9-6c0,0-1.5,5.2,0.7,9c0,0,2,3.6,6.6,4.4
		c0,0,3.4,0.7,8.2-1.1c0,0,3-1.3,5-2.3c0,0,4.1-2.2,8.2-5.4c0,0-0.8,3.1,1,5.8c0,0,2.1,3,6,3.4c0,0,10.5,0.8,25.1-17.2l-10.3,16.5
		l9.4-0.1l8.2-14.1c0,0,8.5-14.5,10.3-16.3c0,0,4.4-5.8,10.9-7.1l4.4,0.3c0,0,1.8,0.9,1.8,2.9l-3.2-0.6c0,0-1.9,0.2-2.9,2.2
		c0,0-0.9,1.9-0.4,3.8c0,0,0.6,1.6,2,2.1l1,0.3l3.2-0.4c0,0,5.7-2.1,13.5-11.9l-1.8,3.2l-6.6,11.3l-7.7,13.6c0,0-2.2,4.5-1.2,7.1
		c0,0,1,2.6,4.4,3.2l7.3-0.6c0,0,4.1-1.2,7.5-4.1l4.8-3.9c0,0,5.8-4.9,11.1-10.7l-0.3,0.4c0,0-4.6,8.4-5.4,11.2c0,0-1.8,5.9,2.3,8.3
		l4.7,0.4c0,0,3.9-0.6,7.8-3.4l6.4-5.5c0,0,5.5-5.1,8.4-8.8c0,0-1.5,3.4-1.8,5.8c0,0-1.1,7.8,6.1,10.9l6.8,0.6c0,0,2.7-0.2,6.8-1.7
		c0,0,9.6-3.1,23.1-15.5c0,0,6.8-6.3,11.6-11.8l-17,28.5h8.4l6.3-10.5l8-13.1c0,0,4.6-7.3,13-11.9c0,0,3.4-2,5.9-2.5
		c0,0,2.7-0.6,3.2,0.8c0,0-3.8-0.8-4.7,3.1c0,0-0.9,3.9,2.2,5.1c0,0,2.3,0.8,4.2-0.6c0,0,1.7-1.2,2.2-3.6c0,0,0.4-2.3-0.7-4
		c0,0-1.3-2-4.5-2.2c0,0-3.5-0.1-10.4,4.5c0,0-5.1,3.4-7.3,5.5l5.7-9.7h-8.5c0,0-8,13.6-22.2,25.3c0,0-13.8,11.3-21.7,11.6
		c0,0-7.6,0.6-8.4-5.2c0,0-0.4-3.5,1.6-8.4c0,0,4.7,0.4,10.9-1.6c0,0,5.9-1.9,10.8-5.2c0,0,5.2-3.6,7.1-7.4c0,0,2.2-4.2-0.3-7.8
		c0,0-4.7-4.6-14.9-0.3c0,0-10.5,4.4-18.3,14.7l-2,3l-0.2,0.3l-5.6,6.5l-5.7,5.7c0,0-6.9,6.8-10.4,4.8c0,0-1.3-0.9-1.3-3
		c0,0,0-2.1,1.6-4.7l16.2-28.1h-7.3c0,0-4,6.6-8.7,12.8c0,0-9.2,12.2-19.1,19.2c0,0-6.8,5.2-10.6,3.5c0,0-1.7-0.8-1.6-2.9
		c0,0,0.1-2.3,2.3-5.6l15.9-27l8.8-0.1l1.1-1.1h-8.9l9.5-16.9l-8,0.1c0,0-5.6,9.5-9.8,15.2c0,0-7.8,10.3-14.3,13.1
		c0,0,1.1-1.5,1.2-3.7l-0.1-1.8c0,0-0.4-2.3-2.7-3.5l-2-0.6l-3.8,0.3c0,0-4.5,1-8.6,4.6l3.5-5.8h-8c0,0-7.3,13-16.8,24
		c0,0-12.4,14.3-19.2,12.6c0,0-2-1-2.1-3.5c0,0,0-2.5,2.1-5.9l16.2-27.4l-8,0.1l-2.6,4.5l-1.7,3.2c0,0,0.3-1,0-3.1c0,0-0.7-5-5.5-6
		l-3.8-0.3c0,0-9.6-0.1-20.5,9.5c0,0-7.5,6.7-13.2,16.9c0,0-11.4,10.6-23.5,13c0,0-10.7,2.2-15.3-2.6c0,0-5-5.1-5-14.1
		c0,0,0.1-10.6,7.7-25c0,0,8-11.8,13-17.2c0,0,12.5-13.7,25.5-17.2c0,0,10.6-2.8,16.5,2c0,0,5,4.1,5.5,12.5l2.9-4.9
		c0,0,3.7-5.8,6.9-9.2c0,0-3,1.3-6.7,1.8c0,0-4.6,0.6-6.8-0.8C110,53.1,105,50,96.9,49.9z M124.2,89.4c3.3,0,5,1.6,5,1.6
		c3.9,3.6,0.8,10.3,0.8,10.3c-6,12.5-14.9,20.1-14.9,20.1l-5.4,3.8c-8.4,4.1-11.9,1.2-11.9,1.2c-2.9-2.5-1.7-8-1.7-8
		c0.8-3.8,3.9-9.3,3.9-9.3l6-8.8c5.5-6,11.7-9.2,11.7-9.2C120.4,89.8,122.5,89.4,124.2,89.4z M267.9,90.4c0.1,0,0.2,0,0.3,0
		c0,0,1.8,0.2,2.6,1.1c0,0,0.8,1.1,0.6,3.4c0,0-0.6,5.9-7.1,11.5c0,0-7.5,6.4-16.2,6.1l1.7-3.5c0,0,3.8-7.4,9.4-13.1
		C259,96,264.4,90.4,267.9,90.4z"/>
	<path id="path2454" d="M233.9,77.9c0,0,0,1.5,1.1,2.6c0,0,1,1,2.6,1c0,0,1.5,0,2.5-1c0,0,1-1.1,1-2.6l-1-2.6c0,0-1.1-1-2.5-1
		c0,0-1.6,0-2.6,1C235,75.3,233.9,76.3,233.9,77.9"/>
</g>
</svg>
