<!-- Generator: Adobe Illustrator 28.1.0, SVG Export Plug-In . SVG Version: 6.00 Build 0)  -->
<svg version="1.1"
	 id="svg2" xmlns:svg="http://www.w3.org/2000/svg" xmlns:sodipodi="http://sodipodi.sourceforge.net/DTD/sodipodi-0.dtd" xmlns:inkscape="http://www.inkscape.org/namespaces/inkscape" xmlns:cc="http://creativecommons.org/ns#" xmlns:dc="http://purl.org/dc/elements/1.1/" xmlns:rdf="http://www.w3.org/1999/02/22-rdf-syntax-ns#" xmlns:ns3="http://ns.adobe.com/Variables/1.0/" xmlns:ns2="http://ns.adobe.com/AdobeIllustrator/10.0/" xmlns:ns4="http://ns.adobe.com/SaveForWeb/1.0/" ns2:rulerOrigin="0 0"
	 xmlns="http://www.w3.org/2000/svg" xmlns:xlink="http://www.w3.org/1999/xlink" x="0px" y="0px" viewBox="0 0 72 72"
	 style="enable-background:new 0 0 72 72;" xml:space="preserve">
<sodipodi:namedview  bordercolor="#666666" borderopacity="1" gridtolerance="10" guidetolerance="10" id="namedview299" inkscape:current-layer="Layer_1" inkscape:cx="157.09599" inkscape:cy="121.09336" inkscape:pageopacity="0" inkscape:pageshadow="2" inkscape:window-height="931" inkscape:window-maximized="1" inkscape:window-width="1680" inkscape:window-x="0" inkscape:window-y="1" inkscape:zoom="2" objecttolerance="10" pagecolor="#ffffff" showgrid="false">
	</sodipodi:namedview>
<sodipodi:namedview  bordercolor="#666666" borderopacity="1" gridtolerance="10" guidetolerance="10" id="namedview299" inkscape:current-layer="Layer_1" inkscape:cx="157.09599" inkscape:cy="121.09336" inkscape:pageopacity="0" inkscape:pageshadow="2" inkscape:window-height="931" inkscape:window-maximized="1" inkscape:window-width="1680" inkscape:window-x="0" inkscape:window-y="1" inkscape:zoom="2" objecttolerance="10" pagecolor="#ffffff" showgrid="false">
	</sodipodi:namedview>
<g>
	<path d="M63.8,36c-0.2-0.5-0.4-1-0.6-1.5c-1.2-2.5-2.9-5.3-5.5-6.9c-1.5-0.9-2.8-2.3-3.6-3.8c-0.4-0.4-0.8-0.9-1.4-1
		c0.1,0.2,0.3,0.5,0.3,0.7l0,0l0,0l0,0c0,0,0,0,0,0l0,0c-0.6,0-1.1-0.3-1.5-0.7l0,0c0,0,0,0,0,0l0,0l0,0l0.4-0.4
		c-0.2-0.1-0.3-0.1-0.5-0.2c-1.8-0.2-3.2,0.6-4.8,1l0,0c1,0.4,1.2,1.5,1.7,2.2c0.1-0.2,0.4,0,0.6-0.1c0.3,0,0.5,0.2,0.8,0.1
		c0-0.2-0.1-0.4-0.2-0.6c0,0,0,0,0,0c0,0,0,0,0-0.1l0,0l0,0c0.2-0.1,0.4,0,0.6,0c0.5,0.3,1.3-0.1,1.6,0.6l0,0l0,0c0,0,0,0,0,0
		c0,0,0,0,0,0.1c-0.6,0-1.1,0.2-1.6,0.3c0.1,0.2,0.2,0.4,0.2,0.6l0,0l0,0c0,0,0,0,0,0c0,0,0,0,0,0.1c-0.5-0.2-1-0.3-1.5-0.4l0,0
		c0.7,0.8,1.5,1.2,2.5,1.5c1.3,0.3,2.5-0.3,3.8-0.1c3.1,1.4,5.8,4.7,7,7.8c0.1,0.1,0.1,0.3,0.2,0.5c0.5,1.4,0.8,3,0.8,4.6
		c0,1.2-0.1,2.4-0.3,3.6c-0.1,0.4-0.2,0.8-0.3,1.2c-0.5,1.2-1.1,2.4-2,3.4c-0.3,0.4-0.7,0.8-1.1,1.1c-1.3,1-2.9,1.5-4.6,1
		c-0.1-0.1-0.3-0.1-0.3-0.3c0,0,0,0,0-0.1c0,0,0,0,0,0c0.1-0.2,0.1-0.5,0.1-0.7c0.3-1.4,0.4-2.9,0.3-4.4c0-0.1,0-0.1,0-0.2
		c-0.1-2.2-0.5-4.1-1.3-6c-0.5-1.1-1.1-2.2-1.9-3.3c-0.9-1.3-2-2.3-3.5-2.9c-0.9-0.2-2-0.3-2.7,0.5c-0.3,0.3-0.5,0.6-0.6,0.9
		c0,0.1,0,0.3,0,0.4c0,0.1,0,0.2,0,0.2l0,0l0,0c0,0,0,0,0,0c0,0,0,0,0,0.1c-0.8,0.5-1.6,0.7-2.5,0.8c-0.2,0-0.5,0.1-0.7,0.1
		c-0.2,0-0.4,0-0.7,0c-1.1-0.1-2.2-0.7-3.1-1.4c0-0.5,0-0.9-0.1-1.4c-0.5-0.3-0.9-0.7-0.9-1.3l0,0c0,0,0,0,0,0l0,0l0,0l0,0
		c0.3,0.1,0.5,0.2,0.8,0.4c-0.1-0.7-0.2-1.3-0.6-1.9c-0.3-0.1-0.6-0.2-0.9-0.4c-0.3-0.2-0.6-0.6-0.6-1c0,0,0,0,0,0c0,0,0-0.1,0-0.1
		l0,0l0,0c0.3,0.3,0.8,0.2,1,0.5c-0.4-1.2-0.4-2.5-1.1-3.6c-0.3-0.8-1.2-1.2-1.8-1.8c-0.2-0.3-0.3-0.7-0.8-0.7
		c-0.3-0.1-0.4-0.5-0.4-0.7c0,0,0,0,0,0c0,0,0,0,0-0.1l0,0l0,0c0.2,0,0.4,0.1,0.5,0.2c-0.5-1.3-1-2.8-2.3-3.6l-0.2,0.1
		c-0.5,0.1-1.1,0.1-1.6,0.1c0,0,0,0,0.1-0.1c0,0,0,0,0,0l0,0l0,0c0.2-0.3,0.6-0.5,0.9-0.6c-0.4-0.3-0.7-0.3-1.1-0.4
		c-0.3,0.3-0.8,0.4-1.1,0.5l0,0c0-0.2,0-0.3,0-0.5c0-0.1,0.1-0.3,0.3-0.3c-0.5-0.2-1.1-0.1-1.6,0c-0.1,0.3-0.4,0.5-0.5,0.9
		c0,0,0,0.1,0,0.1c0,0,0,0,0,0c0,0,0,0,0,0.1c-0.3,0.3-0.5,0.7-0.7,0.9c0-0.2,0-0.4,0.1-0.6c0.1-0.5,0.2-0.9,0.3-1.3
		c-0.4,0.1-0.8,0.4-1.2,0.5c-0.6-0.4-1.3-0.7-1.9-1c0,0-0.1,0-0.2,0l0,0c0.4,0.3,0.4,0.7,0.4,1.1c0,0.2,0,0.3,0,0.5
		c0,0.1,0,0.2,0,0.2l0,0l0,0l0,0c0,0,0,0,0,0.1L22.2,19c-0.2-0.4-0.7-0.8-0.8-1.3c-0.6,0.1-1,0.3-1.5,0.5c0.4,0,0.7,0.3,0.9,0.6l0,0
		l0,0c0,0,0,0-0.1,0c0,0,0,0,0,0.1c-0.6,0-1.2-0.2-1.8-0.3c-0.1-0.1-0.1-0.1-0.2-0.1c-0.3,0.1-0.6,0.3-0.8,0.5
		c-0.6,0.6-1.2,1.2-1.5,2c0.2,0,0.4,0,0.6,0.1l0,0l0,0c0,0,0,0-0.1,0c0,0,0,0,0,0c-0.3,0.2-0.6,0.5-0.9,0.7
		c-0.1,0.4-0.1,0.9-0.1,1.4c0,0,0,0,0,0c0,0,0,0,0,0c-0.3,0.4-0.6,0.7-0.8,1.2c-0.1,0.4-0.2,0.9-0.3,1.3c-0.2,1.1-0.3,2.3-0.3,3.6
		c0,0.2,0,0.5,0,0.7l0,0l0,0c0,0,0,0,0,0c0,0,0,0,0,0c-0.2,0.2-0.4,0.3-0.6,0.4l0,1.7h0c0.1-0.4,0.5-0.6,0.8-0.8H15l0,0l0,0
		c0,0.4-0.1,0.8-0.1,1.2l0,0c0,0,0,0,0,0.1l-0.5,0.4c-0.1,0.1-0.2,0.2-0.2,0.4c0,0.1,0,0.1,0,0.2c0,0.3,0.1,0.7,0.1,1
		c0,0,0,0.1,0,0.1c0,0.1,0.1,0.4,0.2,0.4c0.1-0.2,0.3-0.4,0.4-0.6c0.2-0.1,0.4-0.2,0.6-0.3l0,0l0,0c0,0,0,0,0,0.1c0,0,0,0,0,0
		c-0.1,0.4-0.3,0.9-0.4,1.3c-0.1,0.1-0.2,0.1-0.3,0.2c-0.1,0.1-0.1,0.2-0.2,0.3c0.4,2.1,1,4.1,1.7,6l0,0l0,0c0,0,0,0,0,0
		c0,0,0,0,0,0c-0.5,0.8-0.8,1.8-1.1,2.6c-0.1,0.1-0.1,0.2-0.2,0.4c-0.4,1-0.5,2.1-1,3.1c-0.2-0.1-0.4-0.2-0.6-0.3
		c-0.9-0.3-2-0.1-2.7,0.6c-0.6-0.1-1.2,0-1.7,0.3c-0.3,0.3-0.6,0.6-0.8,0.9c0,0.1-0.1,0.2-0.1,0.3c0,0.1,0,0.1,0,0.2
		c0,0.1,0,0.1,0,0.2l0,0l0,0c0,0,0,0,0,0c0,0,0,0,0,0.1c-0.4,0.3-0.6,0.7-0.7,1.1c0,0.2-0.1,0.4,0,0.7c0,0.7,0.3,1.4,0.7,1.9h15.4
		c-0.2-0.3-0.4-0.6-0.6-1c-0.3-0.5-0.1-1.2-0.1-1.8c0.3-0.6,0.6-1.3,1-1.9c0.1-0.1,0.1-0.2,0.2-0.4l0.7-0.3c0.4,0,0.7-0.3,1-0.2
		c0.5,0.5,0.5-0.5,0.9-0.5c1.1-0.1,2.2,0,2.8,0.9c0,0.1,0.2,0.1,0.1,0.2c-0.1,0-0.3,0-0.4,0c-0.7-0.2-1.4-0.6-2.1-0.2
		c0,0.2-0.1,0.3-0.1,0.5c0,0.2-0.1,0.3-0.1,0.5c0.4,0.1,0.8,0.4,1.1,0.8c0.2-0.4,0.7-0.6,1.1-0.8c0.4,0.1,0.8,0.1,1,0.3
		c0.6,0.5,0.3,1.4,0.2,2c0.5,0.3,1,0.4,1.6,0.7c-0.2,0.2-0.5,0.3-0.8,0.4l-0.8-0.2c-0.1-0.1-0.3-0.1-0.3-0.2
		c-0.3,0.3-0.6,0.7-0.8,1.1h12c-0.2-0.4-0.3-0.6-0.6-1c-0.2-0.5-0.1-1.2-0.2-1.8l1.1-1.7c0.6,0,1.3-0.2,2-0.1c0,0,0.1,0,0.1,0
		c0.3-0.2,0.4-0.6,0.8-0.6c0.7-0.2,1.3,0.1,1.8,0.5c0,0,0,0.1-0.1,0.1c-0.2,0.4-0.7,0-1,0.1c-0.1,0.1,0.1,0.3,0.1,0.5
		c0.1,0.2-0.1,0.1-0.2,0.2c-0.2,0-0.4,0-0.5-0.2c0,0,0-0.1-0.1-0.1c-0.2,0.3-0.4,0.5-0.4,0.8c0.2,0.2,0.5,0.4,0.6,0.6
		c0.2,0.3-0.2,0.5-0.2,0.8c0,0-0.1,0-0.1,0c-0.2-0.1-0.3-0.4-0.5-0.3c-0.2,0.8,0.1,1.6,0,2.3c0,0,0,0,0,0h1c0,0,0,0,0.1,0l0.1-1.6
		c0.2-1.1,0.8-2,1.5-2.8c0.8-0.5,1.3,0.5,1.9,0.9c0.1,0,0.1,0.1,0.1,0.2c0,0.2-0.2,0.2-0.3,0.3c-0.4,0.1-0.6-0.3-0.9-0.5
		c-0.2,0.2-0.3,0.5-0.6,0.7l0.1,0c0.3,0.3,0.6,0.6,0.6,1c0,0.3-0.2,0.7-0.5,0.9c-0.2-0.4-0.4-0.8-0.6-1.3c0,0,0,0,0,0
		c-0.5,0.1-0.6,0.7-0.7,1.1c0,0.4-0.3,0.6-0.2,1h6.2c0.7-0.1,1.4-0.1,2-0.6c2.3,0.4,4.7-0.2,6.5-1.5c1-0.8,1.8-1.7,2.5-2.7
		c0.6-0.9,1.1-1.7,1.4-2.7c0.1-0.3,0.2-0.6,0.3-0.9s0.2-0.6,0.2-0.9c0-0.2,0.1-0.3,0.1-0.5C65.1,41.9,64.7,38.7,63.8,36z M51.2,24.1
		c-0.4,0-0.8,0.2-1.1,0c-0.2-0.1-0.5,0-0.6,0.1c-0.3,0-0.5-0.1-0.7-0.2c0,0,0.1,0,0.1,0c0,0,0,0-0.1,0c0.5-0.1,0.9-0.5,1.4-0.6
		C50.5,23.5,50.8,23.7,51.2,24.1C51.1,24,51.1,24,51.2,24.1C51.1,24,51.1,24,51.2,24.1z M54.2,26.2c-0.2-0.3-0.5-0.6-0.9-0.6
		c-0.3-0.3-0.6-0.8-1.1-0.8c0,0,0.1,0,0.1,0c0,0-0.1,0-0.1,0c0.4-0.2,0.8-0.2,1.2-0.2c0.3,0.4,0.6,0.7,0.7,1.2L54.2,26.2
		c0-0.1,0-0.1,0-0.1L54.2,26.2z M9.8,52C9.8,52,9.8,52,9.8,52C9.8,52.1,9.8,52.1,9.8,52c-0.2-0.1-0.5-0.2-0.7-0.3
		C9.1,51.9,9,52,9,52.1c-0.1,0.4,0.1,0.9,0,1.4L9,54c0,0,0,0,0,0L9,54c-0.2,0-0.5-0.3-0.6-0.5c0-0.7-0.1-1.3,0-2l0,0c0,0,0,0,0,0
		l1-1.1C9.8,50.8,10,51.5,9.8,52z M12.2,52c-0.2-0.4-0.5-0.8-0.9-0.9c-0.2,0.2-0.3,0.5-0.3,0.8c-0.1,0.5,0,1,0,1.5c0,0,0,0,0,0
		c0,0,0,0,0,0c-0.2,0.2-0.5,0.4-0.7,0.5c-0.3-0.8-0.2-1.7,0-2.6c0.1-0.3,0.1-0.6,0.2-0.9c0.1-0.4,0.4-0.8,0.7-1.2l1-0.1
		c0,0-0.1,0-0.1,0.1l0.1,0c-0.2,0.1-0.3,0.3-0.3,0.5c0,0.1,0,0.2-0.1,0.3c0.2,0.2,0.6,0.1,0.6,0.5c0.1,0.3,0.1,0.5,0,0.8
		C12.4,51.6,12.3,51.8,12.2,52z M36.5,39C36.5,39,36.5,39,36.5,39C36.4,39.1,36.4,39.1,36.5,39c0,0.2-0.2,0.2-0.3,0.2
		c-0.8,0.1-1.6-0.2-2.2-0.6c0-0.1-0.1-0.1-0.1-0.3c0,0,0,0,0,0c0,0,0,0,0-0.1c0.4,0,0.7-0.5,1-0.1C35.4,38.3,36,38.8,36.5,39z
		 M34.6,46.2c-0.4-0.1-0.9-0.1-1.1-0.5c-0.1-0.1-0.3-0.3-0.5-0.2c-0.5,0.4-0.9-0.2-1.5-0.1c-0.4,0.1-0.7,0.3-1.1,0.5l-0.2-0.1
		c0,0,0,0,0-0.1h0c0.1-0.4,0.4-0.7,0.6-0.9c0.7,0.3,1.2-1,1.8-0.3c0.2,0.1,0.5,0.1,0.8,0.3C34.2,44.9,34.4,45.6,34.6,46.2
		C34.6,46.1,34.6,46.1,34.6,46.2C34.6,46.1,34.6,46.1,34.6,46.2z M31.5,39.4L31.5,39.4c0.3-0.3,0.8-0.3,1.2-0.3
		c0.2,0.2,0.2,0.4,0.3,0.5c0.3,0.4,0.7,0.7,1,1c0,0,0,0-0.1,0c0,0,0,0,0.1,0.1c-0.4,0.1-0.9,0-1.2-0.1C32.4,40.3,31.8,40,31.5,39.4
		L31.5,39.4C31.5,39.5,31.5,39.5,31.5,39.4C31.5,39.4,31.5,39.4,31.5,39.4z M35.4,35.3C35.4,35.3,35.4,35.3,35.4,35.3
		C35.4,35.3,35.4,35.3,35.4,35.3c-0.3,0.2-0.4-0.1-0.7,0c-0.3,0-0.6,0-0.9-0.1c-0.1-0.2-0.2-0.4-0.3-0.6c0,0,0,0,0,0c0,0,0,0,0,0
		c0.4-0.1,0.7-0.3,1.1,0C34.9,34.7,35.1,35.1,35.4,35.3z M33.5,31C33.5,31,33.5,31,33.5,31C33.5,31,33.5,30.9,33.5,31
		c0.2,0.1,0.2,0.4,0.5,0.6c0.3-0.2,0.4,0.3,0.5,0.5c0.1,0.2,0.2,0.4,0.3,0.7c0,0,0,0,0,0c0,0,0,0,0,0.1c-0.6,0.2-0.9-0.4-1.3-0.8
		C33.5,31.7,33.4,31.3,33.5,31z M32.7,35.8l0.9,0.7v0.1c0,0,0,0,0,0v0.1c-0.6,0-1.2,0.2-1.6-0.3c0,0,0,0,0,0c0,0,0,0,0,0
		C32.2,36.1,32.5,35.9,32.7,35.8z M32,27.1c0.2,0.5,0.6,0.9,0.4,1.5l-0.1,0.3l0,0.1l-0.7,0.2L32,27.1C32,27.1,32,27.1,32,27.1
		L32,27.1z M17.4,22.2c0.2-0.5,0.5-1,0.8-1.5c0.2-0.1,0.4-0.1,0.6-0.2c0.4-0.3,0.9-0.7,1.4-0.4c0.4,0.1,0.7,0.3,1.1,0.3
		c0,0.2,0,0.4,0.2,0.5c0.6,0.1,0.6,0.8,1,1.1c0.2,0.2,0.6,0.1,0.9,0.1c0.4,0.1,0.9,0.2,1.2,0.4c0.7-0.5,1.6-0.6,2.5-0.5
		c0.1-0.4,0.2-0.7,0.4-1c0.2,0,0.1-0.3,0.3-0.3c0.5-0.3,1-0.7,1.6-0.5c0.5,0.2,1.1,0.2,1.5,0.6l0,0c0.5,0.4,0.6,1,0.9,1.5
		c0,0,0,0,0,0.1c0,0,0,0,0,0c0,0.1,0,0.1-0.1,0.2c0,0.3-0.1,0.5-0.1,0.8c0,0,0,0,0,0.1c0,0,0,0.1,0,0.1c-0.1,0.3-0.2,0.5-0.4,0.7
		l-0.5,0.4l0,0c-0.2,0.1-0.4,0.1-0.6,0.2c0.2,0.5,0.2,1,0,1.5c-0.1,0.3-0.2,0.6-0.3,0.8c0.2,0,0.4-0.1,0.6-0.3l0,0
		c0,0.1,0,0.2,0,0.3c0,0.1,0,0.1,0,0.2c0,0,0,0.1,0,0.1c0,0.1,0,0.3,0,0.4c-0.1,0.4-0.5,0.8-0.7,1.1c-0.2,0.6-0.7,1.3-1.3,1.5
		c0,0.1,0,0.1,0.1,0.2c1.4,0,2.8,0.4,4,1.1l0,0.6c0,0,0,0,0,0l0,0.1c-1.1-0.7-2.5-1.1-3.8-1.2c0,0.2-0.1,0.4-0.1,0.7
		c1.2,0.5,2.3,1.1,3.3,2l0,0.7c0,0,0,0,0,0l0,0.1c-1.1-0.9-2.2-1.9-3.5-2.3c-0.2,0.3-0.4,0.5-0.6,0.8c-0.7-0.5-1.5-0.9-2.3-1.1
		c-0.4,0.1-0.4-0.3-0.4-0.5l-0.1-0.5c0,0,0,0,0,0l0-0.1c0.5-0.1,0.7-0.6,0.9-1c0.2,0.1,0.4,0.2,0.6,0.1c0.1-0.1,0.1-0.1,0.1-0.2
		c0-0.1,0-0.1,0-0.2c-0.2-0.6-1-0.6-1.5-0.7c-0.7-0.1-1.4,0-2,0.3c0,0-0.1,0.1-0.1,0.1c0,0.1,0,0.3,0,0.4c0.1,0.1,0.2,0.2,0.3,0.2
		c0.2,0,0.3,0,0.5-0.1c0,0.5,0.2,0.9,0.6,1.1c0,0,0.1,0,0.1,0l0,0.1l0,0l0,0.1l-0.1,0.6c0,0,0,0,0,0l0,0.1c-0.2,0.4-0.7,0.2-1,0.4
		c-0.6,0.2-1.2,0.4-1.7,0.7c-0.3-0.2-0.6-0.5-0.8-0.7c-0.9,0.3-1.7,0.8-2.5,1.4l-0.8,0.6c-0.1-0.2,0-0.5,0-0.8c0,0,0,0,0,0
		c0,0,0,0,0,0c0.9-0.9,2-1.2,3-1.7l0-0.7c-0.4-0.1-0.8,0-1.2,0c-0.9,0.2-1.7,0.5-2.5,1c0-0.2,0-0.4,0-0.6c0-0.1,0.1-0.2,0.2-0.3
		c1.1-0.6,2.3-1,3.7-0.9c0-0.1,0-0.2-0.1-0.3c-0.1-0.2,0-0.4-0.3-0.5c-0.6-0.6-1-1.4-1.1-2.2l0,0c0,0,0,0,0,0c0,0,0,0,0,0l0,0
		c0,0,0,0,0,0c0,0,0,0,0-0.1l0,0c0,0,0,0,0,0c0,0,0,0,0,0h0c0.1,0,0.2,0,0.2,0c0,0,0,0,0,0C19,26.7,19,25.8,19.2,25
		c0-0.1,0-0.2,0.1-0.3c-0.5-0.2-1.2-0.7-1.4-1.2C17.7,23.1,17.5,22.7,17.4,22.2C17.4,22.2,17.4,22.2,17.4,22.2
		C17.4,22.2,17.4,22.2,17.4,22.2z M31.3,37.9c-0.6,0.1-1.1-0.2-1.4-0.7c-0.3-0.5-0.3-1-0.4-1.6c0,0,0,0,0,0c0,0,0-0.1,0-0.1
		c0.4,0.4,1.3,0.5,1.2,1.2C30.7,37.2,31,37.5,31.3,37.9C31.3,37.8,31.3,37.8,31.3,37.9C31.3,37.8,31.3,37.9,31.3,37.9z M27.6,39.6
		c-0.4-0.2-1.3-0.4-1.2-1c0,0,0,0,0,0c0,0,0,0,0,0c0.2-0.3,0.5-0.5,0.8-0.8C27.2,38.3,27.3,39,27.6,39.6
		C27.6,39.5,27.5,39.5,27.6,39.6C27.5,39.5,27.5,39.6,27.6,39.6z M20.4,36l0.9,0.6l-0.1,1.3c0,0,0,0,0,0l0,0.1
		C20.8,37.4,20.5,36.8,20.4,36L20.4,36C20.4,36.1,20.4,36.1,20.4,36z M20.3,40.7l-0.5,1.6c-0.5,0.3-1.1,0.2-1.7,0.2
		c0,0,0.1,0,0.1-0.1c0,0-0.1,0-0.1,0c0.7-0.4,1.4-1.1,1.7-1.8C20,40.6,20.2,40.6,20.3,40.7L20.3,40.7C20.3,40.7,20.3,40.7,20.3,40.7
		z M20,38.3c-0.7-0.2-1.3-0.8-1.7-1.4l0,0c-0.1-0.4-0.2-0.8-0.1-1.2c0,0,0,0,0,0c0,0,0,0,0-0.1c0.3,0.1,0.6,0.3,0.8,0.5l0,0.2
		C19.3,37,20,37.5,20,38.3C20,38.2,20,38.2,20,38.3C20,38.2,20,38.3,20,38.3z M19,39.4c0,0.1,0,0.1,0,0.2c-0.1,0.5-0.4,0.9-0.8,1.2
		l-0.4,0.4c0-0.6,0.2-1.2,0.3-1.7c0,0,0,0,0,0c0,0,0,0,0-0.1C18.4,39.3,18.8,39.2,19,39.4z M16.3,24.7
		C16.3,24.7,16.3,24.7,16.3,24.7L16.3,24.7c0.2-0.3,0.4-0.6,0.7-0.8v1l0,0v0l-0.7,0.4L16.3,24.7z M16.3,26.8l0.8-0.2l0,0.1l0,0
		l-0.4,0.5c0.1,0.9-0.3,1.6-0.3,2.5l0,0c0,0,0,0.1,0,0.1l-0.5-1.6c0-0.1,0-0.3,0-0.4C16,27.4,16.2,27.1,16.3,26.8z M16.3,38.4
		C16.3,38.3,16.3,38.3,16.3,38.4C16.3,38.3,16.3,38.3,16.3,38.4c0.1-0.3,0.4-0.5,0.6-0.7v0c0.3,0,0.6,0.1,0.8,0.3c0,0,0,0,0,0
		c0,0,0,0,0,0c-0.4,0.4-0.9,0.7-1.2,1.2C16.4,39,16.3,38.6,16.3,38.4z M15.9,51.9C15.9,51.9,15.9,51.9,15.9,51.9L15.9,51.9
		c-0.4,0.6-0.7,1.1-1.1,1.6h-0.1c0-0.3,0-0.6,0.1-0.9c0-0.1,0.1-0.3,0.1-0.5c0-0.1,0-0.2,0.1-0.4c0,0,0,0,0,0c0,0,0,0,0,0
		c0,0,0.1-0.1,0.1-0.1c0,0,0,0,0,0c-0.3,0-0.6-0.3-0.9-0.3c-0.3,0.2-0.2,0.5-0.4,0.7c-0.3,0.6-0.9,1.1-1,1.9c-0.1,0,0-0.2-0.1-0.2
		c0-0.7,0.1-1.4,0.2-2.1c0.1-0.4,0.2-0.8,0.4-1.2c0.4-0.5,1-0.7,1.6-0.8l0.5,0.2l0,0.1l0,0L15,50.2c0.4,0.2,1,0.6,1,1.2L15.9,51.9z
		 M18.8,50.4l-0.4,1.1l-0.7-1.8c-0.6-0.7-1.4-1-2.2-1.3c-0.2-0.1-0.4,0.1-0.6,0c0-0.1,0-0.2,0-0.3c0.1-0.3,0.2-0.5,0.4-0.7l0.2,0
		c0,0,0,0.1,0,0.1c0.1-0.1,0.2-0.1,0.3,0l0.1,0.1c0.3,0,0.7-0.1,0.7,0.3c0.3,0.2,1,0.2,0.9,0.8c0,0,0,0.1,0,0.1
		c0,0.1-0.1,0.2-0.1,0.3c0,0.1,0,0.1,0.1,0.2c0.4,0,0.9,0,1.1,0.4L18.8,50.4L18.8,50.4L18.8,50.4z M20.3,49l-0.6,0.8
		c-0.2-0.3-0.1-0.9-0.5-1.1c0,0,0,0,0,0c0,0,0,0,0,0c0.1-0.1,0.2-0.2,0.2-0.4c0,0,0-0.1,0-0.1c-0.1-0.2-0.3-0.2-0.4-0.2l-0.2,0
		c-0.7-0.3-1.3-0.8-1.9-1.3c-0.5-0.2-0.8,0.1-1.2,0.2c-0.1-0.1-0.2-0.2-0.2-0.3c0,0,0,0,0,0c0,0,0,0,0,0c0.4-0.3,0.4-1,1-0.9
		c0.3,0.1,0.6,0.1,0.9,0.3c0.4,0.1,0.6,0.5,0.9,0.7c0.4,0.3,0.8,0.5,1.2,0.8c0,0.2,0.1,0.4,0.3,0.5C20.3,47.9,20.2,48.5,20.3,49
		L20.3,49C20.3,48.9,20.3,48.9,20.3,49z M20.8,47v0.3c0,0,0,0,0,0v0.1c-0.2-0.6-0.6-1.3-1.3-1.4c-0.3-0.2-0.6-0.6-0.8-0.9
		c-0.3-0.1-0.7-0.1-1-0.3c-0.4,0-0.8,0.2-1.3,0.2l-0.1-0.2l0,0l0,0l0,0l0,0l0.7-0.9c0.7,0.2,1.6,0,2.1,0.7c0.3,0.2,0.7,0.4,1,0.7
		c0,0,0,0,0,0.1c0,0,0,0,0,0c0,0,0,0.1,0,0.1c0,0,0,0.1,0,0.1c0.2,0.2,0.4,0.3,0.6,0.4C20.8,46.2,20.9,46.6,20.8,47z M20.4,42.5
		C20.5,42.5,20.5,42.5,20.4,42.5C20.5,42.5,20.5,42.5,20.4,42.5L20.4,42.5c0.3-0.3,0.6-0.6,1-0.7l0.8-0.8H23c0,0,0,0,0,0.1h0
		c-0.2,0.5-0.5,1.2-1.2,1.4C21.4,42.5,20.9,42.6,20.4,42.5z M22.1,37.7c0.3,0.2,0.6,0.2,0.9,0.3c0,0.4,0.2,1,0.2,1.4c0,0,0,0,0,0
		c0,0,0,0,0,0.1C22.7,39,22.2,38.5,22.1,37.7C22.1,37.8,22.2,37.8,22.1,37.7C22.2,37.8,22.1,37.7,22.1,37.7z M22.4,43.9
		C22.4,43.9,22.5,43.9,22.4,43.9C22.5,43.8,22.4,43.8,22.4,43.9c0.2-0.3,0.5-0.5,0.6-0.8c0.4-0.3,0.6-0.8,0.8-1.2
		c0.4-0.2,0.7-0.1,1.1-0.2c0,0.1,0,0.1,0,0.2c-0.1,0.5-0.6,0.9-0.9,1.3C23.5,43.5,23,43.7,22.4,43.9z M25,45.7
		c-0.3,0.2-0.7,0.2-1.1,0.1L23.3,45c0,0,0,0,0.1,0l-0.1-0.1c0.5,0.1,1,0.1,1.5,0L25,45.7C25,45.7,25,45.7,25,45.7L25,45.7z M24.6,40
		l-0.3-1.2c0,0,0,0,0,0l0,0l0,0c0.4-0.2,0.6-0.4,1-0.8c0,0.3,0,0.6-0.1,0.9C25.2,39.2,25,39.7,24.6,40z M25.8,34.7
		C25.8,34.7,25.7,34.7,25.8,34.7c-0.1,0.1-0.1,0.2-0.1,0.2c0,0,0,0.1,0,0.1c0,0.1,0,0.1,0,0.2c0,0.1,0,0.1-0.1,0.2
		c0,0.1-0.1,0.3,0,0.4c0,0,0,0,0,0c0,0,0,0,0,0.1c-0.3,0.1-0.6,0.2-1,0.2c0-0.1,0-0.3-0.1-0.4c-0.1-0.3-0.1-0.6-0.2-0.9l-0.1-0.1
		c-0.1,0.1-0.1,0.1-0.1,0.2c0,0.1,0,0.1,0,0.2c0,0.1,0,0.1-0.1,0.2c-0.1,0.2-0.3,0.4-0.3,0.7c-0.3,0-0.6-0.1-0.9-0.3l0-1
		c0,0-0.1,0-0.1,0l-0.5,0.5c-0.4-0.5-0.5-1.1-0.4-1.7c0,0,0,0,0,0c0,0,0,0,0-0.1c1.4-0.7,3.3-0.6,4.8-0.2c0.2,0.1,0.4,0.1,0.6,0.3
		c0,0.1,0,0.2-0.1,0.3c-0.1,0.6-0.3,1.2-0.8,1.7C26.2,35.3,25.9,35,25.8,34.7z M27.8,45.5C27.8,45.6,27.7,45.5,27.8,45.5
		c-0.5,0-0.9-0.2-1.2-0.5l0,0c-0.1-0.2-0.1-0.4-0.1-0.6c0,0,0,0,0,0c0,0,0,0,0-0.1c0.2,0,0.5,0,0.8,0L27.8,45.5
		C27.8,45.5,27.8,45.5,27.8,45.5L27.8,45.5z M28.9,42.5c-0.4,0.2-0.8,0.4-1.2,0.2c-0.6-0.3-0.7-1.1-1.4-1.4
		c-0.1-0.1-0.1-0.3-0.1-0.5l0,0l0,0c0,0,0,0,0-0.1l1.6,0.4c0,0.2,0.2,0.3,0.4,0.4C28.3,41.9,28.6,42.1,28.9,42.5
		C28.9,42.4,28.8,42.4,28.9,42.5C28.8,42.4,28.8,42.5,28.9,42.5z M28.6,39c-0.3-0.4-0.3-0.9-0.2-1.3c0.1-0.4,0.2-0.8,0.4-1.2
		c0.2,0.5,0.3,1.1,0.4,1.7c0.1,0.3,0.7,0.5,0.9,0.8c0,0,0,0,0,0c0,0,0,0,0,0C29.6,39.3,28.9,39.4,28.6,39z M29.2,40.8
		C29.2,40.8,29.2,40.8,29.2,40.8C29.2,40.8,29.2,40.8,29.2,40.8c0.5-0.1,1-0.2,1.5-0.3h0.2l0.4,0.6c0.4,0.2,0.8,0.4,1.1,0.6
		c0,0,0,0,0,0.1c0,0,0,0,0,0c0,0.1-0.2,0.1-0.3,0.2C30.9,42.2,30,41.5,29.2,40.8L29.2,40.8z M29.2,47.9L29.2,47.9
		C29.2,47.9,29.2,47.9,29.2,47.9L29.2,47.9c0.1-0.4,0.2-0.8,0.4-1.1c0.4-0.1,0.7-0.3,1.1-0.3c0.3-0.1,0.6-0.2,0.9-0.2l0,0.1
		c1.2,0,2.4,0,3.2,1l0.1,0.6c0,0,0,0,0,0l0,0.1c-0.4-0.3-0.9-0.2-1.2-0.6c-0.4-0.2-0.8-0.2-1.2-0.2c-0.4,0.1-0.8,0.1-1.2,0.3
		c-0.1-0.1,0-0.3-0.2-0.3C30.4,47.4,29.8,47.5,29.2,47.9z M32.4,51.7L32.4,51.7C32.4,51.7,32.4,51.7,32.4,51.7L32.4,51.7L32.4,51.7
		L32.4,51.7L32,52c-0.3-0.4-0.1-1.1-0.6-1.3c-0.4,0.1-0.7-0.3-1-0.6l0,0l0.1,0c0,0,0,0,0,0l0.3-0.1c0.2,0,0.3-0.1,0.5,0
		c0.2,0.2,0.4,0.3,0.4,0.6c0.2,0.1,0.4,0,0.6,0.1C32.4,50.9,32.5,51.4,32.4,51.7z M35.9,50.3c-0.1,0.3-0.2,0.7-0.4,1.1
		c-0.3-0.5-0.4-1.3-1.2-1.5c-0.1-0.3-0.2-0.7-0.5-0.9L32.9,49l0,0c0.1,0.3,0.6,0.5,0.5,0.8c0,0,0,0.1,0,0.1c0.2,0.3,0.7,0.3,0.8,0.7
		c0.2,0.3,0,0.7,0.1,1l0,0c0,0,0,0,0,0l-0.7,0.4c0-0.6,0.2-1.5-0.6-1.9c-0.6,0.2-0.7-0.6-1.1-0.9c-0.2-0.1-0.2-0.4-0.4-0.3
		c-0.5,0.3-1.1,0.1-1.6,0.4h-0.1l0,0c0,0,0,0,0-0.1h0c0.1-0.3,0.1-0.8,0.6-0.9c0.3-0.3,0.7-0.2,1.1-0.3l0.7-0.2
		c0.9,0,1.6,0.4,2.4,0.6c0.4,0.3,0.6,0.7,0.6,1.1C35.5,50,35.9,50,35.9,50.3C35.9,50.3,35.9,50.3,35.9,50.3
		C35.9,50.3,35.9,50.3,35.9,50.3z M36.9,50.1L36.9,50.1c-0.2-0.2-0.3-0.5-0.5-0.7c0,0,0,0,0-0.1l0,0c0-0.1,0.1-0.2,0.1-0.3
		c0.1-0.8-0.4-1.6-0.5-2.4l-0.1-0.3c0,0,0,0,0.1,0.1l-0.1-0.1c0.4,0.4,1.1,0.8,1,1.4c0.1,0.7,0.2,1.4,0.1,2.1
		C37,49.9,36.9,50,36.9,50.1z M37.7,37.6c-0.5,0.2-1.2,0.1-1.7-0.2l0.1,0c0,0,0,0,0,0l0.7-0.4C37,37.2,37.4,37.4,37.7,37.6
		C37.7,37.6,37.7,37.6,37.7,37.6C37.6,37.6,37.7,37.6,37.7,37.6z M38.2,39.6c0-0.1,0.1-0.2,0.1-0.4c0.3,0.3,0.6,0.6,0.6,1
		c0,0.1,0,0.1,0,0.2c0,0.2-0.2,0.4-0.2,0.5c-0.3-0.2-0.5-0.5-0.5-0.9C38.1,39.9,38.2,39.8,38.2,39.6z M39.6,45.1
		c-0.1,0.5-0.3,1.1-0.4,1.6c0-0.6-0.2-1.1-0.5-1.5c0,0,0,0,0-0.1c0-0.1,0.1-0.2,0.1-0.3c0,0,0-0.1,0-0.1c-0.2-0.2-0.6-0.3-0.6-0.7
		c0-0.1,0-0.1,0-0.2c0-0.4,0.4-0.6,0.5-0.9c0.1,0,0.1,0.1,0.2,0.1c0.1,0.4,0.3,0.7,0.2,1.1c0,0.1,0,0.1,0,0.2
		C39,44.8,39.6,44.7,39.6,45.1C39.6,45.1,39.6,45.1,39.6,45.1L39.6,45.1z M40.3,42.5c-0.2,0.1-0.3,0.3-0.5,0.4L39.4,42l0.1-1.2
		c0,0,0,0,0,0l0-0.1c0.1,0,0.3,0.1,0.4,0.1C40,41,40,41.3,40,41.5c0.1,0.3,0.4,0.5,0.3,0.8C40.3,42.4,40.3,42.4,40.3,42.5z M42,46.1
		c0,0,0,0.1,0,0.1c0,0.1-0.2,0.2-0.2,0.3c-0.2,0.4-0.5,0.7-0.7,1.1c0.1-0.4,0.3-1,0-1.4c-0.1-0.2-0.6,0-0.5-0.3
		c0-0.5,0.2-1.1-0.3-1.6l0,0c0-0.1,0-0.2,0-0.3c0.1-0.4,0.7-0.5,0.9-0.9c0.2,0.3,0,0.8,0.1,1.2c0.1,0.4,0.2,0.8,0.1,1.2
		c0,0.1,0,0.1-0.1,0.2c0,0.1,0.1,0.2,0.2,0.2C41.8,46,42.1,45.9,42,46.1z M42.8,45.2L42.8,45.2C42.7,45.2,42.7,45.3,42.8,45.2
		c-0.3,0.1-0.2-0.2-0.3-0.4c-0.2-0.6-0.3-1.1-0.4-1.7c-0.4-0.9-0.8-1.7-1.2-2.6c-0.2-0.4-0.6-0.7-1-0.9c0,0,0.1,0,0.1,0
		c0,0-0.1,0-0.1-0.1l0,0c0.4,0,0.9,0.1,1.3,0.4c0,0.2,0.1,0.5,0.3,0.6c0.7,0.1,0.7,0.9,1.1,1.4c0,0,0,0.1,0,0.1
		c0,0.1-0.2,0.2-0.2,0.3c-0.2,0-0.3,0.1-0.3,0.3v0c0.3,0.2,0.6,0.3,0.8,0.6C43,43.9,42.8,44.6,42.8,45.2z M41.2,38.2
		C41.2,38.2,41.2,38.2,41.2,38.2C41.2,38.2,41.2,38.1,41.2,38.2L41.2,38.2c0.7-0.2,1,0.6,1.6,0.7c0.2,0.2,0.4,0.3,0.5,0.6
		c0,0.3,0.1,0.6,0,1c0,0,0,0,0,0c0,0,0,0,0,0.1C42.5,39.8,42,39,41.2,38.2z M44.2,44.2C44.2,44.2,44.2,44.2,44.2,44.2
		C44.2,44.2,44.2,44.3,44.2,44.2c-0.2-0.5-0.6-1.1-0.9-1.7c0-0.1-0.1-0.1-0.1-0.2l0,0c0,0,0,0,0,0l0,0l0.3-0.1
		c0.2,0,0.4-0.1,0.5,0.1C44.6,42.8,44.1,43.6,44.2,44.2z M51.1,41.7c-0.4,0.2-0.8-0.2-1.3-0.3c-0.2-0.1-0.4-0.2-0.3-0.5
		c0,0,0-0.1,0-0.1c0,0,0,0,0,0c0,0,0-0.1,0-0.1c-0.4-0.3-0.7,0.1-1.1,0.1c-0.3,0.1-0.5-0.1-0.8,0.2c0,0.1,0.2,0.2,0.2,0.3l0,0
		c0,0,0,0,0,0.1l-0.8,0.3c-0.3,0-0.6,0-0.8-0.2c-0.1-0.3-0.1-0.6-0.1-0.9c0,0,0,0,0,0c0,0,0,0,0-0.1c0.3-0.1,0.8,0,1-0.3
		c0.7-0.4,1.5,0,2.2,0.1c0.2,0,0.4-0.1,0.5-0.2c0.3,0.1,0.6,0.4,0.9,0.5C51,41,51,41.3,51.1,41.7C51.1,41.7,51.1,41.7,51.1,41.7
		C51.1,41.7,51.1,41.7,51.1,41.7z M50.3,44c-0.3-0.2-0.7-0.3-1-0.5c0-0.1,0-0.4-0.1-0.4c-0.6-0.2-1.3-0.1-1.8,0.1
		c-0.2,0-0.3-0.4-0.5-0.6c0-0.1,0-0.1,0-0.2c0,0,0,0,0,0c0,0,0,0,0-0.1c0.2,0,0.5,0,0.7-0.2c0.6-0.1,1.3-0.1,1.9,0.1
		c0,0.6,0.8,0.6,0.8,1.2L50.3,44C50.3,43.9,50.3,43.9,50.3,44L50.3,44z M49.3,38.4c0.2-0.2,0.4-0.3,0.7-0.2c0.5,0.3,1,0.8,1,1.3
		c0,0,0,0,0,0c0,0,0,0,0,0.1c-0.8-0.5-1.8-0.7-2.7-0.8c-0.6,0-0.9,0.6-1.5,0.6c-0.2,0.1-0.4,0.3-0.6,0.4c-0.1,0,0-0.2-0.1-0.3
		c0,0,0,0,0,0.1l0,0c-0.1-0.3-0.1-0.6,0-0.9c0,0,0,0,0,0c0,0,0,0,0-0.1c0.4,0,0.6-0.3,1-0.4c0.6,0.1,1.1-0.1,1.7-0.3
		C49,37.9,48.7,38.8,49.3,38.4z M46,36.9c0.5-0.3,0.9-0.9,1.4-0.5c0.3,0,0.5,0.1,0.8,0.2c0.2,0.2,0.3,0.4,0.5,0.7c0,0,0,0-0.1,0
		c0,0,0,0,0,0.1c-0.7,0-1.5-0.3-2.1,0.2c-0.2,0.2-0.4,0.2-0.6,0.3c-0.1-0.1-0.1-0.3,0-0.5C45.9,37.1,45.9,37,46,36.9z M45.7,35
		C45.7,35,45.7,35,45.7,35C45.7,35,45.7,35,45.7,35L45.7,35c0.2-0.3,0.4-0.5,0.6-0.7c0.3,0,0.6-0.2,0.9,0c0.1,0.6,0.7,0.3,1.1,0.4
		c0.2,0.3,0.3,0.6,0.5,0.9c0,0,0,0-0.1,0c0,0,0,0,0,0.1c-0.7-0.2-1.5-0.4-2.2-0.3c-0.3,0.1-0.6,0.1-0.8,0.3c-0.1-0.1-0.1-0.2,0-0.4
		c0-0.1,0-0.1,0-0.2C45.6,35.1,45.7,35,45.7,35L45.7,35z M48.4,49.6l-0.1,0.1c-0.5-0.3-1-0.5-1.5-0.6c0-0.1,0-0.3,0-0.4
		c-0.2-0.1-0.3-0.2-0.6-0.2c-0.2,0.1-0.5,0.3-0.8,0.2l0,0c0,0,0,0,0.1,0c0,0,0,0-0.1,0c0.4-0.2,0.4-0.6,0.9-0.9c0.1-0.2,0.3,0,0.4,0
		c0.2,0.1,0.4,0.2,0.7,0.2c0,0.1,0,0.3,0,0.4c0,0,0,0.1,0,0.1c0.1,0.2,0.4,0.1,0.6,0.2C48.1,48.8,48.4,49.1,48.4,49.6L48.4,49.6
		C48.4,49.5,48.4,49.6,48.4,49.6z M49.2,48.4l-0.7-0.6c0-0.1,0.1-0.4-0.1-0.5c-0.4-0.4-1.2-0.1-1.7-0.2c-0.2,0-0.2-0.2-0.1-0.3
		c0-0.1,0.1-0.2,0.1-0.2l0,0c0.1-0.1,0.2-0.3,0.3-0.4c0.3,0,0.5-0.2,0.8-0.2c0.5-0.1,0.8,0.5,1.3,0.5c0.2,0.2,0.4,0.5,0.4,0.7
		c0,0.2,0,0.4-0.1,0.6C49.3,48,49.3,48.2,49.2,48.4z M49.8,46C49.8,46,49.8,46,49.8,46C49.8,46,49.7,46.1,49.8,46
		c-0.3,0.1-0.2-0.3-0.5-0.4c-0.3-0.5-0.8-0.7-1.4-0.7c-0.4,0-0.6,0.4-0.9,0.5c0,0,0-0.1,0-0.1c0-0.1,0.1-0.2,0.1-0.3
		c0-0.2,0-0.4,0.1-0.6c0-0.2,0.1-0.4,0.4-0.4l0.6,0c0.3,0.7,1.2,0.2,1.6,0.9C49.8,45.2,49.7,45.6,49.8,46z M51.5,50.2
		c-0.1,0.2-0.2,0.4-0.3,0.5c-0.1-0.6-0.7-1-0.9-1.6l0,0c0,0,0,0,0,0l0,0l0.4-0.7c0.3,0.2,0.6,0.5,0.7,0.8c0,0,0,0,0,0.1v0
		c0,0.1,0,0.2-0.1,0.3c0,0.1,0,0.2,0,0.3C51.2,50,51.5,50,51.5,50.2C51.5,50.2,51.4,50.2,51.5,50.2C51.4,50.2,51.5,50.2,51.5,50.2z
		 M51.9,48.7l-0.6-0.9l0,0c0,0,0,0,0,0l0,0c0.2-0.3,0.2-0.7,0.5-0.9c0.2-0.1,0.3,0.1,0.3,0.2c0.1,0.3,0.1,0.7,0,1.1
		C52.1,48.3,52,48.5,51.9,48.7z"/>
	<path d="M25.3,50.2l-1.1,0.4c-0.1,0.2-0.2,0.5-0.2,0.7l0.4-0.1c0.2,0,0.3,0.2,0.4,0.3c-0.1,0.5-0.6,0.6-1,0.8
		c-0.3,1,0.6,1.6,0.7,2.4h1.2c-0.5-0.7-0.6-1.7-0.7-2.6C25.1,51.4,25.1,50.7,25.3,50.2z"/>
	<path d="M27.3,51.9l-0.8-0.8h-0.1c-0.2,0.2-0.3,0.5-0.5,0.7c0,0.9,0.3,1.8,0.5,2.7h0.9c0-0.9,0.1-1.8,0.1-2.7L27.3,51.9z"/>
	<path d="M29.5,51.5c-0.2-0.2-0.4-0.2-0.6-0.2c-0.3,0-0.4,0.4-0.6,0.6l0,0L28,54.5h0.9c0.2-0.5,0.4-1.2,0.5-1.7
		C29.5,52.4,29.8,51.9,29.5,51.5z"/>
	<path d="M43,50.7c-0.3,0.1-0.7,0.1-1,0.2l0.3,0.3c0.1,0.4,0.1,1-0.2,1.3c-0.3-0.2-0.3-0.5-0.5-0.8c-0.1,0.1-0.2,0.3-0.3,0.5
		c0,0.9,0.3,1.6,0.7,2.4h1c-0.1-0.8-0.2-1.6-0.2-2.4C42.6,51.6,42.9,51.2,43,50.7z"/>
	<path d="M19.8,23.6c0.5-0.6,1.2-0.9,1.9-1.2c-0.1-0.9-1.2-1.1-1.8-1.4l-0.3,0c-0.8,0.2-1.1,1-1.2,1.7
		C18.5,23.4,19.3,23.2,19.8,23.6z"/>
	<path d="M22.6,25.3c-0.8,0.1-1.6,0-2.4,0l-0.1,0c0.1,0.2,0.4,0.4,0.6,0.5c0.1,0.3,0.3,0.4,0.5,0.6c0.2,0.1,0.5,0.1,0.8,0.1
		c0.1,0,0.2-0.4,0.3-0.1c0,0.3,0.2,0.7,0,1.1c0,0.1,0,0.1-0.1,0.2c0,0.1,0,0.2,0,0.2c-0.1,0.5-0.8,0.5-1.1,0.9
		C21,29,21,29.2,21,29.3c0,0.2,0,0.4,0.1,0.5c0.3-0.1,0.6-0.3,0.9-0.4c0.1-0.4,0.4-0.7,0.8-0.8c0.1-0.9,0.3-1.8,0.4-2.8
		C23,25.6,22.8,25.4,22.6,25.3z"/>
	<path d="M21.2,31.1c0,0.2-0.1,0.4,0.1,0.5l0.6-0.3"/>
	<path d="M22,24.4l1.2,0c0.2-0.3,0.4-0.7,0.7-1"/>
	<path d="M26.3,24.5c0.3-0.1,0.7,0,0.9-0.1c0-0.1-0.1-0.2-0.2-0.3c-0.5,0-0.4-0.7-0.9-0.6c-0.2,0-0.5,0-0.6,0c0,0,0,0,0,0
		c0,0,0,0.1,0.1,0.1C26.2,23.6,25.9,24.3,26.3,24.5z"/>
	<path d="M26.7,25.4c-0.3,0.1-0.6,0.1-0.9,0.4l-0.1,0c0.1,0.8,0.1,1.7,0.2,2.5c0.3,0.2,0.8,0.5,0.8,1c0.4,0.1,0.8,0.3,1.1,0.7
		c0.2-0.2,0.4-0.5,0.5-0.7c-0.4-0.4-1.3-0.2-1.4-1l-0.5-0.4c-0.1-0.5-0.1-1-0.2-1.5l0,0c0,0,0,0,0,0l0.1-0.1
		c0.1,0.1,0.2,0.3,0.3,0.4c0.4,0,0.8,0.2,1.2-0.1c0.2-0.1,0.2-0.5,0.5-0.5c0.1-0.1,0.3-0.2,0.5-0.3c0-0.1,0.1-0.1,0.1-0.2
		c0,0,0,0,0,0L26.7,25.4z"/>
	<path d="M26.6,31.2l1,0.4l0.1-0.5"/>
	<path d="M29.8,24.3L29.8,24.3c0.2-0.4,0.7-0.2,1-0.4c0.1-0.7,0.2-1.4-0.1-2c-0.4-0.3-0.8-0.6-1.3-0.8l-0.8,0.2l0,0
		c-0.4,0.2-0.5,0.6-0.7,1C28.7,22.7,29.5,23.4,29.8,24.3z"/>
</g>
</svg>
