<!-- Generator: Adobe Illustrator 28.1.0, SVG Export Plug-In . SVG Version: 6.00 Build 0)  -->
<svg version="1.1" id="Layer_1" xmlns="http://www.w3.org/2000/svg" xmlns:xlink="http://www.w3.org/1999/xlink" x="0px" y="0px"
	 viewBox="0 0 72 72" style="enable-background:new 0 0 72 72;" xml:space="preserve">
<path d="M36,7.2C19.8,7.2,7.2,19.1,7.2,35.1c0,8.4,3.4,15.7,9,20.7c0.5,0.4,0.8,1,0.8,1.6l0.2,5.1c0,1.3,1.1,2.3,2.4,2.2
	c0.3,0,0.6-0.1,0.9-0.2l5.7-2.5c0.5-0.2,1-0.3,1.5-0.1c2.6,0.7,5.4,1.1,8.3,1.1c16.2,0,28.8-11.9,28.8-27.9S52.2,7.2,36,7.2z
	 M53.3,28.7l-8.5,13.4c-1.3,2-3.9,2.6-6,1.4c-0.1-0.1-0.2-0.1-0.3-0.2l-6.7-5c-0.6-0.5-1.5-0.5-2.1,0l-9.1,6.9
	c-1.2,0.9-2.8-0.5-2-1.8l0,0l8.5-13.4c1.3-2,3.9-2.6,6-1.4c0.1,0.1,0.2,0.1,0.3,0.2l6.7,5c0.6,0.5,1.5,0.5,2.1,0l9.1-6.9
	C52.5,26,54.1,27.4,53.3,28.7z"/>
</svg>
