<?xml version="1.0" encoding="utf-8"?>
<!-- Generator: Adobe Illustrator 28.1.0, SVG Export Plug-In . SVG Version: 6.00 Build 0)  -->
<svg version="1.1" id="Layer_1" xmlns="http://www.w3.org/2000/svg" xmlns:xlink="http://www.w3.org/1999/xlink" x="0px" y="0px"
	 viewBox="0 0 2500 780" style="enable-background:new 0 0 2500 780;" xml:space="preserve">
<path d="M1317.6,196c0,28.1-22.7,50.7-50.8,50.7c-28.1,0-50.7-22.6-50.7-50.7s21.9-50.7,50.7-50.7
	C1295.7,146,1317.6,168.7,1317.6,196z M1108.3,298.3v12.5c0,0-24.2-31.2-75.7-31.2c-85.1,0-151.5,64.8-151.5,154.6
	c0,89,65.6,154.6,151.5,154.6c52.3,0,75.7-32,75.7-32V570c0,6.2,4.7,10.9,10.9,10.9h63.2V287.3h-63.2
	C1113,287.3,1108.3,292.8,1108.3,298.3L1108.3,298.3z M1108.3,486.4c-11.7,17.2-35.1,32-63.2,32c-50,0-88.2-31.2-88.2-84.3
	c0-53.1,38.3-84.3,88.2-84.3c27.3,0,52.3,15.6,63.2,32V486.4z M1229.3,287.3h74.9v293.6h-74.9V287.3L1229.3,287.3z M2349,279.5
	c-51.5,0-75.7,31.2-75.7,31.2V146h-74.9v434.9h63.2c6.2,0,10.9-5.5,10.9-10.9v-13.3c0,0,24.2,32,75.7,32
	c85.1,0,151.5-65.6,151.5-154.6S2433.3,279.5,2349,279.5L2349,279.5z M2336.5,517.7c-28.9,0-51.5-14.8-63.2-32V381
	c11.7-15.6,36.7-32,63.2-32c50,0,88.2,31.2,88.2,84.3S2386.4,517.7,2336.5,517.7z M2159.2,406.8v174.9h-75V415.4
	c0-48.4-15.6-67.9-57.7-67.9c-22.6,0-46.1,11.7-60.9,28.9v204.6h-74.9V287.3h59.3c6.2,0,10.9,5.5,10.9,10.9v12.5
	c21.9-22.7,50.7-31.2,79.6-31.2c32.8,0,60.1,9.4,82,28.1C2149.1,329.5,2159.2,357.6,2159.2,406.8L2159.2,406.8z M1708.7,279.5
	c-51.5,0-75.7,31.2-75.7,31.2V146H1558v434.9h63.2c6.2,0,10.9-5.5,10.9-10.9v-13.3c0,0,24.2,32,75.7,32
	c85.1,0,151.5-65.6,151.5-154.6C1860.2,345.1,1793.8,279.5,1708.7,279.5L1708.7,279.5z M1696.2,517.7c-28.9,0-51.5-14.8-63.2-32V381
	c11.7-15.6,36.7-32,63.2-32c50,0,88.2,31.2,88.2,84.3S1746.2,517.7,1696.2,517.7z M1493.2,279.5c22.6,0,34.4,3.9,34.4,3.9v69.5
	c0,0-62.5-21.1-101.5,23.4v205.3h-75V287.3h63.2c6.2,0,10.9,5.5,10.9,10.9v12.5C1439.4,294.4,1469.8,279.5,1493.2,279.5
	L1493.2,279.5z M714.8,554.4c-3.9-9.4-7.8-19.5-11.7-28.1c-6.3-14-12.5-27.3-18-39.8l-0.8-0.8c-53.9-117.1-111.6-235.8-172.6-352.9
	l-2.3-4.7c-6.4-12.1-12.6-24.4-18.7-36.7c-7.8-14.1-15.6-28.9-28.1-42.9C437.7,17.2,401.7,0,363.5,0c-39,0-74.2,17.2-99.9,46.8
	c-11.7,14-20.3,28.9-28.1,42.9c-6.1,12.3-12.3,24.5-18.7,36.7l-2.3,4.7C154.2,248.3,95.7,367,41.8,484.1l-0.8,1.6
	c-5.5,12.5-11.7,25.8-18,39.8c-3.9,8.6-7.8,18-11.7,28.1C1.2,582.4-1.9,609.8,2,637.9c8.6,58.6,47.6,107.7,101.5,129.6
	c20.3,8.6,41.4,12.5,63.2,12.5c6.2,0,14-0.8,20.3-1.6c25.8-3.1,52.3-11.7,78.1-26.5c32-18,62.5-43.7,96.8-81.2
	c34.4,37.5,65.6,63.2,96.8,81.2c25.8,14.8,52.3,23.4,78.1,26.5c6.2,0.8,14.1,1.6,20.3,1.6c21.9,0,43.7-3.9,63.2-12.5
	c54.7-21.9,92.9-71.8,101.5-129.6C728.1,610.6,725,583.2,714.8,554.4L714.8,554.4z M362.7,594.9c-42.2-53.1-69.5-103.1-78.9-145.2
	c-3.9-18-4.7-33.6-2.3-47.6c1.6-12.5,6.2-23.4,12.5-32.8c14.8-21.1,39.8-34.4,68.7-34.4c28.9,0,54.7,12.5,68.7,34.4
	c6.2,9.4,10.9,20.3,12.5,32.8c2.3,14.1,1.6,30.5-2.3,47.6C432.2,491.1,404.8,541.1,362.7,594.9z M674.2,631.6
	c-5.5,40.6-32.8,75.7-71,91.4c-18.7,7.8-39,10.1-59.3,7.8c-19.5-2.3-39-8.6-59.3-20.3c-28.1-15.6-56.2-39.8-89-75.7
	c51.5-63.2,82.8-121,94.5-172.5c5.5-24.2,6.3-46.1,3.9-66.4c-3.1-19.5-10.1-37.5-21.1-53.1c-24.2-35.1-64.8-55.4-110.1-55.4
	s-85.9,21.1-110.1,55.4c-10.9,15.6-18,33.6-21.1,53.1c-3.1,20.3-2.3,42.9,3.9,66.4c11.7,51.5,43.7,110.1,94.5,173.3
	c-32,35.9-60.9,60.1-89,75.7c-20.3,11.7-39.8,18-59.3,20.3c-21.1,2.3-41.4-0.8-59.3-7.8c-38.3-15.6-65.6-50.8-71-91.4
	c-2.3-19.5-0.8-39,7-60.9c2.3-7.8,6.2-15.6,10.1-25c5.5-12.5,11.7-25.8,18-39l0.8-1.6c53.9-116.3,111.6-235,171.8-350.6l2.3-4.7
	c6.3-11.7,12.5-24.2,18.7-35.9c6.2-12.5,13.3-24.2,21.9-34.4c16.4-18.7,38.3-28.9,62.5-28.9s46.1,10.2,62.5,28.9
	c8.6,10.2,15.6,21.9,21.9,34.4c6.3,11.7,12.5,24.2,18.7,35.9l2.3,4.7c59.2,116,116.2,233.2,171,351.3v0.8
	c6.3,12.5,11.7,26.6,18,39.1c3.9,9.4,7.8,17.2,10.1,25C675,591.8,677.3,611.4,674.2,631.6L674.2,631.6z"/>
</svg>
