<?xml version="1.0" encoding="utf-8"?>
<!-- Generator: Adobe Illustrator 28.1.0, SVG Export Plug-In . SVG Version: 6.00 Build 0)  -->
<svg version="1.1"
	 id="svg8" xmlns:svg="http://www.w3.org/2000/svg" xmlns:sodipodi="http://sodipodi.sourceforge.net/DTD/sodipodi-0.dtd" xmlns:inkscape="http://www.inkscape.org/namespaces/inkscape" xmlns:cc="http://creativecommons.org/ns#" xmlns:dc="http://purl.org/dc/elements/1.1/" xmlns:rdf="http://www.w3.org/1999/02/22-rdf-syntax-ns#"
	 xmlns="http://www.w3.org/2000/svg" xmlns:xlink="http://www.w3.org/1999/xlink" x="0px" y="0px" viewBox="0 0 360 180"
	 style="enable-background:new 0 0 360 180;" xml:space="preserve">
<sodipodi:namedview  bordercolor="#666666" borderopacity="1.0" id="base" inkscape:current-layer="layer1" inkscape:cx="474.86204" inkscape:cy="277.56813" inkscape:document-units="px" inkscape:pageopacity="0.0" inkscape:pageshadow="2" inkscape:window-height="705" inkscape:window-maximized="1" inkscape:window-width="1366" inkscape:window-x="-8" inkscape:window-y="-8" inkscape:zoom="0.7" pagecolor="#ffffff" showgrid="false" units="px">
	</sodipodi:namedview>
<g id="layer1" transform="translate(0,-258.33405)" inkscape:groupmode="layer" inkscape:label="Layer 1">
	<g id="g16" transform="matrix(2.4176772,0,0,2.4176772,-173.89385,83.115335)">
		<path id="path18" inkscape:connector-curvature="0" d="M117.5,118.1h9.2c0.8,0,1.4-0.6,1.4-1.5v-0.7c-0.4,0.1-1.1,0.1-2.4,0.1h-3
			l5.3-10.2h-10.4v2h4.6l-4.4,8.4C117.4,117,117.4,117.6,117.5,118.1"/>
		<path id="path20" inkscape:connector-curvature="0" d="M108.3,111.6l2.4,4.6c0.7,1.3,1,1.9,2.5,1.9h3.4c-0.2-0.2-0.4-0.5-0.7-1.1
			l-3.5-6.4l4.1-4.7h-3.6L108.3,111.6z"/>
		<path id="path22" inkscape:connector-curvature="0" d="M103.9,118.1h4.2v-14.6c0-1.5-1.1-2.5-2.6-2.5h-1.6L103.9,118.1z"/>
		<path id="path24" inkscape:connector-curvature="0" d="M102,117l-4.2-12.5c-0.5-1.5-1-2.2-3.1-2.2h-2l-5.9,15.8h2.7l1.3-3.9h5.7
			l0.8,2.5c0.3,0.9,0.7,1.4,1.7,1.4h3.6C102.3,117.9,102.2,117.6,102,117L102,117z M91.5,112.3l2.3-6.6l2.1,6.6H91.5z"/>
		<path id="path26" inkscape:connector-curvature="0" d="M135.3,118.4c3.5,0,6.5-2.5,6.5-6.7c0-3.5-2.8-6.2-6.4-6.2
			c-3.6,0-6.5,2.6-6.5,6.7C128.8,116,131.8,118.4,135.3,118.4 M135.3,116.1c-1.4,0-1.9-1.7-1.9-4.2c0-2.5,0.5-4.1,1.9-4.1
			c1.4,0,1.9,1.8,1.9,4.4C137.2,114.6,136.8,116.1,135.3,116.1"/>
		<path id="path28" inkscape:connector-curvature="0" d="M143.7,118.1h2.6V108l6.7,8.1c0.9,1.1,1.6,2,2.6,2h1.9v-14.5
			c0-0.8-0.6-1.4-1.4-1.4h-1.2v9.5l-6.5-7.7c-1-1.2-1.5-1.9-2.9-1.9h-1.9V118.1z"/>
		<path id="path30" inkscape:connector-curvature="0" d="M165.8,118.4c3.5,0,6.5-2.5,6.5-6.7c0-3.5-2.8-6.2-6.4-6.2
			c-3.6,0-6.5,2.6-6.5,6.7C159.3,116,162.3,118.4,165.8,118.4 M165.8,116.1c-1.4,0-2-1.7-2-4.2c0-2.5,0.5-4.1,2-4.1
			c1.4,0,1.9,1.8,1.9,4.4C167.7,114.6,167.3,116.1,165.8,116.1"/>
		<path id="path32" inkscape:connector-curvature="0" d="M199.9,112.2c0.1-0.5,0.1-1,0.1-1.4c0-2.9-2.1-5.2-5.8-5.2
			c-3.7,0-6.3,2.6-6.3,6.4c0,3.8,2.3,6.4,6.2,6.4c3.8,0,5.2-2,5.3-3.9c-0.8,0.6-2.1,0.9-3.5,0.9c-2.1,0-3.5-1.2-3.7-3.2L199.9,112.2
			z M192.1,110.5c0.1-1.8,0.8-2.9,2-2.9c1.6,0,1.9,2.9,1.9,2.9L192.1,110.5L192.1,110.5z"/>
		<path id="path34" inkscape:connector-curvature="0" d="M181.5,105.7c-1.4,0-2.6,0.5-3.2,1.1v-3.3c0-1.5-1.1-2.5-2.6-2.5h-1.6v17.1
			h4.9c4.7,0,7.3-2.5,7.3-7C186.4,108,184.3,105.7,181.5,105.7L181.5,105.7z M178.9,116.1h-0.6v-7.9c0.3,0,0.5-0.1,0.9-0.1
			c1.6,0,2.8,1.5,2.8,3.4C182,114.5,180.9,116.1,178.9,116.1L178.9,116.1z"/>
		<path id="path36" inkscape:connector-curvature="0" d="M201.7,118.1h4.2v-14.6c0-1.5-1.1-2.5-2.6-2.5h-1.6L201.7,118.1
			L201.7,118.1z"/>
	</g>
</g>
</svg>
