<?xml version="1.0" encoding="utf-8"?>
<!-- Generator: Adobe Illustrator 28.1.0, SVG Export Plug-In . SVG Version: 6.00 Build 0)  -->
<svg version="1.1" id="Layer_1" xmlns:v="https://vecta.io/nano"
	 xmlns="http://www.w3.org/2000/svg" xmlns:xlink="http://www.w3.org/1999/xlink" x="0px" y="0px" viewBox="0 0 827.11 211.13"
	 style="enable-background:new 0 0 827.11 211.13;" xml:space="preserve">
<path d="M200.48,187.12h-44.37l-13.57-32.74H68.6l-12.37,32.74H12.6L79.26,21.78h47.76L200.48,187.12z M103.75,61.29l-24.24,64.24
	h50.91L103.75,61.29z M361.65,21.78h35.88v165.35h-41.22V83.84l-44.61,51.88h-6.3L260.8,83.84v103.28h-41.22V21.78h35.88
	l53.09,61.34L361.65,21.78z M501.97,21.78c60.36,0,91.39,37.57,91.39,82.91c0,47.52-30.06,82.44-96,82.44h-68.37V21.78L501.97,21.78
	z M470.21,156.82h26.91c41.46,0,53.82-28.13,53.82-52.38c0-28.37-15.28-52.36-54.31-52.36h-26.42L470.21,156.82L470.21,156.82z
	 M675.36,60.98L623.39,9h189.2v189.21l-51.97-51.97V60.98L675.36,60.98z M675.3,71.4L621.8,124.9v74.9h74.89l53.51-53.51H675.3
	L675.3,71.4z"/>
</svg>
