<?xml version="1.0" encoding="utf-8"?>
<!-- Generator: Adobe Illustrator 28.1.0, SVG Export Plug-In . SVG Version: 6.00 Build 0)  -->
<svg version="1.1" id="Layer_1" xmlns="http://www.w3.org/2000/svg" xmlns:xlink="http://www.w3.org/1999/xlink" x="0px" y="0px"
	 viewBox="0 0 72 72" style="enable-background:new 0 0 72 72;" xml:space="preserve">
<g>
	<path d="M29.1,64.8c2.5,0,4.6-2.1,4.6-4.6v-4.6h-9.2v4.6C24.5,62.7,26.5,64.8,29.1,64.8z"/>
	<path d="M20.1,22.2h31.8c-0.9-4.1-3.8-7.4-7.6-9.5L46.7,9c0.4-0.5,0.2-1.3-0.3-1.6c-0.5-0.4-1.3-0.2-1.6,0.3l-2.7,4
		c-1.9-0.7-4-1.1-6.1-1.1c-2.2,0-4.2,0.4-6.1,1.1l-2.7-4c-0.3-0.4-0.7-0.6-1.2-0.5c-0.1,0-0.3,0.1-0.4,0.1C25,7.7,24.9,8.5,25.2,9
		l2.5,3.7C23.9,14.7,21,18.1,20.1,22.2z M42.2,16.4c1,0,1.7,0.8,1.7,1.7c0,1-0.8,1.7-1.7,1.7c-1,0-1.7-0.8-1.7-1.7
		C40.5,17.2,41.3,16.4,42.2,16.4z M29.7,16.4c1,0,1.7,0.8,1.7,1.7c0,1-0.8,1.7-1.7,1.7c-1,0-1.7-0.8-1.7-1.7
		C27.9,17.2,28.7,16.4,29.7,16.4z"/>
	<path d="M13,27.9V44c0,1.9,1.5,3.5,3.5,3.5c0.4,0,0.8-0.1,1.2-0.2V24.7c-0.4-0.1-0.7-0.2-1.2-0.2C14.5,24.5,13,26,13,27.9z"/>
	<path d="M54.3,24.7v22.6c0.4,0.1,0.7,0.2,1.2,0.2c1.9,0,3.5-1.5,3.5-3.5V27.9c0-1.9-1.5-3.5-3.5-3.5C55.1,24.5,54.7,24.6,54.3,24.7
		z"/>
	<path d="M52,49.8V24.5H19.9v25.3c0,1.9,1.6,3.5,3.5,3.5h25.3C50.5,53.3,52,51.7,52,49.8z"/>
	<path d="M42.8,64.8c2.5,0,4.6-2.1,4.6-4.6v-4.6h-9.2v4.6C38.2,62.7,40.3,64.8,42.8,64.8z"/>
</g>
</svg>
