<?xml version="1.0" encoding="utf-8"?>
<!-- Generator: Adobe Illustrator 28.1.0, SVG Export Plug-In . SVG Version: 6.00 Build 0)  -->
<svg version="1.1" id="Layer_1" xmlns="http://www.w3.org/2000/svg" xmlns:xlink="http://www.w3.org/1999/xlink" x="0px" y="0px"
	 viewBox="0 0 72 72" style="enable-background:new 0 0 72 72;" xml:space="preserve">
<g>
	<path d="M59.1,26.5c-3-3.7-7.1-5.8-11.1-5.8c-5.2,0-7.4,2.5-11,2.5c-3.7,0-6.5-2.5-11-2.5c-4.4,0-9.1,2.7-12.1,7.3
		c-4.2,6.5-3.5,18.6,3.3,29c2.4,3.7,5.7,7.9,9.9,7.9c3.8,0,4.8-2.4,10-2.4c5.1,0,6.1,2.4,9.9,2.4c4.2,0,7.7-4.6,10.1-8.3
		c1.7-2.6,2.4-4,3.7-7C50.9,45.7,49.3,31.9,59.1,26.5z"/>
	<path d="M44.1,16.6c1.9-2.4,3.3-5.9,2.8-9.4c-3.1,0.2-6.7,2.2-8.8,4.7c-1.9,2.3-3.5,5.8-2.9,9.1C38.5,21.2,42,19.1,44.1,16.6z"/>
</g>
</svg>
