<?xml version="1.0" encoding="utf-8"?>
<!-- Generator: Adobe Illustrator 28.1.0, SVG Export Plug-In . SVG Version: 6.00 Build 0)  -->
<svg version="1.1"
	 id="svg2" xmlns:svg="http://www.w3.org/2000/svg" xmlns:sodipodi="http://sodipodi.sourceforge.net/DTD/sodipodi-0.dtd" xmlns:inkscape="http://www.inkscape.org/namespaces/inkscape" xmlns:cc="http://creativecommons.org/ns#" xmlns:dc="http://purl.org/dc/elements/1.1/" xmlns:rdf="http://www.w3.org/1999/02/22-rdf-syntax-ns#"
	 xmlns="http://www.w3.org/2000/svg" xmlns:xlink="http://www.w3.org/1999/xlink" x="0px" y="0px" viewBox="0 0 360 180"
	 style="enable-background:new 0 0 360 180;" xml:space="preserve">
<sodipodi:namedview  bordercolor="#666666" borderopacity="1.0" id="base" inkscape:current-layer="layer1" inkscape:cx="22.142857" inkscape:cy="517.14286" inkscape:document-units="px" inkscape:pageopacity="0.0" inkscape:pageshadow="2" inkscape:window-height="744" inkscape:window-maximized="1" inkscape:window-width="1280" inkscape:window-x="-4" inkscape:window-y="-4" inkscape:zoom="0.35" pagecolor="#ffffff" showgrid="false" units="px">
	</sodipodi:namedview>
<g id="layer1" transform="translate(0,-752.36216)" inkscape:groupmode="layer" inkscape:label="Layer 1">
	<g id="g3337" transform="translate(-353.3275,478.58303)">
		<g id="g3339">
			<polygon id="polygon3341" points="582.1,402.6 592.1,354.2 595.9,402.6 617.4,402.6 607.4,325.8 584.4,325.8 573.6,371.8 
				562.9,325.8 539.9,325.8 529.9,402.6 551.4,402.6 555.2,354.2 565.2,402.6 			"/>
			<g id="g3343">
				<polygon id="polygon3345" points="648.9,325.8 628.2,325.8 628.2,402.6 677.3,402.6 677.3,386.4 648.9,386.4 				"/>
			</g>
			<g id="g3347">
				<path id="path3349" inkscape:connector-curvature="0" d="M438.5,325.8h-26.1l-23,76.8h23l3.1-13.8h20l3.1,13.8h23L438.5,325.8
					L438.5,325.8z M425.4,342.7l6.9,31.5h-13.8L425.4,342.7z"/>
			</g>
		</g>
		<g id="g3351">
			<path id="path3353" inkscape:connector-curvature="0" d="M516.8,347.3c-19.1-16.7-48.9-9.9-49.2,5.4c-4.3-28.4,30-34.3,49.2-25.3
				C517.2,331.9,517.5,336.8,516.8,347.3L516.8,347.3z"/>
			<path id="path3355" inkscape:connector-curvature="0" d="M501,356.3c-4.8-1.9-11.8-3.6-11.8-9c0-2.2,0.9-4.7,5.4-6.1
				c-15.4,1.5-20.5,20.2-3.5,29.5c3,1.6,8.1,3.3,8.1,8.9c0,6.5-7.1,8.8-11.8,8.7c-7.8-0.2-14.1-2.9-21.2-8v18.4
				c8.5,3.6,22.2,7.8,36,3.6c11.2-3.4,20.8-12.8,20.8-22.8C523,363.3,508.8,359.4,501,356.3L501,356.3z"/>
		</g>
	</g>
</g>
</svg>
