<?xml version="1.0" encoding="utf-8"?>
<!-- Generator: Adobe Illustrator 28.1.0, SVG Export Plug-In . SVG Version: 6.00 Build 0)  -->
<svg version="1.1" id="Layer_1" xmlns="http://www.w3.org/2000/svg" xmlns:xlink="http://www.w3.org/1999/xlink" x="0px" y="0px"
	 viewBox="0 0 360 180" style="enable-background:new 0 0 360 180;" xml:space="preserve">
<g>
	<path d="M117.2,66.4c0,3.5,0.4,6.4,1.1,8.5c0.8,2.1,1.7,4.4,3.1,6.9c0.5,0.8,0.7,1.5,0.7,2.2c0,1-0.6,1.9-1.8,2.9l-6,4
		c-0.9,0.6-1.7,0.9-2.5,0.9c-1,0-1.9-0.5-2.9-1.3c-1.3-1.4-2.5-3-3.4-4.5c-1-1.6-1.9-3.4-3-5.6c-7.5,8.8-16.9,13.2-28.2,13.2
		c-8,0-14.5-2.3-19.2-6.9c-4.7-4.6-7.1-10.7-7.1-18.4c0-8.1,2.9-14.7,8.7-19.7S70.2,41,80.1,41c3.3,0,6.6,0.3,10.2,0.8
		c3.5,0.5,7.2,1.2,11,2.1v-7c0-7.3-1.5-12.4-4.5-15.3c-3.1-3-8.2-4.4-15.6-4.4c-3.4,0-6.8,0.4-10.3,1.2c-3.5,0.9-7,1.9-10.3,3.3
		c-1.5,0.7-2.7,1.1-3.4,1.2s-1.2,0.3-1.5,0.3c-1.3,0-2-1-2-3v-4.7c0-1.5,0.2-2.7,0.7-3.4c0.5-0.7,1.3-1.3,2.7-2
		C60.3,8.5,64.3,7,69,5.9c4.7-1.2,9.7-1.8,14.9-1.8c11.4,0,19.7,2.6,25.1,7.8c5.3,5.2,8,13,8,23.6v31L117.2,66.4L117.2,66.4z
		 M78.3,81c3.2,0,6.4-0.6,9.9-1.7c3.4-1.2,6.5-3.3,9.1-6.1c1.5-1.8,2.7-3.8,3.3-6.1c0.6-2.3,1-5.1,1-8.3v-4
		c-2.8-0.7-5.8-1.2-8.8-1.6c-3.1-0.4-6-0.6-9-0.6c-6.4,0-11.1,1.2-14.3,3.8c-3.2,2.6-4.7,6.2-4.7,11c0,4.5,1.2,7.9,3.5,10.2
		C70.5,79.8,73.9,81,78.3,81z M155.2,91.3c-1.7,0-2.9-0.3-3.6-1c-0.8-0.6-1.4-1.9-2-3.7l-22.5-74c-0.6-1.9-0.9-3.2-0.9-3.8
		c0-1.5,0.8-2.4,2.3-2.4h9.4c1.8,0,3.1,0.3,3.7,1c0.8,0.6,1.3,1.9,1.9,3.7l16.1,63.4l14.9-63.4c0.5-1.9,1.1-3.2,1.8-3.7
		c0.8-0.6,2.1-1,3.8-1h7.7c1.8,0,3.1,0.3,3.8,1c0.8,0.6,1.4,1.9,1.8,3.7l15.1,64.2l16.6-64.2c0.6-1.9,1.2-3.2,1.9-3.7
		c0.8-0.6,2-1,3.7-1h8.9c1.5,0,2.4,0.8,2.4,2.4c0,0.5-0.1,1-0.2,1.5s-0.3,1.3-0.7,2.4l-23.1,74c-0.6,1.9-1.2,3.2-2,3.7
		c-0.8,0.6-2,1-3.6,1h-8.2c-1.8,0-3.1-0.3-3.8-1c-0.8-0.7-1.4-1.9-1.8-3.8l-14.8-61.8l-14.7,61.7c-0.5,1.9-1.1,3.2-1.8,3.8
		s-2.1,1-3.8,1L155.2,91.3L155.2,91.3z M278.3,93.9c-5,0-10-0.6-14.7-1.7c-4.8-1.2-8.5-2.4-11-3.8c-1.5-0.9-2.6-1.8-3-2.7
		c-0.4-0.9-0.6-1.8-0.6-2.7v-4.9c0-2,0.8-3,2.2-3c0.6,0,1.2,0.1,1.7,0.3s1.4,0.6,2.4,1c3.3,1.4,6.8,2.6,10.5,3.4
		c3.8,0.8,7.6,1.2,11.4,1.2c6,0,10.7-1.1,14-3.2c3.3-2.1,5-5.2,5-9.1c0-2.7-0.9-4.9-2.6-6.7c-1.7-1.8-5-3.4-9.7-5l-13.9-4.3
		c-7-2.2-12.2-5.5-15.3-9.8c-3.2-4.2-4.8-8.9-4.8-13.9c0-4,0.9-7.6,2.6-10.6s4-5.8,6.9-7.9c2.9-2.2,6.1-3.8,10-5s7.9-1.6,12.1-1.6
		c2.1,0,4.3,0.1,6.4,0.4c2.2,0.3,4.2,0.7,6.2,1.1c1.9,0.5,3.7,1,5.5,1.5c1.7,0.6,3.1,1.2,4,1.7c1.3,0.8,2.3,1.5,2.9,2.4
		c0.6,0.8,0.9,1.8,0.9,3.2v4.5c0,2-0.8,3.1-2.2,3.1c-0.8,0-2-0.4-3.6-1.2c-5.5-2.5-11.6-3.7-18.4-3.7c-5.5,0-9.8,0.9-12.7,2.7
		c-3,1.8-4.5,4.6-4.5,8.5c0,2.7,1,5,2.9,6.8c1.9,1.8,5.5,3.6,10.5,5.3l13.6,4.3c6.9,2.2,11.9,5.3,14.8,9.2s4.4,8.4,4.4,13.4
		c0,4.1-0.9,7.9-2.5,11.1c-1.7,3.3-4,6.1-7,8.4c-3,2.4-6.5,4.1-10.6,5.4C287.7,93.2,283.2,93.9,278.3,93.9z"/>
	<path d="M296.4,140.5c-31.5,23.3-77.3,35.6-116.7,35.6c-55.2,0-104.9-20.4-142.4-54.3c-3-2.7-0.3-6.3,3.3-4.2
		c40.6,23.6,90.7,37.8,142.5,37.8c35,0,73.4-7.3,108.7-22.2C297.1,130.8,301.6,136.6,296.4,140.5z M309.5,125.5
		c-4-5.2-26.6-2.5-36.9-1.2c-3.1,0.4-3.5-2.3-0.8-4.3c18-12.6,47.6-9,51.1-4.8c3.4,4.3-1,33.9-17.8,48.1c-2.6,2.2-5.1,1.1-3.9-1.8
		C305,152,313.5,130.6,309.5,125.5z"/>
</g>
</svg>
