<?xml version="1.0" encoding="utf-8"?>
<!-- Generator: Adobe Illustrator 28.1.0, SVG Export Plug-In . SVG Version: 6.00 Build 0)  -->
<svg version="1.1" id="Layer_1" xmlns="http://www.w3.org/2000/svg" xmlns:xlink="http://www.w3.org/1999/xlink" x="0px" y="0px"
	 viewBox="0 0 1000 494.8" style="enable-background:new 0 0 1000 494.8;" xml:space="preserve">
<path d="M786.5,232c10.2,4.9,10.2,2.3,12.9-1.7c2.7-4,17.8-15.7,17.8-15.7s14.1-8.4,28.6-28.7c13.9-19.4,1.8-32.1-9.7-43.2
	c-11.4-11-37.8,3.9-57.7,34.3C758.4,207.3,776.3,227,786.5,232 M877,268.1c2.9-2,6.7,0.9,4.4,6.8c-0.8,2.1-17,45.4-64.3,77.6
	C817,352.4,821.9,305.5,877,268.1 M697.2,109.2c8.5-7.9,6.2,0.8,5.3,3.4c0,0-37.9,105.5-119.4,200C583,312.6,626.1,176,697.2,109.2
	 M211.3,382.4c0,0-52.3-69.4-141.4,12.2l29.5-101.8c0,0,31.2,2.9,74.7-17.3C174.1,275.5,268.2,278.5,211.3,382.4 M185.8,419.2
	c0,0-57.4,56.7-76.7,34.8c-18.3-20.8,14.7-48.8,27.6-55.7C153.4,389.3,204,380,185.8,419.2 M134,70.2c0,0,96.7-46.4,138.4-23
	c41.7,23.4,29,65.4-34.5,134.9c0,0-48.6,43.6-77.6,55.9c0,0-36.6,5.7-47,10.9c0,0,8.7-28.7,19.1-61.5c12.9-40.6,29.7-85.6,20.4-97.5
	C141.5,75.4,134,70.2,134,70.2 M999.7,338.6c-0.4-2.6-11.8-36.3-21.5-25.5c-9.8,10.8-34.8,51.8-115.1,95.6
	c-39.5,21.5-42.6-5.5-44.6-16.5c0,0,54.6-38.3,82.5-89c18.9-34.5,6.7-42.3-1-50.1c-7-7.1-24.6-23.1-47.5-6.3
	c-22.9,16.7-77.7,70.7-71.7,129.9c-8.9,9-34.8,30.3-51.6,26.5c-16.8-3.8,0.9-40,13.5-64.6c12.5-24.6,37-44.3,44.5-55.4
	c7.5-11.2,3.3-14.7,1.8-16.5c-1.5-1.8-5-4.2-10.4-14c-5.4-9.8-13.2-3-13.2-3c-36.1,23.7-61.5,86.4-61.5,86.4
	c-7.3,8.1-18.1,4.9-20.2,4.1c-3.2-1.3-5.6-9.1-6.2-13.1c-0.5-3.2-2.7-16.5-4.5-20.1c-1.7-3.6-3.6-5.4-13-2.5
	c-10.9,3.3-18.7,10-21.9,13.7c-3.2,3.7-1.7,4.5-0.9,16.2c0.4,5.7,0.9,5.9-3.1,15.9c-6.1,15.2-16.6,34.6-19.9,41.1
	c-2.9,5.6-23.6,33.1-31.9,33.8c-7.5,0.6-10.2-11.4-10.2-11.4s-4.3-27.7-1.2-41.4C715.9,208.7,752.2,93.3,752.2,93.3
	c0.7-2,4-8.7-6.3-24.1c-13.4-19.9-27.4-19.1-27.4-19.1s-9.8-1.3-31.5,21.2c-138.1,142.9-151.8,293-151.8,293
	c-1.4,2.8-1.9,3.3-7.9,9.9c-6.3,6.9-15.4,11.9-15.4,11.9s-8.8,2.3-10.6-5.1c-1.2-4.8-0.4-8.5,0.3-14.9c0.6-5.9,9.1-25.6,9.1-25.6
	s12.8-27.7,15.6-36c2.8-8.2,2.2-17.4-0.5-23.8c-2.6-6.4-14.4-13-18.2-15.6c-3.7-2.5-7.6-6.3-7.1-11.8c0.2-1.8-1.5-3.3,5.6-18.9
	c7.1-15.7-6-19.5-9.8-20.1c-3.8-0.7-14.3-3.9-23.9,4.6c-17,14.9-17.5,41.1-17.5,41.1c-0.1,3.4,1.2,6.8-0.5,10.7
	c-1,2.2-3.3,6.5-9.4,19c-6.2,12.7-19.3,38.1-27.4,52.3c-6.8,11.9-16.2,25.6-22.3,32.4c-4.1,4.6-9.6,8.3-9.6,8.3s-6.1,4.6-6.2-6.7
	c-0.2-11.8,16.1-47.9,16.1-47.9s11.4-28.2,12.9-31.6c2.1-4.8,3.5-11.2,0.2-15.1c-4.7-5.7-17-8.7-22.3-6c-5.4,2.7-15,19-20.8,28.3
	c-7.3,11.8-19,34.8-32.5,57.5c-13.1,22-27.7,30-27.7,30s-7.8,4.8-13.9-0.8c-3.5-3.2-31.9-28.2,35.8-103.6
	c27.9-31,42.4-36.2,56.9-26.1c5.6,3.9,11.1,10.7,18.3,10.9c12.2,0.3,16.2-14.7,16.2-14.7c0.4-2.6,11.1-31.3-34.5-31.8
	c-74.1-0.8-116.5,82.8-116.5,82.8c-14.1-53.3-54.2-57.4-54.2-57.4c46.1-32.4,72.4-53.1,105.9-111C353,81.6,304.2,35.9,304.2,35.9
	c-20.7-25-71.3-51.1-156.7-25.1C58.3,38.1,51,59.8,42.1,86.3c-8.9,26.6,8.5,19.7,19.3,14.5c10.7-5.2,52.7-22.4,52.7-22.4
	S7.6,406.9,4.5,422.9c-2.8,14.3-16.9,53.3,25.7,58.6c0,0,6.6,1,12.6-1.2c6-2.2,6.2-6.1,6.2-6.1c2.5-9.4,6.5-24.1,7.6-25.6
	c23.3,70.3,98.8,49.8,145.6,8.6c33.9-29.9,54-70.7,54-70.7c28.8,62.7,63.5,29.6,63.5,29.6c14.1-11.4,32.2-37.4,32.2-37.4
	c10.9,51.2,48.9,29.8,48.9,29.8c17.9-10.6,35.8-42.8,39.4-48.7c20.3-33.5,39.3-74.1,39.3-74.1s2.6,0.1,8.3,5.2
	c5.1,4.5,2.6,11.7,0.5,18.5c-2.1,6.7-10.4,23.9-14.7,38.6c-4.4,15-5.3,29.6,0.7,42.7c5.8,12.8,22.7,23.8,34.3,25.1
	c14.8,1.7,28.6-10.1,28.6-10.1c2.1,37.3,31.2,50.5,31.2,50.5c38,19.8,73.4-43.1,73.4-43.1c24.2-39.5,22.2-49.5,24.2-55.5
	c2.8,3.6,9.7,7.5,24.2,10.4c-3.9,13.9,0.2,27.5,0.2,27.5s11,27.9,36,34.6c26.7,7.2,62-19.8,62-19.8s40,68.8,129.5,9
	C1007.4,359.4,1000.1,341.2,999.7,338.6"/>
</svg>
