<?xml version="1.0" encoding="utf-8"?>
<!-- Generator: Adobe Illustrator 28.1.0, SVG Export Plug-In . SVG Version: 6.00 Build 0)  -->
<svg version="1.1"
	 id="Layer_1" xmlns:cc="http://creativecommons.org/ns#" xmlns:dc="http://purl.org/dc/elements/1.1/" xmlns:rdf="http://www.w3.org/1999/02/22-rdf-syntax-ns#"
	 xmlns="http://www.w3.org/2000/svg" xmlns:xlink="http://www.w3.org/1999/xlink" x="0px" y="0px" viewBox="0 0 72 72"
	 style="enable-background:new 0 0 72 72;" xml:space="preserve">
<g>
	<path d="M43,8.1C27.5,4.2,11.9,13.6,8.1,29c-3.9,15.4,5.5,31.1,21,34.9s31.1-5.5,34.9-21S58.4,11.9,43,8.1z M48.7,31.9
		c-0.4,2.8-2,4.2-4,4.6c2.8,1.5,4.3,3.7,2.9,7.7c-1.7,4.9-5.8,5.3-11.1,4.3l-1.3,5.2L32,52.9l1.3-5.2c-0.8-0.2-1.7-0.4-2.5-0.7
		l-1.3,5.2l-3.2-0.8l1.3-5.2c-0.7-0.2-1.5-0.4-2.3-0.6l-4.1-1l1.6-3.6c0,0,2.3,0.6,2.3,0.6c0.9,0.2,1.3-0.4,1.4-0.7l2.1-8.3
		c0.1,0,0.2,0.1,0.3,0.1c-0.1-0.1-0.2-0.1-0.3-0.1l1.5-5.9c0-0.7-0.2-1.5-1.5-1.8c0,0-2.3-0.6-2.3-0.6l0.8-3.4l4.4,1.1v0
		c0.7,0.2,1.3,0.3,2,0.5l1.3-5.2L38,18l-1.3,5.1c0.8,0.2,1.7,0.4,2.5,0.6l1.3-5.1l3.2,0.8l-1.3,5.2C46.4,26,49.3,28.1,48.7,31.9z"/>
	<path d="M35.9,26.8l-1.6,6.3c1.8,0.4,7.3,2.3,8.2-1.3C43.4,28.1,37.6,27.3,35.9,26.8z"/>
	<path d="M33.5,36.3l-1.7,7c2.1,0.5,8.7,2.7,9.7-1.3C42.5,37.9,35.6,36.9,33.5,36.3z"/>
</g>
</svg>
