<?xml version="1.0" encoding="utf-8"?>
<!-- Generator: Adobe Illustrator 28.1.0, SVG Export Plug-In . SVG Version: 6.00 Build 0)  -->
<svg version="1.1" id="Layer_1" xmlns="http://www.w3.org/2000/svg" xmlns:xlink="http://www.w3.org/1999/xlink" x="0px" y="0px"
	 viewBox="0 0 72 72" style="enable-background:new 0 0 72 72;" xml:space="preserve">
<g>
	<path d="M38.3,21.4l4.8,4.8l-4.8,4.8L38.3,21.4L38.3,21.4L38.3,21.4z M38.3,50.6l4.8-4.8l-4.8-4.8L38.3,50.6L38.3,50.6L38.3,50.6z
		 M33.2,36L22.9,25.7l3-3l8.2,8.2V11.2L49,26.2L39.2,36l9.9,9.9L34.1,60.8V41.1l-8.2,8.2l-3-3L33.2,36L33.2,36L33.2,36z M36,64.8
		c12.6,0,21.2-6,21.2-28.8c0-22.8-8.7-28.8-21.2-28.8c-12.6,0-21.2,6-21.2,28.8C14.8,58.8,23.4,64.8,36,64.8L36,64.8L36,64.8z"/>
</g>
</svg>
