<?xml version="1.0" encoding="utf-8"?>
<!-- Generator: Adobe Illustrator 28.1.0, SVG Export Plug-In . SVG Version: 6.00 Build 0)  -->
<svg version="1.1" id="Layer_1" xmlns="http://www.w3.org/2000/svg" xmlns:xlink="http://www.w3.org/1999/xlink" x="0px" y="0px"
	 viewBox="0 0 800 800" style="enable-background:new 0 0 800 800;" xml:space="preserve">
<g>
	<path d="M366.77,78.33l-0.43-4.57l1.43,4.33l22.13,49.63h20.2l22.13-49.6l1.33-4.37l-0.33,4.57l2.33,66.27
		c7.73,0.73,15.77,1.8,23.67,3.13L455.6,49.6c-10.99-1.24-22.02-2.11-33.07-2.6l-21.77,54.17l-0.77,4l-0.77-4L377.4,47
		c-11,0.47-22,1.4-33.07,2.6l-3.57,98.13c7.85-1.33,15.74-2.37,23.67-3.13L366.77,78.33z"/>
	<path d="M400,0C179.1,0,0,179.1,0,400s179.1,400,400,400s400-179.1,400-400S620.9,0,400,0z M400,773.97
		C193.43,773.97,26.03,606.53,26.03,400S193.47,26,400,26s373.97,167.43,373.97,374C773.97,606.53,606.57,773.97,400,773.97z"/>
	<path d="M677.2,180.87l-51.3,33.8l-3.5,3.07l2.6-3.83l22.67-45.2l-16-16l-45.2,22.67l-3.83,2.6l3.03-3.53l33.93-51.3
		c-6-5.07-11.7-9.7-19-15.33l-51.43,80.93c6.5,5,15.07,12.37,20.57,17.4L618.17,181l3.07-2.3l-2.3,3.13l-25.07,48.43
		c5.43,5.83,13.27,15.27,17.67,21l81-51.47C687.57,193.37,682.45,187.06,677.2,180.87z"/>
	<path d="M400,162.83v-0.07c-121.64-0.05-223.59,91.93-236,212.93v0.07c-13.26,130.44,81.74,246.93,212.18,260.19
		c23.94,2.43,48.11,1.21,71.69-3.62C558.14,609.67,637.26,512.58,637.2,400C637.07,269.06,530.94,162.94,400,162.83z M606.07,400
		H400v206.07c-113.68,0.13-205.94-91.92-206.07-205.6c0-0.16,0-0.31,0-0.47H400V193.93c113.68-0.13,205.94,91.92,206.07,205.6
		C606.07,399.69,606.07,399.84,606.07,400z"/>
	<path d="M231.07,205.93c12.77-13.5,20-29,7.2-43.9c-6.93-8.07-18.6-9.83-28.33-5.83l-0.93,0.33l0.33-0.87
		c2.46-9.04-0.73-18.68-8.1-24.47c-5.06-3.99-11.51-5.79-17.9-5v-0.03c-12,1.23-21.27,9.43-46.43,37.5
		c-8.73,9.89-17.14,20.05-25.23,30.47l69.13,65.57C203.7,234.37,213,224.97,231.07,205.93z M140.9,189.9
		c13.9-17,28.7-32.47,35.4-38.6c2.01-2.1,4.49-3.68,7.23-4.63c4.53-1.23,9.23,2,10.27,6.67c1.07,4.67-1.87,9.07-5.13,12.73
		c-7.33,8.33-34.37,36.6-34.37,36.6L140.9,189.9z M202.8,178.9c3.4-3.53,5.6-5.67,7.93-6.83c1.45-0.75,3.04-1.17,4.67-1.23h0.03
		c1.57,0,3.2,0.43,4.67,1.43c2.93,1.97,4.27,5.33,3.53,8.67c-0.87,3.97-4.17,7.7-6.83,10.6l-34.83,37.33l-14-13.33
		C167.97,215.53,194.2,187.8,202.8,178.9z"/>
</g>
</svg>
