<?xml version="1.0" encoding="utf-8"?>
<!-- Generator: Adobe Illustrator 28.1.0, SVG Export Plug-In . SVG Version: 6.00 Build 0)  -->
<svg version="1.1" id="Bristol_Myers_Squibb_logo" xmlns="http://www.w3.org/2000/svg" xmlns:xlink="http://www.w3.org/1999/xlink"
	 x="0px" y="0px" viewBox="0 0 72 72" style="enable-background:new 0 0 72 72;" xml:space="preserve">
<g>
	<path d="M32.8,63.3c-0.4,0.9-1.4,1.5-2.3,1.5c-0.4,0-0.8-0.1-1.1-0.3c-8.2-4-12.5-10.9-12.5-20.2V33.9c0-1.4,1.2-2.6,2.6-2.6
		c1.4,0,2.6,1.2,2.6,2.6v10.4c0,7.2,3.2,12.4,9.5,15.5C32.9,60.5,33.5,62,32.8,63.3z M25.1,39.1c0,1.5,1.2,2.7,2.7,2.7
		s2.7-1.2,2.7-2.7V17.8c0-1.5-1.2-2.7-2.7-2.7c-1.5,0-2.7,1.2-2.7,2.7V39.1z M33.4,38.5c0,1.5,1.2,2.7,2.7,2.7s2.7-1.2,2.7-2.7V9.9
		c0-1.5-1.2-2.7-2.7-2.7c-1.5,0-2.7,1.2-2.7,2.7C33.4,9.9,33.4,38.5,33.4,38.5z M41.7,40.5c0,1.5,1.2,2.7,2.7,2.7
		c1.5,0,2.7-1.2,2.7-2.7V14.8c0-1.5-1.2-2.7-2.7-2.7c-1.5,0-2.7,1.2-2.7,2.7C41.7,14.8,41.7,40.5,41.7,40.5z M49.9,43.9
		c0,1.4,1.2,2.6,2.6,2.6c1.4,0,2.6-1.2,2.6-2.6V26.5c0-1.4-1.2-2.6-2.6-2.6c-1.4,0-2.6,1.2-2.6,2.6V43.9z"/>
</g>
</svg>
