<?xml version="1.0" encoding="utf-8"?>
<!-- Generator: Adobe Illustrator 28.1.0, SVG Export Plug-In . SVG Version: 6.00 Build 0)  -->
<svg version="1.1" id="Layer_1" xmlns="http://www.w3.org/2000/svg" xmlns:xlink="http://www.w3.org/1999/xlink" x="0px" y="0px"
	 viewBox="0 0 360 180" style="enable-background:new 0 0 360 180;" xml:space="preserve">
<g>
	<path d="M250.6,108.2l-8.9-15.7c4-1.9,6.5-5.9,6.5-10.3c0-6.3-5.1-11.4-11.4-11.4h-19.1v37.4h8.5V93.7h6.8l8.3,14.5L250.6,108.2
		L250.6,108.2z M225.9,86.5v-8.4h9.2l0,0c2.8,0.1,4.6,1.8,4.6,4.2c0,2.4-1.9,4.1-4.7,4.2H225.9L225.9,86.5z M182.9,108.2V70.9h27.9
		V78h-19.2v7.5h16.8v7.3h-16.8v8h20.2v7.5L182.9,108.2L182.9,108.2z M143,108.2l-8.9-15.7c4-1.9,6.5-5.9,6.5-10.3
		c0-6.3-5.1-11.4-11.4-11.4h-19.1v37.4h8.5V93.7h6.8l8.3,14.5C133.6,108.2,143,108.2,143,108.2z M118.4,86.5v-8.4h9.2l0,0
		c2.8,0.1,4.6,1.8,4.6,4.2c0,2.4-1.9,4.1-4.7,4.2H118.4L118.4,86.5z M87.4,109.1c10.2,0,16.3-5.9,16.3-15.7V70.9H95v22
		c0,5.3-2.8,8.4-7.6,8.4h0c-4.8,0-7.6-3-7.6-8.4v-22h-8.7v22.6C71.1,103.3,77.2,109.1,87.4,109.1L87.4,109.1L87.4,109.1z M59.7,87.5
		c5,1.7,7.5,6,7.5,10.1c0,5.8-4.7,10.6-10.5,10.6H36V70.9h19c4.9,0,8.9,4.1,8.9,9C64,83,62.3,85.9,59.7,87.5L59.7,87.5z M44.6,101.3
		h9.5c3,0,4.6-2.2,4.6-4.4c0-1.8-1.4-4.3-4.6-4.3h-9.5V101.3z M51.5,85.6c2.2,0,3.9-1.7,3.9-3.9c0-2.1-1.8-3.9-3.9-3.9h-7v7.7
		L51.5,85.6L51.5,85.6z"/>
	<g transform="translate(80 -.299)">
		<path d="M90.7,87.8c5,1.7,7.5,6,7.5,10.1c0,5.8-4.7,10.6-10.5,10.6H67V71.1h19c4.9,0,8.9,4.1,8.9,9C95,83.3,93.4,86.2,90.7,87.8
			L90.7,87.8z M75.6,101.5h9.5c3,0,4.6-2.2,4.6-4.4c0-1.8-1.4-4.3-4.6-4.3h-9.5V101.5z M82.6,85.8c2.2,0,3.9-1.7,3.9-3.9
			c0-2.1-1.8-3.9-3.9-3.9h-7v7.7L82.6,85.8L82.6,85.8z"/>
	</g>
	<path d="M287.5,108.2l-8.9-15.7c4-1.9,6.5-5.9,6.5-10.3c0-6.3-5.1-11.4-11.4-11.4h-19.1v37.4h8.5V93.7h6.8l8.3,14.5L287.5,108.2
		L287.5,108.2z M262.9,86.5v-8.4h9.2l0,0c2.8,0.1,4.6,1.8,4.6,4.2c0,2.4-1.9,4.1-4.7,4.2H262.9L262.9,86.5z M299.9,108.2V93
		l-14.8-22.1H296l8.5,12.8l8.6-12.8H324L309.1,93v15.2H299.9z"/>
</g>
</svg>
