<?xml version="1.0" encoding="utf-8"?>
<!-- Generator: Adobe Illustrator 28.1.0, SVG Export Plug-In . SVG Version: 6.00 Build 0)  -->
<svg version="1.1" id="Burger_King_Logo_2020" xmlns="http://www.w3.org/2000/svg" xmlns:xlink="http://www.w3.org/1999/xlink"
	 x="0px" y="0px" viewBox="0 0 360 180" style="enable-background:new 0 0 360 180;" xml:space="preserve">
<g>
	<path d="M94.1,117.6c-0.9-1.1-0.9-1.8-0.9-2c0-0.9,0.5-1.5,1.6-2.4c2.5-2,8.9-6.9,12.5-11.4c2.7-3.4,3.8-6.5,3.8-9.1
		c0-6.5-7.3-11.8-15.2-11.8c-5.1,0-9.8,2.4-13.1,6.7c-4.4,5.8-9.4,12.5-12.9,15.1c-0.9,0.7-1.3,0.9-2,0.9c-1.1,0-1.6-0.5-1.6-1.6
		v-7.6c0-7.4-5.4-13.4-15.1-13.4c-9.8,0-15.1,6-15.1,13.4v46.8c0,7.4,5.3,13.4,15.1,13.4c9.6,0,15.1-6,15.1-13.4v-10.7
		c0-0.9,0.5-1.6,1.6-1.6c1.5,0,1.8,1.3,2.2,1.8c2.2,4.2,8.3,13.1,14,18.3c3.8,3.4,8.7,5.6,13.8,5.6c8.5,0,15.8-6.2,15.8-12.7
		c0-4.2-2.2-7.1-6.2-10.7C102.4,126.5,96.4,120.3,94.1,117.6L94.1,117.6 M209.3,76.6c14.5,0,23.6-7.6,23.6-18.7
		c0-7.1-5.3-12-15.6-12h-2.7c-5.4,0-9.6,2.2-9.6,6.9c0,4.2,4.5,6.4,8,6.4c1.8,0,2.9,0.5,2.9,1.5c0,1.5-2,2.4-4.2,2.4
		c-6.9,0-11.6-4-11.6-11.6c0-8.3,6.5-11.4,11.4-11.4c6.2,0,7.1,2.5,11.4,2.5c4.9,0,8.2-3.3,8.2-6.9c0-2.5-1.5-4.5-3.4-6
		c-3.8-2.4-9.3-4.2-17.4-4.2c-14.3,0-28.3,7.8-28.3,25.8C181.7,68.6,195.7,76.6,209.3,76.6L209.3,76.6 M46.9,76H60
		c12.3,0,19.8-6.7,19.8-15.2c0-6.7-4.9-9.8-6-10.7c-0.5-0.4-0.9-0.5-0.9-0.9c0-0.4,0.4-0.5,0.7-0.9c1.8-1.6,3.4-4.4,3.4-8.2
		c0-9.1-7.4-14-19.1-14H46.9c-7.3,0-10.9,3.4-10.9,8.2v33.6C36.2,72.6,39.6,76,46.9,76L46.9,76 M52.3,39.2c0-0.9,0.7-1.8,2.4-1.8H56
		c4,0,5.3,2.4,5.3,4.2c0,1.8-1.3,4.4-5.3,4.4h-1.3c-1.6,0-2.4-0.7-2.4-1.8V39.2L52.3,39.2 M52.3,57c0-0.9,0.7-1.8,2.4-1.8h1.6
		c4.4,0,5.8,2.4,5.8,4.7c0,2-1.3,4.7-5.8,4.7h-1.6c-1.6,0-2.4-0.7-2.4-1.8V57 M288.2,76.6c6,0,9.1-3.6,9.1-8.2v-8
		c0-0.9,0.5-1.5,1.5-1.5c1.1,0,1.5,0.5,1.6,1.5c0.9,3.8,3.1,9.1,5.6,11.8c3.1,3.4,6.2,4.5,9.1,4.5c4.7,0,8.9-3.1,8.9-7.1
		c0-2.5-1.3-4.5-2.9-6.2c-3.1-3.3-5.1-5.4-6.4-8c-0.4-0.5-0.2-1.1,0.7-1.6c2.9-1.8,6.2-5.8,6.2-12.2c0-9.6-9.6-15.1-21.4-15.1h-10.5
		c-7.3,0-10.9,3.4-10.9,8.2v33.9C279,72.8,282.3,76.6,288.2,76.6L288.2,76.6 M296.2,40.5c0-0.9,0.7-1.8,2.4-1.8h1.3
		c3.8,0,5.1,2.4,5.1,4.2c0,1.8-1.3,4.4-5.1,4.4h-1.3c-1.6,0-2.4-0.7-2.4-1.8V40.5L296.2,40.5 M136.4,80.9c-10.3,0-16,6.4-16,14.3v45
		c0,8,5.6,14.3,16,14.3s16-6.4,16-14.3v-45C152.3,87.3,146.7,80.9,136.4,80.9 M300.6,110.1h-4.5c-8.2,0-14.3,3.1-14.3,10
		c0,6.2,6.9,9.3,12,9.3c2.5,0,4.2,0.5,4.2,2.2c0,2-2.9,3.3-6.2,3.3c-10.5,0-17.6-5.8-17.6-16.7c0-12.2,9.6-16.5,17.2-16.5
		c9.1,0,10.7,3.8,17.1,3.8c7.4,0,12.3-4.9,12.3-10c0-3.8-2-6.5-5.3-8.5c-5.6-3.4-14.2-6-26.1-6c-21.6,0-42.5,11.3-42.5,37.2
		c0,24.9,21.1,36.5,41.7,36.5c21.8,0,35.4-11.1,35.4-27.2C324,117.2,316.2,110.1,300.6,110.1 M265.6,76c5.3,0,9.3-2.5,9.3-7.1
		c0-4.5-4-7.1-9.3-7.1h-8.3c-1.6,0-2.4-0.7-2.4-1.8v-1.5c0-0.9,0.7-1.8,2.4-1.8h6.4c4.4,0,8-2.2,8-6.2c0-3.8-3.4-6-8-6h-6.4
		c-1.6,0-2.4-0.7-2.4-1.8v-1.3c0-0.9,0.7-1.8,2.4-1.8h8.3c5.3,0,9.3-2.5,9.3-7.1s-4-7.1-9.3-7.1h-17.4c-7.3,0-10.9,3.4-10.9,8.2
		v33.6c0,4.7,3.4,8.2,10.9,8.2L265.6,76L265.6,76L265.6,76 M107,76.6c14.9,0,22.9-7.4,22.9-16.7V34.3c0-4.5-3.3-8.2-9.1-8.2
		c-6,0-9.1,3.6-9.1,8.2v24.9c0,1.8-1.3,4-4.5,4c-3.3,0-4.4-2.2-4.4-4V34.3c0-4.5-3.3-8.2-9.3-8.2s-9.1,3.6-9.1,8.2v25.6
		C84.1,69.1,91.9,76.6,107,76.6L107,76.6 M171.7,76.6c4.7,0,8.9-3.1,8.9-7.1c0-2.5-1.3-4.5-2.9-6.2c-2.7-2.9-5.1-5.4-6.4-8
		c-0.4-0.5-0.2-1.1,0.7-1.6c2.9-1.8,6.2-5.8,6.2-12.2c0-9.6-9.6-15.1-21.4-15.1h-10.5c-7.3,0-10.9,3.4-10.9,8.2v33.9
		c0,4.5,3.3,8.2,9.1,8.2c6,0,9.1-3.6,9.1-8.2v-8c0-0.9,0.5-1.5,1.5-1.5c1.1,0,1.5,0.5,1.6,1.5c0.9,3.8,3.1,9.1,5.6,11.8
		C165.9,75.5,168.8,76.6,171.7,76.6L171.7,76.6 M156.7,47.5h-1.3c-1.6,0-2.4-0.7-2.4-1.8v-5.1c0-0.9,0.7-1.8,2.4-1.8h1.3
		c3.8,0,5.1,2.4,5.1,4.2C161.8,45,160.5,47.5,156.7,47.5L156.7,47.5 M224.9,80.9c-9.4,0-14.7,5.8-14.7,13.2v16.3c0,1.5-0.5,2-1.6,2
		c-0.7,0-1.3-0.4-2-1.5l-12.7-20.5c-4.9-7.8-10-9.6-15.8-9.6c-9.6,0-15.1,6-15.1,13.6v46.8c0,7.4,5.3,13.2,14.7,13.2
		c9.4,0,14.7-5.8,14.7-13.2V125c0-1.5,0.5-2,1.6-2c0.7,0,1.3,0.4,2,1.5l12.9,20.5c4.9,7.8,10.2,9.6,15.8,9.6c9.6,0,15.1-6,15.1-13.6
		V94.2C239.6,86.7,234.4,80.9,224.9,80.9L224.9,80.9"/>
</g>
</svg>
