<?xml version="1.0" encoding="utf-8"?>
<!-- Generator: Adobe Illustrator 28.1.0, SVG Export Plug-In . SVG Version: 6.00 Build 0)  -->
<svg version="1.1"
	 id="Layer_1" xmlns:svg="http://www.w3.org/2000/svg" xmlns:sodipodi="http://sodipodi.sourceforge.net/DTD/sodipodi-0.dtd" xmlns:inkscape="http://www.inkscape.org/namespaces/inkscape" xmlns:cc="http://creativecommons.org/ns#" xmlns:dc="http://purl.org/dc/elements/1.1/" xmlns:rdf="http://www.w3.org/1999/02/22-rdf-syntax-ns#"
	 xmlns="http://www.w3.org/2000/svg" xmlns:xlink="http://www.w3.org/1999/xlink" x="0px" y="0px" viewBox="0 0 360 180"
	 style="enable-background:new 0 0 360 180;" xml:space="preserve">
<sodipodi:namedview  bordercolor="#666666" borderopacity="1" gridtolerance="10" guidetolerance="10" id="namedview12" inkscape:current-layer="Layer_1" inkscape:cx="611.40177" inkscape:cy="160.75581" inkscape:pageopacity="0" inkscape:pageshadow="2" inkscape:window-height="705" inkscape:window-maximized="1" inkscape:window-width="1366" inkscape:window-x="-8" inkscape:window-y="-8" inkscape:zoom="0.70710678" objecttolerance="10" pagecolor="#ffffff" showgrid="false">
	</sodipodi:namedview>
<g id="g3" transform="matrix(1.2500506,0,0,1.2500506,0,-0.00246783)">
	<g id="g5">
		<g id="g7">
			<g id="g9">
				<path id="path11" inkscape:connector-curvature="0" d="M66.4,91.4C55.7,91.4,47,82.7,47,72s8.7-19.4,19.4-19.4
					c3.8,0,7.3,1.1,10.3,2.9L66.4,72l19.3-11.2c-2.1-3.3-5.1-6.2-8.8-8.4c-4.6-2.8-11.1-4.5-18.2-4.5c-10.2,0-19.1,3.7-24.1,9.2
					c-3.7,4.1-5.9,9.3-5.9,14.9c0,5.6,2.2,10.8,5.9,14.9c5,5.5,13.8,9.2,23.8,9.2s18.8-3.7,23.8-9.2c0.3-0.3,0.5-0.6,0.8-0.9
					l-0.8-2.8C78.8,88.1,73,91.4,66.4,91.4"/>
				<path id="path13" inkscape:connector-curvature="0" d="M130.6,94.9l-8.1-30.3c-1.3-4.9-5.8-8.5-11.1-8.5c-1.4,0-2.7,0.2-3.9,0.7
					L90,63.2h18l3.1,11.5c-3-2.6-6.9-4.1-11.1-4.1c-8.4,0-15.3,5.7-15.3,12.6c0,7,6.8,12.6,15.3,12.6c6.1,0,11.5-3,14.8-7.5l1.8,6.7
					L130.6,94.9 M105.8,90.2c-3.9,0-7-3.2-7-7.1c0-3.9,3.2-7,7-7c3.9,0,7.1,3.2,7.1,7C112.8,87.1,109.7,90.2,105.8,90.2z"/>
				<path id="path15" inkscape:connector-curvature="0" d="M163.7,56.1c-1.1,0-2.1,0.2-3,0.7L149.5,62c-0.6-3.3-3.5-5.9-7-5.9
					c-1.1,0-2.1,0.2-3,0.7l-13.7,6.4h9.6v31.7h14.1V66.7c0-1.9,1.6-3.5,3.5-3.5c1.9,0,3.5,1.6,3.5,3.5v28.2h14.1V63.2
					C170.7,59.3,167.6,56.1,163.7,56.1"/>
				<path id="path17" inkscape:connector-curvature="0" d="M252.1,56.1c-1.1,0-2.1,0.2-3,0.7L237.9,62c-0.6-3.3-3.5-5.9-7-5.9
					c-1.1,0-2.1,0.2-3,0.7l-13.7,6.4h9.6v31.7H238V66.7c0-1.9,1.6-3.5,3.5-3.5c1.9,0,3.5,1.6,3.5,3.5v28.2h14.1V63.2
					C259.2,59.3,256,56.1,252.1,56.1"/>
				<path id="path19" inkscape:connector-curvature="0" d="M216.6,76.1c0,11-8.9,20-20,20c-11,0-20-8.9-20-20c0-11,8.9-20,20-20
					C207.6,56.1,216.6,65.1,216.6,76.1 M197.4,62.2c-0.6-2.3-3-3.7-5.4-3.1c-2.3,0.6-3.7,3-3.1,5.4l6.9,25.5c0.6,2.4,3,3.7,5.4,3.1
					c2.3-0.6,3.7-3.1,3.1-5.4L197.4,62.2z"/>
			</g>
		</g>
	</g>
</g>
</svg>
