<?xml version="1.0" encoding="utf-8"?>
<!-- Generator: Adobe Illustrator 28.1.0, SVG Export Plug-In . SVG Version: 6.00 Build 0)  -->
<svg version="1.1" id="Layer_1" xmlns="http://www.w3.org/2000/svg" xmlns:xlink="http://www.w3.org/1999/xlink" x="0px" y="0px"
	 viewBox="0 0 72 72" style="enable-background:new 0 0 72 72;" xml:space="preserve">
<g>
	<path d="M23,35.8c-0.1,2.1,1.5,4,3.7,4.1c0.1,0,0.2,0,0.2,0c2.2,0,3.9-1.7,3.9-3.9c0-2.2-1.7-3.9-3.9-3.9
		C24.8,32.1,23.1,33.7,23,35.8z"/>
	<path d="M8.5,34.8c-0.7,0-1.3,0.5-1.3,1.2s0.5,1.3,1.2,1.3c0.7,0,1.3-0.5,1.3-1.2C9.7,35.4,9.2,34.9,8.5,34.8z"/>
	<path d="M21.6,11c-0.6,0.3-0.9,1.1-0.5,1.7c0.3,0.6,1.1,0.9,1.7,0.6c0.6-0.3,0.9-1.1,0.5-1.7C23,11,22.2,10.7,21.6,11z"/>
	<path d="M26.7,20.2c1-0.5,1.3-1.6,0.9-2.6c-0.5-1-1.6-1.3-2.6-0.9c-1,0.5-1.3,1.6-0.9,2.6C24.6,20.2,25.7,20.6,26.7,20.2z"/>
	<path d="M13.4,24.9c0.7,0.5,1.7,0.3,2.2-0.5c0.5-0.7,0.3-1.7-0.5-2.2c-0.7-0.5-1.7-0.3-2.2,0.5C12.5,23.4,12.7,24.4,13.4,24.9z"/>
	<path d="M15.8,34.1c-1.1-0.1-2,0.8-2,1.8c-0.1,1.1,0.8,2,1.8,2c1.1,0.1,2-0.8,2-1.8C17.7,35.1,16.9,34.2,15.8,34.1z"/>
	<path d="M13.6,47.1c-0.8,0.4-1.1,1.4-0.7,2.2c0.4,0.8,1.4,1.1,2.2,0.7c0.8-0.4,1.1-1.4,0.7-2.2C15.4,47,14.4,46.7,13.6,47.1z"/>
	<path d="M21.2,30.1c1.1,0.7,2.5,0.4,3.2-0.7c0.7-1.1,0.4-2.5-0.7-3.2c-1.1-0.7-2.5-0.4-3.2,0.7C19.8,28,20.1,29.4,21.2,30.1z"/>
	<path d="M45.1,20c0.9,0.6,2.1,0.3,2.7-0.5c0.6-0.9,0.3-2.1-0.5-2.7s-2.1-0.3-2.7,0.5C43.9,18.2,44.2,19.4,45.1,20z"/>
	<path d="M49,13.2c0.6,0.4,1.4,0.2,1.7-0.4c0.4-0.6,0.2-1.4-0.4-1.7c-0.6-0.4-1.4-0.2-1.7,0.4C48.3,12,48.5,12.8,49,13.2z"/>
	<path d="M44.9,39.8c0.1,0,0.2,0,0.2,0c2.1,0,3.9-1.7,3.9-3.9c0-2-1.6-3.8-3.7-3.9c-2.1-0.1-4,1.5-4.1,3.7
		C41.1,37.9,42.8,39.7,44.9,39.8z"/>
	<path d="M35.3,28.1c0-0.6-0.1-1.2-0.4-1.7c-1-1.9-3.3-2.7-5.2-1.7c-1.9,1-2.7,3.3-1.7,5.2c0.7,1.3,2,2.1,3.5,2.1
		C33.6,32,35.3,30.2,35.3,28.1z"/>
	<path d="M58.4,24.9c0.8-0.4,1.1-1.4,0.7-2.2c-0.4-0.8-1.4-1.1-2.2-0.7c-0.8,0.4-1.1,1.4-0.7,2.1C56.6,24.9,57.5,25.3,58.4,24.9z"/>
	<path d="M50.6,30.2c1.1-0.6,1.6-1.9,1-3.1c-0.6-1.1-1.9-1.6-3.1-1c-1.1,0.6-1.6,1.9-1,3.1C48.1,30.3,49.4,30.7,50.6,30.2z"/>
	<path d="M34.3,10.9c0,0.9,0.6,1.6,1.5,1.7c0.9,0,1.6-0.6,1.7-1.5c0.1-0.9-0.6-1.6-1.5-1.7C35.2,9.3,34.4,10,34.3,10.9z"/>
	<path d="M38.2,20.5c0.1-1.3-0.9-2.3-2.2-2.4c-1.3-0.1-2.3,0.9-2.4,2.2c-0.1,1.3,0.9,2.3,2.2,2.4C37.1,22.7,38.2,21.7,38.2,20.5z"/>
	<path d="M23.5,45.9c1.1-0.6,1.6-1.9,1-3.1c-0.6-1.1-1.9-1.6-3.1-1c-1.1,0.6-1.6,1.9-1,3.1C21,46,22.4,46.5,23.5,45.9z"/>
	<path d="M38.4,31.3c1.8,1.2,4.2,0.7,5.4-1.1c1.2-1.8,0.7-4.2-1.1-5.4c-0.6-0.4-1.4-0.6-2.1-0.6c-1.3,0-2.5,0.7-3.2,1.7
		C36.1,27.7,36.6,30.1,38.4,31.3z"/>
	<path d="M44.1,42.2C44.1,42.2,44.1,42.2,44.1,42.2c-1-2-3.3-2.7-5.2-1.8c-1.9,1-2.7,3.3-1.7,5.2c1,1.9,3.3,2.7,5.2,1.7
		C44.2,46.4,45,44.1,44.1,42.2z"/>
	<path d="M50.8,41.9c-1.1-0.7-2.5-0.4-3.2,0.7c-0.7,1.1-0.4,2.5,0.7,3.2c1.1,0.7,2.5,0.4,3.2-0.7C52.2,44,51.9,42.6,50.8,41.9z"/>
	<path d="M58.3,36.1c0.1-1.1-0.8-2-1.8-2c-1.1-0.1-2,0.8-2,1.8c-0.1,1.1,0.8,2,1.8,2C57.3,38,58.2,37.1,58.3,36.1z"/>
	<path d="M63.6,34.7c-0.7,0-1.3,0.5-1.3,1.2c0,0.7,0.5,1.3,1.2,1.3c0.7,0,1.3-0.5,1.3-1.2C64.8,35.3,64.3,34.7,63.6,34.7z"/>
	<path d="M58.6,47.1c-0.7-0.5-1.7-0.3-2.2,0.5c-0.5,0.7-0.3,1.7,0.5,2.2c0.7,0.5,1.7,0.3,2.2-0.5C59.5,48.6,59.3,47.6,58.6,47.1z"/>
	<path d="M23,58.8c-0.6-0.4-1.4-0.2-1.7,0.4c-0.4,0.6-0.2,1.4,0.4,1.7c0.6,0.4,1.4,0.2,1.7-0.4C23.7,60,23.5,59.2,23,58.8z"/>
	<path d="M49.3,58.7c-0.6,0.3-0.9,1.1-0.5,1.7c0.3,0.6,1.1,0.9,1.7,0.5c0.6-0.3,0.9-1.1,0.5-1.7C50.6,58.6,49.9,58.4,49.3,58.7z"/>
	<path d="M34.7,46.1c1.2-1.8,0.7-4.2-1.1-5.4c-1.8-1.2-4.2-0.7-5.4,1.1c-1.2,1.8-0.7,4.2,1.1,5.4c0.6,0.4,1.4,0.6,2.1,0.6
		C32.8,47.8,34,47.2,34.7,46.1z"/>
	<path d="M26.9,52c-0.9-0.6-2.1-0.3-2.7,0.5c-0.6,0.9-0.3,2.1,0.5,2.7c0.9,0.6,2.1,0.3,2.7-0.5C28.1,53.8,27.8,52.6,26.9,52z"/>
	<path d="M36,59.4c-0.9,0-1.6,0.6-1.7,1.5c-0.1,0.9,0.6,1.6,1.5,1.7c0.9,0,1.6-0.6,1.7-1.5C37.5,60.2,36.9,59.5,36,59.4z"/>
	<path d="M36,49.4c-1.3-0.1-2.3,0.9-2.4,2.2c-0.1,1.3,0.9,2.3,2.2,2.4c1.3,0.1,2.3-0.9,2.4-2.2C38.2,50.5,37.3,49.4,36,49.4z"/>
	<path d="M45.3,51.8c-1,0.5-1.3,1.7-0.8,2.6c0.5,1,1.7,1.3,2.6,0.8c1-0.5,1.3-1.6,0.9-2.6C47.5,51.7,46.3,51.3,45.3,51.8z"/>
</g>
</svg>
