<?xml version="1.0" encoding="utf-8"?>
<!-- Generator: Adobe Illustrator 28.1.0, SVG Export Plug-In . SVG Version: 6.00 Build 0)  -->
<svg version="1.1" id="Layer_1" xmlns="http://www.w3.org/2000/svg" xmlns:xlink="http://www.w3.org/1999/xlink" x="0px" y="0px"
	 viewBox="0 0 360 180" style="enable-background:new 0 0 360 180;" xml:space="preserve">
<path d="M56.5,112.5c-0.1,0-0.5-0.1-0.9-0.1c-3.5-0.4-7.3-1.8-10.2-3.9c-4.4-3.2-7.6-7.8-8.8-13.2c-0.7-2.8-0.8-6-0.4-8.9
	c1.2-7.8,6.3-14.5,13.5-17.5c1.8-0.7,3.6-1.2,5.7-1.5c1.2-0.2,4-0.2,5.2,0c2.5,0.4,4.6,1,6.8,2c2.4,1.2,4,2.3,6,4.4
	c1.8,1.8,2.8,3.2,4.1,5.5l0.3,0.5l-1,0.7c-1.3,1-4.4,3.1-5.3,3.8l-0.8,0.5l-0.4-0.7c-0.4-0.9-0.7-1.4-1.2-2.1c-2-2.8-5-4.9-8.3-5.5
	c-1.8-0.4-3.9-0.3-5.7,0.1c-1.8,0.4-3.8,1.3-5.3,2.6c-0.6,0.4-1.7,1.6-2.2,2.2C45,84.7,44,89,44.9,93.3c0.4,1.5,1.2,3.4,2,4.6
	c2.2,3.4,5.7,5.5,9.6,6c0.7,0.1,2.4,0.1,3,0c3.5-0.4,6.7-2.2,8.9-5c0.6-0.8,1.1-1.5,1.6-2.5c0.3-0.4,0.4-0.8,0.4-0.8
	s1.6,1.2,3.6,2.5l3.5,2.5l-0.4,0.7c-0.7,1.4-2,3.1-3.2,4.4c-2,2.1-4,3.6-6.5,4.9c-2.2,1.1-4.5,1.8-7,2
	C59.7,112.5,56.9,112.6,56.5,112.5z M86.5,89.6v-22H95v15.7h22.2V67.7h8.5v43.9h-8.5V92.3H95v19.3h-8.5V89.6z M134.4,107.8
	c1-2.1,5.3-12,9.8-22l8-18h6h6l9.7,21.7c5.3,11.9,9.8,21.9,9.8,22l0.1,0.3h-10.2l-2-4.4l-2-4.4h-11.4h-11.4l-2,4.4l-2,4.4h-10.2
	L134.4,107.8L134.4,107.8z M166.1,94.1c0-0.2-7.7-17.4-7.8-17.4c0,0-7.4,17.2-7.5,17.5c0,0,2.9,0.1,7.6,0.1
	C164.9,94.2,166.1,94.2,166.1,94.1z M190.7,89.6v-22h6h6l9.4,13.2l9.4,13.2V80.8V67.7h8.6v43.9h-3.5h-3.5L211.3,95
	c-6.6-9.1-11.9-16.5-11.9-16.5s-0.1,7.5-0.1,16.5v16.5h-8.6L190.7,89.6L190.7,89.6z M245.6,89.6v-22h30.8v8.9h-22.1v8.8h20.5v8.8
	h-20.5v8.8h25.3v8.7h-33.9L245.6,89.6L245.6,89.6z M291.5,89.6v-22h8.6v35.2H324v8.7h-32.5V89.6z"/>
</svg>
