<?xml version="1.0" encoding="utf-8"?>
<!-- Generator: Adobe Illustrator 28.1.0, SVG Export Plug-In . SVG Version: 6.00 Build 0)  -->
<svg version="1.1" id="Layer_1" xmlns="http://www.w3.org/2000/svg" xmlns:xlink="http://www.w3.org/1999/xlink" x="0px" y="0px"
	 viewBox="0 0 72 72" style="enable-background:new 0 0 72 72;" xml:space="preserve">
<g>
	<path d="M64.8,46.5v-21L36,7.2L7.2,25.5v21L36,64.8L64.8,46.5z M38.7,56.6V46.4l10.2-7.1l8.2,5.6L38.7,56.6z M59.3,39.9l-5.6-3.8
		l5.6-3.9V39.9z M38.7,15.4l18.4,11.7l-8.3,5.7l-10.2-6.9V15.4z M44.1,36.1L36,41.7l-8.1-5.6l8.1-5.5L44.1,36.1z M33.3,15.4v10.5
		l-10.2,6.9l-8.3-5.7L33.3,15.4z M12.7,32.2l5.6,3.9l-5.6,3.8V32.2z M33.3,56.6L14.9,45l8.2-5.6l10.2,7.1V56.6z"/>
</g>
</svg>
