<?xml version="1.0" encoding="utf-8"?>
<!-- Generator: Adobe Illustrator 28.1.0, SVG Export Plug-In . SVG Version: 6.00 Build 0)  -->
<svg version="1.1" id="Layer_1" xmlns="http://www.w3.org/2000/svg" xmlns:xlink="http://www.w3.org/1999/xlink" x="0px" y="0px"
	 viewBox="0 0 72 72" style="enable-background:new 0 0 72 72;" xml:space="preserve">
<g>
	<path d="M50.1,43.6l0.2,0l0.2,0l0.2,0l0.2,0l0.2-0.1l0.2-0.1l0.2-0.1l0.2-0.1l0.2-0.1l0.2-0.1l0.2,0l0.2-0.1l0.2,0l0.2-0.1l0.2,0
		l0.2,0h0.2l0.2,0h0.2h0.2h0.2h0.2l0.2,0l0.2,0l0.2,0.1h0.2l0.2,0l0.2,0l0.2,0.1l0.1,0l0.1,0l0.2,0l0.2,0.1l0.1,0.1l0.2,0.1l0.2,0.1
		l0.2,0.1l0.2,0l0.2,0l0.2,0l0.2,0l0,0l0.2,0l0.2,0h0.2h0.2l0.2,0l0.2,0l0.2,0l0.1,0l0.1,0l0.2,0l0.2-0.1l0.2-0.1l0.1,0l0.1,0l0.2,0
		l0.2-0.1l0.2-0.1l0.2-0.1l0.2,0v-0.1L59.4,43l-0.1-0.1l-0.2-0.1L59,42.7l-0.2-0.1l-0.2-0.1l-0.2,0l-0.1-0.1l-0.2,0l-0.2-0.1
		l-0.2-0.1l-0.2-0.1l-0.2-0.1l-0.2,0l-0.2-0.1l-0.2,0L57,42l-0.2,0l-0.2,0l-0.2-0.1l-0.2,0l-0.2,0l-0.2-0.1l-0.2,0l-0.2,0l-0.2,0
		l-0.2,0l-0.2,0h-0.2l-0.2,0l-0.2,0l-0.2,0l-0.2,0l-0.2,0l-0.2,0l-0.2,0l-0.2,0l-0.2,0.1l-0.2,0l-0.2,0l-0.2,0.1l-0.2,0l-0.2,0.1
		l-0.2,0l-0.2,0l-0.1,0.1l-0.2,0l-0.2,0.1l-0.1,0.1l-0.2,0.1l-0.2,0.1l-0.2,0.1L51,43L50.8,43l-0.2,0.1l-0.1,0.1l-0.1,0.1l-0.2,0.1
		l-0.2,0.1l-0.2,0.1l0,0L50.1,43.6z"/>
	<path d="M45.5,46.7l0.2,0h0.2l0.2,0l0.2,0l0.2,0l0.2,0l0.2,0h0.2l0.2,0l0.2,0l0.2,0.1l0.2,0l0.1,0.1l0.2,0l0.2,0.1l0.2,0.1l0.2,0.1
		l0.2,0l0.2,0l0.2,0h0.2l0.2,0l0.2,0l0.2,0l0.2,0l0.2,0l0.2,0l0.2,0l0.2,0l0.2-0.1l0.2,0l0.2,0l0.2-0.1l0.2-0.1l0.1-0.1l0.2,0
		l0.2-0.1l0.2,0l0.2,0l0.2-0.1h0.2l0.2,0h0.2l0.2,0l0.2,0l0.2,0l0.2,0h0.2l0.2,0l0.2,0l0.2,0l0.2,0l0.1,0l0.1,0l0.2,0l0.2,0.1l0.2,0
		l0.2,0.1l0.2,0l0.2,0.1l0.2,0l0.2,0.1l0.2,0l0.2,0.1l0.2,0l0.2,0l0.2,0l0.2,0l0.2,0l0.2,0h0.2l0.2,0l0.2,0l0.2,0l0.2,0l0.2,0l0.2,0
		l0.2-0.1l0.2,0l0.2-0.1l0.2,0L59,47l0.2-0.1l0.2,0l0.2-0.1l0.2,0l0.1,0l0.1,0l0.2,0l0.2,0l0.1,0l0.1,0l0.2,0l0.2,0l0.2,0l0.2,0h0.2
		l0.2,0l0.2,0l0.2,0l0.2,0l0.2,0l0.2,0l0.2,0.1l0.2,0l0.2,0.1l0.1,0l0.1,0l0.2,0.1l0.2,0.1l0.2,0l0.2,0.1l0.2,0l0.2,0l0-0.1
		l-0.1-0.1l-0.1-0.2l-0.1-0.1l-0.1-0.2l-0.1-0.1l-0.1-0.1l-0.1-0.2L63,46l-0.1-0.1l-0.1-0.2l-0.1-0.1l-0.1-0.1l-0.1-0.1l-0.1-0.1
		l-0.1-0.1L62.1,45L62,44.8l-0.1-0.1l-0.1-0.1l-0.1-0.1l-0.1-0.1l-0.1-0.1l-0.1-0.1l-0.1-0.1L61,44l-0.2,0h-0.2l-0.2,0l-0.2,0
		l-0.2,0.1l-0.2,0h-0.2l-0.2,0.1l-0.2,0.1l-0.2,0.1l-0.2,0L59,44.5l-0.2,0l-0.2,0.1l-0.2,0.1l-0.1,0l-0.1,0l-0.2,0l-0.2,0l-0.2,0
		h-0.2h-0.2h-0.2l-0.2,0l-0.2,0l-0.2,0l-0.2,0l-0.2,0l-0.2,0l-0.2,0l-0.2,0l-0.2,0l-0.2-0.1l-0.2,0l-0.1-0.1l-0.2,0l-0.1-0.1
		L55,44.3l-0.2,0l-0.2,0l-0.2,0l-0.2-0.1l-0.2,0l-0.2,0l-0.2,0h-0.2l-0.2,0h-0.2l-0.2,0l-0.2,0l-0.2,0l-0.2,0l-0.2,0l-0.2,0.1
		L52,44.3l-0.2,0l-0.2,0l-0.2,0.1l-0.2,0.1l-0.2,0.1l-0.2,0l-0.2,0l-0.2,0l-0.2,0l-0.2,0l-0.2,0l-0.1,0l-0.1,0h-0.2l-0.2,0l-0.2,0
		h-0.2h-0.2l-0.2,0l-0.2,0l-0.2,0l-0.2,0l-0.2,0l-0.2,0l0,0L48,44.7l-0.1,0.1l-0.1,0.1l-0.2,0.1L47.5,45l-0.1,0.1l-0.1,0.1L47,45.3
		l-0.1,0.1l-0.1,0.1l-0.1,0.1l-0.2,0.1l-0.1,0.1l-0.1,0.1L46.1,46l-0.2,0.1l-0.1,0.1l-0.1,0.1l-0.1,0.1l-0.1,0.1l-0.1,0.1l0,0.1
		L45.5,46.7z"/>
	<path d="M64.8,51.2l0-0.2l0-0.2v0l0-0.2l0-0.2l0-0.2l-0.1-0.2l0-0.2l-0.1-0.2l0-0.2l-0.1-0.2l0-0.2l-0.1-0.2l0-0.2l-0.1-0.2
		l-0.1-0.2l-0.1-0.2l0,0l-0.2,0l-0.2,0l-0.1,0l-0.1,0l-0.2,0l-0.2,0l-0.2,0l-0.1-0.1l-0.2,0l-0.2-0.1l-0.2,0l-0.2-0.1l-0.2,0
		L62.2,48L62,48l-0.2,0l-0.2,0l-0.2,0l-0.2,0l-0.2-0.1h-0.2l-0.2,0l-0.2,0l-0.2,0l-0.2,0l-0.2,0L59.9,48h-0.1h-0.1l-0.2,0.1
		l-0.2,0.1l-0.2,0.1l-0.1,0.1l-0.2,0l-0.2,0.1l-0.2,0h-0.2l-0.2,0l-0.2,0l-0.2,0l-0.2,0l-0.2,0h-0.2h-0.2l-0.2,0l-0.2,0l-0.1,0
		l-0.1,0l-0.2-0.1l-0.2,0l-0.2,0l-0.2,0L56,48.4l-0.2,0l-0.2,0l-0.2-0.1l-0.2,0l-0.2-0.1L55,48.1l-0.2,0l-0.2,0l-0.2,0L54.4,48
		l-0.2,0L54,47.9l-0.2,0l-0.2,0l-0.2,0l-0.2,0h-0.2h-0.2l-0.2,0l-0.2,0h-0.2l-0.2,0l-0.2,0l-0.2,0.1l-0.2,0.1l-0.2,0l-0.1,0.1
		l-0.2,0l-0.1,0l-0.1,0l-0.2,0.1l-0.2,0l-0.2,0.1l-0.2,0l-0.2,0l-0.2,0.1l-0.2,0h-0.2l-0.2,0l-0.2,0h-0.2l-0.2,0H49l-0.2,0l-0.2,0
		l-0.2,0l-0.2,0l-0.2,0l-0.2,0l-0.2-0.1l-0.2-0.1l-0.2,0l-0.2-0.1l-0.2,0L47,48L46.8,48l-0.2,0h-0.2l-0.1,0l-0.1,0l-0.2,0h0H46
		l-0.2,0h-0.2h-0.1h-0.1l-0.2,0l-0.1,0h-0.2l-0.2,0.1h-0.2l-0.2,0L44.2,48l-0.2,0l-0.1,0l-0.1,0v0v0l-0.2,0.1l-0.2,0.1l-0.2,0.1
		l-0.2,0.1l-0.2,0.1L43,48.6l-0.1,0.1l-0.1,0.1l-0.1,0.1L42.4,49l-0.1,0.1l-0.1,0.1L42,49.3l-0.1,0.1l-0.1,0.1l-0.1,0.1l-0.1,0.1
		l-0.1,0.1L41.3,50l-0.1,0.1L41,50.3l-0.1,0.1l-0.1,0.1l-0.1,0.1l-0.1,0.1l-0.2,0.1l-0.1,0.1l-0.1,0.2L40,51.2h0l0.2,0.1l0.2,0.1
		l0.2,0l0.2,0.1l0.2,0.1l0.2,0h0.2l0.2,0h0.2l0.2,0l0.2,0l0.2-0.1l0.2,0l0.2,0l0.2,0l0.2,0H43l0.2-0.1l0.2-0.1l0.2,0l0.2,0l0.1-0.1
		l0.2,0l0.2-0.1h0.2l0.2-0.1l0.2,0l0.2,0l0.2,0l0.2,0l0.2,0l0.2,0h0.2l0.2,0l0.2,0l0.2,0h0.2h0.2l0.2,0.1l0.2,0l0.2,0l0.2,0h0.2
		l0.1,0.1l0.2,0.1l0.2,0l0.2,0.1l0.2,0l0.2,0.1l0.2,0.1h0.2l0.2,0.1l0.2,0l0.2,0l0.2,0l0.2,0.1h0.2l0.2,0l0.2,0l0.2,0l0.2,0l0.2-0.1
		l0.2-0.1h0.2l0.2-0.1l0.2-0.1l0.2,0l0.2,0l0.2,0l0.2-0.1l0.2,0l0.2,0l0.2,0l0.2,0l0.2-0.1l0.2,0l0.2,0l0.2,0l0.2,0h0.2l0.2,0.1
		l0.2,0h0.2l0.2,0l0.2,0l0.2,0l0.2,0.1l0.2,0.1l0.2,0.1l0.2,0l0.2,0.1l0.2,0l0.2,0.1l0.2,0.1l0.2,0.1l0.2,0l0.2,0l0.2,0h0.2l0.2,0
		l0.2,0l0.2,0l0.2,0l0.2,0h0.2h0.2l0.2,0l0.2,0l0.2-0.1l0.2,0l0.1,0l0.1,0l0.2,0l0.2-0.1l0.1-0.1l0.2-0.1l0.2,0l0.2,0l0.2-0.1l0.2,0
		l0.2,0l0.2,0h0.2l0.2,0h0.2l0.2,0l0.2,0l0.2,0h0.2h0.2l0.2,0l0.2,0l0.2,0l0.2,0l0.2,0l0.2,0l0.2,0.1l0.2,0.1l0.2,0.1l0.2,0.1l0.2,0
		l0.2,0.1l0.2,0.1l0.2,0.1H64h0.2l0.2,0.1l0.2,0l0.2,0h0l0,0l0-0.2L64.8,51.2z"/>
	<path d="M29.1,28.1L29.1,28.1l0.2,0.2l0.1,0.1l0.1,0.1l0,0l0.1,0.1l0.1,0.1l0.2,0.1L30,29l0.1,0.1l0.2,0.2l0.2,0.2l0.2,0.2l0.2,0.2
		l0.2,0.2l0.2,0.2l0,0l0.1,0.1l0.1,0.2l0.1,0.1h0l0,0l0.2,0.1l0.1,0.1l0.1,0.1l0.2,0.2l0.2,0.2l0.1,0.1l0,0l0,0l0.1,0.1l0.1,0.1
		l0.1,0.1l0.2,0.1l0,0l0,0l0.2,0.2l0,0l0.1,0l0.1,0.1l0.2,0.2l0.2,0.2l0.1,0.1l0.1,0.1l0.1,0.1l0.1,0l0,0l0.2,0.1l0.1,0.1l0.1,0.1
		l0.1,0.1l0.2,0.2l0.1,0.1L35,34l0.2,0.2l0,0l0.1,0l0.1-0.1v-0.2l0-0.1l0-0.3l0-0.3v0l0-0.2v-0.1v0l0-0.1l0-0.1l0-0.2v-0.1l0-0.2
		l0-0.1v-0.1v0l0-0.2l0-0.2l0-0.2v0l0-0.1l0-0.2v0l0-0.2l0-0.2l0-0.1l0-0.1l0-0.1l0-0.1l0-0.2l0-0.2l0-0.2l0-0.1l0-0.2l0-0.1
		l-0.2-0.2L35.1,29L35,28.9l-0.2-0.1l-0.1-0.2l-0.1,0l-0.1-0.1l-0.2-0.1l-0.1-0.1l-0.1-0.2L34,27.9l0,0l-0.1-0.1l-0.2-0.2l-0.1-0.1
		l-0.2-0.1l-0.1-0.2l-0.1-0.1l0,0l-0.1-0.2l-0.1-0.1l-0.1-0.2l-0.2-0.2l0,0l-0.1-0.1l-0.2-0.1L32.1,26l-0.1-0.2l-0.1-0.1l-0.1-0.1
		l-0.2-0.2l-0.1-0.1l-0.1-0.1l-0.2,0L31,25.3l-0.1,0.1l-0.1,0.1l-0.1,0.1L30.5,26L30.4,26l-0.1,0.1l0,0.1l0,0l0,0l-0.1,0.1l-0.1,0.2
		l-0.1,0.2l0,0l-0.2,0.2L29.7,27l-0.1,0.2l-0.2,0.2l0,0.1l0,0l-0.1,0.1l-0.1,0.2l0,0.1L29.1,28.1L29.1,28.1z"/>
	<path d="M32.1,24.3L32.1,24.3L32.1,24.3l0.2,0.2l0.1,0.1l0.2,0.2l0,0.1l0.1,0l0.1,0.1l0.1,0.1l0,0l0.2,0.2l0.2,0.1l0.1,0.2l0.1,0.1
		l0.1,0.1l0.1,0.1l0.1,0.1l0.1,0.1l0,0l0,0l0.1,0.2l0.1,0.1l0.1,0.1l0,0l0,0l0,0l0.1,0.1l0.1,0.1l0.1,0.1l0.2,0.1l0.2,0.1l0.1,0.1
		l0.1,0.1h0l0.2,0.1l0.1-0.2l0-0.1l0-0.2v-0.1v0v0v-0.1l0-0.3v-0.1l0-0.1l0-0.2v0l0-0.2l0-0.1v-0.1v-0.3l0-0.3l0-0.2v0l0-0.1l0-0.2
		v-0.1l0-0.2v-0.2v-0.1v-0.2l0-0.2l0-0.2l0-0.3l0-0.2v-0.2l0-0.2V22v0l0-0.3v0v-0.1l0-0.2l0-0.1v-0.2l0-0.3l0-0.2v-0.1l-0.1-0.1
		l-0.1,0.1h0l-0.1,0.1L35,20.6l0,0.1l0,0l-0.2,0.2l-0.1,0.1l-0.2,0.1l-0.1,0.2l0,0l-0.1,0.1l-0.1,0.2l-0.1,0.1L34,21.7L33.8,22
		l-0.2,0.2l-0.1,0.1l0,0l-0.1,0.2l-0.1,0.1l0,0L33,22.8L32.8,23l-0.2,0.2l-0.1,0.2l0,0l-0.1,0.2l-0.1,0.1l0,0l-0.2,0.2v0L32,24.1
		L32.1,24.3z"/>
	<path d="M36.7,26.2L36.7,26.2l0,0.3v0v0.1l0,0.2l0,0.2l0.1,0.1l0.2,0l0.2-0.2l0.2-0.1l0.1-0.1l0,0l0.1-0.1l0.1-0.1l0,0l0.2-0.1
		l0.2-0.2l0.2-0.2l0.1-0.1l0.2-0.2l0.2-0.2l0.1-0.1l0,0l0.2-0.2l0.1-0.1l0,0l0.2-0.2l0,0l0.2-0.2l0.2-0.2l0.1-0.1l0,0l0.1-0.2
		l0.2-0.2L40,24l-0.1-0.1l-0.1-0.2l-0.2-0.2l-0.1-0.2l-0.1-0.2L39.2,23l0,0l0,0l-0.1,0l-0.1-0.1l-0.1-0.2l-0.1-0.1l-0.1-0.1
		l-0.2-0.2l-0.1-0.1l0,0l0,0l-0.1-0.1l-0.2-0.2l-0.2-0.2l-0.2-0.2l-0.2-0.2l-0.2-0.2v0l0,0l0,0l-0.2-0.2l-0.1-0.1l-0.1-0.1l0,0l0,0
		l0,0l-0.1-0.2l-0.2,0l-0.1,0.1l0,0.2l0,0.1l0,0.1v0l0,0.2l0,0.1v0.1v0.2l0,0.1l0,0.2v0l0,0.1l0,0.2v0v0v0.1v0.2v0.2v0.2l0,0v0.2
		l0,0.3v0.3l0,0.3v0.1l0,0.2v0.2v0.1l0,0.3V25v0.1l0,0.2v0.2v0v0.1l0,0.1l0,0.2L36.7,26.2z"/>
	<path d="M35.4,44.5l0-0.2l0-0.1l0-0.1l0-0.1l0-0.1l-0.1-0.2l0-0.1l-0.1-0.1L35,43.4l-0.1-0.1l0,0l-0.1-0.2l-0.1-0.1l0,0l-0.2-0.2
		l-0.1-0.1l0-0.1l-0.1,0l0,0l-0.1-0.1l-0.1-0.1l-0.1-0.1l-0.1-0.1l-0.2-0.1l0,0l-0.1-0.2l-0.1-0.1l-0.1-0.1l-0.1-0.1l-0.1-0.1
		L33,41.4l-0.1-0.1l-0.1-0.1l-0.1-0.1L32.6,41l-0.2-0.2l-0.2-0.2l0,0l-0.1-0.1L32,40.5l-0.2-0.2l0,0l0,0l-0.2-0.1l-0.2-0.2l-0.1,0
		l0,0l-0.2-0.1l-0.1-0.2l-0.1-0.1l-0.1-0.1l-0.1-0.1l-0.2-0.1l0,0L30.6,39l-0.1-0.1l-0.1-0.1l-0.1-0.1L30,38.5l-0.1-0.1l-0.2-0.1
		l-0.1,0l-0.1-0.1L29.5,38l0,0l-0.1-0.2l0,0l0,0l-0.1-0.1l-0.1-0.1l-0.1-0.2l-0.1-0.1l-0.1-0.1L28.5,37l-0.1-0.1l0,0l-0.1-0.1
		l-0.2-0.1l-0.1-0.1l0,0l-0.1-0.2l-0.1-0.1l0,0L27.5,36l-0.1-0.1l0,0l-0.1-0.1l-0.1-0.1l-0.1-0.1L27,35.4l-0.1-0.1l-0.1-0.1L26.6,35
		l-0.2-0.1l0,0l-0.1-0.1l0,0l0,0l-0.1-0.2l-0.1,0l-0.1,0l-0.1,0.2l0,0.2v0.1v0l0,0.2l0,0.2l0,0.1l0,0.1l0,0.3l0,0.3l0.1,0.2v0.1
		l0,0.2l0,0.1l0,0.2l0,0.1l0,0.2l0,0.1l0,0.1l0,0.2v0l0,0.1l0,0l0,0.1L26,38v0l0,0.2l0,0.3l0,0.1l0,0.1l0.1,0.2l0.1,0.1l0,0l0.1,0.3
		l0,0.1l0,0.1l0.1,0.1l0.1,0.2l0,0.1l0,0l0.1,0.2l0.1,0.2l0.1,0.2l0,0.1l0.1,0.1l0,0.1l0.1,0.2l0.1,0.2l0.2,0.2l0.1,0.2l0.1,0.1
		l0,0.1l0.1,0.2l0.1,0.2l0.1,0.2l0,0v0l0.2,0.2l0.1,0.2l0.2,0.2l0.1,0.1l0,0l0,0l0.1,0l0.1,0.1l0.1,0.1l0.2,0.1l0.1,0.1l0.2,0.1
		l0.1,0.1l0.2,0.2l0.1,0.1l0.1,0.1l0.2,0.1l0,0l0,0l0,0l0,0l0.2,0.1l0.2,0.1l0.2,0.1l0.1,0.1l0.2,0.1l0.1,0.1l0.1,0.1l0.1,0l0.1,0.1
		l0.1,0.1l0.1,0.1l0.1,0.1l0.1,0l0.2,0.1l0.2,0.1l0.2,0.1l0.1,0.1l0.1,0l0.1,0l0.2,0.1l0.1,0h0l0.2,0.1h0.1l0.1,0.1l0.2,0.1h0.2
		l0.1,0l0.1,0l0.1,0.1l0.1,0l0.1,0l0.2,0l0.2,0l0.2,0l0.1,0l0.2,0l0-0.1l0,0l0.1-0.2v-0.1v-0.2v-0.2v-0.1l0-0.1v-0.3L35.4,44.5z"/>
	<path d="M36.7,33.2L36.7,33.2l0,0.1l0,0.2v0l0,0.1l0,0.2l0,0.2l0,0l0.1,0.1l0.1,0l0,0L37,34l0,0l0.2-0.1l0.1-0.1l0.2-0.2l0.2-0.2
		l0.2-0.2l0.2-0.2l0.2-0.2l0.1-0.1v0l0.1-0.1l0.1-0.1l0.1-0.1l0.1-0.2l0.1-0.1l0.1-0.1l0.2-0.2l0.1-0.1l0.1-0.1l0.1-0.1l0.1-0.1
		l0.1-0.1l0.1-0.1l0,0l0-0.1l0.1-0.1l0.2-0.1l0.1-0.1l0.1-0.1l0,0l0.2-0.2l0-0.1l0.1-0.1l0.1-0.1l0.2-0.1l0.1-0.1l0.1,0l0.1-0.1
		l0.1-0.1l0.1-0.1l0,0l0.1-0.1l0,0l0.2-0.1l0.1-0.1l0.1-0.1l0.2-0.2l0,0l0,0l0,0l0.1-0.1l0.2-0.2l0.1-0.1l0,0l0.1-0.1l0.2-0.1l0-0.2
		l0-0.1l-0.1-0.2l0,0l0-0.1l-0.2-0.2l-0.2-0.2l-0.1-0.1l0,0l-0.1-0.2l-0.1-0.2L42,26.6l-0.1-0.1l-0.1-0.1l-0.2-0.2l0,0l0,0L41.5,26
		l-0.1-0.2l0,0l0,0l-0.1-0.1l-0.1-0.2L41,25.3l-0.2-0.1l-0.1,0.1l-0.1,0l-0.2,0.2l-0.2,0.2l0,0l-0.1,0.1l0,0.1l-0.1,0.1L39.9,26
		l-0.1,0.1l0,0l-0.1,0.2l-0.1,0.1l-0.2,0.1l0,0l0,0l0,0l-0.1,0.1l-0.1,0.1L39,26.9L38.9,27l0,0.1l-0.1,0.1l-0.1,0.1l0,0l-0.1,0.1
		l-0.2,0.1l-0.2,0.2l0,0l0,0l0,0L38,27.9l0,0L37.9,28l-0.1,0.2l-0.1,0.1l-0.1,0.1l-0.1,0.1l-0.1,0.1l-0.1,0.1l-0.1,0.1l-0.1,0.1l0,0
		l0,0l-0.1,0.1L37,28.9L36.9,29l-0.1,0.1l-0.1,0.1l0,0.1l0,0v0.2v0l0,0.3l0,0.3l0,0.2l0,0.1v0.1l0,0.1l0,0.2V31l0,0.2l0,0.2l0,0.2v0
		V32l0,0.3l0,0.2v0v0v0v0v0.1l0,0.2l0,0.2L36.7,33.2z"/>
	<path d="M46.3,36.1l0-0.2l0-0.1l0,0l0-0.2l0-0.2l0-0.2l0-0.1v-0.1l0-0.2l-0.1-0.2v0l-0.1-0.1l-0.2,0.1l0,0l-0.2,0.1l-0.2,0.2
		L45.4,35l-0.1,0.1l-0.1,0.1l0,0.1l-0.2,0.2l-0.2,0.2l-0.1,0.1l0,0l-0.1,0.2l0,0L44.4,36l-0.1,0.1l-0.1,0.1l-0.1,0.1l-0.1,0.1
		l-0.1,0.1l-0.1,0.1l-0.1,0.1l-0.1,0l-0.2,0.2l-0.1,0.1l-0.1,0.1l-0.1,0.1l-0.1,0.1l0,0l-0.1,0.1l-0.2,0.2L42.4,38l0,0l-0.2,0.1l0,0
		l-0.1,0L42,38.4l-0.1,0.1l0,0l-0.1,0.1l-0.1,0.1l0,0l-0.1,0.1l-0.2,0.2l-0.1,0.1l0,0l-0.1,0.1l-0.2,0.1l-0.2,0.2l0,0l-0.2,0.1
		L40.5,40l-0.1,0.1l-0.2,0.2l-0.1,0.1l0,0l-0.1,0.1l-0.1,0.1l-0.1,0.1l-0.1,0.1L39.4,41L39.4,41l0,0l-0.1,0.1l0,0.1l-0.1,0.1l0,0
		l-0.1,0.1l-0.1,0.1l-0.1,0.1l-0.2,0.1L38.4,42l0,0l0,0l-0.2,0.2l-0.1,0.1L38,42.4L38,42.4l-0.1,0.1l-0.1,0l0,0l0,0l-0.2,0.2
		L37.4,43l-0.1,0.1l-0.1,0.1l-0.2,0.1L37,43.4l-0.2,0.2l-0.1,0.1l-0.1,0.1l0,0.2l0,0.1l0,0.1l0,0.2l0,0.1l0,0.2l0,0.2l0,0.2l0,0.1v0
		l0,0.2l0,0.2l0.1,0.1l0,0.1l0.1,0.2l0.2,0l0.1,0h0.2l0.2-0.1l0.1,0l0.2,0l0.1,0H38l0.1,0h0.1l0.1-0.1h0l0.2-0.1l0.1,0h0.1l0.2-0.1
		l0.1,0l0.1,0l0.1,0l0.2-0.1l0.1,0l0.1,0l0,0l0.2-0.1l0.2-0.1l0.2-0.1l0,0l0.1-0.1l0.2-0.1l0.2-0.1l0.1-0.1l0,0l0.2-0.2l0.1-0.1
		l0.2-0.1l0.1,0l0.1,0l0.1-0.1l0.1-0.1l0.2-0.1l0.2-0.1l0.2-0.1l0.2-0.1l0.2-0.1l0.1-0.1l0.1-0.1l0,0l0.1-0.1l0.2-0.2l0.1-0.1l0,0
		l0.1-0.1l0.1-0.2l0.2-0.1l0.1-0.2l0,0l0,0l0.1-0.1l0.1-0.1l0.1-0.2l0.1-0.2l0.1-0.1l0.1-0.1l0.1-0.1l0.1-0.1l0-0.1l0-0.1l0.1-0.1
		l0.1-0.2l0,0l0.1-0.1l0.1-0.2l0.1-0.2l0.1-0.1l0.1-0.2l0-0.1l0.1-0.1l0.1-0.2l0.1-0.1l0.1-0.2l0-0.1l0-0.1l0-0.1l0-0.1l0-0.1
		l0.1-0.2l0.1-0.2l0,0l0-0.2v-0.2l0-0.1l0-0.1l0-0.1l0-0.1v-0.2l0.1-0.2l0-0.2l0-0.2v0l0,0l0-0.1v-0.2L46.3,36.1z"/>
	<path d="M36.7,41.6l0.1,0.1l0.1,0l0,0l0.1-0.1l0,0l0,0l0.1-0.1l0.2-0.1l0.1-0.1l0.1-0.2l0.1-0.1l0.1-0.1l0.2-0.2v0l0,0l0.1-0.1
		l0.1-0.1l0,0l0.1-0.1l0.1-0.2l0.1-0.2l0.2-0.1l0.1-0.1l0.1-0.1l0.1-0.2l0.1-0.1l0.1-0.1l0.1-0.1l0.2-0.2l0.2-0.1l0.1-0.1l0.1-0.1
		l0.1-0.2l0.1-0.1l0.2-0.1l0.2-0.1l0.1-0.1l0.1,0l0.2-0.2l0.1-0.1l0,0l0.1-0.1l0.2-0.2l0.2-0.2l0.2-0.2l0,0l0.1-0.1l0.1-0.2l0.1-0.1
		l0.1,0l0.1-0.1l0.1-0.1l0.1-0.1l0.1-0.1l0,0l0.1-0.1l0,0l0.1-0.1l0.1-0.1l0.1-0.1l0.1-0.1l0.2-0.1l0-0.1l0.1,0l0.2-0.2l0.2-0.2
		l0.1-0.1l0.1-0.1l0,0l0.1-0.1l0.2-0.2l0,0l0.1-0.1l0.1-0.1l0.1-0.1l0.1-0.2l0.1-0.1l0,0l0.1-0.1l0.1-0.2l0.1,0l0.2-0.1l0.1-0.2
		l0.1-0.1l0.2-0.1l0.1-0.1l0.1-0.1l0.1-0.2l0.1-0.1l0.1-0.2l0.1-0.2l0-0.1l-0.1-0.2l-0.1-0.2l0,0l0-0.1l-0.1-0.2l-0.1-0.2l-0.1-0.1
		l0-0.1l-0.1-0.1L45,31.4l-0.1-0.2L44.8,31l-0.1-0.2l-0.1-0.2l-0.1-0.2l-0.1-0.2l-0.1-0.2l0,0v0L44.2,30l0,0l-0.1-0.2L44,29.6
		l-0.1-0.1l0-0.1l-0.2-0.1l-0.2,0.1l-0.1,0.1l0,0l0,0l0,0l-0.1,0.2l-0.1,0.1l-0.1,0.1l-0.1,0l-0.2,0.2l-0.2,0.2l0,0l0,0l-0.1,0.1
		l-0.1,0.1l0,0l-0.2,0.2L42,31l-0.1,0l-0.1,0.1l0,0l0,0l-0.1,0.1l-0.1,0.1l-0.1,0.1l-0.2,0.2l-0.1,0.1l-0.1,0.1L41,32.1l0,0
		l-0.2,0.1l-0.1,0.1l-0.1,0.2l0,0l0,0l-0.1,0.1l-0.1,0.1l0,0.1l0,0l-0.1,0.1L39.9,33l-0.1,0.1l-0.1,0.1l-0.2,0.1l-0.1,0.1l-0.1,0.1
		l-0.1,0.1l0,0l0,0l-0.2,0.2l0,0L39,34l0,0l-0.1,0.1l-0.2,0.2l-0.2,0.2l-0.1,0.1h0l-0.1,0.1l0,0l-0.1,0.1l-0.1,0.1L38,34.9l-0.1,0.1
		l0,0.1l0,0l-0.2,0.2l-0.2,0.2l0,0l-0.1,0.1l-0.1,0.2l0,0l-0.1,0.1l-0.2,0.2l0,0l-0.1,0.1l0,0.1l0,0l0,0.1v0l-0.1,0.2l0,0.1l0,0.2
		l0,0.3l0,0.2l0,0.1l0,0.1l0,0.2l0,0.1l0,0.1l0,0.2l0,0.1l0,0.1l0,0.2v0.1l0,0.1l-0.1,0.2l0,0.3v0v0v0.2v0l0,0.2v0.2v0.1v0.1l0,0.1
		l0,0.1l-0.1,0.2l0,0.2l0,0l0,0.1l0,0.3l0,0.3l0,0.2l0,0.1L36.7,41.6z"/>
	<path d="M35.4,40.9l0-0.1l0-0.1l0-0.1v-0.1l0-0.1l0-0.2l0-0.2v-0.2l0-0.2l0-0.1l0-0.2V39l0-0.1l0-0.1l0-0.2v-0.1v0v-0.3l0-0.2v-0.3
		l0-0.1v-0.1l0-0.2V37l0-0.1v-0.2l0,0v-0.2l-0.1-0.2L35.2,36L35,36L35,35.9l-0.1-0.1l0,0l-0.1-0.2l-0.2-0.1l-0.1-0.2l-0.2-0.1
		l-0.1-0.1L34.1,35L34,34.9l-0.1,0l-0.1-0.1l-0.1-0.1l0-0.1l-0.1-0.1l-0.1-0.1l-0.1-0.1l-0.2-0.1L33.1,34L33,33.9l-0.1-0.1l-0.1-0.1
		l-0.2-0.1l-0.2-0.1l-0.1-0.2l-0.1-0.1l0,0L32.1,33l-0.1-0.1l0,0l-0.1-0.2l0,0l-0.1-0.1l-0.2-0.2l-0.1-0.1l0,0l0,0l0,0l-0.2-0.2
		l-0.1,0l0,0L31,31.9l-0.1-0.2l-0.1,0l-0.1-0.2l-0.2-0.1l-0.1-0.1l0,0l-0.1-0.1L30.1,31l-0.2-0.2l0,0l-0.1-0.1l-0.1-0.1l-0.2-0.1
		l-0.1-0.2l-0.1-0.1l-0.1-0.2l0-0.1L29,29.9l-0.1-0.1l-0.1-0.1l-0.2-0.1l-0.1-0.1l-0.1-0.1l-0.1,0l-0.1,0l-0.1,0.1l-0.1,0l-0.1,0.2
		l0,0.2l-0.1,0.1l-0.1,0.1l-0.1,0.2l-0.1,0.2l0,0l-0.1,0.1l-0.1,0.2l0,0.1L27.2,31l-0.1,0.2l0,0L27,31.4l-0.1,0.2l0,0.1l0,0l0,0.1
		l-0.1,0.1l-0.1,0.2l-0.1,0.1l-0.1,0.2l-0.1,0.1l-0.1,0.2l-0.1,0.2l0.1,0.3l0.1,0.2l0.1,0.1l0.1,0.2l0.1,0.1l0.1,0.1l0.2,0.1
		l0.1,0.1l0,0l0.1,0.1l0.2,0.2l0.2,0.2l0.2,0.2l0.2,0.2l0.2,0.2l0.1,0.1l0.1,0.1l0.1,0.1l0.1,0.2l0.1,0l0,0.1l0.2,0.2l0.1,0.2
		l0.1,0.1l0.1,0.2l0.1,0.1l0.1,0.1l0,0l0,0l0.1,0.1l0.1,0.1l0.1,0.2l0.1,0.1l0.2,0.1l0.1,0.1l0.1,0.2l0.2,0.1l0.1,0.1l0.1,0.1
		l0.1,0.1l0.1,0.2l0,0l0.1,0.1l0.1,0.1l0.1,0.1l0.1,0.1l0,0.1l0,0l0.1,0.1l0.1,0.1l0,0l0.1,0.1l0.1,0.2l0.1,0.1l0.1,0.1l0.2,0.2l0,0
		l0.1,0.1l0.2,0.1l0,0l0.1,0.1l0.1,0.1l0.1,0.1l0.1,0.1l0.1,0.1l0.2,0.2l0.2,0.2l0.1,0.1l0,0.1l0.1,0.1l0.1,0.1l0.1,0.1l0,0l0.2,0.2
		l0,0l0.1,0.1l0.2,0.1l0,0l0.2,0.1l0,0l0.1,0.2l0.1,0.1l0.1,0.1l0.1,0.1l0,0l0.1,0.1l0.2,0.1l0,0.1l0.2,0.1l0.1-0.2v0l0-0.2l0-0.1v0
		v-0.1L35.4,40.9z"/>
	<path d="M19,49.3L19,49.3l0.1-0.1l0-0.1l0,0l0.2-0.2l0.1-0.1l0.1-0.1l0.1-0.1l0.1-0.1l0.2-0.1l0.1-0.1l0,0l0.2-0.2l0.1-0.1l0.1-0.1
		l0-0.1l0.2-0.2l0.2-0.2l0.2-0.2l0.1-0.1l0,0l0.1-0.1l0.1-0.1l0.1-0.1l0.1-0.2l0,0l0,0l0.1-0.1l0,0l0.1,0l0.2-0.2l0.2-0.2l0.2-0.2
		l0.1-0.1l0.1-0.1l0.1-0.2l0.1-0.1l0.1-0.1l0.1-0.1l0.2-0.2l0-0.1l0.1-0.1l0.1-0.1l0.1-0.2l0.2-0.1l0.1-0.1l0.1-0.1l0.1-0.2
		l-0.1-0.2l-0.2-0.1l-0.2-0.1L23.1,44h0L23,43.9l-0.2-0.1l0,0l0,0l-0.2-0.1l-0.1,0l0,0l-0.2-0.1l-0.2-0.1l-0.1,0l-0.1-0.1l-0.2-0.1
		l0,0l0,0l-0.2-0.1L21.3,43l-0.2-0.1l-0.1,0l-0.1-0.1l-0.2-0.1l-0.1,0l0,0l-0.2-0.1l-0.2-0.1l-0.3,0l-0.1,0.1l-0.1,0.1l-0.2,0.2
		L19.5,43l-0.1,0.1l-0.1,0.1l-0.1,0.2L19,43.5l-0.1,0.1l0,0l-0.2,0.2L18.5,44l-0.2,0.2l0,0l0,0l0,0l-0.1,0.1L18,44.6l-0.1,0.1l0,0
		l0,0l-0.2,0.2l-0.1,0.2l-0.2,0.1l-0.1,0.1l-0.1,0.1l0,0l-0.2,0.2l-0.2,0.2L16.5,46l-0.2,0.2l-0.1,0l-0.1,0.1L16,46.5l0,0l-0.1,0
		l-0.1,0.2l0,0l0,0l-0.2,0.1L15.6,47l-0.1,0.1l-0.2,0.2l-0.1,0.2l-0.1,0.1l-0.1,0.1l0,0l0,0l-0.2,0.2l-0.1,0.1L14.5,48l-0.1,0.1
		l-0.1,0l-0.2,0.2l-0.1,0.2L14,48.6l-0.1,0.1l-0.1,0.1l-0.1,0.1l0,0L13.6,49l-0.1,0.1l-0.1,0.1l0,0l0,0l-0.1,0.1l-0.2,0.2L13,49.6
		l0,0l-0.1,0.1l-0.1,0.1L12.6,50l-0.1,0.1l0,0l-0.1,0.1l-0.2,0.2l0,0l-0.1,0.1L12,50.5l-0.1,0.1l-0.1,0.1l-0.1,0.2l-0.1,0.1L11.5,51
		l0,0l0,0l0,0l-0.1,0.2v0.2l0.1,0.1v0h0.1l0.1,0l0.1,0l0.2,0l0.2,0h0.1l0.2,0l0.2,0h0.2l0.2,0l0.2,0h0.1h0.2l0.2,0h0.1l0.2,0h0
		l0.2,0.1l0.1,0h0l0.2,0l0.1,0l0.1,0h0.2l0.1,0l0.1,0l0.2,0h0.1l0.1,0l0.2,0l0.2-0.1h0.1l0.2,0h0.2l0.2,0l0.2-0.1l0,0l0.1,0l0,0
		l0.1,0l0.2-0.1l0.1-0.1l0.1-0.1l0,0l0.1-0.1l0.1-0.2l0.1-0.1l0.1-0.1l0.1-0.1l0.1-0.1l0.1-0.1l0.1-0.1l0.2-0.2l0.1-0.1l0.1-0.1
		l0.1-0.2l0.1-0.1l0.1-0.1l0.2-0.2L19,49.3z"/>
	<path d="M26,49.3l0.1-0.2l0.2-0.1l0.1-0.1l0,0l0.1-0.1l0.1-0.1l0,0l0.2-0.2l0.2-0.2l0.2-0.2l0.2-0.2l0.1-0.2l0.1-0.1l0.2-0.1
		l0.1-0.2l-0.1-0.2l0,0L27.6,47l-0.1-0.2l-0.1-0.1l0,0l-0.2-0.1l-0.2-0.2l-0.1,0l0,0l-0.2-0.1l-0.2-0.1l0,0L26.2,46l-0.1-0.1l0,0
		l0,0L26,45.9l-0.2-0.1l-0.2-0.2l0,0l-0.1-0.1l-0.1-0.1l-0.2-0.2h0l-0.1,0l-0.1,0.1h0l-0.1,0.1l-0.1,0.1l-0.1,0.1l-0.2,0.2l-0.1,0.1
		l-0.1,0.1L24.1,46L24,46.1l-0.1,0.1l-0.2,0.2l-0.1,0.1l0,0l-0.1,0.2l-0.1,0.1L23.1,47l0,0l0,0L23,47.3l-0.1,0.1l-0.1,0.1l-0.1,0.1
		l-0.2,0.2L22.3,48l0,0l-0.2,0.1L22,48.2l-0.2,0.1l-0.1,0.1l-0.2,0.1l-0.2,0.2l-0.1,0.1L21.2,49L21.2,49L21,49.2l-0.2,0.2l-0.1,0
		l0,0l-0.2,0.1l-0.2,0.2l-0.2,0.2l-0.1,0.2l0,0L20,50.2l-0.1,0.1l-0.1,0.1l-0.1,0.1l-0.1,0.1l-0.1,0l-0.1,0.1l0,0.1L19.3,51
		l-0.1,0.1l-0.1,0.1l-0.1,0.1l-0.1,0.2l0.2,0.1l0.1,0l0.2,0l0.1,0l0,0h0.2l0.2,0l0.1,0l0.2,0l0.2,0l0.1,0h0.2l0.2,0l0.1,0l0.1,0
		l0.3,0h0.1l0.1,0l0.2,0l0.2,0l0.2,0l0.2,0l0.2,0h0l0.1,0l0.1,0l0.2,0l0.2,0h0.1l0.1,0h0h0l0.2,0l0.1,0l0.2,0l0.2-0.1l0.1,0l0.1-0.2
		l0,0l0,0l0.1-0.1l0.1-0.1l0-0.1l0.1-0.1l0.1-0.2l0,0l0.2-0.1l0.2-0.1l0.1-0.1l0,0l0.2-0.2l0.2-0.2l0.1-0.1l0.1-0.1l0.1,0l0.1-0.1
		L26,49.3z"/>
	<path d="M32.6,51.3l-0.1-0.1l-0.1-0.1l-0.2-0.1l-0.1-0.1L32,50.7l-0.2-0.1l-0.1-0.1l-0.2-0.2l-0.2-0.2l-0.2-0.2l-0.2-0.2l-0.1-0.1
		l-0.1-0.1l-0.1-0.1l-0.2-0.2l-0.2-0.2l-0.1-0.1l0,0L30,49l0,0l-0.2-0.2l0,0l0,0l-0.2-0.1l-0.2-0.2l-0.1-0.1l-0.1-0.1l-0.2-0.1
		l-0.2,0.1l-0.1,0.2l-0.2,0.1l-0.1,0.1l-0.1,0l-0.1,0.1l-0.1,0.1L28.1,49L28,49l-0.2,0.1l-0.1,0.2l-0.1,0.2l-0.1,0.1l-0.1,0.1l0,0
		l-0.1,0.1l-0.1,0.2L27,50L27,50l0,0l-0.1,0.1l-0.1,0.2l-0.1,0.1l0,0l-0.2,0.2l-0.1,0.1l-0.1,0.1L26,50.9l-0.1,0.2l-0.1,0.1
		l-0.1,0.1l0,0l0,0.2l0.1,0.1l0,0l0.3,0l0.3,0l0.3,0h0.1l0.1,0l0.2,0h0.1h0.2l0.1,0h0.2H28h0h0.1l0.3,0l0.2,0h0.2h0.1l0.2,0l0.1,0
		h0.1h0l0.1,0l0.2,0l0.2,0l0.1,0l0.2,0l0.2,0l0.2,0l0.2,0l0.2,0h0h0l0.3,0l0.3,0h0.1l0.1,0h0.2h0l0.1,0l0.2,0h0.1l0.1-0.1L32.6,51.3
		z"/>
	<path d="M11.4,49.3l0.2-0.1l0.1-0.1l0.1-0.1l0.1-0.1l0.1-0.1l0.1-0.1l0.1-0.1l0.1-0.1l0-0.1l0.1-0.1l0.1-0.2l0.2-0.1l0-0.1l0,0
		l0.2-0.2l0.1-0.1l0,0l0.1-0.1l0.2-0.1l0.1-0.1l0.1-0.1l0.1-0.1l0.1-0.1l0.1-0.1l0,0l0,0l0.1-0.1l0.1-0.1l0.2-0.1l0.1-0.1l0.1-0.1
		l0.1-0.1l0.1-0.1l0.1-0.1l0.1-0.1l0.1-0.1l0.1-0.1l0,0l0.1-0.1l0.2-0.1l0.1-0.1l0.1-0.1l0.2-0.1l0.1-0.1l0.1-0.2l0.1-0.1l0.1-0.1
		l0.1-0.1l0.1-0.1l0,0l0,0l0.1-0.1l0.2-0.2l0.2-0.2l0,0l0.1-0.1l0.1-0.1l0.2-0.1l0.2-0.2l0.2-0.2l0.1,0l0.1-0.1l0.1-0.1l0.1-0.1
		l0.1-0.2l0.1-0.1l0.1-0.1l0.1-0.1l0.1-0.2l0,0l0.1-0.1l0.1-0.1l0.1-0.1l0.1-0.2l0,0l0,0L18.4,42l-0.2,0l-0.1,0h-0.1l-0.1,0l-0.2,0
		l-0.1,0l-0.1,0l-0.3,0l-0.3,0l0,0l0,0l-0.2,0h-0.2l-0.1,0l-0.2,0l0,0h0L16,42l-0.1,0l-0.3,0l-0.3,0l0,0l-0.1,0l-0.1,0.1l-0.2,0.1
		l-0.3,0.1l-0.1,0.1l-0.2,0l-0.1,0.1l0,0l-0.2,0H14l0,0l0,0l-0.2,0.1l-0.1,0l0,0l-0.1,0l-0.2,0.1l-0.1,0l-0.1,0l0,0l0,0L12.8,43l0,0
		l-0.2,0.1l-0.2,0.1l-0.2,0.1l0,0l-0.1,0.1l-0.2,0.2l-0.2,0.1l-0.1,0.1l-0.1,0l-0.1,0.1L11.2,44l-0.1,0.1L11,44.1l-0.1,0.2l-0.1,0.1
		l-0.1,0l-0.1,0.1l-0.2,0.2l-0.2,0.2L10.1,45L10,45.1l-0.1,0.1l-0.1,0.2l-0.1,0.1l0,0.1l0,0l-0.2,0.2l-0.1,0.1l0,0.1l-0.1,0.1
		l-0.1,0.1L9,46.3L9,46.4l-0.1,0.2l-0.1,0.2l-0.1,0.2l-0.1,0.2l0,0.1l-0.1,0.2l-0.1,0.2l-0.1,0.2l-0.1,0.1L8.1,48l0,0L8,48.2l0,0.1
		l0,0l0,0.1l0,0l-0.1,0.2l0,0l0,0.1l-0.1,0.2l-0.1,0.2l-0.1,0.3l-0.1,0.2l-0.1,0.2v0l0,0.1l0,0.2l0,0.1l-0.1,0.1l0,0.2l0,0.2v0.1
		l0,0.1l-0.1,0.3l0,0l0,0.1l0,0l0,0.1l0.1,0l0,0l0.1,0.1l0,0l0.3,0l0.1,0l0.2,0h0.3l0.1,0h0.1h0.2l0.1,0l0.1,0l0.1-0.1h0.1l0.2-0.1
		l0.2-0.1l0.1-0.1l0.1-0.1l0,0L9.7,51l0.1-0.1l0.2-0.1l0.1-0.1l0,0l0.1-0.1l0.1-0.1l0,0l0.2-0.2l0.2-0.2l0.1-0.2l0.1-0.1l0,0
		l0.1-0.1l0.1-0.1l0.1-0.1L11.4,49.3L11.4,49.3z"/>
</g>
</svg>
