<?xml version="1.0" encoding="utf-8"?>
<!-- Generator: Adobe Illustrator 28.1.0, SVG Export Plug-In . SVG Version: 6.00 Build 0)  -->
<svg version="1.1" id="Layer_1" xmlns="http://www.w3.org/2000/svg" xmlns:xlink="http://www.w3.org/1999/xlink" x="0px" y="0px"
	 viewBox="0 0 360 180" style="enable-background:new 0 0 360 180;" xml:space="preserve">
<path d="M296,69l11.4,20.7l4.8-20.7l11.8-0.5l-10.1,43h-18.4l-10.6-19.7l-4.6,19.7H266l10.1-43L296,69L296,69z M265.5,68.5l-10.5,43
	H238l10.5-43H265.5L265.5,68.5z M207.7,68.5l-4,15.6L220,68.5h18.3l-20.7,19.9l12,23.1h-18.2l-10-17.2l-4.7,17.2h-17.8l11-43H207.7
	L207.7,68.5z M180.1,68.5l-10.7,43h-17.5l10.7-43H180.1L180.1,68.5z M121.5,85.4l-7.7,10.2h10.3L121.5,85.4z M118,68.5h19.5
	l7.9,42.9h-17.7l-1.1-6.2h-16.9l-4.3,6.2H90.9L118,68.5z M63.8,79.1l-6.1,22.4h2.6c3.5,0,6.6-0.9,9.2-2.6c2.3-1.5,5.1-7.1,5.6-9.4
	c0.7-2.3,0.7-6.2-0.8-7.8c-1.6-1.6-4.2-2.5-7.9-2.5L63.8,79.1L63.8,79.1z M69.6,68.5c9.8,0,16.9,2.2,21.4,6.4
	c4,3.9,5.3,8.7,3.7,14.5c-1.6,5.9-4.6,12.1-10.9,16.4c-7,4.6-16.3,5.7-25.9,5.7H36l11.8-43L69.6,68.5L69.6,68.5z"/>
</svg>
