<?xml version="1.0" encoding="utf-8"?>
<!-- Generator: Adobe Illustrator 28.1.0, SVG Export Plug-In . SVG Version: 6.00 Build 0)  -->
<svg version="1.1" id="Layer_1" xmlns="http://www.w3.org/2000/svg" xmlns:xlink="http://www.w3.org/1999/xlink" x="0px" y="0px"
	 viewBox="0 0 72 72" style="enable-background:new 0 0 72 72;" xml:space="preserve">
<g>
	<path d="M36,7.2C20.1,7.2,7.2,20.1,7.2,36S20.1,64.8,36,64.8S64.8,51.9,64.8,36S51.9,7.2,36,7.2z M50.9,16.6L50.9,16.6L50.9,16.6
		l0.4-1.5l0.2,0.1c0.7,0.5,1.4,1.1,2.1,1.7l0.1,0.1l0,0.2l0,0c-0.2,0.7-1,1.1-1.7,0.9C51.2,18,50.8,17.3,50.9,16.6z M44.5,19.2
		L44.5,19.2c0.2-0.7,1-1.2,1.7-1c0.7,0.2,1.1,0.9,1,1.7v0v0l-1.5,5.5l-0.1-0.1c-0.7-0.5-1.5-1-2.2-1.4L43.2,24L44.5,19.2z
		 M39.5,13.1L39.5,13.1L39.5,13.1l0.7-2.6l0.2,0c0.8,0.1,1.6,0.3,2.3,0.5l0.2,0l-0.7,2.7v0c-0.2,0.7-1,1.1-1.7,0.9
		C39.8,14.5,39.3,13.7,39.5,13.1z M29,17.3L29,17.3L29,17.3l1.8-6.7l0.2,0c0.9-0.2,1.8-0.3,2.7-0.4c0,0.2,0,0.4,0,0.6v0v0L31.7,18
		l0,0c-0.2,0.7-1,1.1-1.7,0.9C29.3,18.7,28.9,18,29,17.3z M12.7,32.5c-0.2,0.7-1,1.1-1.7,0.9c-0.3-0.1-0.5-0.2-0.7-0.4
		c0.4-3.3,1.4-6.4,2.9-9.3l0.1-0.1h0c0.1,0,0.2,0,0.3,0c0.7,0.2,1.2,0.9,1,1.7v0v0L12.7,32.5L12.7,32.5z M18.5,36.3L18.5,36.3
		L18.5,36.3l-1.9,7.2v0c-0.2,0.7-1,1.1-1.7,0.9c-0.7-0.2-1.2-0.9-1-1.6v0v0l1.9-7.1v0c0.2-0.7,1-1.1,1.7-0.9
		C18.2,34.8,18.6,35.6,18.5,36.3z M19,26.7c-0.7-0.2-1.2-0.9-1-1.6v0v0l1.9-7.1v0c0.2-0.7,1-1.1,1.7-0.9c0.7,0.2,1.2,0.9,1,1.6v0v0
		l-1.9,7.1v0C20.5,26.5,19.7,26.9,19,26.7z M22.7,50.9L22.7,50.9c-0.2,0.7-1,1.2-1.7,1c-0.7-0.2-1.2-0.9-1-1.6v0v0l1.9-7.1v0
		l0.1-0.2c0.7,0.6,1.5,1.1,2.3,1.6l0.1,0.1L22.7,50.9z M28.5,55.2L28.5,55.2L28.5,55.2l-1.4,5.2L27,60.2c-0.8-0.3-1.5-0.6-2.2-1
		l-0.2-0.1l1.3-4.7v0c0.2-0.7,0.9-1.1,1.7-1h0C28.2,53.7,28.7,54.5,28.5,55.2z M36.4,51.6l0,0.2v0l-1.9,7.1v0
		c-0.2,0.7-1,1.1-1.7,0.9c-0.7-0.2-1.1-0.9-1-1.6v0v0l1.9-7.1v0c0.2-0.7,1-1.2,1.7-0.9c0.4,0.1,0.7,0.3,0.9,0.7l0,0l0,0.2l0.1,0.3
		L36.4,51.6L36.4,51.6z M55.1,53.5c-4,4.3-9.4,7.3-15.5,8.2l-0.2,0l0-0.4l-0.1-0.7L39.2,60l-0.1-0.7l-0.1-0.9l0-0.3l-0.1-0.8
		l-0.1-0.5l-0.1-0.6l-0.1-0.6L38.4,55l-0.1-0.6l-0.1-0.6l-0.1-0.5L38,52.8l-0.1-0.4L37.9,52l-0.1-0.7L37.7,51l-0.1-0.4l-0.1-0.3
		l0-0.3l0-0.3l0-0.2l-0.1-0.3l-0.1-0.5l0-0.2l0-0.2l0-0.2l0-0.2l0-0.2l0-0.1l0-0.2l0-0.2l0-0.1l0-0.1l0-0.1l0-0.2l0-0.1l0-0.1
		c0-0.1-0.1-0.3-0.2-0.4l0-0.1l0-0.1l0.2-0.7l-1,0h-0.3c-9.3,0.2-15.3-3.8-15.3-9.9c0-6.5,6.5-11.8,14.9-11.8c4,0,7.5,1.1,10.2,3.2
		c2.3,1.8,4,4.3,4.9,7l0,0.1l0,0.1l0,0.1l0,0.1l0.1,0.3l0.2,0.6l0.2,0.7l0.9,3.1l0.8,3.1l0.9,3.5l1.5,5.7l0.6,2.1L55.1,53.5z
		 M56.5,25.3L56.5,25.3L56.5,25.3l-1.9,7.2l0,0c-0.2,0.7-1,1.1-1.7,0.9c-0.7-0.2-1.2-0.9-1-1.6v0v0l1.9-7.1v0c0.2-0.7,1-1.1,1.7-0.9
		C56.2,23.8,56.7,24.5,56.5,25.3z M61.4,34.7L61.4,34.7l-1.9,7.1v0c-0.2,0.7-1,1.2-1.7,1c-0.7-0.2-1.2-1-1-1.7v0v0l1.9-7.1l0,0
		c0.2-0.7,1-1.1,1.7-0.9C61.1,33.2,61.5,34,61.4,34.7L61.4,34.7z"/>
	<circle cx="36.7" cy="30" r="1.8"/>
</g>
</svg>
