<?xml version="1.0" encoding="utf-8"?>
<!-- Generator: Adobe Illustrator 28.1.0, SVG Export Plug-In . SVG Version: 6.00 Build 0)  -->
<svg version="1.1"
	 id="svg2" xmlns:svg="http://www.w3.org/2000/svg" xmlns:cc="http://creativecommons.org/ns#" xmlns:dc="http://purl.org/dc/elements/1.1/" xmlns:rdf="http://www.w3.org/1999/02/22-rdf-syntax-ns#"
	 xmlns="http://www.w3.org/2000/svg" xmlns:xlink="http://www.w3.org/1999/xlink" x="0px" y="0px" viewBox="0 0 72 72"
	 style="enable-background:new 0 0 72 72;" xml:space="preserve">
<g>
	<path d="M64.1,24.2L47.9,8c-1.1-1.1-2.2-1.1-3.3,0L26.9,25.7l19.4,19.4l17.7-17.9C65,26.3,65.1,25.2,64.1,24.2z M46.2,30.5
		c-2.6,0-4.8-2.1-4.8-4.8s2.1-4.8,4.8-4.8s4.8,2.1,4.8,4.8S48.9,30.5,46.2,30.5z"/>
	<path d="M25.7,26.9L7.9,44.7c-0.9,0.9-1,2.1,0,3.1L24.1,64c1.1,1.1,2.2,1.1,3.3,0l17.7-17.7L25.7,26.9z M18.8,51.1
		c-2.6,0-4.8-2.1-4.8-4.8s2.1-4.8,4.8-4.8s4.8,2.1,4.8,4.8S21.4,51.1,18.8,51.1z M32.8,51.1c-2.6,0-4.8-2.1-4.8-4.8s2.1-4.8,4.8-4.8
		s4.8,2.1,4.8,4.8C37.6,48.9,35.4,51.1,32.8,51.1z"/>
</g>
</svg>
