<?xml version="1.0" encoding="utf-8"?>
<!-- Generator: Adobe Illustrator 28.1.0, SVG Export Plug-In . SVG Version: 6.00 Build 0)  -->
<svg version="1.1" id="Layer_1" xmlns="http://www.w3.org/2000/svg" xmlns:xlink="http://www.w3.org/1999/xlink" x="0px" y="0px"
	 viewBox="0 0 72 72" style="enable-background:new 0 0 72 72;" xml:space="preserve">
<g>
	<path d="M36,64.8c15.9,0,28.8-12.9,28.8-28.8S51.9,7.2,36,7.2S7.2,20.1,7.2,36S20.1,64.8,36,64.8z M36,60c-5.5,0-10.6-1.8-14.6-4.9
		c2.5-3.4,9.7-12.4,19.1-14.8c2.2,5.5,4,11.5,4.9,17.8C42.5,59.3,39.3,60,36,60z M49.8,55.6c-1-5.7-2.5-11.2-4.4-16.2
		c1.9-0.2,3.7-0.3,5.2-0.3c4.3,0,7.3,0.6,9,1.1C58.5,46.6,54.9,52.1,49.8,55.6z M55.1,21.5c2.9,3.9,4.7,8.7,4.9,13.9
		c-2.1-0.5-5.3-1-9.4-1c-2.1,0-4.5,0.1-7.1,0.4c-0.6-1.4-1.2-2.7-1.9-4c5.4-2.1,9.1-4.8,11.5-7.1C53.9,23,54.6,22.2,55.1,21.5z
		 M36,12c6.1,0,11.6,2.3,15.8,6c-0.4,0.6-1.1,1.4-2,2.3c-2.1,2-5.3,4.4-10.3,6.2c-3.4-6.3-6.7-11-8.9-14C32.3,12.2,34.1,12,36,12z
		 M25.8,14.2c2,2.6,5.5,7.4,9,13.7c-9.8,2.6-18.7,2.9-22.3,2.9C14.1,23.5,19.1,17.4,25.8,14.2z M12,35.7c3.2,0,13.6-0.2,25-3.4
		c0.5,1.1,1.1,2.3,1.6,3.4C28.4,38.6,21,47.3,17.9,51.7C14.2,47.5,12,42,12,36C12,35.9,12,35.8,12,35.7z"/>
</g>
</svg>
