<?xml version="1.0" encoding="utf-8"?>
<!-- Generator: Adobe Illustrator 28.1.0, SVG Export Plug-In . SVG Version: 6.00 Build 0)  -->
<svg version="1.1" id="Layer_1" xmlns="http://www.w3.org/2000/svg" xmlns:xlink="http://www.w3.org/1999/xlink" x="0px" y="0px"
	 viewBox="0 0 72 72" style="enable-background:new 0 0 72 72;" xml:space="preserve">
<g>
	<path d="M36,7.2c15.9,0,28.8,12.9,28.8,28.8l0,0v0c0,15.9-12.9,28.8-28.8,28.8C20.1,64.8,7.2,51.9,7.2,36C7.2,20.1,20.1,7.2,36,7.2
		z M35.9,14.6c-0.8,3-3.5,5.7-6.3,8.4c-4.2,4.2-8.9,8.9-8.9,16c0,8.4,6.8,15.2,15.2,15.2c8.4,0,15.2-6.8,15.2-15.2
		c0-7.1-4.7-11.9-8.9-16l0,0l-0.4-0.4C39.1,20,36.6,17.5,35.9,14.6z M36.1,37.3c1.7,1.9,2.8,3.1,4,4.5c0.1,0.1,0.2,0.2,0.2,0.3
		c1.4,2,1.2,4.7-0.5,6.6c-2,2.1-5.3,2.3-7.4,0.3c-2.1-2-2.3-5.3-0.3-7.4C33.2,40.3,34.6,39,36.1,37.3z M29.1,30.4l0.7,0.7l3.4,3.5
		c0.1,0.1,0.1,0.4,0,0.5l0,0L29.7,39l-1.2,1.5c-0.5,0.6-0.9,1.2-1.2,1.9c0,0.1-0.1,0.2-0.3,0.2l0,0h-0.1c-0.3,0-0.7-0.7-0.7-0.7l0,0
		l-0.1-0.1c-0.1-0.1-0.2-0.3-0.2-0.4l0,0l-0.1-0.1c-0.5-1.6-0.5-3.3-0.1-4.9l0,0l0-0.2c0.4-1.3,1-2.6,1.8-3.7
		C28,31.8,28.5,31.1,29.1,30.4L29.1,30.4z M35.9,23.3c0.9,1,1.9,2.1,2.9,3l0,0l0,0.1c2,1.9,3.8,3.9,5.4,6.2c1.4,1.9,2.1,4.2,2.1,6.5
		c0,1-0.2,2-0.5,3l0,0l0,0c-0.1,0.2-0.3,0.3-0.5,0.4l0,0h-0.1c-0.2-0.1-0.4-0.2-0.5-0.4l0,0l-0.2-0.2c-0.9-1.3-1.8-2.5-2.9-3.6l0,0
		l-1.4-1.5L35.7,32c-0.8-0.8-2.2-2.1-2.8-2.8c0,0,0-0.1-0.1-0.1c-0.2-0.2-0.3-0.5-0.4-0.7l0,0v-0.1c-0.1-0.5,0-1,0.2-1.4
		c0.1-0.3,0.3-0.5,0.5-0.7C34.1,25.2,35,24.3,35.9,23.3z"/>
</g>
</svg>
