<?xml version="1.0" encoding="utf-8"?>
<!-- Generator: Adobe Illustrator 28.1.0, SVG Export Plug-In . SVG Version: 6.00 Build 0)  -->
<svg version="1.1"
	 id="Layer_1" xmlns:svg="http://www.w3.org/2000/svg" xmlns:sodipodi="http://sodipodi.sourceforge.net/DTD/sodipodi-0.dtd" xmlns:inkscape="http://www.inkscape.org/namespaces/inkscape" xmlns:cc="http://creativecommons.org/ns#" xmlns:dc="http://purl.org/dc/elements/1.1/" xmlns:rdf="http://www.w3.org/1999/02/22-rdf-syntax-ns#"
	 xmlns="http://www.w3.org/2000/svg" xmlns:xlink="http://www.w3.org/1999/xlink" x="0px" y="0px" viewBox="0 0 360 180"
	 style="enable-background:new 0 0 360 180;" xml:space="preserve">
<sodipodi:namedview  bordercolor="#666666" borderopacity="1" gridtolerance="10" guidetolerance="10" id="namedview45" inkscape:current-layer="Layer_1" inkscape:cx="314.50621" inkscape:cy="86.046799" inkscape:pageopacity="0" inkscape:pageshadow="2" inkscape:window-height="933" inkscape:window-maximized="1" inkscape:window-width="1680" inkscape:window-x="0" inkscape:window-y="1" inkscape:zoom="1.8266925" objecttolerance="10" pagecolor="#ffffff" showgrid="false">
	</sodipodi:namedview>
<g>
	<path id="path5" inkscape:connector-curvature="0" d="M152.3,92.7c-0.2,0.3-0.1,0.6-0.1,0.9c0,4.4,0,8.7,0,13
		c0,1.2-0.1,2.4-0.5,3.5c-1.1,3.7-4.2,6-8.1,5.7c-4.8-0.3-7.5-3.2-7.9-8.3c0-0.5,0-1,0-1.5c0-11.2,0-22.3,0-33.5
		c0-3.5,1.3-6.2,4.6-7.6c3.4-1.4,6.6-0.9,9.4,1.6c1.5,1.3,2.6,3.1,3.8,4.8c3.7,5.1,7.7,10,11.2,15.3c0.4,0.5,0.7,1.1,1.2,1.6
		c0-0.3,0-0.6,0-0.9c0-4.6,0-9.3,0-13.9c0-1.9,0.3-3.8,1.3-5.4c1.8-3.1,4.6-4,8-3.7c3.9,0.4,6.5,3,7.1,7c0.1,0.9,0.2,1.8,0.2,2.7
		c0,11.2,0,22.4,0,33.6c0,3.5-1.2,6.2-4.4,7.6c-3.5,1.5-6.8,0.9-9.6-1.6c-1.8-1.6-3.1-3.6-4.5-5.5c-3.9-5-8.1-9.8-11.4-15.2
		C152.4,92.8,152.4,92.8,152.3,92.7z"/>
	<path id="path7" inkscape:connector-curvature="0" d="M273.4,92.8c0,0.3,0,0.6,0,0.9c0,4.7,0,9.4-0.1,14.1c0,1.3-0.4,2.6-1,3.8
		c-1.4,2.8-4.4,4.4-7.6,4.2c-4.7-0.4-7.5-3.3-7.8-8c0-0.3,0-0.5,0-0.8c0-11.8,0-23.5,0-35.3c0-3,1.4-5.3,4.1-6.6
		c3.1-1.4,6-1.2,8.9,0.6c0.9,0.5,1.6,1.3,2.2,2c4.5,6.1,9.2,12.1,13.5,18.4c0.5,0.7,0.9,1.4,1.5,2.4c0-0.5,0-0.9,0-1.2
		c0-4.7,0-9.5,0-14.2c0-2.2,0.5-4.4,2-6.2c2.2-2.7,5.2-3.1,8.3-2.5c3,0.6,4.8,2.6,5.7,5.4c0.4,1.3,0.5,2.7,0.5,4.1
		c0,11.2,0,22.5,0,33.7c0,3.4-1.3,6.2-4.4,7.5c-3.3,1.4-6.5,1-9.3-1.3c-0.4-0.4-0.9-0.8-1.3-1.3c-4.5-5.8-9.3-11.4-13.5-17.4
		C274.5,94.4,274,93.6,273.4,92.8C273.6,92.8,273.5,92.8,273.4,92.8L273.4,92.8z"/>
	<path id="path9" inkscape:connector-curvature="0" d="M51.9,65.2c2.9,0,6.2-0.2,9.5,0.4c9.1,1.7,16.1,6.3,19.3,15.2
		c3.3,9.2,2.2,18-4.3,25.6c-4,4.7-9.4,7.2-15.4,8c-5.6,0.8-11.2,0.3-16.8,0.4c-0.3,0-0.5-0.1-0.8-0.1c-4.4-0.8-7.5-4.4-7.5-8.8
		c0-10.6,0-21.2,0-31.7c0-5,3.8-8.9,8.8-9C47,65.2,49.3,65.2,51.9,65.2z M52.5,90c0,2.7,0,5.4,0,8.2c0,0.4,0,0.8,0.6,0.8
		c1.8,0,3.5,0.1,5.2-0.1c4.6-0.5,7.6-4,7.7-8.8c0-4.7-3-8.3-7.6-8.8c-1.7-0.2-3.4,0-5.1-0.1c-0.6,0-0.8,0.2-0.8,0.8
		C52.5,84.6,52.5,87.3,52.5,90z"/>
	<path id="path11" inkscape:connector-curvature="0" d="M204.6,79.7c3-3.8,6-7.5,8.9-11.2c1.7-2.2,3.6-3.7,6.4-4
		c4.9-0.5,9.5,4,9.2,8.8c-0.2,2.2-1.1,4.1-2.5,5.8c-2.8,3.4-5.7,6.7-8.6,10c-0.4,0.5-0.4,0.8,0,1.2c3.1,3.4,6.1,6.9,9.2,10.3
		c1.7,1.9,2.6,4,2.5,6.5c-0.2,5.4-5.6,9.6-10.6,8.1c-1.7-0.5-3.1-1.5-4.2-2.9c-3.2-4-6.6-7.9-9.7-11.9c-0.1-0.2-0.3-0.4-0.4-0.6
		c-0.3,0.2-0.2,0.4-0.2,0.6c0,2.4,0,4.7,0,7.1c-0.1,4.8-3.5,8.2-8.2,8.1c-4.7,0-8.2-3.4-8.2-8.1c0-11.8,0-23.7,0-35.5
		c0-4.8,3.6-8.1,8.3-8.1c4.7,0,8,3.3,8.2,8.1C204.6,74.7,204.6,77.2,204.6,79.7L204.6,79.7z"/>
	<path id="path13" inkscape:connector-curvature="0" d="M130.1,85.3c0,3.2,0.1,7.3-0.1,11.3c-0.5,9.9-8,17.8-17.8,19
		c-4.4,0.5-8.7,0.3-12.8-1.4c-7.4-3-11.4-8.6-12.5-16.4c-0.1-1-0.2-2-0.2-3.1c0-7.4,0-14.8,0-22.2c0-4.9,3.5-8.4,8.3-8.4
		c4.8,0,8.2,3.5,8.2,8.6c0,7,0,14,0,20.9c0,2.3,0.8,4.2,3,5.3c3.4,1.7,7.1-0.7,7.5-4.6c0-0.5,0-1,0-1.5c0-6.8,0-13.6,0-20.4
		c0-4.4,3-7.8,7.4-8.3c4.3-0.4,8,2.2,8.9,6.5c0.1,0.7,0.2,1.3,0.2,2.1C130.1,76.7,130.1,80.6,130.1,85.3L130.1,85.3z"/>
	<path id="path15" inkscape:connector-curvature="0" d="M234.8,90c0-5.9,0-11.7,0-17.6c0-3.4,1.5-6.1,4.7-7.4c3.3-1.4,6.5-1,9.2,1.4
		c1.7,1.4,2.5,3.4,2.5,5.6c0,12.1,0.1,24.1,0,36.2c0,4.5-3.8,7.9-8.3,7.8c-4.7-0.1-8.1-3.4-8.1-8C234.8,101.9,234.8,95.9,234.8,90
		L234.8,90z"/>
	<path id="path17" inkscape:connector-curvature="0" d="M308.6,76.1c0-2,0-4,0.4-6c0.9-4.1,4.4-6.5,8.6-5.8c4.1,0.6,6.7,4,6.3,8.1
		c-0.4,3.4-1.3,6.7-2.7,9.8c-0.8,1.8-2,3.3-4,4c-3.2,1.1-6.6-0.5-7.8-3.7C308.7,80.5,308.6,78.3,308.6,76.1L308.6,76.1z"/>
</g>
</svg>
