<?xml version="1.0" encoding="utf-8"?>
<!-- Generator: Adobe Illustrator 28.1.0, SVG Export Plug-In . SVG Version: 6.00 Build 0)  -->
<svg version="1.1" id="Layer_1" xmlns="http://www.w3.org/2000/svg" xmlns:xlink="http://www.w3.org/1999/xlink" x="0px" y="0px"
	 viewBox="0 0 360 180" style="enable-background:new 0 0 360 180;" xml:space="preserve">
<path d="M236.65,103.6c1.72-1.23,3.59-2.66,5.33-4.03c13.41-10.73,23.65-22.49,25.68-28.99c0.06-0.21,0.24-0.82,0.24-1.29
	c0-0.67-0.32-1.14-0.93-1.14c-6.16,0-25.91,19.67-30.68,35.59v0.06L236.65,103.6z M187.15,101.34
	c18.67-14.1,38.28-34.64,40.38-43.06c0.06-0.27,0.12-0.54,0.12-0.8c-0.03-0.56-0.33-1.05-1.04-1.05
	C220.7,56.42,193.34,81.66,187.15,101.34 M72.52,113.73c-4.93-3.42-12.55-6.41-19.36-6.41c-6.6,0-10.83,2.6-10.83,5.87
	c0,3.76,5.13,5.4,10.87,5.4C60.15,118.6,66.47,116.72,72.52,113.73 M129.71,69.5c13.39-4.29,26.08-13.26,35.55-22.63
	c8.75-8.67,15.75-18.96,15.75-24.06c0-1.16-0.83-1.86-1.89-1.86c-4.05,0-11.74,5.38-22.08,15.74
	C148.99,44.75,139.6,55.78,129.71,69.5 M328.93,101.85c-11.49,11.44-47.31,42.88-56.79,69.33l-11.74-3.03
	c3.84-10.96,15.4-28,28.27-41.14c-2.74,1.03-5.6,1.42-7.89,1.42c-3.48,0-6.18-1.05-7.81-3.02c-1.16-1.42-1.76-3.27-1.76-5.48
	c0-0.48,0.03-0.96,0.1-1.51c-11.31,6.89-20.4,10-29.31,10c-6.93,0-12.77-3.02-15.47-8.32c-11.23,5.57-21.99,8.32-30.99,8.32
	c-8.38,0-15.13-3.32-18.23-9.36c-11.35,6.38-21.01,9.36-28.69,9.36c-4.42,0-7.93-1.23-10.18-3.55c-1.66-1.71-2.53-4.01-2.66-6.67
	c-7.28,4.8-17.91,10.22-28.8,10.22c-11.15,0-18.62-3.83-24.43-7.62c-9.26,5.13-19.44,7.62-30.21,7.62
	c-8.14,0-21.27-3.39-21.27-15.05c-0.02-9.42,9.81-15.8,22.96-15.8c11.18,0,21.95,4.71,28.71,9.6c6.41-5.11,13.15-12.26,21.09-22.36
	c-1.75,0.1-3.45,0.15-5.13,0.15c-15.21,0-27.9-4.48-34.84-12.33c-3.74-4.24-5.52-9.22-5.52-14.57c0-21.15,26.72-37.57,50.1-39.99
	c1.54,3.5,2.92,6.2,4.35,9.41C89.7,30.17,70.46,43.84,70.46,57.19c0,8.78,9.87,17.6,30.81,17.6c3.59,0,7.19-0.35,10.74-0.83
	c18.49-25.52,46.82-65.15,71.2-65.15c7.21,0,10.99,4.39,10.99,10.25c0,12.07-10.38,25.05-17.14,31.83
	c-10.62,10.67-29.84,26.55-56.67,31.81c-10.44,14.52-19.02,24.15-27.6,31.11c5.2,2.8,10.08,4.53,15.89,4.53
	c14.44,0,28.46-13.22,39.4-24.43l0.39-0.37l8.53,6.67l-0.39,0.47c-4.84,5.55-9.3,11.41-9.3,14.7c0,2.49,2.11,2.98,3.92,2.98
	c5.53,0,14.06-3.58,24.09-9.75v-0.08c1.11-24.79,34.94-62.71,55.48-62.71c5.8,0,9.13,2.89,9.13,7.95
	c0,12.43-21.44,39.07-52.63,59.47v0.02c1.61,3.47,5.33,5.14,11.63,5.14c4.92,0,14.54-2.19,25.98-8.17
	c1.32-12.84,8.6-26.64,17.84-36.47c9.26-9.84,19.64-16.24,28.62-16.24c5.53,0,8.8,3.04,8.8,7.83c0,10.84-12.59,29.37-42.91,48.78
	c1.34,2.6,3.95,4.24,8,4.24c9.03,0,24.94-9.64,37.33-21.48l8.9,6.91c-3.8,4.61-7.64,9.68-7.52,12.59c0.03,0.95,0.67,1.58,2.17,1.58
	c9.13,0,23.51-12.06,34.29-22.7L328.93,101.85 M163.61,76.99c4.03,0,7.29,3.27,7.29,7.3c0,4.03-3.26,7.3-7.29,7.3
	c-4.05,0-7.32-3.27-7.32-7.3C156.3,80.26,159.57,76.99,163.61,76.99"/>
</svg>
