<?xml version="1.0" encoding="utf-8"?>
<!-- Generator: Adobe Illustrator 28.1.0, SVG Export Plug-In . SVG Version: 6.00 Build 0)  -->
<svg version="1.1"
	 id="svg2" xmlns:svg="http://www.w3.org/2000/svg" xmlns:cc="http://creativecommons.org/ns#" xmlns:dc="http://purl.org/dc/elements/1.1/" xmlns:rdf="http://www.w3.org/1999/02/22-rdf-syntax-ns#"
	 xmlns="http://www.w3.org/2000/svg" xmlns:xlink="http://www.w3.org/1999/xlink" x="0px" y="0px" viewBox="0 0 360 180"
	 style="enable-background:new 0 0 360 180;" xml:space="preserve">
<g id="g3891" transform="matrix(0.0960355,0,0,0.0960355,1.5004145,-2.1827585)">
	<path id="path8" d="M1931,774.7c-84.3,6.7-145.1,58.9-161.7,139c-4,18.8-4.7,26.6-4.7,50.8c0,23.4,0.6,30.7,4.1,48.6
		c7,35.4,26.5,70,51.5,91.9c24.6,21.4,54.4,34.5,89.4,39.1c13.2,1.7,39.3,1.7,51.4,0c25.6-3.6,48.6-12.8,64.6-25.8
		c4.2-3.4,7.6-5.8,7.7-5.5c0,0.4,0.7,5.9,1.5,12.4l1.5,11.7l42.1,0.3l42,0.2v-100.4V936.7h-82.8h-82.8v43.2v43.2h22.9
		c15.6,0,22.9,0.3,22.9,1c0,0.4-3.1,4-6.9,7.8c-8,8-17.9,13.5-28.6,16c-9.4,2.2-25.5,1.4-35.2-1.8c-27.5-8.8-41.7-37-41.8-83
		c-0.1-44.8,14.1-78.5,37.3-88.6c9.7-4.1,25.4-5.2,36.4-2.3c17.3,4.4,30.3,17.6,35.6,35.8l1.4,5.2h59.4h59.3l-0.4-2.1
		c-0.3-1.1-1.3-6.5-2.4-11.9c-2.7-14.2-7.2-27.1-13.9-40.5c-22.9-46-66-75.1-122.4-82.7C1965.9,774.4,1943.6,773.7,1931,774.7
		L1931,774.7z"/>
	<path id="path10" d="M3092.2,774.7c-60.7,4.2-104.4,27.7-123.8,66.6c-14.8,29.3-13.9,73.4,1.9,99.4c6.8,11.3,19.8,24.3,32.8,32.9
		c7.2,4.9,24.8,13.4,36,17.5c5,1.8,25.4,7.5,45.4,12.5c52.8,13.4,63.7,17.5,68,25.8c2.2,4.2,1.3,10.9-2,14.3
		c-5.9,6.2-18.8,9.8-34.9,9.8c-25.1,0-41.7-10.9-45.5-30l-1-5.1h-59.5H2950l0.6,9.1c2.8,42.8,29,78.8,72.8,99.8
		c27.1,13,50.8,18,85.4,18c59,0,104.9-14.8,133.1-43.1c15.6-15.6,24.4-31.6,29.2-52.9c2-8.5,2.8-34.1,1.4-43.6
		c-2.9-19.5-12.6-38.1-27.5-52c-20.7-19.3-47-30.5-105.2-44.6c-42.1-10.3-59.1-17.8-61.7-27.4c-1.9-7,1.9-11.6,11.4-13.9
		c17.6-4.3,38.2-1.3,47.5,6.8c4.9,4.3,6.8,7.6,8.1,14.2l1.1,4.9l59,0.3l59.1,0.2v-2.6c0-8.8-5.3-29.3-11.1-42.4
		c-7.9-18.3-24.4-37.9-41.1-49c-19.2-12.9-45.4-21.9-71.5-24.7C3128.2,774.4,3105,773.9,3092.2,774.7L3092.2,774.7z"/>
	<path id="path12" d="M359.2,959.7v176.8h62.1h62.1v-59.8v-59.8h61.2h61.2v-45.9V925h-61.2h-61.2v-25.2v-25.2h76.9h76.9v-45.9v-45.9
		h-139h-139V959.7z"/>
	<path id="path14" d="M686.8,959.7v176.8h62.1H811V959.7V782.8h-62.1h-62.1V959.7z"/>
	<path id="path16" d="M854.5,784.8c0.3,1.2,27.4,80.7,60.2,176.8l59.7,174.9h60.8h60.8l60.8-175.3c33.4-96.4,61-175.9,61.4-176.8
		c0.6-1.4-2.7-1.5-62.7-1.5h-63.4l-28.3,103.5c-15.5,56.9-28.4,103.5-28.7,103.5s-12.4-45.3-26.9-100.6
		c-14.6-55.3-26.8-101.9-27.3-103.5l-0.8-2.9H917h-63L854.5,784.8L854.5,784.8z"/>
	<path id="path18" d="M1260.1,959.7v176.8h148.5h148.5v-45.9v-45.9h-86.4h-86.4V1024v-20.7h70.6h70.6v-45.9v-45.9H1455h-70.6v-18.4
		v-18.4h83.2h83.2v-45.9v-45.9h-145.3h-145.3V959.7z"/>
	<path id="path20" d="M2183.8,895.9c0.3,120.8,0.2,117.6,4.8,140.2c3.5,17.6,11.8,38,21.1,52c6.3,9.5,18.9,22.5,28.5,29.3
		c14.4,10.3,33.7,18.4,53.8,22.4c22,4.6,28.9,5.1,62.1,5c28,0,32.9-0.2,44.1-2c39.2-6.2,65.1-17.7,85.6-38.3
		c20.5-20.6,31.2-44.1,37.5-82.9c1.8-11.4,1.9-14.7,2.2-125.4l0.4-113.6h-62.1h-62.1l-0.4,114c-0.3,103.2-0.4,114.7-1.8,120.2
		c-4.2,17.1-13.6,27.2-28.6,30.8c-12.2,2.8-31.7,1.3-40.6-3.2c-5.5-2.8-12.1-9.4-14.7-14.7c-5.5-11.2-5.3-6.2-5.6-132.2l-0.4-114.9
		h-62.1h-62.1L2183.8,895.9L2183.8,895.9z"/>
	<path id="path22" d="M2552.5,783.3c0,0.3,29.6,51,65.7,112.8l65.7,112.4v64v64.1h62.1h62.1v-65v-64.9l65.7-111.4
		c36.2-61.2,65.7-111.6,65.7-111.9s-31-0.4-68.9-0.4l-69,0.3l-27.1,53.3c-14.8,29.3-27.3,53.4-27.5,53.4c-0.3,0-12.6-24-27.4-53.4
		l-27-53.3l-69.9-0.3C2584,782.9,2552.5,783,2552.5,783.3L2552.5,783.3z"/>
	<path id="path3865" d="M3315.9,789.2c7.2,0,14.2,1.8,20.8,5.4c6.6,3.6,11.9,8.7,15.7,15.5c3.8,6.7,5.7,13.7,5.7,21.1
		c0,7.3-1.9,14.2-5.6,20.9c-3.7,6.6-8.9,11.8-15.6,15.5c-6.7,3.7-13.7,5.6-21,5.6c-7.3,0-14.3-1.9-21-5.6
		c-6.7-3.7-11.9-8.9-15.6-15.5c-3.7-6.6-5.6-13.6-5.6-20.9c0-7.3,1.9-14.3,5.7-21.1c3.8-6.7,9-11.9,15.7-15.5
		C3301.7,791,3308.7,789.2,3315.9,789.2L3315.9,789.2z M3316,797.4c-5.8,0-11.4,1.4-16.7,4.3c-5.3,2.9-9.5,7-12.6,12.4
		c-3.1,5.4-4.6,11-4.6,16.9c0,5.9,1.5,11.5,4.5,16.8c3,5.3,7.2,9.5,12.5,12.5c5.4,3,11,4.5,16.9,4.5c5.9,0,11.5-1.5,16.9-4.5
		c5.3-3,9.5-7.1,12.5-12.5c3-5.3,4.5-10.9,4.5-16.8c0-5.9-1.5-11.6-4.6-16.9c-3.1-5.4-7.3-9.5-12.6-12.4S3321.8,797.4,3316,797.4
		L3316,797.4z M3296.9,853.5V809h9.1c8.5,0,13.3,0,14.3,0.1c3,0.3,5.3,0.8,7,1.8c1.7,0.9,3.1,2.4,4.2,4.3c1.1,1.9,1.7,4,1.7,6.4
		c0,3.2-1.1,6-3.2,8.2c-2.1,2.3-5.1,3.7-8.9,4.2c1.4,0.5,2.4,1.1,3.1,1.7s1.7,1.7,3,3.4c0.3,0.4,1.4,2.2,3.3,5.4l5.3,9h-11.2
		l-3.7-7.2c-2.5-4.8-4.6-7.9-6.3-9.2c-1.7-1.3-3.7-1.9-6.3-1.9h-2.4v18.3L3296.9,853.5z M3305.9,828.2h3.7c5.2,0,8.5-0.2,9.8-0.6
		c1.3-0.4,2.3-1.1,3-2.1s1.1-2.1,1.1-3.4c0-1.2-0.4-2.3-1.1-3.3c-0.7-1-1.7-1.7-3.1-2.1c-1.3-0.4-4.6-0.6-9.7-0.6h-3.7L3305.9,828.2
		z"/>
</g>
</svg>
