<?xml version="1.0" encoding="utf-8"?>
<!-- Generator: Adobe Illustrator 28.1.0, SVG Export Plug-In . SVG Version: 6.00 Build 0)  -->
<svg version="1.1"
	 id="svg2" xmlns:svg="http://www.w3.org/2000/svg" xmlns:sodipodi="http://sodipodi.sourceforge.net/DTD/sodipodi-0.dtd" xmlns:inkscape="http://www.inkscape.org/namespaces/inkscape" xmlns:cc="http://creativecommons.org/ns#" xmlns:dc="http://purl.org/dc/elements/1.1/" xmlns:rdf="http://www.w3.org/1999/02/22-rdf-syntax-ns#"
	 xmlns="http://www.w3.org/2000/svg" xmlns:xlink="http://www.w3.org/1999/xlink" x="0px" y="0px" viewBox="0 0 72 72"
	 style="enable-background:new 0 0 72 72;" xml:space="preserve">
<defs>
	
		<inkscape:perspective  id="perspective41" inkscape:persp3d-origin="121.25 : 80.833333 : 1" inkscape:vp_x="0 : 121.25 : 1" inkscape:vp_y="0 : 1000 : 0" inkscape:vp_z="242.5 : 121.25 : 1" sodipodi:type="inkscape:persp3d">
		</inkscape:perspective>
</defs>
<sodipodi:namedview  bordercolor="#666666" borderopacity="1.0" gridtolerance="10.0" guidetolerance="10.0" id="base" inkscape:current-layer="svg2" inkscape:cx="-0.40702423" inkscape:cy="9.9095772" inkscape:pageopacity="0.0" inkscape:pageshadow="2" inkscape:window-height="667" inkscape:window-width="640" inkscape:window-x="611" inkscape:window-y="368" inkscape:zoom="10.777182" objecttolerance="10.0" pagecolor="#ffffff" showgrid="false">
	</sodipodi:namedview>
<path d="M9.8,33.4h23.6v-5.2H14.9V12.4h13.2v5.1H23V23h10.4V7.2H9.8L9.8,33.4L9.8,33.4z M62.2,33.4H38.5v-5.2h18.6V12.4H43.9v5.1H49
	V23H38.6V7.2h23.6L62.2,33.4L62.2,33.4z M9.8,38.6h23.6v5.2H14.9v15.8h13.2v-5.1H23V49h10.4v15.8H9.8L9.8,38.6L9.8,38.6z M62.2,38.6
	H38.5v5.2h18.6v15.8H43.9v-5.1H49V49H38.6v15.8h23.6L62.2,38.6L62.2,38.6z"/>
</svg>
