<?xml version="1.0" encoding="utf-8"?>
<!-- Generator: Adobe Illustrator 28.1.0, SVG Export Plug-In . SVG Version: 6.00 Build 0)  -->
<svg version="1.1"
	 id="svg66946" xmlns:cc="http://creativecommons.org/ns#" xmlns:dc="http://purl.org/dc/elements/1.1/" xmlns:rdf="http://www.w3.org/1999/02/22-rdf-syntax-ns#" xmlns:inkscape="http://www.inkscape.org/namespaces/inkscape" xmlns:sodipodi="http://sodipodi.sourceforge.net/DTD/sodipodi-0.dtd" xmlns:svg="http://www.w3.org/2000/svg"
	 xmlns="http://www.w3.org/2000/svg" xmlns:xlink="http://www.w3.org/1999/xlink" x="0px" y="0px" viewBox="0 0 180 180"
	 style="enable-background:new 0 0 180 180;" xml:space="preserve">
<g>
	
		<sodipodi:namedview  bordercolor="#666666" borderopacity="1.0" id="base" inkscape:current-layer="layer1" inkscape:cx="97.142857" inkscape:cy="71.863305" inkscape:document-units="mm" inkscape:pageopacity="0.0" inkscape:pageshadow="2" inkscape:window-height="705" inkscape:window-maximized="1" inkscape:window-width="1366" inkscape:window-x="-8" inkscape:window-y="-8" inkscape:zoom="1.4" pagecolor="#ffffff" showgrid="false">
		</sodipodi:namedview>
	<g>
		<path d="M44.15,87.38c6.37,0,9.66-4.33,9.66-10.4c0-6.66-3.82-11.95-10.93-11.95c-6.22,0-9.96,4.13-9.96,10.2h0
			C32.93,82.04,36.89,87.38,44.15,87.38z"/>
		<path d="M48.63,108.35c-4.66-0.18-6.9-0.49-9.79-0.71c-12.57,6.93-1.97,15.95,11.64,14.48v0c8.76-0.93,11.96-5.02,10.87-8.81
			C60.63,110.79,57.75,108.71,48.63,108.35z"/>
		<path d="M159.52,28.82c-10.31-7.17-26.59-10.8-48.37-10.8c-14.29,0-41.72,1.32-64.91,10.18C19.75,38.33,6.32,55.22,6.32,78.41
			c0,7.5,1.53,15.51,4.39,23.52c1.73,4.79,3.91,9.56,6.47,14.2c0.87,1.58,1.79,3.14,2.74,4.68c2.82,4.5,6.03,8.86,9.59,12.99
			c15.44,17.91,34.87,28.18,53.31,28.18c12,0,23.29-4.01,34.51-12.25c12.98-9.65,27-24.94,37.51-40.91
			c15.59-23.68,18.86-40.89,18.86-51.16C173.68,45.05,168.92,35.35,159.52,28.82z M65.06,120.07c-7.48,9.35-31.51,10.3-38.32,1.32
			c-4.63-6.11,1.58-11.37,8.25-14.28c-4.6-1.24-6.95-4.7-6.95-8.03c0-3.41,2.37-6.36,6.82-8.44c-5.93-2.22-10.02-7.84-10.02-14.18
			c0-9.2,7.16-16.31,18.77-16.31c2.51,0,5.46,0.59,7.97,1.33c2.08,0.58,4.3,1.03,6.67,1.03c2.81,0,6.07-0.15,8.73-0.89v5.93
			c-1.48-0.3-6.21-0.6-8.73-0.6c2.37,2.67,3.7,6.37,3.7,9.93c0,8.29-6.52,15.25-18.07,15.25c-0.99,0-2.06-0.05-3.31-0.19
			c-1.21,0.23-2.3,0.76-3.14,1.45c-1.26,1.02-1.84,2.32-1.84,3.48c0,1.92,0.96,3.32,5.77,3.7c10.35,0.81,16.68,0.96,20.94,2.91v0
			C66.94,105.6,70.92,112.74,65.06,120.07z M84.7,108.41c-5.18,0-9.77-1.03-14.51-2.96v-6.81c4.88,2.66,10.95,4.28,14.8,4.28
			c4.15,0,9.33-1.04,9.33-5.91c0-4.89-5.19-7.26-10.81-9.92c-6.22-2.96-12.88-6.21-12.88-13.77c0-9.18,8.88-13.18,16.88-13.18
			c4.3,0,8.59,1.03,12.3,3.1v6.67c-3.56-2.82-7.85-4.45-12.44-4.45c-4.45,0-8.74,1.78-8.74,5.79c0,4.72,5.63,7.4,11.55,10.36v0
			c6.23,3.12,12.74,6.66,12.74,13.46C102.91,104.99,93,108.41,84.7,108.41z M143.22,107.81c-4.58,0-8.44-2.53-13.18-8.14
			c-7.55-9.04-13.62-16.3-13.62-16.3v11.85c0,8.28,0.44,9.62,1.18,11.55h-10.96c0.89-2.37,1.33-3.26,1.33-11.55V54.21
			c0-6.66-0.44-9.62-1.78-11.4l10.22-2.66v39.69l13.47-12.59c0,0,2.67-2.37,5.04-5.48h11.7c-0.59,0.15-2.67,0.59-10.07,7.55
			l-12.59,11.85c0,0,8.24,10,15.35,17.84c5.48,5.93,8.94,6.58,11.46,6.58v0c0.44,0,1.04-0.14,1.48-0.3
			C150.04,106.92,146.77,107.81,143.22,107.81z"/>
	</g>
</g>
</svg>
