<?xml version="1.0" encoding="utf-8"?>
<!-- Generator: Adobe Illustrator 28.1.0, SVG Export Plug-In . SVG Version: 6.00 Build 0)  -->
<svg version="1.1" id="Layer_1" xmlns="http://www.w3.org/2000/svg" xmlns:xlink="http://www.w3.org/1999/xlink" x="0px" y="0px"
	 viewBox="0 0 360 180" style="enable-background:new 0 0 360 180;" xml:space="preserve">
<g transform="translate(-1 -1)">
	<path d="M160.2,93.5c0,13.6-10.7,23.7-23.8,23.7s-23.8-10-23.8-23.7c0-13.7,10.7-23.7,23.8-23.7S160.2,79.8,160.2,93.5z
		 M149.8,93.5c0-8.5-6.2-14.4-13.4-14.4s-13.4,5.8-13.4,14.4c0,8.4,6.2,14.4,13.4,14.4S149.8,101.9,149.8,93.5z"/>
	<path d="M211.5,93.5c0,13.6-10.7,23.7-23.8,23.7s-23.8-10-23.8-23.7c0-13.7,10.7-23.7,23.8-23.7C200.8,69.8,211.5,79.8,211.5,93.5z
		 M201.1,93.5c0-8.5-6.2-14.4-13.4-14.4s-13.4,5.8-13.4,14.4c0,8.4,6.2,14.4,13.4,14.4S201.1,101.9,201.1,93.5z"/>
	<path d="M260.6,71.2v42.5c0,17.5-10.3,24.6-22.5,24.6c-11.5,0-18.4-7.7-21-14l9.1-3.8c1.6,3.9,5.6,8.4,11.9,8.4
		c7.8,0,12.7-4.8,12.7-13.9v-3.4h-0.4c-2.3,2.9-6.8,5.4-12.5,5.4c-11.8,0-22.7-10.3-22.7-23.6c0-13.4,10.8-23.8,22.7-23.8
		c5.7,0,10.1,2.5,12.5,5.3h0.4v-3.9L260.6,71.2L260.6,71.2z M251.5,93.6c0-8.3-5.6-14.4-12.7-14.4c-7.2,0-13.2,6.1-13.2,14.4
		c0,8.3,6,14.3,13.2,14.3C245.9,107.8,251.5,101.8,251.5,93.6z"/>
	<path d="M276.9,46.3v69.4h-10.1V46.3H276.9z"/>
	<path d="M316.5,101.3l8.1,5.4c-2.6,3.9-8.9,10.5-19.7,10.5c-13.5,0-23.5-10.4-23.5-23.7c0-14.1,10.1-23.7,22.3-23.7
		c12.3,0,18.3,9.8,20.3,15.1l1.1,2.7l-31.7,13.1c2.4,4.8,6.2,7.2,11.5,7.2C310.1,107.8,313.8,105.2,316.5,101.3z M291.6,92.8
		l21.2-8.8c-1.2-3-4.7-5-8.8-5C298.7,79,291.4,83.6,291.6,92.8z"/>
	<path d="M74.3,87.3v-10h33.9c0.3,1.7,0.5,3.8,0.5,6.1c0,7.5-2.1,16.9-8.7,23.5c-6.5,6.7-14.7,10.3-25.7,10.3
		C54,117.2,37,100.7,37,80.4s17-36.8,37.3-36.8c11.2,0,19.2,4.4,25.2,10.1l-7.1,7.1c-4.3-4-10.1-7.2-18.1-7.2
		c-14.8,0-26.4,11.9-26.4,26.7s11.6,26.7,26.4,26.7c9.6,0,15.1-3.9,18.6-7.4c2.8-2.8,4.7-6.9,5.5-12.4L74.3,87.3z"/>
</g>
</svg>
