<?xml version="1.0" encoding="utf-8"?>
<!-- Generator: Adobe Illustrator 28.1.0, SVG Export Plug-In . SVG Version: 6.00 Build 0)  -->
<svg version="1.1" id="Layer_1" xmlns="http://www.w3.org/2000/svg" xmlns:xlink="http://www.w3.org/1999/xlink" x="0px" y="0px"
	 viewBox="0 0 72 72" style="enable-background:new 0 0 72 72;" xml:space="preserve">
<g>
	<path d="M56.7,7.2c2.8,0,5.1,2.3,5.2,5.1v0.1v47.2c0,2.8-2.3,5.1-5.1,5.2h-0.1H15.3c-2.8,0-5.1-2.3-5.2-5.1v-0.1V12.4
		c0-2.8,2.3-5.1,5.1-5.2h0.1H56.7z M56.7,10.1H15.3c-1.2,0-2.3,1-2.3,2.2v0.1v47.2c0,1.2,1,2.3,2.2,2.3h0.1h41.5
		c1.3,0,2.3-1,2.3-2.2v-0.1V12.4C59,11.1,58,10.1,56.7,10.1z M23,44.6l6.5,5.8L23,56.2V44.6z M28.8,15.8v16.4c2.9-0.9,6.9-2,10.8-2
		c3.6,0,5.7,1.4,6.9,2.6c2.5,2.5,2.5,5.6,2.5,6.1v0v17.3h-5.8V39c0-1.3-0.7-3-3.6-3c-5.8,0-12.3,2.9-12.5,3l0,0L23,40.8v-25H28.8z
		 M49,15.8c-0.4,3.3-1.7,6.4-4.3,9.4l0,0h-5.8c2.3-3,3.7-6.1,4.3-9.4l0,0H49z"/>
</g>
</svg>
