<?xml version="1.0" encoding="utf-8"?>
<!-- Generator: Adobe Illustrator 28.1.0, SVG Export Plug-In . SVG Version: 6.00 Build 0)  -->
<svg version="1.1" id="Layer_1" xmlns="http://www.w3.org/2000/svg" xmlns:xlink="http://www.w3.org/1999/xlink" x="0px" y="0px"
	 viewBox="0 0 360 180" style="enable-background:new 0 0 360 180;" xml:space="preserve">
<path d="M226.2,67c-11.9-0.1-26.5,4.9-26.6,22.9c-0.1,17.8,14.8,23.4,26.6,23.1c11-0.3,23.1-3.4,23.6-16.8l-12.1,0
	c-0.3,8.4-7.1,10.1-11.5,10.1c-4.6,0-13.8-0.9-14-16.3c-0.1-14.5,8.4-16.5,14-16.4c5.6,0.1,11.2,2.7,11.2,9.3l12,0
	C249.3,74.8,242.3,67.1,226.2,67z M36,67.8v44.3h11.7V92.6h23.7v19.5h11.8V67.8H71.4v17.7H47.7V67.8L36,67.8z M92.9,67.8v44.3h11.8
	V67.8H92.9z M109.1,67.8v7.3h17.2v36.9h11.7V75.2h17.2v-7.3L109.1,67.8z M255.5,67.8v44.3h11.7V92.6H291v19.5h11.7V67.8H291v17.7
	h-23.7V67.8L255.5,67.8z M312.2,67.8v44.3H324V67.8H312.2z M166,67.9l-21,44.2h13.2l4.1-9.9l22.2,0l4.1,9.9h13.2l-20.9-44.2H166z
	 M173.4,75.4l8.1,19.7l-16.3,0L173.4,75.4z"/>
</svg>
