<?xml version="1.0" encoding="utf-8"?>
<!-- Generator: Adobe Illustrator 28.1.0, SVG Export Plug-In . SVG Version: 6.00 Build 0)  -->
<svg version="1.1" id="Layer_1" xmlns:svg="http://www.w3.org/2000/svg"
	 xmlns="http://www.w3.org/2000/svg" xmlns:xlink="http://www.w3.org/1999/xlink" x="0px" y="0px" viewBox="0 0 360 180"
	 style="enable-background:new 0 0 360 180;" xml:space="preserve">
<g id="g7">
	<polygon id="polygon9" points="297,103.4 307.9,103.4 307.9,64.5 297,64.5 	"/>
	<polygon id="polygon11" points="324,64.5 324,103.4 313.1,103.4 313.1,64.5 	"/>
	<polygon id="polygon13" points="59.3,79.6 50.5,79.6 50.5,64.5 36,64.5 36,103.4 50.5,103.4 50.5,84.1 59.3,84.1 59.3,103.4 
		73.8,103.4 73.8,64.5 59.3,64.5 	"/>
	<path id="path15" d="M127.3,79l-0.9-2.6h-11.9v27h11.9V87.2l0,0c0-3.5,2.3-5.5,4.2-5.5c1.6,0,3.7,0.3,3.7,3.9l0,0v17.9h11.9V85.9
		l0,0C146.2,76.1,135.2,72.2,127.3,79L127.3,79L127.3,79L127.3,79z"/>
	<path id="path17" d="M249.6,92.1L244,76.4h-8.1l-5.6,16.3l-5.8-16.3h-11.3h-0.1h-4.5l-5.7,13.8l-8-13.8h-13.6l16,27.4l-2.1,5.1l0,0
		c-0.7,1.6-2.5,1.7-2.8,0.2c0-2.8-2.2-5-5-5c-2.8,0-5,2.2-5,5c0,2.9,2.9,6.7,8.6,6.4c5.7-0.2,8.1-5,8.9-7l0,0l13.2-32l9.5,26.9h8.7
		l5.3-15.5l5.5,15.5h8.2l9.3-27h-4.7L249.6,92.1L249.6,92.1L249.6,92.1z"/>
	<path id="path19" d="M94.3,75c-9.1,0-16.5,6.8-16.5,15.1s7.4,15.1,16.5,15.1c9.1,0,16.5-6.8,16.5-15.1C110.8,81.8,103.4,75,94.3,75
		L94.3,75L94.3,75L94.3,75z M98.4,97.2c0,2.3-1.8,4.1-4.1,4.1c-2.3,0-4.1-1.8-4.1-4.1l0,0V83.1l0,0c0-2.3,1.8-4.1,4.1-4.1
		c2.3,0,4.1,1.8,4.1,4.1l0,0V97.2L98.4,97.2L98.4,97.2z"/>
	<path id="path21" d="M182.6,92.3c0.1-0.6,0.1-1.5,0.1-2.2c0-8.4-7.4-15.1-16.5-15.1s-16.5,6.8-16.5,15.1s7.4,15.1,16.5,15.1
		c6.3,0,11.7-3.2,14.5-7.9l0,0l-3.6-1.3l0,0c-2.2,3.4-6.2,5.6-10.9,5.6c-2.3,0-4.1-2.1-4.1-4.4l0,0v-4.9L182.6,92.3L182.6,92.3
		L182.6,92.3z M162.1,83.1c0-2.3,1.8-4.1,4.1-4.1c2.3,0,4.1,1.8,4.1,4.1l0,0v5.4h-8.2V83.1L162.1,83.1L162.1,83.1z"/>
	<path id="path23" d="M292.8,92.3c0.1-0.6,0.1-1.5,0.1-2.2c0-8.4-7.4-15.1-16.5-15.1c-9.1,0-16.5,6.8-16.5,15.1s7.4,15.1,16.5,15.1
		c6.3,0,11.7-3.2,14.5-7.9l0,0l-3.6-1.3l0,0c-2.2,3.4-6.2,5.6-10.9,5.6c-2.3,0-4.1-2.1-4.1-4.4l0,0v-4.9L292.8,92.3L292.8,92.3
		L292.8,92.3z M272.4,83.1c0-2.3,1.8-4.1,4.1-4.1c2.3,0,4.1,1.8,4.1,4.1l0,0v5.4h-8.2V83.1L272.4,83.1L272.4,83.1z"/>
</g>
</svg>
