<?xml version="1.0" encoding="utf-8"?>
<!-- Generator: Adobe Illustrator 28.1.0, SVG Export Plug-In . SVG Version: 6.00 Build 0)  -->
<svg version="1.1"
	 id="svg3009" xmlns:svg="http://www.w3.org/2000/svg" xmlns:sodipodi="http://sodipodi.sourceforge.net/DTD/sodipodi-0.dtd" xmlns:inkscape="http://www.inkscape.org/namespaces/inkscape" xmlns:cc="http://creativecommons.org/ns#" xmlns:dc="http://purl.org/dc/elements/1.1/" xmlns:rdf="http://www.w3.org/1999/02/22-rdf-syntax-ns#"
	 xmlns="http://www.w3.org/2000/svg" xmlns:xlink="http://www.w3.org/1999/xlink" x="0px" y="0px" viewBox="0 0 72 72"
	 style="enable-background:new 0 0 72 72;" xml:space="preserve">
<sodipodi:namedview  bordercolor="#666666" borderopacity="1" fit-margin-bottom="0.1" fit-margin-left="0.1" fit-margin-right="0.1" fit-margin-top="0.1" gridtolerance="10" guidetolerance="10" id="namedview3011" inkscape:current-layer="g3017" inkscape:cx="574.39154" inkscape:cy="-78.418282" inkscape:pageopacity="0" inkscape:pageshadow="2" inkscape:window-height="1028" inkscape:window-maximized="1" inkscape:window-width="1920" inkscape:window-x="-8" inkscape:window-y="-8" inkscape:zoom="0.67425131" objecttolerance="10" pagecolor="#ffffff" showgrid="false">
	</sodipodi:namedview>
<g id="g3017" transform="matrix(1.25,0,0,-1.25,-67.822513,702.43127)" inkscape:groupmode="layer" inkscape:label="c02716792">
	<g id="g3061" transform="matrix(1.5180439,0,0,1.5180439,-28.149474,-249.71011)">
		<g id="g3021" transform="translate(106.93201,508.32201)">
			<path id="path3023" inkscape:connector-curvature="0" d="M-18.5,7.4c0,8.4-6.8,15.2-15.2,15.2c-0.2,0-0.5,0-0.7,0l-3.1-8.5h2.7
				c1.6,0,2.5-1.2,1.9-2.8l-3.8-10.5h-3.2l4.1,11.3h-2.4l-4.1-11.3h-3.2l4.8,13.3l0,0l2.9,8c-6.4-1.8-11.1-7.7-11.1-14.6
				c0-7.2,5-13.2,11.7-14.8l2.8,7.7l0,0l5,13.7h5.9c1.6,0,2.5-1.2,1.9-2.8L-24.9,2c-0.3-0.7-1.1-1.3-1.8-1.3H-31l-3.1-8.5
				c0.2,0,0.3,0,0.5,0C-25.3-7.8-18.5-1-18.5,7.4"/>
		</g>
		<g id="g3025" transform="translate(96.546997,516.36501)">
			<path id="path3027" inkscape:connector-curvature="0" d="M-14.1,4h-2.4l-3.4-9.3h2.4L-14.1,4"/>
		</g>
	</g>
</g>
</svg>
