<?xml version="1.0" encoding="utf-8"?>
<!-- Generator: Adobe Illustrator 28.1.0, SVG Export Plug-In . SVG Version: 6.00 Build 0)  -->
<svg version="1.1" id="Layer_1" xmlns="http://www.w3.org/2000/svg" xmlns:xlink="http://www.w3.org/1999/xlink" x="0px" y="0px"
	 viewBox="0 0 72 72" style="enable-background:new 0 0 72 72;" xml:space="preserve">
<g>
	<path d="M36,7.2c4.7,0,9.1,1.1,13.2,3.2l0,0l0.5,0.3l-0.5,0.4c-1.2,0.9-2.1,2.1-2.7,3.5l0,0l-0.2,0.4l-0.3-0.2
		c-3.2-1.5-6.6-2.3-10.1-2.3c-13,0-23.5,10.6-23.5,23.5S23,59.6,36,59.6S59.6,49,59.6,36c0-3.1-0.6-6.1-1.8-9l0,0l-0.2-0.4l0.4-0.2
		c1.4-0.5,2.6-1.4,3.6-2.5l0,0l0.4-0.5l0.2,0.5c1.7,3.8,2.6,7.8,2.6,11.9c0,15.9-12.9,28.8-28.8,28.8S7.2,51.8,7.2,36
		S20.1,7.2,36,7.2z M36,22.9c7.2,0,13.1,5.9,13.1,13.1c0,7.3-5.9,13.1-13.1,13.1s-13.1-5.9-13.1-13.1S28.8,22.9,36,22.9z M54.8,12.1
		c3.3,0,6,2.7,6,6s-2.7,6-6,6s-6-2.7-6-6S51.5,12.1,54.8,12.1z"/>
</g>
</svg>
