<?xml version="1.0" encoding="utf-8"?>
<!-- Generator: Adobe Illustrator 28.1.0, SVG Export Plug-In . SVG Version: 6.00 Build 0)  -->
<svg version="1.1" id="layer" xmlns="http://www.w3.org/2000/svg" xmlns:xlink="http://www.w3.org/1999/xlink" x="0px" y="0px"
	 viewBox="0 0 360 180" style="enable-background:new 0 0 360 180;" xml:space="preserve">
<g>
	<path id="_x23_0da8ffff_1_" d="M47.73,64.47c5.64-0.38,11.39,0.76,16.44,3.31c7.49,3.69,13.45,10.31,16.22,18.12
		c1.25,3.47,1.9,7.11,1.9,10.79v13.62c0,0.54,0,1.14-0.11,1.68c-0.33,1.36-1.3,2.6-2.6,3.2c-0.92,0.43-1.95,0.49-2.87,0.33
		c-2.06-0.38-3.69-2.33-3.69-4.45c0-4.23,0-8.46,0-12.69c0.05-1.19,0.05-2.5-0.6-3.53c-1.03-1.95-3.63-2.87-5.64-2.06
		c-1.74,0.6-2.98,2.39-3.04,4.23c0,4.29,0,8.57,0,12.86c0,0.81,0.05,1.63-0.22,2.39c-0.43,1.52-1.68,2.71-3.2,3.15
		c-2.01,0.54-4.29-0.33-5.26-2.17c-0.71-1.08-0.65-2.44-0.6-3.69c0-4.29,0-8.52,0-12.8c-0.05-2.17-1.84-4.12-3.96-4.39
		c-1.41-0.22-2.87,0.27-3.91,1.25c-0.92,0.87-1.41,2.12-1.41,3.36v12.42c0,1.03,0.11,2.12-0.27,3.09c-0.6,1.79-2.39,3.09-4.29,3.04
		c-1.95,0.11-3.85-1.25-4.45-3.04c-0.33-0.92-0.27-1.84-0.27-2.82c0-4.29,0-8.57,0-12.86c0-2.12-1.68-4.07-3.74-4.45
		c-1.9-0.38-3.96,0.54-4.94,2.28c-0.38,0.71-0.6,1.52-0.6,2.33v13.94c0,1.36-0.6,2.71-1.63,3.58c-1.57,1.36-4.12,1.46-5.75,0.22
		c-1.19-0.81-1.9-2.22-1.9-3.69v-14.1c0-5.32,1.36-10.63,3.91-15.35c2.06-3.85,4.94-7.27,8.35-9.98
		C34.65,67.35,41.11,64.85,47.73,64.47L47.73,64.47z"/>
	<path d="M174.49,80.8h-7.05c0.27-4.94,1.3-9.38,5.8-12.2c4.5-2.77,9.44-3.42,14.59-2.98c2.77,0.22,5.53,0.81,8.08,2.01
		c4.5,2.06,6.73,5.59,6.73,10.52c0,8.73,0,17.47,0,26.2c0,3.2,0.65,3.8,3.85,3.47c0.33-0.05,0.71-0.11,1.03-0.16
		c0.05,0.16,0.05,0.33,0.05,0.43v5.32c-2.55,0.87-5.15,1.14-7.7,0.43c-1.9-0.54-3.09-1.9-3.74-3.69c-0.33-0.92-0.54-1.9-0.81-2.93
		c-0.27,0.33-0.49,0.6-0.76,0.87c-5.59,5.64-12.2,8.03-20.02,6.02c-5.53-1.41-9.33-6.46-9.49-12.2c-0.05-1.84,0.11-3.69,0.54-5.48
		c1.03-4.12,3.96-6.62,7.65-8.3c2.6-1.19,5.42-1.52,8.25-1.9c3.31-0.43,6.56-0.81,9.87-1.3c2.22-0.33,3.36-1.52,3.69-3.74
		c0.71-4.5-1.3-7.49-5.64-8.57c-2.6-0.65-5.26-0.76-7.92-0.27c-3.91,0.71-6.08,2.93-6.83,6.78C174.71,79.66,174.6,80.2,174.49,80.8
		L174.49,80.8z M195.27,89.48c-3.25,1.74-6.4,2.17-9.6,2.66c-2.66,0.43-5.37,0.81-7.97,1.63c-3.42,1.14-4.99,3.96-4.66,7.76
		c0.27,3.15,2.39,5.7,5.8,6.24c5.26,0.87,9.93-0.6,13.62-4.5c1.08-1.14,1.95-2.77,2.17-4.29C195.11,95.93,195.05,92.84,195.27,89.48
		z M295.78,98.59c-0.16,0.76-0.27,1.41-0.43,2.01c-3.04,9.28-9.22,13.24-16.71,14.1c-12.96,1.41-20.4-7.05-22.29-16.06
		c-1.52-7.16-1.3-14.27,1.84-20.99c2.98-6.35,7.76-10.52,14.86-11.77c8.52-1.52,20.56,2.71,22.57,16c0.54,3.42,0.65,6.94,0.98,10.52
		h-32.98c0.27,4.88,1.03,9.44,4.61,12.96c1.46,1.46,3.36,2.17,5.42,2.55c6.67,1.19,12.2-2.01,14.37-8.46
		c0.22-0.71,0.54-0.92,1.25-0.87C291.39,98.59,293.51,98.59,295.78,98.59L295.78,98.59z M263.89,86.12h24.68
		c-0.27-2.87-0.76-5.53-2.12-8.03c-1.3-2.39-3.2-4.12-5.8-4.99C272.13,70.17,263.35,76.95,263.89,86.12z M313.52,113.13h-7.49V66.59
		h7.11v6.51c0.54-0.6,0.87-0.98,1.19-1.36c5.1-5.8,11.5-7.32,18.77-5.53c5.04,1.25,7.87,4.83,8.84,9.82
		c0.38,2.06,0.65,4.18,0.65,6.24c0.05,9.98,0.05,19.96,0.05,29.94c0,0.27-0.05,0.54-0.05,0.87h-7.65v-1.25
		c0-9.33,0.05-18.66-0.05-27.99c0-2.06-0.33-4.18-0.92-6.18c-0.98-3.25-3.58-4.99-7-5.15c-6.24-0.22-11.17,3.09-12.69,8.62
		c-0.54,2.01-0.71,4.12-0.71,6.24c-0.05,8.19-0.05,16.33-0.05,24.41V113.13L313.52,113.13z M214.85,66.59h7.21v19.74
		c0.43-0.43,0.71-0.65,0.98-0.92c5.91-6.02,11.83-12.1,17.74-18.12c0.49-0.54,0.98-0.76,1.74-0.76c2.77,0.05,5.59,0,8.62,0
		c-0.43,0.43-0.65,0.71-0.92,0.98c-5.21,5.21-10.36,10.47-15.62,15.62c-0.6,0.6-0.6,0.98-0.22,1.63
		c5.7,9.06,11.34,18.12,16.98,27.18c0.22,0.33,0.38,0.65,0.65,1.14c-0.38,0.05-0.65,0.05-0.98,0.05c-2.6,0-5.15,0-7.76,0
		c-0.71,0-1.03-0.27-1.41-0.81c-4.34-7.27-8.68-14.54-13.02-21.86c-0.22-0.33-0.38-0.65-0.65-1.03c-2.01,2.01-3.96,3.91-5.91,5.91
		c-0.27,0.27-0.33,0.76-0.33,1.14c0,5.1,0,10.2,0,15.3v1.3c-1.41,0-2.82,0-4.18,0c-0.98,0-2.33,0.27-2.87-0.27
		c-0.49-0.43-0.22-1.84-0.22-2.82V67.83C214.85,67.56,214.85,67.13,214.85,66.59z M131.59,66.53c-5.86,5.8-11.55,11.5-17.3,17.2
		c6.18,9.87,12.2,19.53,18.33,29.4c-0.49,0-0.81,0.05-1.14,0.05c-2.5,0-5.04,0-7.54,0c-0.71,0-1.14-0.27-1.52-0.87
		c-4.34-7.27-8.68-14.54-13.02-21.86c-0.16-0.33-0.38-0.6-0.65-1.03c-1.08,1.14-2.06,2.39-3.25,3.25c-2.44,1.84-3.15,4.12-2.98,7.16
		c0.27,3.96,0.05,7.97,0.05,11.93v1.3h-7.16V66.59h7.16v19.42c0.16,0.11,0.33,0.22,0.43,0.33c0.22-0.33,0.33-0.71,0.54-0.98
		c5.86-6.02,11.77-11.99,17.63-18.06c0.54-0.54,1.03-0.81,1.84-0.76c2.44,0.05,4.88,0,7.32,0
		C130.72,66.53,131.04,66.53,131.59,66.53L131.59,66.53z M145.91,74.29c3.63-5.32,7.49-9.76,14.65-8.46v7.97
		c-1.9,0.11-3.8,0.05-5.59,0.43c-4.39,0.92-7.81,4.94-8.52,9.82c-0.11,0.98-0.22,1.95-0.22,2.93c0,8.3,0,16.6,0,24.9v1.3h-7.38V66.7
		h7.05C145.91,69.14,145.91,71.58,145.91,74.29L145.91,74.29z"/>
</g>
</svg>
