<?xml version="1.0" encoding="utf-8"?>
<!-- Generator: Adobe Illustrator 28.1.0, SVG Export Plug-In . SVG Version: 6.00 Build 0)  -->
<svg version="1.1" id="layer" xmlns="http://www.w3.org/2000/svg" xmlns:xlink="http://www.w3.org/1999/xlink" x="0px" y="0px"
	 viewBox="0 0 360 180" style="enable-background:new 0 0 360 180;" xml:space="preserve">
<g>
	<path d="M128.1,79.1h-8.2c0.3-5.8,1.5-10.9,6.8-14.2c5.2-3.2,11-4,17-3.5c3.2,0.3,6.4,0.9,9.4,2.3c5.2,2.4,7.8,6.5,7.8,12.3
		c0,10.2,0,20.3,0,30.5c0,3.7,0.8,4.4,4.5,4c0.4-0.1,0.8-0.1,1.2-0.2c0.1,0.2,0.1,0.4,0.1,0.5v6.2c-3,1-6,1.3-9,0.5
		c-2.2-0.6-3.6-2.2-4.4-4.3c-0.4-1.1-0.6-2.2-0.9-3.4c-0.3,0.4-0.6,0.7-0.9,1c-6.5,6.6-14.2,9.4-23.3,7c-6.4-1.6-10.9-7.5-11.1-14.2
		c-0.1-2.1,0.1-4.3,0.6-6.4c1.2-4.8,4.6-7.7,8.9-9.7c3-1.4,6.3-1.8,9.6-2.2c3.9-0.5,7.6-0.9,11.5-1.5c2.6-0.4,3.9-1.8,4.3-4.4
		c0.8-5.2-1.5-8.7-6.6-10c-3-0.8-6.1-0.9-9.2-0.3c-4.6,0.8-7.1,3.4-8,7.9C128.4,77.7,128.2,78.4,128.1,79.1L128.1,79.1z M152.3,89.2
		c-3.8,2-7.5,2.5-11.2,3.1c-3.1,0.5-6.3,0.9-9.3,1.9c-4,1.3-5.8,4.6-5.4,9c0.3,3.7,2.8,6.6,6.8,7.3c6.1,1,11.6-0.7,15.9-5.2
		c1.3-1.3,2.3-3.2,2.5-5C152.1,96.7,152.1,93.1,152.3,89.2z M269.4,99.8c-0.2,0.9-0.3,1.6-0.5,2.3c-3.5,10.8-10.7,15.4-19.5,16.4
		c-15.1,1.6-23.8-8.2-26-18.7c-1.8-8.3-1.5-16.6,2.1-24.4c3.5-7.4,9-12.3,17.3-13.7c9.9-1.8,24,3.2,26.3,18.6
		c0.6,4,0.8,8.1,1.1,12.3h-38.4c0.3,5.7,1.2,11,5.4,15.1c1.7,1.7,3.9,2.5,6.3,3c7.8,1.4,14.2-2.3,16.7-9.9c0.3-0.8,0.6-1.1,1.5-1
		C264.3,99.8,266.8,99.8,269.4,99.8L269.4,99.8z M232.3,85.3H261c-0.3-3.3-0.9-6.4-2.5-9.4c-1.5-2.8-3.7-4.8-6.8-5.8
		C241.9,66.7,231.6,74.6,232.3,85.3z M290.1,116.7h-8.7V62.5h8.3v7.6c0.6-0.7,1-1.1,1.4-1.6c5.9-6.8,13.4-8.5,21.9-6.4
		c5.9,1.5,9.2,5.6,10.3,11.4c0.4,2.4,0.8,4.9,0.8,7.3c0.1,11.6,0.1,23.3,0.1,34.9c0,0.3-0.1,0.6-0.1,1H315v-1.5
		c0-10.9,0.1-21.7-0.1-32.6c0-2.4-0.4-4.9-1.1-7.2c-1.1-3.8-4.2-5.8-8.2-6c-7.3-0.3-13,3.6-14.8,10c-0.6,2.3-0.8,4.8-0.8,7.3
		c-0.1,9.5-0.1,19-0.1,28.4L290.1,116.7L290.1,116.7z M175.1,62.5h8.4v23c0.5-0.5,0.8-0.8,1.1-1.1c6.9-7,13.8-14.1,20.7-21.1
		c0.6-0.6,1.1-0.9,2-0.9c3.2,0.1,6.5,0,10,0c-0.5,0.5-0.8,0.8-1.1,1.1c-6.1,6.1-12.1,12.2-18.2,18.2c-0.7,0.7-0.7,1.1-0.3,1.9
		c6.6,10.6,13.2,21.1,19.8,31.7c0.3,0.4,0.4,0.8,0.8,1.3c-0.4,0.1-0.8,0.1-1.1,0.1c-3,0-6,0-9,0c-0.8,0-1.2-0.3-1.6-0.9
		c-5.1-8.5-10.1-16.9-15.2-25.5c-0.3-0.4-0.4-0.8-0.8-1.2c-2.3,2.3-4.6,4.6-6.9,6.9c-0.3,0.3-0.4,0.9-0.4,1.3c0,5.9,0,11.9,0,17.8
		v1.5c-1.6,0-3.3,0-4.9,0c-1.1,0-2.7,0.3-3.3-0.3c-0.6-0.5-0.3-2.1-0.3-3.3V64C175.1,63.7,175.1,63.2,175.1,62.5z M78.1,62.5
		c-6.8,6.8-13.5,13.4-20.2,20c7.2,11.5,14.2,22.8,21.4,34.3c-0.6,0-0.9,0.1-1.3,0.1c-2.9,0-5.9,0-8.8,0c-0.8,0-1.3-0.3-1.8-1
		c-5.1-8.5-10.1-16.9-15.2-25.5c-0.2-0.4-0.4-0.7-0.8-1.2c-1.3,1.3-2.4,2.8-3.8,3.8c-2.8,2.1-3.7,4.8-3.5,8.3
		c0.3,4.6,0.1,9.3,0.1,13.9v1.5H36V62.5h8.3v22.6c0.2,0.1,0.4,0.3,0.5,0.4c0.3-0.4,0.4-0.8,0.6-1.1c6.8-7,13.7-14,20.5-21
		c0.6-0.6,1.2-0.9,2.1-0.9c2.8,0.1,5.7,0,8.5,0C77.1,62.5,77.5,62.5,78.1,62.5L78.1,62.5z M94.8,71.5c4.2-6.2,8.7-11.4,17.1-9.9v9.3
		c-2.2,0.1-4.4,0.1-6.5,0.5c-5.1,1.1-9.1,5.8-9.9,11.4c-0.1,1.1-0.3,2.3-0.3,3.4c0,9.7,0,19.3,0,29v1.5h-8.6V62.6h8.2
		C94.8,65.5,94.8,68.3,94.8,71.5L94.8,71.5z"/>
</g>
</svg>
