<?xml version="1.0" encoding="utf-8"?>
<!-- Generator: Adobe Illustrator 28.1.0, SVG Export Plug-In . SVG Version: 6.00 Build 0)  -->
<svg version="1.1" id="Layer_1" xmlns="http://www.w3.org/2000/svg" xmlns:xlink="http://www.w3.org/1999/xlink" x="0px" y="0px"
	 viewBox="0 0 2500 1786" style="enable-background:new 0 0 2500 1786;" xml:space="preserve">
<path d="M109.8,453.8c0-242.5,491.5-439.1,1097.8-439.1c606.3,0,1097.8,196.6,1097.8,439.1s-491.5,439.1-1097.8,439.1
	S109.8,696.3,109.8,453.8L109.8,453.8z M1452.4,492.2c-0.3-1.5-1.5-2.6-3-2.9c-31.6-4.6-63.3-8.2-95.2-10.9c-1.9-0.3-3.2-2.1-2-6.2
	c101.5-106.8,140-242.6,88.7-348.9c0.2-2,2.1-3.5,4.1-3.3c0,0,0,0,0,0c349.1,42.4,604.1,175.7,604.1,333.6
	c0,192-376.8,347.7-841.7,347.7S365.9,645.8,365.9,453.8c0-166.4,283.2-305.6,661.5-339.7c1.8,0.1,3.4,1.5,3.5,4.4l-82.1,452.2
	c-5.8,29.8,13.7,58.6,43.5,64.3c3.4,0.7,6.9,1,10.4,1l2.9,0.2c73.3-3.8,152-26.7,226.3-69.6c21.1-12.2,41.3-25.6,60.7-40.4
	c1.1-0.9,2.7-1.1,4-0.4c24.8,16.5,39,35.8,39,56.4c0,28-26.3,53.6-69.6,73c-50.3,22.6-123.4,36.7-204.9,36.7
	c-69,0-132.1-10.2-181.1-27.2c-2-0.4-3.9,1-4.2,3c0,0,0,0,0,0l-7,38.3c-0.2,1.9,1,3.7,2.9,4.1c99.5,23.2,214,36.3,335.8,36.3
	c151.6,0,274.5-49.2,274.5-109.8c0-23.6-18.6-45.4-50.2-63.3c-27.7-13.6-45.1-31.2-40.8-43c4.4-12.2,30.9-14.2,62.4-5.7
	c1.8,0.2,3.5-0.8,4.2-4L1452.4,492.2z M1207.6,215.4c0,2.4-0.1,4.7-0.2,7.1c4,80.6-45.8,188.4-136.9,279.4
	c-18.1,18.1-37.3,35-57.6,50.6c-0.8,0.5-1.8,0.7-2.7,0.5c-1.9-0.4-3.1-2.2-2.8-4.4l89.2-491.2c-0.1-1.9-1.6-3.4-3.5-3.5
	C601.4,77,219.5,247.2,219.5,453.8c0,222.3,442.4,402.5,988,402.5c545.7,0,988-180.2,988-402.5s-442.3-402.5-988-402.5
	c-17.3,0-34.5,0.2-51.7,0.5c-1.7,0-3.1,1.2-3.6,2.8l-10.4,57.3c-0.2,1.5,0.5,3,1.8,3.8C1182.6,133.6,1207.6,172.5,1207.6,215.4
	L1207.6,215.4z M184.4,1112.5v537.8H483v121H0v-658.9H184.4z M905.9,1504.4l-86.1-239.9l-86.1,239.9H905.9z M936.9,1112.8
	l250.4,658.4H995.5l-55.1-155.5H699.2l-55.1,155.5H490.1l248.1-658.4H936.9z M1391.5,1649.9h82.7c49.4,0,114.9-8.6,157.3-65.3
	c42.5-56.6,43.6-122.9,43.6-149.7c0-34.6-4.6-104.6-54-153.6c-46-44.1-105.7-48-150.5-48h-79.2L1391.5,1649.9z M1207.8,1112.5h269.9
	c78.1,0,196.4,7.7,287.1,85.4c73.5,62.4,107.9,164.1,107.9,242.8c0,57.6-18.3,175.6-119.4,255.3c-80.4,63.3-171.1,74.9-256.1,74.9
	h-289.4L1207.8,1112.5L1207.8,1112.5z M2218.6,1504.1l-86.1-239.9l-86.1,239.9H2218.6z M2249.6,1112.5l250.4,658.4h-191.8
	l-55.1-155.5h-241.2l-55.2,155.5h-153.9l248.1-658.4L2249.6,1112.5L2249.6,1112.5z"/>
</svg>
