<?xml version="1.0" encoding="utf-8"?>
<!-- Generator: Adobe Illustrator 28.1.0, SVG Export Plug-In . SVG Version: 6.00 Build 0)  -->
<svg version="1.1" id="katman_1" xmlns="http://www.w3.org/2000/svg" xmlns:xlink="http://www.w3.org/1999/xlink" x="0px" y="0px"
	 viewBox="0 0 360 180" style="enable-background:new 0 0 360 180;" xml:space="preserve">
<g transform="matrix(3.72324 0 0 3.72324 100 155.731)">
	<path d="M-15-30.7h-2.2v20.2h11.4v-1.9H-15V-30.7z"/>
	<path d="M1.2-25.4C-3-25.4-6-22.3-6-17.8v0.5c0.1,3.9,3.4,7.1,7.3,7.1h0.3c2,0,3.9-0.7,5.4-2v-0.1l-1-1.6l-0.1,0.1
		C4.8-12.6,3.2-12,1.6-12c0,0-0.1,0-0.1,0c-2.9,0-5.3-2.4-5.3-5.3c0-0.1,0-0.1,0-0.2H7.1v-0.1v-1C7.2-22.8,4.9-25.4,1.2-25.4
		L1.2-25.4z M-3.7-19.3c0.3-2.4,2.3-4.2,4.8-4.2c1.8,0,3.8,1.1,4,4.2C5.1-19.3-3.7-19.3-3.7-19.3z"/>
	<path d="M19.8-23.7v0.8c-0.9-1.5-2.6-2.5-4.4-2.5h-0.3c-3.9,0-6.6,3.1-6.6,7.6s2.6,7.6,6.4,7.6c2,0.1,3.8-0.9,4.8-2.6v2.2h2v-20.1
		h-2.1L19.8-23.7L19.8-23.7z M15.4-12.1c-2.7,0-4.4-2.3-4.4-5.7s1.9-5.6,4.5-5.6c2.2,0,4.4,1.8,4.4,5.6
		C19.8-13.6,17.5-12.1,15.4-12.1C15.3-12.1,15.4-12.1,15.4-12.1z"/>
	<path d="M34.4-23.4v0.1c-0.4-0.7-1.6-2.2-4.6-2.2c-3.8,0-6.3,2.9-6.3,7.4s2.6,7.5,6.5,7.5c1.8,0.1,3.6-0.8,4.5-2.3v2
		c0,2.8-1.8,4.4-4.9,4.4c-1.4,0-2.7-0.3-3.9-0.9l-0.1-0.1l-0.8,1.8l0.1,0.1c1.5,0.7,3.1,1.1,4.7,1.2c3.4,0,7-1.7,7-6.4v-13.9h-2.1
		L34.4-23.4z M30.2-12.5c-2.8,0-4.6-2.2-4.6-5.5s1.6-5.4,4.3-5.4c3,0,4.4,1.8,4.4,5.4S32.9-12.5,30.2-12.5z"/>
	<path d="M45.1-25.4c-4.2,0-7.1,3.1-7.1,7.6v0.5c0.1,4,3.4,7.2,7.4,7.2h0.3c2,0,3.9-0.7,5.3-2l-1-1.7h-0.1c-1.2,1.1-2.7,1.7-4.3,1.7
		c0,0-0.1,0-0.1,0c-2.9,0-5.4-2.4-5.4-5.4c0-0.1,0-0.1,0-0.2h11v-0.1v-1C51.2-22.8,48.8-25.4,45.1-25.4L45.1-25.4z M40.3-19.3
		c0.3-2.4,2.4-4.2,4.8-4.2c1.8,0,3.8,1.1,4,4.2C49-19.3,40.3-19.3,40.3-19.3z"/>
	<path d="M60.1-25.1c-0.3,0-0.5,0-0.8-0.1c-2.1,0.1-3.9,1.4-4.5,3.4v-3.2h-2.1v14.5h2.2v-6.1c0-0.9,0.2-1.9,0.5-2.8
		c0.7-2.2,2.2-3.6,4-3.6c0.2,0,0.5,0,0.7,0h0.1L60.1-25.1L60.1-25.1L60.1-25.1z"/>
</g>
</svg>
