<?xml version="1.0" encoding="utf-8"?>
<!-- Generator: Adobe Illustrator 28.1.0, SVG Export Plug-In . SVG Version: 6.00 Build 0)  -->
<svg version="1.1" id="Layer_1" xmlns="http://www.w3.org/2000/svg" xmlns:xlink="http://www.w3.org/1999/xlink" x="0px" y="0px"
	 viewBox="0 0 180 180" style="enable-background:new 0 0 180 180;" xml:space="preserve">
<path d="M148.5,50.2c-7.4,0-14,2-19.3,6.4c-4.5-4.5-11-6.5-19.8-6.5c-6.9,0-12.6,1.6-17.6,4.6c-3.6-2.9-7.9-4.7-14.7-4.7
	c-6.2,0-14.8,0.3-21.3,5.9c-1.5-3.1-4.6-5.5-13-5.5c-7.8,0-14.2,3.7-18.3,10.5C18.8,69.7,7,95.4,7.3,109.5
	c0.2,10.6,8.1,17.8,19.6,18.1c6.9,0.2,12.8-1.3,17.2-4.3c4.1,2.9,9.2,4.5,15,4.5c6.9,0,13.1-1.8,17.7-5.1c4.2,3.3,9.6,5.1,15.8,5.1
	c8,0,15.5-2.8,21.5-8.1c4.1,5.2,11.2,8,19.7,8c16,0,24.3-9.9,30.6-22.7c2.3-4.8,6.7-16.8,7.5-23.2l0-0.1c1-7.9,1.9-15.4-3.4-22.8
	C164.8,53.7,158.4,50.2,148.5,50.2z M168.2,75.1c-0.3,6-2.2,13.1-3.7,17.4c-6.4,18.9-14,30.9-31.4,30.9c-7.9,0-15.2-3.1-18.1-10.9
	c-5.2,6.6-13.2,10.9-22.3,11c-7,0-12.4-2.4-15.8-6.7c-4.1,4.5-11,6.6-17.9,6.6c-6.2,0-11.3-2.2-14.7-5.8c-3.8,3.8-9.7,5.8-17.3,5.6
	c-9.7-0.2-15.1-6-15.3-14.1c-0.3-12.5,11.6-38.2,16.5-46c3.4-5.5,8.1-8.3,14.3-8.3c3.4,0,6.9,0.6,9.1,2.9c1.8,1.9,2.1,3.6,2.2,6.8
	c5.5-8.8,14.7-10,23.2-10c6.5,0,11.9,2.4,14.1,6.1c4.3-3.7,10.6-6,18.1-6c7.7,0,13.4,1.9,17,5.9c0.8,0.9,1.3,1.6,2.1,3.1v0
	c4.3-5.2,10.8-8.8,20.1-8.8C164.6,54.6,168.8,65.1,168.2,75.1z"/>
<path d="M26.9,127.6c6.9,0.2,12.8-1.3,17.2-4.3c4.1,2.9,9.2,4.5,15,4.5c6.9,0,13.1-1.8,17.7-5.1c4.2,3.3,9.6,5.1,15.8,5.1
	c8,0,15.5-2.8,21.5-8.1c4.1,5.2,11.2,8,19.7,8c16,0,24.3-9.9,30.6-22.7c2.3-4.8,6.7-16.8,7.5-23.2l0-0.1c1-7.9,1.9-15.4-3.4-22.8
	c-3.8-5.3-10.2-8.8-20.1-8.8c-7.4,0-14,2-19.3,6.4c-4.5-4.5-11-6.5-19.8-6.5c-6.9,0-12.6,1.6-17.6,4.6c-3.6-2.9-7.9-4.7-14.7-4.7
	c-6.2,0-14.8,0.3-21.3,5.9c-1.5-3.1-4.6-5.5-13-5.5c-7.8,0-14.2,3.7-18.3,10.5C18.8,69.7,7,95.4,7.3,109.5
	C7.5,120,15.4,127.3,26.9,127.6z M29.3,63.7c3.2-5.2,7.5-7.7,13.3-7.7c3.9,0,6.6,0.8,8.2,2.5c1.5,1.5,1.7,2.8,1.9,6l0.2,4l2.1-3.4
	c5.1-8.3,13.7-9.4,22.1-9.4c5.9,0,11,2.2,13.1,5.5l0.8,1.2l1.1-0.9c4.4-3.7,10.5-5.7,17.3-5.7c7.4,0,12.8,1.8,16,5.5
	c0.7,0.8,1.2,1.4,1.9,2.8l0.8,1.7l1.2-1.5c4.7-5.6,11.1-8.4,19.1-8.4c6.3,0,11.1,1.7,14.3,5c3.9,4.2,4.5,10,4.3,14.2
	c-0.3,5.5-2.1,12.4-3.6,17c-6.2,18.6-13.5,30.1-30.2,30.1c-4.9,0-13.7-1.3-16.9-10.1l-0.8-2.1l-1.4,1.7c-5.2,6.6-13,10.5-21.4,10.5
	c-6.4,0-11.5-2.1-14.9-6.2l-0.9-1.1l-1,1.1c-3.6,3.9-9.7,6.2-17,6.2c-5.7,0-10.6-1.9-13.8-5.4l-0.9-1l-0.9,0.9
	c-3.6,3.6-9.2,5.4-16.3,5.3c-8.6-0.2-13.9-5-14-12.9C12.7,96.9,24.5,71.4,29.3,63.7z"/>
<g>
	<path d="M109.2,83.7c-5.1,0.2-8.2,1.3-9.9,6.6c-1.7,5.4,4.4,5.5,4.4,5.5c-1.2,5.6-4.8,9-8,9c-2,0-3.8-0.9-3.2-5.1
		c0.9-6.2,6.7-21.2,9.4-24.9c1.2-1.7,2.8-3.3,5.3-3.3c3.1,0,2.8,1.6,2,3.7c-2.1,5.9,4.2,6,5.7,5.9c5.4-0.4,8.4-3.9,9.2-9.9
		c1-8.1-5.8-11.3-14.5-11.3c-14.5,0-20.2,8.9-25.6,21.5c-2.5,5.9-5.8,16.1-5.8,22.6c0,9.1,5.5,14,14.4,14c13,0,22.2-10.4,24.8-23.3
		C118.3,90.8,119.3,83.3,109.2,83.7z"/>
	<path d="M149.1,60c-14.8-0.2-19.4,9.6-24,21.6c-2.6,6.6-5.7,16.7-5.7,23.9c0.1,10,7.3,12.4,13.8,12.4c6.5,0.1,13.9-1.5,20-12.4
		c3.7-6.7,7.2-15.7,8.7-23.4C163.3,75.5,166.3,60.2,149.1,60z M149.6,74.7c-0.2,4.6-6.9,23-9.3,27c-1,1.8-2.2,3.2-4.3,3.2
		c-1.8,0-2.7-1.3-2.7-2.8c-0.1-4.2,7.5-25,10.1-28.3c1.2-1.8,2.4-2.1,3.9-2.1C149.5,71.8,149.7,73.3,149.6,74.7z"/>
	<path d="M32.6,102.2c0.9-2,2.2-4.8,3.7-7.9v0c4.8-10,11.5-23.8,11.7-29.2c0.1-2.7-1-4.9-5.3-4.9c-4.6,0-7.4,1.9-9.8,5.8
		c-5.1,8.1-15.9,32.6-15.7,43.2c0.1,6.1,4.8,8.4,10,8.6c7.2,0.2,15.5-1.9,16.3-10.9l0,0C43.9,103.9,41.6,100.6,32.6,102.2z"/>
	<path d="M66.4,81.5c1.8-4.5,3.4-7,3.4-7c2,0.1,5.2,0,7.3-0.1c5-0.3,10-2.5,10-8.5c0-4.3-5.2-6.2-9.7-6.2
		c-10.3,0-16.3,1.5-22.1,13.2c-4.8,9.5-9.8,23.7-9.8,33c0,8,6.4,12.1,13.7,12.1c6.6,0,16.2-2.5,16.2-11.2c0-3.6-2.8-5.4-7.1-5.5
		c-3.8-0.1-6,0.4-9,1.2c0.9-3.6,2-7,2.6-8.6l0,0c7.6,1.4,13.9,0.9,16-6.3C79.5,82.3,75.6,80.2,66.4,81.5z"/>
	<path d="M171.9,50C171.9,50,171.9,50,171.9,50c-2.4,0-4.3,1.9-4.3,4.3c0,0,0,0,0,0c0,2.4,1.9,4.3,4.3,4.3c0,0,0,0,0,0
		c2.4,0,4.3-1.9,4.3-4.3c0,0,0,0,0,0C176.2,51.9,174.3,50,171.9,50z M171.9,57.8c-1.9,0-3.5-1.6-3.5-3.5c0,0,0,0,0,0
		c0-1.9,1.5-3.5,3.4-3.5c0,0,0,0,0,0c1.9,0,3.5,1.5,3.5,3.5C175.4,56.2,173.8,57.8,171.9,57.8z"/>
	<path d="M172.6,54.6L172.6,54.6c0.8-0.1,1.2-0.6,1.2-1.3c0-0.7-0.5-1.2-1.4-1.2h-2.2v4.5h0.9l0-1.8l0.2,0c0.4,0,0.6,0,0.7,0.2
		c0.2,0.3,0.4,0.6,0.6,0.9l0.4,0.7l1.1,0l-0.5-0.9C173.2,54.9,173,54.7,172.6,54.6z M171.1,54v-1.2l0.8,0c0.6,0,0.9,0.2,0.9,0.6
		c0,0.3-0.2,0.6-0.8,0.6H171.1z"/>
</g>
</svg>
