<?xml version="1.0" encoding="utf-8"?>
<!-- Generator: Adobe Illustrator 28.1.0, SVG Export Plug-In . SVG Version: 6.00 Build 0)  -->
<svg version="1.1" id="Layer_1" xmlns="http://www.w3.org/2000/svg" xmlns:xlink="http://www.w3.org/1999/xlink" x="0px" y="0px"
	 viewBox="0 0 320 320" style="enable-background:new 0 0 320 320;" xml:space="preserve">
<g>
	<path d="M247.86,0H72.14C32.3,0,0,32.3,0,72.14v175.72C0,287.7,32.3,320,72.14,320h175.72c39.84,0,72.14-32.3,72.14-72.14V72.14
		C320,32.3,287.7,0,247.86,0z M243.79,198.19c-22.38,25.77-72.43,57.16-83.82,61.95c-11.39,4.79-9.71-3.06-9.24-5.76
		c0.27-1.6,1.52-9.13,1.52-9.13c0.36-2.72,0.73-6.95-0.35-9.65c-1.19-2.97-5.92-4.51-9.4-5.26c-51.22-6.77-89.22-42.62-89.22-85.42
		c0-47.74,47.86-86.58,106.69-86.58c58.83,0,106.69,38.84,106.69,86.58C266.66,164,259.25,181.24,243.79,198.19z"/>
	<path d="M231.16,121.94h-30c-1.1,0-2,0.9-2,2v46.55c0,1.1,0.9,2,2,2h30c0.02,0,0.05,0,0.07,0c1.1-0.04,1.97-0.96,1.93-2.07v-7.56
		c0-1.1-0.9-2-2-2h-20.37V153h20.37c1.1,0,2-0.9,2-2v-7.64c0-1.1-0.9-2-2-2h-20.37v-7.85h20.37c1.1,0,2-0.9,2-2v-7.57
		C233.16,122.84,232.26,121.94,231.16,121.94z"/>
	<path d="M120.29,160.93H99.92v-37c0-1.1-0.9-2-2-2h-7.6c-1.1,0-2,0.9-2,2v46.53c0,1.1,0.9,2,2,2h30l-0.03,0.03c1.1,0,2-0.9,2-2
		v-7.56C122.29,161.83,121.39,160.93,120.29,160.93z"/>
	<path d="M138.33,121.85h-7.56c-1.13,0-2.04,0.91-2.04,2.04v46.56c0,1.13,0.91,2.04,2.04,2.04h7.56c1.13,0,2.04-0.91,2.04-2.04
		v-46.56C140.37,122.76,139.46,121.85,138.33,121.85z"/>
	<path d="M189.88,121.85c-0.01,0-0.03,0-0.04,0h-7.56c-1.1,0-2,0.9-2,2v27.66l-21.3-28.77c-0.05-0.08-0.11-0.15-0.17-0.21
		l-0.12-0.12l-0.11-0.09h-0.06l-0.11-0.08h-0.06l-0.11-0.06h-0.07h-0.11h-0.07h-0.12h-0.08h-0.12h-0.08h-0.11h-7.71
		c-1.1,0-2,0.9-2,2v46.56c0,1.1,0.9,2,2,2h7.57c1.1,0,2-0.9,2-2v-27.93l21.33,28.8c0.14,0.2,0.32,0.38,0.52,0.52l0.12,0.08h0.06
		l0.1,0.05h0.1h0.07h0.14c0.18,0.04,0.36,0.07,0.54,0.07h7.52c1.1,0,2-0.9,2-2v-46.44C191.86,122.79,190.98,121.87,189.88,121.85z"
		/>
</g>
</svg>
