<?xml version="1.0" encoding="utf-8"?>
<!-- Generator: Adobe Illustrator 28.1.0, SVG Export Plug-In . SVG Version: 6.00 Build 0)  -->
<svg version="1.1"
	 id="svg2" xmlns:svg="http://www.w3.org/2000/svg" xmlns:sodipodi="http://sodipodi.sourceforge.net/DTD/sodipodi-0.dtd" xmlns:inkscape="http://www.inkscape.org/namespaces/inkscape" xmlns:cc="http://creativecommons.org/ns#" xmlns:dc="http://purl.org/dc/elements/1.1/" xmlns:rdf="http://www.w3.org/1999/02/22-rdf-syntax-ns#"
	 xmlns="http://www.w3.org/2000/svg" xmlns:xlink="http://www.w3.org/1999/xlink" x="0px" y="0px" viewBox="0 0 72 72"
	 style="enable-background:new 0 0 72 72;" xml:space="preserve">
<defs>
	
		<inkscape:perspective  id="perspective34" inkscape:persp3d-origin="509.375 : 408.33333 : 1" inkscape:vp_x="0 : 612.5 : 1" inkscape:vp_y="0 : 1000 : 0" inkscape:vp_z="1018.75 : 612.5 : 1" sodipodi:type="inkscape:persp3d">
		</inkscape:perspective>
</defs>
<sodipodi:namedview  bordercolor="#666666" borderopacity="1.0" gridtolerance="10.0" guidetolerance="10.0" id="base" inkscape:current-layer="svg2" inkscape:cx="115.71298" inkscape:cy="159.12537" inkscape:document-rotation="0" inkscape:pageopacity="0.0" inkscape:pageshadow="2" inkscape:window-height="1001" inkscape:window-maximized="1" inkscape:window-width="1920" inkscape:window-x="1911" inkscape:window-y="-9" inkscape:zoom="2.1334422" objecttolerance="10.0" pagecolor="#ffffff" showgrid="false">
	</sodipodi:namedview>
<g id="path33">
	<path id="path5" d="M49.7,7.9c4.9,0,9.9,0,14.8,0c0,1.1,0,2.2,0,3.3c-1.3,0.1-2.5,0.2-3.7,0.7c-1.2,0.5-2.2,1.5-2.7,2.7
		c-6,14.1-12,28.3-18,42.4c-0.1,0.2-0.2,0.5-0.3,0.7c-2.2,0-4.3,0-6.5,0c-0.9-1.9-1.9-3.8-2.8-5.7c-1.1,2.9-2.2,5.9-3.3,8.8
		c7.1,0,14.2,0,21.3,0c1.3,0,2.6,0,3.9-0.5c2-0.8,3.6-2.4,4.9-4.1c1.6-2.1,2.8-4.4,3.8-6.7c1.2,0,2.4,0,3.6,0
		c-2.3,4.9-4.6,9.7-6.8,14.5c-16.3,0-32.7,0-49,0c0.4-1,0.8-2.1,1.2-3.1c0-0.1,0.2-0.1,0.2-0.1c2,0,4.1-0.1,6.1-0.5
		c1-0.2,2.1-0.6,2.9-1.3c0.4-0.4,0.6-1,0.7-1.5c1.9-5.2,3.9-10.3,5.8-15.5c-4.1-8.7-8.2-17.4-12.3-26.1c-0.3-0.8-0.8-1.5-1.4-2
		c-1.4-1.1-3.3-1.2-5-1.3c0-1.2,0-2.5,0-3.7c5.7,0,11.5,0,17.2,0c0,1.2,0,2.5,0,3.7c-0.7,0-1.5,0-2.2,0.4c-0.3,0.2-0.5,0.6-0.4,0.9
		c0.1,0.6,0.6,1,0.8,1.6c2.4,5.2,4.8,10.4,7.3,15.7c1.2-3.4,2.4-6.8,3.7-10.2c0.2-0.5,0.2-1,0-1.5c-0.2-0.4-0.5-0.6-0.9-0.8
		c-0.7-0.3-1.5-0.3-2.2-0.3c0.4-1.1,0.8-2.1,1.2-3.2c0.1-0.1,0.2,0,0.3,0c5.8,0,11.6,0,17.5,0c-0.4,1.1-0.8,2.1-1.2,3.2
		c-1.4,0.1-2.8,0.1-4.2,0.6c-0.6,0.3-1.2,0.6-1.5,1.2c-0.2,0.4-0.4,0.9-0.6,1.3c-2.4,6.6-4.9,13.3-7.3,19.9c1.3,3,2.7,6,4.1,9
		c4.9-11.7,9.9-23.3,14.8-35c0.3-0.7,0.9-1.3,0.9-2.1c0-0.6-0.4-1.2-1-1.4c-1.2-0.5-2.5-0.6-3.7-0.6C49.7,10.1,49.7,9,49.7,7.9z"/>
</g>
</svg>
