<?xml version="1.0" encoding="utf-8"?>
<!-- Generator: Adobe Illustrator 28.1.0, SVG Export Plug-In . SVG Version: 6.00 Build 0)  -->
<svg version="1.1" id="Layer_1" xmlns="http://www.w3.org/2000/svg" xmlns:xlink="http://www.w3.org/1999/xlink" x="0px" y="0px"
	 viewBox="0 0 360 180" style="enable-background:new 0 0 360 180;" xml:space="preserve">
<g>
	<path d="M36,122.7h11.3V93.3c0-5.8,3.8-10,9.2-10c5.3,0,8.6,3.3,8.6,8.7v30.7h11V93c0-5.7,3.7-9.7,9.2-9.7c5.5,0,8.6,3.4,8.6,9.2
		v30.1h11.3V89.8c0-9.6-6.2-16-15.7-16c-6.9,0-12.7,3.7-15,9.6h-0.3c-1.8-6.1-6.6-9.6-13.4-9.6c-6.5,0-11.6,3.7-13.7,9.2h-0.2v-8.3
		H36V122.7L36,122.7z M129.8,114.9c-4.9,0-8.2-2.5-8.2-6.4c0-3.8,3.2-6.2,8.5-6.6l11.1-0.7v3.7C141.4,110.7,136.2,114.9,129.8,114.9
		L129.8,114.9z M126.5,123.5c6.2,0,12.2-3.2,15-8.4h0.2v7.7h10.9V89.6c0-9.6-7.8-15.9-19.7-15.9c-12.3,0-19.9,6.4-20.4,15.4h10.5
		c0.7-4,4.1-6.6,9.5-6.6c5.6,0,9,2.9,9,7.9v3.4l-12.7,0.7c-11.7,0.7-18.3,5.8-18.3,14.3C110.4,117.6,117.1,123.5,126.5,123.5
		L126.5,123.5z M202.1,91.8c-0.8-10.1-8.6-18.1-21.3-18.1c-13.9,0-23.1,9.6-23.1,25c0,15.6,9.1,24.9,23.1,24.9
		c12,0,20.4-7.1,21.3-17.8h-10.6c-1.1,5.5-4.8,8.7-10.5,8.7c-7.1,0-11.8-5.8-11.8-15.9c0-9.8,4.6-15.9,11.7-15.9
		c6,0,9.6,3.8,10.5,8.9L202.1,91.8L202.1,91.8z M237,56.2c-19.1,0-31.1,13-31.1,33.8s12,33.8,31.1,33.8c19.1,0,31-12.9,31-33.8
		S256,56.2,237,56.2z M237,66.2c11.6,0,19.1,9.2,19.1,23.8c0,14.5-7.4,23.8-19.1,23.8c-11.7,0-19.1-9.2-19.1-23.8
		C217.9,75.5,225.3,66.2,237,66.2z M272.8,104.3c0.5,12,10.4,19.5,25.4,19.5c15.8,0,25.8-7.8,25.8-20.2c0-9.7-5.6-15.2-18.9-18.2
		l-7.5-1.7c-8-1.9-11.4-4.4-11.4-8.8c0-5.5,5-9.1,12.4-9.1c7.5,0,12.6,3.7,13.2,9.8h11.1c-0.2-11.5-9.8-19.3-24.2-19.3
		c-14.2,0-24.4,7.8-24.4,19.4c0,9.3,5.7,15.1,17.8,17.9l8.5,2c8.3,2,11.6,4.7,11.6,9.4c0,5.5-5.5,9.3-13.4,9.3c-8,0-14-3.9-14.7-10
		L272.8,104.3L272.8,104.3z"/>
</g>
</svg>
