<?xml version="1.0" encoding="utf-8"?>
<!-- Generator: Adobe Illustrator 28.1.0, SVG Export Plug-In . SVG Version: 6.00 Build 0)  -->
<svg version="1.1"
	 id="svg8" xmlns:svg="http://www.w3.org/2000/svg" xmlns:sodipodi="http://sodipodi.sourceforge.net/DTD/sodipodi-0.dtd" xmlns:inkscape="http://www.inkscape.org/namespaces/inkscape" xmlns:cc="http://creativecommons.org/ns#" xmlns:dc="http://purl.org/dc/elements/1.1/" xmlns:rdf="http://www.w3.org/1999/02/22-rdf-syntax-ns#"
	 xmlns="http://www.w3.org/2000/svg" xmlns:xlink="http://www.w3.org/1999/xlink" x="0px" y="0px" viewBox="0 0 360 180"
	 style="enable-background:new 0 0 360 180;" xml:space="preserve">
<g>
	
		<sodipodi:namedview  bordercolor="#666666" borderopacity="1.0" fit-margin-bottom="0" fit-margin-left="0" fit-margin-right="0" fit-margin-top="0" id="base" inkscape:current-layer="layer1" inkscape:cx="369.11872" inkscape:cy="90.308756" inkscape:document-units="mm" inkscape:pageopacity="0.0" inkscape:pageshadow="2" inkscape:window-height="744" inkscape:window-maximized="1" inkscape:window-width="1280" inkscape:window-x="-4" inkscape:window-y="-4" inkscape:zoom="0.65212073" pagecolor="#ffffff" showgrid="false">
		</sodipodi:namedview>
	<g id="layer1" transform="translate(170.32591,-246.02742)" inkscape:groupmode="layer" inkscape:label="Layer 1">
		<g id="g545" transform="translate(0.9999948,-1.000008)">
			<path id="path386" inkscape:connector-curvature="0" d="M-104.6,354.8c-1.3,1.2-3.3,1.6-4.5,1.8c-2.5,0.3-5-0.5-6.6-2.5
				c-1.3-1.6-2-3.7-3.3-5.3c-2.1-2.6-5.3-4.3-8.7-3.7c-6.7,1.2-9.7,9-5.9,14.4c5.4,7.7,17.6,6.4,23.8,1
				C-107.9,358.9-106.1,357-104.6,354.8"/>
			<path id="path388" inkscape:connector-curvature="0" d="M122,354.8c1.3,1.2,3.3,1.6,4.5,1.8c2.5,0.3,5-0.5,6.6-2.5
				c1.3-1.6,2-3.7,3.3-5.3c2.1-2.6,5.3-4.3,8.7-3.7c6.7,1.2,9.7,9,5.9,14.4c-5.4,7.7-17.6,6.4-23.8,1
				C125.3,358.9,123.5,357,122,354.8"/>
			<path id="path390" inkscape:connector-curvature="0" d="M99.7,313.6c-0.2,0-16.1,0-16.3,0c-1.7,0.1-3.2,1.7-3.3,3.3
				c-0.1,1.8,1.4,3.5,3.3,3.6c0.2,0,16.1,0,16.3,0c1.7-0.1,3.2-1.7,3.3-3.3C103.1,315.5,101.5,313.7,99.7,313.6"/>
			<path id="path392" inkscape:connector-curvature="0" d="M-1.9,348.3c-0.2-0.9-0.3-1.8-0.4-2.7c0-1.3,0-3.2,0-4.9
				c0.2-5.9,1.3-16.3-6.7-16.3c-5.4,0-8.6,4.6-9.5,6c-0.1-4.1-3.4-7.2-8.4-7.2c-3.2,0-5.1,2.5-5.1,2.5s3.1,1.1,3.1,5.3
				c0,3,0,17.6,0,17.6c0.1,2.6,1.9,5,5.2,5s5.2-2.5,5.2-5v-12.9c0.5-2.1,1.6-4.3,3.4-4.3c2.3,0,2.5,2.6,2.5,2.6l0,12.5
				c0,0.4,0.1,0.8,0.1,1.2c0.1,0.7,0.3,1.3,0.6,1.8c1.2,2.5,4,4.2,7.7,4.2c3.2,0,5.1-2.5,5.1-2.5S-1.1,350.5-1.9,348.3"/>
			<path id="path394" inkscape:connector-curvature="0" d="M75,348.3c-0.2-0.9-0.3-1.8-0.4-2.7l0-31c0-3-2.4-5.5-5.5-5.5
				s-5.5,2.4-5.5,5.5l0,27.4c0,2.5-0.2,5,0.9,7.3c1.2,2.5,4.3,4.5,8,4.5c3.2,0,5.1-2.5,5.1-2.5S75.9,350.5,75,348.3"/>
			<path id="path396" inkscape:connector-curvature="0" d="M-46.9,324.1c-8.2,0-14.8,6.6-14.8,14.8c0,8.2,6.6,14.8,14.8,14.8
				c8.2,0,14.8-6.6,14.8-14.8C-32,330.7-38.7,324.1-46.9,324.1 M-46.7,347.4L-46.7,347.4C-46.8,347.4-46.8,347.4-46.7,347.4
				C-46.8,347.4-46.8,347.4-46.7,347.4L-46.7,347.4c-2.9-0.1-4.3-3.3-4.3-8.5c0-5.2,1.8-8.5,4.2-8.5l0,0c0,0,0,0,0,0c0,0,0,0,0,0
				l0,0c2.4,0.1,4.2,3.3,4.2,8.5C-42.5,344.2-43.9,347.4-46.7,347.4"/>
			<path id="path398" inkscape:connector-curvature="0" d="M31.4,348.3c-0.2-0.9-0.3-1.8-0.4-2.7l0-31c0-3-2.4-5.5-5.5-5.5
				c-3,0-5.5,2.4-5.5,5.5l0,14.7c-1.3-1.8-4.2-4.9-8.8-4.9c-12.5,0-13.3,22.3-4.7,27.8c2.4,1.6,6.1,2,8.8,1.2
				c1.9-0.5,4.9-2.4,5.4-4.6c0.1,0.2,0.1,0.3,0.2,0.5c1.2,2.5,4.3,4.5,8,4.5c3.2,0,5.1-2.5,5.1-2.5S32.2,350.5,31.4,348.3
				 M15.1,346.5L15.1,346.5C15.1,346.5,15.1,346.5,15.1,346.5C15.1,346.5,15.1,346.5,15.1,346.5L15.1,346.5c-2.9,0-4.3-2.8-4.3-7.4
				s1.8-7.4,4.2-7.4v0c0,0,0,0,0,0c0,0,0,0,0,0v0c2.4,0.1,4.2,2.9,4.2,7.4S17.9,346.4,15.1,346.5"/>
			<path id="path400" inkscape:connector-curvature="0" d="M59.8,344.6c0,0-1.6,2.2-7.8,2.2s-7.5-4.8-7.5-4.8c9,0,16.6-0.6,16.6-7.9
				c0-7.3-8.3-9.7-13.2-9.7c-8.1,0-14,6.5-14,15c0,9.6,7.7,14.5,14.1,14.5C59.2,353.7,59.8,344.6,59.8,344.6L59.8,344.6z
				 M43.8,337.2c0.3-2.3,0.9-5.3,3-6.6c1.7-1.1,4.2,0.2,4.2,2.3c0,2.3-1.4,3.9-3.5,4.3C47.3,337.3,43.8,337.5,43.8,337.2"/>
			<path id="path402" inkscape:connector-curvature="0" d="M103.4,344.6c0,0-1.6,2.2-7.8,2.2c-6.2,0-7.5-4.8-7.5-4.8
				c9,0,16.6-0.6,16.6-7.9c0-7.3-8.3-9.7-13.2-9.7c-8.1,0-14,6.5-14,15c0,9.6,7.7,14.5,14.1,14.5
				C102.9,353.7,103.4,344.6,103.4,344.6L103.4,344.6z M87.5,337.2c0.3-2.3,0.9-5.3,3-6.6c1.7-1.1,4.2,0.2,4.2,2.3
				c0,2.3-1.4,3.9-3.5,4.3C90.9,337.3,87.4,337.5,87.5,337.2"/>
			<path id="path404" inkscape:connector-curvature="0" d="M123.9,345.4h-6.2c0.5,0,5.1-3.9,6.6-5.2c4-3.4,11.2-8.3,9.1-14.6l0,0
				c-0.4-1.5-1.5-2.4-1.5-2.4s-0.4,1.2-1.9,1.8c-0.6,0.1-1.2,0.3-1.8,0.3c-0.5,0-17.4,0-17.4,0c-2.3,0-4.2,1.8-4.2,4
				c0,2.2,1.8,3.9,4.1,4l9.8,0.1c-4.6,2.5-10,5.6-12.8,10.2c-1.6,2.6-3.3,6.7-2.6,9.8c2.2-1.9,7.9-3.8,12.3-2.9
				c1.6,0.3,3.4,1.2,4.8,2.1c8.2,5.1,13.1-4.9,9.2-9.3C131.3,343.2,129,345.4,123.9,345.4"/>
			<path id="path406" inkscape:connector-curvature="0" d="M-60.9,351.6c-5-5.5-6.6-14.7-6.9-20.8c-0.3-5.3,0-14.4,4.2-17
				c-1.4-1.7-4.1-2.4-6.2-2.4c-4.7,0-6.9,3.1-8.5,5.4c-0.5,0.7-8.4,11.6-8.4,11.6s-6.6-10.2-7.4-11.5c-1.1-1.7-3.2-4.8-6.9-5.4
				c-1.6-0.2-5.7-0.4-8,2.6c3.9,3.1,3.8,11,2.9,16.4c-2.5,16.2-9.4,17.7-9.4,17.7c3.5,9.5,12.6,5.8,15.2-1.8
				c1.7-4.9,2.7-11.2,3-16.4l10,15.3c0,0,11.3-15.2,11.3-15.2c-1.9,27,7.4,34.6,15.5,34.6c8.1,0,10.9-7.4,10.9-7.4
				C-54.2,356.9-58,354.7-60.9,351.6"/>
		</g>
	</g>
</g>
</svg>
