<?xml version="1.0" encoding="utf-8"?>
<!-- Generator: Adobe Illustrator 28.1.0, SVG Export Plug-In . SVG Version: 6.00 Build 0)  -->
<svg version="1.1" id="Layer_1" xmlns="http://www.w3.org/2000/svg" xmlns:xlink="http://www.w3.org/1999/xlink" x="0px" y="0px"
	 viewBox="0 0 360 180" style="enable-background:new 0 0 360 180;" xml:space="preserve">
<g>
	<path d="M142.2,83c-5.6,0-9,4.1-9,11.3c0,6.6,3,11.6,9,11.6c5.7,0,9.4-4.6,9.4-11.8C151.4,86.5,147.3,83,142.2,83z"/>
	<path d="M36,43.8v92.4h288V43.8H36z M101.6,113.5V92c0-6.6-2.2-9.1-6.5-9.1c-5.2,0-7.3,3.7-7.3,9v13.3h5v8.3H76.9V92
		c0-6.6-2.2-9.1-6.5-9.1c-5.2,0-7.3,3.7-7.3,9v13.3h7.2v8.3H47.1v-8.3h5.1V83.7h-5.5v-8.3H63v5.7c2.3-4,6.2-6.5,11.6-6.5
		c5.5,0,10.5,2.6,12.4,8.2c2.1-5.1,6.4-8.2,12.4-8.2c6.8,0,13.1,4.1,13.1,13.2v17.4h5.1l0,8.3C117.5,113.5,101.6,113.5,101.6,113.5z
		 M141.7,114.3L141.7,114.3c-11.7,0-19.8-7.2-19.8-19.3c0-11.1,6.8-20.3,20.4-20.3s20.3,9.2,20.3,19.8
		C162.7,106.6,153.9,114.3,141.7,114.3z M202.3,113.5h-33.2l-1.1-5.7l20.9-24.1H177l-1.7,5.9l-7.9-0.8l1.3-13.3h33.5l0.8,5.7
		L182,105.2h12.3l1.8-5.9l8.6,0.8L202.3,113.5z M222.9,113.5h-11.4V99.8h11.4V113.5z M222.9,89.1h-11.4V75.4h11.4V89.1z
		 M228.9,113.5l16.5-58h10.7l-16.5,58H228.9z M251,113.5l16.5-58h10.7l-16.4,58H251z M307.7,114.3L307.7,114.3c-5.1,0-7.9-3-8.4-7.6
		c-2.2,3.9-6.1,7.6-12.2,7.6c-5.5,0-11.7-3-11.7-10.9c0-9.4,9-11.6,17.7-11.6c2.1,0,4.2,0.1,6.2,0.3v-1.3c0-3.9-0.1-8.5-6.2-8.5
		c-2.3,0-4.1,0.2-5.8,1.1l-1.4,5.4l-8.7-0.9l1.7-9.9c6.7-2.7,10-3.5,16.3-3.5c8.2,0,15.1,4.2,15.1,12.9v16.5c0,2.2,0.8,3,2.6,3
		c0.5,0,1.1-0.1,1.6-0.3l0.1,5.7C312.5,113.7,310.1,114.3,307.7,114.3z"/>
	<path d="M286.6,102.2c0,2.4,1.2,4.4,4.5,4.4c3.9,0,8-2.8,8.3-9.1c-1.8-0.3-3.6-0.5-5.5-0.5C290,96.9,286.6,98,286.6,102.2z"/>
</g>
</svg>
