<?xml version="1.0" encoding="utf-8"?>
<!-- Generator: Adobe Illustrator 28.1.0, SVG Export Plug-In . SVG Version: 6.00 Build 0)  -->
<svg version="1.1" id="Layer_1" xmlns="http://www.w3.org/2000/svg" xmlns:xlink="http://www.w3.org/1999/xlink" x="0px" y="0px"
	 viewBox="0 0 360 180" style="enable-background:new 0 0 360 180;" xml:space="preserve">
<g>
	<path d="M227.6,51.3v56.4c7,0.3,13.9,0.7,20.8,1.2v11.9c-10.9-0.7-21.9-1.3-32.9-1.7V51.3H227.6z M324,51.3l-15.8,36.6l15.8,40.7
		l0,0c-4.6-0.7-9.2-1.3-13.8-1.9l-8.9-22.9l-8.9,20.7c-4.2-0.5-8.5-0.9-12.7-1.3L295,87.7l-14.1-36.4H294l7.9,20.4l8.8-20.4
		C310.7,51.3,324,51.3,324,51.3z M173.9,118.5V51.3h33.9v12.1H186V79h16.4V91H186v27.6H173.9z M128.6,63.4V51.3h37.5v12.1h-12.7
		v55.5c-4,0.1-8.1,0.2-12.1,0.4V63.4H128.6z M87.1,122.7V51.3h33.7v12.1H99.2v16.3c5-0.1,12-0.1,16.4-0.1v12
		c-5.5-0.1-11.7,0.1-16.4,0.1v18.1c7.2-0.6,14.4-1.1,21.6-1.5v12C109.5,120.9,98.3,121.7,87.1,122.7z M63.3,95.1V51.3h12.1v72.5
		c-4.4,0.5-8.9,0.9-13.3,1.5L48.1,85V127c-4,0.5-8.1,1.1-12.1,1.7V51.3h11.5L63.3,95.1z M258.4,121.5L258.4,121.5V51.3h12.1v71.2
		C266.5,122.2,262.5,121.8,258.4,121.5z"/>
</g>
</svg>
