<?xml version="1.0" encoding="utf-8"?>
<!-- Generator: Adobe Illustrator 28.1.0, SVG Export Plug-In . SVG Version: 6.00 Build 0)  -->
<svg version="1.1" id="Layer_1" xmlns="http://www.w3.org/2000/svg" xmlns:xlink="http://www.w3.org/1999/xlink" x="0px" y="0px"
	 viewBox="0 0 360 180" style="enable-background:new 0 0 360 180;" xml:space="preserve">
<g>
	<path d="M286.4,54.5H73.6C51.1,54.5,36,70.7,36,90.1c0,19.4,15.1,35.4,37.7,35.4h212.7c22.6,0,37.7-16,37.7-35.4
		C324,70.7,308.9,54.5,286.4,54.5z M286.3,116.8H73.7c-17.9,0.1-28.9-12-28.9-26.8c0-14.8,11-26.7,28.9-26.8l0,0h212.5
		c17.9,0,28.9,12,28.9,26.8C315.1,104.8,304.2,116.8,286.3,116.8z"/>
	<path d="M139,83.4L139,83.4c-3,0.1-5.8,1.3-8,3.3c0-0.5,0-2.3,0-2.3l-10,0l0,22.2h10l0-14.6c0-1.9,2-4.1,4.8-4.1
		c2.7,0,4.6,2.2,4.6,4.1v14.6h10c0,0,0-10.5,0-12.1C150.4,85.8,142.7,83.3,139,83.4z"/>
	<rect x="105.4" y="73.2" width="10.1" height="6.8"/>
	<polygon points="171.3,84.5 171.3,81.2 165.9,81.2 165.9,76.7 155.8,76.7 155.8,81.2 150.4,81.2 150.4,84.5 155.8,84.5 
		155.8,106.6 165.9,106.6 165.9,84.5 	"/>
	<polygon points="89.4,96.5 75,73.2 64.6,73.2 64.6,106.6 74.9,106.6 74.9,83.4 89.4,106.6 99.7,106.6 99.7,73.2 89.4,73.2 	"/>
	<rect x="105.4" y="84.4" width="10" height="22.2"/>
	<path d="M199.6,95.6c0-6.9-6.6-12.6-14.8-12.6c-8.2,0-14.8,5.6-14.8,12.5c0,6.9,6.6,12.5,14.8,12.5c6.8,0,12.5-3.9,14.3-9.1l-10,0
		l0,0c0,0,0,0.1,0,1.3c0,4.1-2.7,5-4.2,5c-1.5,0-4.2-0.9-4.2-5c0-1.2,0-4.6,0-4.6S199.6,95.6,199.6,95.6z M180.7,92.2
		c0-1.9,0-3.2,0.7-4.4c0.8-1.4,2.2-2,3.5-2c1.3,0,2.7,0.7,3.5,2c0.6,1.1,0.7,2.4,0.7,4.4H180.7L180.7,92.2z"/>
	<path d="M281.4,82.9L281.4,82.9c-8.1,0-14.7,5.6-14.7,12.5c0,6.9,6.6,12.5,14.7,12.5c8.1,0,14.7-5.6,14.7-12.5
		C296.1,88.5,289.6,82.9,281.4,82.9z M281.4,105.1c-2,0-4.1-1.5-4.1-5c0-1.3,0-4.8,0-4.8s0-3.3,0-4.6c0-3.5,2.1-5,4.1-5
		s4.1,1.5,4.1,5c0,1.3,0,3.8,0,4.7c0,0.2,0,3.4,0,4.7C285.5,103.6,283.4,105.1,281.4,105.1z"/>
	<path d="M253.6,85.5c-1.6-0.9-3.3-1.8-5.7-2c-7.2-0.6-12.8,5.8-12.8,11.6c0,7.7,6,10.6,6.9,11c3.4,1.6,7.7,1.6,11.6-0.8l0,1.3h9.9
		V73.2h-9.9L253.6,85.5z M253.7,95.4v3.9c0,3.4-2.4,4.3-3.9,4.3c-1.6,0-3.9-0.9-3.9-4.3c0-1.2,0-3.9,0-3.9s0-2.8,0-4
		c0-3.4,2.3-4.3,3.9-4.3c1.6,0,3.9,0.9,3.9,4.3V95.4z"/>
	<path d="M301.3,75.7c0-1.5-0.9-2.2-2.7-2.2h-2.9v7.6h1.2l0,0v-3.3h1.3l2,3.3h1.3l-2.2-3.3C300.4,77.7,301.3,77.1,301.3,75.7z
		 M296.8,76.9v-2.4h1.6c0.8,0,1.6,0.2,1.6,1.1c0,1.2-0.9,1.2-1.8,1.2L296.8,76.9L296.8,76.9z"/>
	<path d="M220.6,83.4L220.6,83.4c-3,0.1-5.8,1.3-8,3.3c0-0.5,0-2.3,0-2.3l-10,0l0,22.2h10l0-14.6c0-1.9,2-4.1,4.8-4.1
		s4.6,2.2,4.6,4.1v14.6h10c0,0,0-10.5,0-12.1C232,85.8,224.4,83.3,220.6,83.4z"/>
	<path d="M298.2,70.8c-3.6,0-6.7,2.8-6.7,6.6c0,3.8,3.1,6.6,6.7,6.6c3.6,0,6.7-2.8,6.7-6.6C304.9,73.6,301.8,70.8,298.2,70.8z
		 M298.2,82.9c-3,0-5.4-2.3-5.4-5.5c0-3.1,2.4-5.5,5.4-5.5c3,0,5.3,2.4,5.3,5.5C303.5,80.5,301.2,82.9,298.2,82.9z"/>
</g>
</svg>
