<?xml version="1.0" encoding="utf-8"?>
<!-- Generator: Adobe Illustrator 28.1.0, SVG Export Plug-In . SVG Version: 6.00 Build 0)  -->
<svg version="1.1" id="Layer_1" xmlns="http://www.w3.org/2000/svg" xmlns:xlink="http://www.w3.org/1999/xlink" x="0px" y="0px"
	 viewBox="0 0 72 72" style="enable-background:new 0 0 72 72;" xml:space="preserve">
<g>
	<path d="M36,64.8c-0.8,0-1.5-0.2-2.2-0.6l-7-4.2c-1.1-0.6-0.5-0.8-0.2-0.9c1.4-0.5,1.7-0.6,3.2-1.4c0.2-0.1,0.4-0.1,0.5,0.1
		l5.4,3.2c0.2,0.1,0.5,0.1,0.6,0l21.1-12.2c0.2-0.1,0.3-0.3,0.3-0.6V23.8c0-0.3-0.1-0.5-0.3-0.6L36.3,11c-0.2-0.1-0.5-0.1-0.6,0
		L14.5,23.2c-0.2,0.1-0.3,0.4-0.3,0.6v24.4c0,0.2,0.1,0.5,0.3,0.6l5.8,3.3c3.1,1.6,5.1-0.3,5.1-2.1V25.9c0-0.3,0.3-0.6,0.6-0.6h2.7
		c0.3,0,0.6,0.3,0.6,0.6V50c0,4.2-2.3,6.6-6.2,6.6c-1.2,0-2.2,0-4.9-1.3l-5.6-3.2c-1.4-0.8-2.2-2.3-2.2-3.9V23.8
		c0-1.6,0.8-3.1,2.2-3.9L33.8,7.8c1.3-0.7,3.1-0.7,4.4,0L59.3,20c1.4,0.8,2.2,2.3,2.2,3.9v24.4c0,1.6-0.8,3.1-2.2,3.9L38.2,64.3
		C37.5,64.6,36.7,64.8,36,64.8L36,64.8z M42.5,48c-9.3,0-11.2-4.2-11.2-7.8c0-0.3,0.3-0.6,0.6-0.6h2.8c0.3,0,0.6,0.2,0.6,0.5
		c0.4,2.8,1.6,4.2,7.3,4.2c4.4,0,6.3-1,6.3-3.4c0-1.4-0.5-2.4-7.5-3.1c-5.8-0.6-9.4-1.9-9.4-6.5c0-4.3,3.6-6.8,9.6-6.8
		c6.8,0,10.1,2.3,10.5,7.4c0,0.2-0.1,0.3-0.2,0.5c-0.1,0.1-0.3,0.2-0.4,0.2h-2.8c-0.3,0-0.5-0.2-0.6-0.5c-0.6-2.9-2.3-3.9-6.6-3.9
		c-4.9,0-5.5,1.7-5.5,3c0,1.5,0.7,2,7.3,2.9c6.5,0.8,9.6,2.1,9.6,6.6C53,45.4,49.2,48,42.5,48L42.5,48z"/>
</g>
</svg>
