<?xml version="1.0" encoding="utf-8"?>
<!-- Generator: Adobe Illustrator 28.1.0, SVG Export Plug-In . SVG Version: 6.00 Build 0)  -->
<svg version="1.1" id="Layer_1" xmlns="http://www.w3.org/2000/svg" xmlns:xlink="http://www.w3.org/1999/xlink" x="0px" y="0px"
	 viewBox="0 0 72 72" style="enable-background:new 0 0 72 72;" xml:space="preserve">
<g>
	<path d="M63.6,18.9C63.6,18.8,63.6,18.8,63.6,18.9c0-0.1,0-0.2,0-0.2c0,0,0-0.1,0-0.1c0,0,0-0.1,0-0.1c0,0,0-0.1,0-0.1
		c0,0,0-0.1,0-0.1c0,0,0-0.1,0-0.1c0,0,0-0.1,0-0.1c0,0,0-0.1,0-0.1c0,0,0-0.1,0-0.1c0,0,0,0,0-0.1c0,0,0-0.1-0.1-0.1
		c0,0,0,0-0.1-0.1c0,0,0,0-0.1-0.1c0,0,0,0-0.1-0.1c0,0,0,0-0.1-0.1c0,0,0,0-0.1-0.1c0,0-0.1-0.1-0.1-0.1c0,0-0.1,0-0.1-0.1
		c0,0-0.1-0.1-0.1-0.1c0,0-0.1,0-0.1-0.1c0,0-0.1-0.1-0.1-0.1c0,0,0,0-0.1-0.1c-0.1,0-0.1-0.1-0.2-0.2l0,0c-0.2-0.2-0.4-0.3-0.7-0.5
		c0,0-0.1-0.1-0.1-0.1L51.2,9c-2.5-1.8-3.5-2-7.4-1.7L11.9,9.7c-2.6,0.2-3.5,1.9-3.5,3.9v34.9c0,1.6,0.6,2.9,1.9,4.7l7.5,9.7
		c1.2,1.6,2.3,1.9,4.7,1.8l37-2.2c3-0.2,4-1.6,4-3.9c0-0.1,0-0.2,0-0.2V19.1C63.6,19,63.6,18.9,63.6,18.9z M17.9,17.3l-4.4-3.5
		c-0.4-0.5-0.2-1,0.9-1.1l30.6-2.2c2.6-0.2,3.9,0.7,4.9,1.5l5.3,3.8c0.2,0.1,0.8,0.8,0.1,0.8l-31.6,1.9l-0.4,0
		C20.3,18.6,19.7,18.7,17.9,17.3z M59.8,55.6c0,1.5-0.2,2.7-2.2,2.8l-34.8,2c-2,0.1-2.9-0.6-2.9-2.4V24.7c0-1.5,0.4-2.1,1.8-2.2
		L58,20.3c1.2-0.1,1.8,0.7,1.8,2.1V55.6z"/>
	<path d="M46.5,26.9c-1.1,0.1-2,1-1.8,2.2l2.9,0.3V45L36.2,27.5L27.9,28c-1.6,0.1-2.1,1.6-1.9,2.6l2.8,0.2v22.1l-2,0.6
		c-0.8,0.2-1,1.3-0.8,1.8l7.7-0.4c2.8,0,2.8-2,2.8-2L33,52V35.3l11,17.2c1.3,1.7,1.8,2.2,3.6,2.2c1.1,0,2.5-0.4,3.9-1.2V28.9
		l1.7-0.3c1-0.1,1.2-1.1,1-2.1L46.5,26.9z"/>
</g>
</svg>
