<?xml version="1.0" encoding="utf-8"?>
<!-- Generator: Adobe Illustrator 28.1.0, SVG Export Plug-In . SVG Version: 6.00 Build 0)  -->
<svg version="1.1" id="Layer_1" xmlns="http://www.w3.org/2000/svg" xmlns:xlink="http://www.w3.org/1999/xlink" x="0px" y="0px"
	 viewBox="0 0 72 72" style="enable-background:new 0 0 72 72;" xml:space="preserve">
<g>
	<g>
		<path d="M17.5,33.7c0,0,2.4,9.1,11.2,10.7v-2.7c-4.9-1.7-6.6-7.5-6.6-7.5s2.9-3.4,6.6-3h0v-3C21.7,29.1,17.5,33.7,17.5,33.7z"/>
		<path d="M28.7,24.9v-2.8C17.2,23,7.2,32.8,7.2,32.8s5.6,16.3,21.5,17.8v-3c-11.6-1.4-15.6-14.2-15.6-14.2S18.3,25.7,28.7,24.9
			L28.7,24.9C28.7,24.9,28.7,24.9,28.7,24.9z"/>
		<path d="M28.7,17v5.1l1-0.1c13.1-0.4,21.6,10.7,21.6,10.7s-9.8,11.9-20,11.9c-0.9,0-1.8-0.1-2.6-0.2v3.2c0.7,0.1,1.5,0.1,2.2,0.1
			c9.5,0,16.4-4.9,23-10.6c1.1,0.9,5.6,3,6.6,4c-6.3,5.3-21.1,9.6-29.4,9.6c-0.8,0-1.6,0-2.3-0.1V55h36.1V17H28.7z"/>
		<path d="M30.6,28.2c6,0,9.6,4.7,9.6,4.7L35.3,37c-2.2-3.7-2.9-5.3-6.6-5.7v10.4c0.9,0.3,1.8,0.4,2.8,0.4c7.1,0,13.8-9.2,13.8-9.2
			s-6.2-8.4-15.6-8.1c-0.3,0-0.7,0-1,0l0,0c0,0,0,0,0,0v3.4C29.3,28.3,29.9,28.2,30.6,28.2z"/>
	</g>
</g>
</svg>
