<?xml version="1.0" encoding="utf-8"?>
<!-- Generator: Adobe Illustrator 28.1.0, SVG Export Plug-In . SVG Version: 6.00 Build 0)  -->
<svg version="1.1" id="Layer_1" xmlns="http://www.w3.org/2000/svg" xmlns:xlink="http://www.w3.org/1999/xlink" x="0px" y="0px"
	 viewBox="0 0 256 260" style="enable-background:new 0 0 256 260;" xml:space="preserve">
<path d="M239.18,106.2c5.87-17.68,3.84-37.03-5.58-53.1C219.45,28.46,191,15.78,163.21,21.74C147.55,4.32,123.79-3.42,100.88,1.42
	C77.96,6.26,59.37,22.96,52.1,45.22C33.84,48.96,18.09,60.39,8.87,76.58c-14.31,24.6-11.06,55.63,8.03,76.74
	c-5.89,17.67-3.88,37.02,5.53,53.1c14.17,24.65,42.64,37.32,70.45,31.36c12.37,13.92,30.13,21.85,48.75,21.74
	c28.48,0.03,53.71-18.36,62.41-45.48c18.25-3.75,34-15.18,43.23-31.36C261.4,158.13,258.14,127.26,239.18,106.2z M204.64,46.04
	c15.47,10.79,23.31,29.55,20.11,48.14v0.2l-1.53-0.92L171.6,63.38c-2.62-1.54-5.87-1.54-8.49,0L99.98,99.81V74.59
	c-0.03-0.26,0.09-0.52,0.31-0.67l52.23-30.13C168.86,34.37,189.17,35.25,204.64,46.04z M128.07,97.3l28.19,16.22v32.43l-28.09,16.22
	l-28.19-16.22l-0.05-32.43L128.07,97.3z M65.81,65.68c0.02-18.86,10.94-36,28.02-44c17.08-8,37.24-5.4,51.74,6.65l-1.53,0.87
	L92.36,59.03c-2.62,1.53-4.23,4.33-4.25,7.37l-0.05,72.7l-21.84-12.59c-0.22-0.13-0.37-0.36-0.41-0.61V65.68z M23.55,85.13v0.26
	c5.74-9.91,14.8-17.46,25.58-21.33v61.39c-0.04,3.02,1.57,5.82,4.2,7.32l62.87,36.27l-21.84,12.64c-0.24,0.13-0.53,0.13-0.77,0
	l-52.23-30.13C18.14,138.08,10.18,108.39,23.55,85.13z M37.16,197.93c-5.7-9.84-7.75-21.38-5.78-32.59l1.53,0.92l51.72,29.83
	c2.61,1.53,5.84,1.53,8.44,0l63.18-36.43v25.22c-0.01,0.26-0.14,0.51-0.36,0.67l-52.34,30.18
	C80.31,229.13,50.59,221.17,37.16,197.93z M190.22,193.94c-0.06,26.82-21.78,48.54-48.6,48.6c-11.37,0.02-22.38-3.97-31.1-11.26
	l1.53-0.87l51.67-29.83c2.62-1.53,4.23-4.33,4.25-7.37v-72.85l21.84,12.64c0.22,0.11,0.37,0.32,0.41,0.56V193.94z M238.87,154.18
	c-1.57,18.76-13.82,34.92-31.46,41.5v-61.39c-0.09-3.01-1.76-5.75-4.4-7.21l-63.08-36.63l21.79-12.59c0.24-0.13,0.53-0.13,0.77,0
	l52.23,30.18C231.03,117.45,240.44,135.43,238.87,154.18z"/>
</svg>
