<?xml version="1.0" encoding="utf-8"?>
<!-- Generator: Adobe Illustrator 28.1.0, SVG Export Plug-In . SVG Version: 6.00 Build 0)  -->
<svg version="1.1" id="Layer_1" xmlns="http://www.w3.org/2000/svg" xmlns:xlink="http://www.w3.org/1999/xlink" x="0px" y="0px"
	 viewBox="0 0 72 72" style="enable-background:new 0 0 72 72;" xml:space="preserve">
<g>
	<path d="M53.3,13C48.4,9.3,42.5,7.2,36,7.2C20.1,7.2,7.2,20.1,7.2,36c0,6.4,2.1,12.3,5.6,17.1C32.2,47.5,47.5,32.3,53.3,13"/>
	<path d="M60.2,20.3c0.6,1.9,0.9,3.9,0.9,5.9c0,6.7-3.3,12.6-8.3,16.2c-8.7,6.4-21.4,6.4-38.9,11.9c5.3,6.3,13.2,10.3,22.1,10.3
		c15.9,0,28.8-12.9,28.8-28.8C64.8,30.2,63.1,24.9,60.2,20.3"/>
</g>
</svg>
