<?xml version="1.0" encoding="utf-8"?>
<!-- Generator: Adobe Illustrator 28.1.0, SVG Export Plug-In . SVG Version: 6.00 Build 0)  -->
<svg version="1.1" id="Layer_1" xmlns="http://www.w3.org/2000/svg" xmlns:xlink="http://www.w3.org/1999/xlink" x="0px" y="0px"
	 viewBox="0 0 72 72" style="enable-background:new 0 0 72 72;" xml:space="preserve">
<g>
	<path d="M7.2,36c0,11.8,7.1,21.9,17.2,26.4c-0.1-2,0-4.4,0.5-6.6c0.6-2.3,3.7-15.7,3.7-15.7s-0.9-1.8-0.9-4.6
		c0-4.3,2.5-7.5,5.6-7.5c2.6,0,3.9,2,3.9,4.3c0,2.6-1.7,6.6-2.5,10.2c-0.7,3.1,1.5,5.5,4.5,5.5c5.5,0,9.1-7,9.1-15.3
		c0-6.3-4.3-11-12-11c-8.7,0-14.2,6.5-14.2,13.8c0,2.5,0.7,4.3,1.9,5.6c0.5,0.6,0.6,0.9,0.4,1.6c-0.1,0.5-0.5,1.8-0.6,2.3
		c-0.2,0.7-0.8,1-1.4,0.7c-4-1.6-5.9-6-5.9-11c0-8.2,6.9-18,20.6-18c11,0,18.2,8,18.2,16.5c0,11.3-6.3,19.7-15.5,19.7
		c-3.1,0-6-1.7-7-3.6c0,0-1.7,6.6-2,7.9c-0.6,2.2-1.8,4.4-2.9,6.2c2.6,0.8,5.3,1.2,8.2,1.2c15.9,0,28.8-12.9,28.8-28.8
		S51.9,7.2,36,7.2C20.1,7.2,7.2,20.1,7.2,36z"/>
</g>
</svg>
