<?xml version="1.0" encoding="utf-8"?>
<!-- Generator: Adobe Illustrator 28.1.0, SVG Export Plug-In . SVG Version: 6.00 Build 0)  -->
<svg version="1.1" id="svg2516" xmlns:svg="http://www.w3.org/2000/svg"
	 xmlns="http://www.w3.org/2000/svg" xmlns:xlink="http://www.w3.org/1999/xlink" x="0px" y="0px" viewBox="0 0 72 72"
	 style="enable-background:new 0 0 72 72;" xml:space="preserve">
<g>
	<path id="path10907" d="M59.4,12.9l-3.5,2.4c-0.9,1.3-1.5,2.6-2.4,3.7c-0.4,0.1-0.8,0.2-1.2,0.3c-1.6,0.3-2.3-0.7-3.7-1.2
		c-2.5-0.8-4-1.4-6.1-2.7l-3.4,2.4c-1.3,1.3-0.6,2.5-0.7,3.9c-3.4-1.7-5.8-3-10.2-3.2l-3.5,2.3c-0.3,2-1,3.5-2.3,4.9
		c-1.9-0.1-4-2.8-6.8-3.3c-1-0.2-1.7,0-2.3,0.4l-3.4,2.4c-0.6,0.4-1.1,1-1.5,1.6c-0.1,0.2-0.2,0.3-0.4,0.4c0,0,0.2,1.3,1.8-0.6
		c0.7-0.5,1.3-1.2,1.8-1.8c0.2,0,0.3,0,0.4,0c3.4,0.6,5.7,4.5,8,2.9l3.5-2.4c0,0,0.1,0,0.2-0.1c1.8-1.4,2.9-2.6,3.6-4
		c3.3,0.6,5.5,1.9,8.7,3.5l3.5-2.4c0.8-0.8,1.8-1.2,2.1-2.2c0.1-0.3,0.2-0.5,0.2-0.8c1,0.4,1.9,0.8,3.2,1.2c1.4,0.4,2.2,1.4,3.8,1.2
		c1.3-0.2,2.3-0.7,3.1-1.2l3.5-2.3c0.7-0.5,1.8-1.9,2.3-2.6c1.4,0.6,3.8,1.2,5.1,1.2c0,0,0.7-1.8,0.5-2
		C62.5,14.3,60.2,13.7,59.4,12.9z M61.5,21.3c-0.5,0.2-0.7,1.3-0.4,3.4c2.1,4.7,3.7,14.3-1.2,21.5c-5.2,6.1-11.2,8.7-19.7,9.8
		C19.5,58.6,10.3,40.9,9.5,33.6c-0.2,0.5-2.4,2.2-2.2,2.9c1.7,14.1,16.9,24.2,30.6,22.4c9.1-1.2,15.5-4,20.9-11.1l2.2-3
		c0.4-0.5,0.4-1,0.7-1.6c4.1-7.7,3.9-14.4,0.9-21.3C62.1,21.4,61.8,21.2,61.5,21.3z M48.1,26.6c-0.3,0-0.6,0-0.9,0.1
		c-2.4,0.4-4.1,2.7-3.7,5.2c0.4,2.4,2.7,4.1,5.2,3.7c2.4-0.4,4.1-2.7,3.7-5.2C52,28.2,50.2,26.7,48.1,26.6z M24.3,30.8
		c-0.3,0-0.7,0-1,0.1c-2.4,0.4-4,2.7-3.6,5.2s2.7,4,5.2,3.6c2.4-0.4,4.1-2.7,3.7-5.2C28.1,32.3,26.3,30.9,24.3,30.8z M42.4,40.5
		c-0.2,0-0.3,0.2-0.4,0.4c-1.1,1.2-2.6,2-4.4,2.3c-1.7,0.2-3.3-0.1-4.7-0.8c-0.1-0.1-0.3-0.1-0.4-0.1c-0.4,0.1-0.6,0.4-0.5,0.7
		c1,2.9,3.7,4.9,6.5,4.4c2.8-0.5,4.7-3.3,4.6-6.3C43.1,40.7,42.8,40.5,42.4,40.5z"/>
</g>
</svg>
