<?xml version="1.0" encoding="utf-8"?>
<!-- Generator: Adobe Illustrator 28.1.0, SVG Export Plug-In . SVG Version: 6.00 Build 0)  -->
<svg version="1.1" id="Layer_1" xmlns="http://www.w3.org/2000/svg" xmlns:xlink="http://www.w3.org/1999/xlink" x="0px" y="0px"
	 viewBox="0 0 360 180" style="enable-background:new 0 0 360 180;" xml:space="preserve">
<g>
	<path d="M41.2,112.3h-4c-0.3,0-1.2,0-1.2-0.5c0-0.3,0.2-0.5,0.7-0.7c3.7-1.2,4.5-3.2,4.5-6.1V74.9c0-2.7-0.8-4.7-4.5-6.1
		c-0.5,0-0.7-0.3-0.7-0.5c0-0.7,0.8-0.5,1.2-0.5h33.4c7.6,0,13.8,6.1,13.8,13.7c0,7.6-6.2,13.6-13.8,13.6H53.7v10.3
		c0.2,2.7,1,4.5,4.5,5.7c0.5,0.2,0.7,0.3,0.7,0.7c0,0.5-0.8,0.5-1.2,0.5L41.2,112.3L41.2,112.3z M290.1,96h7.9l-7.9-13.5l-0.8-1.3
		L282.2,96H290.1L290.1,96z M290.1,67.7h5.4l22.6,39.8c0.7,1,1.5,2,2.5,2.5c0.8,0.7,1.9,0.8,2.7,1.2c0.3,0.2,0.7,0.3,0.7,0.7
		c0,0.5-0.8,0.5-1.2,0.5h-20.1c-0.3,0-1.4,0-1.4-0.5c0-0.3,0.3-0.5,0.7-0.7c1-0.3,1.7-0.8,2-1.9c0.3-1.2,0-1.9-0.8-3.4
		c-1.1-2.4-2.3-4.9-3.5-7.3h-18.9l-0.2,0.3c-0.2,0.7-1.5,3-2.5,5.6c-1.3,2.7-1.9,3.4-1.5,4.7c0.2,1,1,1.5,2,1.9
		c0.3,0.2,0.5,0.3,0.5,0.7c0,0.5-0.8,0.5-1.2,0.5h-9.3c-0.3,0-1.2,0-1.2-0.5c0-0.3,0.2-0.5,0.7-0.7c0.8-0.3,1.9-0.5,2.7-1.2
		c1-0.5,1.9-1.5,2.5-2.5l1.2-2.5l12.8-26.8l-1.9-3.2c-1.7-2.7-3.4-4.4-5.2-5.4c-0.8-0.5-1.7-0.5-2.5-0.8c-0.5-0.2-0.7-0.3-0.5-0.7
		c0-0.3,0.3-0.2,0.5-0.3L290.1,67.7L290.1,67.7L290.1,67.7z M239.7,112.2h0.7c31,0,30.7-44.3,0-44.3h-25.5c-0.5,0-1.3-0.2-1.3,0.5
		c0,0.2,0.3,0.5,0.7,0.5c3.7,1.2,4.5,3.2,4.7,5.7v30.9c-0.2,2.7-1,4.5-4.7,5.7c-0.3,0.2-0.7,0.3-0.7,0.7c0,0.5,0.8,0.5,1.3,0.5h16.4
		v-0.2L239.7,112.2L239.7,112.2z M239.7,71c4.7,0,8.6,3.9,8.6,8.6v20.6c0,4.7-3.9,8.6-8.6,8.6h-8.4V71H239.7z M175.4,96h7.9
		l-7.9-13.5l-0.8-1.3L167.5,96H175.4L175.4,96z M175.4,67.7h5.6l22.6,39.8c0.5,1,1.3,2,2.4,2.5c0.8,0.7,1.9,0.8,2.9,1.2
		c0.3,0.2,0.7,0.3,0.7,0.7c0,0.5-1,0.5-1.3,0.5h-20.1c-0.3,0-1.2,0-1.2-0.5c0-0.3,0.2-0.5,0.7-0.7c0.8-0.3,1.7-0.8,1.9-1.9
		c0.3-1.2,0-1.9-0.7-3.4c-1.2-2.5-2.5-4.9-3.7-7.3h-18.9L166,99c-0.2,0.7-1.3,3-2.5,5.6c-1.2,2.7-1.9,3.4-1.5,4.7c0.3,1,1,1.5,2,1.9
		c0.3,0.2,0.7,0.3,0.7,0.7c0,0.5-0.8,0.5-1.3,0.5h-9.1c-0.3,0-1.3,0-1.3-0.5c0-0.3,0.3-0.5,0.7-0.7c1-0.3,1.9-0.5,2.9-1.2
		c0.8-0.5,1.9-1.5,2.4-2.5l1.2-2.5l13-26.8l-1.9-3.2c-1.7-2.7-3.5-4.4-5.2-5.4c-1-0.5-1.7-0.5-2.7-0.8c-0.3-0.2-0.7-0.3-0.5-0.7
		c0.2-0.3,0.5-0.2,0.7-0.3L175.4,67.7L175.4,67.7z M119.8,97.2c3.9,1.3,8.6,1.7,12.3,0.5l14.7,12.6l1.2,1c0.1,0.1,0.2,0.3,0.2,0.5
		c0,0.5-0.8,0.5-1.2,0.5h-15.5l-11.6-9.6l-9.4-7.6v10.5c0.2,2.5,1.2,4.4,4.7,5.6c0.3,0.2,0.5,0.3,0.5,0.7c0,0.5-0.8,0.5-1.2,0.5H94
		c-0.5,0-1.3,0-1.3-0.5c0-0.3,0.3-0.5,0.7-0.7c4-1.3,4.5-3.4,4.7-6.6V75.4c-0.2-3-0.7-5.2-4.7-6.6c-0.3,0-0.7-0.3-0.7-0.5
		c0-0.7,0.8-0.5,1.3-0.5h32.9c7.5,0,13.6,6,13.7,13.5v0v0.1c0,7.5-6,13.6-13.5,13.6h-10.7c0.5,1,1.7,1.3,2.7,1.9
		C119.3,97,119.5,97.2,119.8,97.2L119.8,97.2z M119.8,91.9h1.4c4.4,0,8.1-4.7,8.1-10.8c0-5.9-3.7-10.6-8.1-10.6h-10.8v21.4H119.8
		L119.8,91.9z M63.3,70.5h-9.6v21.4h11.1c4.5,0,8.1-4.7,8.1-10.8c0-5.9-3.5-10.6-8.1-10.6H63.3z"/>
</g>
</svg>
