<?xml version="1.0" encoding="utf-8"?>
<!-- Generator: Adobe Illustrator 28.1.0, SVG Export Plug-In . SVG Version: 6.00 Build 0)  -->
<svg version="1.1" id="Layer_1" xmlns="http://www.w3.org/2000/svg" xmlns:xlink="http://www.w3.org/1999/xlink" x="0px" y="0px"
	 viewBox="0 0 200 87.02" style="enable-background:new 0 0 200 87.02;" xml:space="preserve">
<path d="M79.23,86.98c-6.82-0.37-11.92-3.18-14.89-8.21c-2-3.38-2.61-7.83-1.69-12.38c1.01-5.04,4.45-9.57,9.73-12.84
	c3.03-1.88,5.63-3.04,10.92-4.9c1.33-0.47,2.48-0.9,2.55-0.96c0.11-0.08,0.12-0.38,0.07-1.35c-0.15-2.75,0.31-7.04,1.08-10.13
	c1.31-5.2,3.82-9.4,7.16-11.95c2.4-1.83,5.54-3.21,8.66-3.8c1.73-0.33,4.62-0.32,6.24,0c6.96,1.4,10.87,6.77,9.33,12.82
	c-0.32,1.28-1.35,3.37-2.21,4.52c-2.22,2.96-5.56,5.6-10.28,8.1c-0.59,0.32-2.54,1.27-4.31,2.12c-1.78,0.85-3.29,1.6-3.36,1.67
	c-0.1,0.1-0.07,0.39,0.12,1.36c0.89,4.49,2.37,8.29,4.91,12.54c1.01,1.69,2.41,3.82,2.57,3.92c0.23,0.14,1.17-1.38,1.78-2.88
	c0.76-1.86,1.19-4.32,0.98-5.54c-0.15-0.88-0.63-1.8-1.24-2.4c-0.28-0.28-0.51-0.54-0.51-0.58c0-0.04,2.37-0.07,5.26-0.05l5.27,0.03
	l-0.03,0.67c-0.04,0.91-0.38,2.86-0.74,4.25c-1.01,3.9-2.9,7.23-6.19,10.87c-0.39,0.43-0.7,0.85-0.7,0.94s0.54,0.68,1.21,1.33
	c4.15,4.02,11.49,8.66,17.47,11.03c0.58,0.23,1.05,0.47,1.05,0.52c0,0.07-3.46,0.11-10.09,0.13l-10.09,0.03l-0.57-0.32
	c-1.17-0.66-3.77-2.76-6.26-5.06c-0.53-0.49-1.03-0.89-1.11-0.89s-0.67,0.34-1.3,0.76c-3.24,2.14-7.11,4.06-10.38,5.15
	C85.9,86.73,82.83,87.17,79.23,86.98L79.23,86.98z M87.73,78.24c1.51-0.27,3.36-0.82,5.07-1.5c1.71-0.68,3.84-1.73,3.92-1.93
	c0.03-0.08-0.36-0.74-0.87-1.46c-2.35-3.34-4.85-8.05-6.54-12.26c-0.62-1.56-1.78-5-2-5.94c-0.07-0.3-0.2-0.57-0.28-0.61
	c-0.24-0.09-2.16,0.94-3.83,2.04c-5.92,3.92-8.75,8.71-8.12,13.72c0.28,2.22,0.98,3.85,2.26,5.21C79.7,78.04,83.4,79.01,87.73,78.24
	z M97.77,43.44c2.19-1.28,5.66-4.4,7.61-6.81c2.49-3.1,3.81-5.99,3.81-8.33c0-1.34-0.19-1.94-0.81-2.56
	c-0.62-0.62-1.31-0.87-2.38-0.87c-3.15,0-6.57,3.74-8.05,8.84c-0.75,2.57-0.93,3.95-0.94,7.09c0,2.4,0.04,2.93,0.21,2.93
	C97.27,43.72,97.51,43.59,97.77,43.44z M149.93,86.92c-5.2-0.52-8.62-1.3-12.49-2.83c-5.26-2.08-8.54-4.67-11.31-8.89
	c-0.83-1.27-2.16-3.92-2.7-5.39c-2.4-6.54-2.93-14.78-1.5-23.38c1.45-8.7,4.76-17.08,9.32-23.64c2.96-4.25,7.36-8.73,11.9-12.11
	c7.5-5.58,16.14-9.01,25.73-10.22c2.91-0.37,4.54-0.46,7.98-0.46c5.2,0,9.16,0.4,14.39,1.44c3.34,0.66,8.65,2.1,8.75,2.36
	c0.05,0.13-3.32,10.93-3.45,11.07c-0.04,0.05-0.56-0.3-1.15-0.77c-4.73-3.77-9.63-6.07-14.59-6.83c-1.58-0.24-4.56-0.25-6.11-0.01
	c-6.95,1.08-13.39,5.51-19.11,13.17c-1.86,2.49-3.9,5.82-5.5,8.95c-2.16,4.24-3.64,7.99-5.14,13c-4.78,15.95-5.02,27.09-0.72,33.12
	c1.77,2.49,4.36,4.07,7.65,4.67c1.89,0.35,6.46,0.14,6.92-0.32c0.07-0.07,2.31-7.07,4.97-15.54c4.37-13.92,4.84-15.49,4.89-16.28
	c0.07-1.06-0.13-2.01-0.61-2.92c-0.43-0.83-1.58-1.95-2.52-2.48c-0.41-0.23-0.74-0.45-0.74-0.49s7.33-0.08,16.29-0.08
	c8.96,0,16.29,0.03,16.29,0.08c0,0.04-0.4,0.26-0.88,0.48c-2.54,1.16-4.37,2.9-5.47,5.17c-0.24,0.49-2.29,6.86-5.37,16.67
	l-4.98,15.87l-1.44,0.69c-5.87,2.82-13.04,4.84-20.2,5.71C157.71,86.9,151.03,87.03,149.93,86.92L149.93,86.92z M0,85.76
	c-0.03-0.05,0.18-0.24,0.48-0.41c1.77-1.02,3.76-3.13,4.6-4.89C5.33,79.95,27.67,8.79,28.16,6.95c0.09-0.32,0.16-1,0.16-1.51
	c0.01-1.55-0.48-2.67-1.61-3.74c-0.31-0.29-0.56-0.58-0.56-0.63c0-0.14,39.01-0.13,40.8,0.01c3.87,0.31,7.75,1.34,10.72,2.85
	c5.06,2.57,8.1,6.48,9.03,11.64c0.26,1.43,0.31,4.62,0.1,6.17c-0.87,6.29-3.72,12.97-7.6,17.8c-6.29,7.82-16.58,12.83-29.2,14.2
	c-4,0.44-9.05,0.55-12.62,0.27c-1.03-0.08-1.9-0.12-1.92-0.1c-0.13,0.13-8.18,25.97-8.27,26.55c-0.28,1.78,0.63,3.78,2.21,4.83
	c0.31,0.21,0.54,0.42,0.51,0.47C29.82,85.88,0.08,85.89,0,85.76L0,85.76z M44.29,47.37c2.93-0.52,5.52-1.61,8.02-3.36
	c1.21-0.85,3.71-3.34,4.73-4.73c2.57-3.46,4.46-7.55,5.99-12.93c0.97-3.43,1.39-6.04,1.39-8.74c0-2.08-0.19-3.32-0.71-4.71
	c-0.78-2.06-2.35-3.69-4.36-4.51c-1.72-0.7-3.19-0.88-6.73-0.84l-2.67,0.03l-6.2,19.73c-3.41,10.85-6.18,19.78-6.15,19.85
	c0.02,0.06,0.45,0.17,0.95,0.24c0.5,0.07,0.98,0.14,1.06,0.16C40,47.67,43.46,47.52,44.29,47.37L44.29,47.37z"/>
</svg>
