<?xml version="1.0" encoding="utf-8"?>
<!-- Generator: Adobe Illustrator 28.1.0, SVG Export Plug-In . SVG Version: 6.00 Build 0)  -->
<svg version="1.1" id="Layer_1" xmlns="http://www.w3.org/2000/svg" xmlns:xlink="http://www.w3.org/1999/xlink" x="0px" y="0px"
	 viewBox="0 0 72 72" style="enable-background:new 0 0 72 72;" xml:space="preserve">
<g>
	<path d="M12.6,13.8c-0.4,0.1-0.7,1.4-1.4,2.1c-0.5,0.5-1.2,0.5-1.5,1.1c-0.1,0.2-0.1,0.6-0.2,1c-0.3,0.8-1.3,0.8-1.3,1.7
		c0,0.9,0.9,1.1,1.6,1.7c0.6,0.5,0.6,0.9,1.3,1.1c0.6,0.2,1.5-0.5,2.3-0.2c0.7,0.2,1.3,0.3,1.4,1c0.1,0.6,0,1.6-0.8,1.5
		c-0.3,0-1.4-0.4-2.9-0.3c-1.7,0.2-3.7,0.8-3.9,2.7c-0.1,1.1,1.2,2.4,2.5,2.1c0.9-0.2,0.5-1.2,1-1.7c0.6-0.7,4.3,2.3,7.6,2.3
		c1.4,0,2.5-0.4,3.5-1.5c0.1-0.1,0.2-0.3,0.4-0.3c0.1,0,0.4,0.2,0.5,0.2c2.7,2.2,4.8,6.5,14.7,6.6c1.4,0,3,0.7,4.3,1.9
		c1.2,1.1,1.8,2.7,2.5,4.4c1,2.5,2.8,5,5.5,7.8c0.1,0.1,2.4,1.9,2.6,2c0,0,0.2,0.4,0.1,0.6c-0.1,1.7-0.3,6.5,3.3,6.7
		c0.9,0,0.6-0.6,0.6-1c0-0.8-0.2-1.7,0.3-2.5c0.6-1.2-1.3-1.7-1.2-4.3c0-1.9-1.6-1.6-2.4-3c-0.5-0.8-0.9-1.3-0.9-2.3
		c0.2-5.8-1.2-9.6-1.9-10.5c-0.5-0.7-1-1-0.5-1.3c3-2,3.7-3.8,3.7-3.8c1.6-3.7,3-7.1,5-8.6c0.4-0.3,1.4-1.1,2-1.4
		c1.8-0.9,2.8-1.4,3.3-1.9c0.8-0.8,1.5-2.5,0.7-3.6c-1-1.3-2.7-0.3-3.5,0.2c-5.5,3.3-6.3,9-8.2,12.3c-1.5,2.6-4,4.6-6.2,4.7
		c-1.7,0.1-3.4-0.2-5.2-1c-4.3-1.9-6.7-4.3-7.2-4.8c-1.2-0.9-10.2-9.7-17.5-10.1c0,0-0.9-1.8-1.1-1.8c-0.5-0.1-1.1,1.1-1.5,1.2
		C13.6,15.1,13,13.7,12.6,13.8L12.6,13.8z"/>
</g>
</svg>
