<?xml version="1.0" encoding="utf-8"?>
<!-- Generator: Adobe Illustrator 28.1.0, SVG Export Plug-In . SVG Version: 6.00 Build 0)  -->
<svg version="1.1" id="Layer_1" xmlns="http://www.w3.org/2000/svg" xmlns:xlink="http://www.w3.org/1999/xlink" x="0px" y="0px"
	 viewBox="0 0 72 72" style="enable-background:new 0 0 72 72;" xml:space="preserve">
<g>
	<path d="M49.2,7.3c-0.2,0.2-0.1,0.9,0.2,1.4c0.4,0.6,0.3,0.9-0.9,1.6c-0.6,0.4-1.2,0.9-1.4,1c-0.2,0.2-0.5,0.4-0.7,0.5
		c-1.7,1-5.4,3.7-5.7,4c-0.4,0.5-0.4,0.7,0,0.7c0.3,0,2.3-1.1,2.4-1.4c0-0.1,0.2-0.2,0.3-0.2c0.2,0,1.4-0.8,1.5-1
		c0-0.1,0.2-0.1,0.3-0.1c0.2,0,1.3-0.8,3.3-2.4c0.3-0.2,0.8-0.6,1.1-0.9c0.6-0.5,0.8-0.5,1,0.2c0.2,0.6,1.2,0.8,1.2,0.2
		c0-0.2-0.1-0.6-0.2-0.8c-0.3-0.6-1-2.1-1-2.3c0-0.2-0.7-0.8-0.9-0.8C49.4,7.2,49.3,7.3,49.2,7.3L49.2,7.3z"/>
	<path d="M37.8,16.6c-0.3,0.3-0.5,0.7-0.5,1c0,0.4-0.2,0.7-0.5,1c-1,0.7-1.4,1.2-1.5,1.9c-0.1,0.7,0.1,1.4,0.5,1.4
		c0.1,0,0.4,0.1,0.5,0.2c0.2,0.1,0.2,0.2-0.1,0.6c-0.2,0.2-0.4,0.4-0.5,0.4c-0.3,0-0.9,0.9-0.8,1.2c0.1,0.2-0.1,0.5-0.6,1
		c-1.2,1.1-1.4,1.3-1.4,1.6c0,0.4,1,1.4,1.4,1.4c0.5,0,1.1,0.9,1.1,1.5c0,0.3,0.1,0.7,0.3,0.9c0.2,0.2,0.3,0.7,0.3,1.1
		c0,1,0.7,2.3,1.3,2.3c0.2,0,0.5-0.1,0.6-0.3c0.2-0.5,1-0.3,1,0.3c0.1,0.6-0.2,0.7-0.4,0.3c-0.1-0.2-0.2-0.3-0.3-0.3
		c-0.4,0-1.2,1.4-1.1,1.8c0.1,0.2,0,0.4-0.2,0.6c-0.6,0.5-0.2,2.3,0.7,3.4c0.2,0.2,0.2,0.3-0.1,0.6c-0.2,0.2-0.4,0.9-0.6,1.5
		c-0.2,0.6-0.6,1.7-0.9,2.4c-0.5,1.1-0.6,1.4-0.5,2.8c0.1,0.9,0.2,2.2,0.3,2.9c0.2,1.1,0.3,1.5,0.9,2c0.4,0.3,0.7,0.6,0.8,0.6
		s0.3,0.2,0.5,0.4c0.5,0.6,1.3,0.4,1.3-0.3c0.1-0.6-0.5-1.3-1.1-1.3c-0.7,0-1.5-1.3-1.7-2.8c-0.1-0.8-0.1-1,0.2-1.2
		c0.2-0.2,0.3-0.6,0.3-1.3c0-0.9,0.1-1.1,0.6-1.6c0.3-0.3,1-0.9,1.5-1.4l0.9-0.8l-0.6-0.6c-0.3-0.3-0.6-0.7-0.5-0.8
		c0.1-0.2-0.8-2.3-1-2.3c-0.2,0-0.6-0.9-0.6-1.3c0-0.2,0.1-0.3,0.3-0.4c0.2-0.1,0.3-0.4,0.3-1c0-1,0.3-0.9,0.4,0.1
		c0.1,0.9,0.4,0.9,0.8,0.1c0.2-0.4,0.4-0.7,0.5-0.7c0.1,0,0.2-0.2,0.2-0.4c0-0.2,0.3-0.6,0.8-0.9c0.4-0.3,0.9-0.6,0.9-0.6
		c0.1,0-0.1-0.2-0.3-0.3c-0.3-0.2-0.3-0.4-0.3-1.1c0-0.5,0-1.1-0.2-1.4c-0.1-0.3-0.3-1.3-0.3-2.3c-0.1-1.6-0.2-2.1-0.7-3.1
		c-0.4-0.8-0.5-1.3-0.4-1.6c0.2-0.5,0.4-0.5,0.6-0.1c0.1,0.2,0.3,0.3,0.6,0.2C41,24.1,41,24,41,23.5c0-0.7,0.3-1,1.1-1
		s0.8,0.2,0.2,0.8c-0.3,0.3-0.6,0.7-0.6,0.9c0,0.2-0.2,0.5-0.5,0.6L40.6,25l0.5,0.4c0.6,0.5,0.7,1,0.2,1.2c-0.3,0.1-0.3,0.2-0.1,0.4
		c0.2,0.2,0.3,0.2,0.5-0.1c0.1-0.2,0.4-0.3,0.6-0.3s0.4-0.1,0.4-0.3c0.1-0.2,0.3-0.3,1.2-0.2l1.1,0.1l0.1-0.9c0-0.5,0-1.1-0.1-1.2
		c-0.1-0.3-0.2-0.3-0.5,0c-0.2,0.2-0.5,0.3-0.7,0.2c-0.3-0.1-0.3-0.2,0-0.5c0.2-0.2,0.6-0.4,1-0.5c0.8-0.2,1.1-0.7,0.9-1.5
		c-0.1-0.5-0.2-0.6-0.7-0.6c-0.5,0-0.6,0-0.3-0.2c0.5-0.3,0.4-0.4-0.7-1.2c-0.9-0.5-1.2-0.7-2.3-0.7c-1,0-1.3-0.1-1.6-0.5
		c-0.3-0.4-0.3-0.4-0.1-0.8c0.3-0.3,0.3-0.4,0-1c-0.3-0.6-0.4-0.7-1.1-0.7C38.5,16.1,38.2,16.2,37.8,16.6L37.8,16.6z M38.1,19.4
		c0.2,0.1,0.5,0.3,0.6,0.5c0.1,0.2,0.3,0.2,0.8,0.1c0.6-0.1,0.6-0.1,0.5,0.5c-0.1,0.6-0.1,0.6,0.4,0.6c0.4,0,0.8-0.2,1.2-0.6
		c0.5-0.5,0.6-0.5,0.7-0.3c0.2,0.5,0,1-0.5,1.1c-0.3,0.1-0.5,0.3-0.5,0.5c-0.1,0.6-0.3,0.7-0.8,0.5c-0.3-0.2-0.5-0.2-1.1,0.1
		c-1.1,0.5-1.3,0.4-1.2-0.3c0.1-0.7-0.1-0.9-0.4-0.3c-0.2,0.3-0.3,0.3-0.7-0.2c-0.6-0.7-0.6-1.4-0.2-1.9
		C37.2,19.1,37.5,19.1,38.1,19.4L38.1,19.4z M43.8,21.2c0.5,0.1,0.6,0.7,0.2,1c-0.5,0.4-1.3-0.4-1-0.9
		C43.1,21.1,43.2,21.1,43.8,21.2L43.8,21.2z M43.1,23.9c-0.1,0.4-0.6,0.6-0.8,0.3c-0.1-0.2-0.1-0.3-0.1-0.4
		C42.4,23.6,43.2,23.7,43.1,23.9L43.1,23.9z M37.8,24.5c0.1,0.4,0,0.5-0.4,0.5c-0.3,0-0.5,0.1-0.6,0.2c-0.1,0.3,0.1-0.7,0.2-1.2
		C37.1,23.6,37.7,23.9,37.8,24.5z M39.1,25.4c0.3,0.2-0.2,1.7-0.6,1.7c-0.4,0-0.5-0.3-0.2-1c0.3-0.5,0.3-0.6,0-0.6
		c-0.5,0-0.6-0.4-0.2-0.7c0.3-0.2,0.4-0.2,0.5,0.1C38.8,25.1,39,25.3,39.1,25.4z M44.4,25.1c0,0.2-0.2,0.3-0.8,0.2
		c-1.1-0.1-1.2-0.5-0.1-0.5C44.2,24.8,44.4,24.9,44.4,25.1z M36.2,26c0.2,0.3,0.3,0.7,0.3,0.9c0,0.1,0.1,0.3,0.3,0.3
		c0.2,0,0.3-0.2,0.3-0.6c0-0.5,0.1-0.6,0.3-0.5c0.4,0.1,0.3,1.1-0.1,1.4c-0.4,0.2-0.3,1.6,0.2,4.1c0.1,0.3,0.3,0.7,0.4,0.9
		c0.2,0.2,0.2,0.3,0.1,0.4c-0.1,0.1-0.3,0-0.3-0.1c-0.1-0.1-0.4-0.2-0.7-0.1c-0.6,0.1-0.6,0.1-0.6-0.7c0-0.5-0.1-1.1-0.3-1.4
		c-0.2-0.3-0.3-0.9-0.3-1.3c0-0.4-0.1-1-0.2-1.3c-0.2-0.5-0.4-2.3-0.2-2.6C35.6,25.1,35.9,25.3,36.2,26z"/>
	<path d="M43.4,26.8c-1.2,0.4-1.4,0.5-1.8,1.3L41,29l0.4,0.4c0.3,0.2,0.4,0.6,0.4,1c0,0.7,0.3,0.8,0.5,0.2c0.2-0.5,0.5-0.3,0.5,0.2
		c0,0.2,0.2,0.5,0.3,0.7c0.5,0.5,0.8,1.2,0.9,2.3c0.2,1.8,1.5,3.7,2.2,3.3c0.3-0.2,0.2-0.6-0.2-0.7c-0.2-0.1-0.5-0.4-0.6-0.8
		c-0.3-0.5-0.3-0.7,0-1c0.1-0.2,0.3-0.6,0.3-0.9c0-0.3,0.1-0.6,0.3-0.7c0.5-0.3,0.9-2.1,0.5-2.4c-0.2-0.1-0.3-0.4-0.3-0.7
		c0-0.6-0.2-1.1-0.5-1.1c-0.2,0-0.3-0.3-0.6-1.7c-0.1-0.4-0.2-0.7-0.3-0.7C44.8,26.4,44.1,26.6,43.4,26.8L43.4,26.8z M44.6,28.6
		c0,0.2-0.1,0.3-0.3,0.3c-0.3,0-0.5-0.3-0.4-0.5C44.2,28.2,44.6,28.3,44.6,28.6z"/>
	<path d="M41.8,32c-0.1,0.2-0.1,0.6,0,0.9l0.1,0.5l0.4-0.4l0.4-0.4l-0.4-0.4C42,31.7,41.9,31.7,41.8,32L41.8,32z M48,32.1
		c-0.1,0.1-0.3,0.3-0.3,0.6s-0.3,0.4-0.6,0.5c-0.3,0-0.4,0.2-0.5,0.5c-0.1,0.4,0,0.4,0.3,0.3c0.2-0.1,0.5,0,0.8,0.3
		c0.5,0.5,0.6,2.3,0.2,2.7c-0.3,0.3-0.3,0.9,0,1c0.2,0.1,0.3,0.3,0.3,0.6c0,0.3,0.1,0.5,0.2,0.6c0.3,0.2,0.5-0.4,0.5-1.8
		c0-1.7,0.3-2,0.9-0.7c0.5,1,0.4,2.4-0.2,3c-0.2,0.2-0.5,0.6-0.5,0.9c-0.1,0.5-0.2,0.6-0.9,0.5c-0.9,0-1.1,0.2-1,1.9
		c0.1,0.9,0.1,1,0.5,1.1c0.6,0.1,1.2-1,1.2-2c0-1.1,0.5-0.9,0.9,0.4c0.3,1,0.3,1.1,0,1.5c-0.3,0.3-0.3,0.8-0.4,1.9
		c0,0.8-0.1,1.7-0.3,1.9c-0.1,0.2-0.2,0.7-0.2,1.1s-0.1,0.8-0.3,0.9c-0.2,0.2-0.3,0.6-0.3,1.5c0,0.7-0.1,1.3-0.2,1.3
		c-0.3,0.2-0.3,0.8,0,1c0.3,0.2,1.3-0.3,1.4-0.7c0.1-0.2,0.1-0.7,0-1.1c-0.1-0.4,0-1,0.2-1.5c0.2-0.4,0.3-0.9,0.3-1.1
		c0-0.2,0.2-0.9,0.4-1.5c0.5-1.3,0.5-1.9,0.1-2.1c-0.4-0.2-0.4-0.4,0.1-0.6c0.3-0.1,0.5-0.4,0.5-0.6c0.2-1.3,0.7-3.5,0.9-3.8
		c0.1-0.2,0.3-0.4,0.3-0.6c0-0.2,0.1-0.5,0.3-0.7c0.2-0.2,0.3-0.8,0.3-1.7c0-1.2-0.1-1.5-0.7-2.4c-0.4-0.6-0.7-1.2-0.6-1.3
		c0.1-0.3,1.3-0.3,1.3-0.1c0,0.1,0.1,0.2,0.3,0.2c0.2,0,0.3,0.1,0.4,0.3c0.1,0.2,0.3,0.3,0.7,0.3c0.4,0,0.6-0.1,0.7-0.4
		c0.1-0.3-0.1-0.6-0.7-1.2c-0.9-0.9-1.3-0.9-2.3-0.2c-0.9,0.6-1,0.6-1.6,0.1c-0.3-0.3-1.9-1-1.9-0.9C48.2,32,48.1,32,48,32.1
		L48,32.1z M48.6,33.8c0,0.9-0.4,0.9-0.4,0c-0.1-0.5,0-0.7,0.2-0.7C48.5,33.2,48.6,33.5,48.6,33.8L48.6,33.8z M48.1,41.9
		c0,0.3-0.1,0.4-0.3,0.4c-0.1,0-0.2-0.2-0.3-0.4c0-0.3,0-0.4,0.3-0.4C48,41.4,48.1,41.6,48.1,41.9z M42.1,34.2
		c-0.2,0.4-0.5,0.7-0.6,0.7c-0.1,0-0.5,0.4-0.9,0.9c-0.4,0.5-0.8,0.9-0.9,0.9c-0.1,0-0.3,0.2-0.3,0.4c-0.1,0.2-0.2,0.4-0.3,0.4
		c-0.1,0-0.2,0.2-0.2,0.4c0,0.2,0.1,0.4,0.2,0.4c0.1,0,0.2,0.2,0.1,0.5c-0.1,0.3,0,0.5,0.1,0.6c0.1,0.1,0.2,0.3,0.2,0.6
		s0.1,0.5,0.3,0.6c0.2,0.1,0.3,0.3,0.3,0.5c0,0.5,0.8,1.3,1.2,1.3c0.2,0,0.3,0.1,0.4,0.3c0.1,0.2,0.3,0.3,0.7,0.3h0.6v1.4
		c0,1-0.1,1.5-0.4,2.1c-0.2,0.4-0.4,0.9-0.3,1.1c0.3,1,0.7,1.8,1.1,2.2c0.5,0.7,0.5,0.8-0.1,1.8c-0.3,0.4-0.5,0.9-0.5,1.2
		c0,0.4-0.5,1.5-0.8,1.7c-0.1,0.1-0.2,0.4-0.2,0.7c0,0.7,0.3,0.7,1.1,0.2c0.7-0.5,0.8-0.7,0.7-1.3c-0.1-0.4,0-0.6,0.2-0.6
		c0.2-0.1,0.3-0.3,0.3-0.5c0-0.8,0.2-1.2,0.9-1.6c0.9-0.5,1.4-1.6,0.9-2.1c-0.1-0.1-0.1-0.5,0-1.1c0.1-0.6,0.1-1.4,0-2.1
		c-0.2-1.2-0.8-2.8-1-2.8c-0.1,0-0.2-0.3-0.2-0.7c0-0.9-0.2-1.6-0.4-1.5c-0.1,0.1-0.5,0-0.8-0.1c-0.6-0.2-0.7-0.3-0.7-1
		c0-0.8,0.4-1.5,0.9-1.5c0.4,0,0.5,0.3,0.2,0.9c-0.3,0.6-0.2,0.9,0.1,0.5c0.3-0.3,0.7-0.3,0.7,0c0,0.2,0.1,0.3,0.3,0.4
		c0.2,0.1,0.3,0.4,0.3,1.4c0,0.9,0.1,1.3,0.3,1.2c0.1-0.1,0.3-0.4,0.3-0.8c0-0.4,0.1-0.7,0.3-0.7c0.3,0,0.2-0.6-0.1-1
		c-0.2-0.2-0.3-0.5-0.3-0.7c0-0.2-0.3-0.7-0.6-1.1c-0.3-0.4-0.6-0.9-0.7-1.1c-0.1-0.2-0.3-0.5-0.5-0.5c-0.3-0.1-0.4-0.4-0.5-1.3
		c-0.1-0.7-0.3-1.3-0.5-1.5C42.5,33.5,42.5,33.5,42.1,34.2L42.1,34.2z M42.9,35.6c0.1,0.2,0.2,0.6,0.2,0.8c0,0.5-0.7,1.3-1.1,1.3
		c-0.1,0-0.3,0.2-0.3,0.5c0,0.3-0.1,0.5-0.2,0.5c-0.1,0-0.2,0.1-0.2,0.3c0,0.2-0.2,0.3-0.4,0.4c-0.4,0.1-0.6,0.9-0.2,0.9
		c0.1,0,0.3,0.2,0.4,0.5l0.2,0.5l0.3-0.4c0.4-0.5,0.5-0.5,1.1,0.1c0.4,0.4,0.4,0.5,0.2,0.7c-0.6,0.5-2.4-0.3-2.4-1
		c0-0.2-0.1-0.4-0.2-0.4c-0.3,0-0.4-0.6-0.3-0.9c0.1-0.1,0.2-0.4,0.3-0.7c0.1-0.3,0.3-0.7,0.6-0.8c0.3-0.2,0.5-0.4,0.5-0.6
		c0-0.2,0.1-0.3,0.3-0.4c0.2-0.1,0.3-0.3,0.3-0.6C42.1,35.3,42.5,34.9,42.9,35.6L42.9,35.6z M44.9,44.9c0.2,0.2,0.3,0.5,0.2,0.7
		c-0.1,0.4-0.5,0.2-0.5-0.2c0-0.2-0.1-0.3-0.2-0.3c-0.1,0-0.2-0.1-0.2-0.3C44.2,44.4,44.5,44.4,44.9,44.9z M44.2,46.5
		c0.3,0.3,0.3,0.8,0.4,1.5c0,0.9,0.1,1.1,0.3,1.2c0.2,0.1,0.3,0.2,0.1,0.3c-0.3,0.3-1.4-1-1.3-1.5c0.1-0.2,0-0.7-0.2-1
		C43.1,46.1,43.6,45.7,44.2,46.5L44.2,46.5z"/>
	<path d="M17.6,61.3c0,0.2,0.1,0.4,0.2,0.4c0.3,0.1,0.3-0.2,0-0.5C17.6,60.9,17.6,60.9,17.6,61.3z M17.3,62.7
		c-0.1,0-0.1,0.2-0.1,0.4v0.3l0.3-0.3c0.2-0.1,0.2-0.3,0.2-0.4C17.6,62.5,17.5,62.5,17.3,62.7z M17.9,63.8c0,0.5,0,0.7,0.1,0.9
		c0.5,0.4,0.8,0,0.4-0.5c-0.1-0.2-0.3-0.5-0.3-0.7C18.2,62.8,17.9,63.1,17.9,63.8z"/>
</g>
</svg>
