<?xml version="1.0" encoding="utf-8"?>
<!-- Generator: Adobe Illustrator 28.1.0, SVG Export Plug-In . SVG Version: 6.00 Build 0)  -->
<svg version="1.1" id="Ebene_1" xmlns="http://www.w3.org/2000/svg" xmlns:xlink="http://www.w3.org/1999/xlink" x="0px" y="0px"
	 viewBox="0 0 72 72" style="enable-background:new 0 0 72 72;" xml:space="preserve">
<g>
	<path d="M52.8,63.7c-1.6,0-3.2,0-4.9,0c-1.6,0-2.2-0.8-1.8-2.4c0.3-1.2,0.6-2.4,0.6-3.6c0.1-3.2-1.2-5.6-3.8-7.4
		c-1.9-1.3-3.9-2.2-6.1-2.9c-3.6-1.1-7.2-2.2-10.7-3.3c-2.9-0.9-5.7-2.1-8.2-3.8c-4.2-2.9-6.4-6.9-6.6-12.1C11,18.8,16.2,12,24.7,9
		c3.9-1.4,8-1.9,12.1-1.8c6.6,0.2,12.8,1.5,18.8,4.3c0.8,0.4,1.7,0.8,2.5,1.3c1.7,1,2.1,2.1,1.4,4c-0.3,0.7-0.6,1.3-0.9,2
		c-0.8,1.7-1.6,3.5-2.5,5.2c-1,2-2.5,2.5-4.4,1.5c-3.2-1.7-6.5-3.2-10-4.1c-3.5-0.8-7-1.2-10.5-0.4c-1.1,0.2-2.1,0.6-3.1,1.3
		c-2.7,1.9-2.8,5.2-0.2,7.2c1.1,0.9,2.5,1.5,3.8,2c3.3,1.2,6.8,2,10.1,3.1c3.1,1,6.2,2,9.1,3.6c2,1.1,3.8,2.4,5.4,4
		c3.4,3.4,4.8,7.6,5,12.4c0.1,2.1-0.1,4.2-0.7,6.3c-0.1,0.3-0.2,0.7-0.3,1c-0.5,1.4-1.2,1.9-2.7,1.9C56.1,63.7,54.5,63.7,52.8,63.7
		L52.8,63.7z"/>
	<path d="M25.9,57.1c-0.1,0.8-0.1,1.6-0.3,2.3c-0.8,2.9-2.7,4.6-5.5,5.1c-1.5,0.3-3.1,0.2-4.5-0.3c-2.4-0.8-4-2.3-4.6-4.7
		c-0.5-1.8-0.5-3.6,0.1-5.4c0.8-2.3,2.4-3.8,4.7-4.4c1.6-0.4,3.3-0.4,4.9,0.1c2.9,0.7,4.8,3.1,5.1,6C25.9,56.4,25.9,56.8,25.9,57.1z
		"/>
</g>
</svg>
