<?xml version="1.0" encoding="utf-8"?>
<!-- Generator: Adobe Illustrator 28.1.0, SVG Export Plug-In . SVG Version: 6.00 Build 0)  -->
<svg version="1.1" id="Layer_1" xmlns="http://www.w3.org/2000/svg" xmlns:xlink="http://www.w3.org/1999/xlink" x="0px" y="0px"
	 viewBox="0 0 360 180" style="enable-background:new 0 0 360 180;" xml:space="preserve">
<g>
	<path d="M91.8,84.3c-9.1-0.6-18.5-0.8-27.7-1.1c-3-0.4-4.2-1.5-4.2-6.1c0-4.8,2.7-5.8,4.7-5.8c5.5-0.4,11-0.4,16.5,0
		c2.7,0.2,3.7,2.3,3.7,7.6h22.5c0-10.8-3.9-15.7-16.7-15.7c-12.5-0.4-25.1-0.4-37.6,0C41,63.6,36.8,67,36,78.8
		c0.6,8.5,2.3,11.3,13,13.7c10.8,1,21.3-0.1,32,0.8c3,0.6,3.7,3.6,3.7,6.2c0,6.2-1.9,7-3.9,7.3c-5.1,0.9-15.3,0.4-16.7-0.1
		c-1.3-0.9-3.9-2.1-3.6-7.6H36l0,0c0,6.5,0.6,13.9,6.2,15.4c5.9,1.8,12.8,2.4,18.2,2.4h24.3c2.4,0,14.7-1.4,17.2-2.5
		c2.7-1.7,6.3-5.2,6.1-15.3C107.5,91.9,107,85.2,91.8,84.3z"/>
	<path d="M176.1,80.6c-4.3-2.8-10.5-2.4-16.3-2.4c-6.1,0-12.9,0.8-18.1,3.3V63.4h-21v53.7l0,0h21V94.3c0.5-3.2,1.3-5.7,9-5.7
		c7.3-0.1,9.4,1.9,9.4,5.7v22.8h21V94.3C181.1,86.8,181,82.8,176.1,80.6z"/>
	<rect x="302.7" y="63.4" width="21.3" height="53.7"/>
	<path d="M254.3,89L254.3,89c-0.4-1.7-0.9-3.3-1.5-4.9c-3.7-5.9-16.3-5.9-28.6-6.2c-9.2,0-23,0.2-27.1,4.2c-1.7,1.8-2.5,4.3-3,7
		c-0.6,3.2-0.5,6.5-0.5,8c0,2.8,0.2,13.5,5.4,16.3c4.8,3.2,19.4,3.6,24.9,3.6c5.9,0,22.4-0.6,24.8-3.4c4.3-1.5,5.3-6.8,6.2-11h-21.1
		c0,4.2-3.3,6.7-9.9,6.3c-5.9,0.4-9.4-1-9.4-8.5l40.4,0.1C254.9,96.7,255,92.8,254.3,89z M233.7,92.7h-19.2c0-1.5,0.2-2.8,0.6-3.7
		c1.4-3.4,4.9-3.5,8.7-3.8c5.8,0,8.4,1.4,9.4,3.8C233.7,90,233.9,91.3,233.7,92.7z"/>
	<rect x="266.8" y="63.4" width="21.5" height="53.7"/>
</g>
</svg>
