<?xml version="1.0" encoding="utf-8"?>
<!-- Generator: Adobe Illustrator 28.1.0, SVG Export Plug-In . SVG Version: 6.00 Build 0)  -->
<svg version="1.1" id="Layer_1" xmlns="http://www.w3.org/2000/svg" xmlns:xlink="http://www.w3.org/1999/xlink" x="0px" y="0px"
	 viewBox="0 0 72 72" style="enable-background:new 0 0 72 72;" xml:space="preserve">
<g>
	<path d="M19.3,43.6c0,3.3-2.7,6-6,6s-6-2.7-6-6c0-3.3,2.7-6,6-6h6V43.6z M22.4,43.6c0-3.3,2.7-6,6-6s6,2.7,6,6v15.1
		c0,3.3-2.7,6-6,6s-6-2.7-6-6V43.6z"/>
	<path d="M28.4,19.3c-3.3,0-6-2.7-6-6s2.7-6,6-6s6,2.7,6,6v6H28.4z M28.4,22.4c3.3,0,6,2.7,6,6s-2.7,6-6,6H13.2c-3.3,0-6-2.7-6-6
		s2.7-6,6-6H28.4z"/>
	<path d="M52.7,28.4c0-3.3,2.7-6,6-6s6,2.7,6,6s-2.7,6-6,6h-6L52.7,28.4L52.7,28.4z M49.6,28.4c0,3.3-2.7,6-6,6s-6-2.7-6-6V13.3
		c0-3.3,2.7-6,6-6s6,2.7,6,6L49.6,28.4L49.6,28.4z"/>
	<path d="M43.6,52.7c3.3,0,6,2.7,6,6c0,3.3-2.7,6-6,6s-6-2.7-6-6v-6L43.6,52.7L43.6,52.7z M43.6,49.7c-3.3,0-6-2.7-6-6
		c0-3.3,2.7-6,6-6h15.2c3.3,0,6,2.7,6,6s-2.7,6-6,6L43.6,49.7L43.6,49.7z"/>
</g>
</svg>
