<?xml version="1.0" encoding="utf-8"?>
<!-- Generator: Adobe Illustrator 28.1.0, SVG Export Plug-In . SVG Version: 6.00 Build 0)  -->
<svg version="1.1" id="Layer_1" xmlns="http://www.w3.org/2000/svg" xmlns:xlink="http://www.w3.org/1999/xlink" x="0px" y="0px"
	 viewBox="0 0 72 72" style="enable-background:new 0 0 72 72;" xml:space="preserve">
<g>
	<path d="M32,41.9l-0.3-12.3c0-0.4-0.3-0.7-0.7-0.7c-0.4,0-0.7,0.3-0.7,0.7L30,41.9l0.3,5.9c0,0.4,0.3,0.7,0.7,0.7
		c0.4,0,0.7-0.3,0.7-0.7L32,41.9z"/>
	<path d="M29.6,41.9l-0.4-12.8c0-0.4-0.3-0.6-0.6-0.6c-0.3,0-0.6,0.3-0.6,0.6l-0.3,12.8l0.3,6c0,0.4,0.3,0.6,0.6,0.6
		c0.3,0,0.6-0.3,0.6-0.6L29.6,41.9z"/>
	<path d="M24.4,29.2c0-0.3-0.2-0.5-0.5-0.5c-0.3,0-0.5,0.2-0.5,0.5l-0.4,12.7l0.4,6.1c0,0.3,0.2,0.5,0.5,0.5c0.3,0,0.5-0.2,0.5-0.5
		l0.5-6.1L24.4,29.2z"/>
	<path d="M26.8,28.8c0-0.3-0.3-0.6-0.6-0.6c-0.3,0-0.6,0.2-0.6,0.6l-0.4,13.1l0.4,6c0,0.3,0.3,0.6,0.6,0.6c0.3,0,0.6-0.2,0.6-0.6
		l0.4-6L26.8,28.8z"/>
	<path d="M14.5,48.3c0.2,0,0.3-0.1,0.3-0.3l0.6-6.1l-0.6-6.3c0-0.2-0.2-0.3-0.3-0.3c-0.2,0-0.3,0.1-0.3,0.3l-0.5,6.3l0.5,6.1
		C14.2,48.2,14.4,48.3,14.5,48.3z"/>
	<path d="M34.5,41.9l-0.3-14.6c0-0.2-0.1-0.5-0.3-0.6c-0.1-0.1-0.2-0.1-0.4-0.1c-0.1,0-0.3,0-0.4,0.1c-0.2,0.1-0.3,0.4-0.3,0.6v0.1
		l-0.3,14.5l0.3,5.9v0c0,0.2,0.1,0.3,0.2,0.4c0.1,0.2,0.3,0.3,0.6,0.3c0.2,0,0.4-0.1,0.5-0.2c0.1-0.1,0.2-0.3,0.2-0.5l0-0.6
		L34.5,41.9z"/>
	<path d="M17.2,36c0-0.2-0.2-0.4-0.4-0.4c-0.2,0-0.4,0.2-0.4,0.4L16,41.9l0.5,6.1c0,0.2,0.2,0.4,0.4,0.4c0.2,0,0.4-0.2,0.4-0.4
		l0.5-6.1L17.2,36z"/>
	<path d="M19.1,31.9c-0.2,0-0.4,0.2-0.4,0.4l-0.4,9.5l0.4,6.1c0,0.2,0.2,0.4,0.4,0.4s0.4-0.2,0.4-0.4l0.5-6.1l-0.5-9.5
		C19.6,32.1,19.4,31.9,19.1,31.9z"/>
	<path d="M21.9,48l0.5-6.1l-0.5-11.7c0-0.3-0.2-0.5-0.5-0.5c-0.3,0-0.5,0.2-0.5,0.5l-0.4,11.7l0.4,6.1c0,0.3,0.2,0.5,0.5,0.5
		C21.7,48.5,21.9,48.3,21.9,48z"/>
	<path d="M36.3,25.3c-0.1-0.1-0.2-0.1-0.4-0.1c-0.2,0-0.4,0.1-0.5,0.2c-0.2,0.1-0.3,0.4-0.3,0.6V26l-0.3,15.9l0.2,2.9l0.2,2.9
		c0,0.4,0.4,0.8,0.8,0.8s0.8-0.4,0.8-0.8l0.3-5.8L36.7,26C36.6,25.7,36.5,25.4,36.3,25.3z"/>
	<path d="M7.8,45.3c0.1,0,0.2-0.1,0.2-0.2l0.5-3.1l-0.5-3.2c0-0.1-0.1-0.2-0.2-0.2c-0.1,0-0.2,0.1-0.2,0.2l-0.4,3.2L7.6,45
		C7.6,45.2,7.7,45.3,7.8,45.3z"/>
	<path d="M10,47.2c0.1,0,0.2-0.1,0.2-0.2l0.7-5.1l-0.7-5.2c0-0.1-0.1-0.2-0.2-0.2c-0.1,0-0.2,0.1-0.2,0.2l-0.6,5.2l0.6,5.1
		C9.8,47.1,9.9,47.2,10,47.2z"/>
	<path d="M12.2,48.1c0.2,0,0.3-0.1,0.3-0.3l0.6-5.9l-0.6-6.1c0-0.2-0.1-0.3-0.3-0.3c-0.2,0-0.3,0.1-0.3,0.3l-0.5,6.1l0.5,5.9
		C12,48,12.1,48.1,12.2,48.1z"/>
	<path d="M57.7,34.3c-1,0-1.9,0.2-2.7,0.5c-0.6-6.4-5.9-11.4-12.4-11.4c-1.6,0-3.1,0.3-4.5,0.9c-0.5,0.2-0.7,0.4-0.7,0.8v22.5
		c0,0.4,0.3,0.8,0.8,0.8h19.6c3.9,0,7.1-3.1,7.1-7C64.8,37.5,61.6,34.3,57.7,34.3z"/>
</g>
</svg>
