<?xml version="1.0" encoding="utf-8"?>
<!-- Generator: Adobe Illustrator 28.1.0, SVG Export Plug-In . SVG Version: 6.00 Build 0)  -->
<svg version="1.1" id="Layer_1" xmlns="http://www.w3.org/2000/svg" xmlns:xlink="http://www.w3.org/1999/xlink" x="0px" y="0px"
	 viewBox="0 0 256 256" style="enable-background:new 0 0 256 256;" xml:space="preserve">
<path d="M128,0C57.31,0,0,57.31,0,128s57.31,128,128,128s128-57.31,128-128S198.69,0,128,0z M102,195.2c-11.2,0-20.4-9.2-20.4-20.4
	c0-11.2,9.2-20.4,20.4-20.4s20.4,9.2,20.4,20.4C122.4,186,113.2,195.2,102,195.2z M122.4,147.2c-24,0-43.2-19.2-43.2-43.2
	s19.2-43.2,43.2-43.2V147.2z M154,60.8c11.2,0,20.4,9.2,20.4,20.4s-9.2,20.4-20.4,20.4s-20.4-9.2-20.4-20.4S142.8,60.8,154,60.8z
	 M134.76,195.19l-1.16,0.01v-86.4c24,0,43.2,19.2,43.2,43.2C176.8,175.61,158.21,194.58,134.76,195.19z"/>
</svg>
