<?xml version="1.0" encoding="utf-8"?>
<!-- Generator: Adobe Illustrator 28.1.0, SVG Export Plug-In . SVG Version: 6.00 Build 0)  -->
<svg version="1.1" id="svg2" xmlns:svg="http://www.w3.org/2000/svg"
	 xmlns="http://www.w3.org/2000/svg" xmlns:xlink="http://www.w3.org/1999/xlink" x="0px" y="0px" viewBox="0 0 500 168"
	 style="enable-background:new 0 0 500 168;" xml:space="preserve">
<g>
	<path d="M249.35,0.29C86.4,0.29,0,115.91,0,115.91l35.41,23.93c0,0,4.28-10.73,14.1-26.07c0.04,3.85,0.57,6.53,0.57,6.53
		c6.26,48.58,53.46,47.41,53.46,47.41h292.62c0,0,47.83,1.32,54.07-47.24c0,0,0.51-2.5,0.54-6.32
		c9.61,14.96,13.84,25.36,13.84,25.36L500,115.84C500,115.84,412.3,0.29,249.35,0.29z M442.99,119.74L442.99,119.74
		c0,0-6.38,37.15-47.45,37.15H103.4c-41.06,0-46.85-37.49-46.85-37.49c-1.58-9.95,0.34-16.76,3.42-21.48
		C89.54,58.99,148.06,6.71,249.22,6.71c102.02,0,161.03,53.04,190.59,91.97C443.23,103.02,444.52,110.11,442.99,119.74z"/>
	<polygon points="164.03,79.24 164.03,79.24 168.9,68.79 106.41,68.79 101.51,79.24 125.72,79.24 100.65,130.21 116.84,130.21 
		141.89,79.24 	"/>
	<path d="M405.28,121.01L405.28,121.01c0,0-3.15,1.47-4.51,0.05c-1.35-1.4-0.15-4.01-0.15-4.01l13.2-27.76h-13.46L398.31,93
		c-7.86-6.92-22.65-3.34-31.81,6.23c-5.29,5.52-8.29,12.07-8.69,17.76c-1.5,0.99-4,2.5-7.23,3.77c0,0-3.16,1.48-4.53,0.05
		c-1.35-1.4-0.13-4.02-0.13-4.02l23.44-48.24h-13.45L343.6,92.74c-7.86-6.91-22.64-3.34-31.82,6.23c-1.86,1.96-3.42,4.02-4.71,6.13
		l0.01-0.05c-0.09,0.17-0.18,0.36-0.27,0.52c-0.3,0.5-0.58,0.98-0.83,1.47c-7.32,12.67-16.41,14.78-16.41,14.78
		c-19.23,5.75-21.42-3.67-21.42-3.67c21.54-7.96,29.63-17.39,28.88-24.61c-0.73-7.22-10.64-7.6-10.64-7.6
		c-16.29-0.98-30.39,10.41-33.81,21.56c-1.03,3.4-1.35,6.89-0.72,10.06c-6.52,3.48-10.28,4.03-10.28,4.03
		c-5.42,1.71-6.09-0.86-6.73-2.43c-0.66-1.61-3.11-15.48-3.11-15.48l22.87-14.96h-13.99L223.44,99.4c-3.87,1.61-2.37-2.46-2.37-2.46
		l14.03-28.4h-13.47l-22.76,46.11c-2.62,1.57-7.86,4.61-11.68,6.12c0,0-3.15,1.48-4.51,0.05c-1.38-1.4-0.15-4.02-0.15-4.02
		l13.22-27.75h-13.47l-2.06,3.71c-7.86-6.91-22.65-3.34-31.81,6.23c-9.18,9.58-11.52,22.22-5.24,28.22
		c5.02,4.8,14.04,3.91,22.14-1.55c0,0,2.04-1.76,3.15,0.3c1.14,2.14,5.78,6.98,16.47,2.76c3.43-1.34,6.5-2.89,9.14-4.34l-2.79,5.64
		h13.45l6.75-13.63l5.86-3.73c0,0,1.8-1.41,2.5,1.61c0,0,2.91,11.48,4.04,12.96c1.14,1.5,3.38,4.89,12.85,2.17
		c7.25-2.09,14-4.66,17.58-6.19c3.17,4.37,9.24,7.33,19.24,7.33c14.75,0,25.18-7.04,29.58-10.71c0.32,2.92,1.44,5.48,3.43,7.38
		c5.01,4.8,14.03,3.91,22.12-1.55c0,0,2.05-1.76,3.17,0.3c1.15,2.14,5.77,6.98,16.47,2.76c4.91-1.94,8.19-3.79,10.34-5.23
		c0.58,1.52,1.43,2.85,2.59,3.97c5.04,4.78,14.04,3.9,22.14-1.57c0,0,2.06-1.76,3.18,0.31c1.13,2.14,5.78,6.98,16.45,2.76
		c10.7-4.21,13.76-8.03,13.76-8.03l-2.7-4.76C413.7,116.38,410.41,118.99,405.28,121.01z M171.63,113.05
		c-4.67,6.56-11.24,9.86-14.71,7.39c-3.48-2.47-2.54-9.77,2.1-16.33c4.66-6.54,11.25-9.85,14.72-7.39
		C177.23,99.19,176.26,106.51,171.63,113.05z M267.04,108.29c0,0,3.03-10.16,12.82-14.22c0,0,2.79-0.94,4.28,0.28
		c0,0,2.09,2.02-0.4,5.75c-2.23,3.33-7.6,9.36-13.42,11.39C270.33,111.48,265.05,113.79,267.04,108.29z M335.01,113.05
		c-4.67,6.56-11.25,9.86-14.73,7.39c-3.46-2.47-2.53-9.77,2.13-16.33c4.67-6.54,11.26-9.85,14.72-7.39
		C340.59,99.19,339.66,106.51,335.01,113.05L335.01,113.05z M389.71,113.3c-4.65,6.54-11.23,9.86-14.71,7.39
		c-3.48-2.48-2.52-9.78,2.13-16.32c4.65-6.54,11.24-9.87,14.71-7.39C395.33,99.46,394.36,106.76,389.71,113.3z"/>
</g>
</svg>
