<?xml version="1.0" encoding="utf-8"?>
<!-- Generator: Adobe Illustrator 28.1.0, SVG Export Plug-In . SVG Version: 6.00 Build 0)  -->
<svg version="1.1" id="Layer_1" xmlns="http://www.w3.org/2000/svg" xmlns:xlink="http://www.w3.org/1999/xlink" x="0px" y="0px"
	 viewBox="0 0 72 72" style="enable-background:new 0 0 72 72;" xml:space="preserve">
<path d="M58.2,20.7L58.2,20.7c-2.9-0.6-5.4-2.1-7.3-4.2c-2-2.2-3.3-5-3.6-8V7.2h-2.7h-7.2v39.4c0,4.6-3.7,8.3-8.3,8.3
	c-2.7,0-5.1-1.3-6.6-3.3c-2.7-1.4-4.6-4.2-4.6-7.4c0-2.6,1.2-4.9,3-6.4c-1.9,1.5-3,3.8-3,6.4c0,3.3,1.9,6.1,4.6,7.4
	c-1.1-1.4-1.7-3.2-1.7-5c0-4.6,3.7-8.3,8.3-8.3c0.9,0,1.7,0.1,2.5,0.4V28.5c-1-0.1-1.9-0.2-2.9-0.2v7.8l0,0v-7.8
	c-9.9,0.2-17.8,8.3-17.8,18.2c0,5,2,9.5,5.2,12.7l0,0l0,0l0,0c3.3,3.4,7.9,5.5,13,5.5c10.1,0,18.2-8.2,18.2-18.2V26.5
	c3.9,2.8,8.6,4.4,13.7,4.4V21C60.1,21,59.2,20.9,58.2,20.7z M58.2,28.5c-5.1,0-9.9-1.6-13.7-4.4l0,0C48.3,26.8,53.1,28.5,58.2,28.5
	L58.2,28.5z"/>
</svg>
