<?xml version="1.0" encoding="utf-8"?>
<!-- Generator: Adobe Illustrator 28.1.0, SVG Export Plug-In . SVG Version: 6.00 Build 0)  -->
<svg version="1.1" id="Layer_1" xmlns="http://www.w3.org/2000/svg" xmlns:xlink="http://www.w3.org/1999/xlink" x="0px" y="0px"
	 viewBox="0 0 360 180" style="enable-background:new 0 0 360 180;" xml:space="preserve">
<path d="M311.6,111.2H324l-12.8-42.4h-17.7l-12.8,42.4h12.4l2.3-7.8h13.9L311.6,111.2 M298.1,93.9l4.2-14.6h0.1l4.2,14.6H298.1
	L298.1,93.9z M98.1,111.9c12.8,0,18.9-2.3,19.8-13.8c0.2-2.7,0.2-5.6,0.2-8.2c0-2.6,0-5.4-0.2-8.2c-0.9-11.5-7-13.8-19.8-13.8
	s-18.9,2.2-19.8,13.8C78.1,84.6,78,87.4,78,90c0,2.6,0,5.4,0.3,8.2C79.2,109.7,85.3,111.9,98.1,111.9 M90.1,90
	c0-2.3,0.1-3.7,0.1-4.7c0.3-6.5,2.9-7.3,7.9-7.3c5,0,7.6,0.8,7.9,7.3c0.1,1,0.1,2.4,0.1,4.7c0,2.3-0.1,3.7-0.1,4.7
	c-0.3,6.5-2.9,7.3-7.9,7.3c-5,0-7.6-0.8-7.9-7.3C90.1,93.7,90.1,92.3,90.1,90z M36,68.8v10.6h12.7v31.8h12.7V79.4H74V68.8H36
	 M230.3,111.2V68.8h-12v42.4H230.3 M182,84.3V68.8h-12v42.4h12V94.8h13.9v16.3h11.9V68.8h-11.9v15.5H182 M269.9,89
	c5.3-1.4,6.9-4.5,6.9-9.1c0-9.3-5.9-11.1-14.2-11.1H241v42.4h22.7c10.4,0,13.9-4.5,13.9-11.4C277.6,95,276.5,90.7,269.9,89
	 M253,93.8h8.3c3.3,0,4,1.5,4,3.9c0,2.4-1.3,3.9-4,3.9H253V93.8z M253,78.5h8.3c2.2,0,3.5,1,3.5,3.5c0,2.1-1.3,3.4-3.5,3.4H253
	C253,85.4,253,78.5,253,78.5z M125.1,97.3h11.4c0,2.1,0.3,3.4,1.3,4.2c1.1,0.9,2.1,1.1,5.5,1.1c3.2,0,6.8,0,6.8-4
	c0-3.1-2-3.9-5.6-4.1c-9.1-0.5-12.4-0.7-15.7-3.2c-2.3-1.7-3.5-5-3.5-9.6c0-7.7,2.7-10.4,6.5-12.2c4-1.9,19.6-1.9,23.8,0
	c5.3,2.4,5.4,7.7,5.4,12.6h-11.4c0-2.5-0.6-3.2-1-3.7c-1.2-1-2.9-1.3-5.3-1.3c-2.9,0-6.3,0.1-6.3,3.7c0,2.7,1.2,3.9,4.3,4.1
	c4.2,0.3,12.6,0.5,15.6,2.3c4.2,2.5,5.3,5.8,5.3,11.3c0,7.9-2.8,10.2-6.8,11.9c-4.5,2-19.7,2-24.6-0.2
	C125.2,107.9,125.1,103.1,125.1,97.3"/>
</svg>
