<?xml version="1.0" encoding="utf-8"?>
<!-- Generator: Adobe Illustrator 28.1.0, SVG Export Plug-In . SVG Version: 6.00 Build 0)  -->
<svg version="1.1" id="Layer_1" xmlns="http://www.w3.org/2000/svg" xmlns:xlink="http://www.w3.org/1999/xlink" x="0px" y="0px"
	 viewBox="0 0 72 72" style="enable-background:new 0 0 72 72;" xml:space="preserve">
<path d="M60.3,7.2H11.7c-2.5,0-4.5,2-4.5,4.5v48.6c0,2.5,2,4.5,4.5,4.5h48.6c2.5,0,4.5-2,4.5-4.5V11.7C64.8,9.2,62.8,7.2,60.3,7.2z
	 M38.7,36.8h-8v22.8h-6.3V36.8h-8v-5.1h22.3V36.8z M59.2,55.7c-0.6,1.1-1.4,1.9-2.4,2.6c-1,0.7-2.2,1.1-3.5,1.4
	c-1.3,0.3-2.8,0.4-4.2,0.4c-1.5,0-3-0.1-4.4-0.4c-1.4-0.3-2.6-0.6-3.6-1.2v-6.2c1.1,0.9,2.4,1.7,3.7,2.1c1.3,0.5,2.7,0.7,4,0.7
	c0.8,0,1.5-0.1,2.1-0.2c0.6-0.1,1.1-0.3,1.5-0.6c0.4-0.3,0.7-0.6,0.9-0.9c0.2-0.3,0.3-0.7,0.3-1.1c0-0.5-0.2-1-0.5-1.5
	c-0.3-0.4-0.7-0.8-1.3-1.2c-0.5-0.4-1.2-0.7-1.9-1s-1.5-0.7-2.4-1c-2.2-0.9-3.8-2-4.9-3.3C41.5,43,41,41.4,41,39.5
	c0-1.4,0.3-2.7,0.9-3.7c0.6-1,1.4-1.9,2.4-2.6c1-0.7,2.2-1.2,3.5-1.5c1.3-0.3,2.7-0.5,4.2-0.5c1.5,0,2.7,0.1,3.9,0.3
	c1.1,0.2,2.2,0.4,3.1,0.8v5.8c-0.5-0.3-1-0.6-1.5-0.9c-0.6-0.2-1.1-0.5-1.7-0.6c-0.6-0.2-1.2-0.3-1.7-0.4c-0.6-0.1-1.1-0.1-1.6-0.1
	c-0.7,0-1.4,0.1-1.9,0.2c-0.6,0.1-1.1,0.3-1.5,0.6c-0.4,0.2-0.7,0.5-0.9,0.9c-0.2,0.3-0.3,0.7-0.3,1.2c0,0.5,0.1,0.9,0.4,1.3
	s0.6,0.7,1.1,1c0.5,0.3,1,0.7,1.7,1c0.6,0.3,1.4,0.6,2.2,1c1.1,0.5,2.1,1,3,1.5c0.9,0.5,1.6,1.1,2.3,1.8c0.6,0.7,1.1,1.4,1.5,2.3
	c0.3,0.8,0.5,1.8,0.5,3C60.1,53.3,59.8,54.6,59.2,55.7z"/>
</svg>
