<?xml version="1.0" encoding="utf-8"?>
<!-- Generator: Adobe Illustrator 28.1.0, SVG Export Plug-In . SVG Version: 6.00 Build 0)  -->
<svg version="1.1" id="Layer_1" xmlns="http://www.w3.org/2000/svg" xmlns:xlink="http://www.w3.org/1999/xlink" x="0px" y="0px"
	 viewBox="0 0 107.57 119" style="enable-background:new 0 0 107.57 119;" xml:space="preserve">
<g>
	<g>
		<g>
			<path d="M13.85,104.62c-0.18-0.56-0.69-1.82-0.83-2.75c-0.31-2.06,0.77-3.42,1.76-3.73c1.11-0.31,1.54,0.25,1.97,1.54
				c0.56,1.97,0.62,4.56,0.43,8.27c-0.24,5.06-2.77,11.17-9.07,11.05c-5.43-0.12-7.84-3.64-8.09-9.01
				c-0.12-2.53,0.06-5.06,1.11-8.64c0.56-1.92,1.05-2.6,2.78-2.96c1.36-0.25,1.23,1.17,0.93,2.84c-0.68,3.7-0.99,5.49-0.74,9.69
				c0.24,4.44,2.28,6.17,4.51,6.17c3.33,0.06,4.81-2.71,5.43-6.73C14.53,107.15,14.17,105.61,13.85,104.62z M84.92,109.01
				c1.3,0,1.67,1.54,1.36,2.46c-0.31,0.92-1.42,1.98-3.15,2.29C82.76,112.83,82.57,109.01,84.92,109.01z M60.79,111.1
				c0-1.04-0.56-1.91-1.23-1.91c-0.56,0-1.85,0.61-1.85,2.59c0,1.55,0.55,2.28,0.8,2.6C60.29,113.82,60.79,112.33,60.79,111.1z
				 M41.59,98.51c-0.09-0.99-0.86-1.66-1.91-1.66c-1.17,0-2.27,1.23-2.16,2.77c0.08,1.02,0.67,1.86,1.85,1.86
				C40.73,101.48,41.72,99.93,41.59,98.51z M51.63,102.14c-0.11-1.73-0.53-2.5-1.45-2.44c-1.23,0.07-1.8,3.94-1.55,8.01
				c0.16,2.65,0.56,3.06,0.92,3.04C50.24,110.69,51.87,105.96,51.63,102.14z M92.57,108.63c-0.76,3.17-3.08,7.84-6.54,7.84
				c-0.8,0-2.22-0.31-2.22-1.11c0-0.86,5.43-0.98,5.43-5.12c0-1.54-1.42-3.7-3.52-3.7c-2.78,0-5.49,3.03-5.49,7.22
				c0,3.76,2.34,5,4.68,5c4.07,0,6.54-3.33,7.84-6.11c0.62,1.85,0.98,6.11,2.53,6.11c0.61,0,1.05-0.31,1.79-1.97
				c1.85-4.14,3.64-8.89,6.11-8.89c0.92,0,0.37,1.67,2.59,1.67c1.05,0,1.79-0.86,1.79-1.86c0-1.42-1.29-2.53-3.27-2.53
				c-5.8,0-7.03,8.7-7.96,8.7c-1.54,0-1.05-6.97-2.16-6.97C93.19,106.9,92.7,108.08,92.57,108.63z M43.2,116.04
				c0.92,0,2.52-0.3,3.77-2.31c-0.72-1.59-1.23-4.8-1.3-5.97c-0.37-5.98,1.94-11.61,4.46-11.77c1.85-0.11,3.33,1.64,3.5,4.48
				c0.46,7.46-2.03,10.57-3.27,13.25c0.21,1.04,1.98,2.81,3.64,2.81c0.62,0,1.36-0.31,1.55-0.56c-0.12-0.43-0.25-0.98-0.25-1.79
				c0-4.32,2.78-7.96,5.19-7.96c1.91,0,3.02,2.53,3.02,4.2c0,1.97-1.67,3.58-4.13,5.12c0.43,0.43,1.23,0.74,1.91,0.74
				c3.52,0,5.36-4.26,6.73-8.15c0.25-0.74,0.68-1.79,1.54-1.79c1.48,0,2.1,9.75,4.56,9.75c1.05,0,1.92-2.16,1.92-3.82
				c0-1.24-0.43-1.36-0.43-3.15c0-1.97,1.05-3.64,2.47-3.64c0.86,0,1.18,0.86,1.18,1.91c0,3.95-2.84,11.3-7.03,11.3
				c-3.15,0-2.91-5.43-4.02-5.43c-1.24,0-2.97,5.49-9.07,5.49c-0.99,0-2.04-0.49-2.9-1.48c-1.48,0.99-2.72,1.42-4.14,1.42
				c-2.28,0-3.27-2.35-4.19-2.35c-1.11,0-2.34,2.41-6.05,2.41c-2.96,0-3.46-3.95-4.5-3.95c-0.93,0-2.35,3.95-3.89,3.95
				c-2.6,0-3.15-6.85-5.43-6.85c-1.79,0-7.44,6.96-8.98,6.8c-0.62-0.06-0.88-0.53-0.81-1.14c0.09-0.85,0.82-3.14,1.12-4.22
				c0.5-1.88,0.96-3.93,1.21-4.59c0.25-0.66,0.94-1.13,1.49-1.08c0.28,0.03,0.36,0.54,0.45,0.97c0.31,1.53,0.75,3.08,1.24,3.08
				c0.87,0,3.73-5.49,5.4-5.49c2.04,0,2.28,8.64,5.06,8.64c0.93,0,1.61-1.11,2.22-2.47c0.06-2.29,0.68-5.55,2.53-5.55
				c1.3,0,1.92,2.9,0.99,5.43C39.93,115.3,41.9,116.04,43.2,116.04"/>
		</g>
	</g>
	<path d="M86.19,19.25c-0.46,0-1.11,0-1.47-0.72c-0.3-0.59-0.2-1.54-0.75-1.97c0.56,0.16,1.15,0.16,1.6,0.16
		c1.48,0,2.89-1.02,3.97-1.02c0.71,0,0.94,0.46,0.94,0.92C90.48,18.08,87.57,19.25,86.19,19.25z M86.91,22.95
		c3.4,0,6.52-2.72,6.52-5.11c0-1.11-0.53-2.03-1.87-2.19c0.23,0.3,0.33,0.52,0.33,1.05c0,1.8-2.75,3.8-5.73,3.8
		c-1.08,0-1.41,0.75-1.41,1.15C84.75,22.56,85.63,22.95,86.91,22.95z M86.65,24.33c0.43,3.11,5.14,7.3,6.42,7.2
		c0.85-0.07,1.18-4.06,1.18-7.2c0-1.8,0.1-3.21-0.85-3.54C91.88,23.84,87.93,24.46,86.65,24.33"/>
	<path d="M12.93,44.93c1.11,0,0.88-6.81,2.68-6.81c0.43,0,0.56,0.43,0.56,0.95c0,1.54-0.75,3.8-0.75,5.04
		c0,0.62,0.16,0.82,0.46,0.82c0.79,0,2.16-7.5,3.5-7.5c0.43,0,0.62,0.43,0.62,0.85c0,1.57-2,6.09-2,7.37c0,0.2,0.06,0.36,0.23,0.36
		c0.82,0,2.46-3.54,2.98-5.3c0.3-0.92,0.69-1.41,1.05-1.41c0.33,0,0.62,0.36,0.62,1.12c0,1.77-1.64,5.93-3.08,8.71
		c-1.11,2.16-2.85,5.27-2.85,7.01c0,0.88,0.16,1.8,1.44,2.92c-2.1-0.13-2.95-0.33-3.73-1.96c-3.51,6.97,6.45,6.29,3.05,12.47
		c-0.62-1.11-5.53-2.26-5.53-8.74c0-5.6,4.91-8.88,4.91-11.2c0-0.46-0.16-0.85-0.59-1.21c-1.08-0.92-1.11-1.67-1.97-1.67
		c-0.62,0-1.38,1.44-0.59,2.72c0.26,0.43,0.49,0.69,0.49,1.08c0,0.92-1.44,3.37-2.46,3.37c-1.02,0-1.8-2.52-1.8-6.58
		c0-3.6,0.82-7.24,1.83-7.24c0.29,0,0.39,0.2,0.39,0.46c0,0.43-0.13,1.28-0.13,2.72C12.28,44.8,12.64,44.93,12.93,44.93"/>
	<path d="M21.28,54.52c1.38,0,2.52-1.02,2.52-3.27v-3.34c0-1.28,0.1-2.72,0.95-3.73c-0.1,0.43-0.1,0.88-0.1,1.31
		c0,2.82,1.57,4.75,1.57,7.47c0,1.01-0.3,1.57-1.08,1.57c-0.75,0-0.69-0.69-0.85-0.69c-0.13,0-0.33,0.42-0.33,0.88
		c0,0.69,0.49,1.77,1.87,1.77c1.18,0,2.13-1.08,2.13-2.29c0-2.94-2.29-6.22-2.29-9.36c0-1.38,0.36-2.29,0.66-3.01
		c0,6.52,5.53,11.27,5.53,13.98c0,0.62-0.46,1.12-1.15,1.12c-0.75,0-1.11-0.59-1.11-1.05c0-0.23-0.03-0.29-0.13-0.29
		c-0.19,0-0.78,0.65-0.78,1.51c0,1.08,0.88,2.39,2.52,2.39c1.86,0,2.88-1.57,2.88-2.98c0-3.44-6.71-8.65-6.71-14.21
		c0-0.95,0.16-2.49,0.85-3.67c-4.32,2.78-5.67,6.48-5.67,9.73c0,2.82-0.1,4.22-1.54,4.22c-0.75,0-0.95-0.69-1.21-0.69
		c-0.2,0-0.3,0.59-0.3,0.75C19.51,53.84,20.4,54.52,21.28,54.52"/>
	<path d="M70.9,17.65c0.42-0.28,2.26,0.16,4.65-1.02c0.29-0.16,0.59-0.23,0.85-0.23c1.15,0,0.85,1.31,1.9,1.31
		c0.82,0,1.87-0.69,2.49-0.69c0.98,0,2.39,3.08,2.39,4.52c0,1.67-2.52,2.69-5.5,2.69c-4.35,0-6.98-3.8-6.98-6.26
		C70.7,17.78,70.8,17.72,70.9,17.65z M78.04,21.81c1.44,0,2.52-0.66,2.52-1.05c0-0.13-0.2-0.23-0.62-0.23
		c-0.43,0-1.28-0.03-2.88-0.3c-1.38-0.23-2.43-0.75-2.82-0.75c-0.13,0-0.2,0.07-0.2,0.16C74.04,20.5,75.61,21.81,78.04,21.81"/>
	<path d="M21.97,66.87c-1.08,0.26-2.82,1.96-2.82,4.65c0,3.21,3.44,8.15,9.1,8.15c4.78,0,5.96-3.31,5.96-5.54
		c0-4.94-3.04-8.42-7.01-8.42c-2.16,0-4.09,1.57-4.09,3.9c0,2.16,1.64,5.4,5.53,5.4c1.83,0,2.91-1.31,2.91-2.81
		c0-1.47-1.34-3.5-3.31-3.5c-0.59,0-1.01,0.39-1.01,1.01c0,0.78,1.08,1.57,2.42,1.57c0.33,0,0.59-0.07,0.72-0.13
		c0.06,0.1,0.1,0.26,0.1,0.39c0,0.75-0.72,1.21-1.83,1.21c-1.67,0-3.27-1.24-3.27-3.21c0-1.18,1.02-2.03,2.49-2.03
		c2.91,0,4.65,2.59,4.65,5.18c0,2.32-1.27,3.67-3.9,3.67C23.38,76.37,20.83,71.65,21.97,66.87"/>
	<path d="M59.35,86.06c1.57,0,1.49-0.13,1.98-0.13c0.49,0,0.52,0.29,0.52,0.49c0,0.72-1.61,1.61-4.45,1.61
		c-1.67,0-2.69-0.89-2.98-1.87c-1.64,1.05-4.12,2-6.58,2c-6.71,0-8.42-2.92-10.51-3.86c-1.6-0.72-4.06,0.69-7.5-3.14
		c0.46,0.1,1.08,0.13,1.57,0.13c3.01,0,4.62-1.47,4.62-3.83c0-0.3-0.03-0.62-0.07-0.91c0.92,0.36,3.01,1.93,3.51,4.71
		c0.06,0.33,1.41,0.62,2.26,0.62c1.18,0,2.69-0.49,2.92-2.42c3.93-0.33,6.58-2.65,7.14-5.6c1.41,0.46,3.01,1.74,3.4,2.39
		c0.56-0.2,1.21-0.29,1.96-0.29c1.05,0,2.23,0.2,3.63,0.62c0.07-0.43,0.13-0.95,0.79-0.95c0.98,0,0.72,1.08,1.05,1.7
		c0.16,0.33,0.98,0.52,0.98,1.18c0,0.62-0.53,0.85-0.85,0.85c-0.13,0-0.29-0.03-0.39-0.07c-0.65,0.23-0.69,4.94-3.44,4.94
		c-2.03,0-3.9-1.67-4.72-3.76c-0.23-0.62-0.72-1.02-1.18-1.02c-0.52,0-0.82,0.1-1.44,0.79c-1.77,1.93-4.72,3.6-8.35,3.6
		c-1.11,0-2-0.1-2.23-0.1c-0.13,0-0.13,0.03-0.13,0.07c0,0.23,1.11,1.11,3.54,1.11c5.76,0,7.17-3.24,8.09-3.24
		c0.13,0,0.52,0,0.75,0.53C54.59,85.34,57.52,86.06,59.35,86.06z M56.81,79.51c0,0.72,0.59,1.31,1.31,1.31s1.31-0.59,1.31-1.31
		c0-0.72-0.59-1.31-1.31-1.31S56.81,78.79,56.81,79.51"/>
	<path d="M82.75,63.17c-0.46,0-0.95,0.36-0.95,1.25c0,0.98,0.75,1.6,1.18,1.8c0.23,0.13,0.59,0.26,0.95,0.26
		c0.95,0,1.71-0.26,1.71-1.05C85.63,64.42,84.16,63.17,82.75,63.17z M79.22,65.2c-0.69,0-4.49,5.08-6.94,5.08
		c-0.59,0-1.08-1.11-1.08-1.96c0-0.46,0.29-0.79,1.35-1.02c5.63-1.28,4.39-5.5,9.19-5.5c2.65,0,5.6,1.8,5.6,5.86
		c0,4.32-6.15,9.69-7.07,9.69c-0.75,0-1.57-1.08-1.57-1.8c0-0.23,0.1-0.52,0.75-0.79c3.14-1.25,4.94-4.13,4.94-5.6
		c0-0.33-0.16-0.65-0.59-0.65c-0.56,0-2.94,5.43-5.6,5.43c-1.84,0-3.71-1.67-3.71-2.45c0-1.31,5.31-3.73,5.31-5.57
		C79.81,65.23,79.48,65.2,79.22,65.2"/>
	<path d="M14.41,22.27c0,0-0.95,0.72-2.13,0.72c-1.41,0-2.52-1.05-2.52-2.52c0-1.02,0.52-2.06,1.73-2.59
		c-0.03,0.2-0.03,0.36-0.03,0.56C11.46,20.3,12.51,21.71,14.41,22.27z M21.41,28.56c-0.72,0.85-1.47,2.29-1.47,3.76
		c0,1.77,1.08,3.24,2.75,3.24c1.6,0,2.36-1.38,2.36-2.78C25.05,30.59,23.05,29.05,21.41,28.56z M10.54,29.86
		c-0.06,0.1-0.1,0.23-0.1,0.36c0,0.3,0.33,0.62,0.62,0.62c0.26,0,0.43-0.07,0.56-0.07c0.78,0,1.67,0.56,2.95,0.56
		c0.75,0,1.64-0.23,2.75-0.78c2.36-1.18,3.28-4.09,3.28-4.59c0-0.62-0.5-0.54-0.92-1.11c-0.42-0.57-0.26-1.08-0.52-1.34
		c-0.15-0.15-0.62-0.16-1.21-0.23c-0.2-0.02-0.46-0.03-0.72-0.03c-1.08,0-2.36,0.13-3.8,1.05C10.58,26.11,11,29.11,10.54,29.86z
		 M18.24,25.8c0.23,0.31,0.85,0.69,0.85,0.92c0,0.46-0.26,1.05-0.79,1.05c-1.15,0-2.06-1.74-2.06-2.72c0-0.62,0.36-0.69,0.85-0.69
		c0.23,0,0.33,0.03,0.49,0.13C17.88,24.66,17.88,25.31,18.24,25.8z M15.22,29.8c-1.08,0-2.26-1.34-2.26-2.56
		c0-0.65,0.49-1.47,0.85-1.47c0.13,0,0.2,0.1,0.23,0.33c0.2,1.6,1.24,2.52,2.23,2.98c0.1,0.07,0.16,0.1,0.16,0.16
		C16.44,29.47,15.81,29.8,15.22,29.8z M18.01,21.55c0.16-0.52,0.29-1.18,0.29-1.9c0-1.57-0.72-3.96-2.95-3.96
		c-1.28,0-2.19,1.01-2.19,2.23C13.16,20.5,15.75,21.55,18.01,21.55z M9.53,34.65c0,2.49,0.75,3.67,2.1,3.67
		c1.05,0,2.46-0.75,4.12-2.19c-1.28,0.29-2.26,0.49-3.14,0.49C11.43,36.61,10.51,36.15,9.53,34.65z M10.67,31.73
		c-0.03,0.17-0.03,0.33-0.03,0.49c0,1.54,0.82,2.39,1.9,2.39c0.82,0,1.77-0.49,2.62-1.57c-0.36,0.06-0.78,0.1-1.18,0.1
		C12.77,33.14,11.46,32.81,10.67,31.73z M18.7,31.27c-0.75,0.2-2.33,1.11-2.33,2.75c0,1.18,0.92,1.93,2.06,1.93
		c0.59,0,1.01-0.13,1.28-0.33c-0.92-0.88-1.24-1.87-1.24-2.85C18.47,32.09,18.57,31.67,18.7,31.27z M19.88,22.3
		c0,0.72,0.59,1.31,1.31,1.31c0.72,0,1.31-0.59,1.31-1.31c0-0.72-0.59-1.31-1.31-1.31C20.46,20.99,19.88,21.58,19.88,22.3z
		 M21.58,25.25c0,0.72,0.59,1.31,1.31,1.31c0.72,0,1.31-0.59,1.31-1.31c0-0.72-0.59-1.31-1.31-1.31
		C22.17,23.94,21.58,24.53,21.58,25.25"/>
	<path d="M72.67,41.33c0-0.65,0.59-1.21,1.24-1.21c0.72,0,1.28,0.56,1.28,1.21c0,0.75-0.56,1.28-1.28,1.28
		C73.26,42.6,72.67,42.08,72.67,41.33z M61.17,31.24c0,0.72,0.59,1.31,1.31,1.31c0.72,0,1.31-0.59,1.31-1.31
		c0-0.72-0.59-1.31-1.31-1.31C61.76,29.93,61.17,30.52,61.17,31.24z M60.06,35.86c0,1.02,0.85,1.87,1.87,1.87
		c1.01,0,1.87-0.85,1.87-1.87c0-1.01-0.85-1.87-1.87-1.87C60.91,33.99,60.06,34.84,60.06,35.86z M64.18,33.76c0,1.12,0.89,2,1.99,2
		c1.11,0,2-0.88,2-2c0-1.11-0.89-2-2-2C65.07,31.76,64.18,32.65,64.18,33.76z M64.35,29.5c0,0.69,0.56,1.25,1.24,1.25
		c0.69,0,1.25-0.56,1.25-1.25c0-0.69-0.56-1.24-1.25-1.24C64.91,28.26,64.35,28.82,64.35,29.5z M70.28,26.36
		c0,0.69,0.56,1.24,1.25,1.24c0.69,0,1.25-0.56,1.25-1.24c0-0.69-0.56-1.25-1.25-1.25C70.83,25.12,70.28,25.67,70.28,26.36z
		 M67.82,30.39c0,1.15,0.95,2.09,2.1,2.09c1.15,0,2.1-0.95,2.1-2.09c0-1.15-0.95-2.1-2.1-2.1C68.77,28.29,67.82,29.24,67.82,30.39z
		 M64.45,38.05c0,0.72,0.59,1.31,1.31,1.31c0.72,0,1.31-0.59,1.31-1.31c0-0.72-0.59-1.31-1.31-1.31
		C65.04,36.74,64.45,37.33,64.45,38.05z M68.74,35.43c0,0.72,0.59,1.31,1.31,1.31c0.72,0,1.31-0.59,1.31-1.31
		c0-0.72-0.59-1.31-1.31-1.31C69.32,34.12,68.74,34.71,68.74,35.43z M67.52,40.05c0,1.24,1.01,2.26,2.26,2.26
		c1.25,0,2.26-1.02,2.26-2.26s-1.02-2.26-2.26-2.26C68.54,37.79,67.52,38.81,67.52,40.05z M72.24,37.26c0,0.85,0.69,1.54,1.54,1.54
		c0.85,0,1.54-0.69,1.54-1.54c0-0.85-0.69-1.54-1.54-1.54C72.93,35.73,72.24,36.41,72.24,37.26z M72.14,33.14
		c0,0.76,0.62,1.38,1.37,1.38c0.75,0,1.38-0.62,1.38-1.38c0-0.75-0.62-1.37-1.38-1.37C72.77,31.76,72.14,32.39,72.14,33.14"/>
	<path d="M75.48,76.11c-0.85,0.66-2.84,2.13-6.15,2.13c-1.77,0-2.56-0.56-2.82-0.56c-0.33,0-0.69,0.33-1.05,0.75
		c-0.78,0.92-1.79,2.62-1.79,4.49c0,1.31,1.02,2.62,2.91,2.62c6.13,0,10.71-3.83,10.71-6.94C77.28,76.83,76.23,76.11,75.48,76.11z
		 M73.78,75.75c0.26-0.23,0.33-0.59,0.33-0.95v-0.75c0-0.95-1.43-1.5-3.4-1.5c-2.39,0-3.67,1.08-3.67,1.54v1.51
		c0,0.62,1.44,1.25,3.21,1.25C71.65,76.83,72.93,76.47,73.78,75.75z M73.51,78.99c0.17,0,0.36,0.1,0.36,0.69
		c0,0.72-0.33,1.67-1.5,2.42c-0.82,0.56-1.93,1.02-3.57,1.05c0.26-0.78,0.46-1.6,0.46-2.39c0-0.26-0.03-0.46-0.07-0.75h0.43
		C72.21,80,73.32,78.99,73.51,78.99"/>
	<path d="M61.01,38.97c0.36,2.78,4.1,1.37,4.1,4.75c0,0.49-0.13,1.21-0.13,1.83c0,0.72,0.06,1.34,0.62,1.34
		c0.56,0,0.69-0.39,0.69-0.92s-0.13-1.18-0.13-1.54c0-1.15,0.82-1.41,1.31-1.41c1.25,0,2.19,1.28,4.06,1.28
		c-0.43,2.1-4.75,1.54-4.75,3.83c0,1.15,1.15,1.41,1.9,1.41c0.69,0,0.92-0.1,0.92-0.69c0-0.33-0.07-0.69-0.07-0.92
		c0-0.13,0.1-0.26,0.26-0.26c0.72,0,4.25,2.69,4.25,3.51c0,0.75-3.73,1.51-4.81,1.51c-0.33,0-0.39-0.23-0.39-0.36
		c0-0.23,0.56-0.92,0.56-1.31c0-0.29-0.49-0.49-1.8-0.49c-0.62,0-1.08,0.07-1.08,0.56c0,0.88,1.44,1.96,1.44,2.78
		c0,0.66-0.39,1.05-1.44,1.05c-0.89,0-2.22-0.69-2.22-1.83c0-0.92,0.94-1.83,0.94-2.39c0-0.16-0.12-0.43-0.52-0.43
		c-1.21,0-1.54,3.21-5.83,3.57c0.69-0.62,1.28-1.31,1.28-2.72c0-0.69-0.16-1.25-0.16-2c0-0.98,0.46-1.47,1.11-1.47
		c1.21,0,1.8,1.7,2.59,1.7c0.43,0,0.89-0.39,0.89-0.98c0-2.49-4.78-2.13-4.78-5.63C59.79,41.78,60.12,40.61,61.01,38.97z
		 M76.63,48.56c0,0.82,0.26,1.77,1.08,1.77c0.69,0,1.28-1.05,1.28-2.19c0-1.31-0.23-2.33-0.23-2.85c0-0.23,0.1-0.33,0.23-0.33
		c0.49,0.03,0.95,1.38,1.48,1.38c0.59,0,1.47-1.08,1.83-1.08c0.1,0,0.13,0.13,0.13,0.16c0,0.49-0.75,1.57-0.75,2
		c0,0.36,1.9,0.42,1.9,0.75c0,0.49-1.99,0.49-2.94,0.92c-0.92,0.39-1.48,0.88-1.48,1.54c0,0.65,0.66,0.78,1.57,0.78
		c2.19,0,3.73-1.18,4.22-1.18c0.1,0,0.16,0.06,0.16,0.16c0,0.33-1.11,1.41-1.11,1.9c0,0.56,2.03,1.21,2,1.54
		c-0.03,0.1-0.16,0.13-0.39,0.13c-0.36,0-0.92-0.1-1.35-0.1c-0.26,0-0.49,0.03-0.59,0.16c-0.23,0.26,0.07,2-0.39,2
		c-0.43,0-1.54-3.86-4.06-3.86c-0.36,0-0.62,0.29-0.62,0.79c0,1.31,1.28,2.81,2.49,3.54c0.55,0.36,1.47,0.72,1.47,0.92
		c0,0.39-2.09,0.03-2.09,0.69c0,0.59,0.26,1.48,0.26,2c0,0.16-0.03,0.36-0.23,0.36c-0.39,0-1.35-1.8-1.8-1.8
		c-0.39,0-1.25,1.08-1.61,1.08c-0.1,0-0.16-0.1-0.16-0.19c0-0.75,1.21-2.46,1.21-4.13c0-0.79-0.1-2.49-1.05-2.49
		c-0.79,0-1.67,1.24-2.07,2.49c-0.23,0.72-0.07,3.5-0.59,3.5c-0.49,0-0.36-1.87-1.02-1.87c-0.48,0-1.53,0.88-1.89,0.88
		c-0.07,0-0.13-0.03-0.13-0.1c0-0.39,0.95-1.67,0.95-1.93c0-0.49-2.16-0.56-2.16-0.95c0-0.23,0.85-0.39,1.64-0.53
		c1.67-0.29,4.12-1.51,4.12-3.21c0-1.9-1.83-2.72-3.04-3.51c-0.62-0.39-1.31-0.72-1.31-0.98c0-0.26,0.79-0.26,1.11-0.26
		c0.49,0,0.98-0.03,0.98-0.42c0-0.3-0.07-0.88-0.07-1.34c0-0.33,0.03-0.59,0.17-0.59c0.49,0,1.18,1.6,1.51,1.6
		c0.52,0,1.24-1.31,1.74-1.31c0.16,0,0.23,0.1,0.23,0.39C77.25,46.01,76.63,47.38,76.63,48.56"/>
	<path d="M61.96,57.63c1.51,0.2,1.87,0.72,1.87,1.15c0,0.72-0.66,0.95-1.28,0.95c-0.46,0-0.98-0.1-1.54-0.1
		c-0.72,0-1.44,0.16-2.03,0.85c0.42,0.06,1.05,0.36,1.05,1.02c0,1.9-5.27,0.33-5.27,5.21c0,2.59,2.69,5.4,6.74,5.4
		c2.1,0,3.44-0.69,3.44-1.48c0-0.62-1.11-0.2-1.11-0.72c0-0.23,0.39-0.66,0.39-1.02c0-0.16-0.13-0.46-0.39-0.46
		c-0.59,0-1.71,0.95-3.97,0.95c-1.77,0-3.51-1.01-3.51-2.39c0-0.29,0.13-0.46,0.33-0.46c0.2,0,0.46,0.13,0.69,0.13
		c0.2,0,0.23-0.13,0.23-0.49c0-0.36,0-1.38,0.62-1.38c0.62,0,1.8,2.29,6.33,2.29c1.5,0,4.42-0.29,5.5-1.28
		c-0.03,3.6-2.85,8.35-8.74,8.35c-6.12,0-9.4-4.91-9.4-9.43c0-5.01,4.09-9.56,9.69-9.56c1.44,0,2.65,0.49,2.65,1.11
		C64.25,57.15,62.12,56.62,61.96,57.63z M72.01,59.37c0.23,0.36,0.33,0.72,0.33,1.05c0,0.92-0.62,1.77-0.62,2.72
		c0,1.08,0.82,1.96,2.06,1.96c1.34,0,2.26-1.08,2.26-2.36C76.04,61.01,74.46,59.53,72.01,59.37z M61.17,61.47
		c0.33,0.33,0.43,0.65,0.43,0.98c0,0.49-0.23,1.02-0.23,1.57c0,0.78,0.59,1.47,1.44,1.47c0.92,0,1.54-0.72,1.54-1.57
		C64.35,62.68,63.07,61.47,61.17,61.47z M65.52,55.9c3.44,0.65,5.31,3.24,5.31,5.67c0,1.67-1.05,3.21-2.88,3.21
		c-1.67,0-2.88-1.15-2.88-2.98c0-1.38,1.07-2.82,1.07-4.22C66.14,57.01,65.98,56.46,65.52,55.9z M67.23,60.26
		c0,0.46,0.33,0.82,0.79,0.82c0.52,0,0.85-0.46,0.85-0.98c0-0.69-0.62-1.64-1.21-1.64c-0.26,0-0.16,0.39-0.23,0.82
		C67.39,59.6,67.23,59.99,67.23,60.26"/>
	<path d="M31.08,26.56c1.11,0,2.39-6.03,2.39-7.04c0-0.26-0.1-0.46-0.33-0.46c-1.02,0-2.42,5.73-2.42,7.01
		C30.72,26.3,30.78,26.56,31.08,26.56z M39.1,28.36c0.82,0,1.73-3.15,1.73-5.11c0-0.43-0.06-0.88-0.26-0.88
		c-0.69,0-1.83,3.24-1.83,5.01C38.74,28.06,38.9,28.36,39.1,28.36z M33.76,25.44c0.36,0,0.82-0.4,1.67-1.34
		c0.06-0.43,0.06-0.82,0.06-1.31c0-0.65-0.26-1.38-0.65-1.38c-0.98,0-1.47,2.62-1.47,3.31C33.37,25.12,33.56,25.44,33.76,25.44z
		 M38.25,24.1c0-0.56-0.13-0.69-0.26-0.69c-0.33,0-0.69,0.39-1.21,1.28c0.06,1.18,0.26,1.7,0.59,1.7
		C37.72,26.39,38.25,25.25,38.25,24.1z M40.77,20.24c2.16,0,3.14,1.87,3.14,3.96c0,0.92-0.26,2.26-0.69,2.26s-0.36-0.75-0.43-1.44
		c-0.06-0.88-0.23-1.08-0.53-1.08c-0.56,0-0.92,1.31-0.92,2.52c0,0.75,0.13,1.6,0.72,1.6c0.33,0,0.62-0.16,0.82-0.36
		c-0.13,1.5-1.25,2.82-2.82,2.82c-2.88,0-3.96-3.37-4.29-5.34c-1.74,1.83-3.34,3.18-6.22,3.18c-2.68,0-3.9-1.97-3.9-3.83
		c0-0.56,0.2-2,0.89-2c0.82,0,0.1,2.68,1.7,2.68c0.39,0,1.11-0.33,1.51-1.41c0.23-0.66,0.36-1.34,0.36-1.93
		c0-0.89-0.2-1.44-0.85-1.44c-0.56,0-1.25,0.42-1.48,0.65c0.79-2.36,2.69-3.57,4.78-3.57c2.59,0,3.96,2.29,3.96,4.85
		c0,0.36-0.03,0.75-0.1,1.11C37.56,21.65,39.1,20.24,40.77,20.24"/>
	<path d="M34.64,29.05c-1.41,0-1.47,1.71-1.47,5.14c-1.05-2.26-2.78-4.68-4.81-4.68c-1.38,0-1.9,0.92-1.9,2.52
		c0,0.33,0.03,0.82,0.1,1.11c0.16-0.56,0.69-0.78,1.34-0.78c1.41,0,3.11,1.08,4.22,2.56c-1.28-0.23-2.52-0.46-3.57-0.46
		c-0.66,0-1.25,0.07-1.74,0.29c-0.95,0.42-2.23,1.83-2.23,3.96c0,0.33,0.03,0.69,0.1,1.08c1.15-2.56,4.19-3.7,6.16-3.7
		c0.39,0,0.69,0.03,0.92,0.07c-1.02,0.92-1.24,2.52-1.31,3.6c-0.03,0.52-0.23,0.56-0.59,0.56c0,1.08,0.85,2.69,0.85,3.5
		c0,0.29-0.16,0.56-0.33,0.62c0,1.44,1.44,2.49,1.44,3.4c0,0.23-0.06,0.43-0.16,0.53c0.1,0.59,1.68,1.58,1.89,2.08
		c0.25,0.6,0.53,0.71,0.7,0.71c0.56,0,1.44-0.66,1.44-1.25c0-0.2-0.16-0.42-0.29-0.52c-0.62-0.46-0.95-1.44-1.21-2.09
		c-0.23,0-0.53-0.1-0.63-0.48c-0.18-0.68-0.19-1.94-0.45-2.69c-0.43-0.1-0.62-0.26-0.62-1.15c0-0.43,0.26-2.1,0.26-2.69
		c-0.2,0-0.46-0.13-0.46-0.52c0-1.05,1.05-1.87,1.34-3.21c1.87,1.37,2.32,2.78,2.32,4.03c0,0.65-0.1,1.28-0.23,1.87
		c1.38-0.69,3.44-1.7,3.44-3.77c0-1.21-0.56-2.56-4.26-3.08c1.15-0.43,2.59-0.65,3.8-0.65c2.1,0,3.31,0.65,3.57,2.13
		c0.43-0.65,0.75-1.41,0.75-2.1c0-1.61-1.34-2.65-3.05-2.65c-2,0-3.77,1.05-5.67,2.33c0.85-1.77,1.44-2.82,2.49-2.82
		c0.16,0,0.33,0.03,0.49,0.07C36.9,30.45,35.43,29.05,34.64,29.05"/>
	<path d="M89.82,52.66c1.64,0,2.95,2.13,2.95,4.62c0,2.65-1.25,5.53-3.47,7.5c-0.03-4.42-5.44-3.01-5.44-6.22
		c0-1.38,0.99-2.29,2.17-2.29c1.05,0,1.87,0.29,2.46,0.89c-0.59-0.56-0.89-1.35-0.89-2.1C87.6,53.8,88.39,52.66,89.82,52.66"/>
	<path d="M60.58,21.55c0.85,0.82,1.6,1.18,2.52,1.18c0.36,0,0.79-0.1,1.02-0.1c0.29,0,0.49,0.13,0.49,0.36
		c0,0.36-0.33,0.95-0.72,1.28c0.39,0.16,0.82,0.23,1.28,0.23c1.86,0,3.99-1.18,3.99-4.13c0.39,0.52,0.62,1.6,0.62,2.1
		c0,3.57-2.62,4.94-5.04,4.94c-1.57,0-2.36-0.52-2.56-0.52c-0.62,0-0.59,1.25-1.01,1.21c-0.75-0.13-1.44-1.8-1.44-3.57
		C59.73,23.48,59.99,22.37,60.58,21.55z M65.52,19.16c-0.26-0.43-1.24-0.65-1.7-0.65c-1.44,0-2.43,1.01-2.62,1.93
		c-0.13-0.33-0.23-0.72-0.23-1.11c0-1.44,0.98-3.21,3.38-3.21c2.09,0,2.91,1.11,3.21,1.11c0.33,0,0.65-0.33,0.92-0.33
		c0.36,0,0.36,0.56,0.36,0.95c0,1.31-0.59,3.57-2.07,4.39c-0.26-0.56-0.79-1.18-1.63-1.57c-0.23-0.1-0.33-0.29-0.33-0.49
		C64.81,19.81,65.14,19.35,65.52,19.16"/>
	<path d="M37.82,12.02c0,1.15,4.09,6.75,4.88,6.75c0.66,0,1.15-1.15,1.15-2.13c0-0.26-0.07-0.52-0.19-0.72
		c-0.59-0.82-4.75-4.09-5.67-4.09C37.88,11.82,37.82,11.92,37.82,12.02z M13.75,8.64c0,0.66-2.49,2.85-3.37,2.85
		c-0.33,0-0.43-0.39-0.43-0.75c0-0.65,0.3-1.57,0.66-1.87c0.42-0.39,1.41-0.59,2.16-0.59C13.23,8.29,13.75,8.38,13.75,8.64z
		 M43.65,10.54c0-1.97-5.31-5.53-5.37-7.07c-0.01-0.14,0.07-0.28,0.19-0.41c0.91-0.96,4.69-1.66,4.69-2.48
		c0-0.42-0.79-0.42-1.18-0.42c-3.04,0-7.5,1.11-7.5,2.19c0,1.12,3.99,3.83,3.99,5.18c0,0.36-0.23,0.49-0.59,0.49
		c-1.11,0-3.54-1.34-4.68-1.34c-0.52,0-0.72,0.36-0.72,0.89c0,1.57,1.87,4.55,1.87,5.43c0,0.1-0.03,0.23-0.16,0.23
		c-0.59,0-3.37-3.27-4.35-3.27c-0.36,0-0.39,0.49-0.39,1.21v1.11c0,0.75-0.03,1.21-0.39,1.21c-0.85,0-1.25-2.39-2.06-2.39
		c-0.85,0-1.02,4.26-1.83,4.26c-0.95,0-0.13-4.68-1.05-4.68c-1.01,0-2.16,3.11-2.88,3.11c-0.26,0-0.33-0.26-0.33-0.49
		c0-0.95,0.56-2.49,0.56-3.4c0-0.46-0.13-0.72-0.52-0.72c-1.02,0-3.24,1.64-4.09,1.64c-0.13,0-0.3-0.06-0.3-0.2
		c0-0.78,3.57-3.27,3.57-4.39c0-1.08-4.91-0.36-4.91-1.61c0-1.05,3.51-2.13,3.51-3.21c0-0.95-4.16-1.37-5.76-1.37
		c-1.93,0-2.98,0.23-2.98,0.78c0,0.85,4.39,1.12,4.39,1.87c0,0.72-4.55,2.65-4.55,3.77c0,0.98,6.42,0.07,6.42,1.08
		c0,1.11-5.6,5.93-5.6,7.53c0,0.36,0.26,0.52,0.62,0.52c1.7,0,6.12-3.24,7.34-3.24c0.43,0,0.46,0.52,0.46,0.98
		c0,0.85-0.29,2.16-0.29,3.11c0,0.75,0.2,1.28,0.85,1.28c1.21,0,2.33-2.06,3.15-2.06c1.05,0,0.42,6.06,2,6.06
		c1.34,0,1.9-6.55,2.75-6.55s1.54,1.9,2.33,1.9c0.98,0,0.52-3.31,1.57-3.31c1.15,0,4.42,3.93,5.89,3.93c0.46,0,0.62-0.36,0.62-0.82
		c0-1.74-2.42-5.66-2.42-6.91c0-0.33,0.1-0.43,0.46-0.43c1.28,0,5.01,1.77,6.78,1.77C43.29,11.3,43.65,10.97,43.65,10.54z
		 M40.24,4.06c0,0.59,2.06,1.87,3.01,1.87c0.56,0,0.72-0.75,0.72-1.54c0-0.98-0.42-1.01-1.28-1.01C41.62,3.37,40.24,3.67,40.24,4.06
		z M32.55,0.72c0-0.2-0.98-0.39-2.32-0.39c-2.13,0-1.83,1.77-3.47,1.77c-1.7,0-1.28-1.84-3.44-1.84c-1.31,0-2.52,0.23-2.52,0.52
		c0,0.39,1.54,0.23,1.54,1.31c0,1.14-3.31,1.47-3.31,2.16c0,0.23,0.26,0.33,0.59,0.33c0.72,0,1.87-0.33,2.69-0.33
		c0.46,0,0.89,0.1,0.89,0.52c0,0.82-1.77,2.29-1.77,2.95c0,0.2,0.16,0.26,0.33,0.26c0.66,0,1.77-1.67,2.82-1.67
		c1.74,0,0.59,3.7,1.54,3.7c0.98,0,0.56-3.64,1.97-3.64c1.15,0,2,2.52,2.78,2.52c0.2,0,0.36-0.16,0.36-0.39
		c0-0.69-0.98-2.1-0.98-3.01c0-0.56,0.39-0.82,0.92-0.82c0.75,0,1.77,0.46,2.32,0.46c0.2,0,0.39-0.07,0.39-0.29
		c0-0.79-2.91-1.64-2.91-2.65C30.94,1.18,32.55,1.18,32.55,0.72"/>
	<path d="M90.61,6.03c0,2.91-2.12,5.14-5.96,5.76c0.43,0.03,0.82,0.03,1.21,0.03c4.48,0,6.12-2.03,6.12-3.73
		C91.98,7.14,91.46,6.29,90.61,6.03z M85.07,9.33c0-2.32-5.56-2.91-5.56-3.44c0-0.43,3.11-1.15,4.71-1.18
		c-2.46-3.14-5.96-2.82-5.96-3.37c0-0.33,2.62-0.98,5.04-0.98c2.03,0,3.93,0.46,3.93,2c0,0.85-0.69,1.74-0.69,3.05
		c0,0.72,0.36,1.34,1.31,1.34c1.02,0,1.25-1.08,1.25-2.23c0-0.95-0.16-1.67-0.16-2.13c0-1.38,0.94-2.29,2.29-2.29
		c1.11,0,1.38,0.49,3.02,0.49c-0.89,0.53-1.21,1.48-1.21,1.93c0,1.38,0.89,2.33,0.89,5.14c0,5.17-4.85,7.01-10.78,7.01
		c-1.63,0-3.37-0.13-5.07-0.39c-0.26-0.03-0.33-0.1-0.33-0.26c0-0.43,2.33-0.66,2.33-2.75c0-0.82-0.26-1.61-0.26-1.9
		c0-0.16,0.13-0.26,0.26-0.26c0.49,0,1.48,1.9,3.3,1.9C83.86,11,85.07,10.84,85.07,9.33z M90.41,2.1c0,0.46,0.36,0.82,0.82,0.82
		s0.82-0.36,0.82-0.82c0-0.46-0.36-0.82-0.82-0.82S90.41,1.64,90.41,2.1"/>
	<path d="M87.5,32.35c0-0.69-1.74-0.75-1.9-2.68c-0.03-0.29-0.13-0.82-0.49-0.82c-0.59,0-0.13,1.8-0.79,1.8
		c-1.51,0-2-2.95-2.55-2.95c-0.13,0-0.29,0.1-0.29,0.49c0,0.36,0.07,0.59,0.07,1.01c0,0.43-0.1,0.72-0.49,0.72
		c-0.89,0-1.67-2.06-2.43-2.06c-0.16,0-0.33,0.1-0.33,0.26c0,0.39,0.65,1.11,0.65,1.47c0,0.79-2.13,0.36-2.13,1.02
		c0,0.3,0.29,0.39,0.69,0.39c0.69,0,1.77-0.29,2.33-0.29c0.33,0,0.82,0.07,0.82,0.49c0,0.46-1.18,1.05-1.18,1.47
		c0,0.2,0.2,0.29,0.36,0.29c0.89,0,2.45-1.54,3.57-1.54c0.2,0,0.69,0.1,0.69,0.39c0,0.42-1.11,1.18-1.11,1.8
		c0,0.16,0.1,0.36,0.3,0.36c0.59,0,1.37-1.54,2.49-1.54c0.43,0,1.05,0.16,1.38,0.16C87.4,32.62,87.5,32.45,87.5,32.35z M88.35,48.24
		c0.53-1.64,1.18-2.78,2.25-4.55c-1.07-0.56-3.93-1.74-3.93-3.67c0-2.26,2.82-4.03,3.4-4.03c0.26,0,0.33,0.23,0.33,0.66
		c0,1.18-0.56,3.08-0.56,4.09c0,0.92,0.59,1.8,1.11,1.8c0.56,0,2.1-1.97,2.1-3.9c0-3.47-3.05-4.52-3.99-4.52
		c-0.89,0-2.49,1.44-6.26,1.44c-7.04,0-8.64-6.97-8.64-10.02c0-0.13,0.03-0.16,0.06-0.16c0.16,0,0.85,0.85,3.08,0.85
		c1.15,0,2.2-0.3,3.87-0.3c3.92,0,5.66,2.72,8.09,6.19c1.47,0.92,4.97,2.39,4.97,6.55c0,3.67-3.9,5.7-4.84,9.63
		c1.5-0.16,2.39-2.85,3.93-2.85c0.79,0,1.15,0.62,1.15,1.61c0,1.44-0.82,3.6-2.39,4.94c0.03-0.13,0.03-0.3,0.03-0.49
		c0-0.92-0.36-2.22-1.41-2.22c-1.63,0-2.15,1.77-3.07,3.24c-0.95-3.34-2.23-6.35-4.52-8.19c-2.32-1.87-6.32-0.85-6.32-4.26
		c0-0.92,0.59-2.23,0.59-3.28c0-0.36-0.07-0.69-0.26-0.95c3.15,1.18,2.03,3.27,3.97,5.44c1.21,1.38,4.55,2.69,6.48,8.35
		c0.03-0.16,0.07-0.59,0.07-0.88c0-4.85-6.42-9.6-6.97-11.56c3.73,0.43,4.38,1.34,6.15,6.26C87.17,44.47,88.35,46.99,88.35,48.24"/>
	<path d="M70.44,13.59c-2.29,0-3.8-1.14-3.8-1.74c0-0.3,0.2-0.49,0.46-0.49c0.72,0,2.29,1.11,2.82,1.11c0.13,0,0.23-0.06,0.23-0.26
		c0-0.59-0.56-1.57-0.56-2.06c0-0.13,0.1-0.23,0.29-0.23c0.88,0,2.19,0.36,2.89,0.36c0.23,0,0.29-0.13,0.29-0.26
		c0-0.72-2.13-2.13-2.13-2.55c0-0.39,2.65-0.98,2.65-1.6c0-0.66-3.6-0.2-3.6-0.82c0-0.46,0.69-1.24,0.69-1.6
		c0-0.16-0.13-0.23-0.36-0.23c-0.29,0-1.87,0.62-2.52,0.62c-0.33,0-0.72-0.07-0.72-0.52c0-0.75,1.28-1.57,3.28-1.57
		c3.24,0,5.17,2.23,5.17,5.96C75.51,12.41,72.21,13.59,70.44,13.59z M64.06,7.37c0-0.36-1.28-1.05-1.28-1.44
		c0-0.07,0.06-0.1,0.16-0.1c0.36,0,0.99,0.13,1.48,0.13c0.43,0,0.49-1.83,0.81-1.83c0.23,0,0.62,1.74,0.98,1.74
		c0.43,0,1.21-0.49,1.54-0.49c0.07,0,0.13,0.03,0.13,0.1c0,0.23-0.82,1.11-0.82,1.37c0,0.3,1.84,0.66,1.84,0.92
		c0,0.33-1.87,0.3-1.87,0.59c0,0.23,0.69,1.15,0.69,1.44c0,0.07-0.03,0.1-0.1,0.1c-0.26,0-1.28-0.46-1.57-0.46
		c-0.36,0-0.94,1.34-1.24,1.34c-0.1,0-0.16-0.13-0.16-0.3l-0.07-1.31c0-0.13-0.06-0.26-0.23-0.26c-0.39,0-1.15-0.03-1.38-0.03
		c-0.16,0-0.23-0.03-0.23-0.1C62.74,8.51,64.06,7.6,64.06,7.37z M63.1,12.74c0.53,0,0.62,1.28,0.72,2.03
		c0.06,0.39,0.13,0.43,0.3,0.43c0.39,0,1.01-1.51,1.44-1.51c0.62,0,2.29,1.74,5.08,1.74c3.96,0,7.7-2.78,7.7-7.7
		c0-4.75-3.35-7.53-7.96-7.53c-2.19,0-3.8,1.08-4.65,1.08C65.2,1.31,64.42,0,64.02,0c-0.16,0-0.33,0.32-0.33,0.88
		c0,0.36,0,1.51-0.39,1.51c-0.79,0-3.83-2.26-3.83-1.44c0,0.75,2.03,3.05,2.03,3.64s-2,1.15-2,1.54c0,0.72,2.13,0.85,2.13,1.77
		c0,0.92-2.23,1.64-2.23,2.32c0,0.56,2.23,0.16,2.23,0.85s-1.64,2.98-1.64,3.63c0,0.16,0.03,0.16,0.16,0.16
		C60.78,14.87,62.64,12.74,63.1,12.74"/>
	<path d="M48.27,70.24c0,0.29-0.1,0.62-0.36,0.95c-0.36-0.65-1.38-0.98-1.83-0.98c-3.37,0-2.1,4.88-5.7,4.88
		c-1.51,0-1.64-0.2-2.19-0.2c-0.23,0-0.36,0.1-0.36,0.29c0,0.85,1.21,2.95,4.58,2.95s6.62-2.06,6.62-4.62c0-0.43-0.1-0.88-0.29-1.34
		c0.13-0.2,0.46-0.33,0.75-0.33c0.52,0,0.82,0.59,1.31,0.59c0.53,0,0.92-0.39,0.92-0.92c0-0.43-0.23-0.72-0.62-0.92
		c0.26-0.19,0.46-0.52,0.46-0.88c0-0.56-0.39-1.08-1.05-1.08c-0.29,0-0.49,0.1-0.72,0.32c-0.06-0.59-0.39-1.14-1.02-1.14
		c-0.49,0-0.85,0.36-0.85,0.92C47.91,69.26,48.27,69.69,48.27,70.24"/>
	<path d="M30.32,64.15c2.62,0.65,3.93,2.06,4.19,3.73c0.26,1.6,0.59,2.92,1.21,3.57c0.82,0.92,2.42,1.73,3.83,1.73
		c1.18,0,2.13-0.39,2.13-1.47c0-1.18-1.6-3.83-3.96-3.83c-0.23,0-0.52,0.03-0.85,0.03c-0.29,0-0.72-0.07-0.98-0.29
		c-0.52-0.46-0.69-2.92-1.67-4.39c-1.08-1.64-2.26-2.1-3.86-2.1c-1.15,0-2.42,0.62-2.42,1.54C27.93,63.24,28.23,63.63,30.32,64.15z
		 M39.46,71.49c-0.98,0-2.46-1.05-2.46-1.64c0-0.49,0.46-0.75,0.82-0.75c0.82,0,2.29,1.02,2.29,1.87
		C40.11,71.19,39.95,71.49,39.46,71.49"/>
	<path d="M36.44,45.98c0-2.1,4.98-3.21,4.98-5.8c0-0.43-0.16-1.18-0.46-1.74c1.73,0.95,3.01,2.56,3.01,3.86
		c0,2.26-2.36,3.31-2.36,4.72c0,1.64,2.52,1.9,2.52,3.93c0,1.67-2.39,3.6-2.39,5.76c0,1.67,1.18,3.04,2.98,3.27
		c-0.59,0.13-1.11,0.23-1.67,0.23c-3.31,0-6.71-2.72-6.71-5.96c0-1.6,0.69-3.01,1.73-4.03c0.92,0.79,1.83,1.31,2.42,1.31
		c0.52,0,0.75-0.26,0.75-0.65C41.26,49.68,36.44,48.56,36.44,45.98z M46.89,62.51c-1.12,0.51-1.57,0.43-1.57,1.57
		c0,0.43-0.1,0.98-0.1,1.28c0,0.39,0.06,0.62,0.52,0.62c1.18,0,3.05-2,3.05-3.7c0-0.46-0.26-0.65-0.56-0.65
		C47.97,61.63,47.68,62.15,46.89,62.51z M46.76,60.16c0-1.47-3.05-1.51-3.05-3.73c0-0.56,0.36-1.51,1.08-2.52
		c0.3,1.7,0.98,2.59,2.46,3.15c2.91,1.08,3.31,2.72,3.31,4.45c0,2.95-2.06,6.62-7.37,6.62c-4.26,0-7.3-3.8-7.3-7.01
		c0-0.88,0.23-1.87,0.79-1.87c0.49,0,0.65,0.39,1.05,0.78c1.47,1.48,3.08,1.87,5.4,1.87C45.22,61.89,46.76,61.04,46.76,60.16"/>
	<path d="M23.57,60.87c0.08,0.68-0.41,1.3-1.09,1.38c-0.68,0.08-1.3-0.41-1.38-1.09c-0.08-0.69,0.41-1.3,1.09-1.38
		S23.49,60.18,23.57,60.87z M17.45,62.15c0.14,1.12,1.18,1.97,2.36,1.83c0.42-0.05,0.82-0.16,1.08-0.33
		c0.26,1.05,1.14,1.72,2.33,1.56c1.21-0.16,2.03-1.11,1.9-2.32c-0.03-0.33-0.1-0.53-0.2-0.75c0,0,0.16-0.02,0.28-0.04
		c1.18-0.22,1.98-1.17,1.88-2.32c-0.13-1.18-1.19-2.05-2.29-1.92c-0.43,0.05-0.82,0.22-1.08,0.44c-0.3-0.98-1.22-1.83-2.48-1.63
		c-1.14,0.19-1.89,1.15-1.78,2.38c0.02,0.2,0.07,0.43,0.16,0.65c0,0-0.19,0.03-0.33,0.05C18.33,59.92,17.3,60.88,17.45,62.15"/>
</g>
</svg>
