<?xml version="1.0" encoding="utf-8"?>
<!-- Generator: Adobe Illustrator 28.1.0, SVG Export Plug-In . SVG Version: 6.00 Build 0)  -->
<svg version="1.1"
	 id="svg3388" xmlns:cc="http://creativecommons.org/ns#" xmlns:dc="http://purl.org/dc/elements/1.1/" xmlns:rdf="http://www.w3.org/1999/02/22-rdf-syntax-ns#" xmlns:inkscape="http://www.inkscape.org/namespaces/inkscape" xmlns:sodipodi="http://sodipodi.sourceforge.net/DTD/sodipodi-0.dtd" xmlns:svg="http://www.w3.org/2000/svg"
	 xmlns="http://www.w3.org/2000/svg" xmlns:xlink="http://www.w3.org/1999/xlink" x="0px" y="0px" viewBox="0 0 203.68 203.15"
	 style="enable-background:new 0 0 203.68 203.15;" xml:space="preserve">
<sodipodi:namedview  bordercolor="#666666" borderopacity="1.0" fit-margin-bottom="0" fit-margin-left="0" fit-margin-right="0" fit-margin-top="0" id="base" inkscape:current-layer="layer1" inkscape:cx="71.552208" inkscape:cy="110.96551" inkscape:document-units="px" inkscape:pageopacity="0.0" inkscape:pageshadow="2" inkscape:window-height="464" inkscape:window-maximized="0" inkscape:window-width="477" inkscape:window-x="88" inkscape:window-y="88" inkscape:zoom="0.98994949" pagecolor="#ffffff" showgrid="false">
	</sodipodi:namedview>
<g>
	<path d="M156.45,123.89c-4.8,0-8.69,3.85-8.69,8.65v21.76c0,4.22,3.9,8.15,8.69,8.15c4.77,0,8.69-3.93,8.69-8.15v-21.76
		C165.14,127.74,161.22,123.89,156.45,123.89z"/>
	<path d="M47.25,123.89c-4.8,0-8.66,3.85-8.66,8.65v21.76c0,4.22,3.87,8.15,8.66,8.15c4.84,0,8.67-3.93,8.67-8.15v-21.76
		C55.92,127.74,52.08,123.89,47.25,123.89z"/>
	<path d="M0,0v203.15h203.68V0H0z M149.95,27.71h13.04v64.18h-13.04V27.71z M68.44,154.29c0,5.54-2.46,10.94-5.93,14.91l5.93,19.28
		H55.92l-4.47-13.39c-1.34,0.25-2.75,0.4-4.2,0.4c-11.97,0-21.38-9.74-21.38-21.2v-21.76c0-11.61,9.41-21.2,21.38-21.2
		c12.02,0,21.2,9.59,21.2,21.2V154.29z M68.45,70.57c0,12.04-9.18,21.33-21.19,21.33c-11.98,0-21.39-9.29-21.39-21.33V27.72h12.72
		v42.85c0,4.87,3.87,8.79,8.67,8.79c4.83,0,8.66-3.92,8.66-8.79V27.72h12.53V70.57z M128.7,175.48H85.84v-64.15h12.99v51.1h29.87
		V175.48z M128.7,91.88h-13.02L98.84,55.12v36.77H85.84V27.71h12.99l16.84,36.71V27.71h13.02V91.88z M177.64,154.29
		c0,11.46-9.22,21.2-21.2,21.2c-12,0-21.21-9.74-21.21-21.2v-21.76c0-11.61,9.21-21.2,21.21-21.2c11.98,0,21.2,9.59,21.2,21.2
		V154.29z"/>
</g>
</svg>
