<?xml version="1.0" encoding="utf-8"?>
<!-- Generator: Adobe Illustrator 28.1.0, SVG Export Plug-In . SVG Version: 6.00 Build 0)  -->
<svg version="1.1" id="Layer_1" xmlns="http://www.w3.org/2000/svg" xmlns:xlink="http://www.w3.org/1999/xlink" x="0px" y="0px"
	 viewBox="0 0 72 72" style="enable-background:new 0 0 72 72;" xml:space="preserve">
<g>
	<path d="M44.5,36l10.1-17.4L59.5,36l-4.9,17.4L44.5,36L44.5,36z M39.6,38.8l10.1,17.4l-17.6-4.5L19.5,38.8L39.6,38.8L39.6,38.8z
		 M49.7,15.8L39.6,33.2H19.5l12.7-12.9L49.7,15.8L49.7,15.8z M64.1,30.1L57.9,7.2l-23,6.1l-3.4,6l-6.9-0.1L7.9,36l16.8,16.7l0,0
		l6.9-0.1l3.4,6l23,6.1l6.1-22.9L60.6,36L64.1,30.1L64.1,30.1z"/>
</g>
</svg>
