<?xml version="1.0" encoding="utf-8"?>
<!-- Generator: Adobe Illustrator 28.1.0, SVG Export Plug-In . SVG Version: 6.00 Build 0)  -->
<svg version="1.1" id="Layer_1" xmlns="http://www.w3.org/2000/svg" xmlns:xlink="http://www.w3.org/1999/xlink" x="0px" y="0px"
	 viewBox="0 0 72 72" style="enable-background:new 0 0 72 72;" xml:space="preserve">
<style type="text/css">
	.st0{fill-rule:evenodd;clip-rule:evenodd;}
</style>
<g>
	<path class="st0" d="M7.2,36.8c0-0.3,0-0.7,0-1c0-0.2,0-0.4,0-0.7c0.2-6.3,2.4-11.9,6.2-16.9c6.3-7.9,15.5-11.9,25.7-10.9
		c6.5,0.7,12.3,3.4,17.1,8.1c5.3,5.3,8.2,12.2,8.5,19.6c0,0.3,0,0.7,0,1c0,0.2,0,0.4,0,0.7c-0.2,6.3-2.4,11.9-6.2,16.8
		c-6.3,7.9-15.5,11.9-25.7,10.9c-6.6-0.7-12.3-3.4-17.1-8.2C10.4,51.1,7.5,44.3,7.2,36.8L7.2,36.8z M64.2,36.8
		c0.4-11.4-6.4-22.3-17.1-26.8c-3.3-1.4-7-2.2-10.9-2.3c-1,0-2.2,0.1-3.2,0.2c-9.3,0.9-18.2,7-22.3,15.6c-1.8,3.6-2.8,7.5-3,11.7
		C7.4,46.5,14.2,57.4,24.9,62c3.3,1.4,7,2.2,10.9,2.3c1,0,2.2-0.1,3.2-0.2c9.3-0.9,18.2-7,22.3-15.6C63.1,45,64.1,41.1,64.2,36.8
		L64.2,36.8L64.2,36.8L64.2,36.8z M58.5,20.6l-1.5,1l-0.3-0.1c-0.4-0.5-0.8-1.2-1.4-1.7h-0.1l-0.8,0.7l0.2,0.2
		c-0.1,0-0.3-0.1-0.4-0.1c-0.1,0-0.3,0-0.4-0.1l-0.1-0.1l1.6-1.4c0.6,0.6,1.1,1.3,1.6,2c0.3-0.1,0.6-0.4,0.9-0.6
		c-0.7-1.1-1.6-2.2-2.5-3.1l-0.1,0c-0.8,0.7-1.5,1.5-2.2,2.1c-1-0.9-2-1.9-3.1-2.6l-0.1-0.1c0.4-0.6,0.8-1.2,1.2-1.7
		c0.6,0.4,1.2,0.9,1.9,1.4c0.2-0.2,0.4-0.5,0.6-0.7v-0.1c-0.9-0.8-1.9-1.5-2.9-2.2h-0.1c-0.5,0.9-1.1,1.7-1.6,2.6l-0.1,0.1
		c-1.2-0.7-2.4-1.4-3.6-1.9c0.3-0.6,0.5-1.3,0.8-2c0.8,0.3,1.5,0.7,2.2,1l0.5-0.9c-0.2-0.2-0.5-0.3-0.7-0.5
		c-0.9-0.4-1.7-0.8-2.7-1.1l-0.1,0l-1,2.9l-0.1,0c-0.7-0.2-1.4-0.4-2-0.6c-0.6-0.2-1.3-0.3-2-0.4c0.1-0.7,0.2-1.4,0.3-2.1l0.1,0
		c0.8,0.2,1.6,0.3,2.3,0.5c0.1-0.3,0.2-0.7,0.3-1c-1.2-0.4-2.4-0.6-3.6-0.7c-0.1,0.9-0.2,1.9-0.4,2.9c-0.1-0.2-0.2-0.4-0.3-0.6
		c0-0.1,0-0.1,0-0.1c0.1-0.9,0.2-1.8,0.3-2.6c0.2-0.1,0.3,0,0.4,0c1.5,0.2,2.9,0.5,4.3,0.9c-0.2,0.6-0.4,1.3-0.6,1.9
		c-0.4,0-0.9-0.2-1.3-0.3c-0.3-0.1-0.7-0.1-1-0.2c-0.1,0.3-0.1,0.7-0.2,1c0.3,0.1,0.6,0.1,0.9,0.2c0.8,0.2,1.5,0.4,2.3,0.6
		c0.4-1,0.6-2,1-3c1.6,0.5,3.1,1.2,4.5,1.9l0.1,0c-0.3,0.6-0.7,1.2-1,1.8c-0.7-0.3-1.4-0.7-2.1-1c-0.1,0-0.1,0.1-0.2,0.2l-0.3,0.7
		c0.9,0.5,1.9,0.9,2.8,1.5c0.6-0.9,1.1-1.8,1.7-2.7c1.4,0.8,2.7,1.8,4,2.9l0,0.1l-1.3,1.4h-0.1c-0.5-0.5-1.1-0.9-1.6-1.3l-0.1,0
		l-0.6,0.8c0.8,0.7,1.7,1.4,2.5,2.2l2.3-2.2c1.2,1.2,2.4,2.6,3.3,4L58.5,20.6L58.5,20.6z M59.1,22.6l-0.3,0.2
		c-0.1-0.1-0.3-0.2-0.5-0.3c0.3-0.2,0.7-0.4,1-0.6c0.7,1,1.3,2.2,1.7,3.3c-0.1-0.1-0.2-0.2-0.3-0.3c-0.2-0.4-0.6-0.8-1-1.1
		C59.7,23.4,59.5,23,59.1,22.6L59.1,22.6L59.1,22.6L59.1,22.6z M13,22.4l1.6,0.9c-0.1,0.1-0.2,0.2-0.3,0.4c-0.7-0.4-1.3-0.7-1.9-1.1
		c0.2-0.4,0.4-0.8,0.7-1.2c0.7-1.1,1.5-2.2,2.4-3.2h0.1c0.5,0.4,1,0.9,1.5,1.3c-0.4,0.7-1.1,1.4-1.5,2.1l0,0.1l0.1,0.1
		c-0.2,0.1-0.3,0.3-0.4,0.4c-0.2-0.1-0.3-0.2-0.4-0.3v-0.1c0.5-0.7,1-1.4,1.5-2.1c-0.2-0.3-0.5-0.4-0.7-0.6h-0.1
		C14.5,20.1,13.6,21.2,13,22.4L13,22.4z M12.6,33.1c0,0.3-0.1,0.6-0.1,0.9c-0.2,0.1-0.4,0-0.7,0l-1.4-0.1c0-0.7,0.2-1.4,0.3-2.2
		l0.1,0c0.1,0.3,0.2,0.6,0.3,0.9c0,0.3-0.1,0.5-0.1,0.8c0.3,0.1,0.7,0.1,1,0.1l0.1-0.4h0.1C12.3,33.2,12.4,33.2,12.6,33.1L12.6,33.1
		z M12.5,24.9c-0.1,0-0.2-0.1-0.3-0.2c-0.1,0-0.2-0.1-0.4-0.1c-0.2,0.4-0.4,0.9-0.6,1.3c-0.3,0.3-0.6,0.6-0.9,1c0.4-1,0.8-2.1,1.3-3
		l0.1,0c0.4,0.2,0.9,0.4,1.3,0.7C12.8,24.7,12.6,24.8,12.5,24.9z M37.5,12.5c-0.9,0-1.7,0-2.6,0c-0.1-0.7-0.1-1.5-0.1-2.1
		c0.8-0.1,1.5,0,2.3,0c0.1-0.3,0.1-0.7,0-1.1l0,0c-1.1-0.1-2.4-0.1-3.5,0.1l-0.1,0.1c0.1,1,0.2,2.1,0.3,3l-0.1,0.1
		c-1.4,0.1-2.6,0.4-3.9,0.7c-0.2-0.7-0.4-1.3-0.6-2l0.1-0.1c0.7-0.1,1.4-0.3,2.1-0.5c0-0.4-0.1-0.7-0.2-1c-1.2,0.2-2.3,0.5-3.4,0.8
		v0.2c0.3,1,0.7,1.9,0.9,2.9c-0.9,0.3-1.9,0.7-2.8,1.1c-0.1-0.1-0.3-0.1-0.4,0c-0.2,0.2-0.4,0.4-0.6,0.5c-0.4-0.6-0.7-1.2-1-1.9
		c0.7-0.4,1.4-0.7,2.1-1c0-0.4-0.2-0.7-0.4-1c-1.1,0.5-2.3,1-3.4,1.7c0.5,0.9,1.1,1.8,1.6,2.7c-1.1,0.8-2.2,1.4-3.2,2.3l-0.4,0.4
		c-0.5-0.5-0.9-1-1.4-1.5c0.4-0.4,0.8-0.8,1.3-1.1c0.2-0.2,0.6-0.4,0.8-0.6c-0.2-0.3-0.4-0.5-0.6-0.8c-1.2,0.8-2.2,1.7-3.3,2.8
		c0.7,0.7,1.6,1.6,2.2,2.2l-0.3,0.3c-0.1,0-0.2,0.1-0.3,0.1c-0.3,0.1-0.5,0.2-0.8,0.4c0.1-0.2,0.3-0.3,0.4-0.5l0.3-0.3
		c-0.7-0.8-1.5-1.4-2.2-2.2c1.2-1.4,2.7-2.4,4.1-3.5h0.1l1.1,1.6v0.1c-0.7,0.5-1.3,1-1.9,1.5v0.1c0.2,0.3,0.4,0.5,0.7,0.8
		c0.9-0.7,1.9-1.5,2.9-2.1c-0.6-0.9-1.1-1.8-1.7-2.7c1.5-0.9,2.9-1.7,4.5-2.3c0.3,0.6,0.5,1.3,0.7,1.9l0,0.1c-0.7,0.3-1.5,0.6-2.1,1
		c0.1,0.3,0.3,0.6,0.5,0.9c1-0.5,2-0.9,3-1.3c-0.3-1-0.7-2-1-3c1.5-0.4,3-0.9,4.6-1.1c0.1,0.6,0.2,1.4,0.4,2
		c-0.4,0.2-0.9,0.2-1.3,0.3c-0.3,0-0.6,0.1-0.9,0.3l0.2,1c0.5,0,0.9-0.2,1.4-0.2c0.6-0.2,1.2-0.2,1.8-0.3c0-1-0.2-2.1-0.3-3.1l0-0.1
		c1.6-0.1,3.1-0.2,4.7-0.1c0.1,0.6-0.1,1.3-0.1,2c0,0.1-0.1,0.1-0.1,0.1c-0.7,0-1.5-0.1-2.1,0c0,0.3,0,0.7,0,1
		c0.8,0,1.6,0.1,2.4,0.1l0,0.1C37.7,12.2,37.6,12.3,37.5,12.5L37.5,12.5z M61.6,33.1l0.1,0.3c0.4,0,0.7,0,1-0.1l0-0.2
		c0.1,0,0.2-0.1,0.3-0.1c0-0.1,0.1-0.2,0.1-0.2c0.1,0.4,0.1,0.7,0.1,1.1c-0.7,0.1-1.4,0.2-2,0.1c0-0.4-0.1-0.8-0.1-1.1
		c0,0,0.1,0,0.1,0C61.3,32.9,61.4,33,61.6,33.1L61.6,33.1z M59.6,35.7c0-1.2-0.1-2.3-0.3-3.4c0.2,0.2,0.4,0.4,0.6,0.5
		c0.1,0.8,0.2,1.6,0.2,2.4l0.1,0.8l0.1,0l2.9,0c0.1,0,0.1,0,0.2,0.1c0,1.9-0.3,3.6-0.6,5.3l0,0c-0.6-0.2-1.3-0.3-2-0.4
		c-0.1-0.2,0.1-0.4,0.1-0.6c0.1-0.6,0.2-1.3,0.3-1.9c-0.3-0.1-0.7-0.1-1-0.1c-0.2,1.2-0.4,2.5-0.7,3.7c0.2,0.2,0.6,0.2,0.9,0.3
		c0.7,0.2,1.4,0.4,2.1,0.6l0,0.1c-0.5,1.7-1.1,3.4-1.9,5l-0.1,0c-0.6-0.3-1.2-0.6-1.7-0.9c0.3-0.8,0.7-1.5,0.9-2.2
		c-0.3-0.1-0.7-0.3-1-0.4c-0.4,1.1-1,2.2-1.5,3.3c0.9,0.5,1.8,1,2.7,1.5c-0.2,0.4-0.4,0.8-0.7,1.2c-0.7,1.1-1.5,2.2-2.4,3.2h-0.1
		c-0.5-0.4-1-0.9-1.5-1.3c0.4-0.7,1.1-1.4,1.5-2.1l0-0.1l-0.8-0.6c-0.7,0.8-1.4,1.7-2.1,2.5l-0.3,0.3c0.7,0.8,1.5,1.4,2.2,2.2
		c-1.2,1.4-2.7,2.4-4.1,3.5h-0.1l-1.1-1.6v-0.2c0.7-0.5,1.3-1,1.9-1.5v-0.1c-0.2-0.3-0.4-0.5-0.7-0.8c-0.9,0.7-1.9,1.5-2.9,2.1
		c0.6,0.9,1.1,1.8,1.7,2.7c-1.5,0.9-2.9,1.7-4.5,2.3c-0.3-0.6-0.5-1.3-0.7-1.9l0-0.1c0.7-0.3,1.5-0.6,2.1-1
		c-0.1-0.3-0.3-0.6-0.5-0.9c-1,0.5-2,0.9-3,1.3c0.3,1,0.7,2,1,3c-1.5,0.5-3,0.9-4.6,1.1c-0.1-0.6-0.2-1.4-0.4-2
		c0.4-0.2,0.9-0.2,1.3-0.3c0.3,0,0.6-0.1,0.9-0.3l-0.2-1c-0.5,0-0.9,0.2-1.4,0.2c-0.6,0.1-1.2,0.2-1.8,0.3c0,1.1,0.2,2.1,0.3,3.1
		l0,0.1c-1.5,0.1-3.1,0.2-4.7,0.1c-0.1-0.6,0.1-1.3,0.1-2c0-0.1,0.1-0.1,0.1-0.1c0.7,0,1.5,0.1,2.1,0c0-0.3,0-0.7,0-1
		c-1,0-2.1-0.1-3.1-0.1c-0.2,1-0.2,2.1-0.4,3.1c-0.2,0.1-0.3,0-0.4,0c-1.5-0.2-2.9-0.5-4.3-0.9c0.2-0.6,0.4-1.3,0.6-1.9
		c0.4,0,0.9,0.2,1.3,0.3c0.3,0.1,0.7,0.1,1,0.2c0.1-0.3,0.1-0.7,0.2-1c-0.3-0.1-0.6-0.1-0.9-0.2c-0.8-0.2-1.5-0.4-2.3-0.6
		c-0.4,1-0.6,2-1,3c-1.6-0.5-3.1-1.2-4.5-1.9l0-0.1l1-1.8c0.7,0.3,1.4,0.7,2.1,1c0.1,0,0.1-0.1,0.2-0.2l0.3-0.7
		c-0.9-0.5-1.9-0.9-2.8-1.5c-0.6,0.9-1.1,1.8-1.7,2.7c-1.4-0.8-2.7-1.8-4-2.9l0-0.1l1.3-1.4h0.1c0.5,0.5,1.1,0.9,1.6,1.3l0.1,0
		l0.6-0.8c-0.8-0.7-1.7-1.4-2.5-2.2l-2.2,2.2c-1.2-1.2-2.4-2.6-3.4-4l0-0.1l1.6-1.1c0.5,0.5,0.9,1.4,1.5,1.9h0.1l0.8-0.7
		c-0.8-0.9-1.5-1.9-2.1-2.9l-0.1,0c-0.9,0.5-1.8,1-2.7,1.6c-1-1.5-1.7-3.1-2.3-4.8c0.1-0.1,0.3-0.1,0.4-0.2c0.5-0.2,1-0.3,1.5-0.5
		c0.3,0.8,0.6,1.5,1,2.3c0.4,0,0.7-0.3,1-0.4c-0.5-1.1-1-2.3-1.3-3.5c-1,0.3-2,0.6-3,0.9c-0.6-1.8-0.9-3.8-1.1-5.8
		c0.7,0,1.4-0.2,2-0.1c0.1,0.9,0.2,1.8,0.4,2.7l0,0.1c0.4,0,0.7-0.1,1-0.2c-0.2-1.3-0.4-2.4-0.4-3.7L11.8,36l-0.1,0l-2.9,0
		c0,0-0.1,0-0.2-0.1c0-1.2,0.1-2.4,0.3-3.5c0.2,0,0.4-0.1,0.5-0.1c-0.1,0.5-0.1,1-0.2,1.5c0,0.5-0.1,1.1,0,1.6c1,0.1,2.1,0,3.1,0.1
		l0,0.8c0,1.6,0.2,3.2,0.6,4.7l-0.1,0.1c-0.7,0.1-1.4,0.2-2,0.4c-0.2-0.9-0.3-1.9-0.5-2.9c-0.4,0-0.7,0-1,0.1c0.1,1.6,0.4,3,0.9,4.4
		c0.9-0.1,1.7-0.5,2.6-0.7c0.2,0,0.4-0.2,0.5-0.1c0.3,1.5,1,2.9,1.7,4.2l0,0.1l-1.8,0.9l-0.1,0c-0.4-0.8-0.7-1.6-1.1-2.4l-1,0.4
		c0.2,0.8,0.6,1.5,0.9,2.2c0.3,0.5,0.5,1,0.9,1.5h0.1l2.7-1.5l0,0c0.7,1.3,1.7,2.5,2.6,3.7l-1.6,1.4c-0.6-0.6-1.1-1.3-1.6-2
		c-0.3,0.1-0.6,0.4-0.9,0.6c0.7,1.1,1.6,2.2,2.5,3.1l0.1,0c0.8-0.7,1.5-1.5,2.2-2.2c1,0.9,2,1.9,3.1,2.6l0.1,0.1
		c-0.4,0.6-0.8,1.2-1.2,1.7c-0.6-0.5-1.3-0.9-1.9-1.4c-0.2,0.2-0.4,0.5-0.6,0.7v0.1c0.9,0.8,1.9,1.5,2.9,2.2h0.1
		c0.5-0.9,1.1-1.7,1.6-2.6l0.1-0.1c0.2,0.1,0.5,0.3,0.8,0.4c0.1,0.1,0.1,0.2,0.2,0.3c0.1,0,0.1,0.1,0.2,0.2c0,0,0.1,0,0.1,0.1
		c0.4,0.3,0.9,0.6,1.4,0.8c0.3,0.1,0.6,0.1,0.9,0.2l0.1,0c-0.2,0.6-0.4,1.3-0.8,1.9c-0.8-0.3-1.5-0.7-2.2-1l-0.5,0.9
		c0.2,0.2,0.5,0.3,0.7,0.5c0.9,0.4,1.7,0.8,2.7,1.1l0.1-0.1l1-2.9l0.1,0c0.7,0.2,1.4,0.4,2,0.6c0.6,0.2,1.3,0.3,2,0.4
		c-0.1,0.7-0.2,1.4-0.3,2.1l-0.1,0c-0.8-0.2-1.5-0.3-2.3-0.5c-0.1,0.3-0.2,0.7-0.3,1c1.2,0.4,2.4,0.6,3.6,0.7
		c0.1-1.1,0.3-2.1,0.4-3.2c1.3,0.1,2.7,0.2,3.9,0.1c0.1,0.7,0.1,1.5,0.1,2.1c-0.8,0.1-1.5,0-2.3,0c-0.1,0.3-0.1,0.7,0,1l0,0
		c1.1,0.1,2.4,0.1,3.5-0.1l0.1-0.1c-0.1-1-0.2-2.1-0.3-3l0.1-0.1c1.4-0.1,2.6-0.4,3.9-0.7c0.2,0.7,0.4,1.3,0.6,2l-0.1,0.1
		c-0.7,0.1-1.4,0.3-2.1,0.5c0.1,0.4,0.1,0.7,0.2,1c1.2-0.2,2.3-0.5,3.4-0.8v-0.2c-0.3-1-0.7-1.9-0.9-2.9c0.6-0.2,1.2-0.4,1.8-0.7
		c0.1,0,0.3,0,0.4-0.1c0.2,0,0.5-0.2,0.7-0.2c0.3-0.1,0.6-0.3,0.9-0.6c0.3,0.6,0.6,1.2,0.9,1.8c-0.7,0.4-1.4,0.7-2.2,1
		c0,0.4,0.2,0.7,0.4,1c1.1-0.5,2.3-1,3.4-1.7c-0.5-0.9-1.1-1.8-1.6-2.7c1.1-0.8,2.2-1.4,3.2-2.3l0.4-0.4c0.5,0.5,0.9,1,1.4,1.5
		c-0.4,0.4-0.8,0.8-1.3,1.1c-0.2,0.2-0.6,0.4-0.8,0.6c0.2,0.3,0.4,0.6,0.6,0.8c1.2-0.8,2.2-1.6,3.3-2.8c-0.7-0.8-1.5-1.5-2.2-2.2
		c1-1.1,2.1-2.3,2.9-3.5h0.1c0.5,0.4,1.1,0.7,1.6,1.1v0.1c-0.5,0.7-1,1.4-1.6,2.1c0.2,0.3,0.5,0.4,0.7,0.6h0.1
		c0.9-1.1,1.8-2.2,2.4-3.4L56.3,48v-0.1c0.8-1.2,1.4-2.6,1.9-3.9l0.1,0c0.6,0.3,1.3,0.5,1.9,0.7c-0.2,0.8-0.6,1.5-0.9,2.3
		c0.1,0.2,0.4,0.2,0.6,0.4c0.1,0,0.2,0.1,0.4,0.1c0.6-1.2,1.1-2.5,1.5-3.9c-1-0.3-2-0.6-3-0.9c0.4-1.5,0.7-2.9,0.9-4.5
		c0.2-0.1,0.5,0,0.7,0l1.4,0.1c0,0.9-0.2,1.7-0.3,2.6c0.3,0.1,0.6,0.1,1,0.2c0.3-0.8,0.3-1.8,0.5-2.6c0-0.5,0.1-1.1,0-1.6
		c-1-0.1-2.1,0-3.1-0.1L59.6,35.7L59.6,35.7z M29.9,57.3c3.8,1.1,8.2,1.1,12.1,0c0,0,0.1,0,0.1,0.1c0.2,0.1,0.4,0.2,0.6,0.2
		c-3.8,1.2-8,1.4-12.2,0.4c-0.5-0.1-0.9-0.2-1.4-0.4C29.4,57.5,29.6,57.4,29.9,57.3L29.9,57.3z M13.9,35.2
		c-0.3,7.4,3.3,14.5,9.2,18.8c0,0.1,0,0.2,0.1,0.3c0,0.1,0,0.3,0,0.4c-3.7-2.6-6.7-6.3-8.2-10.4c-0.9-2.3-1.5-4.8-1.6-7.4h0
		c0-0.8,0-1.5,0.1-2.3c0.2,0.1,0.3,0.2,0.5,0.4L13.9,35.2L13.9,35.2z M58.1,36.8c0.1-1.4,0-2.8-0.2-4.2c0.2,0,0.3-0.1,0.5-0.2
		c0.2,0.9,0.2,1.8,0.3,2.8h0c0.1,5.5-1.7,10.5-4.9,14.8c-1.6,2-3.4,3.6-5.4,4.9c0-0.1,0.1-0.2,0.1-0.3c0-0.2,0.1-0.3,0.1-0.5
		c0.4-0.2,0.7-0.5,1-0.8C54.8,49.2,57.7,43.4,58.1,36.8L58.1,36.8L58.1,36.8z M31.6,14.3c-1.5,0.3-3,0.8-4.3,1.4
		c-0.1,0-0.2,0.1-0.3,0.2c-0.1-0.1-0.2-0.1-0.2-0.1c0,0-0.1-0.1-0.1-0.1c0,0-0.1,0-0.1-0.1c2-0.9,4.1-1.6,6.3-1.9
		c-0.3,0.2-0.6,0.3-0.9,0.5C31.8,14.2,31.7,14.3,31.6,14.3L31.6,14.3z M44.8,35c-0.1,0-0.2,0.1-0.3,0.2c0,0,0,0.1-0.1,0.1l0,0.1
		c-0.3,0.3-0.6,0.5-0.9,0.6c-0.4-0.1-0.8-0.3-1.1-0.5c-0.1,0-0.1-0.1-0.2-0.1c-0.1,0-0.2-0.1-0.2-0.1c-0.6-0.4-1.5-0.3-2.2-0.2
		c-0.4,0-0.7,0.2-1,0.3c-0.1,0-0.2,0.1-0.3,0.1c-0.1,0.1-0.1,0.1-0.2,0.2c0,0-0.1,0.1-0.1,0.1c0,0-0.1,0.1-0.1,0.1l0,0
		c0,0,0,0,0,0.1c0,0.1,0.1,0.1,0.2,0.1l0,0l0.1,0l0.1,0.1l0-0.2c0,0,0,0,0.1,0c0,0,0.1,0,0.1-0.1c0.2-0.2,0.4-0.2,0.7-0.3
		c0.2-0.1,0.5-0.1,0.8-0.2c0.6,0,1,0.1,1.4,0.2c0.3,0.1,0.5,0.3,0.6,0.4l0.1,0.1l-0.1,0c-0.1,0-0.1,0-0.2-0.1
		c-0.7-0.2-1.4-0.3-2.2-0.3c-0.6,0.1-1.3,0.4-1.7,0.9c0,0,0,0,0,0.1c0,0-0.1,0.1-0.1,0.1c0,0.1,0,0.1,0,0.2c0,0-0.1,0-0.1,0
		c0,0.1,0,0.1,0,0.2c0,0,0,0.1,0,0.1c0.1,0.1,0.1,0.2,0.2,0.2c0,0,0.1,0,0.1,0c0,0,0.1,0,0.1,0.1c0.4,0.1,0.8,0.2,1.2,0.3
		c0.8,0.2,1.7,0.1,2.4-0.2c0.4-0.2,0.8-0.4,1.1-0.7l0.1-0.1l0.1,0c0,0,0,0,0.1-0.1l0.1-0.1c0-0.1,0-0.1-0.1-0.2l0,0l-0.1,0l0,0
		l-0.1-0.1l0,0c0.2,0,0.5,0,0.6,0c0.2-0.1,0.3-0.1,0.4-0.2c0.1-0.1,0.3-0.1,0.4-0.3c0,0,0,0,0.1,0l0-0.1c0,0,0.1-0.1,0.1-0.1
		c0-0.1,0.1-0.1,0.1-0.2c0-0.1,0.1-0.1,0.1-0.2C45,35.2,44.9,35.1,44.8,35L44.8,35L44.8,35z M38.7,37.2c-0.1,0-0.1,0-0.2,0
		c-0.1,0-0.2-0.1-0.2-0.1l0,0c0.1-0.1,0.2-0.2,0.3-0.3l0.1-0.1c0,0.1,0,0.2,0,0.3C38.7,37,38.7,37.1,38.7,37.2L38.7,37.2z
		 M42.1,37.2C42.1,37.2,42.1,37.2,42.1,37.2L42,37.3c0,0-0.1,0-0.1,0l-0.1,0c-0.6,0.4-1.4,0.3-2.1,0.2c-0.2,0-0.4-0.2-0.5-0.5
		c0,0,0-0.1,0-0.1c0-0.1,0-0.1,0-0.2c0-0.1,0-0.2-0.2-0.3c0.8-0.5,1.9-0.5,2.7-0.1c0,0,0.1,0.1,0.1,0.1c0,0,0.1,0,0.1,0.1
		c0.1,0,0.2,0.1,0.2,0.1c0,0.1,0,0.3,0,0.4C42.2,37.1,42.2,37.2,42.1,37.2L42.1,37.2z M42.6,36.9c-0.1,0-0.1,0-0.1,0
		C42.5,36.7,42.6,36.8,42.6,36.9C42.7,36.8,42.7,36.9,42.6,36.9L42.6,36.9z M44.9,34.2c-0.2,0-0.3,0.1-0.5,0.1c-0.2,0-0.3,0-0.5,0
		c-0.2,0-0.5,0-0.7-0.1c-0.1,0-0.1-0.1-0.2-0.1c-0.1,0-0.2,0-0.2-0.1c-0.2,0-0.3-0.1-0.5-0.2c-0.4-0.2-0.8-0.2-1.2-0.4
		c-0.3,0-0.6,0-0.9,0c-0.2,0.1-0.4,0.1-0.6,0.2c-0.2,0.1-0.4,0.2-0.6,0.3c0,0.1-0.1,0.1-0.2,0.2l-0.1,0c0,0,0,0-0.1,0
		c0,0-0.1,0.1-0.1,0.1c-0.2,0.1-0.3,0.3-0.4,0.4c-0.2,0.1-0.3,0.2-0.5,0.3c0,0-0.1,0.1-0.1,0.1c0.1,0.1,0.1,0.1,0.2,0.1h0.1
		c0,0,0.1,0,0.1,0c0.2-0.1,0.3-0.2,0.4-0.3c0.1-0.1,0.2-0.2,0.4-0.4c0.3-0.3,0.5-0.5,0.9-0.6c0.1,0,0.2,0,0.3-0.1l0.1-0.1
		c0,0,0.1,0,0.1-0.1c0.1,0,0.2,0,0.3,0c0.1,0,0.2,0,0.3,0c0.2,0,0.3,0,0.5,0.1c0.3,0.1,0.6,0.2,1,0.3c0.1,0.1,0.2,0.1,0.3,0.1
		c0.1,0,0.2,0.1,0.3,0.1l0,0H43c0,0,0,0,0.1,0c0.3,0,0.6,0.1,0.9,0.1c0.3,0,0.6,0,0.8-0.2c0.1,0,0.1,0,0.1,0l0,0l0-0.1
		C45,34.4,45,34.4,44.9,34.2C45,34.3,45,34.3,44.9,34.2L44.9,34.2z M33.2,43.8c0.1,0,0.3-0.1,0.4-0.1c0.1,0,0.3-0.1,0.4-0.1
		c0.1,0,0.3,0,0.4,0c0.1,0,0.3,0.1,0.4,0.2c0.1,0,0.1-0.1,0.1-0.2c0-0.1-0.1-0.1-0.2-0.2c-0.4-0.4-1.1-0.3-1.6-0.1
		c-0.1,0-0.2,0-0.3,0.1c-0.1,0-0.2,0-0.2-0.1c-0.1-0.1-0.1-0.3-0.1-0.4c-0.1-0.1-0.2-0.1-0.3,0c-0.1,0.3,0,0.5,0.2,0.7
		C32.6,43.9,32.9,43.9,33.2,43.8L33.2,43.8z M38,47.2c-0.4,0.1-0.9,0.3-1.4,0.3c-0.2,0.1-0.5,0.1-0.7,0c-0.2,0-0.5-0.1-0.7-0.1
		c-0.2,0-0.3,0-0.5,0c-0.2,0-0.3,0-0.5,0.1c-0.3,0-0.6,0.1-1,0c-0.1,0-0.2,0-0.3-0.1c0,0-0.1-0.1-0.1-0.1c0,0-0.1,0-0.1,0
		c-0.1,0-0.1,0.1-0.2,0.1c0,0.1,0,0.1,0,0.2c0,0,0,0,0,0.1c0,0,0,0,0,0.1c0.5,0.4,1.2,0.4,1.7,0.3c0.2-0.1,0.4-0.1,0.6-0.1
		c0.2,0,0.4,0,0.6,0c0.4,0.1,0.8,0.1,1.2,0c0.4-0.1,0.8-0.2,1.2-0.3c0.1,0,0.2-0.1,0.2-0.1c0.1,0,0.2-0.1,0.2-0.2
		C38.4,47.2,38.2,47.1,38,47.2L38,47.2z M39.6,46c0,0-0.1-0.1-0.1-0.1c-0.1-0.1-0.2-0.2-0.4-0.2l0,0C38.8,45.8,38.9,46,39,46l0,0
		c0,0,0,0,0,0.1c-0.2,0.1-0.5,0.2-0.7,0.2c-0.3,0.1-0.6,0-0.9-0.1l-0.5-0.1c-0.2,0-0.3-0.1-0.5-0.1c-0.2,0-0.4,0.1-0.5,0.2
		c-0.1,0-0.1,0.1-0.2,0.1c-0.1,0-0.1,0-0.2,0.1c-0.2-0.1-0.4-0.2-0.6-0.2c-0.2-0.1-0.5-0.1-0.7,0c-0.2,0-0.4,0.1-0.6,0.1
		c-0.2,0.1-0.4,0.1-0.5,0.1c-0.2,0-0.4,0-0.5,0c-0.1,0-0.2,0-0.4-0.1c0,0,0-0.1,0-0.1c0-0.1,0-0.1-0.1-0.1c-0.1-0.1-0.3,0-0.3,0
		c0,0-0.1,0.1-0.1,0.1l0,0.1l0,0l0,0c0,0,0,0.1-0.1,0.1c0,0-0.1,0.1-0.1,0.1c-0.1,0.1-0.1,0.2-0.1,0.3c0,0.1,0.1,0.2,0.3,0.1l0,0
		l0.1-0.1c0,0,0.1-0.1,0.1-0.1c0.1,0,0.1,0,0.2,0c0.4,0.2,0.8,0.2,1.2,0.1c0.2,0,0.4-0.1,0.6-0.2c0.2-0.1,0.4-0.1,0.6-0.1
		c0.2,0,0.4,0,0.5,0.1c0.2,0.1,0.4,0.2,0.5,0.2c0.2,0.1,0.3,0,0.5,0c0.1,0,0.1-0.1,0.2-0.1c0.1,0,0.1-0.1,0.2-0.1
		c0.2-0.2,0.5-0.1,0.8,0c0.4,0.3,1,0.3,1.4,0.2c0.2-0.1,0.4-0.1,0.6-0.1c0.2,0,0.4-0.1,0.6-0.2l0.2,0.1c0.1,0.1,0.2,0,0.3-0.1l0-0.1
		c0-0.1-0.1-0.2-0.2-0.3C39.7,46.1,39.6,46.1,39.6,46L39.6,46z M34.8,43.3c0.1,0,0.2,0.1,0.3,0.1c0.1,0,0.2,0.1,0.3,0.1
		c0.2,0,0.5-0.1,0.7-0.2l0-0.1v-0.1c0,0,0-0.1-0.1-0.2c-0.1,0-0.3,0-0.4,0c-0.1,0-0.3,0-0.4,0c-0.4,0-0.6-0.3-0.7-0.6
		c-0.2-0.5-0.1-0.9,0-1.4c0-0.2,0.1-0.4,0.2-0.7c0-0.2,0.1-0.4,0.1-0.7c0-0.3-0.1-0.6-0.1-1c0-0.3,0-0.7,0.1-1c0-0.3,0-0.5,0-0.8
		c0-0.2,0-0.5,0-0.7c0-0.1,0-0.2,0-0.2c0,0,0-0.1,0-0.1c0,0,0-0.1,0-0.1l0,0c0,0,0-0.1-0.1-0.1l0,0h0c0,0-0.1,0-0.1,0l0,0l-0.1,0.1
		l0.1,0l0,0c0,0.5,0,0.9,0,1.4c0,0.3-0.1,0.6-0.1,0.8c0,0.3,0,0.6,0,0.8c0,0.2,0,0.4,0,0.6c0,0.2,0,0.4,0,0.5c0,0.2-0.1,0.4-0.1,0.6
		c0,0.2-0.1,0.4-0.2,0.6c-0.1,0.6-0.2,1.3,0.2,1.9C34.4,43.1,34.6,43.2,34.8,43.3L34.8,43.3z M46.1,15.7l0.1,0.1
		c0.6,0.4,1.2,0.7,1.9,1.1C47.5,16.5,46.8,16.1,46.1,15.7z M38,38.7c0.1,0,0.1,0,0.1-0.1c-0.1-0.1,0-0.2-0.1-0.3
		c0-0.1-0.2-0.2-0.2-0.3c-0.2-0.4-0.3-0.8-0.5-1.2c0-0.1-0.1-0.2-0.2-0.2c0,0-0.1,0.1-0.1,0.1c0,0.3,0.1,0.7,0.2,1
		C37.6,38.1,37.7,38.5,38,38.7L38,38.7z M36.3,43.6c0,0,0.1,0,0.1,0c0.1,0,0.1,0,0.2,0h0.3c0.2,0,0.5,0,0.7,0c0.2,0,0.5-0.1,0.6-0.2
		c0.3-0.1,0.3-0.5,0.3-0.8l-0.1-0.1c-0.2,0-0.2,0.1-0.3,0.2c0,0.1,0,0.1,0,0.2c0,0,0,0.1,0,0.1c-0.3,0.4-0.8,0.4-1.2,0.4l-0.6,0.1
		c0,0,0,0,0,0l0,0C36.2,43.4,36.2,43.5,36.3,43.6L36.3,43.6L36.3,43.6z M35.3,44.3c-0.1,0-0.1,0.1-0.1,0.2c0.3,0.1,0.6,0.3,0.9,0.1
		c0-0.1,0.1-0.1,0.1-0.2c0-0.1,0-0.1-0.1-0.1C35.9,44.4,35.6,44.4,35.3,44.3L35.3,44.3z M37.1,45.1C37,45,36.9,45,36.8,44.9
		c-0.1-0.1-0.2-0.1-0.3-0.1c-0.2-0.1-0.3,0-0.5,0c-0.1,0-0.1,0.1-0.2,0.1c-0.1,0-0.1,0.1-0.2,0.1c-0.3-0.2-0.6-0.2-0.9-0.1
		c-0.1,0.1-0.3,0.1-0.4,0.2c-0.1,0.1-0.3,0.1-0.4,0.2c0,0-0.1,0-0.1,0c0,0-0.1,0-0.2,0c-0.1,0-0.2,0-0.3,0.1c0,0,0,0.1,0,0.1
		c0,0,0,0,0,0.1c0.3,0.1,0.6,0.1,0.9,0c0.1,0,0.2-0.1,0.2-0.1c0.1,0,0.1-0.1,0.2-0.1c0.1-0.1,0.3-0.1,0.4-0.1l0,0c0,0,0.1,0,0.2,0
		l0.1,0c0,0,0.1,0,0.1,0c0,0,0,0,0.1,0c0,0,0.1,0,0.1,0c0.1,0,0.1,0,0.2,0c0.3-0.2,0.6-0.2,0.9-0.1c0.2,0.1,0.3,0.1,0.5,0.2
		c0.2,0.1,0.3,0.1,0.5,0.1l0,0l0.1,0c0,0,0,0,0.1,0c0,0,0,0,0.1-0.1c0-0.1,0-0.2-0.1-0.2C37.5,45.3,37.3,45.2,37.1,45.1L37.1,45.1z
		 M63.4,31.5c0-0.4-0.1-0.8-0.2-1.1c-0.1-0.1-0.1-0.3-0.2-0.5c0-0.4-0.3-0.6-0.3-1c-0.2-0.5-0.5-1-0.8-1.5c0-0.4-0.1-0.7-0.2-1.1
		c-0.1-0.1-0.1-0.1-0.1-0.2c0-0.1-0.1-0.1-0.1-0.2c0,0-0.1-0.1-0.1-0.2c-0.2-0.3-0.4-0.7-0.6-0.9c-0.3-0.4-0.7-0.8-1-1.2
		c-0.1-0.1-0.2-0.1-0.3-0.2c-0.4-0.4-0.9-0.7-1.3-1.1c-0.1,0-0.2-0.1-0.3-0.2c-0.3-0.2-0.6-0.3-0.8-0.5c-0.6-0.2-1.1-0.5-1.8-0.8
		c-0.4-0.1-0.7-0.3-1.1-0.3c-0.3,0-0.6-0.2-0.9-0.3c-0.3-0.1-0.5-0.3-0.7-0.4c-0.2-0.2-0.5-0.3-0.7-0.5c-0.2-0.1-0.4-0.2-0.5-0.4
		c-0.6-0.5-1.1-1.3-1.9-1.7c-0.5-0.1-1-0.4-1.4-0.3c-0.7-0.3-1.3-0.6-1.9-1.1c-0.2-0.2-0.4-0.3-0.6-0.5c-0.8-0.8-1.9-1.4-3.1-1.4
		c-0.2,0-0.4,0.1-0.6,0.1c-0.5-0.9-1.6-1-2.5-1.3c-0.4-0.2-0.7-0.6-0.9-1c0-0.1-0.1-0.2-0.1-0.4c0-0.1-0.1-0.2-0.2-0.2
		c-0.1-0.1-0.3,0-0.4,0.1c-0.1,0.3-0.1,0.6-0.2,0.8c-0.1,0.2-0.2,0.4-0.3,0.6c-0.2,0.3-0.6,0.6-0.9,0.6C36.3,13,36,13,35.6,12.9
		c-0.1,0-0.3,0-0.4,0c-0.7,0-1.4,0.2-2,0.5c-0.5,0.2-0.9,0.5-1.3,0.7c-0.4,0.4-0.8,0.5-1.2,0.8c-0.3,0.2-0.4,0.3-0.7,0.4
		c-0.6,0.5-1.5,0.8-2.3,0.7c-0.3,0-0.7-0.2-0.9-0.4c0,0-0.1-0.1-0.1-0.1c-0.3-0.1-0.3-0.4-0.4-0.6c-0.1-0.1,0-0.2-0.2-0.3
		c-0.1,0-0.2,0-0.3,0c-0.5,0.4-0.9,0.7-1.2,1.2c-0.2,0.5-0.4,1-0.4,1.6c-0.2,0.2-0.5,0.3-0.7,0.4c-0.1,0.1-0.4,0.2-0.5,0.4
		c-0.2,0.2-0.4,0.4-0.5,0.7c0,0.1,0,0.1-0.1,0.1c-0.5,0-1,0-1.5,0.1c-0.7,0.1-1.4,0.4-2,0.6c-0.6,0.3-1.3,0.6-1.9,1
		c-0.3,0.1-0.5,0.4-0.8,0.5c-0.3,0.3-0.7,0.5-1,0.8c-0.2,0.2-0.4,0.4-0.5,0.7c0.1,0.2-0.2,0.4,0,0.5c-0.1,0.2-0.4,0.4-0.5,0.6
		c-0.9,0.4-1.6,0.9-2.4,1.5c-0.7,0.7-1.4,1.3-1.9,2.1c-0.1,0.1,0,0.2-0.2,0.2c0,0.1-0.1,0.1-0.1,0.2c-0.2,0.4-0.4,0.7-0.5,1.1
		C9,29.2,9,29.3,8.9,29.4c0,0.1,0,0.1-0.1,0.2L8.8,30c0,0.1,0,0.2-0.1,0.2c0,0.1-0.1,0.2,0,0.3c0,0.2,0.1,0.4,0.1,0.5
		c0,0.2-0.2,0.2-0.2,0.4c-0.1,0.1-0.2,0.3-0.3,0.4c-0.1,0.2,0.1,0.4,0.2,0.5c0.3,0.1,0.6,0,0.9-0.1c0.4-0.1,0.8-0.3,1.1-0.5
		c0.1,0.5,0.2,1,0.7,1.3c0.2,0.1,0.5,0.2,0.8,0.2c0.3,0.1,0.4-0.1,0.6-0.2c0,0,0,0,0,0c-0.1,0.5,0.1,1,0.4,1.4
		c0.3,0.2,0.6,0.4,0.9,0.6c0,0.3,0,0.5,0.1,0.7c0.1,0.1,0.1,0.3,0.2,0.4c0.3,0.6,0.9,1,1.5,1.3c0.4,0.2,0.8,0.2,1.3,0.1
		c0,0,0.1,0,0.1,0c0.1,0.3,0.2,0.7,0.4,1c0.1,0.1,0.2,0.2,0.2,0.3c0.1,0.2,0.2,0.3,0.4,0.5c0.2,0.3,0.5,0.3,0.7,0.6
		c0.1,0.4,0.5,0.8,0.9,0.9c0,0.1,0.2,0,0.2,0.2c-0.1,0.1-0.1,0.4-0.2,0.5c0,0.3,0,0.8,0.1,1.1c0,0.1,0.1,0.2,0.1,0.3c0,0,0,0,0.1,0
		c0.1,0.3,0.3,0.4,0.5,0.6c0.1,0.3,0.3,0.5,0.5,0.7c0.1,0.1,0.3,0.1,0.5,0.2c0,0.1,0,0.2,0,0.2c0,0.2,0.1,0.5,0.2,0.7
		c0,0.2,0.1,0.3,0.2,0.5c0.1,0.2,0.2,0.3,0.3,0.5c-0.1,0.2-0.2,0.3-0.2,0.5c-0.1,0.5-0.2,0.9,0,1.3c0,0.1,0,0.1,0.1,0.2
		c0.2,0.5,0.7,0.9,1.2,1.2c0.1,0.2,0.2,0.4,0.2,0.6c0.1,0.4,0,0.7-0.1,1.1c0,0.2,0,0.4-0.1,0.6c0,0,0,0.1,0,0.1
		c0,0.3-0.1,0.5-0.1,0.8c0,0.1,0,0.1,0,0.2c0,0.4-0.1,0.8,0,1.2c0,0.4,0.2,0.7,0.2,1.1c0.3,0.4,0.5,0.9,0.9,1.3
		c0.1,0,0.1,0.1,0.2,0.1c0,0,0.1,0,0.1,0.1c0.4,0.3,0.9,0.6,1.4,0.8c0.3,0.1,0.6,0.1,0.9,0.2c0.5,0,1.1,0.1,1.6-0.1
		c1.4-0.3,2.5-1.3,3.8-1.9c0.4-0.1,0.8-0.4,1.3-0.3c0.1,0.1,0.1,0.3,0.2,0.3c0.1,0.3,0.4,0.5,0.8,0.6c0.2,0.1,0.5,0.1,0.8,0.1
		c0.3,0,0.7-0.1,1-0.2c0.2,0,0.2-0.2,0.4-0.3c0.3,0.2,0.7,0.3,1.1,0.3c0.2,0.1,0.4,0.1,0.6,0.1c0.4-0.1,0.7-0.4,0.9-0.8
		c0.1-0.1,0.2,0,0.2,0.1c0.1,0,0.2,0.1,0.2,0.1c0.4,0.3,0.7,0.7,1.1,0.9l0.5,0.3c0.2,0,0.4,0.2,0.6,0.2c0.3,0.1,0.5,0.2,0.8,0.2
		c0,0,0.1,0.1,0.1,0c0.2,0,0.4,0.1,0.5,0.1c0.3,0,0.5,0.1,0.8,0.1c0.1,0,0.2,0,0.4,0c0.3,0,0.6-0.1,0.9-0.1c0.2,0,0.5-0.2,0.7-0.2
		c0.5-0.2,1-0.6,1.4-1c0.2-0.1,0.2-0.4,0.4-0.5c0.1-0.3,0.2-0.6,0.4-0.8c0,0,0-0.1,0-0.1c0-0.2,0.1-0.3,0.1-0.4
		c0-0.2,0.1-0.4,0.2-0.7c0.2-0.6,0.2-1.3,0.2-1.9c0.1-0.3,0-0.5,0.1-0.8c0-0.2,0-0.3,0-0.4c0-0.2,0-0.3,0.1-0.5
		c0.1-0.2,0.2-0.3,0.2-0.5c0-0.1,0.1-0.2,0.1-0.3c0.2-0.3,0.3-0.6,0.6-0.9c0-0.1,0.1-0.2,0.1-0.3c0.1-0.2,0.2-0.4,0.2-0.6
		c0-0.1,0-0.2,0-0.2c0-0.3,0-0.6,0-0.9c0-0.3-0.2-0.5-0.2-0.8c0.2-0.2,0.3-0.5,0.4-0.8c0-0.2,0.1-0.5,0.1-0.7
		c0.1-0.1,0.2-0.2,0.3-0.3c0.1-0.4,0.2-0.9,0.1-1.3c0-0.2-0.1-0.3-0.1-0.4c0.1,0,0.3,0.1,0.4,0.1c0.4,0,0.8,0.1,1.2,0
		c0.2-0.1,0.4,0.1,0.6,0c0.2-0.1,0.4,0.1,0.6,0c0.1,0,0.1-0.2,0.1-0.3c-0.3-0.2-0.3-0.5-0.5-0.7c-0.2-0.4,0.1-0.8,0.2-1.2
		c0,0,0.1-0.1,0.1-0.1c0.2-0.3,0.2-0.6,0.4-0.9c0-0.1,0.1-0.1,0.1-0.2c0.1-0.2,0.2-0.4,0.3-0.6c0.1-0.2,0.1-0.5,0.2-0.7
		c0.1-0.4,0.1-0.7,0.1-1.1c0-0.3-0.1-0.6-0.2-0.9c0,0-0.1-0.1-0.1-0.2c0,0,0.1,0,0.2,0c0.5,0,0.9-0.4,1.2-0.8c0,0,0-0.1,0.1-0.1
		c0-0.1,0.1-0.2,0.2-0.4c-0.1-0.3,0.2-0.3,0.3-0.5c0.2-0.4,0.4-0.9,0.3-1.4c0-0.1,0.2-0.1,0.2-0.2c0,0,0.1,0,0.1,0
		c0.1,0,0.1,0,0.2,0.1c0.3,0.3,0.5,0.7,1,0.6c0.3,0,0.6-0.2,0.8-0.4c0-0.1,0.2-0.1,0.2-0.3c0-0.1,0-0.2,0.1-0.2
		c0.1,0.1,0.2,0.2,0.2,0.3c0.3,0.3,0.6,0.7,1,0.8c0.2,0.1,0.4,0.1,0.6,0.1c0.2-0.1,0.4-0.1,0.6-0.1c0.1,0.1,0.3,0.3,0.5,0.3
		c0.1,0,0.2,0.1,0.3,0.1c0.2,0,0.4-0.1,0.6-0.1c0.1-0.1,0.2-0.1,0.4-0.2c0-0.1,0.1-0.2,0.1-0.2c0.1,0.1,0.2,0.2,0.3,0.2
		c0.1,0.1,0.1,0,0.2-0.1C63.6,32.4,63.4,32,63.4,31.5L63.4,31.5z M53,20.9c0.4,0.2,1.4,0,2.3,0.5c0.8,0.4,1.5,0.6,2.2,1.1
		c0.4,0.3,0.8,0.6,1.2,0.9c0.3,0.3,0.8,0.7,1.1,1c0.4,0.3,0.6,0.8,0.9,1.1c0.1,0.2,0.3,0.4,0.3,0.6c0.1,0.1,0.1,0.2,0.2,0.2
		c0.1,0.2,0.2,0.4,0.2,0.6c-1.4-1.2-2.6-2.7-4.3-3.5c-3-1.8-9.1-0.9-10.6-3.1v-0.1c1.5,0.9,2.9,0.6,4.6,0.6c0.3,0,0.6,0,0.9,0
		C52.3,20.7,52.8,20.8,53,20.9L53,20.9z M52.4,20.3c-0.9,0.1-5.8,0.5-5.7-0.9c1.1-0.3,2.3-0.5,3.5-0.4C50.5,18.9,52.2,20,52.4,20.3
		L52.4,20.3z M50.3,18.4c-0.4,0.1-0.9,0-1.3,0.1c-0.6,0.1-1.2,0.2-1.8,0.3c-0.2,0-1.2,0.3-1.2,0.3c0,0,0.1,0.5,0.2,0.6
		c-0.3,0.4-1.4,0.8-1.8,0.7c-0.6,0-1.1-0.3-1.7-0.3c-1.2,0.1-2,0.7-3,0.9c0.4-0.6,1.2-1.3,1.7-1.7c2.4-2,2.7-0.3,5.2-1.4
		C48.1,17.2,49.1,17.1,50.3,18.4z M55.1,27.2c-0.1,0.1-0.3,0.1-0.4,0.2c-0.1-0.4-0.4-0.4-0.7-0.6c0.3,0,1.3,0.1,1.5,0.4
		C55.4,27.1,55.3,27.2,55.1,27.2L55.1,27.2z M57.3,29.4c-1.4,0-1.9,1.2-3,1.6c0-0.8-0.7-1.5,0-2.7c0.2-0.2,0.4-0.4,0.6-0.5
		C56.3,27.1,56.9,28.3,57.3,29.4L57.3,29.4z M52.5,26C52.5,26,52.4,26,52.5,26c-0.5-0.2-1.4-0.1-1.8,0c-2.2,0.6-4.2-0.8-5.5-2.4
		c-0.2-0.2-0.4-0.3-0.6-0.5c0.7-0.2,1.4-0.5,2.2-0.6c0.8,0,1.6,0.3,2.4,0.4c0.8,0.1,1.6,0.1,2.4,0.1c0.6,0,1.6,0.3,2.1,0.6
		c0.2,0.2,0.6,0.3,0.8,0.6c0.4,0.5,0.7,1,1.3,1.4C54.9,26.5,53.5,26.3,52.5,26L52.5,26z M46.2,25.3c0.3,0.2,0.6,0.4,0.9,0.6
		c0.7,0.4,2.9,1,3.7,0.5c0,0,0,0,0.1,0c1.2-0.4,2.9,0.1,3.5,1.3c-0.6,0.5-1.1,3-0.3,3.4c-1.3,1-1.7-1.6-3.4-1.3
		c-0.2-0.3-1.2-1.1-1.6-0.9c-0.2,0.1-0.3,0.3-0.5,0.4c-0.4,0.2-1.8,0.1-2.2-0.2c-0.1-0.1-0.1-0.4-0.1-0.6c-0.1-0.4-0.9-3-1.1-3.4
		c-0.3-0.6-0.8-1-1.2-1.6C44.7,23.7,45.6,24.8,46.2,25.3L46.2,25.3z M46.7,30.8c-0.3-0.1-0.5-0.3-0.7-0.5c0-0.2,0.1-0.6,0.2-0.8
		c0.9,0.4,2.2,0.5,3-0.2c0.2,0.1,0.8,0.6,0.9,0.7c0,0.1,0.1,0.2,0.2,0.3c0.1,0.1,0.1,0.2,0.2,0.3c0.1,0.2,0.1,0.4,0.1,0.6l-0.1,0.1
		c-0.3-0.3-0.5-0.7-0.8-0.9c-0.1-0.1-0.3-0.2-0.4-0.4L49.1,30c-0.2,0.1-0.2,0.3-0.3,0.4C49,31,47.2,31.2,46.7,30.8L46.7,30.8z
		 M46.7,46.7c0.1,0,0.2,0,0.2-0.1c0.3-0.3,0.5-0.8,0.8-1.1c0.1,0.1,0,0.2-0.1,0.3c-0.1,0.2-0.2,0.4-0.3,0.6
		c-0.1,0.2-0.3,0.5-0.4,0.8c-0.4,0.5-0.9,1-1.2,1.5c-0.2,0.2-0.3,0.4-0.5,0.6c0,0.1-0.1,0.1-0.1,0.2c-0.1,0.1-0.2,0.2-0.3,0.3
		c0,0.1,0,0.2,0.1,0.2c0.1,0,0.2,0,0.3,0c0.6-0.7,1.1-1.4,1.6-2.1c0.2-0.1,0.3-0.4,0.4-0.6c0.2-0.3,0.4-0.5,0.5-0.9
		c0.1,0,0.1,0.1,0.1,0.2c0,0.2-0.2,0.3-0.2,0.4c-0.2,0.3-0.4,0.6-0.6,0.8c-0.3,0.4-0.6,0.7-0.8,1.1c-0.3,0.4-0.6,0.8-0.9,1
		c-0.2,0.3-0.5,0.6-0.7,0.8c-0.4,0.4-0.8,0.9-1.2,1.2c-0.1,0.1-0.3,0.2-0.4,0.4c-0.2,0.3-0.6,0.4-0.8,0.7c-0.2,0.1-0.3-0.1-0.5-0.1
		c-0.1-0.1-0.3-0.1-0.3-0.3c0.3-0.2,0.7-0.5,1-0.8c0.3-0.3,0.6-0.6,0.9-0.9c0-0.1,0.1-0.2,0.1-0.3c-0.1-0.1-0.1-0.1-0.2-0.1
		c-0.4,0.3-0.7,0.8-1.1,1.1c-0.1,0.1-0.2,0.2-0.3,0.3c0,0.1-0.1,0.1-0.1,0.1c-0.2,0.2-0.4,0.3-0.5,0.4c-0.2,0.1-0.4-0.1-0.6-0.1
		c-0.2,0-0.4-0.1-0.5-0.2c0.4-0.3,0.8-0.6,1.1-0.9c0.5-0.3,0.8-0.9,1.3-1.2c0.8-0.8,1.5-1.7,2.2-2.6c0.5-0.7,0.9-1.4,1.4-2.2
		c0-0.1,0.1-0.2,0.2-0.3c0-0.1,0.1-0.2,0.1-0.4c0.1-0.2,0.1-0.3,0.2-0.5c0-0.1,0.1-0.2,0.2-0.2c0.1,0.1,0.1,0.1,0.2,0.2
		c0.2,0.3,0.5,0.5,0.6,0.7c0,0.2-0.2,0.3-0.2,0.5c-0.2,0.4-0.4,0.7-0.6,1.1C46.6,46.6,46.7,46.7,46.7,46.7L46.7,46.7z M46.6,52.1
		c0,0.5-0.1,1-0.2,1.6c-0.1,0.1-0.1,0.1-0.1,0.2c0,0.1-0.1,0.1-0.1,0.2c-0.1,0.2-0.2,0.5-0.5,0.5c-0.4,0-0.9,0-1.2-0.1
		c-0.2,0-0.3-0.1-0.5-0.2c-0.4-0.2-0.9-0.5-1.2-0.7c0.3-0.3,0.5-0.4,0.8-0.7c0.7-0.5,1.3-1.2,1.9-1.8c0.4-0.5,0.8-0.9,1.2-1.4
		c0.2-0.2,0.4-0.5,0.5-0.7c0,0.2-0.1,0.2-0.1,0.4c-0.1,0.2-0.2,0.4-0.2,0.7c0,0.3-0.1,0.7-0.1,1C46.6,51.4,46.7,51.7,46.6,52.1
		L46.6,52.1z M28.2,52.4c0.1,0.2,0.2,0.4,0.4,0.5c0.3,0.3,0.7,0.7,1,1c0,0.1-0.1,0.1-0.2,0.2c-0.2,0-0.3-0.2-0.5-0.2
		c-0.3-0.3-0.6-0.3-0.8-0.6c-0.1-0.1-0.3-0.3-0.4-0.4c0-0.1,0,0-0.1-0.1c-0.1-0.1-0.2-0.3-0.4-0.4c-0.1-0.1-0.2-0.3-0.4-0.4
		c0-0.1-0.1-0.1-0.1-0.1c-0.2-0.2-0.3-0.3-0.4-0.5c-0.2-0.2-0.3-0.4-0.4-0.5c-0.1-0.2-0.3-0.5-0.4-0.7c0-0.1-0.1-0.2-0.1-0.2
		c-0.1-0.1-0.1-0.2-0.1-0.2c0-0.2-0.2-0.4-0.3-0.7c-0.1-0.2-0.1-0.4-0.2-0.6c-0.1-0.2-0.2-0.5-0.2-0.6c0.1-0.1,0.2-0.2,0.2-0.4H25
		c0.1,0.4,0.3,0.7,0.4,1.1c0.2,0.4,0.4,0.8,0.6,1.3c0.1,0,0.2,0.2,0.3,0.2c0.1,0,0.1-0.1,0.2-0.2c0-0.2-0.1-0.3-0.2-0.4
		c0-0.2-0.1-0.4-0.2-0.5c0-0.1-0.1-0.1-0.1-0.2c0-0.1-0.1-0.3-0.1-0.4c-0.1-0.2-0.2-0.5-0.3-0.7c0-0.2-0.1-0.3-0.1-0.5
		c0.3-0.2,0.5-0.5,0.8-0.7c0.1,0.1,0,0.3,0.2,0.4c0.2,0.8,0.6,1.5,0.9,2.2c0.6,0.9,1.2,1.9,2,2.6c0.4,0.5,0.9,1,1.5,1.4
		c0.2,0.2,0.5,0.3,0.6,0.5c0,0,0,0.1,0,0.1c-0.2,0.1-0.5,0.3-0.7,0.4c0,0-0.1,0-0.1,0c-0.1,0-0.1,0.1-0.1,0.1c-0.1,0.1-0.2,0-0.3,0
		c-0.3-0.2-0.5-0.4-0.8-0.7c-0.1-0.1-0.2-0.2-0.4-0.3c-0.1-0.1-0.2-0.2-0.3-0.3c-0.1,0-0.2-0.1-0.4-0.1
		C28.2,52.2,28.2,52.3,28.2,52.4L28.2,52.4z M25.4,51.6c0-0.3-0.1-0.6,0-0.9l0,0c0.4,0.5,0.7,1,1.2,1.5c0.2,0.3,0.4,0.5,0.7,0.8
		c0.4,0.4,0.8,0.9,1.4,1.2c0.1,0.1,0.2,0.1,0.3,0.2c-0.1,0.2-0.3,0.2-0.5,0.3c-0.1,0.1-0.2,0.1-0.3,0.1c-0.4,0.2-0.7,0.4-1.1,0.5
		l-0.1,0.1c-0.3,0.1-0.7,0.1-1,0c-0.1,0-0.1-0.1-0.2-0.1c0,0-0.1-0.1-0.2-0.1c-0.2-0.5-0.2-1.1-0.2-1.7
		C25.4,52.9,25.3,52.2,25.4,51.6L25.4,51.6z M23.7,47.3c0-0.2,0.1-0.3,0.1-0.5c0.1-0.3,0.2-0.5,0.4-0.7c0,0,0-0.1,0.1-0.1
		c0.5-0.6,1-1.2,1.7-1.6l0.1,0v0.4c0,0.1,0,0.2-0.1,0.2v0.1c0,0-0.1,0.1-0.1,0.1c-0.5,0.6-1.2,1-1.6,1.6c-0.1,0.1-0.2,0.3-0.3,0.5
		c-0.1,0.1,0,0.2-0.1,0.3c0,0.1,0,0.1,0,0.2c-0.1,0,0,0.1-0.1,0.1C23.6,47.9,23.8,47.6,23.7,47.3L23.7,47.3z M31.2,52
		c-0.6-0.5-1.2-1.1-1.8-1.7c-0.6-0.8-1.2-1.4-1.6-2.3c-0.3-0.6-0.5-1-0.7-1.6c-0.1-0.2-0.1-0.4-0.2-0.7c-0.1-0.4-0.3-0.7-0.2-1.1
		c0-0.2,0-0.3,0-0.5c0-0.1-0.1-0.2,0-0.3l0,0l0,0c0,0,0,0.1,0,0.2c0,0,0.1,0.1,0.1,0.2c0.2,0.5,0.5,1,0.8,1.5
		c0.2,0.4,0.5,0.8,0.8,1.2c0.1,0.1,0.2,0.3,0.3,0.4c0.2,0,0.2,0.2,0.3,0.3c0.7,0.7,1.4,1.2,2.2,1.8c0.3,0.3,0.6,0.5,0.9,0.8
		c0.3,0.3,0.6,0.6,1,0.9c0.7,0.7,1.8,0.5,2.8,0.6c0.8,0,1.6-0.2,2.3-0.5c0.3,0,0.5-0.2,0.8-0.3c0.3-0.2,0.5-0.4,0.7-0.7l0.1,0
		c0.3-0.3,0.6-0.6,0.9-0.9c0.4-0.3,0.8-0.7,1.2-1c0.3-0.2,0.6-0.5,0.8-0.8c0.5-0.4,0.8-0.9,1.2-1.4c0.2-0.3,0.4-0.5,0.5-0.8
		c0.1-0.2,0.2-0.5,0.4-0.6c0.1,0.1,0,0.2,0.1,0.3c0.1,0.1,0.1,0.2,0.2,0.3c0.1,0.1,0.1,0.3,0.2,0.4c0,0.2,0.2,0.4,0,0.5
		c-0.3,0.6-0.8,1.1-1.2,1.7c-0.3,0.3-0.5,0.6-0.8,1c-0.4,0.5-0.9,1-1.4,1.5c-0.4,0.6-1,1-1.6,1.5c-0.2,0.1-0.3,0.2-0.5,0.3
		c-0.2,0.1-0.3,0.3-0.5,0.3c-0.7,0.1-1.5,0.2-2.1,0.6c-0.2-0.1-0.4-0.1-0.6-0.2c-0.4-0.1-0.8-0.1-1.1,0.1c-0.2,0-0.3-0.2-0.4-0.2
		c-0.4-0.2-0.9-0.3-1.3-0.2c-0.3,0-0.7,0.1-1,0.2c-0.2,0.1-0.3-0.1-0.5-0.1C31.7,52.4,31.5,52.2,31.2,52L31.2,52z M46.1,44
		C46.1,44,46.1,44,46.1,44c-0.1,0.1-0.2,0.2-0.2,0.4c-0.1,0.2-0.2,0.3-0.2,0.5c0,0.1-0.1,0.2-0.2,0.3c-0.1-0.1-0.2-0.2-0.3-0.4
		c-0.1-0.2-0.1-0.4-0.2-0.5c-0.1-0.2,0-0.4-0.1-0.7c0.1-0.2,0.2-0.5,0.3-0.7c0-0.1,0.1-0.3,0.2-0.4l0,0c0,0,0,0.1,0.1,0.1
		c0.1,0.4,0.4,0.7,0.6,1C46.2,43.8,46.1,43.9,46.1,44L46.1,44z M45.7,38.6c0,0.5-0.1,1-0.2,1.5c-0.1,0.3-0.1,0.6-0.2,0.9
		c-0.1,0.4-0.2,0.8-0.3,1.2l-0.2,0.6c-0.1,0.1-0.1,0.3-0.2,0.4c-0.1,0.2-0.2,0.4-0.3,0.6c0,0.1-0.1,0.1-0.1,0.2
		c-0.2,0.3-0.4,0.6-0.5,0.9c0,0.1-0.1,0.1-0.1,0.2c-0.1,0-0.1,0.1-0.1,0.2c0,0.1-0.1,0.1-0.1,0.2c-0.5,0.6-0.8,1.2-1.5,1.7
		c-0.1,0.2-0.3,0.3-0.4,0.5c-0.1,0.1-0.1,0.1-0.2,0.1c-0.4,0.4-0.8,0.7-1.2,1.1c-0.5,0.4-1.1,1-1.6,1.4c-0.4,0.3-0.8,0.5-1.3,0.6
		c-1,0.3-2.1,0.3-3.1,0.2c-0.5-0.1-0.8-0.4-1.1-0.7c-0.2-0.2-0.5-0.5-0.7-0.8c-0.3-0.3-0.7-0.6-1-0.9c-0.1-0.1-0.2-0.1-0.3-0.2
		c-0.1-0.1-0.3-0.2-0.5-0.4c-0.6-0.4-1-0.9-1.5-1.4c-0.2-0.1-0.2-0.2-0.3-0.3c0-0.1-0.2-0.2-0.2-0.4c-0.1-0.1-0.2-0.3-0.2-0.4
		c0-0.1-0.1-0.1-0.1-0.2c-0.2-0.3-0.3-0.7-0.5-1.1c-0.1-0.2-0.2-0.5-0.3-0.7c-0.1-0.2-0.2-0.4-0.3-0.6c-0.1-0.2-0.2-0.4-0.3-0.7
		c-0.3-0.9-0.6-1.9-0.7-2.9c0,0,0-0.1-0.1-0.2c-0.1-0.5-0.1-0.8-0.1-1.3c-0.1-0.5,0-1.1,0-1.6c0.4-0.1,0.7-0.3,1-0.6
		c0.2-0.1,0.3-0.3,0.4-0.4c0.1,0,0.2,0,0.3-0.1c0,0.1-0.2,0.3-0.2,0.4c-0.2,0.3-0.5,0.6-0.5,1c0.1,0.1,0.2,0.2,0.3,0.2
		c0.2,0,0.3,0,0.5,0c-0.1,0,0,0.1,0,0.2c0.1,0.1,0.2,0,0.3,0c0,0.1,0,0.1,0,0.2c0.6,0.7,1.5,1.1,2.5,1.1c0,0.1,0.1,0,0.2,0
		c0,0,0.1,0,0.1,0c0.8-0.2,1.6-0.5,2.3-0.7c0.2-0.1,0.4-0.2,0.4-0.5c-0.3-0.5-0.8-0.7-1.2-1c-0.3-0.1-0.6-0.2-0.9-0.3
		c-0.5-0.1-1.2,0-1.8,0.1c-0.6,0.2-1.1,0.5-1.6,0.7c0,0-0.1,0-0.1,0c0,0,0.1-0.1,0.1-0.1c0.4-0.3,0.4-0.3,0.8-0.5
		c0,0,0.6-0.3,0.6-0.4c0.5-0.2,0.8-0.4,1.4-0.3c0.2,0.1,0.4,0.1,0.6,0.2c0.1,0,0.1,0,0.1-0.1c0-0.2-0.1-0.3-0.2-0.4
		c-0.3-0.1-0.6-0.2-1-0.2c-0.3,0.1-0.6,0.1-0.9,0.2c-0.2,0.1-0.3,0.1-0.5,0.2c-0.3,0.1-0.3,0.3-0.6,0.4c-0.1,0.1-0.4,0.3-0.5,0.4
		c-0.1,0-0.4,0.1-0.5,0.1c0-0.1,0.1-0.2,0.2-0.3c0,0,0.1-0.1,0.1-0.1c0.1-0.1,0.2-0.3,0.3-0.5c0.3-0.2,0.4-0.4,0.8-0.6
		c0.6-0.2,1.2-0.2,1.6-0.2c1,0.1,1.6,0.2,2.3,0.2c0.5-0.1,0.9-0.1,1.3-0.4c0.1-0.1,0.1-0.2,0.1-0.2c-0.1-0.1-0.2-0.1-0.3,0
		c-0.6,0.3-0.8,0.2-1.3,0.3c-0.5,0-0.9,0-1.3,0c-0.5-0.1-0.9-0.2-1.5-0.1c-0.2,0-0.5,0.2-0.7,0.1c0-0.6,0.5-1,0.8-1.5
		c0.3-0.2,0.7-0.5,1-0.6c0.2-0.2,0.6-0.3,0.7-0.6c0.2-0.2,0.4-0.4,0.5-0.7c0.1-0.1,0.1-0.2,0.1-0.4l0-0.1c0.4-0.2,0.8-0.5,1.1-0.8
		c0,0,0.1-0.1,0.1-0.1c0.2-0.1,0.4-0.3,0.5-0.5c0.1-0.1,0.2,0,0.3,0.1c0.1,0.1,0.2,0.2,0.3,0.2c0.2,0.1,0.4,0.1,0.7,0.2
		c0.7,0,1.4,0.1,2.1,0.1h0.1c0.4,0.1,0.9,0.1,1.4,0.2c0.7,0.1,1.4,0.2,2,0.4c0.5,0.1,1.1,0.3,1.6,0.5c0.2,0.1,0.5,0.2,0.7,0.4
		c0.4,0.3,0.8,0.6,1.2,1c0.1,0.1,0.2,0.2,0.2,0.3c0.2,0.2,0.3,0.4,0.4,0.6c0.1,0.2,0.2,0.3,0.3,0.5c0.1,0.1,0,0.2,0.1,0.3
		c0,0.1,0.1,0.1,0.2,0.2l0.1,0c0,0.5,0.1,1.1,0.1,1.7c0.1,0.9-0.1,1.7-0.1,2.6C45.7,38.4,45.7,38.6,45.7,38.6L45.7,38.6z M25.6,34.9
		c0.1-0.4,1-2.2,1.4-2.2c0.1,0,0,0.2,0,0.2c-0.1,0.2-0.1,0.5-0.2,0.8c-0.1,0.3-0.1,0.6,0,1c0.1,0.4-0.5,0.7-0.6,0.8
		c-0.1,0.1-0.5,0.4-0.6,0.1l0-0.1C25.8,35.2,25.5,35.1,25.6,34.9L25.6,34.9z M25.1,38.1c0,0,0-0.1,0-0.1c-0.1-0.2-0.2-0.5-0.3-0.7
		c-0.1,0,0-0.1-0.1-0.1c0-0.1,0.1-0.2,0.1-0.3c0,0,0,0,0.1,0l0.1,0c0,0,0,0.1,0,0.1c0,0,0,0,0-0.1c0,0,0,0,0,0c0,0,0,0,0,0v0
		c0,0,0,0,0.1,0c0,0,0,0,0.1,0c0.1,0.1,0,0.2,0.1,0.3c0,0.4,0,0.7,0,1.1c0,0.1,0,0.2,0,0.4c0,0.1-0.1,0-0.1,0
		C25,38.5,25.1,38.3,25.1,38.1L25.1,38.1z M24.9,35.5c-0.2,0.1-0.3,0.4-0.6,0.4c-2.1,0-0.9-2,0.1-1.9c0.2,0,0.5,0.1,0.8,0.1l0,0.1
		C25.1,34.4,25,35.4,24.9,35.5L24.9,35.5z M25.3,30.9c-0.3,0.4-0.5,0.7-0.7,1.1c0,0-0.1,0-0.1,0c0-0.1,0-0.3,0-0.4
		c0.3-2.4,3.8-2.3,5.5-2.4c0.5,0,1.1-0.2,1.5-0.1c0.7,0.1,1.2-0.2,1.8-0.4c0,0.2-0.2,0.3-0.3,0.4L33,29.2c-0.1,0.1-0.4,0.3-0.5,0.3
		C30.4,31.8,26.9,28.6,25.3,30.9z M31.4,30.9c-0.4,0.7-1.1,0.9-1.7,1.3c-0.7-0.2-1.4,2.5-2.3,2.4l-0.1-0.1c-0.2-1.4,0.6-3.4,2.1-3.6
		C30.2,30.8,30.7,31,31.4,30.9L31.4,30.9L31.4,30.9z M25.6,29.4c-1.4,0.9-3.9,2.2-5.3,0.6c1.1-0.1,1.5-0.1,2.4-0.7
		c1.3-0.8,3.2-2.7,4.9-1.9l0,0c0.5,0,1.6,0.8,2.2,1.1C28.9,29,27.1,28.4,25.6,29.4L25.6,29.4z M24.9,33.4c-0.2-0.1,0-0.7,0.1-0.9
		c0.7-1.8,1.2-1.9,3-2v0c0.2,0,0.4,0,0.5,0.1c-0.1,0.1-0.2,0.1-0.3,0.2c-0.3,0.1-0.4,0.4-0.6,0.6c-0.8,0.5-1.3,1.2-1.9,1.9
		C25.4,33.2,25.2,33.6,24.9,33.4L24.9,33.4z M28.3,37.1c0.1,0,0.2-0.1,0.3,0v0.3c0,0-0.1,0-0.1,0C28.4,37.2,28.3,37.2,28.3,37.1
		L28.3,37.1z M32,37.2c0,0.1,0,0.2,0,0.3c0,0,0,0.1-0.1,0.1c-0.1,0.1-0.2,0.2-0.3,0.2c-0.1,0-0.3,0.1-0.4,0.1
		c-0.5,0.2-1.3,0.1-1.8-0.1c-0.1,0-0.1-0.1-0.2-0.1c0,0-0.1,0-0.1-0.1c0-0.1,0-0.1,0-0.2c0-0.1,0-0.2-0.1-0.3c0,0,0-0.1,0-0.1
		c0,0,0-0.1,0-0.1c0.5-0.3,1-0.5,1.5-0.5c0.3,0,0.5,0,0.8,0.1c0.2,0,0.4,0.1,0.7,0.2c0,0-0.1,0.1-0.1,0.1C31.9,36.9,32,37,32,37.2
		L32,37.2z M32.4,37c0-0.1,0-0.1-0.1-0.2c0.3,0.1,0.5,0.3,0.7,0.5c0,0,0,0,0,0c0,0,0,0-0.1,0c0,0,0,0-0.1,0c-0.1,0-0.1,0-0.2,0.1
		l-0.2,0c0-0.1,0-0.2,0-0.2C32.4,37.1,32.4,37,32.4,37L32.4,37z M39.3,27.8c1.9,0.9,3.8,0.3,5.2,2c0.5,0.6,0.9,1.4,0.8,2.3l0,0.1
		l0,0.1l-0.1,0.1c-0.3-0.2-0.5-0.6-0.8-0.8c-1.9-1.7-3.9-2.1-6.4-2.4c-0.5-0.1-3.7-0.2-3.8-0.6c0,0,0.8-1.5,0.9-1.8
		c0.1-0.1,0.1-0.3,0.2-0.4c0-0.2,0.1-0.3,0.1-0.5l0.1-0.3c0.7,0.3,1.5,1.9,3.2,1.7C38.9,27.6,39.2,27.6,39.3,27.8L39.3,27.8z
		 M39.2,26.6c2.4,0.2,2.8-0.8,5.4,0.3c0.5,0.2,1,0.6,1.1,1.2c0.1,0.5,0.2,1.7-0.2,2.1c-0.2-0.4-0.6-0.8-0.9-1.1
		C43.5,27.6,39.4,28.3,39.2,26.6z M44.1,24.4c0.2,0.2,0.4,0.3,0.5,0.6c0.1,0.2,0.6,1.4,0.6,1.6c-1.2-0.5-2.2-1-3.6-0.8
		c-1.5,0.3-3.7,0.5-4.4-1.2c-0.2-0.4-0.5-1.9-0.5-2c0-0.3,0-0.5,0.1-0.8c0.2,0.2,0.3,0.5,0.5,0.6c0.3,0.3,0.7,0.5,1.1,0.7
		c1.8,0.5,4-0.8,5.4,0.9C43.8,24.1,43.9,24.3,44.1,24.4L44.1,24.4z M36.9,21.2c0-0.1-0.1-0.2-0.1-0.3c0.3-0.7,0.7-1.2,0.9-2
		c0.4-1.5,0.1-1.6,0-3c0.7-0.3,2.2,1.2,2.3,1.9c-0.1,0.4-0.1,0.9-0.1,1.3C39.9,20.4,38.3,22.6,36.9,21.2L36.9,21.2z M45.9,16.3
		c0.4,0.3,0.8,0.5,1.2,0.8l-0.1,0.1c-1,0.5-2.4,1.1-3.6,0.6c-1,0.2-1.6,0.4-2.3,1.1c-0.3,0.2-0.5,0.5-0.8,0.6
		c0.2-1.1,0.1-2.3,0.5-3.4C42.1,12.8,44.2,15,45.9,16.3L45.9,16.3z M38.1,12.7c0.1-0.1,0.1-0.3,0.2-0.4c0.1,0,0.2,0.2,0.3,0.3
		c0.8,0.9,2.3,0.5,2.9,1.6c0,0,0,0.1,0,0.1c-0.5,0.4-0.9,1-1,1.6l-0.2,0.6c-0.1,0-0.2-0.1-0.2-0.1c-0.4-0.4-1.4-1-2-1
		c-0.3,0-0.6,0.1-0.9,0C35.1,14.7,37.7,13.3,38.1,12.7L38.1,12.7z M36.1,13.6L36.1,13.6c-0.1,0.5-0.3,0.5-0.3,1
		c0,0.5,0.8,1.4,1.4,1.3c0.7,0.9-0.1,3.3-0.5,4.2c-0.3,0.4-1.1,0.2-1.4-0.2c0-0.1-0.2-0.2-0.2-0.3c-0.2-0.5-0.6-0.8-1.2-1
		c-0.4-0.2-0.8,0-1.1-0.5c-0.2-0.4-0.3-0.8-0.6-1.1c-0.5-0.7-2-0.7-2.1-1C32.1,14.7,33.4,13.2,36.1,13.6L36.1,13.6z M29.8,16.8
		c0-0.1,0.1,0,0.2,0c0.4,0.1,0.7,0.2,1.1,0.3c0.9,0.2,1.1,1.3,1.8,2c0.2,0.2,0.6,0.1,0.8,0.2l-0.1,0.1c-0.6,0.4-1.6,0.7-2-0.2
		c-0.3-0.6-1.5-0.3-1.7-1.5C29.8,17.5,29.7,17,29.8,16.8z M29.2,16.5l0,0.3c0,0.1-0.1,0.1-0.1,0.1c-0.1,0-0.2-0.1-0.2-0.1
		c-0.1,0-0.2-0.1-0.2-0.1C28.8,16.6,29,16.5,29.2,16.5z M24.6,18.1c0.2-0.1,0.2-0.5,0.1-0.7c0-0.3,0-0.5,0.1-0.8l0-0.1
		c0.2-0.6,0.5-0.8,1-1.2c0.2,0.2,0.2,0.4,0.4,0.5c0.6,0.5,1.3,0.7,1.9,1.1c0.2,0.1,1,0.5,1.2,0.5c0.1,0.3,0.1,0.7,0.3,1
		c0.5,0.6,0.8,0.7,1.4,1c0.5,0.9,1.6,1.3,2.5,0.7c0.1-0.1,0.7-0.5,0.7-0.5c0.2,0.2,0.5,0.2,0.5,0.5c0.4,0.7,1,0.9,1.7,0.8
		c0,0.1,0,0.2,0,0.3c0,0.1,0,0.2-0.1,0.4c-0.2,1.1,0.2,3.2,1,4.1c0.5,0.5,0.8,0.6,1.5,0.8c-0.1,0.1,0.1,0.3-0.1,0.3
		c-1.6-0.2-2.4-1.5-2.5-1.6c-0.2-0.2-0.3-0.4-0.3-0.6c0.2-2.2-2.8-2.5-3.9-1c-0.2,0.2-1.1-0.1-1.3-0.2c-0.2-0.5-1.4-0.9-1.9-1.2
		c0-1.8-2.5-4.3-4.3-3.1c-0.1,0.2-0.3,0.4-0.4,0.6c0,0-0.8-0.4-1.1-0.5l-0.1-0.1C23.5,18.5,23.9,18.4,24.6,18.1L24.6,18.1z M29.7,24
		c0.5-0.1,1.1,0,1.6,0.2c0.2,0.1,0.4,0.6,0.7,0.3c0.1-0.1,0.2-0.2,0.3-0.4c0.5-0.6,1.9-1.1,2.5-0.5c0.1,0.1,0.3,0.3,0.3,0.4
		c0,0,0,0-0.1,0l0,0c-0.2-0.1-0.4,0-0.7,0.1c-2.4,0.7-1.3,3.5-5.4,1.9c-0.2-0.1-1.2-0.5-1.3-0.6C28.3,24.9,28.8,24.2,29.7,24
		L29.7,24z M27.7,24.7c-0.6,0.4-2.6-0.7-3.4-0.8c0.3-0.4,1.2-1,1.8-0.9c0.7,0.1,2-0.4,2.5-0.2c0.4,0.2,0.8,0.4,1.2,0.6
		C28.1,23.9,28.6,24.2,27.7,24.7L27.7,24.7z M24.1,21l-0.1,0c-0.6-0.1-1.1-0.4-1.7-0.4c-1.4-0.2-3.1,0-4.4,0.5
		c-0.6,0.2-1.2,0.6-1.8,0.9C16.6,20.8,23.3,17.9,24.1,21L24.1,21z M22.1,21.2c0.4,0,1.8,0.5,2,0.5l0,0.1c-1.5,2.7-4.7,2-7.3,1.9
		c-0.6,0-1.2,0-1.8,0C17.1,21.8,19.3,20.9,22.1,21.2L22.1,21.2z M9.3,30.4c0-1.1,0.8-2.2,1.4-3c0.8-1.1,2.5-2.5,3.8-3
		c2.8-1.1,7.8,1.9,10.1-2.3c0-0.4,0.3-0.8,0.2-1.2c-0.1-0.3-0.3-0.6-0.3-0.9c0.4,0,0.4-0.6,0.8-0.6c1.6-0.2,2.7,1.3,3.1,2.7
		c-0.6,0-1.2,0.3-1.8,0.3c-1.1,0-2.1,0.2-2.8,1.2c-0.1,0-0.6,0.6-0.6,0.7c-0.2,0.1,0,0.4,0.3,0.4c0.4-0.1,0.7-0.3,1.2-0.2
		c0.7,0.2,1.3,0.6,2,0.8c0,0.2,0.1,0.4,0.3,0.5c0.4,0.2,0.9,0.2,1.2,0.4c1.1,0.7,3.2,1.5,4.3,0.5c0.4-0.4,2.6-3,3.1-1.7l-0.1,0.2
		c-0.4,1.7-1.8,3.4-3.8,3.2c-2.5-0.3-3.5-2.7-6.6-1.3c-1.8,0.8-2.6,2.7-4.9,2.2c-0.4-0.1-0.8-0.2-1.1-0.5c0.6-1.5,1.1-2.7,2.6-3.5
		c0.3-0.2,0.9-0.5,1.3-0.4c0.1-0.1,0.1-0.2,0.1-0.3l-0.2-0.2c-0.7,0.1-1,0.3-1.6,0.5c-0.3,0.3-0.8,0.3-1.1,0.5
		c-0.1,0.1-0.7,0.3-0.8,0.3c-1,0-1.6-0.6-3-0.4c-0.4,0.1-1,0.2-1.4,0.4c-0.9,0.6-1.9,1-2.8,1.7C11.1,28.1,9.4,30.4,9.3,30.4
		L9.3,30.4z M12.2,32.5c-0.2,0-0.6,0-0.7-0.2c-0.2-0.3-0.2-0.6-0.2-1c0.2-0.1,0.2-0.3,0.4-0.4c0.1-0.1,0.2-0.2,0.3-0.3
		c0.1-0.1,0.1-0.2,0.3-0.3C12,30.7,12,31.2,12,31.6C12,31.9,12.1,32.2,12.2,32.5L12.2,32.5z M12.7,31.8c-0.3-2,1.2-1.7,1.5-1.9
		c0.3,0.3,0.4,0.6,0.7,0.8c-0.9-0.5-1.9,0.9-1.2,1c0.4,0.1,0.5-0.6,0.9-0.4c0.5,0.3-0.3,1.3-1,1.3C13.2,32.6,12.7,32.2,12.7,31.8
		L12.7,31.8z M13.9,29.1c-0.4,0.1-0.8,0.2-1.2,0.5c-0.1,0-0.1,0.1-0.1,0c0.2-0.3,0.4-0.5,0.6-0.7c0.2-0.1,0.3-0.3,0.5-0.5l0,0
		C13.9,28.7,13.9,28.9,13.9,29.1L13.9,29.1z M13.4,33.3c1.5,0.2,2.3-1.3,1.6-2.5c0.6,0.3,1.6,0.7,1.8,1.4
		C17.3,34.9,13.4,35.2,13.4,33.3z M17.1,37c-1,0.3-2.5-0.8-2.3-1.8c2.3,0.4,3.4-3.1,1.8-4.2c-0.5-0.4-1.3-0.5-1.7-1.1
		c-1.6-2,1.2-2.4,1.3-2.6c0-0.1,0-0.3-0.1-0.4c-0.6-0.5-3,1.5-3.5,1.9c-0.1,0.2-0.3,0.2-0.3,0.4c-0.9,0.7-1.5,2.4-2.9,2.4
		c1-2.2,5.5-6,8-5.6c0.7,0.1,1.4,0.4,2.1,0.4v0.1c-0.3,0.3-1,1.9-1,2.3c-0.5,0.4,0.7,0.9,0.9,1c0.1,0.2,0.3,0.4,0.5,0.5
		c-1.4,0.3-1.8-1.9-2.5-1c-0.3,0.3-0.2,0.6-0.3,1c0,0.3,0.3,0.8,0.5,1.1c0.4,0.4,0.6,0.9,0.9,1.4c0,1,0.6,0.9,0,2.5
		c0,0.1-0.2,0.3-0.2,0.4C17.9,36.1,17.6,36.9,17.1,37L17.1,37z M19.4,39.6c-0.5-0.5-1.7-1.6-1.5-2.5c0.1-0.2,0.6-0.8,0.7-1.2
		c0.4-1,0.6-1.8,0.3-2.9c-0.3-1.1-1.1-1.8-1.4-2.8c0.1-0.2,0-0.4,0.2-0.5l0.1-0.1c0.3,0.3,0.4,0.7,0.8,1c0.5,0.3,1.3,0.5,1.8,0.1
		c1,0.6,2.8,0.7,3.9,0.1h0c-0.2,1-0.3,1.4,0,2.4c-1.5,0.4-2.1,2.8-0.8,3.2c0.1,0.2,0.4,0.2,0.6,0.2c0,0.1-0.2,0.4-0.3,0.5
		c-0.4,0.7-0.4,2.1-1.5,2.2c-0.9,0-0.7-2.3-1.9-1.8c-1.3,0.5-0.2,2.1,0.9,2.2c0.1,0,0.2,0,0.3,0c0,0.6-0.7,1.2-1.2,0.8
		C19.8,40.5,19.8,40,19.4,39.6L19.4,39.6z M21.2,39.1c0,0-0.1,0-0.1,0c-0.3-0.2-0.4-0.4-0.6-0.7c0-0.2,0.1-0.2,0.3-0.3
		c0.2,0,0.2,0.4,0.3,0.6C21,38.7,21.1,38.9,21.2,39.1z M20.8,42.4c0,0.1-0.1,0.1-0.1,0.2c0,0.1,0,0.1-0.1,0.1c0,0-0.1-0.1-0.1-0.2
		c-0.1-0.4-0.1-0.9,0.1-1.2c0-0.1,0-0.1,0.1-0.2c0.3,0,0.7,0,1-0.1c0.2-0.1,0.4-0.3,0.5-0.6c0-0.1,0.1-0.1,0.1-0.2
		c0,0,0.1-0.1,0.1-0.1c0-0.1,0-0.2,0-0.3c0.4,0,0.8-0.1,1-0.4c0.4-0.4,0.7-0.9,0.8-1.4c0.1,0,0.1-0.1,0.1-0.2c0,0,0.1,0,0.1,0
		c0,0.1,0.1,0.2,0.1,0.3c0,0.4,0,0.7-0.2,1c-0.2,0.3-0.6,0.6-0.8,0.9c-0.2,0.2-0.4,0.3-0.6,0.4c-0.4,0.3-0.8,0.6-1.2,0.9
		C21.4,41.7,21,42.1,20.8,42.4L20.8,42.4z M21.9,43.3c-0.1,0.2-0.1,0.4-0.2,0.5c0,0.1,0,0.1-0.1,0.2c-0.1,0-0.2,0-0.3-0.1
		c0-0.1-0.1-0.1-0.1-0.2c-0.1-0.2-0.2-0.4-0.1-0.7c0.2-0.5,0.6-0.8,1-1.2c0.4-0.3,0.8-0.6,1.2-0.9c0.2,0,0.2-0.2,0.4-0.3
		c0.3-0.3,0.6-0.6,0.9-0.9c0.1-0.1,0.2-0.3,0.3-0.5c0.2,0,0.3,0.2,0.4,0.3c0.1,0.3,0.2,0.7,0,1.1c0,0-0.1,0.1-0.1,0.1
		c-0.3,0.4-0.8,0.5-1.3,0.8c-0.4,0.2-0.8,0.3-1.1,0.6C22.5,42.4,22,42.7,21.9,43.3L21.9,43.3z M22.3,45.4c0-0.1,0-0.2-0.1-0.3
		c0-0.3-0.1-0.5,0-0.8c0-0.2,0.1-0.4,0.2-0.6c0,0,0,0,0-0.1c0.1-0.1,0.1-0.2,0.1-0.3c0.4-0.5,1-1.1,1.6-1.4c0.4-0.1,0.7-0.3,1.1-0.5
		c0-0.1,0.2-0.1,0.2-0.2c0.1-0.1,0.2-0.2,0.3-0.3c0,0,0.1,0.1,0.1,0.2c0.1,0.4,0.2,0.7,0.3,1.1c0,0.2,0.2,0.5,0.1,0.7
		c0,0.2,0,0.4-0.2,0.6c-0.1,0.2-0.3,0.3-0.5,0.4c0,0.1-0.1,0.1-0.1,0.1c-0.8,0.5-1.5,1.3-1.9,2.1v0.1c0,0-0.1,0.1-0.1,0.1
		c-0.1,0.2-0.1,0.4-0.2,0.6c0,0,0,0-0.1,0c0,0,0,0,0,0c-0.1-0.1-0.1-0.2-0.1-0.4c-0.1-0.2,0-0.6-0.3-0.8
		C22.5,45.8,22.3,45.6,22.3,45.4L22.3,45.4z M33.4,53.8c-0.3,0-0.6,0.2-0.9,0.3c-0.2,0.2-0.6,0.2-0.8,0.4c-0.4,0.1-0.7,0.4-1,0.6
		c-0.3,0.1-0.5,0.3-0.8,0.4c0,0,0,0-0.1,0c-0.3,0.1-0.5,0.3-0.8,0.4C29,55.9,28.9,56,28.8,56c-0.1,0-0.2,0.1-0.3,0.1
		c-0.1,0-0.2,0-0.3,0.1c-0.3,0-0.5,0.1-0.8,0.2c-0.1,0-0.2,0.1-0.1,0.2c0,0,0,0,0.1,0c0.2,0.1,0.4,0.2,0.6,0.1
		c0.4-0.1,0.9-0.1,1.2-0.3c0.5-0.3,1-0.5,1.6-0.8c0.1,0,0.2-0.1,0.3-0.1c0.1-0.1,0.2-0.1,0.2-0.2c0.5-0.4,1.2-0.6,1.8-0.9
		c0.1,0,0.2-0.1,0.4-0.1c0,0-0.1,0.1,0,0.1c-0.1,0.1-0.1,0.3-0.1,0.4V55c-0.3,0.1-0.6,0.2-0.9,0.3c-0.3,0.1-0.6,0.3-0.9,0.4
		c0,0.1-0.2,0.1-0.2,0.1c-0.5,0.2-0.8,0.5-1.2,0.7c0,0.1-0.1,0.1-0.2,0.1c-0.2,0.1-0.4,0.2-0.5,0.3c-0.3,0.2-0.5,0.2-0.8,0.3
		c-0.7,0.2-1.4,0.2-2.2,0.1c-0.3,0-0.6-0.2-0.9-0.3c-0.4-0.3-0.8-0.5-1-0.9c-0.1-0.1-0.2-0.3-0.3-0.4c0-0.1-0.1-0.1-0.1-0.2
		c-0.3-0.3-0.3-0.7-0.4-1c0-0.4-0.2-0.9,0-1.3c0-0.2,0-0.5,0.1-0.8c0.1-0.3,0.1-0.7,0.2-1c0,0,0-0.1,0-0.1c0-0.2,0.1-0.3,0.1-0.4
		c0-0.1,0-0.2,0.1-0.2c0,0,0,0,0,0c0.1,0.1,0.2,0.2,0.4,0.2c0.1,0,0.2-0.2,0.2-0.3c0,0,0-0.1,0-0.1c0-0.1,0-0.2-0.1-0.2
		c-0.1-0.5-0.7-0.9-1.2-1.1c-0.5-0.2-0.9-0.7-0.9-1.3c0-0.1,0-0.2,0-0.3c0,0,0.1,0,0.1,0c0,0.2,0.2,0.5,0.4,0.7
		c0.2,0.1,0.2,0.3,0.4,0.3c0.3,0.3,0.8,0.4,1,0.8c0.2,0.2,0.3,0.4,0.4,0.7c0.1,0.3,0.1,0.6,0.1,0.9c0,0.3,0.1,0.7,0,1
		c0,0.1,0,0.1,0,0.2c-0.1,0,0,0.1,0,0.2c0,0.2,0,0.4,0,0.6c0.1,0.6-0.2,1.3,0.1,1.8c0,0.1,0.1,0.2,0.1,0.4c0.1,0.2,0.1,0.4,0.3,0.5
		c0,0.1,0,0.2,0.1,0.1c0.1,0.1,0.1,0.2,0.2,0.2c0.2,0,0.5,0.1,0.8,0.1c0.9-0.2,1.7-0.7,2.6-1c0.6-0.4,1.2-0.8,1.9-1
		c0.5-0.3,1.1-0.5,1.6-0.7c0.3-0.1,0.6-0.1,0.9-0.2c0.3,0,0.7-0.1,1,0.1c0.2,0,0.3,0.1,0.5,0.2c0,0.2,0,0.5,0.1,0.6
		C34.4,54,34,53.6,33.4,53.8L33.4,53.8z M34.5,55.8c-0.1-0.1-0.3-0.2-0.3-0.3c-0.2-0.2-0.3-0.5-0.3-0.8c0.4-0.3,1-0.3,1.5-0.2
		c0.1,0.1,0.1,0.3,0.3,0.5c0,0.1,0.1,0.1,0.1,0.2c0.2,0.2,0.4,0.4,0.6,0.6C35.7,56.1,35,56.1,34.5,55.8L34.5,55.8z M38.9,55.3
		c-0.1,0.1-0.1,0.2-0.1,0.3c-0.2,0.2-0.4,0.3-0.6,0.3c-0.8,0-1.4-0.4-2-0.9c-0.3-0.3-0.4-0.5-0.6-0.9c-0.1-0.2-0.2-0.5-0.1-0.7
		c0.3-0.1,0.6-0.1,0.9,0.1c0.1,0,0.1,0.1,0.1,0c0.5,0.2,0.8,0.9,1.3,1.1c0,0.1,0.1,0.1,0.2,0.1c0.3,0.2,0.6,0.3,1,0.4
		C39,55.2,38.9,55.2,38.9,55.3L38.9,55.3z M48.8,49.1c-0.2,0.3-0.3,0.7-0.5,1c0,0.3-0.2,0.5-0.1,0.9c0.1,0.7-0.1,1.3-0.1,2
		c-0.1,0.5-0.2,1-0.3,1.4c-0.2,0.4-0.2,0.7-0.5,1c-0.1,0.4-0.4,0.7-0.7,1c-0.2,0.2-0.4,0.2-0.6,0.4c-0.5,0.2-1.2,0.4-1.8,0.3
		c-0.5,0-1-0.2-1.6-0.2c-0.4-0.2-0.9-0.3-1.3-0.5c-0.3-0.2-0.6-0.4-0.8-0.6c-0.4-0.3-0.7-0.7-1.2-0.9c-0.4-0.3-0.7-0.5-1.1-0.7
		c-0.1,0-0.1-0.1-0.1-0.1c0,0,0.1,0,0.2,0c0.1-0.1,0.3,0.1,0.4,0c0,0.1,0.1,0,0.1,0.1c0.3,0.1,0.6,0.2,0.9,0.4
		c0.1,0,0.1,0.1,0.2,0.2c0.1,0.2,0.3,0.3,0.5,0.4c0.2,0.2,0.4,0.3,0.7,0.5c0.2,0.2,0.5,0.3,0.8,0.5c0.2,0,0.3,0.2,0.5,0.2
		c0.7,0.3,1.6,0.5,2.4,0.5c0.2,0,0.5,0,0.7-0.1c0.2-0.2,0.5-0.3,0.5-0.6c-0.2-0.2-0.4,0.1-0.6,0c-0.6,0.1-1.2,0-1.8-0.1
		c-0.2,0-0.4-0.1-0.7-0.2c-0.2-0.1-0.4-0.2-0.7-0.3c-0.4-0.2-0.7-0.4-1.1-0.7c-0.3-0.2-0.5-0.3-0.8-0.5c-0.2-0.2-0.4-0.4-0.7-0.5
		c-0.5-0.3-1-0.4-1.5-0.4c-0.3,0-0.5,0-0.7,0.1c-0.1,0-0.2-0.1-0.3-0.2c0,0,0,0,0-0.1c0.2-0.1,0.5-0.2,0.7-0.2
		c0.2-0.1,0.5-0.1,0.7-0.2c0.6-0.1,1.1,0.1,1.6,0.3c0.6,0.2,1.2,0.5,1.8,0.8c0.9,0.4,1.7,1.1,2.7,1.2c0,0,0,0,0,0.1
		c0.1,0,0.1,0,0.2,0c0.1,0,0.2,0.1,0.3,0c0.1,0,0.2,0,0.3-0.1c0.2,0,0.4,0,0.5-0.2c0.1-0.3,0.3-0.5,0.4-0.8c0.1-0.1,0-0.3,0.2-0.4
		c0.2-0.7,0.2-1.5,0.3-2.2c0-0.1,0-0.3,0-0.4c0-0.2,0-0.3,0-0.5c0.1-0.1,0.1-0.3,0.1-0.4c0.1-0.5,0.3-0.9,0.5-1.3
		c0.1-0.3,0.2-0.7,0.3-1.1c0-0.1,0-0.1,0.1-0.2c0.1-0.2,0.2-0.4,0.4-0.5c0.3-0.2,0.5-0.4,0.7-0.7c0,0.1,0.1,0.2,0.1,0.2
		C49.7,47.6,49.3,48.4,48.8,49.1L48.8,49.1z M49.4,45.5c-0.1,0.2-0.3,0.4-0.4,0.6c-0.2,0.1-0.3,0.2-0.5,0.4c0-0.1,0-0.1,0-0.2
		c0-0.2-0.1-0.4-0.2-0.7c-0.2-0.6-0.6-1.1-1-1.5c-0.5-0.5-1-1.1-1.3-1.8c-0.2-0.3-0.2-0.6-0.3-0.9c0.1-0.6,0.3-1.3,0.4-1.9
		c0-0.3,0.1-0.6,0.1-0.8c0,0,0,0,0,0c0,0,0,0,0-0.1l0,0v0.1c0,0.2,0.1,0.4,0.1,0.6c0.1,0.2,0,0.3,0.1,0.5c0,0.2,0.1,0.3,0.1,0.5
		c0.1,0.4,0.4,0.7,0.7,1c0.2,0.2,0.4,0.4,0.6,0.5c0.4,0.4,0.8,0.8,1.2,1.3c0.2,0.3,0.4,0.6,0.6,0.9C49.9,44.4,49.8,45.1,49.4,45.5
		L49.4,45.5z M49.4,37.9c0,0.1,0.1,0.3-0.1,0.3c-0.5,0-1.1-0.5-1.5-0.8c-0.3,0.2-0.6,1-0.6,1.3c0,0.3-0.1,0.6-0.1,0.9
		c0,0,0,0.1,0,0.1c-0.6-0.9,0.1-3-0.5-3.8c0.4-0.9,0.6-0.6,0.9-1c1.1,0,1.7,0.5,2.2,1.4c-0.2,0.2-0.2,0.5-0.5,0.6
		C49.3,37.3,49.3,37.7,49.4,37.9L49.4,37.9z M50.1,43.5C50.1,43.4,50.1,43.4,50.1,43.5c-0.3-0.6-1.4-1.7-1.9-2.3
		c0-0.3-0.6-1.2-0.4-1.4C48.7,40.8,50.5,41.9,50.1,43.5z M50.1,41.4c-0.3-0.7-1.5-1.2-2-2.3c0-0.2-0.1-0.3,0-0.5
		c0.1-0.2-0.2-0.2-0.1-0.3c0.4,0.1,0.6,0.4,1,0.5c0.3,0.1,0.5,0,0.8,0.1c0.3-0.2,0.1-0.6,0.2-0.9c1.3,0.2,1,2,1.2,2.9
		c0.1,0.4,0.4,0.7,0.5,1.1C51.3,42,50.3,41.9,50.1,41.4L50.1,41.4z M53.6,37.4c-0.1,0.8-0.6,1.4-0.8,2.2c-0.1,0.8-0.8,1.3-0.4,2.2
		c-0.7-0.1-0.7-2.1-0.8-2.6c-0.1-0.3-0.2-0.6-0.4-0.9c-0.1-0.2-0.7-0.6-0.9-0.7c-0.2-0.1-0.4,0-0.5-0.2c0.1-0.3,0.3-0.5,0.4-0.7
		c0.4-0.9-0.3-1.2,0.8-1.9C52.5,34.3,53.9,35.9,53.6,37.4L53.6,37.4z M51,34.2c-0.2,0.2-0.4,0.2-0.6,0.4c-0.1,0.1-0.2,0.3-0.3,0.4
		c0,0.1,0,0.1-0.1,0.2l-0.1,0.1l-0.1,0.2c-0.1,0-0.3-0.1-0.3-0.2c-0.2-0.4-1.7-0.8-2.1-0.7c-0.3,0.1-0.7,0.6-1,0.7l-0.1,0l0-0.1
		l0,0.1c-0.1-0.9-0.2-3-0.4-3.7c0.1-0.1,0.1-0.1,0.1-0.2c0.1,0,0.2,0.2,0.4,0.2c0.8,0.5,2.3,0.3,2.8-0.6c0.1,0,0.3,0.1,0.3,0.2
		c0.4,0.2,0.5,0.7,0.7,1.1c0,0.2,0.1,0.3,0.1,0.5l0.2,0.1c0.3-0.1,0.3-0.5,0.5-0.7c0.1-0.7,0.1-1-0.1-1.6c0.4,0,1.1,0.5,1.1,0.9
		c0,0.7,0.7,2.7,1.4,2.8c0.1,0.1,0.2,0,0.3,0.2c0.2,0.1,0.4,0.1,0.6,0.1c0.2-0.1,0.3,0,0.5-0.1C53.8,36,52.3,33.5,51,34.2L51,34.2z
		 M57.7,32.1c-0.4,0.1-0.6-0.6-1-0.7c-0.2,0-0.8,0.2-0.8,0.4c-0.1,0.4,0,1.1-0.3,1.4c-0.9,1-2.2,0.7-2.7-0.5
		c-0.2-0.5-0.3-0.6-0.3-1.1c1,0.2,1.1,0.4,2.1-0.2c0.8-0.5,2.1-2,3.1-1.4c0.2,0,0.5,0.8,0.6,0.9C58.2,31.4,58.4,32,57.7,32.1z
		 M62.2,32.7c-0.8-0.1-0.5-0.4-1.4-0.3l-0.2,0c-1.2,0-3-3.6-3.5-4.5c-0.4-0.8-1.5-1.1-1.8-1.4c0.2-0.1,1.2-0.8,1.1-0.9
		c-1.1-0.7-1.1-1.1-1.9-1.8c1.6,0.3,3.4,2.8,4.1,4.2c0.3,0.6,1,1.3,1.3,1.9c0.4,0.3,0.8,0.9,1.2,1.2c0.5,0.3,0.9,0.7,1.4,1.1
		C62.8,32.3,62.5,32.7,62.2,32.7L62.2,32.7z M62.8,31.7c-0.1,0-0.9-0.8-1.1-0.9c-0.1-0.1-0.3-0.1-0.3-0.2c-0.1,0-0.2-0.1-0.3-0.2
		c-0.1-0.2-0.3-0.2-0.4-0.4c-0.6-0.4-0.8-1.1-1.3-1.5c0-0.1-0.7-1.1-0.7-1.2c0-0.2-0.3-0.3-0.3-0.5c-0.2-0.2-0.2-0.6-0.5-0.7
		c-1-1.3-1.9-2.3-3.5-2.7c-0.4-0.1-0.8-0.2-1.2-0.4c-0.9-0.3-1.6-0.4-2.5-0.4c-1.4,0-3-0.5-4.2-0.4c-0.8,0.1-2.8,0.9-3.1,0.8
		c-0.2,0.1-0.4-0.1-0.6-0.2c-1-0.4-5.1,0.3-5.3-0.8c0.2,0.1,0.4,0.1,0.7,0.1c1.4,0,2.7-1.1,4.1-1.4c1.2-0.2,1.9,0.9,3.7-0.2
		c4.2,3.9,8.6-0.3,14.7,6.3c1.3,1.4,2.1,2.9,2.2,4.8L62.8,31.7L62.8,31.7z"/>
</g>
</svg>
