<?xml version="1.0" encoding="utf-8"?>
<!-- Generator: Adobe Illustrator 28.1.0, SVG Export Plug-In . SVG Version: 6.00 Build 0)  -->
<svg version="1.1" id="Layer_1" xmlns="http://www.w3.org/2000/svg" xmlns:xlink="http://www.w3.org/1999/xlink" x="0px" y="0px"
	 viewBox="0 0 360 180" style="enable-background:new 0 0 360 180;" xml:space="preserve">
<g>
	<path d="M184.9,73.2c-0.2,13,11.5,20.2,20.4,24.5c9.1,4.4,12.1,7.2,12.1,11.2c-0.1,6-7.2,8.7-13.9,8.8c-11.7,0.2-18.5-3.2-23.9-5.7
		l-4.2,19.7c5.4,2.5,15.5,4.7,25.9,4.8c24.4,0,40.4-12.1,40.5-30.8c0.1-23.7-32.8-25.1-32.6-35.7c0.1-3.2,3.1-6.6,9.9-7.5
		c3.3-0.4,12.5-0.8,22.9,4l4.1-19.1c-5.6-2-12.8-4-21.8-4C201.3,43.5,185.1,55.7,184.9,73.2 M285.3,45.1c-4.5,0-8.2,2.6-9.9,6.6
		l-34.9,83.4H265l4.9-13.4h29.8l2.8,13.4H324l-18.8-90H285.3 M288.8,69.4l7.1,33.8h-19.3L288.8,69.4 M155.3,45.1l-19.3,90h23.3
		l19.2-90H155.3 M120.9,45.1l-24.2,61.2l-9.8-52.1c-1.1-5.8-5.7-9.2-10.7-9.2H36.6L36,47.8c8.1,1.8,17.4,4.6,23,7.7
		c3.4,1.9,4.4,3.5,5.5,7.9L83,135.1h24.6l37.7-90H120.9"/>
</g>
</svg>
