<?xml version="1.0" encoding="utf-8"?>
<!-- Generator: Adobe Illustrator 28.1.0, SVG Export Plug-In . SVG Version: 6.00 Build 0)  -->
<svg version="1.1" id="master-artboard" xmlns="http://www.w3.org/2000/svg" xmlns:xlink="http://www.w3.org/1999/xlink" x="0px"
	 y="0px" viewBox="0 0 72 72" style="enable-background:new 0 0 72 72;" xml:space="preserve">
<g transform="matrix(10.188387870788574, 0, 0, 10.188387870788574, -251.519936680809, -252.79260253906244)">
	<g>
		<path d="M28.2,30.9c-1.4,0-2.6-1.2-2.6-2.6c0-0.3,0.1-0.6,0.2-0.9l1.5,3c0,0,0,0.1,0.1,0.1c0,0,0.1,0,0.1-0.1l0.7-1.5c0,0,0,0,0,0
			s0,0,0,0l0.7,1.5c0,0,0,0.1,0.1,0.1c0,0,0.1,0,0.1-0.1l1.5-3c0.1,0.3,0.2,0.6,0.2,0.9C30.8,29.8,29.6,30.9,28.2,30.9z M28.2,27.8
			C28.2,27.8,28.2,27.7,28.2,27.8l-0.8-1.8c0.3-0.1,0.5-0.1,0.8-0.1s0.6,0.1,0.8,0.1L28.2,27.8C28.2,27.8,28.2,27.8,28.2,27.8z
			 M27.4,29.6C27.4,29.6,27.4,29.6,27.4,29.6L26.1,27c0.2-0.4,0.5-0.7,0.9-0.9l0.9,2.1c0,0,0,0,0.1,0h0.5c0,0,0.1,0,0.1,0l0.9-2.1
			c0.4,0.2,0.7,0.5,0.9,0.9l-1.3,2.6c0,0,0,0,0,0s0,0,0,0l-0.5-1.1c0,0,0,0-0.1,0H28c0,0-0.1,0-0.1,0L27.4,29.6
			C27.4,29.6,27.4,29.6,27.4,29.6z M28.2,31.2c1.6,0,2.8-1.3,2.8-2.8c0-1.6-1.3-2.8-2.8-2.8c-1.6,0-2.8,1.3-2.8,2.8
			C25.4,29.9,26.7,31.2,28.2,31.2z"/>
	</g>
</g>
</svg>
