<?xml version="1.0" encoding="utf-8"?>
<!-- Generator: Adobe Illustrator 28.1.0, SVG Export Plug-In . SVG Version: 6.00 Build 0)  -->
<svg version="1.1" id="Layer_1" xmlns="http://www.w3.org/2000/svg" xmlns:xlink="http://www.w3.org/1999/xlink" x="0px" y="0px"
	 viewBox="0 0 72 72" style="enable-background:new 0 0 72 72;" xml:space="preserve">
<g>
	<path d="M34.1,26.6c1.3,0,2.5-0.7,2.6-1.6L38,9.9c0-1.5-1.7-2.7-3.9-2.7c-2.2,0-3.9,1.2-3.9,2.7L31.5,25
		C31.6,25.9,32.8,26.6,34.1,26.6L34.1,26.6 M25.9,31.3c0.7-1.2,0.6-2.5-0.1-3.1l-12.4-8.7c-1.3-0.7-3.2,0.2-4.3,2.1
		c-1.1,1.9-0.9,4,0.4,4.8l13.7,6.4C24.1,33.1,25.3,32.4,25.9,31.3L25.9,31.3 M42.2,31.3c0.7,1.2,1.8,1.8,2.7,1.5l13.7-6.4
		c1.3-0.7,1.5-2.9,0.4-4.8c-1.1-1.9-3-2.8-4.3-2.1l-12.4,8.7C41.6,28.8,41.6,30.1,42.2,31.3L42.2,31.3 M34.1,45.4
		c1.3,0,2.5,0.7,2.6,1.6L38,62.1c0,1.5-1.7,2.7-3.9,2.7c-2.2,0-3.9-1.2-3.9-2.7L31.5,47C31.6,46.1,32.8,45.4,34.1,45.4L34.1,45.4
		 M42.2,40.7c0.7-1.2,1.8-1.8,2.7-1.5l13.7,6.4c1.3,0.7,1.5,2.9,0.4,4.8c-1.1,1.9-3,2.8-4.3,2.1l-12.4-8.7
		C41.6,43.2,41.6,41.9,42.2,40.7L42.2,40.7 M25.9,40.7c0.7,1.2,0.6,2.5-0.1,3.1l-12.4,8.7c-1.3,0.7-3.2-0.2-4.3-2.1
		c-1.1-1.9-0.9-4,0.4-4.8l13.7-6.4C24.1,38.9,25.3,39.5,25.9,40.7L25.9,40.7"/>
	<path d="M62.1,51.5h0.1c0.1,0,0.2-0.1,0.2-0.1c0-0.1-0.1-0.1-0.2-0.1c0,0-0.1,0-0.1,0L62.1,51.5L62.1,51.5L62.1,51.5z M62.1,52.2
		h-0.4V51c0.1,0,0.3,0,0.5,0c0.3,0,0.4,0,0.5,0.1c0.1,0.1,0.1,0.1,0.1,0.3c0,0.1-0.1,0.2-0.3,0.3v0c0.1,0,0.2,0.1,0.2,0.3
		c0,0.2,0.1,0.2,0.1,0.3h-0.4c0,0-0.1-0.1-0.1-0.3c0-0.1-0.1-0.2-0.2-0.2h-0.1L62.1,52.2L62.1,52.2z M62.2,50.6
		c-0.5,0-0.9,0.4-0.9,1c0,0.5,0.4,1,0.9,1c0.5,0,0.9-0.4,0.9-1C63.2,51,62.8,50.6,62.2,50.6L62.2,50.6L62.2,50.6z M62.3,50.3
		c0.7,0,1.3,0.6,1.3,1.3c0,0.7-0.6,1.3-1.3,1.3s-1.3-0.6-1.3-1.3C60.9,50.9,61.5,50.3,62.3,50.3L62.3,50.3"/>
</g>
</svg>
