<?xml version="1.0" encoding="utf-8"?>
<!-- Generator: Adobe Illustrator 28.1.0, SVG Export Plug-In . SVG Version: 6.00 Build 0)  -->
<svg version="1.1" id="Layer_1" xmlns="http://www.w3.org/2000/svg" xmlns:xlink="http://www.w3.org/1999/xlink" x="0px" y="0px"
	 viewBox="0 0 72 72" style="enable-background:new 0 0 72 72;" xml:space="preserve">
<g>
	<path d="M47.2,27.5c-5.3,0.3-10,1.9-13.8,5.6c-3.8,3.7-5.6,8.2-5.1,13.9c-2.1-0.3-4-0.5-5.9-0.7c-0.7-0.1-1.4,0-2,0.3
		c-1.9,1-3.6,2.2-5.8,3.6c0.4-1.8,0.6-3.3,1.1-4.8c0.3-1.1,0.2-1.7-0.8-2.4c-6.4-4.5-9.1-11.3-7.1-18.3c1.9-6.5,6.5-10.4,12.7-12.4
		c8.5-2.8,18.1,0.1,23.3,6.8C45.8,21.5,46.9,24.3,47.2,27.5L47.2,27.5z M22.6,25.3c0.1-1.3-1.1-2.4-2.4-2.5c-1.3,0-2.5,1-2.5,2.3
		c0,1.3,1,2.4,2.3,2.5C21.4,27.7,22.6,26.6,22.6,25.3L22.6,25.3z M35.4,22.9c-1.3,0-2.4,1.1-2.4,2.4c0,1.3,1.1,2.4,2.5,2.4
		c1.4,0,2.4-1.1,2.4-2.4C37.9,23.9,36.8,22.8,35.4,22.9z"/>
	<path d="M59.2,60.8c-1.7-0.8-3.2-1.9-4.9-2.1c-1.6-0.2-3.4,0.8-5.1,1c-5.2,0.5-10-0.9-13.8-4.5c-7.4-6.8-6.3-17.3,2.2-22.9
		c7.6-5,18.7-3.3,24.1,3.6c4.7,6,4.1,14-1.6,19.1c-1.6,1.5-2.2,2.7-1.2,4.6C59.1,59.9,59.1,60.4,59.2,60.8L59.2,60.8z M40,42.2
		c1.1,0,2-0.8,2-1.9c0-1.1-0.9-2.1-2-2.1c-1.1,0-2.1,1-2,2.1C38,41.3,38.9,42.2,40,42.2L40,42.2z M52.4,38.2c-1,0-1.9,0.8-2,1.9
		c0,1.1,0.8,2.1,2,2.1c1.1,0,1.9-0.8,2-1.9C54.4,39.1,53.5,38.2,52.4,38.2z"/>
</g>
</svg>
