<?xml version="1.0" encoding="utf-8"?>
<!-- Generator: Adobe Illustrator 28.1.0, SVG Export Plug-In . SVG Version: 6.00 Build 0)  -->
<svg version="1.1" id="katman_1" xmlns="http://www.w3.org/2000/svg" xmlns:xlink="http://www.w3.org/1999/xlink" x="0px" y="0px"
	 viewBox="0 0 360 180" style="enable-background:new 0 0 360 180;" xml:space="preserve">
<g>
	<polygon points="85,66 72.8,66 60.9,82.3 48.8,66 36.7,66 54.7,89.7 36,113.4 48.2,113.4 60.9,96.4 73.4,113.4 85.6,113.4 67,88.8 
			"/>
	<rect x="96.1" y="66.3" width="10" height="47.4"/>
	<rect x="314" y="66.3" width="10" height="47.4"/>
	<path d="M281,65.7h-1.2c-6.3,0-10.9,2-13.7,6c-2.9-4-7.5-6-13.7-6h-1.2c-6,0-10.4,1.5-13.2,4.5c-2.9,2.9-4.3,7.7-4.4,14.2v29.3h8.6
		V86.6c0-4.2,0.7-7.2,2.3-8.9c1.5-1.7,4-2.6,7.4-2.6c3.5,0,6.2,0.9,7.7,2.7c1.5,1.9,2.3,5,2.3,9.3v26.6h8.5V87.1
		c0-4.3,0.8-7.4,2.3-9.2c1.5-1.9,4.1-2.8,7.6-2.8c3.5,0,6,0.9,7.4,2.6c1.5,1.7,2.3,4.7,2.3,8.9v27.1h8.6V84.4
		c0-6.5-1.5-11.2-4.3-14.2C291.5,67.2,287,65.7,281,65.7z"/>
	<path d="M199.5,65.7h-1.6c-7.5,0-12.9,1.9-16.4,5.6c-3.4,3.7-5.1,9.7-5.1,17.7v1.9c0,8,1.7,14,5.1,17.7c3.5,3.7,9,5.6,16.4,5.6h1.6
		c7.5,0,12.9-1.9,16.4-5.6c3.4-3.7,5.1-9.7,5.1-17.7v-1.9c0-8.1-1.7-14-5.1-17.7C212.4,67.6,206.9,65.7,199.5,65.7z M208.8,101.7
		c-1.8,2.1-5.2,3.1-10.1,3.1c-5,0-8.3-1-10.1-3.1c-1.8-2.1-2.7-6.1-2.7-11.9s0.9-9.7,2.7-11.8c1.8-2.1,5.2-3.1,10.1-3.1
		c5,0,8.3,1,10.1,3.1c1.8,2.1,2.7,6,2.7,11.9C211.5,95.7,210.6,99.6,208.8,101.7z"/>
	<path d="M140.1,66.3c-5.6,0-10.9,0.4-14.7,1.4v7.8c3.3-0.9,9.2-1.5,15.5-1.5c7.7,0,12.5,1.1,12.5,7.4v4.5h-12.1
		c-13.1,0-21.6,3.5-21.6,14.5c0,9.7,7.2,13.9,22.5,13.9c16.1,0,22.4-4.8,22.4-13.9V81.2C164.7,69.6,155.2,66.3,140.1,66.3z
		 M153.5,99.8c0,5.9-4.8,6.8-11.3,6.8c-6,0-11.1-0.7-11.1-6.6c0-4.8,3.1-6.7,10.3-6.7h12.1V99.8z"/>
</g>
</svg>
