<?xml version="1.0" encoding="utf-8"?>
<!-- Generator: Adobe Illustrator 28.1.0, SVG Export Plug-In . SVG Version: 6.00 Build 0)  -->
<svg version="1.1"
	 id="svg65" xmlns:svg="http://www.w3.org/2000/svg" xmlns:sodipodi="http://sodipodi.sourceforge.net/DTD/sodipodi-0.dtd" xmlns:inkscape="http://www.inkscape.org/namespaces/inkscape" xmlns:cc="http://creativecommons.org/ns#" xmlns:dc="http://purl.org/dc/elements/1.1/" xmlns:rdf="http://www.w3.org/1999/02/22-rdf-syntax-ns#" xmlns:ns3="http://ns.adobe.com/AdobeIllustrator/10.0/"
	 xmlns="http://www.w3.org/2000/svg" xmlns:xlink="http://www.w3.org/1999/xlink" x="0px" y="0px" viewBox="0 0 72 72"
	 style="enable-background:new 0 0 72 72;" xml:space="preserve">
<sodipodi:namedview  bordercolor="#666666" borderopacity="1.0" id="base" inkscape:current-layer="layer1" inkscape:cx="621.89049" inkscape:cy="230.31055" inkscape:document-units="mm" inkscape:pageopacity="0.0" inkscape:pageshadow="2" inkscape:window-height="1027" inkscape:window-maximized="1" inkscape:window-width="1920" inkscape:window-x="-8" inkscape:window-y="-8" inkscape:zoom="0.49497475" pagecolor="#ffffff" showgrid="false">
	</sodipodi:namedview>
<g id="layer1" transform="translate(0,-235.576)" inkscape:groupmode="layer" inkscape:label="‚Äû√â¬®‚Äû√á¬ß‚Äû√â¬ß‚Äû√â¬∫ 1">
	<g id="g27" ns3:extraneous="self">
		<g id="レイヤー_1" ns3:dimmedPercent="50" ns3:layer="yes" ns3:rgbTrio="#4F008000FFFF">
			<g id="g24">
				<g id="g8">
					<path id="path4" inkscape:connector-curvature="0" ns3:knockout="Off" d="M36,242.8c-15.9,0-28.8,12.9-28.8,28.8
						c0,15.9,12.9,28.8,28.8,28.8c15.9,0,28.8-12.9,28.8-28.8C64.8,255.7,51.9,242.8,36,242.8z M36,297.1
						c-14.1,0-25.6-11.4-25.6-25.5c0-14.1,11.4-25.6,25.6-25.6s25.6,11.4,25.6,25.6C61.5,285.7,50.1,297.1,36,297.1z"/>
					<path id="path6" inkscape:connector-curvature="0" ns3:knockout="Off" d="M56.9,283.2l-4.2-4.9c-0.1-0.1-0.1-0.1-0.2-0.2
						c-0.2-0.1-0.5-0.1-0.7,0l0,0c-0.6,0.3-1.4,0.3-2.1-0.1c-0.6-0.3-1-0.9-1.1-1.5l0,0c-0.3-1.6-1.2-3-2.7-3.9l-1.9-1.1l10.6-6.1
						l-1.3-2.3l-12,6.9l-1.4-0.8v-1.7l12-6.9l-1.3-2.3l-10.6,6.1v-2.2c0-1.7-0.8-3.3-2-4.3l0,0c-0.5-0.4-0.8-1-0.8-1.7
						c0-0.8,0.4-1.4,1-1.8c0.2-0.1,0.3-0.3,0.3-0.6c0-0.1,0-0.2,0-0.2l-2.1-6.1c-0.1-0.2-0.2-0.3-0.4-0.3c-0.2,0-0.4,0.1-0.4,0.3
						l-2.1,6.1c0,0.1,0,0.2,0,0.2c0,0.2,0.1,0.5,0.3,0.6l0,0c0.6,0.4,1,1.1,1,1.8c0,0.7-0.3,1.3-0.8,1.7c-1.2,1-2,2.6-2,4.3v2.2
						l-10.6-6.1l-1.3,2.3l12,6.9v1.7l-1.4,0.8l-12-6.9l-1.3,2.3l10.6,6.1l-1.9,1.1c-1.5,0.9-2.4,2.3-2.7,3.9l0,0
						c-0.1,0.6-0.5,1.2-1.1,1.5c-0.7,0.4-1.4,0.4-2.1,0.1l0,0c-0.2-0.1-0.5-0.1-0.7,0c-0.1,0-0.1,0.1-0.2,0.2l-4.2,4.9
						c-0.1,0.1-0.1,0.3-0.1,0.5c0.1,0.2,0.3,0.2,0.5,0.2l6.3-1.2c0.1,0,0.2,0,0.2-0.1c0.2-0.1,0.3-0.3,0.4-0.6
						c0.1-0.7,0.4-1.4,1.1-1.7c0.6-0.3,1.3-0.4,1.9-0.2c1.5,0.5,3.2,0.4,4.7-0.4l1.9-1.1v12.3h2.6v-13.8l1.4-0.8l1.4,0.8v13.8h2.6
						v-12.3l1.9,1.1c1.5,0.9,3.2,1,4.7,0.4c0.6-0.2,1.3-0.2,1.9,0.2c0.7,0.4,1,1,1.1,1.7c0,0.2,0.1,0.4,0.4,0.6
						c0.1,0,0.1,0.1,0.2,0.1l6.3,1.2c0.2,0,0.4,0,0.5-0.2C57.1,283.5,57.1,283.3,56.9,283.2L56.9,283.2z M31.9,275.6l-3.5,2
						c-0.7,0.4-1.6,0.2-2-0.5c-0.4-0.7-0.2-1.6,0.5-2l3.5-2l1.4,0.8V275.6L31.9,275.6z M34.6,262c0-0.8,0.6-1.4,1.4-1.4
						c0.8,0,1.4,0.6,1.4,1.4v4.1l-1.4,0.8l-1.4-0.8V262z M37.7,272.5l-1.7,1l-1.7-1v-1.9l1.7-1l1.7,1V272.5z M45.5,277.1
						c-0.4,0.7-1.3,0.9-2,0.5l-3.5-2v-1.7l1.4-0.8l3.5,2C45.7,275.5,45.9,276.4,45.5,277.1z"/>
				</g>
			</g>
		</g>
	</g>
</g>
</svg>
