<?xml version="1.0" encoding="utf-8"?>
<!-- Generator: Adobe Illustrator 28.1.0, SVG Export Plug-In . SVG Version: 6.00 Build 0)  -->
<svg version="1.1" id="Ebene_1" xmlns="http://www.w3.org/2000/svg" xmlns:xlink="http://www.w3.org/1999/xlink" x="0px" y="0px"
	 viewBox="0 0 750.82 365.99" style="enable-background:new 0 0 750.82 365.99;" xml:space="preserve">
<g>
	<path d="M412.13,359.75c-1.08-0.32-2.27-1.51-1.94-2.81l27.43-120.53h-14.36c-0.43,0.11,1.51,6.69,0.86,9.61l-4.43,18.79
		l-55.83,0.11l0.97,62.42l-0.43,1.4l-0.54-0.54l-47.09-63.29h-12.31c1.08,2.38,3.24,4.75,4.64,7.02l-1.73,61.24l-1.4,5.72l6.37,0.11
		v-62.1l0.43-0.43l50.87,64.37l3.13,3.13l3.13-74.3l1.19-1.19c4.43-0.43,9.4-1.08,14.04-0.11l1.19,63.72l-1.19,6.37
		c2.92,0.54,6.7,0.54,9.72,0l-0.43-2.7c0-22.57,0.54-44.93,1.94-67.39l9.4,0.43c4.54,1.08,9.94,0.43,13.39,3.13l-17.06,82.4
		l-3.35,10.15h47.63v-7.02C435.13,358.99,423.79,359.75,412.13,359.75z"/>
	<path d="M263.74,269.68l-1.94-7.02l-3.02,5.72l-4.54,8.85v0l-25.81,49.68l-4.97-10.05l-28.73-36.83
		c-7.56-8.42-11.45-20.52-5.83-30.89c4.32-8.1,12.53-13.5,22.03-13.18c11.34,0.33,22.57,7.35,28.3,17.93
		c0.97-3.35,2.38-7.13,1.84-10.58c-3.46-3.13-7.34-5.08-11.23-7.24c-13.93-6.16-32.4-4.21-43.63,6.59
		c-6.91,6.48-9.07,15.01-10.37,23.87c-7.56-4.21-18.36-6.48-26.14-1.62c-5.83,3.56-8.96,9.4-9.72,15.55
		c-1.84,21.49,23.33,24.62,32.83,39.53c0.86,3.13,1.62,6.59,0,9.61c-2.81,5.4-8.42,7.45-13.5,7.89c-8.21,0-14.58-6.15-19.55-11.99
		c-1.19,1.94-1.3,4.53-2.48,6.59c-6.16,2.49-24.19,5.08-31.54,3.35l1.62-31.54l27.22-0.11c-0.22-1.4,0.43-2.7-0.43-3.78l-26.89-0.33
		l-0.32-31.75c4.75-0.54,23.22,1.3,27.22,3.24v-6.26H91.69l-25.27,60.59c-4.43-20.84-8.53-41.9-12.1-62.96
		c6.59-8.86,12.31-18.15,19.66-26.14h-9.94l-38.12,59.51c-4.97-19.77-8.32-39.64-13.39-59.51H0l2.16,4.53
		c3.35,20.63,10.15,41.04,12.96,61.99L4,360.07l-2.27,4.43h12.85c-1.08-1.41-0.97-3.13-1.19-4.97c4.75-19.98,8.53-40.39,14.47-59.94
		l18.36-26.46l16.2,69.34l35.53-74.3l0.43,65.34l-1.19,5.51h37.69c2.38-0.54,1.4-4.32,3.24-5.83c8.32,4.97,17.71,8.86,27.86,6.8
		c6.48-1.72,12.53-7.67,14.26-14.15c1.51-7.02-0.43-13.61-5.4-18.47c-9.83-10.26-30.56-15.33-28.19-32.72
		c1.19-4.21,5.29-8.42,9.83-8.85c9.07-1.08,15.88,6.26,22.03,12.64L216,323.14l3.13,6.8c3.46,8.32,0.86,18.14-4.97,24.41
		c-5.08,6.16-12.31,8.21-19.76,8.1c-12.74-0.33-23.98-10.04-29.81-20.73c-1.4,3.67-2.7,7.13-3.24,10.8
		c8.75,7.99,19.12,12.64,30.67,13.39c13.07,0.86,24.73-4.75,31.43-16.09l21.17-45.14h9.61v0.01h8.1l0.76,0.65l9.5,33.59h8.96
		c0-0.87-0.76-1.51-1.19-2.27L263.74,269.68z M254.23,300.24L254.23,300.24l-7.24-0.11l7.24-15.66v0l1.83-3.99l5.4,19.87
		L254.23,300.24z"/>
	<path d="M294.62,264.71H283.5c0,1.94,1.62,3.99,2.05,6.05l1.84,68.15l8.21,0.11l-1.3-3.24L294.62,264.71z"/>
	<path d="M424.55,339.01h7.24l14.58-31.86l1.3-2.81c3.13,0.11,6.48,0,9.83,0v-3.89c-2.59,0-5.19-0.11-7.56-0.11l7.56-17.5v-7.77
		l-11.12,22.25v0l-15.12,30.02L424.55,339.01z"/>
	<path d="M457.49,355.75c-3.67,0.65-7.45,1.3-11.12,1.73v0h0v7.02h0v0h11.12v0h6.16l4.53-11.02
		C464.62,354.35,461.05,355.1,457.49,355.75L457.49,355.75z"/>
	<path d="M730.62,267.3c6.26,0.22,14.15,1.51,20.2,2.59l-1.08-5.08h-51.08l0.11,61.45l-46.66-61.45h-12.74
		c1.19,2.27,3.03,3.67,4.43,5.83c-0.22,22.57-0.43,46.01-2.05,68.36h6.59l-0.11-63.29l53.57,66.53c0-23.54,1.51-48.71,2.16-72.36
		l1.84-2.7c4.86-0.32,9.94-0.32,15.01,0l1.62,63.83l-0.86,7.99h10.15c-0.87-3.02-1.3-6.27-1.41-8.21L730.62,267.3z"/>
	<path d="M483.52,334.37l-18.79-73.65l-7.23,14.36v7.77l1.84-4.1l5.83,21.27c-2.38,0.32-4.97,0.32-7.67,0.43v3.89
		c3.13,0,6.26,0.11,9.4,0.32l9.5,34.35h9.29v-0.43L483.52,334.37z"/>
	<path d="M485.46,264.82c0,0.22,0.11,0.43,0.21,0.54v-0.54H485.46z"/>
	<path d="M606.96,333.51l1.19-30.02l25.38,0.32l0.22-3.99l-25.92-0.22v-32.18c8.85-0.22,17.82,1.08,25.49,3.78l-0.43-6.37h-37.04
		c1.19,1.51,0.76,3.24,1.62,4.86l1.4,66.96l-27.43-33.16c6.16-2.16,12.96-6.59,16.2-12.96c4-7.99,2.59-16.2-2.48-20.84
		c-11.99-11.12-26.78-6.7-40.5-5.18c1.08,1.62,1.73,2.92,1.84,5.61l-0.86,59.94l-1.73,8.1h9.5l3.56-71.6
		c6.91-2.05,14.47-1.08,19.44,4.75c4.32,5.29,5.83,12.96,3.13,19.66c-2.7,8.86-12.31,11.23-18.9,14.69l31,32.94
		c6.16,8.32,15.45,11.88,23.76,14.69c-5.29-3.67-10.59-9.07-15.23-14.26h34.13l4.1-7.35C633.96,333.07,619.38,339.02,606.96,333.51z
		"/>
	<path d="M528.44,309.85c-0.11,8.96,0.22,18.36-7.13,24.08c-4.1,2.7-9.5,3.35-13.82,1.51c-5.51-2.38-8.96-8.1-9.61-13.93l-1.19-56.7
		h-11.02v0h0v0.54c0.65,1.51,1.73,2.81,2.27,4.32l1.08,45.79c-0.32,8.86,2.16,16.85,9.29,22.57c5.08,4.21,13.18,5.08,19.55,2.7
		c7.45-3.24,12.1-11.12,13.5-18.47c2.05-19.33-0.32-38.99,3.89-57.46h-7.02L528.44,309.85z"/>
	<polygon points="485.68,338.58 485.68,338.58 485.68,338.58 	"/>
	<polygon points="485.68,339.01 485.68,339.01 485.68,339.01 485.89,339.01 485.68,338.58 	"/>
	<polygon points="485.68,265.35 485.68,265.35 485.68,265.35 	"/>
	<path d="M232.53,190.08h40.61l4.54-11.02c-14.58,3.67-29.59,5.51-45.14,6.16v0c-3.57,0.11-7.24,0.11-10.91,0.11
		c-1.08-0.33-2.27-1.51-1.94-2.81l7.67-33.7c1.94-0.97,3.67-2.16,5.18-3.67l0-0.41v0.41c2.7-2.38,4.97-5.18,6.8-8.64
		c4.32-8.86,5.4-21.82,0-32.4l-1.4-1.94l9.18-40.18h-14.36c-0.43,0.11,1.51,6.59,0.86,9.61l-1.08,5.29v0l-3.02,14.57l-7.45-9.61
		c1.51-6.26,3.13-12.53,5.08-18.68c1.84-2.48,3.67-5.18,5.4-7.88v-7.13l-7.34,11.34c-2.92-11.45-5.29-23.11-7.78-34.67
		c2.92-1.19,6.16-1.73,9.4-1.51c1.95,0.11,3.89,0.32,5.73,0.76c4.32,0.86,8.42,2.7,11.99,5.29l-11.99,18.79v7.13
		c5.08-7.45,10.26-15.23,15.55-23c2.81,2.48,5.18,5.51,7.02,8.96c0.86-3.46,2.38-7.13,1.73-10.58c-1.51-1.51-3.13-2.7-4.86-3.78
		c6.8-9.61,13.82-18.79,21.28-26.89h-9.94l-15.66,24.41c-0.65-0.43-1.29-0.76-2.05-1.08c-4-1.73-8.42-2.81-13.07-3.24v0
		c-5.18-0.43-10.58,0.11-15.77,1.51c-1.62-7.13-3.13-14.37-4.97-21.6h-3.46v37.59l6.05,28.94l-0.86,4.43l-2.92-3.56
		c-0.76-0.87-1.51-1.84-2.27-2.81v18.14l2.27,2.7l-2.27,12.2v30.46h5.51c-1.08-1.4-0.97-3.13-1.19-4.97
		c2.16-9.18,4.1-18.58,6.26-27.97l7.99,9.4l-9.07,44.39c-2.48,0.54-4.97,0.76-7.67,0.76c-0.54,0-1.19,0-1.84,0v3.56
		c3.02,0,6.05-0.11,8.75-0.65l-5.51,27.33l-3.24,10.04v0.11L232.53,190.08L232.53,190.08z M232.52,125.93L232.52,125.93l2.16-9.5
		l0.32,0.86c3.02,7.02,1.62,15.12-2.48,21.27v0c-0.65,1.19-1.51,2.16-2.48,3.13c-0.43,0.54-0.97,1.08-1.51,1.51L232.52,125.93z"/>
	<polygon points="208.33,189.97 208.22,190.08 208.33,190.08 	"/>
	<path d="M208.33,153.25v-3.57c-11.99-1.19-22.36-10.48-27.97-20.73c-1.3,3.67-2.59,7.13-3.24,10.8
		c8.86,7.99,19.22,12.75,30.67,13.39C208.01,153.25,208.12,153.25,208.33,153.25z"/>
	<polygon points="208.33,128.09 208.33,97.63 203.26,123.66 200.99,128.09 	"/>
	<path d="M194.4,66.53l13.93,16.2V64.58c-5.94-8.21-8.53-18.79-3.56-28.08c0.76-1.4,1.62-2.7,2.48-3.78l1.08,4.86V0h-9.07l2.16,4.53
		l4.54,22.14c-1.4,0.97-2.7,2.05-4,3.35C195.05,36.51,186.84,47.09,194.4,66.53z"/>
</g>
</svg>
