<?xml version="1.0" encoding="utf-8"?>
<!-- Generator: Adobe Illustrator 28.1.0, SVG Export Plug-In . SVG Version: 6.00 Build 0)  -->
<svg version="1.1" id="Ebene_1" xmlns="http://www.w3.org/2000/svg" xmlns:xlink="http://www.w3.org/1999/xlink" x="0px" y="0px"
	 viewBox="0 0 360 180" style="enable-background:new 0 0 360 180;" xml:space="preserve">
<g>
	<path d="M222.3,105.2v-0.2V105.2L222.3,105.2L222.3,105.2z M222.3,77c0.2,0.6,0.7,1.1,0.9,1.7l0.4,17.6c-0.1,3.4,0.8,6.5,3.6,8.7
		c1.9,1.6,5.1,1.9,7.5,1c2.9-1.2,4.6-4.3,5.2-7.1c0.8-7.4-0.1-15,1.5-22h-2.7l0.1,17.3c0,3.4,0.1,7-2.7,9.2c-1.6,1-3.6,1.3-5.3,0.6
		c-2.1-0.9-3.4-3.1-3.7-5.3l-0.5-21.7h-4.2L222.3,77L222.3,77z M261.4,86.6c-1.2,2.4-3.9,4.1-6.2,5l10.5,12.7l-0.5-25.7
		c-0.3-0.6-0.2-1.3-0.6-1.9h14.2l0.2,2.4c-2.9-1-6.4-1.5-9.8-1.4v12.3l9.9,0.1l-0.1,1.5l-9.7-0.1l-0.5,11.5
		c4.8,2.1,10.4-0.2,12.1-0.7l-1.6,2.8h-13.1c1.8,2,3.8,4.1,5.8,5.5c-3.2-1.1-6.8-2.4-9.1-5.6L251,92.4c2.5-1.3,6.2-2.2,7.2-5.6
		c1-2.6,0.5-5.5-1.2-7.5c-1.9-2.2-4.8-2.6-7.5-1.8l-1.4,27.5h-3.6l0.7-3.1l0.3-23c0-1-0.3-1.5-0.7-2.2c5.3-0.6,10.9-2.3,15.5,2
		C262.4,80.4,262.9,83.6,261.4,86.6L261.4,86.6z M286.1,76.8l17.9,23.6l0-23.6h19.6l0.4,1.9c-2.3-0.4-5.3-0.9-7.7-1l-0.1,24.4
		c0,0.7,0.2,2,0.5,3.1h-3.9l0.3-3.1l-0.6-24.5c-1.9-0.1-3.9-0.1-5.8,0l-0.7,1c-0.2,9.1-0.8,18.7-0.8,27.8L284.6,81l0,24.3h-2.5
		c0.6-8.6,0.7-17.6,0.8-26.2c-0.5-0.8-1.2-1.4-1.7-2.2H286.1L286.1,76.8z M222.3,76.8V77C222.3,76.9,222.2,76.9,222.3,76.8
		L222.3,76.8L222.3,76.8z M222.3,105.1l-0.8-1.6l-7.2-28.3l-2.8,5.5v3l0.7-1.6l2.2,8.2c-0.9,0.1-1.9,0.1-2.9,0.2v1.5
		c1.2,0,2.4,0,3.6,0.1l3.6,13.2h3.6L222.3,105.1L222.3,105.1z M211.5,115v-3.4c1.4-0.2,2.7-0.5,4.1-0.9l-1.7,4.2H211.5L211.5,115z
		 M211.5,80.7v3l-2.9,6.7c0.9,0,1.9,0,2.9,0v1.5c-1.3,0-2.6,0-3.8,0l-0.5,1.1v-3.8L211.5,80.7L211.5,80.7z M211.5,111.7v3.4h-4.3
		v-2.7C208.6,112.2,210.1,111.9,211.5,111.7z M133.5,81.5l1.7-3.4l1.2-2.2l0.7,2.7l6.4,25.7c0.2,0.3,0.5,0.5,0.5,0.9h-3.4l-3.6-12.9
		l-0.3-0.2h-3.1v-1.7l2.8,0l-2.1-7.6l-0.7,1.5V81.5L133.5,81.5z M207.2,89.2V93l-5.6,12.2h-2.8l2.6-4.5L207.2,89.2L207.2,89.2z
		 M207.2,112.3c-4.3,0.6-8.7,0.9-13.1,0.9c-0.4-0.1-0.9-0.6-0.7-1.1l10.5-46.2h-5.5c-0.2,0,0.6,2.6,0.3,3.7l-1.7,7.2l-21.4,0
		l0.4,23.9l-0.2,0.5l-0.2-0.2l-18.1-24.3h-4.7c0.4,0.9,1.2,1.8,1.8,2.7l-0.7,23.5l-0.5,2.2l2.4,0V81.4l0.2-0.2l19.5,24.7l1.2,1.2
		l1.2-28.5l0.5-0.5c1.7-0.2,3.6-0.4,5.4,0l0.5,24.4l-0.5,2.4c1.1,0.2,2.6,0.2,3.7,0l-0.2-1c0-8.7,0.2-17.2,0.7-25.8l3.6,0.2
		c1.7,0.4,3.8,0.2,5.1,1.2l-6.5,31.6L189,115h18.3L207.2,112.3L207.2,112.3z M148.9,104l0.5,1.2l-3.1,0L145.5,79
		c-0.2-0.8-0.8-1.6-0.8-2.3h4.3L148.9,104z M128.5,68.5c0.2,1.3-0.3,2.8-0.7,4.1c-2.2-4.1-6.5-6.8-10.9-6.9
		c-3.6-0.1-6.8,1.9-8.5,5.1c-2.2,4-0.7,8.6,2.2,11.8l11,14.1l1.9,3.9l9.9-19.1v2.8l-2.8,6l2.8,0v1.7h-3.7l-8.1,17.3
		c-2.6,4.3-7,6.5-12.1,6.2c-4.4-0.3-8.4-2.1-11.8-5.1c0.2-1.4,0.7-2.7,1.2-4.1c2.2,4.1,6.5,7.8,11.4,8c2.9,0,5.6-0.7,7.6-3.1
		c2.2-2.4,3.2-6.2,1.9-9.4l-1.2-2.6L104.5,82c-2.4-2.4-5-5.3-8.5-4.8c-1.7,0.2-3.3,1.8-3.8,3.4c-0.9,6.7,7,8.6,10.8,12.6
		c1.9,1.9,2.7,4.4,2.1,7.1c-0.7,2.5-3,4.8-5.5,5.4c-3.9,0.8-7.5-0.7-10.7-2.6c-0.7,0.6-0.3,2-1.2,2.2H73.3l0.5-2.1l-0.2-25.1
		l-13.6,28.5L53.7,80l-7,10.2c-2.3,7.5-3.7,15.3-5.6,23c0.1,0.7,0,1.4,0.5,1.9h-4.9l0.9-1.7l4.3-21.9c-1.1-8-3.7-15.9-5-23.8
		L36,65.9h4.8c1.9,7.6,3.2,15.2,5.1,22.8l14.6-22.8h3.8c-2.8,3.1-5,6.6-7.5,10c1.4,8.1,2.9,16.2,4.6,24.2l9.7-23.2h16.3v2.4
		c-1.5-0.7-8.6-1.4-10.4-1.2l0.1,12.2l10.3,0.1c0.3,0.4,0.1,0.9,0.2,1.4l-10.4,0l-0.6,12.1c2.8,0.7,9.7-0.3,12.1-1.3
		c0.5-0.8,0.5-1.8,1-2.5c1.9,2.2,4.3,4.6,7.5,4.6c1.9-0.2,4.1-1,5.2-3c0.6-1.2,0.3-2.5,0-3.7C98.6,92.2,89,91,89.7,82.8
		c0.3-2.4,1.5-4.6,3.7-6c3-1.9,7.1-1,10,0.6c0.5-3.4,1.3-6.7,4-9.2c4.3-4.1,11.4-4.9,16.7-2.5C125.6,66.6,127.1,67.3,128.5,68.5z"/>
</g>
</svg>
