<?xml version="1.0" encoding="utf-8"?>
<!-- Generator: Adobe Illustrator 28.1.0, SVG Export Plug-In . SVG Version: 6.00 Build 0)  -->
<svg version="1.1" id="Layer_1" xmlns="http://www.w3.org/2000/svg" xmlns:xlink="http://www.w3.org/1999/xlink" x="0px" y="0px"
	 viewBox="0 0 72 72" style="enable-background:new 0 0 72 72;" xml:space="preserve">
<g>
	<path d="M64.7,20c-3.6,0-6.9,3-6.9,6.3v17.4l0,0v8.2c0,1.6-0.6,3.1-1.6,4.1L56.1,56c-0.6,0.6-1.2,1-2,1.3c-0.7,0.3-1.5,0.5-2.4,0.5
		H20.2c-1.7,0-3.2-0.7-4.3-1.8c-1.1-1.1-1.8-2.6-1.8-4.3V20.1c0-1.7,0.7-3.2,1.8-4.3c1.1-1.1,2.6-1.8,4.3-1.8h31.6
		c0.8,0,1.6,0.2,2.4,0.5c1,0.4,1.5,0.9,2.5,1.8c0.6,0.6,1.5,1,2.4,1c0.9,0,1.8-0.4,2.4-1c0.7-0.7,1-1.5,1-2.4c0-1-0.5-1.9-1-2.4
		c-1.3-1.4-2.6-2.5-4.7-3.3c-1.6-0.6-3.3-1-5-1H20.2c-3.6,0-6.8,1.5-9.2,3.8c-2.3,2.3-3.8,5.6-3.8,9.2v31.6c0,3.6,1.5,6.8,3.8,9.2
		c2.3,2.3,5.6,3.8,9.2,3.8h19.2l0,0h12.5c3.6,0,6.8-1.5,9.2-3.8c2.3-2.3,3.8-5.6,3.8-9.2v-5.9c0-0.1,0-0.1,0-0.2L64.7,20L64.7,20z"
		/>
	<path d="M20.6,49.1c0.9,2,2.3,2.8,5.1,2.8h26.1c-0.1-2.5-1.8-6.3-6.1-6.9H30.6l17.4-16.6c0.7-0.7,2.4-3.1,1.2-5.6
		c-0.9-2.1-2.5-2.9-5.3-2.9H22.2c0.1,2.9,1.5,6.3,5.3,6.9h12.4L21.6,44C20.9,44.7,19.7,46.9,20.6,49.1z"/>
</g>
</svg>
