<?xml version="1.0" encoding="utf-8"?>
<!-- Generator: Adobe Illustrator 28.1.0, SVG Export Plug-In . SVG Version: 6.00 Build 0)  -->
<svg version="1.1" id="Layer_1" xmlns="http://www.w3.org/2000/svg" xmlns:xlink="http://www.w3.org/1999/xlink" x="0px" y="0px"
	 viewBox="0 0 360 180" style="enable-background:new 0 0 360 180;" xml:space="preserve">
<g>
	<path d="M128.7,124.1c1.1,1.1,1.7,2.6,1.7,4.2c0,1.8-0.8,3.2-1.7,4.2c-1.8,1.8-4.1,3.6-7.3,4.9c-2.7,1.1-5.6,1.7-8.5,1.7H58.3
		c-6.2,0-11.7-2.5-15.8-6.5c-4-4-6.5-9.6-6.5-15.8V62.2c0-6.2,2.5-11.7,6.5-15.8c4-4,9.6-6.5,15.8-6.5h54.5c2.9,0,5.8,0.6,8.5,1.7
		c3.6,1.5,5.9,3.3,8.1,5.7c0.9,1,1.7,2.4,1.7,4.2c0,1.5-0.6,3-1.7,4.2c-1.1,1.1-2.6,1.7-4.2,1.7s-3.1-0.6-4.2-1.7
		c-1.6-1.6-2.4-2.4-4.2-3.1c-1.3-0.6-2.7-0.8-4.1-0.8H58.3c-2.9,0-5.5,1.2-7.4,3.1c-1.9,1.9-3.1,4.5-3.1,7.4v54.5
		c0,2.9,1.2,5.5,3.1,7.4c1.9,1.9,4.5,3.1,7.4,3.1h54.5c1.5,0,2.8-0.3,4.1-0.8c1.3-0.5,2.4-1.3,3.4-2.3c1.1-1.1,2.6-1.7,4.2-1.7
		C126.1,122.4,127.6,122.9,128.7,124.1z M112.7,117.1c-0.2-4.3-3.1-10.9-10.4-11.8h-26l30-28.7c1.3-1.2,4.1-5.3,2.1-9.7
		c-1.6-3.5-4.3-5.1-9.1-5.1H61.9c0.1,5,2.6,10.9,9.2,11.9h21.3l-31.5,29.7c-1.3,1.2-3.4,5-1.7,8.8c1.5,3.5,4,4.9,8.7,4.9H112.7
		L112.7,117.1z M198.1,90.1v22c0,8.1-2.5,15.2-8.1,20.9c-5.1,5.1-11.5,7.2-18.5,7.2c-13.8,0-20.9-10.7-20.9-10.7
		c3.7-3.7,8.9-6,13.9-2.9c0.9,0.5,3.4,1.9,7,1.9c12.8,0,14.8-11.4,14.8-14.8c-4.4,2.7-9.4,4-15,4l0,0c-7.2,0-13.5-2.3-18.8-6.8
		l-0.1-0.1c-5.2-5-7.8-11.1-7.9-18.2c0-1.5,0-6.1,0-7.2c0-7,2.7-13.1,7.9-18.1s11.6-7.6,18.9-7.6l0,0c9.7,0,16.8,4.8,20.1,8.8
		c0.8,1,1.3,2.3,1.3,3.7c0,1.6-0.7,3.1-1.7,4.2c-1.1,1.1-2.6,1.7-4.2,1.7c-1.6,0-3.2-0.7-4.2-1.7c-3.7-3.8-7.2-5-11.3-5
		s-7.5,1.4-10.4,4.2c-2.9,2.7-4.3,5.9-4.3,9.8c-0.1,1.7-0.1,5.4,0,7.1c0,4.1,1.4,7.2,4.3,10c3,2.8,6.5,4.1,10.4,4.1
		c4,0,7.4-1.3,10.5-4.1c1.6-1.5,2.7-3.2,3.4-5c0.6-1.5,1.7-4.6,5.7-6.2C194.3,89.9,198.1,90.1,198.1,90.1L198.1,90.1z M253.9,91.2
		c-4,1.6-5.1,4.7-5.7,6.2c-0.7,1.9-1.8,3.5-3.4,5c-3,2.8-6.5,4.1-10.5,4.1s-7.4-1.3-10.4-4.1c-2.9-2.8-4.3-5.9-4.3-10
		c-0.1-1.7-0.1-5.3,0-7.1c0-4,1.4-7.1,4.3-9.8c2.9-2.8,6.3-4.2,10.4-4.2c4.1,0,7.6,1.2,11.3,5c1,1,2.5,1.7,4.2,1.7
		c1.6,0,3.1-0.7,4.2-1.7c1.1-1.1,1.7-2.6,1.7-4.2c0-1.4-0.5-2.7-1.3-3.7c-3.3-4-10.4-8.8-20.1-8.8l0,0c-7.3,0-13.6,2.5-18.9,7.6
		c-5.2,5-7.8,11.1-7.9,18.1c0,1.1,0,5.8,0,7.2c0,7.1,2.7,13.2,7.9,18.2l0.1,0.1c5.3,4.5,11.6,6.8,18.8,6.8l0,0c5.6,0,10.5-1.3,15-4
		c0,3.4-2.1,14.8-14.8,14.8c-3.6,0-6.2-1.4-7-1.9c-5.1-3-10.2-0.8-13.9,2.9c0,0,7.1,10.7,20.9,10.7c7,0,13.4-2.1,18.5-7.2
		c5.6-5.6,8.1-12.7,8.1-20.9v-22C261,90.1,257.2,89.9,253.9,91.2L253.9,91.2z M324,85.4c0-7-2.7-13.1-7.9-18.1
		c-5.3-5-11.6-7.6-18.9-7.6l0,0c-7.3,0-13.6,2.5-18.9,7.6c-5.2,5-7.8,11.1-7.9,18.1c0,1.1,0,5.8,0,7.2c0,7.1,2.7,13.2,7.9,18.2
		l0.1,0.1c5.3,4.5,11.6,6.8,18.8,6.8l0,0c7.2,0,13.5-2.3,18.8-6.8l0.1-0.1c5.2-5,7.8-11.1,7.9-18.1C324,91.1,324,86.4,324,85.4
		 M297.2,106.6c-4,0-7.4-1.3-10.4-4.1c-2.9-2.8-4.3-5.9-4.3-10c-0.1-1.7-0.1-5.3,0-7.1c0-4,1.4-7.1,4.3-9.8
		c2.9-2.8,6.3-4.2,10.4-4.2s7.5,1.4,10.4,4.2c2.9,2.7,4.3,5.8,4.3,9.8c0.1,1.6,0.1,5.3,0,7.1c0,4-1.4,7.2-4.3,9.9
		C304.7,105.1,301.2,106.6,297.2,106.6 M135.2,61.9c-6.2,0-11.8,5.2-11.8,10.8v44.5c6.2,0,11.8-5.2,11.8-10.8V61.9z"/>
</g>
</svg>
