<!-- Generator: Adobe Illustrator 28.1.0, SVG Export Plug-In . SVG Version: 6.00 Build 0)  -->
<svg version="1.1" id="Layer_1" xmlns="http://www.w3.org/2000/svg" xmlns:xlink="http://www.w3.org/1999/xlink" x="0px" y="0px"
	 viewBox="0 0 72 72" style="enable-background:new 0 0 72 72;" xml:space="preserve">
<path d="M62.8,27.3c0.2-0.1,0.4-0.3,0.5-0.4c5.1,15.1-3,31.4-18.1,36.5c-1.6,0.5-3.3,0.9-5,1.2c5.1-4.8,8.8-13.1,9.3-21.7
	c0.5-8.8-3.4-14.4-10.6-15.2c-11-1.2-22.4,9.8-27.3,23.8C3.2,38,7.2,20.2,20.7,11.8c4.6-2.9,9.9-4.4,15.3-4.4c1.6,0,3.3,0.1,4.9,0.4
	c-2.1,1.4-3.6,3.7-3.9,6.3c-1.1,5,0.4,10.2,3.6,10.9c3.1,0.7,6.7-3.5,7.7-8.4c0.6-2.2,0.4-4.6-0.6-6.7c2.8,1.3,5.4,3,7.7,5.1
	c-0.4,0.3-0.9,0.6-1.3,0.9c-5.2,3.9-8.2,10.1-5.8,13.3C50.7,32.3,57.6,31.2,62.8,27.3z M25.6,28.6c1.2-1.4,0.1-4.3-2.1-6.2
	s-4.5-1.9-5.7-0.5c-1.2,1.4-0.8,3.7,1.4,5.6S24.4,30.1,25.6,28.6L25.6,28.6z M32.6,25.3c2.3-1.1,2.6-5.5,0.9-9.3
	c-1.7-3.8-4.7-5.2-7-4.1s-3.2,4.3-1.4,8S30.3,26.4,32.6,25.3z M50.2,50.2c6.5-4.5,9.6-3.3,9.6-4.9c0-1.8-5-5.3-8.5-5.6c0,1,0,2,0,3
	C51.1,45.2,50.8,47.7,50.2,50.2L50.2,50.2z M22.6,58.2c-0.1,1.2,0,2.3,0.2,3.5c-2.7-1.4-5.1-3.2-7.2-5.3C19,43.5,28.8,31,38.3,31.9
	c4,0.4,6.7,3.9,6.3,11.4c-0.5,8.8-6.8,21.5-13.5,21.2c-3.1-0.2-4.1-3.3-3.8-6.1c0.5-6,3.6-7.7,3.8-10.1c0-1-0.7-1.8-1.7-1.8
	c-0.2,0-0.5,0-0.7,0.1C26.7,47.1,23,51.7,22.6,58.2L22.6,58.2z M40.2,38.1c-1.9,0.1-4,3.5-3.2,5.3c1.5,2.4,4.7-0.7,4.7-3.3
	C41.8,39.5,41.8,38.1,40.2,38.1z M59,60.5h0.6l0.6,1.4l0.6-1.4h0.6v2.5h-0.6v-1.2l-0.4,1H60l-0.4-1v1.2H59V60.5z M56.7,60.5h1.9V61
	H58v1.9h-0.6V61h-0.6L56.7,60.5z"/>
</svg>
