<!-- Generator: Adobe Illustrator 28.1.0, SVG Export Plug-In . SVG Version: 6.00 Build 0)  -->
<svg version="1.1"
	 id="svg3794" xmlns:cc="http://creativecommons.org/ns#" xmlns:dc="http://purl.org/dc/elements/1.1/" xmlns:rdf="http://www.w3.org/1999/02/22-rdf-syntax-ns#" xmlns:svg="http://www.w3.org/2000/svg"
	 xmlns="http://www.w3.org/2000/svg" xmlns:xlink="http://www.w3.org/1999/xlink" x="0px" y="0px" viewBox="0 0 300 300"
	 style="enable-background:new 0 0 300 300;" xml:space="preserve">
<g id="layer1" transform="translate(-318.33375,-439.74274)">
	<g id="g3460" transform="matrix(4.579965,0,0,-4.579965,468.34291,456.8459)">
		<path id="path3462" d="M0,0c-8.01,0-15.26-3.25-20.52-8.51c-5.25-5.24-8.5-12.5-8.5-20.52c0-8.01,3.25-15.26,8.5-20.51
			c5.25-5.25,12.51-8.5,20.52-8.5c8.01,0,15.27,3.26,20.51,8.5c5.25,5.25,8.49,12.5,8.49,20.51c0,8.01-3.24,15.27-8.49,20.52
			C15.27-3.25,8.01,0,0,0 M0,3.52c17.97,0,32.53-14.57,32.53-32.54c0-17.96-14.57-32.53-32.53-32.53
			c-17.96,0-32.53,14.57-32.53,32.53C-32.53-11.05-17.96,3.52,0,3.52"/>
	</g>
	<g id="g3464" transform="matrix(4.579965,0,0,-4.579965,397.87238,588.54693)">
		<path id="path3466" d="M0,0c0,1.9-1.26,2.97-3.04,2.97h-1.09v-5.95h1.06C-1.41-2.98,0-2.08,0,0 M19.39-2.14l-8.03-6.32L4.02-2.68
			C2.96-5.23,0.4-7-2.55-7h-6.28V7h6.28C0.75,7,3.12,4.9,4.02,2.67l7.34,5.77l2.72-2.14L7.35,1.01L8.64,0l6.73,5.28l2.72-2.13
			l-6.73-5.29l1.29-1.01l6.73,5.3V7h4.88v-9.91h4.87v-4.1h-9.75C19.39-7.01,19.39-2.14,19.39-2.14z M35.32-2.91h4.87v-4.1h-9.75V7
			h4.89V-2.91z"/>
	</g>
</g>
</svg>
