<!-- Generator: Adobe Illustrator 28.1.0, SVG Export Plug-In . SVG Version: 6.00 Build 0)  -->
<svg version="1.1" id="Layer_1" xmlns="http://www.w3.org/2000/svg"
	xmlns:xlink="http://www.w3.org/1999/xlink" x="0px" y="0px"
	viewBox="0 0 300 157.69" style="enable-background:new 0 0 300 157.69;" xml:space="preserve">
<path d="M299,153.44V4.45h-62.89l-21.4,87.05L193.25,4.45h-61.99v32.15C123.73,8.46,96.1,1.41,71.41,1.01
	C41.31,0.61,7.95,13.66,6.79,53.47h41.64c0-12.02,11-18.9,21.39-18.72c12.76-0.11,18.62,5.34,18.92,13.82
	c-0.44,7.36-4.78,12.48-18.81,12.48h-14v28.89h12.71c7.22,0,17.27,3.93,17.66,14.22c0.48,12.26-8.04,17.64-18.53,17.75
	c-18.72-0.7-23.56-15.08-23.56-27.45H1c0.18,8.33-0.09,62.65,67.64,62.25c32.45,0.29,56.06-13.35,62.73-32.15v28.83h41.68V59.44
	l23.05,93.92h37.24l23.13-93.81v93.9H299z M131.4,91.3c-5.31-10.98-12.78-15.78-16.98-17.3c8.82-3.92,13.45-9.25,16.98-19.86V91.3z"
	/>
</svg>
