<!-- Generator: Adobe Illustrator 28.1.0, SVG Export Plug-In . SVG Version: 6.00 Build 0)  -->
<svg version="1.1" id="Layer_1" xmlns="http://www.w3.org/2000/svg" xmlns:xlink="http://www.w3.org/1999/xlink" x="0px" y="0px"
	 viewBox="0 0 72 72" style="enable-background:new 0 0 72 72;" xml:space="preserve">
<g>
	<path d="M61.7,17.5c-3.5-3.5-9.1-3.6-12.7-0.2c-0.2,0.2-0.3,0.4-0.3,0.6c0,0.2,0.1,0.5,0.3,0.6l1.1,1.2c0.3,0.3,0.8,0.3,1.1,0.1
		c0.9-0.7,2-1,3.1-1c2.1,0,4,1.3,4.9,3.2s0.4,4.2-1.1,5.7c-7.3,7.3-16.9-13.1-38.9-2.6c-0.8,0.4-1.3,1-1.6,1.8
		c-0.3,0.8-0.2,1.7,0.3,2.4l3.8,6.5c0.8,1.4,2.6,1.9,4,1.1l0.1-0.1l-0.1,0.1l1.7-0.9c1.9-1.2,3.6-2.5,5.3-3.9c0.3-0.3,0.9-0.3,1.2,0
		l0,0c0.2,0.2,0.3,0.4,0.3,0.7c0,0.3-0.1,0.5-0.3,0.7c-1.7,1.5-3.6,2.9-5.5,4.1h-0.1l-1.7,0.9c-0.7,0.4-1.5,0.6-2.3,0.6
		c-1.7,0-3.3-0.9-4.1-2.4l-3.6-6.2c-6.8,4.8-11,14.1-8.8,25.9c0.1,0.4,0.4,0.7,0.9,0.7h4.1c0.4,0,0.8-0.3,0.9-0.8
		c0.4-3,2.9-5.2,5.9-5.2s5.5,2.2,5.9,5.2c0.1,0.4,0.4,0.8,0.9,0.8h4c0.4,0,0.8-0.3,0.9-0.8c0.4-3,2.9-5.2,5.9-5.2
		c3,0,5.5,2.2,5.9,5.2c0.1,0.4,0.4,0.8,0.9,0.8h3.9c0.5,0,0.9-0.4,0.9-0.9c0.1-5.5,1.6-11.8,5.8-15C68.9,30.3,65.1,20.9,61.7,17.5z
		 M46.7,34.1l-2.8-1.4l0,0c0-0.8,0.6-1.5,1.4-1.7c0.8-0.2,1.6,0.2,2,1C47.6,32.7,47.4,33.6,46.7,34.1L46.7,34.1L46.7,34.1z"/>
</g>
</svg>
