<!-- Generator: Adobe Illustrator 28.1.0, SVG Export Plug-In . SVG Version: 6.00 Build 0)  -->
<svg version="1.1" id="Layer_1" xmlns="http://www.w3.org/2000/svg" xmlns:xlink="http://www.w3.org/1999/xlink" x="0px" y="0px"
	 viewBox="0 0 256 214" style="enable-background:new 0 0 256 214;" xml:space="preserve">
<g>
	<path d="M240.86,162.89c0.66,1.72,0.12,3.16-1.35,4.34c-13.75,11.07-28.19,21.11-43.91,29.24l-13.12,6.78
		c2.71,2.16,5.76,2.77,9,2.65c3.55-0.13,6.52-1.76,9.27-3.86c3.28-2.5,6.39-5.27,9.83-7.52c8.35-5.44,17.35-4.94,25.25,1.18
		c3.35,2.6,6.44,5.58,9.92,7.99c1.68,1.17,3.84,1.8,5.9,2.26l0.46,0.1c2.51,0.53,4.03,1.79,3.86,3.96c-0.17,2.15-1.87,3.4-4.44,3.24
		c-5.45-0.35-9.71-3.16-13.71-6.56c-2.5-2.12-4.91-4.38-7.61-6.22c-5-3.41-10.3-3.51-15.4-0.24c-3,1.93-5.73,4.29-8.54,6.51
		c-4.53,3.58-9.41,6.21-15.37,6.3c-6.54,0.1-11.8-2.83-16.62-6.87c-1.72-1.44-3.43-2.9-5.19-4.31c-6.59-5.25-13.33-5.25-19.94,0
		c-0.77,0.61-1.53,1.23-2.29,1.86l-1.52,1.25c-1.27,1.04-2.54,2.07-3.85,3.06c-8.09,6.11-17.36,6.41-25.74,0.68
		c-3.05-2.08-5.83-4.56-8.74-6.85c-6.61-5.21-12.1-5.19-18.82-0.02l-0.55,0.42l-1.65,1.28c-2.2,1.7-4.42,3.38-6.74,4.9
		c-8.76,5.7-17.68,5.46-26.38-0.05c-3.6-2.28-6.89-5.05-10.31-7.63l-0.51-0.39c-1.36-1.02-2.71-2.06-4.11-3.02
		c-1.95-1.35-4.05-1.72-6.16-0.44c-3.73,2.27-7.42,4.6-11.12,6.93c-3.49,2.2-6.87,4.61-10.5,6.54c-1.97,1.05-4.33,1.53-6.58,1.82
		c-2.09,0.27-3.52-1.28-3.6-3.24c-0.08-1.93,1.18-3.14,3.13-3.69l0.11-0.03c2.08-0.56,4.22-1.26,6.02-2.4
		c5.09-3.2,10.02-6.65,15-10.01c0.14-0.1,0.22-0.28,0.39-0.49l-3.1-5.85c-1.03-1.95-2.07-3.91-3.09-5.87
		c-1.8-3.44-0.63-5.74,3.24-6.02c10.42-0.74,20.85-1.38,31.28-2.05l60.02-3.85c14.19-0.91,28.37-1.83,42.56-2.75
		c20.01-1.29,40.01-2.58,60.02-3.87c5.32-0.34,10.64-0.68,15.96-1.02l5.32-0.35C238.71,160.58,240.18,161.13,240.86,162.89z
		 M225.64,168.97l-0.18-0.44L26.85,181.32l0.49,0.92c1.29,2.41,2.43,4.59,3.67,6.71c0.11,0.19,0.52,0.23,0.94,0.25l0.43,0.01
		c0.04,0,0.09,0,0.13,0l0.12,0.01c1.73,0.13,3.61-0.18,5.15,0.43c2.45,0.97,4.78,2.35,6.94,3.88c3.86,2.73,7.43,5.88,11.34,8.54
		c6.95,4.72,13.49,4.58,20.32-0.21c2.88-2.02,5.62-4.25,8.48-6.31c8.93-6.44,17.39-6.3,26.11,0.42c2.55,1.96,4.98,4.08,7.52,6.05
		c6.38,4.94,12.85,4.96,19.19,0.05c2.11-1.63,4.13-3.4,6.2-5.08c9.41-7.64,18.94-8.38,28.19-1.56l0.28,0.21
		c2.96,2.23,5.16,2.12,8.11,0.65l1.44-0.72c13.16-6.6,26.06-13.61,37.98-22.32C221.81,171.83,223.72,170.39,225.64,168.97z
		 M41.22,0.68c21.5,9.7,40.8,22.74,58.34,38.42c21.83,19.51,39.04,42.55,51.74,68.9c6.69,13.87,11.89,28.28,14.28,43.57l0.11,0.75
		l0.17,1.2c0,2.96-2.37,4.7-4.84,3.7c-12.27-4.96-24.94-8.4-38.04-10.36c-17.31-2.6-34.39-1.95-51.22,3.12
		c-11.16,3.36-21.77,7.94-31.63,14.19c-1.82,1.15-3.75,0.95-4.94-0.46c-1.23-1.47-1.23-3.24,0.19-4.79
		c10.3-11.19,16.3-24.62,20.27-39.07c3.88-14.11,5.3-28.54,4.43-43.13c-0.65-10.97-3.28-21.58-6.73-32
		c-4.45-13.48-10.23-26.36-17.2-38.72c-1.14-2.02-1.12-3.59,0.03-4.88C37.41-0.21,38.94-0.35,41.22,0.68z M107.49,25.87
		c1.99,0.58,4.68,1.15,7.2,2.14c10.08,3.92,18.77,10.15,27.05,16.95c13.45,11.06,25.77,23.28,36.78,36.77
		c7.67,9.39,13.95,19.71,19.69,30.37c6.5,12.09,12.1,24.58,16.85,37.45l0.33,0.9c0.13,0.34,0.25,0.68,0.37,1.03
		c0.5,1.49,0.44,2.93-0.73,4.07c-1.19,1.16-2.62,1.24-4.12,0.65l-0.11-0.04c-2.16-0.89-4.35-1.71-6.51-2.6l-0.92-0.39
		c-6.07-2.6-12.3-3.12-18.72-1.67c-0.59,0.13-1.19,0.24-1.79,0.33c-2.38,0.37-3.87-0.56-4.52-2.87
		c-6.25-22.19-15.07-43.31-26.23-63.47l-0.56-1c-7.2-12.86-15.43-24.95-26.14-35.22c-6.32-6.07-12.97-11.72-20.32-16.52
		c-1.7-1.11-2.34-2.66-1.78-4.34C103.86,26.74,105.15,26.08,107.49,25.87z M47.65,11.79c0.02,0.56,0.17,1,0.37,1.41
		c4.67,9.42,8.73,19.1,12.03,29.09c3.13,9.47,5.53,19.13,6.68,29.06c1.29,11.11,0.76,22.2-0.77,33.25
		c-2.01,14.56-6.04,28.48-13.01,41.49l-0.81,1.52c-0.41,0.76-0.81,1.53-1.23,2.3c0.26,0.07,0.39,0.15,0.47,0.12
		c0.73-0.29,1.46-0.59,2.19-0.91c14.78-6.49,30.18-10.41,46.36-10.81c18.47-0.46,36.36,2.87,53.83,8.67l1.19,0.4
		c0.86,0.28,1.79,0.58,2.98,0.96c-7.08-30.98-21.75-57.6-41.52-81.56C97.35,43.69,74.17,25.65,47.65,11.79z M135.41,49.35l0.23,0.26
		l0.46,0.52c0.18,0.2,0.34,0.39,0.5,0.59c1.08,1.4,2.19,2.79,3.31,4.18l1.82,2.26c2.73,3.4,5.43,6.83,7.8,10.47
		c15,23.01,26.04,47.9,34.08,74.12l0.24,0.8c0.42,1.37,0.99,1.76,2.33,1.56l0.09-0.01c6.02-1,11.9-0.48,17.6,1.71l0.29,0.12
		c0.54,0.22,1.13,0.34,2.18,0.64c-7.73-19.27-16.86-37.22-28.41-53.94C167.96,78.16,141.21,52.49,135.41,49.35z"/>
</g>
</svg>
