<!-- Generator: Adobe Illustrator 28.1.0, SVG Export Plug-In . SVG Version: 6.00 Build 0)  -->
<svg version="1.1" id="Ebene_1" xmlns="http://www.w3.org/2000/svg" xmlns:xlink="http://www.w3.org/1999/xlink" x="0px" y="0px"
	 viewBox="0 0 72 72" style="enable-background:new 0 0 72 72;" xml:space="preserve">
<g>
	<path d="M37.9,28.9c0.2-0.9-0.4-2.9-0.3-2.9H42l-2.8,12.2l0.4,0.6c1.6,3.2,1.3,7.1,0,9.8c-0.6,1-1.2,1.9-2.1,2.6v-2
		c1.2-1.9,1.7-4.3,0.8-6.4l-0.1-0.3l-0.7,2.9V30.5L37.9,28.9L37.9,28.9z M37.6,63.3c4.7-0.2,9.3-0.8,13.7-1.9l-1.4,3.3H37.6V63.3
		L37.6,63.3z M37.6,13.3c1.4,0.1,2.7,0.5,4,1c0.2,0.1,0.4,0.2,0.6,0.3l4.7-7.4h3c-2.3,2.5-4.4,5.2-6.4,8.1c0.5,0.3,1,0.7,1.5,1.1
		c0.2,1-0.3,2.2-0.5,3.2c-0.6-1-1.3-2-2.1-2.7c-1.6,2.4-3.2,4.7-4.7,7v-2.2l3.6-5.7c-1.1-0.8-2.3-1.3-3.6-1.6L37.6,13.3L37.6,13.3z
		 M37.6,51.2c-0.5,0.5-1,0.8-1.6,1.1l-2.3,10.2c-0.1,0.4,0.3,0.8,0.6,0.9c1.1,0,2.2,0,3.3,0v1.5h-7.3v0l1-3l1.7-8.3
		c-0.8,0.2-1.7,0.2-2.7,0.2v-1.1c0.2,0,0.4,0,0.6,0c0.8,0,1.6-0.1,2.3-0.2l2.7-13.4L33.4,36c-0.7,2.8-1.2,5.7-1.9,8.5
		c0.1,0.6,0,1.1,0.4,1.5h-1.7v-9.2l0.7-3.7l-0.7-0.8v-5.5c0.2,0.3,0.5,0.6,0.7,0.9l0.9,1.1l0.3-1.3l-1.8-8.8V7.2h1
		c0.6,2.2,1,4.4,1.5,6.5c1.6-0.4,3.2-0.6,4.8-0.5v1.2c-0.6-0.1-1.1-0.2-1.7-0.2c-1-0.1-2,0.1-2.8,0.5c0.8,3.5,1.5,7,2.4,10.5
		l2.2-3.4V24c-0.5,0.8-1.1,1.6-1.6,2.4c-0.6,1.9-1.1,3.8-1.5,5.7l2.3,2.9l0.9-4.4v14.9l-1.2,5.2c0.2-0.1,0.3-0.3,0.5-0.5
		c0.3-0.3,0.6-0.6,0.8-0.9L37.6,51.2L37.6,51.2z M30.2,64.8L30.2,64.8L30.2,64.8L30.2,64.8L30.2,64.8z M30.2,53.6
		c-0.1,0-0.1,0-0.2,0c-3.5-0.2-6.6-1.6-9.3-4.1c0.2-1.1,0.6-2.2,1-3.3c1.7,3.1,4.8,5.9,8.5,6.3V53.6L30.2,53.6z M30.2,46H28l0.7-1.3
		l1.5-7.9L30.2,46L30.2,46z M30.2,32.3L26,27.4c-2.3-5.9,0.2-9.1,2.3-11.1c0.4-0.4,0.8-0.7,1.2-1l-1.4-6.7l-0.7-1.4h2.7v11.4
		l-0.3-1.5c-0.3,0.3-0.5,0.7-0.8,1.1c-1.5,2.8-0.7,6,1.1,8.5L30.2,32.3L30.2,32.3z"/>
</g>
</svg>
