<!-- Generator: Adobe Illustrator 28.1.0, SVG Export Plug-In . SVG Version: 6.00 Build 0)  -->
<svg version="1.1" id="Layer_1" xmlns="http://www.w3.org/2000/svg" xmlns:xlink="http://www.w3.org/1999/xlink" x="0px" y="0px"
	 viewBox="0 0 72 72" style="enable-background:new 0 0 72 72;" xml:space="preserve">
<g>
	<circle cx="35.6" cy="36" r="6.8"/>
	<path d="M7.7,28.8c0,0.1-0.1,0.2-0.1,0.3c0,0.7,0.6,1.4,1.4,1.4h11.6c0.6,0,0.9-0.3,1.3-0.8c2.4-5.2,7.6-8.8,13.7-8.8
		c8.3,0,15.1,6.8,15.1,15.1S43.8,51,35.5,51c-6.1,0-11.3-3.7-13.7-8.7c-0.2-0.6-0.6-0.9-1.3-0.9H9c-0.7,0-1.4,0.6-1.4,1.4
		c0,0.1,0,0.2,0.1,0.3c3.1,12.6,14.5,21.8,27.9,21.8c15.9,0,28.8-13,28.8-28.8S51.6,7.2,35.6,7.2C22.2,7.2,10.9,16.4,7.7,28.8
		L7.7,28.8z"/>
</g>
</svg>
