<!-- Generator: Adobe Illustrator 28.1.0, SVG Export Plug-In . SVG Version: 6.00 Build 0)  -->
<svg version="1.1" id="Layer_1" xmlns="http://www.w3.org/2000/svg" xmlns:xlink="http://www.w3.org/1999/xlink" x="0px" y="0px"
	 viewBox="0 0 72 72" style="enable-background:new 0 0 72 72;" xml:space="preserve">
<g>
	<path d="M36,7.2C19.5,7.4,7.5,20.4,7.2,35.1C6.9,51.8,19.6,64.5,35.3,64.8c17.1,0.3,29.6-13.3,29.5-28.5C64.7,19.7,52,7.3,36,7.2z
		 M45.7,33.7c-3.8,6.4-7.6,12.8-11.5,19.2c-0.3,0.5-1.8,0.9-2.3,0.6c-0.3-0.2-0.2-0.4-0.1-0.7c0.4-2.6,0.8-5.1,1.2-7.7
		c0.2-1.4,0.4-2.7,0.7-4.1c0.1-0.6-0.2-0.7-0.7-0.7c-1,0-2,0-3.1,0l0,0c-0.9,0-1.8,0-2.7,0c-1.2,0-1.7-0.7-1-1.8
		c0.8-1.5,1.8-3,2.6-4.4c2.9-4.9,5.9-9.8,8.8-14.7c0.5-0.7,1.5-1.1,2.4-0.8c0.4,0.2,0.3,0.5,0.2,0.7c-0.3,1.7-0.5,3.4-0.8,5.1
		c-0.4,2.2-0.7,4.3-1.1,6.5c-0.1,0.7,0.2,0.8,0.8,0.8c1.8,0,3.6,0,5.4,0C46.1,31.7,46.5,32.4,45.7,33.7z"/>
</g>
</svg>
