<!-- Generator: Adobe Illustrator 28.1.0, SVG Export Plug-In . SVG Version: 6.00 Build 0)  -->
<svg version="1.1" id="Calque_1" xmlns="http://www.w3.org/2000/svg" xmlns:xlink="http://www.w3.org/1999/xlink" x="0px" y="0px"
	 viewBox="0 0 360 180" style="enable-background:new 0 0 360 180;" xml:space="preserve">
<path d="M315.7,103.4c-4.6,0-8.3,3.7-8.3,8.2c0,4.5,3.7,8.2,8.3,8.2c4.6,0,8.3-3.7,8.3-8.2C324,107,320.3,103.4,315.7,103.4
	 M270,108l0-47.9h-5c0,0-8.4,3-14.4,3.7v9h3.8c1.2,0,1.7,0.5,1.8,1.7V108c0,1.2-0.7,1.8-1.8,1.9c-1,0.1-3.1,0.2-3.1,0.2v9H275v-9
	c0,0-2.2-0.1-3.1-0.2C270.7,109.8,270,109.2,270,108L270,108z M318,84.3c-0.5-10.1-14.1-10.5-21.3-3.7l-1.3-3.9h-16.5v9.2l3.5,0
	c1.2,0,1.7,0.5,1.7,1.7V108c0,1.2-0.7,1.8-1.8,1.9c-1,0.1-2.9,0.2-2.9,0.2v9h23.2v-9c0,0-1.9-0.1-2.9-0.2c-1.1-0.1-1.8-0.7-1.8-1.9
	l0-13.9c0-2.6,0.6-7,5.2-8.1c0.6,4.3,4.8,5.6,6.8,5.6C315.1,91.7,318,87.8,318,84.3L318,84.3z M230.4,76.1c-3.5,0.2-7.2,1.5-9.9,3.8
	V60.2h-5c0,0-8.1,2.9-14.5,3.7l-0.2,9l4,0c1.2,0,1.8,0.5,1.8,1.7v44.6l11.4,0l1.6-3.7c0.3,0.2,5.6,5.1,13.9,4.1
	c10.5-1.2,16-9.6,16-22.2C249.6,90.8,247.5,75.3,230.4,76.1L230.4,76.1z M228.3,109.3c-1.9,0.1-5.5-0.2-7.8-4.2v-5.9l0,0h0v-6.8
	c0-3,2.7-5.6,7-5.7c4.3-0.2,8.1,2.8,8.1,11C235.5,108.8,230.6,109.1,228.3,109.3L228.3,109.3z M197.6,108.1c0,0,0-10.5,0-12.9
	c0-4.6-0.1-9.4-3.1-13.2c-2.8-3.6-7.4-6.2-14.4-5.8c-4.7,0.2-9.6,2.4-12.4,6.1l-0.4,0.5l-0.3-0.3c-2.8-4.1-7.3-6.7-14.4-6.3
	c-4.7,0.2-9.6,2.4-12.4,6.1l-0.4-5.5h-17.2v9.2l4,0.1c1.2,0,1.7,0.5,1.8,1.7l0,18.1v2.3c0,1.2-0.7,1.8-1.8,1.9
	c-1,0.1-2.9,0.2-2.9,0.2v9l23.3,0v-9.1c0,0-1.8-0.1-2.9-0.2c-1.1-0.1-1.8-0.7-1.8-1.9c0,0,0-11.5,0-13.9c0-2.3,1.9-7,8-7
	c4.9,0,5.9,3,5.9,6.5c0,3.5,0,14.5,0,14.5c0,1.2-0.7,1.8-1.8,1.9c-1,0.1-2.9,0.2-2.9,0.2v9h23.2v-9c0,0-1.8-0.1-2.9-0.2
	c-1.1-0.1-1.8-0.7-1.8-1.9h0c0,0,0-11.5,0-13.9c0-2.3,1.7-7,7.8-7c4.9,0,6.1,3,6.1,6.5v12.1l0,2.3c0,1.2-0.7,1.8-1.8,1.9
	c-1,0.1-2.9,0.2-2.9,0.2v9h23.3v-9c0,0-1.8-0.1-2.9-0.2C198.3,109.9,197.6,109.2,197.6,108.1L197.6,108.1z M115,108.1V76.7H95.7v9.2
	l3.7,0c1.2,0,1.7,0.5,1.8,1.7l0,14.4c0,1.4-1,6.7-8.1,6.8c-4.8,0.1-5.8-2.7-5.8-6.5V76.7H73.1V103c0,6.7,3,17.2,17.3,16.8
	c4.7-0.1,10-2.5,12.8-5.9l0.1,5.3h15.9v-9c0,0-1.3-0.1-2.2-0.2C115.7,109.9,115,109.3,115,108.1L115,108.1z M62.3,109.2
	c-4.7,0.1-5.6-3.3-5.7-5.7v-17h11v-9.8h-11V62H48c-0.1,0-0.4,0.1-0.4,0.4C47.1,67,45,74.9,36,78v8.5h6.8v17.9
	c0,6.5,4,15.6,16.9,15.4c4.3-0.1,9.2-1.9,10.2-3.4l-2.8-8.2C66,108.7,63.9,109.2,62.3,109.2L62.3,109.2z"/>
</svg>
