<!-- Generator: Adobe Illustrator 28.1.0, SVG Export Plug-In . SVG Version: 6.00 Build 0)  -->
<svg version="1.1"
	 id="svg446" xmlns:svg="http://www.w3.org/2000/svg" xmlns:sodipodi="http://sodipodi.sourceforge.net/DTD/sodipodi-0.dtd" xmlns:inkscape="http://www.inkscape.org/namespaces/inkscape" xmlns:cc="http://creativecommons.org/ns#" xmlns:dc="http://purl.org/dc/elements/1.1/" xmlns:rdf="http://www.w3.org/1999/02/22-rdf-syntax-ns#"
	 xmlns="http://www.w3.org/2000/svg" xmlns:xlink="http://www.w3.org/1999/xlink" x="0px" y="0px" viewBox="0 0 72 72"
	 style="enable-background:new 0 0 72 72;" xml:space="preserve">
<sodipodi:namedview  bordercolor="#666666" borderopacity="1.0" fit-margin-bottom="0" fit-margin-left="0" fit-margin-right="0" fit-margin-top="0" id="base" inkscape:current-layer="layer1" inkscape:cx="426.69788" inkscape:cy="56.847669" inkscape:document-units="mm" inkscape:pageopacity="0.0" inkscape:pageshadow="2" inkscape:window-height="744" inkscape:window-maximized="1" inkscape:window-width="1280" inkscape:window-x="-4" inkscape:window-y="-4" inkscape:zoom="0.86180571" pagecolor="#ffffff" showgrid="false" units="px">
	</sodipodi:namedview>
<g id="layer1" transform="translate(357.06977,-214.71208)" inkscape:groupmode="layer" inkscape:label="Layer 1">
	<g id="logo3-dark-theme" transform="matrix(0.26458333,0,0,0.26458333,-356.96504,214.97666)">
		<path id="Path-1-Copy-9" inkscape:connector-curvature="0" d="M35.1,212.3c10,10.6,65.2,61.6,151.7,2.4
			c62.6-48.7,61-154.4,55-186.3C239.7,33.1,167,192.3,35.1,212.3z M241.8,28.5c-0.8-0.3-81.3-11.3-160.9,40
			c-49.4,31.8-56,78.4-53.7,109.5C142.9,164.9,239.1,32.1,241.8,28.5z"/>
		<path id="Path-1-Copy-8" inkscape:connector-curvature="0" d="M241.8,28.5c-0.8-0.3-81.3-11.3-160.9,40
			c-49.4,31.8-56,78.4-53.7,109.5C142.9,164.9,239.1,32.1,241.8,28.5z"/>
	</g>
</g>
</svg>
