<!-- Generator: Adobe Illustrator 28.1.0, SVG Export Plug-In . SVG Version: 6.00 Build 0)  -->
<svg version="1.1" id="Layer_1" xmlns="http://www.w3.org/2000/svg" xmlns:xlink="http://www.w3.org/1999/xlink" x="0px" y="0px"
	 viewBox="0 0 72 72" style="enable-background:new 0 0 72 72;" xml:space="preserve">
<g>
	<polygon points="36,7.2 18.3,24.9 24.8,31.4 36,20.2 47.2,31.4 53.7,24.9 	"/>
	<rect x="9.1" y="31.4" transform="matrix(0.7071 -0.7071 0.7071 0.7071 -21.4412 20.2391)" width="9.2" height="9.2"/>
	<polygon points="18.3,47.1 18.3,47.1 36,64.8 53.7,47.1 53.7,47.1 47.2,40.6 36,51.8 24.8,40.6 	"/>
	<rect x="53.7" y="31.4" transform="matrix(0.7071 -0.7071 0.7071 0.7071 -8.3857 51.7623)" width="9.2" height="9.2"/>
	<polygon points="42.6,36 42.6,36 42.6,36 36,29.4 31.1,34.3 30.6,34.8 29.4,36 29.4,36 29.4,36 36,42.6 	"/>
</g>
</svg>
