<!-- Generator: Adobe Illustrator 28.1.0, SVG Export Plug-In . SVG Version: 6.00 Build 0)  -->
<svg version="1.1" id="Layer_1" xmlns="http://www.w3.org/2000/svg" xmlns:xlink="http://www.w3.org/1999/xlink" x="0px" y="0px"
	 viewBox="0 0 378.75 220.25" style="enable-background:new 0 0 378.75 220.25;" xml:space="preserve">
<g>
	<path d="M123.54,104.74c-0.28-7.64-0.15-15.3-0.07-22.94c43.97,0.13,87.94,0.03,131.91,0.05c0.01,7.61,0.01,15.21,0,22.81
		C211.43,104.71,167.48,104.56,123.54,104.74z M183.14,8.36h10.98c0.09,3.73,0.08,7.45,0.06,11.18c3.67-0.01,7.35,0.01,11.02-0.02
		c0.03,3.66,0.03,7.32-0.08,10.98c-3.64,0-7.29,0.02-10.93,0c0,3.6-0.01,7.21,0.02,10.82c-3.62,0.23-7.24,0.18-10.86,0.15
		c-0.02-3.66-0.02-7.33-0.04-11c-3.68,0.05-7.35,0.03-11.02,0.04c-0.06-3.65-0.05-7.31-0.06-10.96c3.7-0.01,7.4-0.02,11.09,0
		C183.24,15.82,183.57,12.07,183.14,8.36L183.14,8.36z M274.42,57.96c0,10.56-8.56,19.12-19.12,19.12l0,0
		c-10.56,0-19.12-8.56-19.12-19.12s8.56-19.12,19.12-19.12S274.42,47.39,274.42,57.96z M230.47,57.96
		c0,10.56-8.56,19.12-19.12,19.12l0,0c-10.56,0-19.12-8.56-19.12-19.12s8.56-19.12,19.12-19.12S230.47,47.39,230.47,57.96z
		 M186.52,57.96c0,10.56-8.56,19.12-19.12,19.12l0,0c-10.56,0-19.12-8.56-19.12-19.12s8.56-19.12,19.12-19.12
		S186.52,47.39,186.52,57.96z M142.57,57.96c0,10.56-8.56,19.12-19.13,19.12l0,0c-10.56,0-19.12-8.56-19.12-19.12l0,0
		c0-10.56,8.56-19.12,19.12-19.12S142.57,47.39,142.57,57.96z"/>
	<path d="M221.01,124.11c18.28-0.06,36.56,0.12,54.84-0.09c5.77,15.69,10.82,31.65,16.27,47.46c0.45-0.71,1.09-1.31,1.32-2.14
		c5.21-15.09,10.54-30.14,15.8-45.22c18.38-0.02,36.76-0.03,55.14,0.01v87.66c-11.25,0.14-22.51,0.05-33.76,0.05
		c-0.02-20.18,0.1-40.37-0.06-60.56c-1.57,0.88-1.73,2.87-2.4,4.36c-6.53,18.75-13.23,37.44-19.76,56.19
		c-10.58,0-21.17,0.14-31.74-0.07c-6.63-19.17-13.49-38.25-20.18-57.39c-0.24-1.07-0.84-1.85-1.78-2.35
		c-0.03,19.94,0.01,39.89-0.01,59.84c-11.23,0-22.46,0-33.69-0.01C221.02,182.61,220.99,153.36,221.01,124.11z M14.38,124.11
		c11.1,0,22.2-0.01,33.31,0.01c0.02,10.62-0.02,21.25,0.01,31.88c11.01-10.54,21.77-21.33,32.78-31.87
		c11.19-0.03,22.38-0.03,33.57,0c-12.9,13.11-26.15,25.88-38.95,39.08c16.13,15.64,31.71,31.86,47.98,47.33
		c0.14-28.8,0.02-57.61,0.06-86.42c11.35-0.02,22.7-0.02,34.05,0c0,21.85-0.02,43.7,0,65.55c18.13-0.05,36.25,0.06,54.37-0.06
		c0.25,7.41,0.04,14.83,0.12,22.24c-44.06,0-88.13,0.04-132.19-0.02c-10.42-10.55-20.98-20.96-31.45-31.46
		c-0.15,10.51,0.02,21.01-0.09,31.52c-11.19-0.08-22.38,0.01-33.57-0.05L14.38,124.11z"/>
</g>
</svg>
