<!-- Generator: Adobe Illustrator 28.1.0, SVG Export Plug-In . SVG Version: 6.00 Build 0)  -->
<svg version="1.1" id="Layer_1" xmlns="http://www.w3.org/2000/svg" xmlns:xlink="http://www.w3.org/1999/xlink" x="0px" y="0px"
	 viewBox="0 0 72 72" style="enable-background:new 0 0 72 72;" xml:space="preserve">
<g>
	<path d="M13.7,52.3c-0.1-2.6-0.1-5.2,0-7.8c14.9,0,29.8,0,44.7,0c0,2.6,0,5.2,0,7.7C43.5,52.3,28.6,52.3,13.7,52.3z M33.9,19.7h3.7
		c0,1.3,0,2.5,0,3.8c1.2,0,2.5,0,3.7,0c0,1.2,0,2.5,0,3.7c-1.2,0-2.5,0-3.7,0c0,1.2,0,2.4,0,3.7c-1.2,0.1-2.5,0.1-3.7,0.1
		c0-1.2,0-2.5,0-3.7c-1.2,0-2.5,0-3.7,0c0-1.2,0-2.5,0-3.7c1.3,0,2.5,0,3.8,0C33.9,22.2,34,20.9,33.9,19.7L33.9,19.7z M64.8,36.5
		c0,3.6-2.9,6.5-6.5,6.5l0,0c-3.6,0-6.5-2.9-6.5-6.5c0-3.6,2.9-6.5,6.5-6.5S64.8,32.9,64.8,36.5z M49.9,36.5c0,3.6-2.9,6.5-6.5,6.5
		l0,0c-3.6,0-6.5-2.9-6.5-6.5c0-3.6,2.9-6.5,6.5-6.5S49.9,32.9,49.9,36.5z M35,36.5c0,3.6-2.9,6.5-6.5,6.5l0,0
		c-3.6,0-6.5-2.9-6.5-6.5c0-3.6,2.9-6.5,6.5-6.5S35,32.9,35,36.5z M20.2,36.5c0,3.6-2.9,6.5-6.5,6.5l0,0c-3.6,0-6.5-2.9-6.5-6.5l0,0
		c0-3.6,2.9-6.5,6.5-6.5S20.2,32.9,20.2,36.5z"/>
</g>
</svg>
