<!-- Generator: Adobe Illustrator 28.1.0, SVG Export Plug-In . SVG Version: 6.00 Build 0)  -->
<svg version="1.1" id="Layer_1" xmlns="http://www.w3.org/2000/svg" xmlns:xlink="http://www.w3.org/1999/xlink" x="0px" y="0px"
	 viewBox="0 0 360 180" style="enable-background:new 0 0 360 180;" xml:space="preserve">
<g>
	<path d="M206,53.9c15,0,30.1,0.1,45.1-0.1c4.7,12.9,8.9,26,13.4,39.1c0.4-0.6,0.9-1.1,1.1-1.8c4.3-12.4,8.7-24.8,13-37.2
		c15.1,0,30.2,0,45.4,0v72.1c-9.3,0.1-18.5,0-27.8,0c0-16.6,0.1-33.2,0-49.8c-1.3,0.7-1.4,2.4-2,3.6c-5.4,15.4-10.9,30.8-16.3,46.2
		c-8.7,0-17.4,0.1-26.1-0.1c-5.5-15.8-11.1-31.5-16.6-47.2c-0.2-0.9-0.7-1.5-1.5-1.9c0,16.4,0,32.8,0,49.2c-9.2,0-18.5,0-27.7,0
		C206,102.1,206,78,206,53.9z M36,53.9c9.1,0,18.3,0,27.4,0c0,8.7,0,17.5,0,26.2c9.1-8.7,17.9-17.6,27-26.2c9.2,0,18.4,0,27.6,0
		C107.4,64.7,96.5,75.2,86,86.1c13.3,12.9,26.1,26.2,39.5,38.9c0.1-23.7,0-47.4,0-71.1c9.3,0,18.7,0,28,0c0,18,0,36,0,53.9
		c14.9,0,29.8,0,44.7,0c0.2,6.1,0,12.2,0.1,18.3c-36.3,0-72.5,0-108.8,0c-8.6-8.7-17.3-17.2-25.9-25.9c-0.1,8.6,0,17.3-0.1,25.9
		c-9.2-0.1-18.4,0-27.6,0V53.9z"/>
</g>
</svg>
