<!-- Generator: Adobe Illustrator 28.1.0, SVG Export Plug-In . SVG Version: 6.00 Build 0)  -->
<svg version="1.1"
	 id="svg8" xmlns:svg="http://www.w3.org/2000/svg" xmlns:sodipodi="http://sodipodi.sourceforge.net/DTD/sodipodi-0.dtd" xmlns:inkscape="http://www.inkscape.org/namespaces/inkscape" xmlns:cc="http://creativecommons.org/ns#" xmlns:dc="http://purl.org/dc/elements/1.1/" xmlns:rdf="http://www.w3.org/1999/02/22-rdf-syntax-ns#"
	 xmlns="http://www.w3.org/2000/svg" xmlns:xlink="http://www.w3.org/1999/xlink" x="0px" y="0px" viewBox="0 0 72 72"
	 style="enable-background:new 0 0 72 72;" xml:space="preserve">
<sodipodi:namedview  bordercolor="#666666" borderopacity="1.0" id="base" inkscape:current-layer="layer1" inkscape:cx="70.447952" inkscape:cy="66.002304" inkscape:document-units="mm" inkscape:pageopacity="0.0" inkscape:pageshadow="2" inkscape:window-height="1016" inkscape:window-maximized="1" inkscape:window-width="1850" inkscape:window-x="70" inkscape:window-y="27" inkscape:zoom="3.3239458" pagecolor="#ffffff" showgrid="false">
	</sodipodi:namedview>
<g id="layer1" transform="translate(0,-260.773)" inkscape:groupmode="layer" inkscape:label="Layer 1">
	<g id="g1133" transform="matrix(0.35277777,0,0,0.35277777,111.58742,140.59444)">
	</g>
	<g id="g11533" transform="translate(-21.07066,138.86342)">
		<path id="path4252" inkscape:connector-curvature="0" d="M52.9,136.2c-0.8,0.1-2.9,0.5-2.9,0.5l0,0c-4.7,1.2-5.8,5.5-5.8,5.5
			c-0.2,0.7-0.3,1.4-0.4,2.1v0.9c0.1,1.5,0.4,2.5,0.4,2.5c1.6,6.9,9.3,18.4,10.9,20.7c0.1,0.1,0.2,0.1,0.2,0.1
			c0.2-0.1,0.2-0.2,0.2-0.2h0C58.1,143,52.9,136.2,52.9,136.2L52.9,136.2z M61.3,136.2c0,0-5.2,6.8-2.7,32.2h0
			c0,0.2,0.1,0.2,0.1,0.2c0.2,0.1,0.3-0.1,0.3-0.1l0,0c1.7-2.5,9.4-13.8,10.9-20.7c0,0,0.8-3.3,0-5.6c0,0-1.2-4.3-5.9-5.5
			C64.1,136.8,62.7,136.4,61.3,136.2L61.3,136.2z M37.1,143.9c0,0-4.5,4.2-4.7,8.7l0,0v0.7c0,0.1,0,0.1,0,0.2
			c0.2,3.6,2.9,5.8,2.9,5.8c4.4,4.3,15,9.7,17.5,10.9c0,0,0.2,0.1,0.2,0c0,0,0,0,0.1-0.1v-0.1c0,0,0,0,0,0l0,0
			C46.3,155.1,37.1,143.9,37.1,143.9L37.1,143.9z M77.1,143.9c0,0-9.2,11.2-16,25.9l0,0c0,0-0.1,0.2,0.1,0.3c0,0,0,0,0.1,0h0.1
			c0,0,0,0,0.1,0l0,0c2.5-1.3,13.1-6.6,17.5-10.9c0,0,2.8-2.2,2.9-5.8C82,148.4,77.1,143.9,77.1,143.9L77.1,143.9z M85.4,158.5
			c0,0-15,8.1-22.8,13.3l0,0l0,0c0,0-0.1,0.1-0.1,0.3c0,0,0.1,0.1,0.2,0.1l0,0c2.8,0,13.3,0,13.6,0c0,0,1.4-0.1,3.1-0.7
			c0,0,3.8-1.2,5.7-5.5c0,0,0.9-1.8,0.9-4.3v-0.1C85.9,160.7,85.7,159.6,85.4,158.5L85.4,158.5z M28.8,158.6
			c-1.4,4.2,0.5,7.7,0.5,7.7c1.9,4.1,5.6,5.3,5.6,5.3c1.7,0.7,3.4,0.7,3.4,0.7c0.3,0,10.5,0,13.3,0c0.1,0,0.2-0.1,0.2-0.1
			c0,0,0,0,0,0V172c0-0.1-0.1-0.1-0.1-0.1l0,0C43.8,166.6,28.8,158.6,28.8,158.6L28.8,158.6z M51.2,173.6l-17.7,0.6
			c1.9,3.4,5.2,6.1,8.5,5.3c2.3-0.6,7.6-4.3,9.3-5.5l0,0c0.1-0.1,0.1-0.2,0.1-0.2C51.4,173.6,51.2,173.6,51.2,173.6L51.2,173.6z
			 M62.9,173.6L62.9,173.6c0,0-0.2,0-0.2,0.1c0,0,0,0.2,0.1,0.2l0,0c1.7,1.2,6.8,4.8,9.3,5.5c0,0,0.4,0.1,1,0.1h0.4
			c1.7-0.1,4.5-0.9,7.2-5.4L62.9,173.6z"/>
	</g>
</g>
</svg>
