<!-- Generator: Adobe Illustrator 28.1.0, SVG Export Plug-In . SVG Version: 6.00 Build 0)  -->
<svg version="1.1"
	 id="svg2" xmlns:cc="http://creativecommons.org/ns#" xmlns:dc="http://purl.org/dc/elements/1.1/" xmlns:rdf="http://www.w3.org/1999/02/22-rdf-syntax-ns#" xmlns:svg="http://www.w3.org/2000/svg"
	 xmlns="http://www.w3.org/2000/svg" xmlns:xlink="http://www.w3.org/1999/xlink" x="0px" y="0px" viewBox="0 0 180 180"
	 style="enable-background:new 0 0 180 180;" xml:space="preserve">
<g>
	<path d="M172.8,82.97c-0.15-4.14-0.41-8.2-0.6-9.03c-0.19-0.83-0.68-3.2-1.13-5.27c-2.52-11.86-8.58-24.5-16.03-33.5
		c-9.9-11.93-22.51-18.71-41.59-22.28c-3.99-0.72-18.74-0.94-23.52-0.34c-2.07,0.26-4.59,0.68-5.65,0.9
		c-1.88,0.38-5.08,1.05-10.16,2.11c-3.39,0.68-10.65,2.9-13.55,4.1c-1.24,0.49-2.67,1.05-3.2,1.2c-2.86,0.9-11.74,5.38-15.24,7.68
		c-5.65,3.76-6.47,4.37-8.84,6.4c-10.76,9.22-18.14,20.44-21.72,32.97c-1.66,5.83-2.03,8.81-1.99,16.37
		c0,7.72,0.38,10.54,1.66,12.23c2.26,2.94,3.99,1.81,3.99-2.6c0-8.2,1.81-18.22,4.74-26.19c5.42-14.75,16.26-26.95,30.33-34.17
		c5.83-2.97,7.56-3.61,14.23-5.34c2.11-0.56,3.46-0.49,3.31,0.19c-0.08,0.38-2.94,1.84-7.34,3.73
		c-12.16,5.27-15.84,7.56-22.05,13.66c-8.66,8.47-13.62,16.75-16.86,28.11c-1.54,5.38-1.99,11.55-1.73,23.37
		c0.3,12.5,0.72,16.41,2.18,20.89c1.28,3.88,4.52,10.69,6.44,13.51c2.26,3.24,10.35,11.29,13.7,13.59c0.45,0.3,2.15,1.51,3.76,2.63
		c6.17,4.29,12.08,7.34,16.9,8.62c3.54,0.98,10.05,2.3,11.29,2.3c1.2,0,1.96,0.94,1.32,1.69c-0.53,0.64-3.91,0.75-6.77,0.23
		c-8.36-1.54-14.49-3.54-21.26-6.85c-7.49-3.69-15.66-10.84-22.32-19.61c-4.7-6.17-5.91-7.26-7-6.32
		c-2.11,1.73-0.04,8.47,4.63,15.05c4.18,5.87,12.72,13.51,18.67,16.67c12.42,6.62,27.78,9.33,42.91,7.6
		c12.04-1.43,22.62-4.63,33.5-10.24c2.37-1.2,3.31-1.81,7.08-4.33c0.6-0.41,1.81-1.24,2.75-1.88c2.6-1.77,9.97-9,12.46-12.23
		c9.45-12.38,14.53-23.45,16.33-35.49c1.02-6.7,0.38-22.81-1.2-31.43c-1.69-9-3.2-13.1-7.23-19.65c-2.71-4.37-3.24-5.04-7.08-8.88
		c-8.47-8.47-21.75-16.03-30.11-17.2c-7.3-1.02-8.17-1.2-8.96-1.92c-1.77-1.66-0.6-2.75,2.67-2.48c8.28,0.68,14.9,2.79,23.45,7.53
		c9.37,5.16,16.67,10.8,21.11,16.33c6.59,8.17,11.63,22.02,12.98,35.49c0.68,6.66,0.23,21.42-0.75,26.16
		c-2.11,10.01-3.5,14.3-6.85,21.04c-6.29,12.61-15.58,22.02-31.88,32.18c-2.11,1.35-2.9,2.37-2.56,3.31
		c0.19,0.49,0.64,0.56,2.22,0.38c3.8-0.41,8.99-3.19,15.24-7.75c4.19-3.05,4.2-3.21,6.77-5.38c2.05-1.73,11.33-10.69,14.08-14.23
		c5.53-7.19,8.54-12.87,10.8-20.4C171.97,106.5,173.18,95.73,172.8,82.97z M51.88,101.42c-0.53-0.34-1.02-0.56-1.05-0.49
		c-0.08,0.08-0.45,1.05-0.9,2.18c-5.42,13.89-6.93,16.48-8.81,14.79c-0.68-0.6-0.75-0.98-0.56-3.5c0.41-5.61,4.25-16.52,8.2-23.26
		c1.02-1.69,1.84-3.16,1.84-3.2c0-0.08-0.56-0.04-1.28,0.04c-1.02,0.11-1.39,0-1.73-0.64c-0.56-1.05-0.26-1.92,1.17-3.27
		c2.63-2.52,8.96-3.54,12.83-1.99c2.3,0.9,4.29,2.63,5.04,4.37c0.3,0.68,0.53,2.22,0.53,3.42c0,4.37-3.35,8.47-8.62,10.54
		C54.55,101.98,53.08,102.21,51.88,101.42z M88.35,100.32c2.33,0,6.44,0.11,9.11,0.19c3.46,0.11,5.42,0,6.7-0.38
		c3.31-0.94,3.27,1.09-0.04,2.71c-2.6,1.32-5.42,1.73-13.44,1.92c-4.7,0.15-8.05,0.41-9.79,0.83c-5.53,1.32-6.59,1.13-6.59-1.17
		c0-1.58,1.54-3.46,7.3-8.84c5.27-4.89,5.65-5.38,3.88-4.86c-1.69,0.49-5.31,0.41-6.47-0.11c-0.53-0.23-1.05-0.87-1.2-1.35
		c-0.41-1.66,0.79-2.18,5.61-2.52c2.33-0.15,5.01-0.41,5.95-0.56c2.79-0.45,3.35-0.41,4.18,0.41c0.98,0.98,0.75,2.15-0.9,4.44
		c-1.32,1.81-1.84,2.41-5.8,6.47l-2.71,2.79L88.35,100.32z M81.76,77.82c-0.53,0.75-1.43,2.15-2.03,3.09
		c-1.58,2.41-3.8,4.52-4.74,4.52c-1.09,0-2.18-1.05-2.18-2.15c0-2.37,2.6-5.42,6.21-7.23c2.45-1.28,3.31-1.32,3.5-0.3
		C82.59,76.12,82.25,77.07,81.76,77.82z M73.74,87.6c0.72-0.53,1.35-0.3,1.69,0.68c0.87,2.26,0.11,5.46-2.79,11.55
		c-1.17,2.45-2.11,4.7-2.11,5.08c0,1.73-2.03,2.11-3.42,0.6c-0.79-0.83-0.9-1.32-0.9-3.65c0-2.45,0.15-2.97,1.47-5.34
		C69.26,93.66,73.07,88.06,73.74,87.6z M84.85,119.56c-2.3,1.54-2.56,1.92-2.82,3.76c-0.15,0.98-0.49,2.75-0.75,3.88
		c-0.26,1.13-0.6,2.52-0.72,3.09c-0.41,1.77-1.99,3.31-3.46,3.31c-2.15,0-2.9-2.45-2.03-6.77c0.15-0.94,0.26-1.73,0.19-1.81
		c-0.04-0.04-1.77,0.45-3.8,1.17l-3.73,1.24l-1.17,4.7c-1.32,5.27-1.96,6.7-3.39,7.83c-1.28,1.02-2.48,1.02-3.39,0
		c-0.9-1.02-0.9-5.31,0-7.98c1.02-2.97,0.87-3.5-0.98-3.76c-2.03-0.26-3.54-1.77-2.94-2.9c0.53-1.02,2.03-1.73,4.82-2.3
		c2.03-0.41,2.41-0.64,2.6-1.47c0.3-1.28,3.95-8.28,5.38-10.35c2.15-3.12,3.8-4.06,4.33-2.48c0.3,0.94-0.98,6.21-2.22,9.41
		c-0.56,1.35-0.98,2.6-0.98,2.79c0,0.38,1.81,0.11,4.97-0.75c2.11-0.56,2.11-0.56,2.97-2.9c1.39-3.73,3.54-7.87,4.67-9
		c1.17-1.13,2.33-1.32,2.71-0.41c0.11,0.34-0.23,2.41-0.79,4.63c-1.2,4.78-1.24,5.49-0.3,5.12c0.34-0.15,1.05-0.38,1.51-0.49
		C86.92,116.81,86.46,118.5,84.85,119.56z M103.78,116.88c-0.3,2.26-0.45,5.16-0.34,6.44c0.15,1.88,0.08,2.33-0.41,2.52
		c-0.98,0.38-2.82-0.98-3.76-2.75c-0.49-0.94-0.94-1.73-1.02-1.81c-0.08-0.11-0.98,0.72-1.96,1.77c-3.2,3.42-6.81,4.63-8.81,2.97
		c-0.79-0.68-0.94-1.09-0.9-2.94c0-1.24,0.38-3.09,0.9-4.52l0.9-2.41l-0.87-0.68c-1.05-0.87-0.64-1.62,1.13-1.99
		c1.73-0.34,2.94,0.11,3.54,1.32c0.64,1.2,0.75,3.99,0.19,5.38c-0.49,1.35-0.08,1.24,2.37-0.68c2.3-1.77,4.29-3.99,5.83-6.44
		c1.09-1.73,1.47-2.07,2.56-2.07c0.56,0,0.87,0.26,0.98,0.87C104.23,112.37,104.04,114.63,103.78,116.88z M116.65,111.47
		c-1.35,0.53-1.54,0.79-2.26,2.97c-0.45,1.32-1.09,3.09-1.47,3.91c-0.38,0.83-1.09,2.82-1.58,4.44c-1.99,6.25-2.94,7.49-3.91,5.16
		c-0.68-1.62-0.26-6.47,0.87-10.91c0.98-3.76,0.9-4.14-0.79-4.14c-1.17,0-2.79-1.66-2.45-2.52c0.49-1.43,0.94-1.62,3.65-1.62h2.75
		l1.77-2.79c2.18-3.5,3.73-4.89,4.78-4.37c0.45,0.26,0.72,0.79,0.72,1.51c0,0.6-0.3,1.69-0.64,2.45c-0.34,0.72-0.53,1.43-0.38,1.54
		c0.11,0.15,1.66-0.11,3.39-0.53c4.1-1.05,7.23-1.43,7.56-0.9C129.14,106.46,126.28,107.81,116.65,111.47z M132.83,91.41
		c-0.49,0.79-3.27,1.92-4.82,1.92c-0.83,0-2.03-0.26-2.75-0.6c-1.17-0.56-1.32-0.56-2.37,0.19c-2.45,1.77-5.83,3.09-7.64,2.97
		c-0.94-0.04-1.96,0.11-2.26,0.34c-2.37,1.92-5.68,2.75-11.37,2.79c-2.11,0-4.59,0.15-5.57,0.3c-3.05,0.49-3.73-0.72-1.96-3.5
		c0.83-1.28,5.65-5.72,9.18-8.47c0.53-0.41,0.87-0.79,0.75-0.9c-0.11-0.11-1.35,0-2.82,0.19c-1.43,0.19-3.16,0.26-3.88,0.11
		c-1.47-0.26-2.71-1.39-2.71-2.41c0-1.35,1.02-1.92,3.5-1.92c1.28,0,3.5-0.26,4.97-0.56c1.43-0.3,3.65-0.56,4.86-0.56
		c2.71,0,3.61,0.64,3.61,2.52c0,1.17-0.53,1.84-4.55,5.95c-2.48,2.56-4.4,4.7-4.22,4.82c0.64,0.34,6.36,0.6,7.6,0.34l1.32-0.3
		l-0.11-2.07c-0.08-1.81,0.08-2.3,1.2-3.91c1.66-2.45,5.12-5.23,7.79-6.29c1.13-0.45,3.35-0.94,4.89-1.05
		c1.54-0.15,3.01-0.26,3.24-0.3c0.19-0.04,0.56,0.11,0.83,0.38c0.64,0.64,0.56,2.11-0.3,4.59c-0.75,2.07-0.75,2.22-0.15,2.9
		c0.34,0.41,1.02,0.72,1.47,0.72C131.7,89.56,133.21,90.8,132.83,91.41z M107.28,43.19c0.75,0.49,1.24,1.77,1.69,4.44
		c0.23,1.43,0.75,3.42,1.09,4.48l0.64,1.88l7.87,2.67c8.13,2.75,9.26,3.2,15.05,6.02c4.22,2.03,5.23,3.01,4.86,4.63
		c-0.3,1.35-2.07,2.48-3.31,2.15c-0.41-0.11-7.41-0.04-15.47,0.19c-13.7,0.34-29.62,1.32-35.79,2.22c-1.43,0.23-4.59,0.64-6.96,0.94
		c-4.55,0.56-9,1.17-18.07,2.45c-3.01,0.41-6.74,0.94-8.28,1.13c-1.54,0.23-4.4,0.64-6.32,0.98c-3.2,0.53-3.61,0.53-4.44-0.04
		c-1.02-0.64-0.98-0.64-0.68-1.47c0.72-1.88,14.3-9.6,23.86-13.59c2.37-1.02,4.55-1.96,4.82-2.18c0.26-0.19,2.11-2.79,4.06-5.76
		c2.45-3.69,3.88-5.46,4.4-5.57c0.45-0.08,3.88-0.79,7.6-1.54c3.73-0.75,7.3-1.43,7.9-1.54c0.64-0.11,3.35-0.68,6.02-1.28
		C104.45,42.93,106.52,42.67,107.28,43.19z"/>
	<path d="M121.92,86.14c-1.47,0.64-4.33,3.42-4.33,4.18c0,0.6,0.68,0.45,3.24-0.75c1.88-0.87,2.45-1.32,2.63-2.15
		c0.15-0.56,0.41-1.28,0.64-1.54C124.63,85.2,123.72,85.31,121.92,86.14z"/>
	<path d="M61.47,92.76c0.3-1.17,0.26-1.66-0.34-2.79c-0.38-0.79-1.17-1.62-1.77-1.92c-1.2-0.56-4.14-1.09-4.44-0.83
		c-0.11,0.11-0.19,0.72-0.19,1.32c0,0.6-0.75,3.35-1.69,6.13c-1.92,5.65-1.96,5.95-1.02,5.46c0.34-0.19,1.73-0.79,3.05-1.39
		C58.05,97.39,60.91,94.72,61.47,92.76z"/>
	<path d="M15.75,110.64c-0.41-3.95-1.66-5.61-4.44-5.91c-1.54-0.19-1.81-0.11-2.79,0.94c-1.28,1.35-1.66,3.58-1.2,6.81
		c0.72,5.04,1.88,7.26,4.52,8.58c2.03,1.05,3.42,1.09,4.33,0.11c0.6-0.64,0.6-1.05,0.23-4.59
		C16.16,114.44,15.86,111.77,15.75,110.64z"/>
	<polygon points="148.35,151.03 149.54,151.03 149.54,154.11 150.01,154.11 150.01,151.03 151.2,151.03 151.2,150.62 148.35,150.62 
			"/>
	<path d="M153.6,153.05c-0.09,0.25-0.15,0.43-0.19,0.56c-0.04-0.11-0.09-0.29-0.17-0.52l-0.85-2.48h-0.71v3.5h0.46v-2.98l1.04,2.98
		h0.43l1.04-2.93v2.93h0.46v-3.5h-0.64L153.6,153.05z"/>
</g>
</svg>
