<!-- Generator: Adobe Illustrator 28.1.0, SVG Export Plug-In . SVG Version: 6.00 Build 0)  -->
<svg version="1.1" id="Layer_1" xmlns="http://www.w3.org/2000/svg" xmlns:xlink="http://www.w3.org/1999/xlink" x="0px" y="0px"
	 viewBox="0 0 239.04 98.41" style="enable-background:new 0 0 239.04 98.41;" xml:space="preserve">
<g id="Cutter">
</g>
<g>
	<path d="M126.06,39.31c-3.16,0.54-7.15,3.35-10.07,7.58c-1.65,2.4-2.83,4.82-3.16,7.58c0.89-0.23,2.48-0.54,4.97-2.21
		c5.44-3.65,9.65-9.33,10.25-11.89c0.12-0.45,0.12-0.82,0.15-1.01C127.5,39.2,126.94,39.16,126.06,39.31z"/>
	<path d="M227.76,32.27c-0.75-0.02-1.39,0.24-1.92,0.78c-0.53,0.53-0.79,1.18-0.78,1.93c0,0.76,0.26,1.41,0.79,1.95
		c0.53,0.55,1.18,0.81,1.93,0.83c0.76,0,1.4-0.26,1.93-0.79c0.52-0.53,0.79-1.18,0.78-1.95c0-0.75-0.27-1.4-0.81-1.93
		C229.16,32.55,228.52,32.27,227.76,32.27z M228.63,36.74c0-0.01,0-0.02,0-0.03c-0.01-0.02-0.01-0.02-0.01-0.04l-0.02-0.12v-0.28
		c0.01-0.41-0.12-0.67-0.33-0.81c-0.12-0.07-0.36-0.11-0.67-0.11l-0.49,0v1.38l-0.61-0.01l-0.01-3.49l1.22,0.01
		c0.42,0,0.74,0.05,0.95,0.14c0.36,0.15,0.54,0.45,0.54,0.88c0,0.31-0.11,0.54-0.34,0.69c-0.12,0.07-0.28,0.13-0.5,0.17
		c0.27,0.04,0.46,0.15,0.6,0.34c0.13,0.18,0.19,0.36,0.19,0.54l0.01,0.25c0,0.09,0,0.18,0.02,0.26c0,0.09,0.01,0.15,0.03,0.18
		l0.02,0.04L228.63,36.74z"/>
	<path d="M235.31,30.51c1.69-1.73,3.09-5.14,2-9.55c-1.14-4.6-6.04-9.34-11.31-10.9c-4.12-1.22-8.27-1.01-12.14,0.56
		C190.66,0.32,151.27-2.83,109.78,2.69c-15.24,2.03-29.85,5.07-43.2,8.94c-1.69-1.19-3.67-2.1-5.67-2.47
		c-3.34-0.61-6.02-0.44-8.68,0.55c-3.29,1.22-5.18,3.1-7.98,6.06c-1.76,1.86-3.54,3.84-5.33,5.93c-2.52,1.14-4.95,2.31-7.27,3.53
		C8.97,37.05-2.15,51.11,0.34,64.85c0.6,3.32,1.98,6.45,4.07,9.37c-0.63,1.35-1.12,2.54-1.43,3.48c-1.22,3.7-1.1,6.85,0.39,9.64
		c1.77,3.34,5.61,6.26,8.9,7.2c5.06,1.44,9.17-0.97,11.03-6.46c5.94,2.59,12.94,4.75,20.93,6.4c22.99,4.79,52.28,5.21,82.46,1.2
		c30.17-4,57.91-12.02,78.14-22.54c20.56-10.71,31.63-23.3,31.63-35.8c0-1.28-0.12-2.54-0.35-3.8
		C235.91,32.5,235.64,31.5,235.31,30.51z M97.55,73.18c-0.51,2.32-2.42,4.04-5.19,4.9c-2.68,0.83-5.9,0.74-8.41-0.24
		c-4.52-1.76-7-6.66-7.76-12.6c-0.28-2.18-0.4-5.02-0.4-8.23c0-3.72,0.16-7.22,0.48-10.89c-5.86,7.14-14.08,18.45-22.23,33.97
		c-1.26,2.39-2.59,3.45-4.47,3.84c-2.11,0.43-4.68-0.12-7.03-1.53c-2.94-1.76-4.24-4.72-4.36-8.83l-0.07-1.82
		c0-3.86,0.82-10.37,2.44-19.33c0.45-2.49,0.79-4.1,1.33-6.69c-9.82,13.63-18.08,29.4-21.77,40.42c-0.41,1.22-0.93,2.25-1.56,3.1
		c0,0-0.01,0.01-0.01,0.01c-0.14,0.18-0.28,0.36-0.43,0.52c-0.01,0.01-0.02,0.02-0.02,0.03c-0.14,0.16-0.29,0.31-0.44,0.45
		c-0.02,0.01-0.03,0.03-0.05,0.04c-0.15,0.13-0.3,0.26-0.45,0.38c-0.02,0.02-0.05,0.03-0.07,0.05c-0.15,0.11-0.3,0.21-0.46,0.31
		c-0.03,0.02-0.07,0.04-0.1,0.05c-0.15,0.09-0.31,0.17-0.47,0.24c-0.04,0.02-0.09,0.03-0.13,0.05c-0.15,0.07-0.31,0.13-0.47,0.18
		c-0.05,0.02-0.11,0.03-0.16,0.05c-0.15,0.04-0.31,0.09-0.46,0.12c-0.06,0.01-0.13,0.02-0.2,0.03c-0.15,0.03-0.3,0.05-0.46,0.07
		c-0.07,0.01-0.15,0.01-0.23,0.01c-0.15,0.01-0.31,0.02-0.46,0.02c-0.08,0-0.17-0.01-0.25-0.01c-0.16-0.01-0.31-0.01-0.47-0.03
		c-0.08-0.01-0.16-0.02-0.23-0.04c-0.17-0.02-0.34-0.05-0.52-0.08c0,0,0,0,0,0c-0.25-0.05-0.51-0.11-0.77-0.19
		c-2.62-0.75-4.82-2.26-6.28-5.01c-0.96-1.81-1.22-3.78-0.84-5.98c0.12-0.73,0.32-1.49,0.58-2.28c0-0.01,0.01-0.01,0.01-0.02
		c0.11-0.33,0.24-0.69,0.4-1.08c0.01-0.02,0.01-0.03,0.02-0.05c0.16-0.4,0.34-0.83,0.55-1.29c0,0,0-0.01,0-0.01c0,0,0,0,0,0
		c3.2-7.22,11.5-21.04,16.86-29.13c7.23-10.92,14.08-19.76,20.25-26.64c0,0,0,0,0,0c0.04-0.05,0.09-0.1,0.13-0.15
		c0.14-0.15,0.27-0.3,0.41-0.45c0.77-0.85,1.52-1.67,2.27-2.45c2.88-3.04,4.47-4.56,7.32-5.62c2.54-0.95,4.93-0.98,7.74-0.47
		c0.36,0.07,0.71,0.15,1.05,0.24c0.21,0.06,0.42,0.13,0.62,0.2c0.12,0.04,0.24,0.07,0.35,0.11c0.3,0.11,0.59,0.23,0.87,0.36
		c0.01,0.01,0.03,0.01,0.05,0.02c0.29,0.14,0.56,0.28,0.83,0.44c0.01,0,0.02,0.01,0.03,0.01c0,0,0,0,0,0
		c1.2,0.71,2.19,1.63,2.86,2.73c1.26,2.05,1.26,4.72,0.27,7.42c-1.46,3.99-3.91,10.4-6.24,19.05c5.52-7.13,11.93-14.49,16.97-19.1
		c2.02-1.85,3.4-2.97,4.95-3.63c2.43-1.03,5.67-1.01,8.76,0.21c4.4,1.73,6.32,5.1,5.07,9.7c-1.66,6.09-2.65,11.97-3.22,18.65
		c-0.51,5.96-0.36,11.18,0.24,14.64c0.31,1.78,0.72,3.35,1.87,5.35C96.69,68.67,98.11,70.66,97.55,73.18z M152.5,57.7
		c-2.99,3.91-7.91,7.66-12.23,9.04c-4.54,1.46-9,0.87-11.45-3.19c-0.41-0.69-0.58-1.16-0.9-2.07c-9.91,10.6-21.16,13.45-27.47,7.87
		c-2.93-2.59-4.49-6.05-4.58-11.09c-0.12-6.81,3.01-14.34,8.13-20.7c6.81-8.46,16.08-13.6,23.52-13.07c3.41,0.24,6.4,1.85,8.51,4.48
		c2.2-1.08,4.29-1.3,5.98-1.06c1.97,0.28,3.51,1.35,4.35,2.67c0.55,0.86,0.85,2.03,0.85,2.97c0,1.35-0.36,2.79-1.12,4.8
		c-0.79,2.08-1.81,5.09-2.73,9.01c0.2-0.16,0.53-0.46,0.64-0.55c2.8-2.41,6.44-2.76,8.92-0.24C155.04,48.75,156.19,52.88,152.5,57.7
		z M178.6,44.37c-2.03,3.34-3.35,6.16-4.31,8.38c0,0-1.09,2.61-1.11,2.64c0,0-0.18,0.37-0.18,0.36c-0.91,2.26-1.91,4.65-4.36,6.25
		c-3.73,2.43-9.49,2.32-12.04-1.57c-0.68-1.03-1.02-2.22-0.96-3.58c0.07-1.43,0.52-2.84,1.38-4.45c1.18-2.32,1.69-3.92,2.28-5.77
		c-2.31,0.58-5.19-0.35-6.84-2.34c-2.5-3-2.23-6.86-0.34-9.83c1.64-2.58,4.8-5.83,8.48-8.6c2-1.5,4.17-2.82,6.66-3.41
		c3.16-0.76,6.42,0.09,8.2,2.88c1.01-1.11,2.08-2.28,3.12-3.21c4.11-3.66,7.6-5.54,12.19-5.98h0c4.39-0.42,7.74,1.21,9.71,3.65
		c1.32,1.64,2.09,3.91,2.21,6.24c0.11,1.97-0.34,3.92-1.37,5.39c-0.9,1.31-2.23,2.08-3.52,2.18c-0.84,0.06-1.28-0.03-1.89-0.29
		c-0.79-0.34-0.87-0.58-1.89-0.94c-0.9-0.33-1.98-0.31-3.08-0.04C186.99,33.3,183.45,36.36,178.6,44.37z M230.03,37.27
		c-0.61,0.63-1.37,0.92-2.23,0.92c-0.89-0.01-1.62-0.33-2.23-0.95c-0.62-0.63-0.93-1.38-0.93-2.27c-0.01-0.87,0.31-1.62,0.92-2.23
		c0.61-0.61,1.34-0.92,2.22-0.91c0.87,0.01,1.63,0.33,2.24,0.95c0.62,0.62,0.94,1.37,0.94,2.25
		C230.95,35.91,230.65,36.66,230.03,37.27z M234.33,23.64c-0.01,0.08-0.03,0.16-0.04,0.25c-0.03,0.24-0.07,0.47-0.11,0.69
		c-0.03,0.13-0.06,0.25-0.09,0.38c-0.04,0.17-0.09,0.34-0.15,0.5c-0.04,0.12-0.08,0.25-0.12,0.36c-0.08,0.22-0.17,0.42-0.27,0.62
		c-0.29,0.6-0.65,1.12-1.05,1.53c-1.11,1.13-2.57,1.74-4.35,1.43c-1.65-0.28-2.67-1.43-3.9-2.93c-0.91-1.12-2.13-1.76-3.33-1.15
		c-1.43,0.73-1.73,2.49-0.38,5.95c2.92,7.43,3.6,14.22-0.75,20.47c-3.52,5.05-9.58,8.33-15.67,8.85c-8.25,0.7-14.42-2.47-17.41-8.21
		c-1.21-2.32-1.61-5.14-1.17-7.29c0.51-2.53,2.3-4.71,4.46-5.47c2.23-0.78,4.18-0.2,5.89,1.69c1.2,1.33,1.86,2.68,3.32,3.47
		c1.24,0.67,2.62,0.78,3.95,0.25c1.93-0.77,3.05-2.39,3.08-4.91c0-1.96-0.62-3.95-1.17-5.66c-0.78-2.4-1.14-4.66-1.14-6.78
		c0.01-2,0.35-3.94,0.97-5.59c1.47-3.94,4.24-7.02,7.63-8.91c1.17-0.65,2.39-1.14,3.64-1.5c0,0,0,0,0,0
		c0.02-0.01,0.04-0.01,0.06-0.02c0.71-0.2,1.44-0.36,2.17-0.46c0.02,0,0.04-0.01,0.06-0.01c0.31-0.04,0.62-0.07,0.93-0.1
		c0.18-0.01,0.35-0.02,0.53-0.03c0.27-0.01,0.54-0.03,0.8-0.03c0.43,0,0.86,0.02,1.29,0.05c0.16,0.01,0.33,0.04,0.5,0.06
		c0.35,0.04,0.71,0.09,1.06,0.15c0.15,0.03,0.3,0.05,0.45,0.08c0.49,0.1,0.99,0.22,1.48,0.36c1.57,0.46,3.03,1.21,4.3,2.17
		c2.11,1.59,3.67,3.75,4.26,6.15c0,0.02,0.01,0.03,0.01,0.05c0.09,0.37,0.15,0.73,0.2,1.08c0.02,0.12,0.03,0.24,0.04,0.35
		c0.03,0.26,0.05,0.52,0.05,0.77c0,0.11,0.01,0.23,0.01,0.34C234.38,23,234.37,23.32,234.33,23.64z"/>
	<path d="M228.6,34.32c0-0.25-0.07-0.42-0.23-0.51c-0.15-0.09-0.4-0.13-0.73-0.13l-0.52,0v1.26l0.54,0.01
		c0.26,0,0.46-0.02,0.58-0.07C228.48,34.77,228.61,34.59,228.6,34.32z"/>
	<path d="M230.29,20.85c-0.54-2.4-2.64-4.58-5.88-5.57c-6.31-1.94-13.54,1.36-16.07,8.13c-1.05,2.8-0.97,6.31,0.23,9.9
		c0.8,2.41,1.66,5.34,1.26,8.41c-0.51,3.93-3.25,6.42-6.68,7.13c-3.77,0.78-6.98-0.68-9.35-4.24c-0.91-1.36-1.52-1.87-2.58-1.5
		c-0.9,0.32-1.8,1.44-2.06,2.72c-0.27,1.34,0.09,3.11,0.83,4.37c2.58,4.43,8.04,6.58,13.79,5.98c5.35-0.55,9.95-3.25,12.67-7
		c3.13-4.32,3.42-9.96,0.88-16.63c-2.07-5.42-1.47-9.1,1.6-10.82c2.41-1.29,5.47-0.54,7.29,2.12c0.8,1.17,1.22,1.5,1.86,1.6
		c1.28,0.2,2.82-1.3,2.27-4.36C230.33,21.01,230.31,20.93,230.29,20.85z"/>
	<path d="M194.78,29.13c0.76,0.57,1.25,0.78,1.91,0.68c0.57-0.09,0.97-0.4,1.31-0.88c1.26-1.8,1.1-5.03-0.33-6.75
		c-1.54-1.84-3.59-2.67-6.54-2.38c-3.32,0.32-6.38,1.68-10.06,5.05c-2.59,2.37-4.93,5.32-6.29,7.37c-0.41,0.62-0.77,1.14-1.19,1.09
		c-0.44-0.05-0.38-0.78-0.35-1.23c0.1-2.01-0.12-3.89-1.12-5.1c-0.98-1.19-2.62-1.27-3.99-0.94c-1.86,0.45-3.47,1.4-5.29,2.77
		c-3.27,2.45-6.1,5.27-7.6,7.63c-1.32,2.07-1.03,3.95,0,4.93c1.09,1.03,2.67,0.73,4.49-1.1c0.73-0.74,1.9-1.79,2.62-2.25
		c0.42-0.27,1.2-0.81,1.76-0.6c0.62,0.23,0.53,1.43,0.51,1.95c-0.11,2.61-1.67,9.54-4.27,14.65c-1.12,2.11-1.17,3.15-0.57,3.98
		c0.89,1.24,4.03,1.39,6.4-0.15c1.75-1.14,2.5-2.86,3.28-4.4c1.16-2.31,2.66-6.28,5.64-11.2c4.71-7.77,9.49-13.01,15.25-13.87
		C192.47,28.07,193.81,28.39,194.78,29.13z"/>
	<path d="M146.41,49.61c-0.99,0.81-2.85,2.59-3.84,3.11c-1.75,0.92-2.78,0.92-3.48,0.28c-0.6-0.54-0.65-1.81-0.3-3.89
		c0.58-3.43,2.48-9.68,3.55-12.36c1.17-2.92,1.14-3.55,0.76-4.23c-0.28-0.51-0.91-0.85-1.58-0.94c-1.18-0.17-2.69,0.1-3.72,0.66
		c-0.77,0.42-1.48,0.95-2.11,1.75c-0.24,0.3-0.44,0.42-0.66,0.39c-0.23-0.04-0.35-0.34-0.46-0.61c-1.24-3.21-3.91-5.33-7.39-5.58
		c-5.81-0.42-13.98,3.83-20.3,11.67c-6.82,8.48-10.31,20.61-4.3,25.66c3.82,3.2,10.86,2.58,19.19-4.02
		c2.22-1.76,5.34-4.82,7.19-6.87c0.42-0.47,1.12-1.37,1.55-1.01c0.22,0.18,0.14,0.68,0.12,0.92c-0.24,2.78,0.13,5.21,1.24,6.72
		c1.57,2.11,4.15,2.17,7.07,1.23c3.85-1.24,7.7-4.1,10.39-7.36c1.82-2.2,2.34-4.53,0.83-6.06C149.26,48.14,147.8,48.46,146.41,49.61
		z M119.86,55.34c-4.43,2.96-7.9,3.7-9.64,2.18c-2.13-1.87-1.52-7.38,2.33-12.96c3.81-5.53,9.68-9.35,13.48-9.36
		c1.7-0.01,3.02,0.55,4.14,1.69c0.92,0.93,1.48,1.96,1.6,3.08C132.13,42.78,126.88,50.63,119.86,55.34z"/>
	<path d="M90.16,62.58c-0.86-4.16-0.95-9.64-0.47-15.55c0.49-6,1.49-12.42,3.07-18.4c0.93-3.5,0.61-5.14-2.15-6.23
		c-2.04-0.8-4.32-0.94-5.98-0.24c-1.03,0.43-2.16,1.35-3.89,2.95C73.78,31.5,63.4,43.94,56.63,54.36c-0.77,1.07-1.27,1.79-1.93,2.77
		c-0.31,0.48-0.58,0.76-0.76,0.73c-0.24-0.04-0.24-0.49-0.16-1.09c0.13-0.99,0.18-1.47,0.35-2.46c1.97-11.61,6.75-26.75,9.65-33.54
		c0.55-1.29,0.8-2.45,0.28-3.68c-0.47-1.11-1.91-2.13-4.14-2.56c-4.45-0.86-7.23,0.6-9.33,2.62c-6.04,5.79-15.63,17.36-25.03,31.57
		c-6.39,9.66-15.62,25.37-17.38,30.7c-0.56,1.68-0.26,2.99,0.25,3.9c0.79,1.4,2.35,2.63,3.97,3.14c1.69,0.53,3.43-0.05,4.17-2.36
		c5.07-15.65,18-37,29.71-50.93c0.51-0.61,0.75-0.89,1.15-1.3c0.45-0.44,0.87-0.75,1.21-0.58c0.27,0.13,0.24,0.56,0.1,1.12
		c-0.21,0.82-0.2,0.74-0.43,1.62c-1.34,5.06-2.92,12.34-4.13,19.06c-1.55,8.59-2.6,16.22-2.34,19.89c0.15,2.07,0.89,3.88,2.92,5.09
		c3.22,1.92,5.09,1.1,6.48-1.5c9.65-18.05,19.64-31.18,27.34-39.42c0.75-0.84,1.15-1.2,1.49-1.47c0.41-0.28,0.7-0.33,0.9-0.2
		c0.25,0.16,0.25,0.58,0.2,0.95c-0.08,0.6-0.09,0.73-0.2,1.44c-1.61,10.46-1.96,20.38-1.12,26.9c0.55,4.23,1.92,7.15,4.9,8.32
		c1.71,0.67,4.06,0.75,5.96,0.15c1.42-0.44,2.43-1.21,2.69-2.26c0.3-1.19-0.61-2.38-1.59-3.97C91.18,65.95,90.54,64.39,90.16,62.58z
		"/>
</g>
</svg>
