<!-- Generator: Adobe Illustrator 28.1.0, SVG Export Plug-In . SVG Version: 6.00 Build 0)  -->
<svg version="1.1"
	 id="svg4" xmlns:svg="http://www.w3.org/2000/svg" xmlns:sodipodi="http://sodipodi.sourceforge.net/DTD/sodipodi-0.dtd" xmlns:inkscape="http://www.inkscape.org/namespaces/inkscape" xmlns:cc="http://creativecommons.org/ns#" xmlns:dc="http://purl.org/dc/elements/1.1/" xmlns:rdf="http://www.w3.org/1999/02/22-rdf-syntax-ns#"
	 xmlns="http://www.w3.org/2000/svg" xmlns:xlink="http://www.w3.org/1999/xlink" x="0px" y="0px" viewBox="0 0 360 180"
	 style="enable-background:new 0 0 360 180;" xml:space="preserve">
<sodipodi:namedview  bordercolor="#666666" borderopacity="1" gridtolerance="10" guidetolerance="10" id="namedview6" inkscape:current-layer="svg4" inkscape:cx="699.17404" inkscape:cy="129.49666" inkscape:pageopacity="0" inkscape:pageshadow="2" inkscape:window-height="705" inkscape:window-maximized="1" inkscape:window-width="1366" inkscape:window-x="-8" inkscape:window-y="-8" inkscape:zoom="0.51911765" objecttolerance="10" pagecolor="#ffffff" showgrid="false">
	</sodipodi:namedview>
<path id="path1460" inkscape:connector-curvature="0" d="M109.2,91.2v-33h5.2h5.2v2.2c0,1.2,0,2.2,0,2.2c0,0,0.7-0.4,1.4-0.9
	c9.1-5.7,22.4-7.4,34.2-4.4c10.7,2.7,18.5,9.1,21.2,17.4c1.6,4.9,1.5,10.3-0.2,15.1c-2.2,5.9-6.7,10.6-13.2,13.9
	c-5.7,2.8-12.2,4.3-19.5,4.3c-6.1,0-11.7-1-16.7-3c-2-0.8-4.5-2.1-6-3.1l-1.2-0.8v11.6v11.6h-5.2h-5.2L109.2,91.2L109.2,91.2z
	 M148.4,99.1c5.8-0.8,10.3-2.7,13.7-5.6c2.6-2.2,4.3-5.3,5-8.7c0.3-1.4,0.3-4.6,0-6c-0.8-4-3.1-7.4-6.5-9.9c-1.4-1-4.2-2.4-5.9-3
	c-5-1.7-11.1-2.2-16.7-1.4c-9.7,1.4-16.2,6.2-18,13.2c-0.8,3.1-0.6,6.4,0.4,9.3c2.3,6.6,9.2,11,18.9,12.1
	C141.2,99.4,146.6,99.4,148.4,99.1L148.4,99.1z M182.6,91.2v-33h5.2h5.2v2.2c0,1.2,0,2.2,0,2.2c0,0,0.6-0.4,1.3-0.8
	c1.5-1,4.6-2.5,6.5-3.2c8.4-3.1,18.7-3.6,27.7-1.4c14.7,3.7,23.3,13.8,22.5,26.2c-0.6,9.5-7,17.4-17.4,21.5
	c-3.4,1.3-6.9,2.2-11.3,2.7c-2.3,0.3-8.5,0.3-10.9,0c-6.8-0.8-12.8-2.8-17.4-5.9l-1-0.6v11.6v11.6h-5.2h-5.2L182.6,91.2L182.6,91.2z
	 M222,99.1c8-1.2,13.7-4.4,16.7-9.5c1.7-3,2.4-6.9,1.7-10.5c-1.3-7.6-8-12.8-18.2-14.3c-6.7-1-14.3,0-19.5,2.5
	c-5.3,2.6-8.5,6.4-9.5,11.6c-0.3,1.4-0.3,4.8,0,6.1c0.8,3.6,2.5,6.5,5.1,8.7c3.6,3,8.4,4.9,14.5,5.6C214.8,99.4,220,99.4,222,99.1
	L222,99.1z M66.7,107.8c-5.5-0.5-10.1-1.6-14.1-3.3c-9-3.9-14.7-10.4-16.3-18.6c-0.3-1.6-0.4-5.1-0.2-6.8
	c1.1-9.8,8.4-17.6,19.8-21.3c6.1-2,13.6-2.6,20.3-1.7C88.6,57.7,98,63.5,102.1,72c3.3,6.9,2.9,15.3-1.1,21.8
	c-1.8,2.9-4.8,5.9-7.9,7.9c-4.8,3.1-10.5,5.1-17.4,5.9C74.3,107.8,68,107.9,66.7,107.8L66.7,107.8z M74,99.2
	c5.4-0.6,9.9-2.1,13.3-4.5c2.8-2,5-4.9,6-7.9c0.6-1.8,0.7-2.6,0.7-5c0-2.4-0.1-3.2-0.7-5c-1.9-5.8-7.4-10.1-15.1-11.8
	c-6.8-1.5-14.6-1-20.5,1.3c-4.2,1.7-7.5,4.4-9.5,7.7c-2.1,3.5-2.5,8.4-1.2,12.5c1.4,4.5,5.2,8.2,10.3,10.4c2.8,1.1,6.3,1.9,9.7,2.2
	C68.4,99.4,72.6,99.4,74,99.2L74,99.2z M286.5,107.8c-0.2,0-1-0.1-1.7-0.2c-5.7-0.5-11.7-2.3-16-4.8c-5.9-3.4-10.1-8.1-11.9-13.8
	c-1.3-3.8-1.5-8.2-0.6-12.1c1.3-6,5-11.1,10.7-14.9c7.5-5,18.5-7.2,29.1-5.8c8.8,1.1,16.1,4.3,21.2,9.4c3.9,3.9,6.1,8.4,6.7,13.7
	c0.2,1.4,0.1,4.2-0.1,5.6c-1.4,10.5-9.7,18.6-22.5,21.7c-3.9,1-6.3,1.2-10.9,1.3C288.5,107.8,286.7,107.8,286.5,107.8L286.5,107.8z
	 M293.3,99.3c6.8-0.6,12.3-2.9,15.9-6.4c2.4-2.4,3.8-5.1,4.4-8.3c0.2-1.3,0.2-4.1,0-5.5c-1.2-7.4-7.8-12.7-17.4-14.3
	c-2.3-0.4-3.9-0.5-6.3-0.5c-10.8,0-19.2,4.1-22.4,10.9c-1,2-1.4,4.1-1.4,6.7c0,3.3,0.8,6,2.5,8.6c3.2,4.8,9.3,7.9,17.3,8.8
	C287.5,99.4,291.6,99.4,293.3,99.3L293.3,99.3z"/>
</svg>
