<!-- Generator: Adobe Illustrator 28.1.0, SVG Export Plug-In . SVG Version: 6.00 Build 0)  -->
<svg version="1.1" id="Layer_1" xmlns="http://www.w3.org/2000/svg" xmlns:xlink="http://www.w3.org/1999/xlink" x="0px" y="0px"
	 viewBox="0 0 360 180" style="enable-background:new 0 0 360 180;" xml:space="preserve">
<g>
	<path d="M101.5,48.1c12.5,0.1,21.6,3.7,27.3,10.8c5.6,7.1,7.5,16.8,5.6,29.2c-0.7,5.6-2.4,11.2-4.9,16.6
		c-2.4,5.4-5.8,10.3-10.2,14.7c-5.3,5.5-11,9-17.1,10.5s-12.3,2.2-18.8,2.2H64.2l-6.1,30.3H36L58.8,48.1H101.5z M290.4,48.1
		c12.5,0.1,21.6,3.7,27.3,10.8c5.6,7.1,7.5,16.8,5.6,29.2c-0.7,5.6-2.4,11.2-4.9,16.6c-2.4,5.4-5.8,10.3-10.2,14.7
		c-5.3,5.5-11,9-17.1,10.5s-12.3,2.2-18.8,2.2h-19.1l-6.1,30.3h-22.2l22.8-114.3L290.4,48.1L290.4,48.1z M181.6,17.6l-6.2,30.4h19.8
		c10.8,0.2,18.9,2.4,24.2,6.7c5.4,4.2,7,12.3,4.8,24.2l-10.7,53.1h-22.3l10.2-50.7c1.1-5.3,0.7-9.1-1-11.3c-1.7-2.2-5.4-3.3-11-3.3
		l-17.7-0.2l-13.1,65.5h-22l22.9-114.4L181.6,17.6L181.6,17.6z M84.3,66.2c-1.3,0.1-2.5,0.2-3.7,0.2h-3.2l-9.5,47.7
		c0.6,0.1,1.3,0.2,1.9,0.2H72l0,0c10.2,0.1,18.7-0.9,25.5-3c6.8-2.2,11.4-10,13.7-23.3c1.9-11.2,0-17.6-5.7-19.3
		C99.9,66.9,92.8,66.1,84.3,66.2z M273.2,66.2c-1.3,0.1-2.5,0.2-3.7,0.2h-3.2l-9.5,47.7c0.6,0.1,1.3,0.2,1.9,0.2h2.2l0,0
		c10.2,0.1,18.7-0.9,25.5-3c6.8-2.2,11.4-10,13.7-23.3c1.9-11.2,0-17.6-5.7-19.3C288.8,66.9,281.7,66.1,273.2,66.2z"/>
</g>
</svg>
