<!-- Generator: Adobe Illustrator 28.1.0, SVG Export Plug-In . SVG Version: 6.00 Build 0)  -->
<svg version="1.1" id="Layer_1" xmlns="http://www.w3.org/2000/svg" xmlns:xlink="http://www.w3.org/1999/xlink" x="0px" y="0px"
	 viewBox="0 0 88.2 35" style="enable-background:new 0 0 88.2 35;" xml:space="preserve">
<path d="M48,34h2c6-0.3,10.2-5,10.2-10.6c0-1.9-0.4-3.8-1.3-5.3H48V34z"/>
<rect x="37" y="18" width="10" height="16"/>
<path d="M58.3,17c-1-1.4-2.4-2.5-3.9-3.3c1.8-1.3,3-3.4,3-5.7c0-3.9-3.1-7-7-7H48v16H58.3z"/>
<rect x="37" y="1" width="10" height="16"/>
<path d="M75,34h2c6-0.3,10.2-5,10.2-10.6c0-1.9-0.4-3.8-1.3-5.3H75V34z"/>
<rect x="64" y="18" width="10" height="16"/>
<path d="M85.3,17c-1-1.4-2.4-2.5-3.9-3.3c1.8-1.3,3-3.4,3-5.7c0-3.9-3.1-7-7-7H75v16H85.3z"/>
<rect x="64" y="1" width="10" height="16"/>
<polygon points="6.7,18 1,34 9.3,34 11.7,27 17,27 17,18 "/>
<polygon points="17,1 12.7,1 7,17 17,17 "/>
<polygon points="18,27 23.3,27 25.7,34 34,34 28.3,18 18,18 "/>
<polygon points="28,17 22.3,1 18,1 18,17 "/>
</svg>
