<!-- Generator: Adobe Illustrator 28.1.0, SVG Export Plug-In . SVG Version: 6.00 Build 0)  -->
<svg version="1.1"
	 id="svg4670" xmlns:svg="http://www.w3.org/2000/svg" xmlns:sodipodi="http://sodipodi.sourceforge.net/DTD/sodipodi-0.dtd" xmlns:inkscape="http://www.inkscape.org/namespaces/inkscape" xmlns:cc="http://creativecommons.org/ns#" xmlns:dc="http://purl.org/dc/elements/1.1/" xmlns:rdf="http://www.w3.org/1999/02/22-rdf-syntax-ns#"
	 xmlns="http://www.w3.org/2000/svg" xmlns:xlink="http://www.w3.org/1999/xlink" x="0px" y="0px" viewBox="0 0 360 180"
	 style="enable-background:new 0 0 360 180;" xml:space="preserve">
<sodipodi:namedview  bordercolor="#666666" borderopacity="1.0" fit-margin-bottom="0" fit-margin-left="0" fit-margin-right="0" fit-margin-top="0" id="base" inkscape:current-layer="layer1" inkscape:cx="89.767553" inkscape:cy="10.080368" inkscape:document-units="mm" inkscape:pageopacity="0.0" inkscape:pageshadow="2" inkscape:window-height="744" inkscape:window-maximized="1" inkscape:window-width="1280" inkscape:window-x="-4" inkscape:window-y="-4" inkscape:zoom="4.9962374" pagecolor="#ffffff" showgrid="false" units="px">
	</sodipodi:namedview>
<g id="layer1" transform="translate(-117.10372,-256.2707)" inkscape:groupmode="layer" inkscape:label="Layer 1">
	<g id="g4525" transform="matrix(0.35277777,0,0,-0.35277777,31.971634,282.90283)">
		<g>
			<g id="g4527">
				<g id="g4533" transform="translate(256.7813,68.553)">
					<path id="path4535" inkscape:connector-curvature="0" d="M188.9-241.4v4.2v38.3l-60.3,0c-4.1-0.2-10.5-3.4-10.8-10
						c-0.5,6.5-5.8,10-11.8,10H87.2l0-21.7h10.7c2.6,0,3.3-2.1,3.3-4v-12.6v-0.1c0.2-4.2-9.2-9.5-10.2-10.7
						c1.1-1.3,10.1-5.7,10.1-10.9v-9.4v-4.2c0-1.3-0.7-3.2-3.6-3.2H86.6v-8.2v-13.2h19.3c6.7-0.5,11.1,4.1,11.9,8.9
						c0.7-4.7,4.5-9.1,10.8-8.9h19.8v13.2v8.2h-10.3c-2.7,0-4.1,1.9-4.1,3.2v4.2v9.1h4.1c0.7,0,1.4-0.8,1.5-1.4v-5.5h19.7v28.9v6.8
						h-19.8v-5.6c0-0.5-0.3-1-0.8-1.2l0,0c-0.2-0.1-0.4-0.2-0.6-0.2h-4v0.2v12.3c0,1.9,0.9,4.1,3.3,4.2h24c2.6-0.1,3.4-2.3,3.4-4.2
						v-12.3v-4.2L188.9-241.4L188.9-241.4z"/>
				</g>
				<g id="g4537" transform="translate(269.2523,68.5427)">
					<path id="path4539" inkscape:connector-curvature="0" d="M261-241.5h24v4.3l0,38.3h-60.6c-4-0.1-10.3-3.7-10.5-10.1
						c-0.4,6.4-5.9,10-11.9,10.1h-19.2v-21.7h11c3.1-0.1,3.3-2.4,3.4-4.2l-0.1-12.4v-0.5c0.2-4.2-9-9.4-10.2-10.7
						c1.1-1.1,10.1-5.6,10.1-10.7v-9.1v-4.4c0-1-1.4-3-4.2-3h-10.2v-8.2v-13.2h19.4c6.6-0.4,11,4.1,11.9,8.9
						c0.7-4.7,4.5-9.1,10.8-8.9h60.5v13.2v15.6v12.8h-24.2v-12.8v-4.2c0-1.3-0.7-3.2-3.1-3.2H234c-2.6,0-4.1,1.4-4.1,3.1v4.3v9.1
						h4.9c0.8,0,1.4-0.8,1.5-1.4c-0.1,0.6,0-5.6,0-5.6h19.9v29v6.6l-19.9,0v-5.3c0-0.5-0.6-1.1-1.2-1.3h0c-0.1,0-0.2-0.1-0.3-0.1
						l-4.8,0v0.1v12.2c0,2.1,1.4,4.2,4.1,4.4h23.2c2.6-0.1,3.6-2.2,3.7-4.2v-12.3V-241.5z"/>
				</g>
				<g id="g4541" transform="translate(291.3087,60.3419)">
					<path id="path4543" inkscape:connector-curvature="0" d="M388.5-288.9v13.2v8.1h-7c-2.6,0-4,1.9-4,3.8c0,1.2,0.1,2.4,0.1,3.6
						l0,0c0.3,9.5,0.4,18.3-13.5,21.1c7.7,0.2,13.3,4.4,16.5,10l0,0c2.2,3.7,3.3,8,3.4,12.1c0.1,11.8-7.3,26.7-27.8,26.2h-38.9
						c-4.1-0.2-11.3-3.7-11.6-10.1c-0.3,6.4-5.4,10-11.8,10.1h-19.6v-21.7l10.9,0c2.9-0.1,3.8-2.4,3.8-4.1l0-12.5v-0.4
						c0.2-4.2-9.2-9.4-10.2-10.7c1.1-1.1,10.1-5.6,10.1-10.8v-9.2v-4.3c0-1.1-1.4-3.1-4.2-3.1h-10.2v-8.2v-13.2l19.3,0
						c6.7-0.5,11,4.1,11.9,8.9c0.7-4.7,4.5-9.1,10.7-8.9h19.9l0,13.2l0,8.1h-10.1c-2.5,0-4.5,1.9-4.6,3.6v3.9v9.2l11.9,0
						c5-0.1,9.2-3.2,9.4-8.8c0-0.2,0-0.3,0-0.5l0,0c0.3-5.4,1.1-10.9,2.6-15.6l0,0c2.1-6.3,5.5-11.1,10.8-12.3
						c4-0.9,6.4-0.9,10.4-0.9H388.5z M342.2-229c-0.7-0.2-1.4-0.3-2.2-0.3h-18v0.3v11.2c0,2.5,1,5.4,4.7,5.4h12.9
						C349.9-212.4,350.7-226.9,342.2-229z"/>
				</g>
				<g id="g4545" transform="translate(309.367,60.3486)">
					<path id="path4547" inkscape:connector-curvature="0" d="M492.9-288.8v13.2h-42.7c2.1-6.2,5.5-11.1,10.8-12.3
						c4-0.9,6.4-0.9,10.4-0.9L492.9-288.8L492.9-288.8z M450.2-275.7h42.7v8.2h-7c-2.6,0-4,1.9-4,3.8c0,1.2,0.1,2.4,0.1,3.6
						c0.3,9.5,0.4,18.4-13.5,21.1c7.7,0.2,13.3,4.4,16.5,10l0,0c2.2,3.7,3.3,8,3.4,12.1c0.1,11.8-7.3,26.7-27.8,26.2h-38.9
						c-4.1-0.2-11.3-3.7-11.6-10.1c-0.3,6.4-5.4,10-11.8,10.1h-19.6v-21.7l10.9,0c2.9-0.1,3.8-2.4,3.8-4.1l0-12.5v-0.4
						c0.2-4.2-9.2-9.4-10.2-10.7c1.1-1.1,10.1-5.6,10.1-10.8v-9.2v-4.3c0-1.1-1.4-3.1-4.2-3.1h-10.2v-8.2v-13.2l19.3,0
						c6.7-0.4,11,4.1,11.9,8.9c0.7-4.7,4.5-9.1,10.7-8.9h19.9l0,13.2l0,8.2h-10.1c-2.5,0-4.5,1.9-4.6,3.6v3.8v9.3l11.9,0
						c5-0.1,9.2-3.2,9.4-8.8c0-0.2,0-0.4,0-0.5C447.8-265.5,448.6-271,450.2-275.7 M446.4-229c-0.6-0.1-1.3-0.2-2-0.2h-18v0.2v11.2
						c0,2.5,1,5.4,4.7,5.4h12.9C454.4-212.4,455.1-227.1,446.4-229"/>
				</g>
				<g id="g4549" transform="translate(321.6309,68.5427)">
					<path id="path4551" inkscape:connector-curvature="0" d="M563.8-241.5h24v4.3l0,38.3h-60.6c-4-0.1-10.3-3.7-10.5-10.1
						c-0.4,6.4-5.9,10-11.9,10.1h-19.2l0-21.7h11c3.1-0.1,3.3-2.4,3.4-4.2l-0.1-12.4v-0.5c0.2-4.2-9-9.4-10.2-10.7
						c1.1-1.1,10.1-5.6,10.1-10.7v-9.1v-4.4c0-1-1.4-3-4.2-3h-10.2v-8.2v-13.2h19.4c6.6-0.4,11,4.1,11.9,8.9
						c0.7-4.7,4.5-9.1,10.8-8.9h60.5v13.2v15.6v12.8h-24.2v-12.8v-4.2c0-1.3-0.7-3.2-3.1-3.2h-23.8c-2.6,0-4.1,1.4-4.1,3.1v4.3v9.1
						h4.9c0.8,0,1.4-0.8,1.5-1.4c-0.1,0.6,0-5.6,0-5.6H559v29v6.6l-19.9,0v-5.3c0-0.5-0.6-1.1-1.2-1.3h0c-0.1,0-0.2-0.1-0.3-0.1
						l-4.8,0v0.1v12.2c0,2.1,1.4,4.2,4.1,4.4h23.2c2.6-0.1,3.6-2.2,3.7-4.2v-12.3L563.8-241.5L563.8-241.5z"/>
				</g>
				<g id="g4553" transform="translate(343.8584,60.3486)">
					<path id="path4555" inkscape:connector-curvature="0" d="M692.3-288.8v13.2h-42.7c2.1-6.2,5.5-11.1,10.8-12.3
						c4-0.9,6.4-0.9,10.4-0.9L692.3-288.8L692.3-288.8z M649.6-275.7h42.7v8.2h-7c-2.6,0-4,1.9-4,3.8c0,1.2,0.1,2.4,0.1,3.6
						c0.3,9.5,0.4,18.4-13.5,21.1c7.7,0.2,13.3,4.4,16.5,10l0,0c2.2,3.7,3.3,8,3.4,12.1c0.1,11.8-7.3,26.7-27.8,26.2h-38.9
						c-4.1-0.2-11.3-3.7-11.6-10.1c-0.3,6.4-5.4,10-11.8,10.1h-19.6v-21.7l10.9,0c2.9-0.1,3.8-2.4,3.8-4.1l0-12.5v-0.4
						c0.2-4.2-9.2-9.4-10.2-10.7c1.1-1.1,10.1-5.6,10.1-10.8v-9.2v-4.3c0-1.1-1.4-3.1-4.2-3.1h-10.2v-8.2v-13.2l19.3,0
						c6.7-0.4,11,4.1,11.9,8.9c0.7-4.7,4.5-9.1,10.7-8.9h19.9l0,13.2l0,8.2h-10.1c-2.5,0-4.5,1.9-4.6,3.6v3.8v9.3l11.9,0
						c5-0.1,9.2-3.2,9.4-8.8c0-0.2,0-0.4,0-0.5C647.2-265.5,648-271,649.6-275.7 M645.8-229c-0.6-0.1-1.3-0.2-2-0.2h-18v0.2v11.2
						c0,2.5,1,5.4,4.7,5.4h12.9C653.8-212.4,654.5-227.1,645.8-229"/>
				</g>
				<g id="g4557" transform="translate(362.0849,67.5741)">
					<path id="path4559" inkscape:connector-curvature="0" d="M797.7-247.1c-2.9,2.3-9.5,5.4-10.4,9.7c0,0.4,0,0.7-0.1,1.1l0,0
						c-1.3,17.9-12.1,40.7-54.4,40.3c-31.7,0.1-51.4-15-53.6-40.3c0-0.2,0-0.4-0.1-0.6c-0.8-4.2-7.3-7.7-10.3-9.8
						c2.9-2.3,9.4-5.4,10.3-9.7c0.1-3.5,0.6-7.2,1.7-10.9l0,0c1.5-5.4,4.2-10.8,8.5-15.5l0,0c8-8.9,21.7-15.5,44.3-15.6
						c19,0.1,33.8,5.7,43.1,15.6h0c4.1,4.4,7.1,9.6,8.9,15.6c1,3.2,1.6,6.7,1.8,10.4C788.2-252.7,794.7-249.2,797.7-247.1
						 M741.4-247.1c0.9-0.9,8.8-4.9,8.9-10c0.1-2-1-6.3-3.4-10.3c-2.8-4.6-7.3-8.8-13.6-8.7c-6.6,0.1-11.3,4-14.1,8.7l0,0
						c-2.1,3.4-3.1,7.3-3,10.1c0,5.5,7.7,9,9,10.1c-1,0.9-8.9,4.9-8.9,10.1c0,0.3,0,0.6,0,0.9c0.4,5.1,5.9,18.2,16.9,17.9
						c11.2,0,16.8-11.1,17.1-17.9c0-0.3,0-0.5,0-0.8C750.3-242.4,742.7-246.1,741.4-247.1"/>
				</g>
			</g>
		</g>
	</g>
</g>
</svg>
