<!-- Generator: Adobe Illustrator 28.1.0, SVG Export Plug-In . SVG Version: 6.00 Build 0)  -->
<svg version="1.1" id="Layer_1" xmlns="http://www.w3.org/2000/svg" xmlns:xlink="http://www.w3.org/1999/xlink" x="0px" y="0px"
	 viewBox="0 0 2500 1331.45" style="enable-background:new 0 0 2500 1331.45;" xml:space="preserve">
<g>
	<path d="M965.21,1107.96c-11.09,0-20.76,3.83-28.99,11.45c-8.77,8.16-13.15,18.39-13.15,30.7c0,11.85,4.06,21.84,12.18,29.97
		c8.12,8.11,18.11,12.18,29.97,12.18c11.48,0,21.31-3.98,29.51-11.91c8.42-8.18,12.63-18.26,12.63-30.25
		c0.17-11.2-4.3-21.99-12.36-29.78C987.2,1112.26,976.42,1107.79,965.21,1107.96z M989.74,1174.92
		c-6.39,6.68-15.28,10.41-24.53,10.29c-9.26,0.14-18.16-3.57-24.59-10.23c-6.7-6.52-10.41-15.52-10.25-24.88
		c0-9.43,3.36-17.56,10.06-24.42c6.4-6.84,15.39-10.66,24.76-10.52c9.59,0.01,17.79,3.51,24.61,10.52
		c6.76,6.91,10.12,15.05,10.12,24.42C999.92,1159.75,996.53,1168.01,989.74,1174.92z"/>
	<polygon points="943.64,843.06 1079.69,1029.34 1179.6,1029.34 1179.6,677.09 1078.03,677.09 1078.03,865.96 943.64,677.09 
		840.75,677.09 840.75,1029.35 943.64,1029.35 	"/>
	<rect x="1212.31" y="795.62" width="97.71" height="97.7"/>
	<path d="M1521,1033.47c98.87,0,179.02-70.19,179.02-179.02c0-108.8-80.15-179.02-179.02-179.02s-179.02,69.1-179.02,179.02
		C1341.99,964.39,1422.13,1033.47,1521,1033.47z M1521,771.25c42.49,0,76.94,37.26,76.94,83.21c0,45.98-34.46,83.24-76.94,83.24
		c-42.5,0-76.95-37.26-76.96-83.24C1444.04,808.51,1478.5,771.25,1521,771.25z"/>
	<rect x="710.42" y="795.62" width="97.71" height="97.7"/>
	<polygon points="578.91,865.96 442.85,677.09 339.96,677.09 339.96,1029.35 442.85,1029.35 442.85,843.06 578.9,1029.34 
		680.47,1029.34 680.47,677.09 578.91,677.09 	"/>
	<polygon points="183.82,1029.35 291.26,1029.35 291.26,1029.35 291.26,677.09 183.82,677.09 	"/>
	<path d="M984.27,1170.86c-0.05-0.45-0.08-0.91-0.08-1.36v-4.18c0-4.76-1.37-8.24-4.11-10.47c-1.49-1.17-3.71-2.08-6.64-2.68
		c3.2-0.32,5.9-1.39,8.09-3.14s3.29-4.59,3.29-8.51c0-5.14-2.08-8.87-6.23-11.14c-2.86-1.46-6-2.29-9.21-2.41
		c-0.65-0.05-3.85-0.08-9.62-0.1l-13.01-0.03v46.74H959v-16.56h-0.03l0.03,0v0h2.55l2.68,0.18c1.88,0.1,3.26,0.35,4.18,0.74
		c1.6,0.58,2.85,1.85,3.42,3.45c0.38,0.99,0.62,2.89,0.74,5.72c0.12,2.81,0.36,4.97,0.75,6.46h11.66l-0.4-1.32
		C984.42,1171.8,984.32,1171.32,984.27,1170.86z M970.41,1146.92c-1.61,1.14-3.83,1.7-6.69,1.7h-4.75v-13.55h2.97
		c3.05,0,5.41,0.32,7.08,0.99c2.52,0.99,3.79,2.76,3.79,5.32C972.82,1143.89,972.02,1145.75,970.41,1146.92z"/>
	<path d="M1214.6,1064.19c-3.09-5.56-8.93-9.01-15.29-9.01H1019.8c-3.76,0-7.42,1.22-10.43,3.46c-7.75,5.77-9.36,16.74-3.59,24.5
		l120.93,161.59c3.3,4.41,8.48,6.99,13.99,6.99h148.22c2.97,0,5.9-0.76,8.5-2.2c8.45-4.68,11.49-15.33,6.81-23.77L1214.6,1064.19z
		 M1149.44,1216.72l-94.73-126.57h134.3l70.22,126.57H1149.44z"/>
	<path d="M1606.07,1169.88c0,11.51-9.33,20.84-20.84,20.84s-20.84-9.33-20.84-20.84v-97.75h-46.59v95.47
		c0,46.41,30.19,67.43,67.43,67.43c37.24,0,67.43-20.52,67.43-67.43v-95.47h-46.59V1169.88z"/>
	<polygon points="2242.76,1029.34 2242.76,772.31 2310.5,772.31 2310.5,677.09 2073.89,677.09 2073.89,772.31 2137.2,772.31 
		2137.2,1029.34 	"/>
	<path d="M964.83,649.89c8.45-4.68,11.49-15.33,6.81-23.77L847.78,402.85l1004.67,119.5l-11.22,83.29c-0.61,4.47,0.53,9,3.18,12.65
		c5.68,7.8,16.61,9.53,24.41,3.85l198.19-143.24c3.8-2.75,6.33-6.91,7.04-11.53c0.71-4.63-0.46-9.36-3.28-13.11l-151.56-203.2
		c-2.82-3.79-7.04-6.28-11.72-6.9c-9.57-1.27-18.36,5.45-19.64,15.02l-11.88,88.3C1684.27,311.76,632.76,115.51,534.11,88.1
		c-67.27-18.69-126.27-5.58-153.96,34.21c-24.22,34.78-19.16,82.55,13.51,127.79c9.98,13.82,39.45,53.17,80.21,107.64
		c56.14,75.03,133.06,177.81,214.1,287.27c3.31,4.45,8.52,7.08,14.06,7.08h254.3C959.3,652.09,962.23,651.33,964.83,649.89z
		 M710.85,617.11c-69.43-93.62-139.09-187.06-208.98-280.32c-40.66-54.33-70.04-93.59-79.84-107.16
		c-23.93-33.14-28.73-64.97-13.16-87.33c18.95-27.24,63.37-35.08,115.9-20.49c103.82,28.84,1234.35,239.5,1362.9,263.43
		c9.49,1.76,18.62-4.51,20.38-14c0.05-0.29,0.1-0.58,0.14-0.86l8.64-64.04l115.31,154.6l-150.8,108.98l8.16-60.53
		c1.28-9.59-5.45-18.39-15.04-19.67c-0.08-0.01-0.15-0.02-0.23-0.03L817.98,364.07c-9.59-1.15-18.29,5.69-19.44,15.28
		c-0.44,3.66,0.29,7.36,2.08,10.57l126.03,227.19H710.85z"/>
	<path d="M1931.97,891.12c-0.03,25.16-20.43,45.56-45.59,45.59c-25.22,0.04-45.69-20.38-45.72-45.59V677.09H1738.7v209.03
		c0,101.58,66.09,147.61,147.61,147.61s147.61-44.92,147.61-147.61V677.09h-101.95V891.12z"/>
	<polygon points="2038.43,1234.23 2137.56,1234.92 2137.56,1190.23 2092.57,1190.23 2092.57,1173.29 2130.05,1173.29 
		2130.05,1128.6 2092.57,1128.6 2092.57,1116.8 2137.56,1116.79 2137.56,1072.11 2038.43,1072.11 	"/>
	<path d="M1921.01,1133.47v46.64h30.12c-6.35,7-15.35,11.01-24.8,11.08c-19.4,0-35.14-17.02-35.14-38.03s15.73-38.03,35.14-38.03
		c10.56,0,20.04,5.07,26.5,13.05l42.79-20.44c-14.46-22.93-40.08-36.35-69.28-36.35c-45.16,0-81.77,31.57-81.77,81.77
		c0,50.23,36.6,81.8,81.77,81.8s81.77-32.07,81.77-81.8c0-6.43-0.61-13.42-1.78-19.21L1921.01,1133.47z"/>
	<path d="M1812.17,1127.64c0-31.89-21.08-57.53-59.38-57.53h-55.81v164.12h49.99v-34.68l27.59,34.68h64.94l-48.91-63.02
		C1802.77,1160.65,1812.17,1145.04,1812.17,1127.64z M1762.09,1131.69c-2.25,6.1-9.02,9.23-15.12,6.98v-22.11
		c1.3-0.47,2.67-0.71,4.05-0.71c1.4,0,2.79,0.25,4.09,0.72C1761.21,1118.82,1764.34,1125.59,1762.09,1131.69z"/>
	<path d="M1469.06,1146.76c4.57-5.24,8.92-14.51,8.92-30.8c0-48.31-56.16-43.88-56.16-43.88h-54.01v164.12h60.28
		c34.45,0,62.37-14.49,62.37-46.72C1490.46,1172.57,1482.17,1157.24,1469.06,1146.76z M1420.56,1114.64
		c1.06-0.31,2.16-0.46,3.27-0.45c5.27,0,9.55,3.22,9.55,7.17c0.01,3.96-4.27,7.18-9.55,7.18c-1.1-0.01-2.2-0.16-3.27-0.45V1114.64z
		 M1423.83,1191.73c-1.52,0-2.98-0.23-4.36-0.58v-17.96c1.36-0.38,2.84-0.58,4.36-0.58c7.04,0,12.74,4.28,12.74,9.55
		C1436.58,1187.45,1430.88,1191.73,1423.83,1191.73z"/>
	<path d="M2267.26,1171.21c12.2-10.56,21.58-26.17,21.58-43.57c0-31.89-21.05-57.53-59.38-57.53h-55.78v164.12h49.96v-34.68
		l27.59,34.68h64.94L2267.26,1171.21z M2238.7,1131.61c-2.21,6.11-8.95,9.27-15.06,7.06v-22.11c1.3-0.47,2.67-0.71,4.05-0.71
		c1.34,0.01,2.68,0.25,3.95,0.7C2237.74,1118.76,2240.91,1125.5,2238.7,1131.61z"/>
</g>
</svg>
