<!-- Generator: Adobe Illustrator 28.1.0, SVG Export Plug-In . SVG Version: 6.00 Build 0)  -->
<svg version="1.1" id="Layer_1" xmlns="http://www.w3.org/2000/svg" xmlns:xlink="http://www.w3.org/1999/xlink" x="0px" y="0px"
	 viewBox="0 0 72 72" style="enable-background:new 0 0 72 72;" xml:space="preserve">
<g>
	<path d="M60.4,42.1c-0.4,0.7-1,1.7-1.6,2.3c-45.9,0-45.9,0-45.9,0c-0.4-0.4-1.2-1.5-1.5-2.3H60.4z"/>
	<path d="M57,46.7c-42.2,0-42.2,0-42.2,0c0.7,0.8,1.4,1.5,2.2,2.1c37.6,0,37.6,0,37.6,0C55.6,48.2,56.5,47.5,57,46.7"/>
	<path d="M51.8,51c-11.6,0-11.6,0-11.6,0c-0.3,1.8-0.3,3.5-0.3,4.8C43.3,55.5,47.7,54,51.8,51"/>
	<path d="M64.7,27.2C59.5,27.5,51.9,31,47,36.8c-0.9,1-1.7,2.1-2.3,3.2c16.9,0,16.9,0,16.9,0C63.9,35.4,65.1,30.9,64.7,27.2"/>
	<path d="M31.9,55.7c0.1-1.2,0.1-2.9-0.2-4.8C20,51,20,51,20,51C24.2,54,28.6,55.5,31.9,55.7"/>
	<path d="M35.9,56.1c1.2-1.3,2.5-3,3.6-5.1c-7.3,0-7.3,0-7.3,0C33.5,53.1,34.6,54.8,35.9,56.1"/>
	<path d="M27.3,40c-0.6-1.1-1.5-2.1-2.3-3.2c-5-5.8-12.6-9.3-17.7-9.6c-0.4,3.7,0.8,8.2,3.1,12.8H27.3z"/>
	<path d="M43.3,40c0.1-1.3,0.2-2.6,0.2-4.1c0-8-3.6-16.3-7.6-20c-4,3.7-7.5,12-7.5,20c0,1.5,0,2.8,0.2,4.1C28.7,40,43.3,40,43.3,40z
		"/>
</g>
</svg>
