<!-- Generator: Adobe Illustrator 28.1.0, SVG Export Plug-In . SVG Version: 6.00 Build 0)  -->
<svg version="1.1" id="layer" xmlns="http://www.w3.org/2000/svg" xmlns:xlink="http://www.w3.org/1999/xlink" x="0px" y="0px"
	 viewBox="0 0 652 652" style="enable-background:new 0 0 652 652;" xml:space="preserve">
<g>
	<path d="M270.1,308.8c-4.4,1-6.9,12.7-7.5,29.2c-0.5,16.6,0.7,31.3,6.7,30.1c6-1.3,6.5-16.7,6.9-33.3
		C276.6,318.2,274.3,307.9,270.1,308.8z"/>
	<path d="M517.8,272.9c2.4-2.2,3.6-3.4,5.5-5.8c1.9-2.4,3.6-6.3,1.4-8.3c-2.4-2-5.9,1.1-8.2,6.9c-2.3,5.7-2.1,11.7-2.1,11.7
		S515.3,275.1,517.8,272.9z"/>
	<path d="M488.4,267.9c2.4-2.9,4.5-7.7,1.8-10.2c-2.9-2.5-7.2,1.3-10.1,8.3c-2.9,7-2.7,14.4-2.7,14.4s1.1-2.8,4.2-5.5
		C484.6,272.2,486.1,270.8,488.4,267.9z"/>
	<path d="M505.6,238.8c-51.9-5-141.2,16.2-214.9,32.4c-59,13-107.1,21.1-139.3,19.9c-18.1-1.2-35.9-6.4-50.1-18
		c2.2,5.6,13.2,21.4,17.9,23.1c-18.8,1.5-38.2,3.7-56.9-0.3c-14.9-3.2-31.4-8.6-43.2-19.6c9.1,16.9,23,32.6,38.3,44.1
		c27.4,20.6,65.5,20,96.8,9.9c0.6-0.2,6.9-2,10.3-2c8,0.3,13.9,5.9,9.3,19c-3.9,9.8-11.7,17.5-20.8,17.7c-12.1,0-12.9-9.6-26.7-9.1
		c-24.1-0.6-39.6,10-72-8.1c6.6,6.5,44.6,48.2,126,56.8c20.8,2.2,44,0.4,54.9-0.8c70.6-7.4,125.7-31.4,174.3-52.6
		c41.2-18.6,90.7-37.9,127.7-39.9c31.1-2.5,55.2,7.5,64.5,26.8c4.2,8.6,5.2,18.5,3,28.7C635.9,322.4,622.3,247.7,505.6,238.8z
		 M218.4,396.3c0,0,2.6-8.4,3.1-22.6c0.5-11.7-1.3-21.5-5.6-20.9c-3.2,0.5-6.8,11.6-7.1,21.4c-0.3,13,2.5,22.5,2.5,22.5
		c-9.9,0.3-28,0.6-50.8-3.9c3-0.4,28.7-15,32-45.2c3.6-33.7-26-42.5-39.5-48.1c19.4,0.6,32.9-0.5,61-4.7c0,0-3.5,5.5-3.5,20.7
		c0,13.9,3,21.2,5.7,21.2c3.2,0,6.3-7.2,6.8-22c0.6-15.1-2-20.9-2-20.9c13-2.3,21.8-3.5,43.9-8.4c-14.1,8.9-24.6,31.6-25.9,55.1
		c-0.3,4.9-2.4,39.3,23,50.7C245.4,393.8,227.3,396,218.4,396.3z M268.8,383c-16.9,2.8-25.8-23.9-23.6-42
		c1-25.1,10.3-42.8,24.8-46.8c13.7-3.7,24.6,11.9,24,36.5C293.3,355.4,286.7,379,268.8,383z M300.3,375.5c-10.1,3.2-8.8-3.4-7-7.5
		c6-15.7,6.1-23.4,7-33.4c0.9-10.4-1.6-41.2-18.5-46.6c16.1-4.4,29.6,4.2,35,16.3c0.6,1.5,1.4,1.8,2.1,1.8c1.5,0,11.1-1.7,14.4-5.7
		c0,0,3.3,12.1-10.9,19.3c0,0-2,1-2,3.1c0,2-1,12.4-1.6,15.2c-0.2,1.3-1.3,4,1.2,4.1c2.1,0.1,8.3-1.4,12.1-12c0,0,0-0.1,0-0.1
		c0,0,0-0.1,0-0.1c0,0,0,0,0-0.1c0,0,0,0,0,0c0,0,0,0,0,0.1c0,0,0,0.1,0,0.1c0,0,0,0.1,0,0.1C329.2,353.5,314.8,370.8,300.3,375.5z
		 M402.8,344.8l-14.5,6.5c0,0-4.4-2.6-8.2-12.5c-3.9-10-2.6-15.4-2.6-15.4s-5.1,3.8-8.6,17c-3.3,12.2-0.6,19.1-0.6,19.1
		s-9.4,3.8-19,7.4c-8.8,3.4-17.2,6.2-17.2,6.2c3.9-4.9,16.8-23.8,15.4-55.1c-1.7-34.2-26.4-42.2-31.9-43.5
		c5.6-1.2,31.7-6.9,37.8-8.2c2.9,1.6,9.8,6.6,13.1,19.4c3.5,13.9,0,27.6,0,27.6s4.4-3.4,7.8-9.8c4.4-8.2,4.8-15.7,4.8-15.7
		s3.7,1.3,7.4,6.6c4,5.6,3.4,10.5,3.4,10.5s5.6-9.4,4.4-20.3c-1.8-16-11.4-21.7-15.8-23.6c4.1-0.8,22.4-4.3,24.7-4.7
		c2,2.3,5.8,7.8,8.9,17.3c5.8,18.4-1.3,33.8-7,46.4C398.3,334.9,402.8,344.8,402.8,344.8z M443.5,327.5c3.8-9.6,0-30.8-4-29.5
		c-4.6,1.5-7,19.5-3.4,32.5c-7.6,3.1-21.2,9-29,12.5c13.2-25.5,24.1-61.1,0.9-87.5c6.7-1.2,21.9-3.6,27.2-4.4
		c-3,11.8-0.6,31.4,3.5,30.4c5-1.2,7-18.8,5.6-31.7c5.4-0.7,20.9-2.2,26.7-2.6c-24.8,25.3-13.7,64.6-0.8,70.4
		C460.1,321.1,450.5,324.5,443.5,327.5z M484.4,298.3c5.7-0.4,11.9-11.5,11.9-11.5s0.6,24.2-16.2,27.5c-9.6,1.9-14.6-6.2-17.1-14.9
		c-3-10.2-1-31.1,9.4-43.2c9.5-11.1,19.4-11.3,24.8-7.9c5.8,3.6,5.8,9.2,2.9,17.4s-10.7,13.8-17.5,20.2
		C477,291.1,478.5,298.6,484.4,298.3z M517.5,305c-8.4,2.2-12.8-3.2-15.2-11.6c-2.4-8.3-0.6-25.6,7.8-35.5
		c7.6-9.1,15.8-9.5,20.2-6.7c4.7,2.9,4.8,7.5,2.5,14.1c-2.3,6.7-8.6,11.3-14.1,16.5c-4.6,4.4-4,10.3,1.7,9.9
		c6-0.5,13.2-9.2,13.2-9.2S530.2,301.6,517.5,305z M562.3,303.4c-9.8-1.6-20.2-1.4-31.4-0.3c9-10.9,11.9-36.4,7.8-50.8
		c7.6,1.7,12.2,3.4,16.3,4.8c-16.4,46.9,4.2,35.3,7.9,26.2L562.3,303.4z M589.4,302.2c-0.8,3.1-2.9,5.1-6,5.6
		c-1.9,0.3-4.1,0.1-6.2-0.6c-3.6-1.1-6.2-2.1-9.3-3.3l0.2-12.4c1.5,3.2,6.2,7,8.8,6.6c0.7-0.1,1.3-0.6,1.4-1.3
		c0.2-1.1-0.3-2.4-1.6-3.8s-3.6-3.7-5.5-5.8c-8.6-9.5-5-16-3-17.7c2.9-2.5,6.4-1.9,7.8-1.6c5.2,1,9.4,5.4,11.3,9.8
		c1.1,2.5,1.9,5.3,1.4,8.3c-1.2-3-8.7-11.5-11.4-8.1c-1.8,2.2,2.5,5.5,6.9,9.4C590.1,292.6,590.9,296.6,589.4,302.2z M594,313.3
		h-1.1l0.9-5h-1.4l0.1-0.9h3.9l-0.1,0.6l-0.3,0.3h-1.1L594,313.3z M601.8,312.8l-0.1,0.5h-1.1l0.4-3.9h-0.1l-1.5,3.1h-1l-0.4-3.1
		h-0.1l-1,3.9h-1.1l0.1-0.5l1.5-5.4h1.3l0.5,3.3h0.1l1.6-3.3h1.3L601.8,312.8z"/>
</g>
</svg>
