<svg xmlns="http://www.w3.org/2000/svg" viewBox="0 0 24 24" role="img" aria-label="Node.js"><path fill="#5FA04E" d="M11.998,24c-0.321,0-0.641-0.084-0.922-0.247l-2.936-1.737c-0.438-0.245-0.224-0.332-0.08-0.383 c0.585-0.207,0.703-0.25,1.328-0.604c0.065-0.035,0.151-0.022,0.218,0.017l2.256,1.339c0.082,0.045,0.197,0.045,0.272,0l8.795-5.076 c0.082-0.047,0.135-0.141,0.135-0.238V6.921c0-0.099-0.053-0.192-0.137-0.242l-8.791-5.072c-0.081-0.047-0.189-0.047-0.271,0 L3.075,6.68C2.99,6.729,2.936,6.825,2.936,6.921v10.15c0,0.097,0.054,0.189,0.139,0.235l2.409,1.392 c1.307,0.654,2.108-0.116,2.108-0.89V7.787c0-0.142,0.114-0.253,0.256-0.253h1.115c0.139,0,0.255,0.112,0.255,0.253v10.021 c0,1.745-0.95,2.745-2.604,2.745c-0.508,0-0.909,0-2.026-0.551L2.28,18.675c-0.57-0.329-0.922-0.945-0.922-1.604V6.921 c0-0.659,0.353-1.275,0.922-1.603l8.795-5.082c0.557-0.315,1.296-0.315,1.848,0l8.794,5.082c0.57,0.329,0.924,0.944,0.924,1.603 v10.15c0,0.659-0.354,1.273-0.924,1.604l-8.794,5.078C12.643,23.916,12.324,24,11.998,24z"/><path fill="#5FA04E" d="M14.855,17.388c-3.848,0-4.654-1.765-4.654-3.246c0-0.141,0.113-0.253,0.254-0.253h1.137 c0.127,0,0.232,0.092,0.252,0.217c0.172,1.158,0.683,1.742,3.01,1.742c1.852,0,2.641-0.419,2.641-1.4 c0-0.564-0.223-0.982-3.104-1.263c-2.41-0.238-3.9-0.769-3.9-2.691c0-1.773,1.495-2.829,4.001-2.829 c2.816,0,4.211,0.977,4.388,3.077c0.006,0.072-0.018,0.142-0.064,0.195c-0.046,0.05-0.11,0.08-0.178,0.08h-1.142 c-0.118,0-0.222-0.084-0.246-0.199c-0.274-1.218-0.94-1.607-2.758-1.607c-2.031,0-2.268,0.708-2.268,1.239 c0,0.643,0.279,0.83,3.007,1.193c2.703,0.36,3.987,0.869,3.987,2.785C19.289,16.267,17.683,17.388,14.855,17.388"/></svg>
