<!-- Generator: Adobe Illustrator 28.1.0, SVG Export Plug-In . SVG Version: 6.00 Build 0)  -->
<svg version="1.1"
	 id="svg127772" xmlns:svg="http://www.w3.org/2000/svg" xmlns:sodipodi="http://sodipodi.sourceforge.net/DTD/sodipodi-0.dtd" xmlns:inkscape="http://www.inkscape.org/namespaces/inkscape" xmlns:cc="http://web.resource.org/cc/" xmlns:dc="http://purl.org/dc/elements/1.1/" xmlns:rdf="http://www.w3.org/1999/02/22-rdf-syntax-ns#"
	 xmlns="http://www.w3.org/2000/svg" xmlns:xlink="http://www.w3.org/1999/xlink" x="0px" y="0px" viewBox="0 0 72 72"
	 style="enable-background:new 0 0 72 72;" xml:space="preserve">
<sodipodi:namedview  bordercolor="#666666" borderopacity="1.0" id="base" inkscape:current-layer="layer1" inkscape:cx="378.97249" inkscape:cy="161.36831" inkscape:document-units="px" inkscape:pageopacity="0.0" inkscape:pageshadow="2" inkscape:window-height="691" inkscape:window-width="1051" inkscape:window-x="43" inkscape:window-y="84" inkscape:zoom="0.73978095" pagecolor="#ffffff">
	</sodipodi:namedview>
<g id="layer1" transform="translate(-2010.721,-420.5452)" inkscape:groupmode="layer" inkscape:label="Ebene 1">
	<g id="g129070">
		<path id="path7420" d="M2073.3,448.4l-0.2-13.5c0,0-0.2-2.1-3-2.1c-2.8,0-2.9,2.5-2.9,2.5l-0.2,8.5c0,0-3.8-13.1-4.2-14.2
			c-0.4-0.7-1.4-2.1-3.7-1.8c-2.4,0.7-2,3.6-2,3.6l3.6,13.1c0,0-8.4-13.1-9-14.2c-0.6-1.1-2.5-1.4-4.2-0.4c-1.7,1.4-0.8,3.9-0.8,3.9
			l8.6,13.9c0,0-9-7.8-10.6-8.9c-1.7-1.1-2.6-0.4-4,1.1s0.1,3.9,0.1,3.9s4.1,3.6,5,4.3c-1.7,0-2.3,2.5-2.3,2.5l-2.9,13.9l-1.4-16.7
			c0,0-0.7-2.5-3.1-2.5c-2.5,0-2.8,3.2-2.8,3.2l1.1,16.7l-5-12.8c0,0-1.9-2.1-3.9-0.7c-2,1.1-1.5,3.6-1.5,3.6l5.1,13.9
			c0,0-4.4-6-5.4-7.1c-1-1.1-2.7-1.1-4.1,0.4c-1.4,1.8-0.5,3.6-0.5,3.6l7.5,11c0,0-0.2,8.5,8.5,8.5c8.7,0,10.8-6.4,10.8-6.4
			s8.1-3.9,10.5-5.3c2.4-1.4,1-3.9,1-3.9c-1.6-3.2-4.4-1.4-4.4-1.4l-6.9,3.6l-0.7-1.8l1.1-4.6c0,0,1,0.4,1.6,0.4
			c0.7,0.4,11.3-2.8,11.3-2.8s4.9,3.6,11.6-1.8C2077.8,456.2,2073.3,448.4,2073.3,448.4z M2047.9,459.4l1.5-8.2l5.4,4.6l0.2,1.4
			L2047.9,459.4"/>
	</g>
</g>
</svg>
