<!-- Generator: Adobe Illustrator 28.1.0, SVG Export Plug-In . SVG Version: 6.00 Build 0)  -->
<svg version="1.1" id="svg3633" xmlns:svg="http://www.w3.org/2000/svg"
	 xmlns="http://www.w3.org/2000/svg" xmlns:xlink="http://www.w3.org/1999/xlink" x="0px" y="0px" viewBox="0 0 744.09 403.23"
	 style="enable-background:new 0 0 744.09 403.23;" xml:space="preserve">
<g id="layer1" transform="translate(-649.89646,-406.26802)">
	<g id="g20076" transform="translate(17.716521,17.668446)">
		<path id="path19828" d="M1129.26,547.46c-4.41-3.24-11.42-5.32-18.17-5.19c-7.4,0.13-14.4,2.47-19.34,6.36v-46.46h-22.97v151.57
			h22.97v-79.16c0-5.45,4.67-11.55,13.24-11.94c3.76-0.13,9.08,1.56,11.81,5.58c2.85,4.15,2.73,9.86,2.73,15.96l-0.13,69.56h22.97
			V583.4C1142.36,562.64,1139.77,555.24,1129.26,547.46"/>
		<path id="path19830" d="M942.39,599.49c0,14.79-0.52,18.95-0.65,20.24c-0.78,8.31-4.28,17-13.89,17
			c-9.47,0-13.37-9.34-13.76-17.39c-0.13,0-0.65-5.06-0.65-19.85c0-14.79,0.52-21.02,0.65-21.02c0-8.43,4.41-16.74,13.76-16.74
			c9.47,0,13.76,8.31,13.89,16.61C941.74,578.47,942.39,584.7,942.39,599.49z M964.58,581.58c-3.24-32.31-21.67-39.32-36.72-39.32
			c-21.41,0-34.39,13.63-36.72,39.32c-0.26,2.08-0.52,5.84-0.65,17.91c-0.13,8.82,0.52,16.09,0.65,17.91
			c1.43,24.01,15.18,38.67,36.72,38.67c21.54,0,35.3-14.92,36.85-38.67c0.13-1.69,0.52-9.08,0.52-17.91
			C965.23,595.47,964.97,584.7,964.58,581.58"/>
		<path id="path19832" d="M1180.78,585.87c0.13-5.06,0.13-6.1,0.26-7.53c0.65-9.08,4.67-16.61,14.01-16.61
			c11.03-0.13,13.63,10.64,14.01,16.61c0.26,3.24,0.39,5.32,0.39,7.53H1180.78z M1209.2,616.23c0,0,0,1.69-0.26,3.76
			c-0.65,5.32-2.72,16.74-13.89,16.74c-9.6,0-13.24-8.69-13.89-17.26c-0.13-2.47-0.52-5.19-0.52-14.53h51.26c0,0,0-7.66-0.13-12.2
			c0-1.82-0.13-4.8-0.52-11.16c-0.78-9.73-4.41-20.37-9.99-27.12c-6.36-8.05-15.44-12.2-26.21-12.2c-20.76,0-33.74,13.5-36.21,39.32
			c-0.26,2.34-0.65,5.58-0.65,17.91c0,8.82,0.52,16.22,0.65,17.91c1.3,23.62,15.31,38.67,36.21,38.67
			c20.76,0,34.65-14.66,36.21-39.84H1209.2"/>
		<path id="path19834" d="M817.82,424.82h373.47l142.74,167.14l-142.74,164.8H817.82L674.42,591.45L817.82,424.82z M1200.24,406.27
			H808.73L649.9,590.8l158.97,183.36h391.38l158.32-182.71L1200.24,406.27"/>
		<path id="path19836" d="M822.49,522.8h10.77c11.81,0,18.3,6.23,18.56,17.39c0,0.91,0.13,1.82,0.13,3.5c0,2.08,0,2.73-0.13,3.63
			c-0.65,6.62-3.63,18.17-17.39,18.17h-11.94V522.8z M876.86,644.26l-2.34-37.11c-1.04-16.61-5.32-26.47-14.01-31.53
			c6.23-3.76,14.27-12.98,14.14-32.31c0-29.33-18.3-39.71-39.84-39.97h-35.04v150.4h22.58l0.13-68.78h12.59
			c7.27,0,15.44,6.36,16.74,24.27l2.34,35.17c0.26,5.06,1.17,9.34,1.17,9.34h22.71C878.03,653.74,876.99,649.58,876.86,644.26"/>
		<path id="path19838" d="M1031.67,615.19c0,1.69-0.13,3.11-0.26,4.15c-0.65,8.43-3.5,17.39-13.89,17.39
			c-9.47,0-13.24-9.73-14.01-16.87c-0.39-4.28-0.26-7.66-0.39-20.37c-0.13-14.79,0.39-18.69,0.65-21.02
			c0.78-9.47,4.41-16.74,13.76-16.74c9.73-0.13,13.76,8.31,13.89,16.61c0,0.13,0.26,2.08,0.39,6.49h22.71c0-1.56-0.13-2.85-0.13-3.5
			c-2.6-31.4-21.8-39.06-36.85-39.06c-21.41,0-34.39,13.63-36.72,39.32c-0.26,2.08-0.52,5.84-0.65,17.91
			c-0.13,8.82,0.52,16.09,0.65,17.91c1.43,24.01,15.18,38.67,36.72,38.67c22.32,0.13,34.65-13.5,36.85-38.67
			c0-0.91,0.13-1.56,0.13-2.21H1031.67"/>
	</g>
</g>
</svg>
