<!-- Generator: Adobe Illustrator 28.1.0, SVG Export Plug-In . SVG Version: 6.00 Build 0)  -->
<svg version="1.1" id="Layer_1" xmlns="http://www.w3.org/2000/svg" xmlns:xlink="http://www.w3.org/1999/xlink" x="0px" y="0px"
	 viewBox="0 0 1686 2500" style="enable-background:new 0 0 1686 2500;" xml:space="preserve">
<path d="M774.1,0.7c-36,0.8-73.9,12.7-101.2,36.3c-48.6,41.9-97,85.3-95.4,142.3S611,268,611,268s21.8,16.7,0,33.4
	c-21.8,16.7-279.6,180.9-266.2,519.1c0,0,6.7,88-3.3,181.8c-7.2,67.4,16.5,149,30.4,189.9c0.3,0.4,6.9,17.2-7.9,7.4
	c-69.9-43.7-127-109.3-174.8-190.9c-43.9-79.7-68.9-171.7-68.9-269.6c0-208,112.9-389.2,279.3-482.5
	C171.4,319.6,3.1,533.4,3.1,787.3c0,19.4,0.9,38.6,2.9,57.5c1.9,43.8,6.7,113.6,19,141.6c18.4,41.9,16.7,132.2,16.7,147.3
	c0,15.1,5,510.6,298.1,509c0,0,139.7,3.5,140.6-53.5c0.8-50.2-13.5-55.5-26.7-84.6c-12.6-27.6-21.7-29.3-15-118c0,0,0.3-18,7-18.4
	c6.7-0.4,88.4,242.8,193.9,370c105.5,127.3,211,140.6,291.4,140.6c0,0,150.6,0,150.6-75.3c0-75.4-68.6-45.3-68.6-284.7
	c0-239.4,115.5-227.6,128.9-169c13.4,58.6,25.1,105.5,1.7,262.8c-23.4,157.4,40.2,175.8,98.8,175.8s366.7,10,420.3-870.8
	c0,0,6.7-142.3-40.2-264.5c0,0,20.1,234.4-125.6,360s-229.4,107.2-229.4,107.2s-70.3-5.1-98.7,30.1c-28.5,35.2-23.5,60.3-83.8,41.9
	c-60.3-18.4-60.5-33.4-115.8-26.7c-55.2,6.7-88.5,13.3-110.3-31.9c-21.8-45.2-46.1-74.3-91.3-82.7
	c-45.2-8.4-243.9-102.9-238.5-369.3c5-247.8,117.2-333.3,117.2-333.3s18.5-20.1,36.9-11.7c18.4,8.4,48.5,10.1,83.7-21.7
	s58.6-57,122.2-78.8c0,0,43.6-6.7,41.9-50.3S894,47,848.7,18.6C829,6.1,802.1,0,774.1,0.7L774.1,0.7z M926.1,1199.1
	c10.1-0.4,24.7,6.3,40.1,12.2c22.4,8.5,73.7,4.5,93.7,3.1c20-1.4,33.5,7.1,17.4,26.1c-22.1,26.2-48.6,25.3-82,27.6
	c-33.4,2.3-69.2-30.4-69.2-30.4c-1.9-3.2-18.2-20.6-10.6-32.8C917.8,1201,921.5,1199.2,926.1,1199.1z M755,664.8
	c38.7-47.5,60.3-53.6,93.8-53.6c33.5,0,80,21.5,93.8,73.7c15.1,56.9,22.7,65.7-31.6,129.2c-38.9,45.6-109.1,145.4-179.4,81.8
	C661.2,832.3,687.3,747.8,755,664.8L755,664.8z M1383.9,753.5c-22.7-56.9-41.4-69.2-73.4-79.2c-31.9-10-82.7-3.5-111.5,42.2
	c-31.5,49.8-42.3,54.5-9.6,131.4c23.5,55.2,61.4,172.8,147.6,133.2C1423.2,941.3,1423.6,853,1383.9,753.5L1383.9,753.5z
	 M1013,1127.2c17.9-28.1,59.7-37.6,83.9-38.3c31.7-1,31.2-28.3,31.2-28.3s2.2-27.9-112.2-39c-114.3-11.1-117.4,18.4-117.4,18.4
	s-5.4,26.8,25.6,33.5c23.6,5.1,62.7,22.4,75.4,53C1002,1133.8,1009.1,1133.9,1013,1127.2L1013,1127.2z M1552.6,440.3
	c-19.2,6.3-49.4,4.6-80.8-30.9c-31.4-35.5-51.9-63.1-112.8-91.8c0,0-42.5-11.5-36-54.6s52-134,100.1-157.3
	c48.1-23.3,129.1-9.2,172.7,37.8c43.6,47,87.1,95.6,79.1,152c-8,56.4-43.1,84.5-43.1,84.5l0.6,0.1
	C1615.7,401.9,1552.6,440.3,1552.6,440.3L1552.6,440.3z M57.1,2045.8h85.2c0,0,22.1-4,30.8,18.4c10.2,26.4,52.4,195.7,52.4,195.7
	l60.4-89.4c0,0-24.6-125.2,18.6-124.7c52.1,0.7,81.1,0,81.1,0s20.8-2,33.7,32.6c15.3,40.8,52.5,184.2,52.5,184.2l86-196.1
	c0,0,11.8-20.8,30.8-20.8c20.1,0,32.9,14.1,28.4,30.3c-6.8,24.6-149.2,399-149.2,399s-9.5,22.5-29.6,22.5
	c-20.1,0-28.4-11.8-39.1-39.1c-10.7-27.2-78.1-209.6-78.1-209.6l-101.8,230.9c0,0-7.7,17.7-23.7,17.7c-18.9,0-26-8.3-35.5-26
	c-9.5-17.8-129.1-359.9-129.1-359.9S7.4,2045.8,57.1,2045.8L57.1,2045.8z M686.7,2045.8H772c0,0,22.1-4,30.8,18.4
	c10.2,26.4,52.4,195.7,52.4,195.7l60.4-89.4c0,0-24.6-125.2,18.6-124.7c52.1,0.7,81.1,0,81.1,0s20.8-2,33.7,32.6
	c15.3,40.8,52.5,184.2,52.5,184.2l86-196.1c0,0,11.8-20.8,30.8-20.8c20.1,0,32.9,14.1,28.4,30.3c-6.8,24.6-149.2,399-149.2,399
	s-9.5,22.5-29.6,22.5c-20.1,0-28.4-11.8-39.1-39.1c-10.7-27.2-78.1-209.6-78.1-209.6l-101.8,230.9c0,0-7.7,17.7-23.7,17.7
	c-18.9,0-26-8.3-35.5-26c-9.5-17.8-129.1-359.9-129.1-359.9S637,2045.8,686.7,2045.8L686.7,2045.8z M1316.8,2497.5
	c0,0-29.3,2.5-29.3-43.6v-380.1c0,0,0-28.5,41.9-28.5h286.3c0,0,34.7-1.7,34.7,31.8s-32.2,30.1-32.2,30.1h-170.8
	c0,0-20.1,0-20.1,19.2v93.8h131.4c0,0,35.5,0,35.5,27.6c0,27.6-29.7,29.3-29.7,29.3h-138.1v182.8c0,0,2,37.5-22.2,37.5
	C1387.5,2497.5,1316.8,2496.6,1316.8,2497.5z"/>
</svg>
