<!-- Generator: Adobe Illustrator 28.1.0, SVG Export Plug-In . SVG Version: 6.00 Build 0)  -->
<svg version="1.1" id="Layer_1" xmlns="http://www.w3.org/2000/svg" xmlns:xlink="http://www.w3.org/1999/xlink" x="0px" y="0px"
	 viewBox="0 0 72 72" style="enable-background:new 0 0 72 72;" xml:space="preserve">
<g>
	<path d="M63.6,31.1c-1.3-0.9-4.3-1.2-6.6-0.8c-0.3-2.3-1.5-4.2-3.7-6l-1.2-0.9l-0.9,1.3c-1.1,1.7-1.6,4.1-1.5,6.3
		c0.1,0.8,0.3,2.2,1.1,3.4c-0.8,0.5-2.3,1-4.4,1H7.5l-0.1,0.5C7,38.2,7,45.2,11.4,50.6c3.4,4.1,8.3,6.2,14.9,6.2
		c14.2,0,24.6-6.8,29.6-19.1c1.9,0.1,6.1,0,8.2-4.2c0.1-0.1,0.2-0.3,0.5-1.2l0.2-0.5L63.6,31.1L63.6,31.1z M38.7,15.2h-5.9v5.6h5.9
		V15.2L38.7,15.2z M38.7,22h-5.9v5.6h5.9V22L38.7,22z M31.7,22h-5.9v5.6h5.9L31.7,22L31.7,22z M24.6,22h-5.9v5.6h5.9V22L24.6,22z
		 M17.6,28.7h-5.9v5.6h5.9L17.6,28.7L17.6,28.7z M24.6,28.7h-5.9v5.6h5.9V28.7L24.6,28.7z M31.7,28.7h-5.9v5.6h5.9L31.7,28.7
		L31.7,28.7z M38.7,28.7h-5.9v5.6h5.9V28.7L38.7,28.7z M45.7,28.7h-5.9v5.6h5.9V28.7L45.7,28.7z"/>
</g>
</svg>
