<!-- Generator: Adobe Illustrator 28.1.0, SVG Export Plug-In . SVG Version: 6.00 Build 0)  -->
<svg version="1.1" id="katman_1" xmlns="http://www.w3.org/2000/svg" xmlns:xlink="http://www.w3.org/1999/xlink" x="0px" y="0px"
	 viewBox="0 0 72 72" style="enable-background:new 0 0 72 72;" xml:space="preserve">
<g transform="matrix(3.72324 0 0 3.72324 100 155.731)">
	<path d="M-12-39.9H-19v9.5h9.5v-7.1C-9.5-38.8-10.6-39.9-12-39.9C-12-39.9-12-39.9-12-39.9z"/>
	<path d="M-21.2-39.9h-1.2c-1.4,0-2.5,1.1-2.5,2.5v1.2h3.7L-21.2-39.9L-21.2-39.9z"/>
	<path d="M-24.9-34h3.7v3.7h-3.7V-34z"/>
	<path d="M-13.1-24.5h1.2c1.4,0,2.5-1.1,2.5-2.5v0v-1.2h-3.7L-13.1-24.5C-13.1-24.5-13.1-24.5-13.1-24.5z"/>
	<path d="M-19-28.1h3.7v3.7H-19C-19-24.4-19-28.1-19-28.1z"/>
	<path d="M-24.9-28.1v1.2c0,1.4,1.1,2.5,2.5,2.5h1.2v-3.7C-21.2-28.1-24.9-28.1-24.9-28.1z"/>
</g>
</svg>
