<!-- Generator: Adobe Illustrator 28.1.0, SVG Export Plug-In . SVG Version: 6.00 Build 0)  -->
<svg version="1.1" id="Layer_1" xmlns="http://www.w3.org/2000/svg" xmlns:xlink="http://www.w3.org/1999/xlink" x="0px" y="0px"
	 viewBox="0 0 256 180" style="enable-background:new 0 0 256 180;" xml:space="preserve">
<g>
	<path d="M160.73,76.17c-1.95,0-3.34,0.67-4.24,2.06c-0.92,1.4-1.38,3.4-1.38,5.93c0,2.54,0.47,4.54,1.38,5.95
		c0.91,1.4,2.3,2.08,4.24,2.08c1.95,0,3.34-0.68,4.26-2.08c0.93-1.41,1.41-3.41,1.41-5.95c0-2.54-0.47-4.53-1.4-5.93
		C164.07,76.84,162.68,76.17,160.73,76.17z"/>
	<path d="M101.12,76.08c-1.95,0-3.33,0.76-4.24,2.15c-0.6,0.91-0.99,2.09-1.2,3.5h10.57c-0.11-1.36-0.37-2.58-0.98-3.5
		C104.35,76.84,103.06,76.08,101.12,76.08z"/>
	<path d="M71.99,85.03c0,0-1.9-0.31-4.02-0.34c-3.02-0.04-4.31,1.07-4.3,1.07c-0.89,0.63-1.32,1.57-1.32,2.87
		c0,0.82,0.15,1.47,0.44,1.93c0.2,0.3,0.28,0.42,0.86,0.88c-0.01,0,1.33,1.05,4.35,0.87c2.12-0.13,4-0.53,4-0.53h0V85.03z"/>
	<path d="M200.74,24.38c-7.94,0-15.48,1.69-22.3,4.74c-7.84-13.97-22.57-23.39-39.45-23.39c-12.7,0-24.18,5.33-32.43,13.92
		C97.48,7.79,83.16,0.13,67.06,0.13c-27.43,0-49.67,22.21-49.67,49.6c0,7.01,1.46,13.68,4.09,19.73
		C8.71,76.92,0.13,90.86,0.13,106.82c0,23.82,19.11,43.13,42.69,43.13c3.01,0,5.94-0.31,8.77-0.91c6.48,17.57,23.35,30.1,43.15,30.1
		c19.01,0,35.33-11.55,42.33-28.02c5.33,2.6,11.31,4.06,17.63,4.06c15.11,0,28.27-8.32,35.18-20.65c3.51,0.71,7.14,1.08,10.86,1.08
		c30.45,0,55.13-24.9,55.13-55.62C255.87,49.28,231.19,24.38,200.74,24.38z M54.89,88.92c0,4.49-3.26,7.28-8.5,7.28
		c-2.58,0-5.04-0.4-7.65-1.79c-0.49-0.28-0.98-0.53-1.46-0.88c-0.05-0.07-0.27-0.16-0.11-0.58l1.03-2.87
		c0.16-0.5,0.54-0.33,0.69-0.24c0.28,0.17,0.5,0.33,0.87,0.54c3.05,1.93,5.87,1.95,6.76,1.95c2.28,0,3.69-1.21,3.69-2.83v-0.09
		c0-1.78-2.17-2.44-4.7-3.22l-0.56-0.17c-3.46-0.99-7.16-2.41-7.16-6.79v-0.09c0-4.16,3.35-7.06,8.15-7.06l0.52,0
		c2.82,0,5.54,0.82,7.52,2.02c0.18,0.11,0.35,0.31,0.26,0.59c-0.09,0.26-0.97,2.61-1.07,2.87c-0.19,0.49-0.69,0.16-0.69,0.16
		c-1.73-0.95-4.41-1.7-6.67-1.7c-2.03,0-3.34,1.08-3.34,2.54v0.09c0,1.71,2.24,2.44,4.85,3.29l0.45,0.15
		c3.45,1.09,7.13,2.6,7.13,6.75V88.92z M76.37,94.76c0,0-0.55,0.15-1.04,0.27c-0.5,0.11-2.28,0.47-3.73,0.72
		c-1.47,0.25-2.98,0.38-4.5,0.38c-1.44,0-2.76-0.13-3.92-0.4c-1.18-0.27-2.2-0.71-3.02-1.31c-0.83-0.6-1.48-1.38-1.93-2.32
		c-0.45-0.93-0.68-2.07-0.68-3.38c0-1.29,0.27-2.44,0.79-3.42c0.52-0.98,1.25-1.8,2.15-2.44c0.9-0.64,1.94-1.13,3.1-1.44
		c1.15-0.31,2.38-0.47,3.65-0.47c0.93,0,1.71,0.03,2.31,0.07c0,0,1.17,0.11,2.44,0.29v-0.63c0-1.97-0.41-2.91-1.22-3.53
		c-0.83-0.64-2.06-0.96-3.66-0.96c0,0-3.61-0.05-6.46,1.5c-0.13,0.08-0.24,0.12-0.24,0.12s-0.35,0.12-0.48-0.24l-1.05-2.82
		c-0.16-0.41,0.13-0.59,0.13-0.59c1.33-1.04,4.57-1.67,4.57-1.67c1.07-0.21,2.86-0.37,3.97-0.37c2.96,0,5.25,0.69,6.81,2.05
		c1.56,1.37,2.36,3.57,2.36,6.54l0.01,13.56C76.71,94.28,76.74,94.67,76.37,94.76z M86.32,95.19c0,0.25-0.18,0.45-0.43,0.45h-3.93
		c-0.25,0-0.42-0.2-0.42-0.45V63.55c0-0.25,0.17-0.45,0.42-0.45h3.93c0.25,0,0.43,0.2,0.43,0.45V95.19z M110.87,85.01
		c-0.04,0.38-0.43,0.39-0.43,0.39l-14.82-0.01c0.09,2.25,0.63,3.85,1.73,4.93c1.07,1.06,2.77,1.74,5.07,1.74
		c3.52,0.01,5.03-0.7,6.09-1.09c0,0,0.41-0.15,0.56,0.26l0.97,2.71c0.2,0.46,0.04,0.62-0.12,0.71c-0.93,0.51-3.18,1.47-7.46,1.48
		c-2.08,0-3.89-0.3-5.38-0.87c-1.5-0.58-2.75-1.41-3.73-2.47c-0.98-1.05-1.7-2.32-2.15-3.77c-0.45-1.43-0.67-3.02-0.67-4.73
		c0-1.68,0.22-3.27,0.65-4.73c0.43-1.47,1.11-2.76,2.01-3.85c0.9-1.09,2.05-1.96,3.41-2.6c1.36-0.64,3.05-0.95,4.89-0.95
		c1.59,0,3.04,0.34,4.25,0.86c0.93,0.4,1.86,1.12,2.81,2.15c0.6,0.65,1.52,2.07,1.89,3.47C111.38,81.97,110.88,84.85,110.87,85.01z
		 M123.19,96.21c-2.58,0-5.04-0.4-7.65-1.79c-0.49-0.28-0.98-0.53-1.46-0.88c-0.05-0.07-0.27-0.16-0.11-0.58l1.03-2.87
		c0.15-0.47,0.6-0.3,0.69-0.24c0.28,0.18,0.5,0.33,0.86,0.54c3.05,1.93,5.87,1.95,6.76,1.95c2.28,0,3.7-1.21,3.7-2.83v-0.09
		c0-1.78-2.18-2.44-4.7-3.22l-0.56-0.17c-3.46-0.99-7.16-2.41-7.16-6.79v-0.09c0-4.16,3.35-7.06,8.15-7.06l0.52,0
		c2.82,0,5.54,0.82,7.52,2.02c0.18,0.11,0.35,0.31,0.26,0.59c-0.09,0.26-0.97,2.61-1.07,2.87c-0.19,0.49-0.69,0.16-0.69,0.16
		c-1.73-0.95-4.41-1.7-6.67-1.7c-2.03,0-3.34,1.08-3.34,2.54v0.09c0,1.71,2.24,2.44,4.85,3.29l0.45,0.15
		c3.45,1.09,7.13,2.6,7.13,6.75v0.09C131.69,93.42,128.43,96.21,123.19,96.21z M149.08,76.17c-0.08,0.45-0.5,0.43-0.5,0.43h-4.88
		l-3.34,18.9c-0.35,1.95-0.79,3.63-1.3,4.98c-0.52,1.37-1.06,2.36-1.92,3.32c-0.8,0.88-1.7,1.53-2.74,1.91
		c-1.03,0.37-2.28,0.56-3.64,0.56c-0.65,0-1.35-0.01-2.17-0.2c-0.59-0.14-0.92-0.24-1.36-0.4c-0.19-0.07-0.33-0.3-0.23-0.59
		c0.11-0.3,0.98-2.7,1.1-3.01c0.15-0.38,0.54-0.24,0.54-0.24c0.27,0.11,0.45,0.19,0.8,0.26c0.35,0.07,0.83,0.13,1.19,0.13
		c0.64,0,1.24-0.08,1.75-0.25c0.62-0.21,0.98-0.56,1.36-1.05c0.39-0.5,0.71-1.19,1.03-2.11c0.33-0.93,0.63-2.16,0.89-3.65
		l3.32-18.55h-3.28c-0.39,0-0.52-0.19-0.48-0.48l0.55-3.09c0.09-0.44,0.5-0.43,0.5-0.43h3.37l0.18-1c0.5-2.98,1.5-5.24,2.98-6.73
		c1.48-1.49,3.6-2.25,6.28-2.25c0.77,0,1.45,0.05,2.01,0.15c0.56,0.11,0.99,0.2,1.46,0.35c0.1,0.04,0.39,0.18,0.27,0.52l-1.13,3.11
		c-0.09,0.23-0.16,0.38-0.64,0.23c-0.12-0.04-0.3-0.09-0.76-0.19c-0.33-0.07-0.77-0.12-1.22-0.12c-0.59,0-1.12,0.07-1.59,0.23
		c-0.46,0.15-0.88,0.41-1.24,0.77c-0.37,0.37-0.81,0.91-1.04,1.58c-0.54,1.57-0.76,3.24-0.78,3.34h4.74c0.4,0,0.52,0.18,0.48,0.48
		L149.08,76.17z M170.78,88.86c-0.43,1.45-1.1,2.74-1.99,3.8c-0.89,1.07-2.03,1.93-3.36,2.54c-1.34,0.61-2.92,0.92-4.69,0.92
		c-1.78,0-3.36-0.31-4.7-0.92c-1.34-0.61-2.47-1.46-3.36-2.54c-0.9-1.07-1.56-2.35-2-3.8c-0.43-1.44-0.64-3.03-0.64-4.71
		s0.21-3.26,0.64-4.71c0.43-1.45,1.1-2.73,1.99-3.8c0.9-1.07,2.03-1.93,3.37-2.56c1.34-0.62,2.92-0.94,4.7-0.94
		c1.77,0,3.36,0.32,4.69,0.94c1.34,0.63,2.47,1.49,3.36,2.56c0.89,1.07,1.56,2.35,1.99,3.8c0.43,1.45,0.64,3.03,0.64,4.71
		C171.42,85.83,171.21,87.42,170.78,88.86z M189.1,73.38c-0.14,0.4-0.86,2.43-1.11,3.11c-0.09,0.26-0.26,0.43-0.54,0.4
		c0,0-0.85-0.2-1.63-0.2c-0.54,0-1.3,0.07-1.99,0.28c-0.67,0.21-1.29,0.58-1.83,1.1c-0.54,0.53-0.98,1.26-1.3,2.18
		c-0.33,0.93-0.49,2.41-0.49,3.89v11.05c0,0.25-0.2,0.45-0.45,0.45h-3.89c-0.25,0-0.45-0.2-0.45-0.45V73.08
		c0-0.25,0.18-0.45,0.43-0.45h3.8c0.25,0,0.43,0.2,0.43,0.45v1.8c0.57-0.76,1.59-1.43,2.51-1.85c0.93-0.42,1.96-0.73,3.82-0.62
		c0.97,0.06,2.23,0.33,2.48,0.43C188.98,72.88,189.21,73.04,189.1,73.38z M207.63,95c-1.65,0.65-3.96,1.11-6.2,1.11
		c-3.8,0-6.71-1.1-8.65-3.25c-1.93-2.15-2.91-5.09-2.91-8.72c0-1.68,0.24-3.27,0.71-4.71c0.48-1.45,1.19-2.73,2.13-3.8
		c0.94-1.07,2.13-1.93,3.53-2.55c1.4-0.63,3.04-0.94,4.88-0.94c1.23,0,2.34,0.08,3.29,0.22c1.01,0.15,2.35,0.51,2.92,0.74
		c0.1,0.04,0.39,0.18,0.27,0.51c-0.41,1.17-0.69,1.93-1.07,2.99c-0.16,0.45-0.51,0.3-0.51,0.3c-1.44-0.46-2.82-0.66-4.63-0.66
		c-2.17,0-3.79,0.72-4.86,2.14c-1.07,1.42-1.67,3.29-1.68,5.77c-0.01,2.73,0.67,4.74,1.88,5.99c1.21,1.25,2.89,1.88,5.01,1.88
		c0.86,0,1.67-0.06,2.4-0.17c0.72-0.11,1.4-0.34,2.04-0.58c0,0,0.41-0.16,0.56,0.27l1.07,2.97C207.95,94.85,207.63,95,207.63,95z
		 M229.58,85.01c-0.04,0.38-0.43,0.39-0.43,0.39l-14.82-0.01c0.09,2.25,0.63,3.85,1.73,4.93c1.07,1.06,2.77,1.74,5.07,1.74
		c3.52,0.01,5.02-0.7,6.08-1.09c0,0,0.41-0.15,0.56,0.26l0.97,2.71c0.2,0.46,0.04,0.62-0.12,0.71c-0.93,0.51-3.18,1.47-7.46,1.48
		c-2.08,0-3.89-0.3-5.38-0.87c-1.5-0.58-2.75-1.41-3.73-2.47c-0.98-1.05-1.7-2.32-2.15-3.77c-0.45-1.43-0.67-3.02-0.67-4.73
		c0-1.68,0.22-3.27,0.65-4.73c0.43-1.47,1.11-2.76,2.01-3.85c0.9-1.09,2.05-1.96,3.41-2.6c1.36-0.64,3.04-0.95,4.89-0.95
		c1.59,0,3.04,0.34,4.25,0.86c0.93,0.4,1.86,1.12,2.81,2.15c0.6,0.65,1.53,2.07,1.9,3.47C230.09,81.97,229.6,84.85,229.58,85.01z"/>
	<path d="M219.83,76.08c-1.95,0-3.33,0.76-4.24,2.15c-0.6,0.91-0.99,2.09-1.2,3.5h10.57c-0.11-1.36-0.37-2.58-0.98-3.5
		C223.07,76.84,221.78,76.08,219.83,76.08z"/>
</g>
</svg>
