<!-- Generator: Adobe Illustrator 28.1.0, SVG Export Plug-In . SVG Version: 6.00 Build 0)  -->
<svg version="1.1" id="Layer_1" xmlns="http://www.w3.org/2000/svg" xmlns:xlink="http://www.w3.org/1999/xlink" x="0px" y="0px"
	 viewBox="0 0 360 180" style="enable-background:new 0 0 360 180;" xml:space="preserve">
<g>
	<path d="M205.8,82.5c-0.6,2.2-1,4.5-1,7c0,2.5,0.3,4.9,1,7c0.7,2.2,1.6,4.1,3,5.7c1.3,1.6,3,2.9,5,3.8s4.4,1.4,7,1.4
		c2.6,0,5-0.5,7-1.4c2-0.9,3.7-2.2,5-3.8c1.3-1.6,2.3-3.5,3-5.7c0.6-2.2,1-4.5,1-7c0-2.5-0.3-4.9-1-7c-0.6-2.2-1.6-4.1-3-5.7
		c-1.3-1.6-3-2.9-5-3.8c-2-0.9-4.4-1.4-7-1.4c-2.7,0-5,0.5-7,1.4c-2,0.9-3.7,2.2-5,3.8C207.5,78.4,206.5,80.3,205.8,82.5z
		 M214.5,80.7c1.3-2.1,3.4-3.1,6.3-3.1c2.9,0,5,1,6.4,3.1c1.4,2.1,2.1,5.1,2.1,8.9c0,3.8-0.7,6.8-2.1,8.9c-1.4,2.1-3.5,3.1-6.4,3.1
		c-2.9,0-5-1-6.3-3.1c-1.4-2.1-2.1-5.1-2.1-8.9C212.4,85.8,213.1,82.8,214.5,80.7z"/>
	<path d="M153.3,104.9c3.9,2.1,7.6,2.7,11.4,2.7c7.8,0,12.7-4.2,12.7-10.9v-0.1c0-6.2-5.5-8.5-10.7-10.1l-0.7-0.2
		c-3.9-1.3-7.2-2.4-7.2-4.9v-0.1c0-2.2,2-3.8,5-3.8c3.4,0,7.4,1.1,10,2.5c0,0,0.8,0.5,1-0.2c0.2-0.4,1.5-3.9,1.6-4.3
		c0.1-0.4-0.1-0.7-0.4-0.9c-3-1.8-7-3-11.2-3h-0.8c-7.2,0-12.2,4.3-12.2,10.6v0.1c0,6.5,5.5,8.7,10.7,10.2l0.8,0.3
		c3.8,1.2,7,2.2,7,4.8v0.1c0,2.4-2.1,4.2-5.5,4.2c-1.3,0-5.5,0-10.1-2.9c-0.5-0.3-0.9-0.5-1.3-0.8c-0.1-0.1-0.8-0.3-1,0.4l-1.5,4.3
		c-0.2,0.6,0.1,0.8,0.2,0.9C151.8,104.1,152.5,104.5,153.3,104.9z"/>
	<path d="M281.7,107.4c3.3,0,6.8-0.7,9.3-1.7c0,0,0.5-0.2,0.3-0.7l-1.6-4.4c-0.2-0.6-0.8-0.4-0.8-0.4c-1,0.4-2,0.7-3,0.9
		c-1.1,0.2-2.3,0.3-3.6,0.3c-3.2,0-5.7-0.9-7.5-2.8c-1.8-1.9-2.8-4.9-2.8-9c0-3.7,0.9-6.5,2.5-8.6c1.6-2.1,4-3.2,7.3-3.2
		c2.7,0,4.8,0.3,6.9,1c0,0,0.5,0.2,0.8-0.5c0.6-1.6,1-2.7,1.6-4.5c0.2-0.5-0.3-0.7-0.4-0.8c-0.9-0.3-2.9-0.9-4.4-1.1
		c-1.4-0.2-3.1-0.3-4.9-0.3c-2.7,0-5.2,0.5-7.3,1.4c-2.1,0.9-3.9,2.2-5.3,3.8c-1.4,1.6-2.5,3.5-3.2,5.7c-0.7,2.2-1.1,4.5-1.1,7
		c0,5.4,1.5,9.8,4.4,13C271.7,105.8,276,107.4,281.7,107.4z"/>
	<path d="M243.5,106.7h5.8c0.4,0,0.7-0.3,0.7-0.7V89.5c0-2.2,0.2-4.4,0.7-5.8c0.5-1.4,1.1-2.5,1.9-3.3c0.8-0.8,1.7-1.3,2.7-1.6
		c1-0.3,2.2-0.4,3-0.4c1.2,0,2.4,0.3,2.4,0.3c0.4,0,0.7-0.2,0.8-0.6c0.4-1,1.5-4.1,1.7-4.7c0.2-0.5-0.2-0.8-0.3-0.8
		c-0.4-0.2-2.3-0.6-3.7-0.6c-2.8-0.2-4.3,0.3-5.7,0.9c-1.4,0.6-2.9,1.6-3.8,2.8V73c0-0.4-0.3-0.7-0.6-0.7h-5.7
		c-0.4,0-0.6,0.3-0.6,0.7v33.1C242.8,106.4,243.1,106.7,243.5,106.7z"/>
	<path d="M297.6,102.5c1.5,1.6,3.3,2.8,5.6,3.7c2.2,0.9,4.9,1.3,8,1.3c6.4,0,9.8-1.5,11.2-2.2c0.2-0.1,0.5-0.4,0.2-1.1l-1.5-4.1
		c-0.2-0.6-0.8-0.4-0.8-0.4c-1.6,0.6-3.8,1.6-9.1,1.6c-3.4,0-6-1-7.6-2.6c-1.6-1.6-2.5-4-2.6-7.4l22.2,0c0,0,0.6,0,0.6-0.6
		c0-0.2,0.8-4.5-0.6-9.5c-0.6-2.1-1.9-4.2-2.8-5.2c-1.4-1.5-2.8-2.6-4.2-3.2c-1.8-0.8-4-1.3-6.4-1.3c-2.8,0-5.3,0.5-7.3,1.4
		c-2,1-3.8,2.3-5.1,3.9c-1.3,1.6-2.4,3.6-3,5.8c-0.6,2.2-1,4.6-1,7.1c0,2.6,0.3,4.9,1,7.1C295,99,296.1,100.9,297.6,102.5z
		 M302.9,80.7c1.4-2.1,3.4-3.2,6.3-3.2s4.8,1.1,6.2,3.2c0.9,1.4,1.3,3.2,1.5,5.2h-15.8C301.4,83.8,302,82.1,302.9,80.7z"/>
	<path d="M174.1,116.4c-0.5-0.1-0.8-0.2-1.2-0.4c0,0-0.6-0.2-0.8,0.4c-0.2,0.5-1.5,4.1-1.6,4.5c-0.2,0.4,0.1,0.8,0.3,0.9
		c0.7,0.2,1.2,0.4,2,0.6c1.2,0.3,2.3,0.3,3.2,0.3c2,0,3.9-0.3,5.4-0.8c1.6-0.6,2.9-1.5,4.1-2.9c1.3-1.4,2.1-2.9,2.9-5
		c0.8-2,1.4-4.5,1.9-7.5l5-28.3h7.3c0,0,0.6,0,0.8-0.6l0.8-4.6c0.1-0.5-0.1-0.7-0.7-0.7h-7.1c0-0.2,0.4-2.6,1.2-5
		c0.3-1,1-1.8,1.6-2.4c0.5-0.5,1.2-0.9,1.9-1.2c0.7-0.2,1.5-0.3,2.4-0.3c0.7,0,1.3,0.1,1.8,0.2c0.7,0.2,1,0.2,1.1,0.3
		c0.7,0.2,0.8,0,1-0.3l1.7-4.7c0.2-0.5-0.3-0.7-0.4-0.8c-0.7-0.2-1.3-0.4-2.2-0.5c-0.8-0.2-1.9-0.2-3-0.2c-4,0-7.2,1.1-9.4,3.4
		c-2.2,2.2-3.7,5.6-4.5,10.1l-0.3,1.5h-5c0,0-0.6,0-0.8,0.6l-0.8,4.6c-0.1,0.4,0.1,0.7,0.7,0.7h4.9l-5,27.7
		c-0.4,2.2-0.8,4.1-1.3,5.5c-0.5,1.4-1,2.4-1.5,3.2c-0.6,0.7-1.1,1.3-2,1.6c-0.8,0.3-1.7,0.4-2.6,0.4
		C175.3,116.6,174.6,116.5,174.1,116.4z"/>
	<path d="M70.5,104.9c1.2,0.9,2.7,1.6,4.5,2c1.7,0.4,3.7,0.6,5.9,0.6c2.3,0,4.5-0.2,6.7-0.6c2.2-0.4,4.8-0.9,5.6-1.1
		c0.7-0.2,1.6-0.4,1.6-0.4c0.6-0.1,0.5-0.7,0.5-0.7l0-20.3c0-4.4-1.2-7.7-3.5-9.8c-2.3-2-5.8-3.1-10.2-3.1c-1.7,0-4.3,0.2-5.9,0.6
		c0,0-4.8,0.9-6.8,2.5c0,0-0.4,0.3-0.2,0.9l1.6,4.2c0.2,0.5,0.7,0.4,0.7,0.4s0.2-0.1,0.4-0.2c4.3-2.3,9.7-2.2,9.7-2.2
		c2.4,0,4.2,0.5,5.5,1.4c1.2,0.9,1.8,2.3,1.8,5.3v0.9c-1.9-0.3-3.6-0.4-3.6-0.4c-0.9-0.1-2.1-0.1-3.5-0.1c-1.9,0-3.7,0.2-5.5,0.7
		c-1.7,0.5-3.3,1.2-4.6,2.2c-1.3,1-2.4,2.2-3.2,3.6c-0.8,1.5-1.2,3.2-1.2,5.1c0,2,0.3,3.7,1,5.1C68.2,102.8,69.2,104,70.5,104.9z
		 M75.7,92c0,0,1.9-1.7,6.4-1.6c3.2,0,6,0.5,6,0.5h0V101c0,0-2.8,0.6-6,0.8c-4.5,0.3-6.5-1.3-6.5-1.3c-0.9-0.7-1-0.9-1.3-1.3
		c-0.4-0.7-0.7-1.7-0.7-2.9C73.7,94.3,74.4,92.9,75.7,92z"/>
	<path d="M103.1,106.7h5.9c0.4,0,0.6-0.3,0.6-0.7V58.7c0-0.4-0.3-0.7-0.6-0.7h-5.9c-0.4,0-0.6,0.3-0.6,0.7v47.3
		C102.4,106.4,102.7,106.7,103.1,106.7z"/>
	<path d="M38.4,104.9c3.9,2.1,7.6,2.7,11.4,2.7c7.8,0,12.7-4.2,12.7-10.9h0v-0.1c0-6.2-5.5-8.5-10.7-10.1l-0.7-0.2
		C47.4,85,44,83.9,44,81.3v-0.1c0-2.2,2-3.8,5-3.8c3.4,0,7.4,1.1,10,2.5c0,0,0.8,0.5,1-0.2c0.2-0.4,1.5-3.9,1.6-4.3
		c0.1-0.4-0.1-0.7-0.4-0.9c-3-1.8-7-3-11.2-3h-0.8C42,71.5,37,75.8,37,82v0.1c0,6.5,5.5,8.7,10.7,10.2l0.8,0.3c3.8,1.2,7,2.2,7,4.8
		v0.1c0,2.4-2.1,4.2-5.5,4.2c-1.3,0-5.5,0-10.1-2.9c-0.6-0.3-0.9-0.6-1.3-0.8c-0.2-0.1-0.8-0.4-1,0.4l-1.5,4.3
		c-0.2,0.6,0.1,0.8,0.2,0.9C37,104.1,37.7,104.5,38.4,104.9z"/>
	<path d="M120.1,102.5c1.5,1.6,3.3,2.8,5.6,3.7c2.2,0.9,4.9,1.3,8,1.3c6.4,0,9.8-1.5,11.2-2.2c0.2-0.1,0.5-0.4,0.2-1.1l-1.5-4.1
		c-0.2-0.6-0.8-0.4-0.8-0.4c-1.6,0.6-3.8,1.6-9.1,1.6c-3.4,0-6-1-7.6-2.6c-1.6-1.6-2.5-4-2.6-7.4l22.2,0c0,0,0.6,0,0.6-0.6
		c0-0.2,0.8-4.5-0.6-9.5c-0.6-2.1-1.9-4.2-2.8-5.2c-1.4-1.5-2.8-2.6-4.2-3.2c-1.8-0.8-4-1.3-6.4-1.3c-2.7,0-5.3,0.5-7.3,1.4
		c-2,1-3.8,2.3-5.1,3.9c-1.3,1.6-2.4,3.6-3,5.8c-0.6,2.2-1,4.6-1,7.1c0,2.6,0.3,4.9,1,7.1C117.5,99,118.6,100.9,120.1,102.5z
		 M125.4,80.7c1.4-2.1,3.4-3.2,6.3-3.2c2.9,0,4.8,1.1,6.2,3.2c0.9,1.4,1.3,3.2,1.5,5.2h-15.8C123.9,83.8,124.5,82.1,125.4,80.7z"/>
</g>
</svg>
