<!-- Generator: Adobe Illustrator 28.1.0, SVG Export Plug-In . SVG Version: 6.00 Build 0)  -->
<svg version="1.1" id="Layer_1" xmlns="http://www.w3.org/2000/svg" xmlns:xlink="http://www.w3.org/1999/xlink" x="0px" y="0px"
	 viewBox="0 0 72 72" style="enable-background:new 0 0 72 72;" xml:space="preserve">
<g>
	<path d="M63.2,13.5c-2.3,1.4-4.8,2.3-7.5,2.9c-2.2-2.3-5.2-3.7-8.6-3.7c-6.5,0-11.8,5.3-11.8,11.8c0,0.9,0.1,1.8,0.3,2.7
		c-9.8-0.5-18.5-5.2-24.4-12.4c-1,1.8-1.6,3.8-1.6,5.9c0,4.1,2.1,7.7,5.3,9.8c-1.9-0.1-3.8-0.6-5.4-1.5c0,0,0,0.1,0,0.1
		c0,5.7,4.1,10.5,9.5,11.6c-1,0.3-2,0.4-3.1,0.4c-0.8,0-1.5-0.1-2.2-0.2c1.5,4.7,5.9,8.1,11,8.2c-4,3.2-9.1,5.1-14.7,5.1
		c-1,0-1.9-0.1-2.8-0.2c5.2,3.4,11.4,5.3,18.1,5.3c21.7,0,33.6-18,33.6-33.6c0-0.5,0-1,0-1.5c2.3-1.7,4.3-3.7,5.9-6.1
		c-2.1,0.9-4.4,1.6-6.8,1.9C60.4,18.5,62.3,16.2,63.2,13.5z"/>
</g>
</svg>
