<!-- Generator: Adobe Illustrator 28.1.0, SVG Export Plug-In . SVG Version: 6.00 Build 0)  -->
<svg version="1.1" id="Layer_1" xmlns="http://www.w3.org/2000/svg" xmlns:xlink="http://www.w3.org/1999/xlink" x="0px" y="0px"
	 viewBox="0 0 360 180" style="enable-background:new 0 0 360 180;" xml:space="preserve">
<g id="Ebene_x0020_1">
	<path d="M320.6,68.7v8.6c-4.4-1.7-8.4-2.5-11.9-2.5c-2.1,0-3.7,0.4-4.9,1.1c-1.2,0.7-1.9,1.7-1.9,2.7c0,1.4,1.4,2.7,4.2,3.8
		l8.1,3.9c6.5,3.1,9.8,7.2,9.8,12.4c0,4.3-1.7,7.8-5.2,10.3c-3.4,2.6-8.1,3.8-13.8,3.8c-2.7,0-5-0.1-7.2-0.4
		c-2.1-0.2-4.6-0.7-7.3-1.4v-9c5,1.7,9.5,2.5,13.5,2.5c4.8,0,7.3-1.4,7.3-4.2c0-1.4-1-2.5-3-3.4l-9-3.8c-3.3-1.5-5.8-3.3-7.4-5.5
		c-1.6-2.2-2.4-4.6-2.4-7.5c0-4,1.7-7.2,5-9.6c3.3-2.4,7.8-3.6,13.2-3.6c1.8,0,3.8,0.2,6.1,0.5C316.3,67.8,318.5,68.2,320.6,68.7
		L320.6,68.7z"/>
	<path d="M66.9,68.7v8.6c-4.4-1.7-8.4-2.5-11.9-2.5c-2.1,0-3.7,0.4-4.9,1.1c-1.2,0.7-1.9,1.7-1.9,2.7c0,1.4,1.4,2.7,4.2,3.8l8.1,3.9
		c6.5,3.1,9.7,7.2,9.7,12.4c0,4.3-1.7,7.8-5.2,10.3c-3.5,2.6-8.1,3.8-13.8,3.8c-2.7,0-5.1-0.1-7.2-0.4c-2.1-0.2-4.5-0.7-7.3-1.4v-9
		c5,1.7,9.5,2.5,13.5,2.5c4.8,0,7.3-1.4,7.3-4.2c0-1.4-1-2.5-3-3.4l-9-3.8c-3.3-1.5-5.8-3.3-7.4-5.5c-1.6-2.2-2.4-4.6-2.4-7.5
		c0-4,1.7-7.2,5-9.6c3.3-2.4,7.7-3.6,13.2-3.6c1.8,0,3.8,0.2,6.1,0.5C62.6,67.8,64.8,68.2,66.9,68.7z"/>
	<polygon points="76.2,67.9 89.3,67.9 89.3,112.1 76.2,112.1 	"/>
	<polygon points="131.6,67.9 131.6,76.1 112.1,76.1 112.1,85.9 129.1,85.9 129.1,93.2 112.1,93.2 112.1,103.5 132,103.5 132,112.1 
		99.5,112.1 99.5,67.9 	"/>
	<polygon points="193,67.9 193,112.1 180.7,112.1 180.7,82.9 168,112.5 160.4,112.5 148.2,82.9 148.2,112.1 139.3,112.1 139.3,67.9 
		155.3,67.9 166.3,95 177.7,67.9 	"/>
	<polygon points="235.3,67.9 235.3,76.1 215.8,76.1 215.8,85.9 232.8,85.9 232.8,93.2 215.8,93.2 215.8,103.5 235.7,103.5 
		235.7,112.1 203.1,112.1 203.1,67.9 	"/>
	<polygon points="281.3,67.9 281.3,112.1 267.4,112.1 251.8,83.7 251.8,112.1 242.9,112.1 242.9,67.9 257.3,67.9 272.5,95.8 
		272.5,67.9 	"/>
</g>
</svg>
