<!-- Generator: Adobe Illustrator 28.1.0, SVG Export Plug-In . SVG Version: 6.00 Build 0)  -->
<svg version="1.1" id="Layer_1" xmlns="http://www.w3.org/2000/svg" xmlns:xlink="http://www.w3.org/1999/xlink" x="0px" y="0px"
	 viewBox="0 0 72 72" style="enable-background:new 0 0 72 72;" xml:space="preserve">
<path d="M54.7,33.3l-0.4-0.7c0-5.2-2.4-7.3-5.1-9c0.8-0.2,1.7-0.4,1.9-1.5c1.4-0.4,1.7-1.1,1.9-1.8c0.4-0.3,1.6-1,1.5-2.2
	c0.7-0.5,1.1-1.1,0.9-2c0.8-0.8,1-1.5,0.6-2.2c0.9-1.2,0.5-1.8,0.1-2.4c0.7-1.3,0.1-2.6-1.8-2.4c-0.8-1.1-2.4-0.9-2.7-0.9
	c-0.3-0.4-0.7-0.7-1.8-0.5c-0.8-0.7-1.6-0.6-2.5-0.2c-1-0.8-1.7-0.2-2.5,0.1c-1.3-0.4-1.5,0.2-2.2,0.4c-1.4-0.3-1.8,0.3-2.4,1
	l-0.8,0c-2.1,1.2-3.1,3.7-3.4,5c-0.4-1.3-1.4-3.7-3.4-5l-0.8,0c-0.7-0.7-1.1-1.3-2.4-1c-0.6-0.2-0.9-0.8-2.2-0.4
	c-0.5-0.2-1-0.5-1.5-0.5l0,0c-0.3,0-0.6,0.1-1,0.4c-0.9-0.3-1.7-0.5-2.5,0.2c-1.2-0.2-1.5,0.2-1.8,0.5c-0.3,0-1.9-0.3-2.7,0.9
	c-1.9-0.2-2.5,1.1-1.8,2.4c-0.4,0.6-0.8,1.2,0.1,2.4c-0.3,0.6-0.1,1.3,0.6,2.2c-0.2,0.9,0.2,1.5,0.9,2c-0.1,0.8,0.4,1.4,0.9,1.7l0,0
	c0.3,0.2,0.5,0.4,0.6,0.5c0.1,0.7,0.4,1.4,1.9,1.8c0.2,1.1,1.1,1.3,1.9,1.5c-2.8,1.6-5.2,3.7-5.1,9l-0.4,0.7
	c-3.2,1.9-6.1,8.2-1.6,13.2c0.3,1.6,0.8,2.7,1.2,4c0.7,5.1,4.9,7.5,6.1,7.7c1.7,1.3,3.4,2.5,5.8,3.3c2.2,2.3,4.7,3.2,7.1,3.2
	c0,0,5-0.9,7.2-3.2c2.4-0.8,4.1-2,5.8-3.3c1.1-0.3,5.4-2.7,6.1-7.7c0.4-1.3,0.9-2.4,1.2-4C60.7,41.5,57.9,35.3,54.7,33.3z
	 M51.8,32.5c-0.2,2.1-11-7.3-9.1-7.6C47.7,24,51.9,27,51.8,32.5z M47.3,42.9c-2.7,1.8-6.6,0.6-8.7-2.6c-2.1-3.2-1.6-7.2,1.1-9
	c2.7-1.8,6.6-0.6,8.7,2.6C50.5,37.1,50,41.2,47.3,42.9z M39.9,10.5c0.1,0.5,0.2,0.8,0.3,0.9c0.6-0.7,1.1-1.3,1.9-2
	c0,0.4-0.2,0.8,0.3,1.1c0.4-0.6,1-1.1,1.7-1.5C43.7,9.6,44,9.8,44.2,10c0.6-0.5,1.1-1,2.2-1.4c-0.3,0.4-0.7,0.7-0.3,1.1
	c0.6-0.4,1.2-0.7,2.6-1c-0.3,0.4-1,0.7-0.6,1.1c0.7-0.3,1.5-0.5,2.4-0.6c-0.4,0.4-0.8,0.7-0.4,1c0.8-0.2,1.9-0.6,2.9-0.3l-0.7,0.7
	c-0.1,0.1,1.6,0.1,2.6,0.1c-0.4,0.6-0.8,1.1-1,2.1c0.1,0.1,0.6,0,1.1,0c-0.5,1.1-1.4,1.4-1.6,1.9c0.3,0.2,0.8,0.2,1.2,0
	c-0.4,0.8-1.2,1.3-1.8,2c0.2,0.1,0.4,0.2,1.1,0.1c-0.6,0.6-1.3,1.2-2.1,1.7c0.1,0.2,0.6,0.2,1.1,0.2c-0.7,0.7-1.7,1.1-2.6,1.6
	c0.4,0.3,0.8,0.2,1.1,0.2c-0.6,0.5-1.7,0.8-2.7,1.1c0.2,0.3,0.4,0.4,0.8,0.5c-1.1,0.6-2.6,0.3-3,0.6c0.1,0.3,0.4,0.5,0.7,0.7
	c-1.7,0.1-6.4-0.1-7.2-3.6c1.7-1.9,4.9-4.2,10.4-7c-4.3,1.4-8.1,3.4-11.3,6C35.5,16.8,38.1,12.3,39.9,10.5z M36,23.4L36,23.4
	c2.7,0,6,2,6,3.9c0,1.7-2.3,3.1-6,3c-3.6,0-5.9-1.7-5.9-3.3C30.1,25.6,33,23.3,36,23.4z M22.4,21.9c0.4-0.1,0.6-0.2,0.8-0.5
	c-1-0.3-2.1-0.6-2.7-1.1c0.3,0,0.7,0.1,1.1-0.2c-0.9-0.5-1.8-0.9-2.6-1.6c0.5,0,1,0,1.1-0.2c-0.8-0.5-1.5-1.1-2.1-1.7
	c0.6,0.1,0.9,0,1.1-0.1c-0.6-0.6-1.4-1.2-1.8-2c0.5,0.2,0.9,0.2,1.2,0c-0.2-0.5-1.1-0.8-1.6-1.9c0.5,0,1,0.1,1.1,0
	c-0.2-1-0.6-1.5-1-2.1c1.1,0,2.7,0,2.6-0.1l-0.7-0.7c1.1-0.3,2.1,0,2.9,0.3c0.4-0.3,0-0.6-0.4-1c0.9,0.1,1.7,0.3,2.4,0.6
	c0.4-0.4-0.3-0.7-0.6-1.1c1.4,0.3,2,0.6,2.6,1c0.4-0.4,0-0.8-0.3-1.1c1,0.4,1.6,0.9,2.2,1.4C28.1,9.8,28.4,9.6,28,9
	c0.7,0.4,1.3,0.9,1.7,1.5c0.5-0.3,0.3-0.7,0.3-1.1c0.8,0.6,1.3,1.3,1.9,2c0.1-0.1,0.2-0.4,0.3-0.9c1.8,1.8,4.4,6.3,0.7,8.1
	c-3.2-2.6-7-4.6-11.3-6c5.5,2.8,8.6,5.1,10.4,7c-0.9,3.6-5.5,3.7-7.2,3.6c0.3-0.2,0.6-0.4,0.7-0.7C25,22.3,23.5,22.5,22.4,21.9z
	 M28.7,24.7c1.9,0.3-8.9,9.7-9.1,7.6C19.4,26.8,23.7,23.8,28.7,24.7z M17.4,45.7c-2.6-2.1-3.5-8.3,1.4-11.1
	C21.7,33.8,19.8,46.7,17.4,45.7z M27.6,56.7c-1.5,0.9-5.1,0.5-7.6-3.1c-1.7-3.1-1.5-6.2-0.3-7.1c1.8-1.1,4.6,0.4,6.8,2.9l0,0
	C28.3,51.6,29.2,55.5,27.6,56.7z M24.7,43.3c-2.7-1.8-3.2-5.8-1.1-9s6-4.3,8.7-2.6c2.7,1.8,3.2,5.8,1.1,9
	C31.3,43.9,27.4,45,24.7,43.3z M36,63c-3.3,0.1-6.4-2.7-6.4-3.6c0-1.4,4-2.5,6.6-2.5c2.6-0.1,6.2,0.8,6.2,2.1
	C42.4,60.3,39.1,63.1,36,63z M42.7,48.9c0,3.3-2.9,6.1-6.5,6.1c-3.6,0-6.6-2.7-6.6-6c0,0,0,0,0-0.1c0-3.3,2.9-6.1,6.5-6.1
	C39.7,42.9,42.7,45.5,42.7,48.9L42.7,48.9z M51.8,53.8c-2.8,3.9-6.6,4-8,3c-1.5-1.4-0.4-5.7,1.7-8.1l0,0c2.3-2.6,4.8-4.3,6.5-3
	C53.2,46.8,53.9,51.1,51.8,53.8z M54,45.5c-2.4,1.1-4.3-11.8-1.4-11.1C57.5,37.2,56.7,43.4,54,45.5z"/>
</svg>
