<!-- Generator: Adobe Illustrator 28.1.0, SVG Export Plug-In . SVG Version: 6.00 Build 0)  -->
<svg version="1.1" id="Layer_1" xmlns="http://www.w3.org/2000/svg" xmlns:xlink="http://www.w3.org/1999/xlink" x="0px" y="0px"
	 viewBox="0 0 256 258" style="enable-background:new 0 0 256 258;" xml:space="preserve">
<g>
	<path d="M128.53,0c34.1,0.02,66.1,13.29,90.17,37.38c24.07,24.09,37.31,56.12,37.3,90.17c-0.03,69.58-56.08,126.32-125.36,127.45
		l-2.1,0.02h-0.05c-21.01-0.01-41.65-5.19-60.05-15.05l-0.86-0.47L0,257.23l18.08-66.05C6.93,171.85,1.06,149.92,1.07,127.46
		C1.1,57.18,58.28,0,128.53,0z M128.58,21.53c-58.44,0-105.96,47.52-105.99,105.94c-0.01,19.71,5.42,38.92,15.72,55.61l0.48,0.77
		l2.52,4.01l-10.7,39.09l40.1-10.52l3.87,2.29c16.01,9.5,34.32,14.6,53.02,14.76l0.9,0h0.04c58.39,0,105.92-47.53,105.94-105.94
		c0.01-28.31-11-54.93-31-74.95S156.88,21.54,128.58,21.53z M83.41,68.59c2.12,0,4.25,0.02,6.1,0.11c1.96,0.1,4.58-0.74,7.16,5.47
		c0.99,2.38,2.5,6.06,4.04,9.81l0.33,0.81c2.48,6.04,4.97,12.07,5.45,13.03c0.8,1.59,1.33,3.46,0.26,5.58
		c-1.06,2.13-1.59,3.45-3.18,5.32c-1.59,1.86-3.34,4.15-4.78,5.58c-0.08,0.08-0.16,0.16-0.23,0.23l-0.23,0.24
		c-1.42,1.47-2.61,3.15-0.93,6.03c1.86,3.19,8.25,13.62,17.72,22.07c12.17,10.85,22.43,14.21,25.61,15.81
		c3.18,1.59,5.04,1.33,6.9-0.8c1.86-2.12,7.96-9.3,10.08-12.49c2.12-3.19,4.25-2.66,7.17-1.59c1.39,0.51,5.65,2.51,10.09,4.65
		l1.38,0.67c4.44,2.15,8.78,4.29,10.29,5.05c3.19,1.6,5.31,2.39,6.1,3.72c0.8,1.33,0.8,7.71-1.86,15.15
		c-2.65,7.44-15.38,14.23-21.5,15.15c-5.49,0.82-12.43,1.16-20.06-1.26c-4.62-1.47-10.56-3.43-18.16-6.71
		c-31.95-13.79-52.81-45.97-54.41-48.09l0,0l-0.11-0.14c-1.94-2.59-12.9-17.44-12.9-32.8c0-15.67,8.23-23.38,11.15-26.57
		C77.83,69.39,81.29,68.59,83.41,68.59z"/>
</g>
</svg>
