<!-- Generator: Adobe Illustrator 28.1.0, SVG Export Plug-In . SVG Version: 6.00 Build 0)  -->
<svg version="1.1" id="Layer_1" xmlns="http://www.w3.org/2000/svg" xmlns:xlink="http://www.w3.org/1999/xlink" x="0px" y="0px"
	 viewBox="0 0 72 72" style="enable-background:new 0 0 72 72;" xml:space="preserve">
<g>
	<path d="M56,17.4c-3.7-1.7-7.7-3-11.9-3.7c-0.5,0.9-1.1,2.2-1.5,3.2c-4.4-0.7-8.8-0.7-13.2,0c-0.4-1-1-2.2-1.5-3.2
		c-4.2,0.7-8.2,2-11.9,3.7C8.5,28.8,6.4,39.9,7.4,50.8c5,3.7,9.8,6,14.6,7.5c1.2-1.6,2.2-3.3,3.1-5.1c-1.7-0.7-3.4-1.5-4.9-2.4
		c0.4-0.3,0.8-0.6,1.2-1c9.5,4.4,19.8,4.4,29.1,0c0.4,0.3,0.8,0.6,1.2,1c-1.6,0.9-3.2,1.7-4.9,2.4c0.9,1.8,1.9,3.5,3.1,5.1
		c4.8-1.5,9.6-3.7,14.6-7.5C65.8,38.2,62.5,27.2,56,17.4z M26.4,44.1c-2.8,0-5.2-2.7-5.2-5.9c0-3.2,2.3-5.9,5.2-5.9
		c2.9,0,5.2,2.7,5.2,5.9C31.6,41.4,29.3,44.1,26.4,44.1z M45.6,44.1c-2.8,0-5.2-2.7-5.2-5.9c0-3.2,2.3-5.9,5.2-5.9
		c2.9,0,5.2,2.7,5.2,5.9C50.7,41.4,48.5,44.1,45.6,44.1z"/>
</g>
</svg>
