<?xml version="1.0" encoding="utf-8"?>
<!-- Generator: Adobe Illustrator 28.1.0, SVG Export Plug-In . SVG Version: 6.00 Build 0)  -->
<svg version="1.1" id="Layer_1" xmlns="http://www.w3.org/2000/svg" xmlns:xlink="http://www.w3.org/1999/xlink" x="0px" y="0px"
	 viewBox="0 0 360 180" style="enable-background:new 0 0 360 180;" xml:space="preserve">
<g>
	<path d="M302.1,123.5c11.9,0,21.9-4.8,21.9-16.8c0-6.7-5-11.5-12.6-13.2c-8.1-2-18.2-1.8-18.2-7c0.5-3.3,3.6-4.3,8.5-4.3
		c7.4,0,7.7,4.1,8.1,6.5c12.1,0,12.1,0,12.1,0c-0.9-9.4-8.5-15.9-20.8-15.9c-12.8,0-20.2,7-20.2,15.7c0,5.2,2.6,9.6,7,11.9
		c3,1.6,7.4,2.7,12.6,3.6c5.4,0.4,10,0.9,10.5,4.8c0,2.6-2.7,5.8-8.3,5.8c-8.3,0-10.1-4.8-10.1-7.9c-12.8,0-12.8,0-12.8,0
		C280.1,116.7,288.4,123.5,302.1,123.5"/>
	<path d="M249.4,112c-7.7,0-14.2-6.5-14.2-13.9c0-7.7,6.5-14.2,14.2-14.2c7.4,0,13.6,6.5,13.6,14.2C263.1,105.5,256.8,112,249.4,112
		z M263.1,73.4c0,3.6,0,3.6,0,3.6c-4.1-2.9-8.7-4.4-14.3-4.4c-13.9,0-25.6,11.3-25.6,25.4c0,13.9,11.7,25.4,25.6,25.4
		c5.6,0,10.2-1.6,14.3-4.4c0,3.1,0,3.1,0,3.1c12.4,0,12.4,0,12.4,0c0-48.9,0-48.9,0-48.9h-12.4V73.4z"/>
	<path d="M193.1,112c-7.4,0-13.9-6.5-13.9-13.9c0-7.7,6.5-14.2,13.9-14.2c7.6,0,14.1,6.5,14.1,14.2C207.2,105.5,200.7,112,193.1,112
		z M207.2,56.6c0,20.4,0,20.4,0,20.4c-4.3-2.9-8.9-4.4-14.3-4.4c-14.2,0-25.4,11.3-25.4,25.4c0,13.9,11.3,25.4,25.4,25.4
		c5.4,0,10.2-1.6,14.3-4.4c0,3.1,0,3.1,0,3.1c12.1,0,12.1,0,12.1,0c0-65.6,0-65.6,0-65.6L207.2,56.6L207.2,56.6z"/>
	<rect x="150.3" y="56.6" width="12.2" height="12.1"/>
	<rect x="150.3" y="73.4" width="12.2" height="48.9"/>
	<path d="M118.2,112c-8.1,0-14.6-6.5-14.6-13.9c0-7.7,6.5-14.2,14.6-14.2c7.4,0,13.9,6.5,13.9,14.2C132.1,105.5,125.6,112,118.2,112
		z M132.1,56.6c0,20.4,0,20.4,0,20.4c-4.3-2.9-9.1-4.4-14.6-4.4C103.6,72.7,92,83.9,92,98c0,13.9,11.7,25.4,25.6,25.4
		c5.4,0,10.3-1.6,14.6-4.4c0,3.1,0,3.1,0,3.1c12.4,0,12.4,0,12.4,0c0-65.6,0-65.6,0-65.6L132.1,56.6
		C132.1,56.5,132.1,56.6,132.1,56.6z"/>
	<path d="M61.6,112c-7.4,0-13.9-6.5-13.9-13.9c0-7.7,6.5-14.2,13.9-14.2c8.1,0,14.6,6.5,14.6,14.2C76.2,105.5,69.6,112,61.6,112z
		 M76.2,73.4c0,3.6,0,3.6,0,3.6c-4.3-2.9-9.4-4.4-14.8-4.4C47.5,72.7,36,83.9,36,98c0,13.9,11.5,25.4,25.4,25.4
		c5.6,0,10.5-1.6,14.8-4.4c0,3.1,0,3.1,0,3.1c11.9,0,11.9,0,11.9,0c0-48.9,0-48.9,0-48.9H76.2V73.4z"/>
</g>
</svg>
