<?xml version="1.0" encoding="utf-8"?>
<!-- Generator: Adobe Illustrator 28.1.0, SVG Export Plug-In . SVG Version: 6.00 Build 0)  -->
<svg version="1.1" id="Layer_1" xmlns="http://www.w3.org/2000/svg" xmlns:xlink="http://www.w3.org/1999/xlink" x="0px" y="0px"
	 viewBox="0 0 72 72" style="enable-background:new 0 0 72 72;" xml:space="preserve">
<g>
	<path d="M34.8,17l1.2,1l1.2-1v-5.9h-2.4V17z M36,10.2c0.8,0,1.5-0.7,1.5-1.5c0-0.8-0.7-1.5-1.6-1.5c-0.8,0-1.5,0.7-1.5,1.5
		C34.5,9.5,35.1,10.2,36,10.2 M24.9,18.2H28c0,0-0.5-0.5-2.4-2.5c-1.1-1.2-1.2-2.1,0.2-2.1h0.3l1.6-2.4c0,0-1.3,0-1.9,0
		c-3.7,0-4.4,3.6-2.5,5.4C24.6,17.9,24.9,18.2,24.9,18.2 M46.3,13.5c1.4,0,1.3,0.9,0.2,2.1l-2.4,2.5h3.1c0,0,0.3-0.3,1.7-1.6
		c1.8-1.8,1.2-5.4-2.5-5.4c-0.6,0-1.9,0.1-1.9,0.1l1.6,2.4L46.3,13.5L46.3,13.5z M54.8,42.5c0.6,2.8,0.4,5.6-0.6,8.4
		c-1.2,3.4-3.1,5.7-5.5,6.6C48.2,57.6,47.2,58,46,58c-0.8,0-1.8-0.3-2.5-0.6c-0.4-0.2-1.2-0.5-1.2-0.5c-2.1-1.2-5.1-3.5-5-5.1
		c0-0.5,1.2-1.4,2.3-1.4c1.4,0,2.6-1.2,2.6-2.6v-0.1l-0.5-2.3v-0.1c-0.4-1.3-1.3-5.5,2-7.4l2.9-1.4l-1-2.2l-2.9,1.4h-0.1
		c-3.3,1.9-4.5,5.7-3.1,10.2l0.4,1.9c0,0.1-0.1,0.1-0.2,0.1c-1,0-2.1,0.4-2.9,1c-0.2,0.1-0.3,0.3-0.5,0.4c-1-0.9-2.4-1.4-3.5-1.3
		c-0.1,0-0.2-0.1-0.2-0.1L33,46c1.3-4.5,0.1-8.3-3.2-10.2l-3-1.4l-1,2.2l2.9,1.3c3.3,1.9,2.4,6.1,2,7.4L30,47.7v0.1
		c0,1.4,1.2,2.6,2.6,2.6c1,0,2.3,0.8,2.3,1.4c0,1.6-2.9,3.9-5,5.1c-0.2,0.1-0.4,0.2-0.6,0.3c-0.7,0.4-1.7,0.8-2.9,0.8
		c-0.3,0-1.4,0-2.9-0.5c-2.4-0.9-4.3-3.1-5.5-6.5c-1.2-3.2-1.3-6.5-0.3-9.8c0.3-1,1-2.5,0.9-2.5c1.5-3.3,4.1-6.4,7.3-9
		c0.1,0,4.9-3.8,8.9-6.5l-5.5-3.7h-3.8c-3.2,0.3-6.1,1.5-8.3,3.7c-2.3,2.1-3.7,6-3.4,9.8c0.1,1.6,0.5,3.1,1.1,4.5
		c0.4-0.8,0.9-1.7,1.5-2.9c-0.2-0.6-0.3-1.2-0.3-1.8c-0.2-3,0.8-6.2,2.6-7.8c1.9-1.8,4.2-2.8,6.9-3.1h6.7c-3.9,2.6-8,5.9-8.1,5.9
		c-2.7,2.2-4.9,4.6-6.6,7.2c-1,1.7-2,4-2,4c-1.6,4.3-1.7,8.7-0.2,12.8c1.9,5.1,4.8,7.1,6.9,7.9c1,0.4,2.2,0.6,3.3,0.6
		c1.7,0,3.2-0.6,3.2-0.6c0.5-0.2,1.4-0.5,1.9-0.8c0.4-0.3,3.4-1.9,5-4.2c1.7,2.2,4.5,3.8,5,4.1c0,0,1.3,0.8,2.3,1.1
		c1.2,0.3,2.4,0.3,2.8,0.3c1.1,0,2.2-0.2,3.3-0.6c2.1-0.8,5-2.9,6.9-8c1.3-3.7,1.4-7.5,0.3-11.3C56.3,41.1,55.7,41.8,54.8,42.5
		 M30.9,18.8l7.6,5.5c0.1,0.1,0.6,0.4,0.6,0.4c3.5,2.4,6.9,5,6.9,5c2.9,2.2,5.2,4.9,6.8,7.7c0.7-0.9,1-2,1.2-2.6
		c-1.7-2.5-3.9-4.9-6.5-7c0,0-3-2.3-6.3-4.6c-1.4-0.8-5.5-3.6-5.5-3.6c-1.9-1.3-4.7-3.8-4.7-3.8c-1-1-1.2-2.1,0.1-2.1h2.4v-2.4h-2.4
		c-3.9,0-4.5,3.3-2.4,5.5C29.5,17.6,30.9,18.8,30.9,18.8 M41.7,60.7c-1.4,1.2-3.7,1.7-5.6,1.7c-1.9,0-4.1-0.5-5.5-1.6
		C29.9,61,29,61.4,28,61.6c0.9,1.1,2.1,1.9,3.7,2.4c1.6,0.6,3.2,0.7,4.2,0.8h0.5c1,0,2.6-0.2,4.2-0.8c1.6-0.6,2.8-1.4,3.7-2.5
		C43.3,61.3,42.3,60.9,41.7,60.7 M54.7,23.1c-2.3-2.1-5-3.3-8.1-3.6h-0.3h-0.4h-5.5c0.6-0.4,1.1-0.9,1.7-1.3c0,0,0.1,0,0.3-0.3
		c0.3-0.2,0.7-0.8,0.7-0.8c0.1-0.1,0.3-0.3,0.4-0.4c2.2-2.3,1.5-5.5-2.4-5.5h-2.4v2.4H41c1.3,0,0.9,1.1,0,2.3c-1.2,1.1-2.5,2.1-4,3
		c1.7,1.2,3.4,2.3,4.6,3h4.5c2.7,0.3,5,1.3,6.9,3c1.8,1.6,2.9,4.8,2.7,7.8c-0.1,0.9-0.3,2-0.7,3.1c-0.4,1.2-1.2,2.7-2.6,3.8l0,0
		c-0.3,0.3-0.7,0.6-1.1,0.9c-6.3,4.4-6.8,10.1-7,13.1c0,0.3,0,0.5-0.1,0.7c0,0.1,0,0.3,0,0.4c0,0.4-0.1,0.8-0.2,1.3
		c0.6,0.3,1.4,0.6,2.4,0.5c0.1-0.6,0.2-1.2,0.2-1.6c0-0.1,0-0.3,0-0.4c0-0.3,0-0.5,0.1-0.8c0.3-3,0.7-7.5,6-11.3l0.1-0.1
		c2.9-2.1,4-4.6,4-4.7s0.1-0.1,0.1-0.1c0.7-1.5,1.1-3.1,1.3-4.8C58.4,29,57,25.1,54.7,23.1 M28.2,56.3c-0.1-0.5-0.1-1-0.2-1.4
		c0-0.2,0-0.3,0-0.4c0-0.2-0.1-0.5-0.1-0.7c-0.3-3-0.8-8.7-7.1-13c-0.4-0.3-0.8-0.6-1.2-0.9c-0.4,0.9-0.6,1.8-0.8,2.5
		c0.2,0.1,0.3,0.3,0.5,0.4c5.4,3.7,5.8,8.3,6.1,11.3c0,0.3,0.1,0.5,0.1,0.8c0,0.1,0,0.3,0,0.4c0,0.4,0.1,1,0.2,1.6
		C26.8,56.9,27.6,56.6,28.2,56.3"/>
</g>
</svg>
