<?xml version="1.0" encoding="utf-8"?>
<!-- Generator: Adobe Illustrator 28.1.0, SVG Export Plug-In . SVG Version: 6.00 Build 0)  -->
<svg version="1.1" id="Layer_1" xmlns="http://www.w3.org/2000/svg" xmlns:xlink="http://www.w3.org/1999/xlink" x="0px" y="0px"
	 viewBox="0 0 360 180" style="enable-background:new 0 0 360 180;" xml:space="preserve">
<g>
	<path d="M113.7,59.6c0,5-4,9-9.1,9c-5,0-9-4-9-9s3.9-9,9-9C109.8,50.7,113.7,54.7,113.7,59.6z M76.4,77.7v2.2c0,0-4.3-5.5-13.5-5.5
		C47.8,74.4,36,86,36,101.9c0,15.8,11.6,27.5,26.9,27.5c9.3,0,13.5-5.7,13.5-5.7v2.3c0,1.1,0.8,2,2,2h11.3V75.7H78.4
		C77.2,75.7,76.4,76.7,76.4,77.7L76.4,77.7z M76.4,111.2c-2,3-6.2,5.7-11.3,5.7c-8.9,0-15.7-5.5-15.7-15s6.8-15,15.7-15
		c4.9,0,9.3,2.8,11.3,5.7V111.2z M98,75.7h13.3V128H98V75.7L98,75.7z M297.2,74.4c-9.2,0-13.5,5.5-13.5,5.5V50.6h-13.3V128h11.3
		c1.1,0,2-1,2-2v-2.3c0,0,4.3,5.7,13.5,5.7c15.1,0,26.9-11.6,26.9-27.5S312.2,74.4,297.2,74.4L297.2,74.4z M294.9,116.8
		c-5.2,0-9.2-2.7-11.3-5.7V92.4c2-2.8,6.5-5.7,11.3-5.7c8.9,0,15.7,5.5,15.7,15S303.8,116.8,294.9,116.8z M263.4,97.1v31.1H250V98.6
		c0-8.6-2.8-12.1-10.2-12.1c-4,0-8.2,2-10.8,5.2v36.4h-13.3V75.7h10.6c1.1,0,2,1,2,2v2.2c3.9-4,9-5.5,14.1-5.5
		c5.9,0,10.7,1.7,14.6,5C261.6,83.3,263.4,88.3,263.4,97.1L263.4,97.1z M183.3,74.4c-9.2,0-13.5,5.5-13.5,5.5V50.6h-13.3V128h11.3
		c1.1,0,2-1,2-2v-2.3c0,0,4.3,5.7,13.5,5.7c15.1,0,26.9-11.6,26.9-27.5C210.2,86,198.4,74.4,183.3,74.4L183.3,74.4z M181.1,116.8
		c-5.2,0-9.2-2.7-11.3-5.7V92.4c2-2.8,6.5-5.7,11.3-5.7c8.9,0,15.7,5.5,15.7,15S190,116.8,181.1,116.8z M144.9,74.4
		c4,0,6.1,0.7,6.1,0.7v12.4c0,0-11.1-3.7-18,4.2v36.5h-13.3V75.7h11.3c1.1,0,2,1,2,2v2.2C135.4,77.1,140.7,74.4,144.9,74.4
		L144.9,74.4z"/>
</g>
</svg>
