<?xml version="1.0" encoding="utf-8"?>
<!-- Generator: Adobe Illustrator 28.1.0, SVG Export Plug-In . SVG Version: 6.00 Build 0)  -->
<svg version="1.1" id="Layer_1" xmlns="http://www.w3.org/2000/svg" xmlns:xlink="http://www.w3.org/1999/xlink" x="0px" y="0px"
	 viewBox="0 0 72 72" style="enable-background:new 0 0 72 72;" xml:space="preserve">
<path d="M62,48.1c-0.3-0.7-0.6-1.4-0.9-2.1c-0.5-1-0.9-2-1.3-2.9L59.7,43c-4-8.6-8.2-17.4-12.7-26.1l-0.2-0.3
	c-0.5-0.9-0.9-1.8-1.4-2.7c-0.6-1-1.2-2.1-2.1-3.2c-1.8-2.3-4.5-3.6-7.3-3.6c-2.9,0-5.5,1.3-7.4,3.5c-0.9,1-1.5,2.1-2.1,3.2
	c-0.5,0.9-0.9,1.8-1.4,2.7l-0.2,0.3c-4.5,8.7-8.8,17.4-12.8,26.1L12.1,43c-0.2,1-0.6,2-1.1,3c-0.3,0.6-0.6,1.3-0.9,2.1
	c-0.7,2.1-1,4.2-0.7,6.2c0.6,4.3,3.5,8,7.5,9.6c1.5,0.6,3.1,0.9,4.7,0.9c0.5,0,1-0.1,1.5-0.1c1.9-0.2,3.9-0.9,5.8-2
	c2.4-1.3,4.6-3.2,7.1-6c2.5,2.8,4.8,4.7,7.1,6c1.9,1.1,3.9,1.7,5.8,2c0.5,0.1,1,0.1,1.5,0.1c1.6,0,3.2-0.3,4.7-0.9
	c4-1.6,6.9-5.3,7.5-9.6C63,52.3,62.8,50.3,62,48.1L62,48.1z M36,51.1c-3.1-3.9-5.1-7.6-5.8-10.7c-0.3-1.3-0.3-2.5-0.2-3.5
	c0.1-0.9,0.5-1.7,0.9-2.4c1.1-1.6,2.9-2.5,5.1-2.5c2.1,0,4,0.9,5.1,2.5c0.5,0.7,0.8,1.5,0.9,2.4c0.2,1,0.1,2.3-0.2,3.5
	C41.1,43.5,39.1,47.2,36,51.1z M59,53.8c-0.4,3-2.4,5.6-5.2,6.7c-1.4,0.6-2.9,0.7-4.4,0.6c-1.4-0.2-2.9-0.6-4.4-1.5
	c-2.1-1.2-4.2-2.9-6.6-5.6c3.8-4.7,6.1-8.9,7-12.7c0.4-1.8,0.5-3.4,0.3-4.9c-0.2-1.4-0.7-2.8-1.6-3.9c-1.8-2.6-4.8-4.1-8.1-4.1
	s-6.3,1.6-8.1,4.1c-0.8,1.2-1.3,2.5-1.6,3.9c-0.2,1.5-0.2,3.2,0.3,4.9c0.9,3.8,3.2,8.1,7,12.8c-2.4,2.7-4.5,4.4-6.6,5.6
	c-1.5,0.9-2.9,1.3-4.4,1.5c-1.6,0.2-3.1-0.1-4.4-0.6c-2.8-1.2-4.8-3.8-5.2-6.7c-0.2-1.4-0.1-2.9,0.5-4.5c0.2-0.6,0.5-1.2,0.7-1.8
	c0.4-0.9,0.9-1.9,1.3-2.9l0.1-0.1c4-8.6,8.2-17.4,12.7-25.9l0.2-0.3c0.5-0.9,0.9-1.8,1.4-2.7c0.5-0.9,1-1.8,1.6-2.5
	c1.2-1.4,2.8-2.1,4.6-2.1s3.4,0.8,4.6,2.1c0.6,0.8,1.2,1.6,1.6,2.5c0.5,0.9,0.9,1.8,1.4,2.7l0.2,0.3c4.4,8.6,8.6,17.2,12.6,25.9v0.1
	c0.5,0.9,0.9,2,1.3,2.9c0.3,0.7,0.6,1.3,0.7,1.8C59.1,50.9,59.2,52.3,59,53.8L59,53.8z"/>
</svg>
