<?xml version="1.0" encoding="utf-8"?>
<!-- Generator: Adobe Illustrator 28.1.0, SVG Export Plug-In . SVG Version: 6.00 Build 0)  -->
<svg version="1.1" id="Layer_1" xmlns="http://www.w3.org/2000/svg" xmlns:xlink="http://www.w3.org/1999/xlink" x="0px" y="0px"
	 viewBox="0 0 360 180" style="enable-background:new 0 0 360 180;" xml:space="preserve">
<g>
	<path d="M210.1,48.3h19.3V56c4.9-6.3,12.5-10,20.5-9.8c8.8-0.1,17.1,4.5,21.5,12.2c6.9-9.8,17.3-12.2,24.6-12.2
		c10,0,18.9,4.7,23.6,13c1.6,2.8,4.3,8.9,4.3,20.9v51.2h-19.3V85.6c0-9.3-1-13-1.8-14.8c-1.2-3.2-4.1-7.3-11-7.3
		c-4.6,0.1-8.8,2.3-11.4,6.1c-3.3,4.7-3.7,11.8-3.7,18.9v42.8h-19.3V85.6c0-9.3-1-13-1.8-14.8c-1.2-3.2-4.1-7.3-11-7.3
		c-4.6,0.1-8.8,2.3-11.4,6.1c-3.3,4.7-3.8,11.8-3.8,18.9v42.8h-19.3L210.1,48.3L210.1,48.3z M143.3,48.3h19.3v7.5
		c2.3-2.7,5-5,8.1-6.9c3.6-2,7.7-3,11.8-2.8c5.3-0.1,10.6,1.2,15.2,3.9l-7.9,17.5c-2.9-2-6.3-3-9.8-3c-4.1,0-8.3,0.6-12,4.5
		c-5.3,5.7-5.3,13.6-5.3,19.1v43h-19.2L143.3,48.3z M55.7,90.1c0,14.4,9.1,26.4,23,26.4c12.2,0,23.4-8.9,23.4-26.2
		c0-18.1-11.2-26.8-23.4-26.8C64.7,63.5,55.7,75.3,55.7,90.1 M101,48.3h19.3v82.9H101v-8.7c-6.2,7.3-15.3,11.4-24.8,11.2
		c-25.6,0-40.2-21.3-40.2-44.1c0-27,18.5-43.5,40.4-43.5C86,46,95.2,50.4,101,58L101,48.3z"/>
</g>
</svg>
