<?xml version="1.0" encoding="utf-8"?>
<!-- Generator: Adobe Illustrator 28.1.0, SVG Export Plug-In . SVG Version: 6.00 Build 0)  -->
<svg version="1.1" id="Layer_1" xmlns="http://www.w3.org/2000/svg" xmlns:xlink="http://www.w3.org/1999/xlink" x="0px" y="0px"
	 viewBox="0 0 360 180" style="enable-background:new 0 0 360 180;" xml:space="preserve">
<g id="surface1">
	<path d="M123.8,59.6c-7.3,0.5-10.5,4-12.9,6.5c-2.6,2.7-4,8.3-4,8.3V59.7H78.3c-2.2,0-4.2,0.9-5.8,3.1c-1.6,2.1-8.1,12.9-8.1,12.9
		h113.3V59.6H123.8z M266.4,59.6c-7.3,0.5-10.5,4-12.9,6.5c-2.6,2.7-4,8.3-4,8.3v1.3H324V59.6H266.4z M180.4,59.7v16.1h16.1V59.7
		H180.4z M233.3,59.7v16.1h16.1V59.7H233.3z M63.7,76.7L36,120.3h18.9l26.7-41.6L63.7,76.7z M180.6,76.9v23.4c0-0.5-0.1-1.2-0.1-1.2
		c-0.4-2.4-5-13-14.8-13.9c-5.9-0.6-58.1-4.7-58.1-4.7c1,5.2,3.4,7.9,5,9.4c3.6,3.5,9.4,4.5,9.4,4.5c1.4,0.1,40.3,3.4,40.3,3.4
		c1.3,0.1,3.6,0.4,3.5,3.5c0,0.4-0.3,3.1-3.3,3.1h-56.3V80.5l-15.7-1.1c-0.1,0-0.1,40.9-0.1,40.9h75.3c13.1-2.6,14.5-14.6,14.5-14.6
		c0.2-1.3,0.3-2.5,0.3-3.5v3.3c2.6,13.7,14.9,14.8,14.9,14.8s1.3,0.1,1.5,0.1h36.7c0,0,15.7-1.3,15.7-16.4l-0.1-22.4l-15.8-1v18.6
		c0,0-0.1,5.4-5.2,5.4h-27.1c0,0-4.6-0.4-4.6-5.3V78.1L180.6,76.9z M250.5,81.6c1.5,5.4,3.6,7.1,5.2,8.5c3.6,3.5,9.1,4.3,9.1,4.3
		c1.4,0.1,40.7,3.4,40.7,3.4c1.3,0.1,3.8,0.2,3.8,3.2c0,0.9-0.5,1.9-1,2.4c0,0-1.4,0.7-2.7,0.7h-55.9l-0.2,16.1h57.6
		c14.5-0.9,16.5-14.6,16.5-14.6c0.5-3.6,0.1-6.6,0.1-6.6c-0.4-3.2-5-13.1-14.9-14C303,84.6,250.5,81.6,250.5,81.6z"/>
</g>
</svg>
