<?xml version="1.0" encoding="utf-8"?>
<!-- Generator: Adobe Illustrator 28.1.0, SVG Export Plug-In . SVG Version: 6.00 Build 0)  -->
<svg version="1.1" id="Layer_1" xmlns="http://www.w3.org/2000/svg" xmlns:xlink="http://www.w3.org/1999/xlink" x="0px" y="0px"
	 viewBox="0 0 72 72" style="enable-background:new 0 0 72 72;" xml:space="preserve">
<path d="M36,7.2C20.1,7.2,7.2,20.1,7.2,36S20.1,64.8,36,64.8S64.8,51.9,64.8,36S51.9,7.2,36,7.2z M52.7,26.2v4.4L49,32.8v-4.4
	l-3.8-2.2l3.8-2.2L52.7,26.2z M36,16.3l10.3,6l-3.8,2.2L36,20.8l-6.5,3.8l-3.8-2.2L36,16.3z M39.8,26.2L36,28.4l-3.8-2.2l3.8-2.2
	L39.8,26.2z M19.3,26.2l3.8-2.2l3.8,2.2L23,28.4v4.4l-3.8-2.2V26.2L19.3,26.2z M25.8,37.6l3.8,2.2v4.4L25.8,42V37.6z M29.5,51.9
	l-10.3-6V33.8L23,36l0,7.6l6.5,3.8L29.5,51.9L29.5,51.9z M39.8,53.5L36,55.7l-3.8-2.2V49l3.8,2.2l3.8-2.2V53.5z M39.8,45.9L36,48.1
	l-3.8-2.2v-7.6l-6.5-3.8V30l3.8-2.2l6.5,3.8l6.5-3.8l3.8,2.2h0l0,0l0,4.5l-6.5,3.8V45.9z M42.5,39.8l3.8-2.2V42l-3.8,2.2V39.8z
	 M52.7,45.9l-10.3,6v-4.5l6.5-3.8l0-7.6l3.8-2.2V45.9z"/>
</svg>
