<?xml version="1.0" encoding="utf-8"?>
<!-- Generator: Adobe Illustrator 28.1.0, SVG Export Plug-In . SVG Version: 6.00 Build 0)  -->
<svg version="1.1" id="Layer_1" xmlns="http://www.w3.org/2000/svg" xmlns:xlink="http://www.w3.org/1999/xlink" x="0px" y="0px"
	 viewBox="0 0 360 180" style="enable-background:new 0 0 360 180;" xml:space="preserve">
<path d="M323.8,109.8c-0.1-0.3-0.3-0.6-0.5-0.8c-0.2-0.2-0.5-0.4-0.7-0.5c-0.6-0.2-1.3-0.2-1.9,0c-0.3,0.1-0.5,0.3-0.8,0.5
	c-0.2,0.2-0.4,0.5-0.5,0.8c-0.2,0.6-0.2,1.3,0,1.9c0.1,0.3,0.3,0.6,0.5,0.8c0.2,0.2,0.5,0.4,0.8,0.5c0.6,0.2,1.3,0.2,1.9,0
	c0.3-0.1,0.5-0.3,0.7-0.5c0.2-0.2,0.4-0.5,0.5-0.8C324.1,111.1,324.1,110.5,323.8,109.8z M323.5,111.6c-0.1,0.2-0.2,0.5-0.4,0.7
	c-0.2,0.2-0.4,0.3-0.6,0.4c-0.3,0.1-0.5,0.2-0.8,0.2c-0.6,0-1.1-0.2-1.4-0.6c-0.2-0.2-0.3-0.4-0.4-0.7c-0.1-0.3-0.1-0.5-0.1-0.8
	s0.1-0.6,0.1-0.8c0.1-0.2,0.2-0.5,0.4-0.7c0.4-0.4,0.9-0.6,1.4-0.6c0.3,0,0.6,0.1,0.8,0.2c0.2,0.1,0.4,0.3,0.6,0.4
	c0.2,0.2,0.3,0.4,0.4,0.7c0.1,0.3,0.1,0.5,0.1,0.8C323.6,111.1,323.6,111.4,323.5,111.6z M322.6,110.6c0.1-0.1,0.2-0.3,0.2-0.5
	c0-0.2-0.1-0.4-0.2-0.6c-0.2-0.2-0.4-0.2-0.7-0.2h-1.2v2.9h0.5V111h0.5l0.7,1.2h0.6l-0.7-1.2C322.4,110.9,322.5,110.7,322.6,110.6
	L322.6,110.6z M321.7,110.6h-0.5v-0.9h0.6c0.1,0,0.2,0,0.3,0.1c0.1,0.1,0.2,0.2,0.2,0.3c0,0.1-0.1,0.3-0.2,0.4
	C322,110.6,321.8,110.6,321.7,110.6L321.7,110.6z M85.9,57.1c0-2.1-0.9-3.4-3.3-3.4c-7.9,0-17.9,14.3-21.5,20.2
	c-4.9,8-10.5,20.2-10.5,30c0,3.8,1.6,6.6,5.7,6.6c8.6,0,15.3-11.2,15.3-18.6c0.1-1.6-0.3-3.3-1.2-4.7c1-1.3,2.5-2,4.2-2
	c2.9,0,4.4,1.9,4.4,5.2c0,10.5-11.1,24.2-24.4,24.2c-10,0-15.4-5.1-15.4-14.9C39.1,79.7,60,51,83,51c5.4,0,10.8,1.6,10.8,7.5
	c0,7.8-7.9,13.3-14.7,15.5c-3,0.9-6.1,1.4-9.2,1.4c-1.8,0-3.6-0.2-5.3-0.5l0.2-0.8C73,73.9,85.9,65.7,85.9,57.1z M310.1,68.7
	l-0.4-0.7c2.3-1.9,4.6-5.5,4.6-8.7c0.1-2.1-1.2-3.9-3.2-4.5c1.1-1.7,3-2.8,5.1-2.7c2.6-0.2,5,1.8,5.2,4.4c0,0.3,0,0.6,0,0.8
	C321.4,63.1,314.6,67.1,310.1,68.7z M36,57.4c-0.2-2.7,1.9-5.1,4.7-5.2c0.2,0,0.5,0,0.7,0c2-0.1,3.9,1,4.9,2.7
	c-2,0.6-3.3,2.4-3.2,4.5c0,3.1,2.3,6.7,4.6,8.7l-0.4,0.7C42.9,67.1,36,63.1,36,57.4z M293.3,104.4l0.7,0.5
	c-2.1,4.5-5.3,9.3-10.6,9.3c-4.2,0-6.6-2.6-6.6-6.9c0-3.7,2.2-8.6,3.7-12l18.7-42.6h8.5l-20.3,47.3c-0.9,1.8-1.5,3.8-1.7,5.8
	c-0.1,1,0.6,1.9,1.6,2c0.1,0,0.2,0,0.4,0C290.1,107.9,291.7,106.3,293.3,104.4z M274.4,104.4l0.7,0.5c-2.1,4.5-5.3,9.3-10.6,9.3
	c-4.2,0-6.6-2.6-6.6-6.9c0-3.7,2.2-8.6,3.7-12l18.7-42.6h8.5l-20.3,47.3c-0.9,1.8-1.5,3.8-1.7,5.8c-0.1,1,0.6,1.9,1.6,2
	c0.1,0,0.2,0,0.4,0C271.1,107.9,272.8,106.3,274.4,104.4z M153.9,114.2c-3.8,0-5.9-2.2-5.9-6.2c0-6.3,8.7-19.2,8.7-23.5
	c0.1-1.1-0.7-2-1.7-2.1c-0.1,0-0.2,0-0.4,0c-3.6,0-6.2,5.7-7.5,8.6l-9.1,22.1l-8.8,0l10.2-24.9c0.6-1.2,0.9-2.4,1-3.7
	c0.1-1-0.7-2-1.7-2.1c-0.1,0-0.2,0-0.4,0c-3.5,0-6.3,5.7-7.5,8.6l-9.1,22.2H113l14.3-34.8h8.2l-1.8,4.5c2.5-2.8,5.6-5.2,9.6-5.2
	c3-0.3,5.7,2,5.9,5c0,0.1,0,0.3,0,0.4c2.8-3,5.9-5.4,10-5.4c3.6,0,6.2,2.1,6.2,5.7c0,6.7-8.4,18.2-8.4,22.7
	c-0.1,0.8,0.4,1.6,1.2,1.7c0.1,0,0.2,0,0.4,0c1.9,0,3.6-2,4.8-3.4l0.7,0.5C162.2,109.7,159.3,114.2,153.9,114.2z M319.2,78.2
	c-0.9,1.7-1.3,3.7-1.3,5.7c0,4.2,1.1,9,1.1,15.3c0,9.2-6,15.2-14.9,15.2c-5.4,0-8.3-2.2-8.3-4.8c0-1.2,0.8-2.3,1.9-2.8
	c0.7,1.9,2.2,3.1,5.2,3.1c5.7,0,7.6-5.1,7.6-9.9c0-4.2-0.3-7.8-0.3-11.9c0-0.5,0.1-1.7,0.1-1.7c-2.2,1.8-6.6,7.7-8.3,9.5l-0.7-0.5
	c2.6-4.9,5.4-9.6,8.6-14.2c1.7-2.1,4.2-3.4,7-3.3C317.6,77.9,318.4,78,319.2,78.2z M112.8,104.4c-1.3,1.5-3,3.4-4.9,3.4
	c-1.1,0-1.6-0.7-1.6-1.7c0-1.6,0.9-3.7,2.1-6.4c2.3-5.2,7.5-17.3,9.1-21.3h-8.5l-1.1,2.7c-0.9-2.3-3.1-3.3-5.7-3.3
	c-7.1,0-12.5,5.1-16,10.7c-3,4.7-6.6,12.2-6.6,17.9c0,4.6,2.2,7.8,6.9,7.8c5.2,0,8.9-4.4,11.5-8.6c-0.1,0.8-0.2,1.6-0.2,2.3
	c0,3.8,1.8,6.3,5.5,6.3c5.4,0,8.3-5,10.2-9.3L112.8,104.4z M103.7,90.2c-4,8.3-8.4,17.7-12.5,17.7c-1.5,0-2.2-0.9-2.2-2.8
	c-0.1-5.8,8.6-24.2,14.8-24.2c1.1-0.1,2.1,0.7,2.3,1.8c0,0.2,0,0.3,0,0.5C106,85.2,104.8,87.8,103.7,90.2z M227.5,77.8
	c-3.5,0.1-6.8,1.6-9.2,4.2c2.1-4.6,12-27.4,17.5-27.4c0.9-0.1,1.6,0.6,1.7,1.4c0,0.1,0,0.2,0,0.3c0,3.9-5.5,10.9-10.1,14.2l0.4,0.7
	c6.2-2.1,15.8-7.5,15.8-14.9c0-2.9-2.2-4.7-5.7-4.7c-6.5,0-12.3,5.7-16.8,11.4C212.3,74.3,201,93.9,201,106c0,4.9,3,8.3,9,8.3
	c12.1,0,24.1-17.9,24.1-29C234.2,81.2,232.2,77.8,227.5,77.8z M212.2,109.4c-1.7,0-2.2-1.1-2.2-2.7c0.2-2.6,0.7-5.2,1.5-7.7
	c2.2-7.5,6.6-16.9,10.8-16.9c1.9,0,2.6,1.5,2.6,3.5C224.9,91.9,217.7,109.4,212.2,109.4z M257.6,84.8c0.6-2,0.1-4.6-3.2-4.6
	c-3.1-0.1-5.6,2.4-5.7,5.4c0,0.1,0,0.3,0,0.4c0,2.9,1.7,4.6,5.3,5.7l-0.3,1.1c-6,0.8-11.9,4.4-11.9,10.5c0,3.1,1.6,4.9,5.3,4.9
	c2.9,0,5.6-1,7.9-2.8l0.6,0.5c-2.7,5.1-8.1,8.2-13.8,8.3c-5.7,0-9.5-3.1-9.5-8.3c0-6.5,4.5-10.6,12.1-13.1c-2.3-1-3.8-3.3-3.9-5.8
	c0-6.5,7.6-9.3,14.2-9.3c4.5,0,8.3,1.3,8.3,4.2C262.9,84.2,259.8,85.1,257.6,84.8z M194.2,77.8c-3.5,0.1-6.7,1.7-9,4.3l3.8-9.3h-8.7
	L157.3,129h8.7l8.2-20.1c0.6,3.3,3.1,5.3,6.7,5.3c11.5,0,19.7-19.3,19.7-29.1C200.7,80.9,198.7,77.8,194.2,77.8z M186.1,102.2
	c-1.6,2.9-4.1,6.9-7.2,6.9c-1.4,0.1-2.7-1-2.8-2.4c0-0.2,0-0.3,0-0.5c0.2-1.7,0.6-3.4,1.3-5l4.5-10.9c1.3-3.2,4.1-7.9,7.3-7.9
	c1.9,0,2.5,1.4,2.5,3.4C191.6,90,188.2,98.4,186.1,102.2z"/>
</svg>
