<?xml version="1.0" encoding="utf-8"?>
<!-- Generator: Adobe Illustrator 28.1.0, SVG Export Plug-In . SVG Version: 6.00 Build 0)  -->
<svg version="1.1" id="Layer_1" xmlns="http://www.w3.org/2000/svg" xmlns:xlink="http://www.w3.org/1999/xlink" x="0px" y="0px"
	 viewBox="0 0 72 72" style="enable-background:new 0 0 72 72;" xml:space="preserve">
<path d="M24.6,57c-2.9-0.1-6-1-8.6-2.4c-1.9-1.1-3.5-2.1-5.2-3.9c-1.3-1.3-2.3-2.5-3-3.8l-0.3-0.5l0.5-0.2c1-0.5,5.4-2.8,5.5-2.8
	c0,0,0.2,0.2,0.4,0.5c2.4,3.4,5.9,5.7,10.1,6.3c0.8,0.1,3,0.1,3.8,0c0.9-0.1,1.9-0.4,2.7-0.6c0,0,0-0.1-0.2-0.4
	c-1.5-1.8-2.9-4.2-3.7-6.6c-1.4-4.1-1.5-8.5-0.3-12.7c0.8-2.6,2-5.1,3.7-7.1c0.2-0.3,0.4-0.5,0.4-0.6s-1.3-0.4-2.1-0.5
	c-1.3-0.2-3.3-0.2-4.5-0.1c-1.9,0.3-4,1.1-5.6,2c-1.7,1.1-3.2,2.6-4.4,4.3l-0.5,0.8l-0.6-0.3c-0.3-0.2-1.7-0.9-3-1.5
	c-1.3-0.6-2.4-1.2-2.4-1.2S8,24.5,8.3,24c1-1.4,2.8-3.3,4.1-4.4c3.4-2.7,7.2-4.2,11.5-4.6c0.8-0.1,2.8-0.1,3.5,0
	c2.7,0.2,5.1,0.9,7.4,2.1l1.2,0.5l0.4-0.2c0.6-0.3,1.7-0.9,2.6-1.2c2.4-0.9,4.7-1.3,7.3-1.3c1.8,0,3.3,0.2,5.1,0.5
	c3.8,1,7,2.7,9.7,5.4c1.5,1.5,2.7,2.9,3.7,4.6l0.1,0.2l-2.4,1.2c-1.3,0.6-2.6,1.4-3,1.5l-0.6,0.3L58.2,28c-2.4-3.7-6.3-6-10.7-6.4
	c-1.3-0.1-3.2,0-4.3,0.2c-0.6,0.1-1.6,0.4-1.6,0.4s0.1,0.2,0.3,0.4c2.5,3,4.1,6.8,4.5,10.9c0.1,1,0.1,3.4,0,4.4
	c-0.4,4.1-2,7.8-4.5,10.9c-0.5,0.6-0.5,0.6-0.3,0.8c0.1,0,0.4,0.1,0.9,0.2c2,0.5,4.2,0.5,6.2,0.2c3.8-0.6,7.1-2.9,9.2-6.1
	c0.2-0.3,0.4-0.5,0.4-0.5s0.5,0.2,1.1,0.5c1.2,0.5,4.8,2.5,4.8,2.5c0.1,0.1-1.1,1.8-1.8,2.7c-0.6,0.9-2.5,2.6-3.3,3.3
	c-3,2.5-6.4,3.9-10.3,4.4c-4.3,0.6-8.9-0.2-12.7-2.3L36,54.3l-0.6,0.3C32.1,56.4,28.4,57.2,24.6,57L24.6,57z M36.8,45.1
	c1.8-2.3,2.9-4.9,3.2-7.7c0.1-1,0-2.8-0.1-3.7c-0.4-2.4-1.3-4.3-2.7-6.2c-0.2-0.3-0.6-0.9-0.9-1.1L36,26.1l-0.3,0.3
	c-0.4,0.5-1.2,1.5-1.6,2.1c-1.9,3.1-2.6,7-1.7,10.5c0.5,2.3,1.7,4.6,3.3,6.4L36,46l0.1-0.1C36.2,45.7,36.5,45.4,36.8,45.1L36.8,45.1
	z"/>
</svg>
