<?xml version="1.0" encoding="utf-8"?>
<!-- Generator: Adobe Illustrator 28.1.0, SVG Export Plug-In . SVG Version: 6.00 Build 0)  -->
<svg version="1.1" id="Layer_1" xmlns="http://www.w3.org/2000/svg" xmlns:xlink="http://www.w3.org/1999/xlink" x="0px" y="0px"
	 viewBox="0 0 360 180" style="enable-background:new 0 0 360 180;" xml:space="preserve">
<g>
	<g>
		<path d="M237.8,51.8c0,0-5.4,2.1-11.7,9.1c-6.3,6.9-9.9,14.7-7.2,16.8c1,0.8,3.4,0.9,7.8-3c4-3.5,7.2-7.9,9.2-12.8
			C238.6,55,237.8,51.9,237.8,51.8 M272.1,64.2c-7-3.6-12.1-8-17.4-10.7c-5.1-2.6-8.3-3.7-12.4-3.1c-0.6,0.1-1.1,0.2-1.7,0.4
			c0,0,2.1,7.2-6.3,19.3c-8.5,12.3-16.2,12.2-18.4,8.8c-2.3-3.6,0.7-10.8,5.6-17.2c5.2-6.7,14.3-12.3,14.3-12.3s-2.9-1.8-10,2.3
			c-7,3.9-18.9,13.3-30,29.1s-13.3,24.5-14.9,31.3s-0.1,14.2,7.4,14.2c7.6,0,16.4-11.6,18.9-15.6c4.6-7.5,7.7-19,1.3-17.4
			c-3.1,0.8-5.6,4.2-7.2,7.5c-1,2.1-1.8,4.4-2.3,6.6c-2.2,0.9-4.3,2.1-6.1,3.6c-2.1,1.5-4,3.3-5.8,5.2c0,0,0-5.5,4.4-14.3
			c4.4-8.8,12.4-12.9,16.9-13.3c4.1-0.3,9.4,3.1,4.9,15.9c-4.5,12.8-17.8,28.3-31.8,28.5c-12.9,0.2-21.3-16.3-3.4-44.9
			c19.8-31.7,43.1-41.4,50.7-42.5s10,2.3,10,2.3c4.6-1.9,9.5-2.7,14.4-2.4c9.2,0.6,16.4,7.2,25.8,11.7
			C276.6,59.5,274.2,61.9,272.1,64.2 M313.6,53.5c-6.4,4.1-15.2,7.8-23.7,7c-2.2,2.2-4.5,4.8-6.8,7.6c14.7,2.9,27.7-6.2,34.5-14
			c2.5-2.8,4.7-5.9,6.4-9.2C320.9,48.2,317.4,51.1,313.6,53.5 M293.9,95.1c0.1-0.2,0.2-0.4,0.3-0.6c-0.1-0.7-0.7-1.2-1.4-1.3
			c-1.4-0.1-3.3,0.2-8.3,5.8c-4.2,4.6-7.8,9.7-10.7,15.2c-2.9,5.3-4,9.2-2.4,10.2c0.5,0.3,1.2,0.3,1.7,0.2c1.1-0.3,2.4-1.3,4.3-3.5
			c0.9-1,1.9-2.5,3.1-4.2C283.9,112.2,292.3,98,293.9,95.1 M241.8,101.1c0.8-2.2,1.9-6.5-0.3-8.2c-2.4-1.8-8.5,2.4-8.5,6.7
			c0,4.4,4.3,6.4,5.3,6.7c0.6,0.2,0.8,0.1,1.1-0.3C240.3,104.5,241.1,102.8,241.8,101.1 M237.2,109.2c-1.5-0.7-2.9-1.6-4.2-2.7
			c-1.3-1.1-2.3-2.4-3.1-3.8c-0.1-0.1-0.2,0-0.3,0.1c-0.1,0.1-0.5,0.5-3.7,5.2c-3.2,4.7-8.2,14.6-3.7,16.3c2.9,1.1,7.7-4,10.3-7.3
			c1.8-2.3,3.4-4.8,4.8-7.4C237.4,109.3,237.3,109.2,237.2,109.2 M288.3,120.5c-1.2,2-2.6,5.7,1.4,3.4c4.9-2.8,11.9-13.5,11.9-13.5
			h3.2c-2.9,4.4-6.1,8.7-9.6,12.6c-5,5.5-11.1,10.5-15.4,10c-5-0.6-3.4-7.2-3.4-7.2s-7.2,7.6-12.1,7.1c-6.7-0.7-4.6-9-4.6-9
			s-7.6,9.3-12.7,9c-8.1-0.5-6-10.3-3.8-17.2c1.2-3.7,2.3-6.6,2.3-6.6s-0.8,0.2-2.5,0.5c-0.9,0.1-2.5,0.2-2.5,0.2s-3.4,5.9-6.1,9.5
			c-2.7,3.6-14.1,15.9-20.9,13.4c-6.2-2.3-4.2-11.8-0.5-19.4c5.3-11,20.2-26.9,28.8-24.8c8.9,2.2,0.2,18.4,0.2,18.4s0,0.1,0.1,0.1
			c0.2,0.1,0.6,0.1,1.7-0.1c1.1-0.2,2.2-0.6,3.3-1c0,0,8.9-18.7,18.8-31c9.9-12.3,29.6-33.4,37.3-28.3c1.9,1.3,1,5.6-1.5,10.8
			c-1.1,0.4-2.3,0.7-3.5,0.9c1.7-3.1,2.8-5.7,3.2-7.5c1.2-6.3-13.6,7-24.2,21.4c-6.4,8.6-12,17.8-16.9,27.4c1.9-1.2,3.7-2.5,5.5-3.9
			c4.7-3.9,9.2-8.1,13.4-12.5c4.1-4.2,7.9-8.6,11.4-13.2c1.1-0.1,2.2-0.2,3.4-0.3c-3.9,5.2-8.1,10.2-12.6,14.9
			c-4.2,4.3-8.8,8.8-12.7,12.2c-3.5,3-7.3,5.8-11.2,8.3c0,0-9.2,18.6-4.2,19.8c3,0.7,8.8-8.3,8.8-8.3s7.6-11.6,12.2-16.9
			c6.3-7.1,11.6-11.2,17-11.3c3.1-0.1,5,3.3,5,3.3l1.5-2.3h9.1C306.6,89.6,289.6,118.3,288.3,120.5 M313.6,53.5
			c-6.4,4.1-15.2,7.8-23.7,7c-2.2,2.2-4.5,4.8-6.8,7.6c14.7,2.9,27.7-6.2,34.5-14c2.5-2.8,4.7-5.9,6.4-9.2
			C320.9,48.2,317.4,51.1,313.6,53.5 M186,67.7h-8.6l-4.9,7.9h8.6L186,67.7z M145.1,95c3.7-5,13.8-22.7,13.8-22.7
			c-0.1-0.7-0.7-1.2-1.3-1.3c-1.4-0.1-3.7,0.4-8.4,6.2c-4.6,5.8-8.3,10.5-10.9,15.3c-2.9,5.3-4.1,9-2.5,10c0.5,0.3,1.2,0.3,1.7,0.2
			c1.1-0.3,2.5-1.4,4.4-3.6C142.9,98,143.9,96.6,145.1,95 M98.7,71.1c-2.4-1.8-8.5,2.4-8.5,6.7c0,4.4,5.5,5.8,6.2,5.8
			c0.2,0,0.4,0,0.6-0.1c0.1-0.1,0.2-0.2,0.3-0.3c0.6-1.3,1.2-2.6,1.7-3.9C99.9,77.1,101,72.8,98.7,71.1 M95.1,86.3
			c-1.6-0.5-3.2-1.2-4.7-2.2c-1.4-0.9-2.6-2.2-3.3-3.7c-0.1-0.1-0.2,0-0.3,0.1c-0.1,0.1-0.6,0.7-3.8,5.5c-3.2,4.8-8.1,14.5-3.6,16.2
			c2.9,1.1,7.7-4,10.4-7.3c2-2.6,3.8-5.3,5.5-8.2C95.4,86.5,95.3,86.4,95.1,86.3 M165.7,89.3h3.2c0,0-15.9,22.9-24.8,21.9
			c-5-0.6-3.5-6.8-3.5-6.8s-7,8.2-13.5,6.6c-5.9-1.5-2.1-11.2-2.1-11.2c-0.7,0.3-13.3,14.5-22.2,11.1c-9.3-3.6-4.5-15.5-2.7-19.1
			c1.5-3,3.2-6,3.2-6s-1.4,0.4-2.3,0.6c-0.9,0.2-2.2,0.5-2.2,0.5s-4.4,7.2-7.1,10.7s-14.1,15.8-20.9,13.4S65.6,99,69.4,91.6
			c6.1-12.2,20.7-27.1,29.5-24.8c8.9,2.3,1.5,16.6,1.5,16.6s1.8,0.2,6-2.7c6.1-4.2,14.1-15.3,22.8-14c4.1,0.6,7.9,4.8,2.7,12.8
			c-1.7,2.6-4.5,4.8-6.6,2.6c-1.3-1.4-0.2-4,1.2-5.7c1.1-1.5,2.9-2.3,4.7-2.1c0,0,1.4-3.3-2.2-3.2c-3,0.1-10.5,7-14.7,13.9
			c-3.9,6.4-9.8,17.3-3.9,19.7c5.4,2.2,15.7-10,20.5-16.4c4.8-6.4,15.6-20.9,24.7-21.5c3.1-0.2,5,2.7,5,2.7l1.1-1.7h9.1
			c0,0-17.2,28.6-18.5,30.8c-1.1,1.7-2.5,5.5,1.4,3.4S165.7,89.3,165.7,89.3 M160.7,135.2c-6.7-4.6-14.7-7-22.9-6.7
			c-4.5,0.1-8.6,2.4-11.2,6.1c-3.5-6.1-10.3-9.8-21-9.7c-17.2,0.2-34.2,8.1-47.7,8.1c-12.9,0-22.3-8.1-22-22.5
			C36.6,85.1,58,62.3,73.9,52c9.2-5.9,16.9-7.6,21.9-7.1c3.7,0.4,8.1,4.6,5.3,10.9c-4.1,9.1-9.7,8.4-9.5,4c0.1-2.8,2-4.6,3.4-5.6
			c0.9-0.6,2.5-0.8,3.3-0.8c0.8-0.7,1.4-5.7-5.2-4s-14.5,8.1-22.1,16.5c-7.6,8.3-19.3,24.1-22.2,40.7c-1.4,7.7-0.5,21.7,17.8,21.5
			c15.5-0.1,38.2-10.3,59.2-10.1c8.1,0.1,15.2,2.3,20.7,5.7C152,127,158.5,131.8,160.7,135.2"/>
	</g>
</g>
</svg>
