<?xml version="1.0" encoding="utf-8"?>
<!-- Generator: Adobe Illustrator 28.1.0, SVG Export Plug-In . SVG Version: 6.00 Build 0)  -->
<svg version="1.1" id="katman_1" xmlns="http://www.w3.org/2000/svg" xmlns:xlink="http://www.w3.org/1999/xlink" x="0px" y="0px"
	 viewBox="0 0 72 72" style="enable-background:new 0 0 72 72;" xml:space="preserve">
<path d="M36,7.2C20.1,7.2,7.2,20.1,7.2,36S20.1,64.8,36,64.8S64.8,51.9,64.8,36S51.9,7.2,36,7.2z M36,46.1c5,0,9.2-3.6,10-8.4h10.2
	C55.3,48.1,46.6,56.3,36,56.3c-11.2,0-20.3-9.1-20.3-20.3S24.8,15.7,36,15.7c10.6,0,19.3,8.2,20.2,18.6H46c-0.8-4.8-5-8.4-10-8.4
	c-5.6,0-10.1,4.5-10.1,10.1S30.4,46.1,36,46.1z"/>
</svg>
