<?xml version="1.0" encoding="utf-8"?>
<!-- Generator: Adobe Illustrator 28.1.0, SVG Export Plug-In . SVG Version: 6.00 Build 0)  -->
<svg version="1.1" id="Layer_1" xmlns="http://www.w3.org/2000/svg" xmlns:xlink="http://www.w3.org/1999/xlink" x="0px" y="0px"
	 viewBox="0 0 360 180" style="enable-background:new 0 0 360 180;" xml:space="preserve">
<g>
	<path d="M36,90.2c0-9,7.6-17.9,18-17.9c7.1,0,15.1,8,15.1,8l-8.6,5.1c0,0-1.4-3.7-6.8-3.7c-5.4,0-8.6,4.4-8.6,8.4
		c-0.1,4.5,3.6,8.4,8.4,8.4c3.6,0,7.6-3.9,7.6-3.9l7.4,5.3c0,0-5.5,6.8-14.8,6.8C44.4,106.8,36,101.2,36,90.2z"/>
	<path d="M89.9,72.4c-9.7,0-17.6,7.7-17.6,17.3s7.8,17.2,17.6,17.2s17.6-7.7,17.6-17.2C107.5,80.1,99.6,72.4,89.9,72.4L89.9,72.4z
		 M89.9,81c4.9,0,8.8,3.9,8.8,8.6c0,4.8-3.9,8.6-8.8,8.6s-8.8-3.8-8.8-8.6C81.1,84.9,85,81,89.9,81z M114,72.8v32.4h8.4V87.6
		l14,17.5h8.4V72.8h-8.5v18.9l-13.8-18.9C122.5,72.8,114,72.8,114,72.8z M151.7,72.8l11.4,32.4h12.6l11.4-32.4h-9.2l-8.4,25.7
		L161,72.8H151.7z M193.2,72.8v32.4h26v-7.5h-17.5v-5.4h15.7v-6.6h-15.7v-5.2h17.5v-7.7H193.2z M298,72.8v32.4h26v-7.5h-17.5v-5.4
		h15.7v-6.6h-15.7v-5.2H324v-7.7H298z M228.8,73.4v31.8h7.5V92.7h4.3l6.6,12.5h9.7l-6.6-13.6c8.5-5.1,6.8-15.7-2.7-18.2L228.8,73.4
		L228.8,73.4z M236.2,81.2h8.7c3,0,2.8,4.7,0,4.7h-8.7V81.2z"/>
	<path d="M261.4,102c0.4,2,8.2,5.8,16,5.8c7.1,0,12.9-3.5,12.9-10.2c0-8.4-9.8-10.3-9.8-10.3s-8.1-0.1-8.4-3.9
		c-0.1-1.8,2.4-2.8,4.5-2.8c3.6,0,7.6,3.6,7.6,3.6L290,78c0,0-7.2-5.7-13.2-5.7c-5.8,0-14,3.8-14,11.6c0,6.7,9.5,9.8,9.5,9.8
		s10,1.1,10,4.2c0,2.1-3.6,2.8-5.8,2.8c-5.2,0-9.5-4.5-9.5-4.5L261.4,102z"/>
</g>
</svg>
