<?xml version="1.0" encoding="utf-8"?>
<!-- Generator: Adobe Illustrator 28.1.0, SVG Export Plug-In . SVG Version: 6.00 Build 0)  -->
<svg version="1.1" id="Layer_1" xmlns="http://www.w3.org/2000/svg" xmlns:xlink="http://www.w3.org/1999/xlink" x="0px" y="0px"
	 viewBox="0 0 72 72" style="enable-background:new 0 0 72 72;" xml:space="preserve">
<g>
	<path d="M37.1,64c-6.8,0-13.1-2.5-17.9-6.6L7.2,59l4.6-11.4c-1.6-3.5-2.5-7.5-2.5-11.6c0-15.4,12.4-28,27.8-28
		c15.3,0,27.7,12.5,27.7,28S52.4,64,37.1,64L37.1,64z M52.2,35.9L52.2,35.9c0-8.1-5.7-13.9-15.5-13.9H26.1v28h10.4
		C46.4,50,52.2,44,52.2,35.9L52.2,35.9L52.2,35.9z M36.8,43.1h-3.1V28.9h3.1c4.6,0,7.6,2.6,7.6,7.1V36
		C44.4,40.6,41.4,43.1,36.8,43.1L36.8,43.1z"/>
</g>
</svg>
