<?xml version="1.0" encoding="utf-8"?>
<!-- Generator: Adobe Illustrator 28.1.0, SVG Export Plug-In . SVG Version: 6.00 Build 0)  -->
<svg version="1.1" id="Layer_1" xmlns="http://www.w3.org/2000/svg" xmlns:xlink="http://www.w3.org/1999/xlink" x="0px" y="0px"
	 viewBox="0 0 281.17 214.87" style="enable-background:new 0 0 281.17 214.87;" xml:space="preserve">
<path d="M65.4,75.69v2.1h6.65v45.09h-7.18v8.4h149.57v-8.4h-6.82l-0.23-45.09h7.06v-2.33h-18.55l-10.79,32.61l-10.38-32.61
	l-19.37,0.06v2.28h6.83L162,122.88h-7.06v2.04h16.8v-2.04h-7.12c0-2.22,0.12-38.85,0.18-43.05l14.76,45.09h2.16
	c0.47-1.11,0.7-1.92,1.75-5.48l13.18-39.08l0.17,42.53h-7.18v2.04h22.75v4.2H67.03v-4.32c6.88-0.06,14.23-0.06,21.23-0.06
	c5.19,0,10.44,0.06,15.63,0.17c2.28,0,2.04-0.47,2.22-2.57c0.23-2.45,1.17-12.02,0.93-13.3l-2.22-0.06
	c-0.64,5.83-1.52,9.51-5.78,11.61c-4.08,1.98-10.91,1.46-15.87,1.46l-0.23-21.99c8.28,0,9.74,0.64,10.32,8.87h2.22
	c-0.23-7.76-0.06-11.9,0.18-20.01h-2.1c-1.11,8.05-2.1,8.87-10.62,8.98l0.12-18.61c0-1.52,0.41-1.22,1.81-1.22
	c9.27,0.17,16.63-0.64,17.68,11.2l2.04-0.29l-0.52-13.59L65.4,75.69L65.4,75.69z"/>
<path d="M148.35,121.89c0.7,0.52,1.34,1.63,2.04,2.33c0.7,0,1.11-0.23,1.75-0.47c-0.06-5.95-0.06-11.32,0.29-17.33h-2.16
	c-0.93,5.78-1.11,8.58-4.2,12.48c-5.66,7.23-23.74,8.05-23.92-17.68c-0.12-9.98,2.28-20.83,9.86-23.51c4.78-1.69,10.03,0,12.72,2.62
	c3.03,2.92,4.03,6.94,4.32,12.54l1.98-0.12l0.52-16.57l-1.69-0.35l-1.63,2.92c-2.22-0.82-4.67-4.02-12.95-4.2
	c-5.48-0.12-9.98,1.11-13.77,3.5c-6.24,3.97-11.78,11.38-11.9,22.34c-0.18,15.69,10.03,25.73,25.67,25.55
	c2.63-0.06,5.13-0.53,7.29-1.28C144.85,123.87,147.71,122.06,148.35,121.89L148.35,121.89z"/>
<polygon points="81.58,147.14 80.8,139.83 77.34,147.14 76.74,147.14 73.11,139.83 72.47,147.14 71.33,147.14 72.32,137.49 
	74.13,137.49 77.5,144.28 80.72,137.49 82.49,137.49 83.56,147.14 81.58,147.14 "/>
<path d="M94.77,147.14l-1.12-3.23l-3.61,0.05l-1.16,3.19h-1.24l3.8-9.52l1.89-0.33l3.54,9.84H94.77L94.77,147.14z M93.34,142.99
	l-1.44-4.15l-1.52,4.15H93.34L93.34,142.99z"/>
<path d="M109.19,147.18l-6.77-6.72h-0.03c0.01,0.56,0.02,1.08,0.04,1.55c0.01,0.2,0.01,0.4,0.02,0.6c0,0.2,0.01,0.39,0.01,0.56
	c0,0.17,0.01,0.32,0.01,0.45c0,0.13,0,0.22,0,0.28v3.23h-1.15v-9.65h0.86l6.78,6.7h0.01c-0.01-0.52-0.02-1-0.03-1.45
	c0-0.19,0-0.39-0.01-0.59c0-0.2-0.01-0.38-0.01-0.56c0-0.18,0-0.34,0-0.49c0-0.15,0-0.27,0-0.36v-3.19h1.15v9.63H109.19
	L109.19,147.18z"/>
<path d="M123.79,143.76c0,0.48-0.09,0.93-0.28,1.36c-0.19,0.43-0.46,0.8-0.83,1.12c-0.36,0.32-0.82,0.57-1.36,0.76
	c-0.54,0.19-1.17,0.28-1.89,0.28c-0.59,0-1.13-0.06-1.61-0.18c-0.48-0.12-0.89-0.31-1.22-0.58c-0.34-0.27-0.6-0.61-0.78-1.05
	c-0.18-0.43-0.28-0.96-0.28-1.58v-6.35h1.96v6.54c0,0.48,0.04,0.86,0.13,1.15c0.09,0.28,0.22,0.5,0.39,0.65
	c0.17,0.15,0.39,0.25,0.64,0.29c0.26,0.04,0.55,0.07,0.89,0.07c0.41,0,0.77-0.04,1.07-0.12c0.3-0.08,0.55-0.2,0.75-0.33
	c0.2-0.14,0.33-0.36,0.38-0.66c0.05-0.3,0.08-0.66,0.08-1.08v-6.5h1.96V143.76L123.79,143.76z"/>
<polygon points="131.24,147.14 129.29,147.14 129.29,137.54 134.95,137.54 134.86,138.51 131.24,138.56 131.24,141.98 
	134.74,142.01 134.64,142.9 131.24,142.97 131.24,147.14 "/>
<path d="M145.35,147.14l-1.12-3.23l-3.61,0.05l-1.16,3.19h-1.24l3.8-9.52l1.89-0.33l3.54,9.84H145.35L145.35,147.14z M143.92,142.99
	l-1.44-4.15l-1.52,4.15H143.92L143.92,142.99z"/>
<path d="M155.44,147.27c-0.75,0-1.39-0.12-1.92-0.36c-0.53-0.24-0.96-0.58-1.29-1.02c-0.33-0.44-0.57-0.97-0.72-1.58
	c-0.15-0.61-0.22-1.3-0.22-2.04c0-0.61,0.07-1.15,0.22-1.62c0.15-0.48,0.35-0.89,0.59-1.25c0.25-0.36,0.54-0.67,0.88-0.91
	c0.33-0.25,0.68-0.45,1.06-0.61c0.37-0.16,0.75-0.27,1.14-0.34c0.39-0.07,0.76-0.1,1.13-0.1c0.22,0,0.46,0.01,0.72,0.02
	c0.25,0.02,0.5,0.04,0.74,0.06c0.24,0.02,0.46,0.05,0.67,0.08c0.2,0.03,0.37,0.06,0.51,0.09l-0.37,1.36
	c-0.13-0.04-0.32-0.08-0.56-0.13c-0.24-0.05-0.5-0.09-0.77-0.13c-0.27-0.04-0.55-0.07-0.81-0.1c-0.27-0.03-0.49-0.04-0.67-0.04
	c-0.2,0-0.37,0.01-0.52,0.02c-0.15,0.01-0.29,0.04-0.41,0.06c-0.13,0.03-0.25,0.07-0.36,0.13c-0.12,0.05-0.23,0.12-0.35,0.21
	c-0.3,0.2-0.5,0.58-0.6,1.15c-0.11,0.57-0.16,1.27-0.16,2.11c0,1.28,0.2,2.25,0.6,2.92c0.4,0.67,1.05,1,1.94,1
	c0.25,0,0.51-0.01,0.78-0.03c0.27-0.02,0.54-0.04,0.8-0.08c0.27-0.04,0.52-0.08,0.78-0.14c0.26-0.05,0.5-0.12,0.72-0.19v0.79
	c-0.25,0.11-0.52,0.21-0.81,0.29c-0.29,0.09-0.59,0.16-0.9,0.21c-0.31,0.06-0.61,0.11-0.92,0.13
	C156.03,147.26,155.73,147.27,155.44,147.27L155.44,147.27z"/>
<polygon points="165.89,147.14 165.89,138.56 162.93,138.51 163.03,137.54 170.8,137.54 170.71,138.49 167.85,138.56 167.85,147.14 
	165.89,147.14 "/>
<path d="M183.55,143.76c0,0.48-0.09,0.93-0.28,1.36c-0.19,0.43-0.46,0.8-0.83,1.12c-0.36,0.32-0.82,0.57-1.36,0.76
	c-0.54,0.19-1.17,0.28-1.89,0.28c-0.59,0-1.13-0.06-1.61-0.18c-0.48-0.12-0.89-0.31-1.22-0.58c-0.34-0.27-0.6-0.61-0.78-1.05
	c-0.18-0.43-0.28-0.96-0.28-1.58v-6.35h1.96v6.54c0,0.48,0.04,0.86,0.13,1.15c0.09,0.28,0.22,0.5,0.39,0.65
	c0.17,0.15,0.39,0.25,0.64,0.29c0.26,0.04,0.55,0.07,0.89,0.07c0.41,0,0.77-0.04,1.07-0.12c0.3-0.08,0.55-0.2,0.75-0.33
	c0.2-0.14,0.33-0.36,0.38-0.66c0.05-0.3,0.08-0.66,0.08-1.08v-6.5h1.96V143.76L183.55,143.76z"/>
<path d="M191.67,143.19h-0.66v3.95h-1.96v-9.57c0.2-0.01,0.4-0.03,0.63-0.04c0.23-0.01,0.46-0.02,0.7-0.03
	c0.24-0.01,0.49-0.02,0.73-0.02c0.25-0.01,0.48-0.01,0.71-0.01c1.16,0,2.04,0.21,2.64,0.64c0.6,0.43,0.9,1.08,0.9,1.98
	c0,0.4-0.05,0.75-0.15,1.05c-0.11,0.3-0.24,0.56-0.41,0.78c-0.17,0.22-0.36,0.41-0.58,0.56c-0.22,0.15-0.45,0.27-0.68,0.38
	c0.29,0.49,0.56,0.95,0.82,1.39c0.26,0.43,0.51,0.82,0.77,1.14c0.26,0.33,0.52,0.59,0.79,0.77c0.27,0.19,0.56,0.28,0.86,0.28h0.07
	v0.62c-0.16,0.05-0.33,0.09-0.53,0.12c-0.2,0.03-0.43,0.05-0.67,0.05c-0.24,0-0.45-0.01-0.65-0.04c-0.2-0.02-0.38-0.07-0.55-0.14
	c-0.17-0.07-0.34-0.18-0.51-0.31c-0.17-0.14-0.34-0.32-0.51-0.54c-0.17-0.22-0.36-0.5-0.56-0.83c-0.2-0.33-0.42-0.72-0.66-1.17
	L191.67,143.19L191.67,143.19z M191.35,142.24c0.27,0,0.54-0.03,0.79-0.1c0.25-0.06,0.45-0.15,0.59-0.25
	c0.07-0.05,0.15-0.11,0.22-0.18c0.07-0.07,0.14-0.17,0.2-0.3c0.06-0.13,0.11-0.29,0.14-0.48c0.04-0.19,0.05-0.44,0.05-0.73
	c0-0.32-0.04-0.6-0.12-0.82c-0.08-0.22-0.19-0.41-0.35-0.54c-0.15-0.13-0.34-0.23-0.57-0.29c-0.22-0.06-0.49-0.09-0.79-0.09
	c-0.07,0-0.15,0-0.25,0.01c-0.1,0.01-0.19,0.02-0.27,0.03v3.74H191.35L191.35,142.24z"/>
<polygon points="206.9,147.14 201.12,147.14 201.12,137.54 206.68,137.54 206.59,138.51 203.07,138.56 203.07,141.69 206.39,141.73 
	206.3,142.61 203.07,142.69 203.07,146.12 206.99,146.19 206.9,147.14 "/>
<path d="M139.66,9.04c36.22,0,69.03,10.89,92.79,28.49c23.92,17.72,38.72,42.26,38.72,69.43c0,27.17-14.8,51.71-38.72,69.43
	c-23.76,17.6-56.57,28.49-92.79,28.49c-36.22,0-69.03-10.89-92.79-28.49c-23.92-17.72-38.72-42.26-38.72-69.43
	c0-27.17,14.8-51.71,38.72-69.43C70.63,19.92,103.44,9.04,139.66,9.04L139.66,9.04z M231.54,39.61
	c-23.5-17.4-55.98-28.17-91.88-28.17c-35.9,0-68.38,10.76-91.88,28.17C24.44,56.9,10,80.71,10,106.95
	c0,26.24,14.44,50.05,37.78,67.34c23.5,17.4,55.98,28.17,91.88,28.17c35.9,0,68.38-10.76,91.88-28.17
	c23.34-17.29,37.78-41.1,37.78-67.34C269.31,80.71,254.88,56.9,231.54,39.61L231.54,39.61z"/>
<g>
	<path d="M89.17,34.34c0.2,0.59,0.42,1.11,0.66,1.56c0.25,0.45,0.53,0.81,0.85,1.09c0.32,0.28,0.69,0.45,1.09,0.53
		c0.41,0.07,0.87,0.02,1.39-0.15c0.53-0.18,0.96-0.37,1.27-0.57c0.32-0.21,0.57-0.43,0.76-0.66c0.08-0.11,0.13-0.28,0.15-0.52
		c0.01-0.24-0.01-0.53-0.05-0.85c-0.05-0.32-0.12-0.68-0.22-1.07c-0.1-0.39-0.21-0.79-0.35-1.19c-0.2-0.6-0.43-1.12-0.7-1.55
		c-0.27-0.44-0.57-0.79-0.91-1.04c-0.34-0.26-0.72-0.41-1.13-0.47c-0.42-0.05-0.87,0-1.38,0.16c-0.43,0.14-0.82,0.32-1.17,0.54
		c-0.34,0.21-0.6,0.44-0.76,0.68c-0.16,0.24-0.2,0.65-0.12,1.24C88.66,32.62,88.86,33.39,89.17,34.34z"/>
	<path d="M52.8,53.65c0.03-0.09,0.05-0.2,0.06-0.31c0.01-0.11,0-0.24-0.04-0.39c-0.04-0.15-0.11-0.31-0.21-0.5
		c-0.1-0.18-0.25-0.4-0.46-0.64c-0.22-0.27-0.44-0.47-0.66-0.61c-0.22-0.13-0.44-0.21-0.66-0.22c-0.22,0-0.44,0.04-0.67,0.15
		c-0.23,0.1-0.47,0.26-0.72,0.46c-0.06,0.05-0.13,0.11-0.2,0.18c-0.08,0.07-0.15,0.14-0.21,0.21l2.56,3.13l0.28-0.23
		c0.23-0.19,0.43-0.4,0.59-0.63C52.64,54.04,52.75,53.83,52.8,53.65z"/>
	<polygon points="196.15,32.59 193.07,36.22 196.07,37.32 	"/>
	<path d="M118.7,29.14c0.16,0.49,0.37,0.9,0.64,1.23c0.27,0.33,0.59,0.57,0.98,0.72c0.39,0.15,0.85,0.19,1.39,0.11
		c0.55-0.07,1.01-0.18,1.36-0.33c0.35-0.15,0.64-0.31,0.87-0.51c0.1-0.09,0.18-0.25,0.24-0.48c0.06-0.24,0.09-0.52,0.11-0.85
		c0.01-0.33,0.01-0.69-0.01-1.09c-0.02-0.4-0.06-0.81-0.12-1.23c-0.08-0.63-0.22-1.18-0.39-1.66c-0.18-0.48-0.41-0.88-0.7-1.19
		c-0.29-0.31-0.63-0.54-1.03-0.68c-0.4-0.13-0.86-0.16-1.38-0.1c-0.45,0.06-0.87,0.16-1.25,0.31s-0.67,0.32-0.87,0.52
		c-0.2,0.2-0.32,0.6-0.35,1.19c-0.03,0.59,0.03,1.38,0.16,2.37C118.42,28.1,118.54,28.65,118.7,29.14z"/>
	<path d="M104.15,180.92c-0.14-0.17-0.32-0.31-0.55-0.43c-0.23-0.12-0.5-0.21-0.81-0.29c-0.09-0.02-0.18-0.04-0.27-0.06
		c-0.09-0.02-0.17-0.03-0.24-0.03l-0.81,3.25l0.68,0.17c0.23,0.06,0.47,0.1,0.72,0.11c0.25,0.02,0.45,0.01,0.6-0.03
		c0.06-0.02,0.14-0.05,0.22-0.1c0.08-0.05,0.15-0.12,0.23-0.21c0.07-0.1,0.15-0.23,0.22-0.39c0.07-0.16,0.14-0.36,0.2-0.6
		c0.07-0.3,0.09-0.57,0.06-0.79C104.37,181.29,104.29,181.09,104.15,180.92z"/>
	<polygon points="211.28,171.93 214.04,170.33 210.46,167.24 	"/>
	<path d="M185.86,178.67c-0.15-0.21-0.32-0.36-0.52-0.46c-0.2-0.09-0.42-0.14-0.67-0.13c-0.25,0-0.53,0.05-0.84,0.14
		c-0.07,0.02-0.16,0.05-0.26,0.09c-0.1,0.04-0.19,0.07-0.27,0.11l1.13,3.88l0.35-0.1c0.28-0.08,0.55-0.2,0.79-0.34
		c0.24-0.14,0.42-0.29,0.54-0.43c0.06-0.08,0.12-0.16,0.18-0.26c0.05-0.1,0.09-0.22,0.12-0.37c0.02-0.15,0.02-0.33,0-0.54
		c-0.02-0.21-0.08-0.47-0.17-0.77C186.13,179.15,186.01,178.88,185.86,178.67z"/>
	<path d="M139.66,14.21c-69.93,0-126.62,41.52-126.62,92.74c0,51.22,56.69,92.74,126.62,92.74s126.62-41.52,126.62-92.74
		C266.27,55.73,209.59,14.21,139.66,14.21z M248.49,70.9l-0.92,0.51l-2.19-3.1l-2.78,1.91l1.99,2.98l-0.84,0.46l-2.04-2.83
		l-3.06,2.1l2.33,3.53l-0.9,0.49l-3.53-5.14l8.54-5.86L248.49,70.9z M235.32,55l-0.12,10.28l0.01,0.01c0.39-0.4,0.76-0.77,1.11-1.11
		c0.15-0.14,0.3-0.29,0.45-0.44c0.15-0.15,0.29-0.29,0.43-0.43c0.14-0.14,0.26-0.26,0.38-0.37c0.12-0.11,0.21-0.2,0.28-0.27
		l2.47-2.39l0.86,0.89l-7.48,7.22l-0.66-0.68l0.14-10.29l-0.02-0.02c-0.43,0.43-0.82,0.83-1.18,1.19c-0.15,0.16-0.3,0.31-0.46,0.47
		c-0.16,0.16-0.3,0.3-0.43,0.43c-0.13,0.13-0.24,0.24-0.34,0.34c-0.1,0.1-0.17,0.17-0.21,0.21l-2.51,2.42l-0.86-0.89l7.5-7.24
		L235.32,55z M230.55,50.94l-6.82,7.79l-1.59-1.39l6.82-7.79L230.55,50.94z M218.58,42.29l-2.49,3.79l3.91,2.57l2.49-3.79l1.77,1.16
		l-5.69,8.66l-1.77-1.16l2.56-3.89l-3.91-2.57l-2.56,3.9l-1.77-1.16l5.69-8.66L218.58,42.29z M202.09,41.47
		c0.16-0.66,0.44-1.35,0.81-2.07c0.3-0.58,0.65-1.06,1.02-1.44c0.38-0.38,0.78-0.68,1.2-0.9c0.42-0.22,0.85-0.36,1.3-0.43
		c0.44-0.07,0.88-0.09,1.31-0.05c0.43,0.03,0.85,0.12,1.26,0.24c0.4,0.13,0.78,0.28,1.13,0.47c0.21,0.11,0.44,0.24,0.67,0.38
		c0.23,0.14,0.46,0.28,0.67,0.42c0.22,0.14,0.42,0.28,0.6,0.41c0.18,0.13,0.33,0.25,0.44,0.34l-1.03,1.12
		c-0.11-0.1-0.26-0.23-0.47-0.4c-0.2-0.17-0.43-0.34-0.67-0.52c-0.24-0.17-0.49-0.34-0.73-0.5c-0.24-0.16-0.45-0.29-0.62-0.38
		c-0.19-0.1-0.36-0.18-0.51-0.24c-0.15-0.06-0.29-0.11-0.43-0.15c-0.14-0.03-0.27-0.05-0.41-0.06c-0.14-0.01-0.29,0-0.44,0.03
		c-0.39,0.04-0.77,0.31-1.15,0.79c-0.38,0.49-0.79,1.14-1.21,1.94c-0.64,1.23-0.94,2.26-0.89,3.1c0.05,0.84,0.5,1.48,1.36,1.93
		c0.24,0.13,0.49,0.25,0.76,0.36c0.26,0.12,0.54,0.23,0.81,0.32c0.27,0.1,0.54,0.19,0.81,0.26c0.27,0.08,0.53,0.14,0.78,0.18
		l-0.4,0.76c-0.29-0.02-0.6-0.06-0.92-0.13c-0.32-0.06-0.64-0.15-0.96-0.24c-0.32-0.1-0.64-0.21-0.95-0.33
		c-0.31-0.12-0.6-0.26-0.88-0.4c-0.72-0.38-1.27-0.81-1.65-1.31c-0.38-0.49-0.62-1.04-0.72-1.62
		C201.89,42.75,201.92,42.13,202.09,41.47z M196.14,31.17l2.04,0.37l-0.07,11.29l-2.13-0.78l0.07-3.69l-3.68-1.29l-2.36,2.8
		l-1.25-0.46L196.14,31.17z M177.22,25.05l1.88,0.53l1.5,8.05l5.34-6.11l1.84,0.52l-1.73,10.34L184,37.81l1.34-7.82l-5.74,6.58
		l-0.62-0.18l-1.62-8.66l-2.82,7.4l-1.18-0.33L177.22,25.05z M162.48,22.37l5.92,1.04l-0.28,1.01l-3.75-0.6l-0.58,3.33l3.52,0.66
		l-0.26,0.92l-3.44-0.52l-0.64,3.65l4.15,0.81l-0.27,0.99l-6.14-1.08L162.48,22.37z M151.61,21.33l5.98,0.55l-0.19,1.03l-3.78-0.29
		l-0.31,3.36l3.56,0.37l-0.19,0.94l-3.48-0.24l-0.34,3.69l4.2,0.46l-0.19,1.01l-6.21-0.57L151.61,21.33z M141.15,20.96l6.11,0.12
		l-0.11,1.04l-3.91-0.03l-0.08,3.69l3.77,0.12l-0.12,0.95l-3.67,0l-0.09,4.49l-2.11-0.04L141.15,20.96z M137.22,20.95L137.14,22
		l-3.91,0.09l0.03,3.69l3.77,0.01l-0.09,0.96l-3.67,0.11l0.04,4.49l-2.11,0.02l-0.1-10.36L137.22,20.95z M116.17,25.56
		c0.11-0.67,0.34-1.25,0.69-1.76c0.35-0.51,0.82-0.92,1.42-1.25c0.6-0.32,1.34-0.54,2.21-0.66c0.86-0.11,1.63-0.09,2.31,0.06
		c0.68,0.16,1.26,0.43,1.75,0.83c0.49,0.39,0.89,0.9,1.19,1.51c0.3,0.61,0.51,1.32,0.61,2.12c0.11,0.81,0.1,1.57-0.03,2.25
		c-0.13,0.69-0.38,1.29-0.75,1.8c-0.37,0.52-0.87,0.94-1.48,1.28c-0.62,0.33-1.35,0.56-2.22,0.67c-0.88,0.12-1.65,0.09-2.31-0.08
		c-0.66-0.17-1.23-0.46-1.7-0.87c-0.47-0.41-0.84-0.93-1.12-1.55c-0.27-0.63-0.47-1.34-0.57-2.14
		C116.06,26.97,116.06,26.23,116.17,25.56z M104.07,28.18c0.05-0.54,0.17-1.02,0.36-1.46c0.19-0.43,0.43-0.82,0.73-1.16
		c0.3-0.34,0.63-0.63,0.98-0.87c0.35-0.25,0.73-0.45,1.13-0.61c0.39-0.16,0.78-0.27,1.17-0.35c0.24-0.05,0.49-0.09,0.76-0.13
		c0.27-0.04,0.54-0.07,0.79-0.1c0.26-0.03,0.5-0.05,0.72-0.06c0.22-0.01,0.41-0.02,0.55-0.01l-0.09,1.52
		c-0.15-0.01-0.35-0.02-0.62-0.01c-0.26,0-0.55,0.01-0.85,0.03c-0.3,0.02-0.59,0.04-0.88,0.07c-0.29,0.03-0.53,0.06-0.72,0.1
		c-0.21,0.04-0.39,0.09-0.55,0.13c-0.16,0.05-0.3,0.1-0.42,0.16c-0.13,0.06-0.24,0.13-0.36,0.22c-0.11,0.08-0.22,0.18-0.33,0.3
		c-0.27,0.28-0.4,0.73-0.39,1.35c0.01,0.62,0.11,1.38,0.29,2.26c0.28,1.36,0.7,2.34,1.27,2.96c0.57,0.62,1.33,0.83,2.27,0.63
		c0.27-0.05,0.54-0.12,0.82-0.2c0.28-0.08,0.56-0.16,0.83-0.26c0.27-0.09,0.54-0.2,0.79-0.31c0.26-0.11,0.5-0.23,0.72-0.36
		l0.17,0.84c-0.24,0.17-0.51,0.33-0.79,0.48c-0.29,0.15-0.59,0.29-0.9,0.42c-0.31,0.13-0.63,0.25-0.94,0.34
		c-0.32,0.1-0.63,0.18-0.93,0.25c-0.79,0.16-1.49,0.17-2.1,0.04c-0.61-0.14-1.14-0.41-1.58-0.8c-0.44-0.4-0.81-0.9-1.1-1.51
		c-0.29-0.62-0.52-1.32-0.68-2.11C104.05,29.3,104.01,28.71,104.07,28.18z M87.03,31c0.25-0.56,0.64-1.06,1.16-1.49
		c0.53-0.43,1.21-0.78,2.05-1.06c0.83-0.27,1.59-0.4,2.28-0.37c0.69,0.03,1.32,0.19,1.87,0.49c0.56,0.29,1.04,0.72,1.45,1.26
		c0.41,0.55,0.74,1.21,1,1.97c0.26,0.78,0.39,1.52,0.39,2.21c0,0.7-0.14,1.34-0.4,1.91c-0.27,0.58-0.68,1.09-1.22,1.53
		c-0.54,0.44-1.23,0.8-2.05,1.07c-0.84,0.28-1.61,0.4-2.29,0.35c-0.68-0.04-1.29-0.22-1.83-0.54c-0.54-0.32-1-0.76-1.39-1.32
		c-0.39-0.56-0.71-1.23-0.96-2c-0.25-0.77-0.39-1.49-0.4-2.17C86.67,32.18,86.78,31.56,87.03,31z M76.56,34.65
		c0.19-0.38,0.47-0.73,0.82-1.07c0.36-0.34,0.82-0.62,1.37-0.85c0.44-0.18,0.88-0.33,1.3-0.45c0.42-0.12,0.83-0.22,1.24-0.31
		l0.27,1.54c-0.2,0.01-0.43,0.04-0.67,0.07c-0.25,0.04-0.49,0.08-0.74,0.13c-0.25,0.05-0.48,0.11-0.71,0.18
		c-0.23,0.07-0.43,0.13-0.6,0.2c-0.18,0.07-0.37,0.16-0.55,0.26c-0.19,0.1-0.33,0.21-0.43,0.33c-0.1,0.12-0.14,0.28-0.13,0.47
		c0.01,0.19,0.07,0.4,0.16,0.64c0.1,0.24,0.25,0.42,0.45,0.53c0.2,0.11,0.43,0.18,0.7,0.21c0.27,0.03,0.56,0.04,0.89,0.03
		c0.32-0.01,0.65-0.02,0.99-0.02c0.34,0,0.68,0.01,1.02,0.05c0.34,0.03,0.67,0.12,0.98,0.25c0.31,0.14,0.59,0.33,0.85,0.59
		c0.26,0.26,0.48,0.61,0.66,1.06c0.14,0.35,0.19,0.73,0.16,1.16c-0.04,0.42-0.16,0.84-0.38,1.26c-0.21,0.41-0.52,0.8-0.91,1.16
		c-0.39,0.36-0.88,0.66-1.45,0.89c-0.31,0.13-0.6,0.23-0.88,0.3c-0.27,0.08-0.54,0.13-0.79,0.16c-0.26,0.03-0.51,0.04-0.75,0.05
		c-0.25,0-0.5-0.01-0.75-0.03l-0.09-1.62c0.18,0.04,0.4,0.06,0.67,0.07c0.27,0.01,0.57,0,0.87-0.02c0.3-0.02,0.6-0.06,0.9-0.11
		c0.3-0.05,0.56-0.12,0.79-0.21c0.52-0.21,0.89-0.42,1.1-0.64c0.12-0.12,0.18-0.31,0.18-0.56c0-0.26-0.07-0.56-0.21-0.92
		c-0.1-0.25-0.25-0.43-0.45-0.54c-0.2-0.11-0.44-0.19-0.71-0.22c-0.27-0.04-0.57-0.05-0.89-0.03c-0.32,0.01-0.65,0.02-0.99,0.03
		c-0.34,0.01-0.67-0.01-1.02-0.04c-0.34-0.03-0.67-0.11-0.97-0.24c-0.31-0.13-0.59-0.31-0.85-0.56c-0.26-0.25-0.47-0.59-0.65-1.02
		c-0.11-0.28-0.16-0.61-0.13-0.99C76.26,35.4,76.37,35.02,76.56,34.65z M66.87,39.52c0.16-0.39,0.4-0.77,0.72-1.15
		c0.33-0.37,0.76-0.7,1.28-0.97c0.42-0.22,0.84-0.41,1.25-0.57c0.41-0.16,0.81-0.3,1.21-0.42l0.41,1.51
		c-0.2,0.03-0.42,0.07-0.66,0.13c-0.24,0.06-0.48,0.12-0.72,0.2c-0.24,0.08-0.47,0.16-0.69,0.24c-0.22,0.09-0.41,0.17-0.58,0.25
		c-0.17,0.09-0.35,0.19-0.53,0.31c-0.18,0.12-0.31,0.24-0.4,0.37c-0.08,0.13-0.11,0.29-0.09,0.48c0.03,0.19,0.1,0.39,0.22,0.62
		c0.12,0.23,0.29,0.4,0.49,0.48c0.21,0.09,0.45,0.14,0.72,0.14c0.27,0.01,0.56-0.01,0.88-0.06c0.32-0.04,0.65-0.08,0.99-0.12
		c0.34-0.04,0.68-0.05,1.02-0.05c0.34,0,0.67,0.06,0.99,0.16c0.32,0.11,0.62,0.28,0.9,0.51c0.28,0.23,0.54,0.56,0.76,0.99
		c0.17,0.33,0.26,0.71,0.26,1.14c0,0.42-0.08,0.85-0.26,1.28c-0.17,0.43-0.44,0.85-0.8,1.24c-0.36,0.4-0.81,0.74-1.36,1.02
		c-0.3,0.16-0.58,0.28-0.85,0.38c-0.26,0.1-0.52,0.18-0.77,0.23c-0.25,0.05-0.5,0.09-0.75,0.12c-0.24,0.02-0.5,0.04-0.75,0.04
		l-0.24-1.6c0.18,0.02,0.4,0.02,0.68,0c0.27-0.02,0.56-0.05,0.86-0.1c0.3-0.05,0.59-0.11,0.88-0.19c0.29-0.08,0.55-0.18,0.77-0.29
		c0.5-0.26,0.84-0.5,1.04-0.74c0.11-0.13,0.15-0.32,0.13-0.58c-0.02-0.25-0.12-0.55-0.29-0.89c-0.12-0.24-0.29-0.41-0.5-0.5
		c-0.21-0.09-0.45-0.15-0.73-0.16c-0.27-0.01-0.57,0.01-0.89,0.05c-0.32,0.04-0.65,0.08-0.98,0.12c-0.33,0.04-0.67,0.05-1.02,0.05
		c-0.34,0-0.67-0.05-0.99-0.15c-0.32-0.1-0.61-0.26-0.89-0.48c-0.28-0.22-0.52-0.54-0.74-0.96c-0.14-0.27-0.21-0.59-0.22-0.97
		C66.65,40.29,66.72,39.91,66.87,39.52z M62.04,41.44l0.46,0.94l-3.21,2.03l1.76,2.88l3.08-1.84l0.41,0.87l-2.93,1.89l1.94,3.16
		l3.64-2.14l0.45,0.92l-5.32,3.26l-5.41-8.83L62.04,41.44z M47.27,52.09c0.18-0.16,0.37-0.33,0.56-0.51c0.2-0.17,0.4-0.35,0.6-0.52
		c0.2-0.17,0.4-0.34,0.58-0.49c0.97-0.79,1.85-1.22,2.64-1.27c0.79-0.05,1.49,0.29,2.11,1.04c0.27,0.33,0.47,0.66,0.59,0.98
		c0.12,0.32,0.18,0.63,0.19,0.93c0.01,0.3-0.02,0.59-0.1,0.86c-0.08,0.27-0.19,0.54-0.31,0.79c0.57,0.21,1.12,0.41,1.63,0.6
		c0.51,0.19,0.99,0.33,1.42,0.43c0.44,0.1,0.83,0.13,1.19,0.11c0.35-0.03,0.66-0.14,0.91-0.35l0.06-0.05l0.42,0.52
		c-0.1,0.15-0.22,0.3-0.36,0.47c-0.14,0.16-0.32,0.33-0.53,0.5c-0.2,0.16-0.39,0.3-0.57,0.41c-0.18,0.12-0.37,0.2-0.56,0.26
		c-0.19,0.06-0.4,0.08-0.64,0.08c-0.23,0-0.5-0.04-0.8-0.1c-0.3-0.07-0.64-0.17-1.03-0.31c-0.39-0.14-0.84-0.31-1.35-0.53
		l-1.14-0.48l-0.55,0.45l2.7,3.3l-1.64,1.34l-6.54-7.99C46.92,52.41,47.09,52.25,47.27,52.09z M38.83,60.38
		c0.17-0.2,0.35-0.4,0.54-0.61c0.18-0.21,0.37-0.41,0.56-0.62c0.19-0.21,0.37-0.4,0.56-0.59c0.44-0.45,0.87-0.8,1.3-1.04
		c0.42-0.24,0.84-0.38,1.23-0.43c0.4-0.05,0.78,0,1.15,0.15c0.37,0.15,0.71,0.38,1.04,0.69c0.35,0.33,0.61,0.7,0.8,1.11
		c0.19,0.41,0.28,0.85,0.27,1.31c-0.01,0.46-0.14,0.95-0.37,1.46c-0.24,0.51-0.61,1.03-1.12,1.55l-0.06,0.06l-0.68-0.46l0.16-0.25
		c0.15-0.24,0.27-0.48,0.37-0.72c0.1-0.24,0.15-0.48,0.14-0.74c-0.01-0.25-0.09-0.52-0.23-0.8s-0.39-0.58-0.72-0.91
		c-0.25-0.24-0.5-0.42-0.74-0.53c-0.24-0.12-0.48-0.17-0.7-0.17c-0.22,0-0.44,0.05-0.65,0.15c-0.21,0.1-0.4,0.25-0.59,0.44
		c-0.18,0.19-0.36,0.41-0.53,0.64l6.71,6.47l-1.47,1.52l-7.42-7.16C38.5,60.76,38.66,60.58,38.83,60.38z M32.24,69.01
		c0.11-0.49,0.34-0.97,0.67-1.46c0.27-0.39,0.55-0.76,0.83-1.09c0.28-0.33,0.57-0.65,0.87-0.94l1.08,1.13
		c-0.16,0.12-0.34,0.27-0.52,0.43c-0.19,0.17-0.36,0.34-0.54,0.52c-0.17,0.18-0.34,0.36-0.5,0.54c-0.16,0.18-0.28,0.35-0.39,0.5
		c-0.11,0.16-0.22,0.34-0.32,0.52c-0.1,0.19-0.16,0.36-0.18,0.51c-0.01,0.15,0.04,0.31,0.15,0.46c0.11,0.15,0.28,0.3,0.49,0.44
		c0.22,0.15,0.44,0.21,0.66,0.19c0.23-0.02,0.46-0.09,0.7-0.21c0.24-0.12,0.49-0.28,0.75-0.47c0.26-0.19,0.53-0.38,0.81-0.57
		c0.28-0.19,0.57-0.37,0.88-0.53c0.3-0.16,0.62-0.27,0.95-0.33c0.33-0.06,0.68-0.05,1.04,0.02c0.36,0.07,0.74,0.24,1.13,0.51
		c0.31,0.21,0.57,0.51,0.77,0.88c0.2,0.37,0.33,0.79,0.38,1.26c0.05,0.46,0.01,0.95-0.11,1.47c-0.13,0.52-0.37,1.03-0.72,1.54
		c-0.19,0.28-0.38,0.52-0.57,0.73c-0.18,0.21-0.38,0.4-0.57,0.57c-0.2,0.17-0.4,0.32-0.6,0.46c-0.2,0.14-0.42,0.27-0.64,0.39
		l-0.97-1.29c0.17-0.07,0.37-0.17,0.6-0.32c0.23-0.15,0.47-0.31,0.71-0.49c0.24-0.18,0.47-0.38,0.69-0.59
		c0.22-0.21,0.4-0.42,0.54-0.61c0.32-0.46,0.5-0.84,0.56-1.15c0.03-0.17-0.02-0.36-0.16-0.57c-0.14-0.22-0.37-0.43-0.68-0.65
		c-0.22-0.15-0.45-0.22-0.68-0.2c-0.23,0.02-0.47,0.08-0.71,0.2c-0.24,0.12-0.5,0.27-0.76,0.46c-0.26,0.19-0.53,0.38-0.81,0.57
		c-0.28,0.19-0.57,0.36-0.87,0.52c-0.3,0.16-0.62,0.28-0.94,0.34c-0.33,0.07-0.66,0.06-1.02,0s-0.72-0.23-1.1-0.49
		c-0.25-0.17-0.47-0.42-0.65-0.75c-0.19-0.33-0.3-0.7-0.35-1.12C32.1,69.94,32.13,69.49,32.24,69.01z M25.64,79.85l2.85-5.29
		l0.87,0.58l-1.75,3.37l2.97,1.6l1.74-3.14l0.79,0.54l-1.58,3.11l3.26,1.76l2.07-3.68l0.85,0.57l-2.96,5.49L25.64,79.85z
		 M43.58,159.86l3.35-3.24l-3.26-3.36l-3.35,3.24l-1.47-1.52l7.44-7.21l1.47,1.52l-3.26,3.16l3.26,3.36l3.26-3.16l1.47,1.52
		l-7.44,7.21L43.58,159.86z M56.71,164.28l-2.82-2.05l-2.25,2.95l3.31,2.63l-0.7,0.75l-4.96-3.78l6.28-8.24l4.78,3.64l-0.71,0.77
		l-3.05-2.26l-2.05,2.69l2.82,2.21L56.71,164.28z M58.24,171.23l5.59-8.72l1.78,1.14l-5.59,8.72L58.24,171.23z M76.11,172.41
		c-0.05,0.68-0.27,1.4-0.68,2.18c-0.4,0.76-0.85,1.39-1.36,1.91c-0.51,0.52-1.09,0.89-1.73,1.11c-0.64,0.22-1.35,0.29-2.12,0.19
		c-0.77-0.1-1.62-0.39-2.54-0.87c-0.26-0.13-0.52-0.28-0.8-0.44c-0.28-0.16-0.55-0.31-0.82-0.47c-0.27-0.16-0.52-0.31-0.76-0.46
		c-0.24-0.15-0.45-0.29-0.63-0.4l4.71-9.02c0.21,0.08,0.45,0.17,0.72,0.29c0.27,0.12,0.56,0.24,0.86,0.38
		c0.3,0.14,0.6,0.28,0.9,0.42c0.3,0.15,0.58,0.29,0.85,0.43c0.75,0.39,1.38,0.82,1.91,1.3c0.53,0.48,0.92,1,1.18,1.58
		C76.05,171.12,76.16,171.74,76.11,172.41z M86.64,175.35l-3.51-1.44l-1.32,3.11l3.28,1.44l-0.47,0.84l-3.24-1.29l-1.45,3.41
		l3.86,1.73l-0.49,0.9l-5.74-2.45l4.06-9.53l5.53,2.36L86.64,175.35z M93.47,187.46l-5.63-1.87l3.27-9.83l2.01,0.67l-2.92,8.79
		l3.72,1.24L93.47,187.46z M106.49,182.59c-0.08,0.34-0.21,0.63-0.37,0.86c-0.16,0.24-0.35,0.43-0.57,0.58
		c-0.21,0.15-0.45,0.26-0.7,0.32c-0.25,0.07-0.51,0.1-0.76,0.09l-0.01,0.03c0.38,0.18,0.7,0.4,0.95,0.64
		c0.25,0.24,0.44,0.5,0.57,0.77c0.13,0.27,0.2,0.57,0.21,0.88c0.01,0.31-0.02,0.62-0.1,0.94c-0.11,0.45-0.28,0.82-0.52,1.13
		c-0.24,0.31-0.54,0.55-0.91,0.72c-0.37,0.17-0.81,0.26-1.32,0.27c-0.51,0.01-1.1-0.07-1.75-0.23c-0.21-0.05-0.46-0.12-0.75-0.2
		c-0.28-0.08-0.57-0.16-0.86-0.25c-0.3-0.09-0.59-0.17-0.87-0.27c-0.28-0.09-0.53-0.18-0.74-0.25l2.47-9.94
		c0.21,0.03,0.43,0.07,0.68,0.11c0.24,0.04,0.49,0.09,0.74,0.14c0.25,0.05,0.51,0.11,0.76,0.16c0.25,0.06,0.5,0.11,0.72,0.17
		c0.56,0.14,1.05,0.31,1.49,0.52c0.44,0.2,0.79,0.44,1.07,0.72c0.28,0.27,0.47,0.58,0.57,0.93
		C106.6,181.79,106.6,182.17,106.49,182.59z M117.07,183.12l-3.75-0.59l-0.57,3.33l3.53,0.64l-0.26,0.93l-3.45-0.51l-0.63,3.65
		l4.15,0.79l-0.27,0.99l-6.15-1.05l1.75-10.21l5.92,1.01L117.07,183.12z M128.97,193.64c-0.17,0.04-0.37,0.06-0.59,0.08
		c-0.22,0.01-0.46,0.01-0.73-0.02c-0.25-0.02-0.49-0.06-0.69-0.11c-0.21-0.04-0.4-0.12-0.58-0.21c-0.18-0.09-0.35-0.22-0.51-0.39
		c-0.16-0.16-0.33-0.37-0.5-0.64c-0.16-0.26-0.34-0.57-0.52-0.94c-0.18-0.37-0.38-0.82-0.59-1.33l-0.47-1.14l-0.7-0.07l-0.39,4.25
		l-2.1-0.19l0.95-10.29c0.21,0.01,0.44,0.01,0.68,0.02c0.25,0.01,0.5,0.02,0.76,0.04c0.26,0.01,0.52,0.03,0.79,0.05
		c0.27,0.02,0.52,0.04,0.76,0.06c1.25,0.12,2.17,0.43,2.78,0.95c0.6,0.52,0.86,1.25,0.77,2.22c-0.04,0.43-0.13,0.8-0.27,1.11
		c-0.14,0.31-0.31,0.58-0.52,0.8c-0.2,0.22-0.43,0.4-0.68,0.54c-0.25,0.14-0.51,0.25-0.77,0.34c0.26,0.55,0.51,1.08,0.74,1.57
		c0.23,0.49,0.47,0.93,0.71,1.3c0.24,0.38,0.5,0.68,0.77,0.91c0.27,0.23,0.57,0.36,0.9,0.39l0.07,0.01L128.97,193.64z
		 M141.67,193.32c-0.24,0.1-0.53,0.19-0.88,0.29c-0.34,0.09-0.72,0.18-1.13,0.26c-0.41,0.07-0.82,0.14-1.25,0.18
		c-0.43,0.04-0.84,0.06-1.25,0.06c-0.81-0.02-1.5-0.16-2.06-0.43c-0.56-0.27-1.01-0.65-1.36-1.13c-0.34-0.48-0.59-1.06-0.74-1.72
		c-0.15-0.67-0.22-1.4-0.2-2.21c0.02-0.81,0.17-1.54,0.46-2.17c0.29-0.64,0.69-1.18,1.2-1.62c0.51-0.44,1.12-0.78,1.83-1
		c0.7-0.22,1.48-0.33,2.32-0.31c0.21,0,0.44,0.02,0.7,0.03c0.26,0.02,0.51,0.04,0.77,0.07c0.25,0.03,0.49,0.07,0.71,0.1
		c0.23,0.04,0.41,0.07,0.56,0.12l-0.39,1.5c-0.17-0.06-0.39-0.12-0.66-0.18c-0.26-0.06-0.54-0.12-0.84-0.17
		c-0.29-0.05-0.59-0.09-0.88-0.13c-0.29-0.04-0.55-0.06-0.78-0.06c-0.38-0.01-0.73,0.01-1.06,0.07c-0.34,0.05-0.65,0.18-0.93,0.38
		c-0.16,0.11-0.29,0.29-0.39,0.53c-0.1,0.24-0.18,0.52-0.24,0.83c-0.06,0.31-0.1,0.65-0.13,1.01c-0.03,0.36-0.04,0.71-0.05,1.06
		c-0.03,1.38,0.13,2.44,0.48,3.19c0.34,0.74,0.91,1.12,1.69,1.13c0.19,0,0.4,0,0.62-0.01c0.22-0.01,0.44-0.03,0.65-0.05
		c0.21-0.02,0.41-0.05,0.6-0.07c0.19-0.02,0.35-0.05,0.48-0.08l0.05-2.77l-2.3-0.16l0.13-0.83l4.35,0.08L141.67,193.32z
		 M150.26,190.28l-1.46-1.31l1.3-1.46l1.47,1.31L150.26,190.28z M167.13,191.39c-0.33,0.14-0.69,0.29-1.08,0.42
		c-0.39,0.13-0.79,0.26-1.21,0.37c-0.42,0.11-0.82,0.19-1.23,0.24c-0.8,0.11-1.5,0.07-2.1-0.12c-0.6-0.18-1.1-0.49-1.51-0.91
		c-0.41-0.43-0.74-0.96-0.99-1.59c-0.25-0.64-0.42-1.35-0.53-2.16c-0.11-0.8-0.06-1.54,0.13-2.22c0.19-0.68,0.5-1.27,0.94-1.78
		c0.44-0.51,0.99-0.94,1.65-1.27c0.66-0.33,1.41-0.55,2.25-0.66c0.21-0.03,0.44-0.05,0.7-0.07c0.26-0.02,0.51-0.03,0.77-0.04
		c0.25-0.01,0.49-0.01,0.72-0.01c0.23,0,0.42,0.01,0.57,0.03l-0.16,1.54c-0.18-0.03-0.41-0.06-0.68-0.08
		c-0.27-0.02-0.56-0.04-0.85-0.04c-0.3-0.01-0.59-0.01-0.89,0c-0.3,0.01-0.55,0.03-0.78,0.06c-0.37,0.05-0.72,0.12-1.04,0.22
		c-0.32,0.1-0.61,0.27-0.87,0.52c-0.14,0.13-0.24,0.33-0.3,0.58c-0.06,0.25-0.1,0.54-0.11,0.86c-0.01,0.32,0,0.66,0.02,1.02
		c0.03,0.36,0.06,0.71,0.11,1.05c0.18,1.37,0.5,2.4,0.95,3.08c0.45,0.68,1.06,0.97,1.84,0.87c0.19-0.03,0.4-0.06,0.61-0.1
		c0.21-0.04,0.43-0.09,0.63-0.14c0.21-0.05,0.4-0.11,0.58-0.16c0.18-0.05,0.34-0.1,0.46-0.15l-0.36-2.75l-2.3,0.18l0-0.84l4.31-0.57
		l0.55,4.19C167.73,191.11,167.46,191.25,167.13,191.39z M173.15,190.58l-2.14-10.13l5.88-1.24l0.12,1.04l-3.7,0.83l0.7,3.3
		l3.51-0.7l0.1,0.96l-3.39,0.8l0.77,3.63l4.15-0.8l0.11,1.02L173.15,190.58z M191.4,185.83c-0.2,0.09-0.43,0.18-0.68,0.25
		c-0.25,0.07-0.47,0.12-0.68,0.16c-0.21,0.04-0.42,0.04-0.62,0.02c-0.2-0.02-0.4-0.08-0.62-0.17c-0.21-0.09-0.44-0.23-0.69-0.41
		c-0.25-0.18-0.53-0.41-0.83-0.69c-0.31-0.28-0.65-0.62-1.03-1.02l-0.86-0.89l-0.68,0.2l1.19,4.1l-2.03,0.59l-2.89-9.92
		c0.2-0.07,0.41-0.15,0.64-0.23c0.23-0.08,0.47-0.16,0.72-0.24c0.25-0.08,0.5-0.16,0.75-0.24c0.25-0.08,0.5-0.16,0.73-0.22
		c1.2-0.35,2.18-0.4,2.93-0.14c0.75,0.26,1.26,0.85,1.53,1.78c0.12,0.41,0.17,0.79,0.16,1.13c-0.02,0.34-0.08,0.65-0.19,0.93
		c-0.1,0.28-0.25,0.53-0.43,0.76c-0.18,0.22-0.38,0.42-0.59,0.6c0.45,0.42,0.87,0.82,1.27,1.19c0.4,0.37,0.78,0.69,1.14,0.95
		c0.36,0.26,0.71,0.45,1.05,0.56c0.34,0.11,0.66,0.13,0.98,0.04l0.07-0.02l0.19,0.64C191.77,185.64,191.6,185.73,191.4,185.83z
		 M205.61,180l-3.82-6.96l-0.41,8.72l-0.6,0.25l-6.65-5.78l2.39,7.55l-1.13,0.47l-3.02-10.03l1.81-0.75l6.17,5.38l0.39-8.11
		l1.77-0.73l5.07,9.18L205.61,180z M217.63,173.43l-2.8-2.41l-3.35,2l0.64,3.6l-1.16,0.67l-1.6-10.94l1.59-1.33l8.63,7.28
		L217.63,173.43z M229.93,164.85l-10.21-1.3l-0.02,0.02c0.38,0.48,0.73,0.91,1.05,1.31c0.14,0.17,0.28,0.34,0.41,0.51
		c0.14,0.17,0.26,0.33,0.38,0.48c0.11,0.14,0.22,0.27,0.3,0.38c0.09,0.11,0.15,0.19,0.19,0.24l2.12,2.77l-0.99,0.76l-6.35-8.26
		l0.74-0.57l10.2,1.28l0.01-0.01c-0.35-0.44-0.68-0.84-0.98-1.22c-0.13-0.16-0.26-0.33-0.39-0.5c-0.13-0.16-0.26-0.32-0.38-0.47
		c-0.12-0.15-0.23-0.29-0.33-0.42c-0.1-0.13-0.18-0.23-0.24-0.31l-2.09-2.73l0.99-0.76l6.33,8.25L229.93,164.85z M236.21,159.25
		l-2.71-2.9l-6.82-2.36l1.76-1.64l5.33,1.97l-1.53-5.52l0.94-0.88l1.87,6.98l2.71,2.9L236.21,159.25z M139.66,177.02
		c-57.4,0-103.94-31.37-103.94-70.06c0-38.7,46.54-70.06,103.94-70.06c57.4,0,103.94,31.37,103.94,70.06
		C243.6,145.65,197.06,177.02,139.66,177.02z M252.13,80.23c-0.06-0.24-0.13-0.48-0.21-0.72c-0.08-0.24-0.17-0.47-0.25-0.69
		c-0.09-0.22-0.18-0.41-0.26-0.57c-0.09-0.17-0.2-0.35-0.32-0.52c-0.12-0.17-0.25-0.31-0.37-0.39c-0.13-0.08-0.29-0.11-0.48-0.08
		c-0.19,0.03-0.39,0.11-0.62,0.23c-0.23,0.12-0.39,0.29-0.47,0.5c-0.09,0.21-0.13,0.45-0.13,0.72c0,0.27,0.02,0.56,0.07,0.88
		c0.05,0.31,0.09,0.64,0.13,0.98c0.04,0.34,0.06,0.68,0.07,1.02c0,0.34-0.04,0.67-0.14,1c-0.1,0.32-0.26,0.62-0.49,0.91
		c-0.23,0.29-0.55,0.54-0.98,0.77c-0.33,0.18-0.71,0.27-1.13,0.28c-0.42,0.01-0.85-0.07-1.29-0.24c-0.43-0.17-0.85-0.43-1.26-0.77
		c-0.4-0.35-0.75-0.8-1.04-1.34c-0.16-0.3-0.29-0.58-0.39-0.84c-0.1-0.26-0.19-0.52-0.25-0.77c-0.06-0.25-0.1-0.5-0.13-0.75
		c-0.03-0.24-0.05-0.5-0.06-0.75l1.6-0.27c-0.02,0.18-0.02,0.41,0.01,0.68c0.02,0.27,0.06,0.56,0.11,0.86
		c0.05,0.3,0.12,0.59,0.21,0.88c0.08,0.29,0.18,0.55,0.3,0.76c0.27,0.49,0.52,0.83,0.76,1.03c0.13,0.11,0.33,0.15,0.58,0.12
		c0.25-0.02,0.55-0.13,0.89-0.31c0.24-0.13,0.4-0.3,0.49-0.51c0.09-0.21,0.14-0.46,0.14-0.73c0.01-0.27-0.02-0.57-0.07-0.89
		c-0.05-0.32-0.09-0.64-0.13-0.98c-0.04-0.33-0.06-0.67-0.07-1.01c-0.01-0.34,0.04-0.67,0.13-0.99c0.09-0.32,0.25-0.62,0.47-0.9
		c0.22-0.28,0.53-0.53,0.94-0.75c0.27-0.14,0.59-0.22,0.97-0.24c0.38-0.01,0.76,0.05,1.15,0.2c0.39,0.15,0.78,0.38,1.16,0.7
		c0.38,0.32,0.71,0.74,0.99,1.27c0.23,0.42,0.42,0.84,0.59,1.24c0.16,0.4,0.31,0.8,0.44,1.2l-1.5,0.44
		C252.25,80.69,252.2,80.47,252.13,80.23z"/>
	<path d="M101.87,184.52l-0.64-0.16l-0.96,3.86c0.06,0.02,0.1,0.04,0.14,0.06c0.04,0.02,0.08,0.03,0.12,0.05
		c0.05,0.02,0.1,0.03,0.18,0.05c0.07,0.02,0.17,0.04,0.29,0.07c0.12,0.03,0.26,0.06,0.41,0.09c0.15,0.03,0.3,0.05,0.45,0.06
		c0.15,0.02,0.29,0.02,0.41,0.02c0.12,0,0.23-0.01,0.31-0.03c0.08-0.02,0.17-0.06,0.27-0.11c0.1-0.05,0.19-0.14,0.29-0.25
		c0.1-0.11,0.19-0.26,0.27-0.45c0.09-0.18,0.17-0.42,0.24-0.71c0.16-0.65,0.09-1.2-0.21-1.63
		C103.13,185.01,102.61,184.7,101.87,184.52z"/>
	<path d="M73.05,169.23c-0.35-0.31-0.77-0.59-1.23-0.84c-0.07-0.04-0.15-0.08-0.25-0.12c-0.09-0.04-0.19-0.09-0.28-0.12
		c-0.09-0.04-0.18-0.07-0.27-0.11c-0.09-0.03-0.16-0.06-0.21-0.08l-3.83,7.34c0.05,0.04,0.12,0.09,0.2,0.14
		c0.08,0.05,0.16,0.11,0.25,0.16c0.08,0.06,0.17,0.11,0.25,0.16c0.08,0.05,0.15,0.08,0.21,0.11c0.55,0.29,1.04,0.5,1.45,0.63
		c0.41,0.13,0.8,0.17,1.17,0.11c0.2-0.03,0.4-0.09,0.61-0.19c0.21-0.09,0.42-0.25,0.66-0.46c0.23-0.22,0.48-0.51,0.74-0.87
		c0.26-0.36,0.54-0.83,0.84-1.41c0.37-0.71,0.59-1.34,0.65-1.89c0.06-0.55,0.01-1.03-0.15-1.46
		C73.67,169.91,73.41,169.54,73.05,169.23z"/>
	<path d="M125.85,185.02c-0.06-0.25-0.17-0.46-0.32-0.62c-0.15-0.16-0.34-0.28-0.58-0.37c-0.23-0.09-0.51-0.14-0.84-0.17
		c-0.08-0.01-0.17-0.01-0.27-0.01c-0.11,0-0.21,0-0.29,0l-0.37,4.02l0.36,0.03c0.3,0.03,0.58,0.02,0.86-0.03
		c0.28-0.04,0.5-0.11,0.66-0.21c0.08-0.05,0.17-0.11,0.26-0.17c0.09-0.07,0.17-0.17,0.25-0.3c0.07-0.13,0.14-0.3,0.2-0.5
		c0.06-0.2,0.1-0.46,0.13-0.78C125.93,185.57,125.92,185.27,125.85,185.02z"/>
</g>
<path d="M139.66,39.94c27.76,0,52.91,7.44,71.13,19.47c18.37,12.13,29.74,28.94,29.74,47.54c0,18.61-11.36,35.41-29.74,47.54
	c-18.22,12.03-43.37,19.47-71.13,19.47c-27.76,0-52.91-7.44-71.13-19.47c-18.37-12.13-29.74-28.94-29.74-47.54
	c0-18.61,11.36-35.41,29.74-47.54C86.75,47.38,111.9,39.94,139.66,39.94L139.66,39.94z M209.51,61.42
	c-17.85-11.79-42.55-19.08-69.85-19.08c-27.3,0-51.99,7.29-69.85,19.08C52.1,73.11,41.15,89.21,41.15,106.95
	c0,17.74,10.95,33.84,28.66,45.53c17.85,11.79,42.55,19.08,69.85,19.08c27.3,0,51.99-7.29,69.85-19.08
	c17.71-11.69,28.66-27.79,28.66-45.53C238.16,89.21,227.21,73.11,209.51,61.42L209.51,61.42z"/>
</svg>
