<?xml version="1.0" encoding="utf-8"?>
<!-- Generator: Adobe Illustrator 28.1.0, SVG Export Plug-In . SVG Version: 6.00 Build 0)  -->
<svg version="1.1"
	 id="svg6758" xmlns:svg="http://www.w3.org/2000/svg" xmlns:cc="http://creativecommons.org/ns#" xmlns:dc="http://purl.org/dc/elements/1.1/" xmlns:rdf="http://www.w3.org/1999/02/22-rdf-syntax-ns#"
	 xmlns="http://www.w3.org/2000/svg" xmlns:xlink="http://www.w3.org/1999/xlink" x="0px" y="0px" viewBox="0 0 360 180"
	 style="enable-background:new 0 0 360 180;" xml:space="preserve">
<g id="layer1" transform="translate(-398.57143,-700.482)">
	<g id="g5598" transform="matrix(4.2524486,0,0,-4.2524486,426.90617,839.40721)">
		<path id="path5600" d="M5.5,8.6h3.4c0.6,0,1.3-0.5,1.3-1.1h0v2.6H5.5v4.5h4.6c0.7,0,1.3-0.5,1.3-1.1h0l0,2.6l-9.6,0v0
			c0.6,0,1.1-0.7,1.1-1.4V2.8c0-0.6-0.5-1.3-1.1-1.4v0h4.9v0C6,1.5,5.5,2.2,5.5,2.8V8.6z"/>
	</g>
	<g id="g5602" transform="matrix(4.2524486,0,0,-4.2524486,499.9284,863.10481)">
		<path id="path5604" d="M-1.7,11c0-1.5,1.3-2.8,2.8-2.8S4,9.4,4,11v9.3c0,0.6-0.5,1.3-1.1,1.4v0l4.9,0v0c-0.6,0-1.1-0.7-1.1-1.4
			v-9.1c0-2.9-2.4-4.6-5.4-4.6c-3,0-5.4,1.7-5.4,4.6l0,9.1c0,0.6-0.5,1.3-1.1,1.4v0h4.9v0c-0.6,0-1.1-0.7-1.1-1.4V11z"/>
	</g>
	<g id="g5606" transform="matrix(4.2524486,0,0,-4.2524486,791.71951,801.67904)">
		<path id="path5608" d="M-30.7,4.9C-31.5,6.2-33.3,6-33.3,6c-3,0-2.9-2.3-2.9-2.3s-0.2-1.2,1.3-1.9l3-1.6c2.9-1.6,2.6-3.8,2.6-3.8
			s0.1-4.2-6-4.2c0,0-1.8-0.1-2.8,0.3l-0.9,2.7h0c0.9-1.3,3.6-1.5,3.6-1.5c3.4,0.2,3.5,2.5,3.5,2.5s0.2,1-1.2,1.7l-3,1.6
			c-3.2,1.7-2.8,3.9-2.8,3.9s-0.1,4.1,5.3,4.1c0,0,2.4-0.1,2.8-0.4L-30.7,4.9C-30.6,4.9-30.7,4.9-30.7,4.9z"/>
	</g>
	<g id="g5610" transform="matrix(4.2524486,0,0,-4.2524486,617.71354,746.68978)">
		<path id="path5612" d="M-13.4-0.6c0.5-0.5,1.3-0.9,2.1-0.9c1.6,0,3,1.3,3,2.9s-1.3,2.9-3,2.9c0,0-2.3,0.2-3.3-2.6l0,2.1
			c0.8,1,2,1.7,3.3,1.7c2.3,0,4.2-1.8,4.2-4.1S-9-2.6-11.3-2.6c-1.2,0-2.2,0.5-3,1.2l-1.5,1.6c-0.4,0.4-0.9,0.6-1.5,0.6
			c-1.2,0-2.2-0.9-2.2-2.1s1-2.1,2.2-2.1c0,0,1.6-0.2,2.6,1.7l0-1.7c-0.6-0.7-1.6-1.2-2.6-1.2c-1.9,0-3.4,1.5-3.4,3.3
			c0,1.8,1.5,3.3,3.4,3.3c0.9,0,1.8-0.4,2.4-1L-13.4-0.6z"/>
	</g>
	<g id="g5614" transform="matrix(4.2524486,0,0,-4.2524486,623.42376,794.2313)">
		<path id="path5616" d="M-14,4.1c0,0.6-0.5,1.3-1.1,1.3v0h4.8v0c-0.6,0-1.1-0.7-1.1-1.3V-7.8c0-0.6,0.5-1.3,1.1-1.4v0h-4.8v0
			c0.6,0,1.1,0.7,1.1,1.4V4.1z"/>
	</g>
	<g id="g5618" transform="matrix(4.2524486,0,0,-4.2524486,601.04863,794.45924)">
		<path id="path5620" d="M-11.8,4.1c0,0.6,0.5,1.3,1.1,1.4v0h-4.9v0c0.6,0,1.1-0.7,1.1-1.4l0-14.9c0,0-0.1-2.6-2.2-4.1l0,0
			c0.4,0.1,4.8,0.9,4.8,5.1L-11.8,4.1z"/>
	</g>
	<g id="g5622" transform="matrix(4.2524486,0,0,-4.2524486,650.57479,803.64538)">
		<path id="path5624" d="M-16.7,5.1L-16.7,5.1C-16,6.2-15,6.2-15,6.2h2.6V-5.6c0-0.6-0.5-1.3-1.1-1.4v0h4.9v0
			c-0.7,0-1.1,0.7-1.1,1.4l0,11.8l2.2,0c0.7,0,1.2-0.5,1.2-1.2h0l0.8,2.6h-10.4L-16.7,5.1z"/>
	</g>
	<g id="g5626" transform="matrix(4.2524486,0,0,-4.2524486,828.40535,863.10481)">
		<path id="path5628" d="M-34.3,11c0-1.5,1.3-2.8,2.8-2.8c1.6,0,2.8,1.3,2.8,2.9v9.3c0,0.6-0.5,1.3-1.1,1.4v0l4.9,0v0
			c-0.6,0-1.1-0.7-1.1-1.4v-9.1c0-2.9-2.4-4.6-5.4-4.6c-3,0-5.4,1.7-5.4,4.6l0,9.1c0,0.6-0.5,1.3-1.1,1.4v0h4.9v0
			c-0.6,0-1.1-0.7-1.1-1.4V11z"/>
	</g>
</g>
</svg>
