<?xml version="1.0" encoding="utf-8"?>
<!-- Generator: Adobe Illustrator 28.1.0, SVG Export Plug-In . SVG Version: 6.00 Build 0)  -->
<svg version="1.1" id="Layer_1" xmlns="http://www.w3.org/2000/svg" xmlns:xlink="http://www.w3.org/1999/xlink" x="0px" y="0px"
	 viewBox="0 0 300 300" style="enable-background:new 0 0 300 300;" xml:space="preserve">
<g>
	<polygon style="stroke:#FFFFFF;stroke-miterlimit:10;" points="136.47,160.76 151.08,160.76 143.7,96.04 	"/>
	<path style="stroke:#FFFFFF;stroke-miterlimit:10;" d="M221.76,77.49h-6.22v83.06h6.83c5.27,0.03,8-4.28,8-8.93V87.11
		C230.37,82.97,227.64,77.48,221.76,77.49z"/>
	<path style="stroke:#FFFFFF;stroke-miterlimit:10;" d="M150,0H0v150v150h150h150V150V0H150z M101.65,154.51h-5.94v70.73h-2.96
		c0-2.85-1.66-4.39-3.19-3.72c-2.89,1.26-6.28,5.02-13.41,4.95c-9.16-0.1-18.45-3.71-18.56-23.02V92.28
		c0.03-15.12,10.31-18.59,17.48-18.64c4.4-0.03,9.32,2,13.34,4.82c1.12,0.79,2.51,0.97,2.51-1.43l0.01-2.01h2.95v47.21h-2.96
		c-0.08-15.61-5.55-45.77-15.87-45.85c-5.36-0.04-5.97,8.02-5.97,11.49v127.49c0,4.81,3.12,8.67,7.18,8.67
		c4.22-0.01,7.57-3.74,7.57-8.67v-60.84h-7.28v-2.38h25.09V154.51z M176.33,225.04H151.5v-2.56h6.61l-6.72-59.07v0h-15.21
		l-5.85,52.13c-0.52,3.58,1.87,6.95,7.14,6.95v2.56h-18.62v-2.56c7.19-0.11,7.66-3.19,8.56-8.19l15.32-139.23h10.57l16.5,147.41
		h6.54V225.04z M242.23,148.9c0,8.37-6.73,14.6-18.56,14.6h-8.13v59.01h9.43v2.57h-27.9v-2.57h6.54V77.49h-6.54V75.1h24.73
		c14.62-0.01,20.43,7.5,20.43,15.85V148.9z"/>
</g>
</svg>
