<?xml version="1.0" encoding="utf-8"?>
<!-- Generator: Adobe Illustrator 28.1.0, SVG Export Plug-In . SVG Version: 6.00 Build 0)  -->
<svg version="1.1"
	 id="svg2" xmlns:cc="http://creativecommons.org/ns#" xmlns:dc="http://purl.org/dc/elements/1.1/" xmlns:rdf="http://www.w3.org/1999/02/22-rdf-syntax-ns#" xmlns:inkscape="http://www.inkscape.org/namespaces/inkscape" xmlns:svg="http://www.w3.org/2000/svg"
	 xmlns="http://www.w3.org/2000/svg" xmlns:xlink="http://www.w3.org/1999/xlink" x="0px" y="0px" viewBox="0 0 500 500"
	 style="enable-background:new 0 0 500 500;" xml:space="preserve">
<g>
	<path d="M336.61,138.92c-10.29-5.09-29.15,21.93-29.15,49.79C327.82,171.04,348.34,144.8,336.61,138.92z"/>
	<path d="M179.21,198.86c22.38-12.21,51.56-55.14,35.6-60.46C201.31,133.9,179.21,176.46,179.21,198.86z"/>
	<path d="M251.17,497.49c135.73-0.63,245.64-110.52,246.31-246.24C496.81,121.14,394.19,14.7,265.68,7.86
		c128.78,6.84,231.13,113.1,231.8,243.38c0-0.41,0.02-0.83,0.02-1.24C497.5,113.31,386.69,2.5,250,2.5S2.5,113.31,2.5,250
		S113.31,497.5,250,497.5c0.38,0,0.77-0.01,1.15-0.01c-28.67-0.15-56.18-5.23-81.72-14.43
		C194.99,492.26,222.51,497.33,251.17,497.49z M485.95,252.51c0,128.95-104.51,233.43-233.43,233.43
		c-128.95,0-233.46-104.48-233.46-233.43c0-128.98,104.51-233.46,233.46-233.46C381.44,19.05,485.95,124.23,485.95,252.51z
		 M7.5,252.52C7.5,117.22,117.18,7.5,252.48,7.5c0.01,0,0.01,0,0.02,0c0.01,0,0.01,0,0.02,0c3.85,0,7.68,0.1,11.49,0.28
		C260.2,7.6,256.36,7.5,252.5,7.5C117.45,7.51,7.5,117.43,7.5,252.52c0,103.07,63.66,191.26,153.79,227.43
		C71.26,443.84,7.5,355.86,7.5,252.52z"/>
	<path d="M139.84,342.17c0,10.85,6.8,17.35,16.96,16.89c34.87-1.57,48.62-48.14,54.04-88.84
		C180.29,285.17,139.84,313.02,139.84,342.17z"/>
	<path d="M69.24,158.18c-5.41,17.63-8.83,32.57-8.83,49.54c0,39.37,22.41,41.4,22.41,59.75c0,9.5-7.47,16.27-16.27,16.27
		c-15.61,0-27.82-17.63-27.82-47.51c0-27.16,7.13-49.05,8.1-52.23c0.03-0.18-0.1-0.67-0.7-0.87c-0.59-0.22-1.07,0-1.21,0.2
		c-0.17,0.28-10.93,30.83-10.96,69.19C33.93,331.24,74,410.62,158.18,436.4c17.63,5.45,32.57,8.84,49.53,8.84
		c39.35,0,40.74-23.07,59.07-23.07c9.49,0,16.96,7.47,16.96,16.96c0,14.95-17.66,27.16-47.51,27.16c-27.16,0-49.11-6.91-52.19-8.1
		c-0.31-0.14-0.84,0.21-1.01,0.66c-0.25,0.6,0.04,1.19,0.35,1.37c7.6,3.41,33.16,10.81,69.15,10.81
		c78.01,0,158.09-39.38,183.23-124.2c5.4-16.96,8.79-32.57,8.79-48.84c0-40.03-22.38-41.4-22.38-59.72
		c0-10.2,6.78-17.01,16.31-17.01c15.57,0,27.71,18.33,27.78,48.25c0.07,27.68-8.1,51.84-8.13,52.22c0,0.39,0.13,0.67,0.73,0.88
		c0.77,0.25,1.15-0.03,1.25-0.24c0.11-0.25,11.28-30.23,10.88-69.86c-0.73-77.39-39.34-157.47-124.2-183.26
		c-17.63-5.45-32.58-8.8-49.5-8.8c-39.38,0-40.74,22.38-59.07,22.38c-10.15,0-16.96-7.47-16.96-16.27
		c0-15.63,18.33-27.85,47.51-27.82c31.24,0,51.88,8.63,52.26,8.66c0.2,0.04,0.62-0.03,0.91-0.69c0.21-0.55,0-1.01-0.21-1.19
		c-1.22-0.97-32.95-11.83-69.22-11.55C174.46,34.58,95.04,74.02,69.24,158.18z M238.24,141.86c0,31.9-31.9,67.19-57.7,76.02
		c0.69,2.73,3.42,10.2,11.55,10.2c10.2,0,22.42-9.5,28.53-17c2.72-14.25,12.88-34.63,26.43-34.63c5.48,0,8.17,4.09,8.17,8.83
		c0,10.19-11.17,23.42-19.3,32.25c-2,9.92-2.62,17.59-2.62,20.56c23.73-14.25,36.86-22.28,54.52-35.16c-1.4-4.74-1.4-10.19-1.4-15.6
		c0-31.9,21.04-67.19,48.87-67.19c15.61,0,23.77,10.86,23.77,23.07c0,23.08-19.68,43.42-47.51,64.48
		c2.03,5.4,5.31,10.09,10.03,12.49c0,0,9.1-3.24,18.11-2.89c8.1,0.31,19.31,3.21,19.87,10.75c1.21,17.14-37.67,10.23-37.81,10.23
		c-14.94,4.05-43.46,21.01-43.46,64.47c0,29.19,18.32,56.31,46.84,56.31c21.68,0,40.18-17.45,40.84-42.58
		c0-16.27-7.61-32.04-23.88-32.04c-8.14,0-16.34,5.82-16.93,14.52c-0.88,13.19,10.82,15.32,10.82,24.19c0,6.06-4.74,8.79-9.53,8.79
		c-13.53,0-23.73-13.57-23.73-30.54c0-20.35,17.63-37.32,40.7-37.32c29.88,0,45.49,25.77,45.5,53.57
		c0,30.55-26.46,62.46-65.14,62.46c-46.86,0-70.59-39.38-70.59-74.67c0-49.53,33.93-70.58,48.17-78.05
		c-2.69-2.03-4.74-4.74-6.77-8.13c-16.3,11.56-31.1,21.74-62.28,39.41c-1.39,21.75-3.56,45.45-8.97,61.72
		c-11.55,34.63-35.33,59.73-66.53,59.73c-26.46,0-39.34-18.99-39.34-39.38c0-14.91,8.83-33.9,24.4-48.17
		c19.68-17.64,41.4-28.49,71.28-44.13c0.7-4.05,1.36-8.14,2.02-12.88c-7.47,6.77-18.32,9.49-27.16,9.49
		c-14.24,0-25.76-12.22-28.48-25.13c-18.99-1.33-33.23-14.94-33.93-36.66c0-15.61,6.11-29.18,16.27-29.18c4.09,0,5.45,3.38,5.45,6.1
		c0,2.73-3.39,11.52-3.39,20.36c0,8.83,4.05,20.35,14.94,20.35c0-35.25,25.76-80.74,56.3-80.74
		C235.52,120.14,238.24,135.09,238.24,141.86z"/>
	<path d="M251.15,497.49c0.44,0,0.89,0.01,1.33,0.01c0.01,0,0.01,0,0.02,0c-0.44,0-0.88-0.01-1.33-0.01
		C251.17,497.49,251.16,497.49,251.15,497.49z"/>
	<path d="M497.48,251.24c0,0.43,0.02,0.85,0.02,1.28C497.5,252.09,497.49,251.67,497.48,251.24
		C497.48,251.24,497.48,251.24,497.48,251.24z"/>
	<path d="M252.5,497.5c0.01,0,0.01,0,0.02,0c135.02,0,244.98-109.26,244.98-244.98C497.5,387.81,387.83,497.49,252.5,497.5z"/>
</g>
</svg>
