<?xml version="1.0" encoding="utf-8"?>
<!-- Generator: Adobe Illustrator 28.1.0, SVG Export Plug-In . SVG Version: 6.00 Build 0)  -->
<svg version="1.1"
	 id="svg20633" xmlns:svg="http://www.w3.org/2000/svg" xmlns:sodipodi="http://sodipodi.sourceforge.net/DTD/sodipodi-0.dtd" xmlns:inkscape="http://www.inkscape.org/namespaces/inkscape" xmlns:cc="http://creativecommons.org/ns#" xmlns:dc="http://purl.org/dc/elements/1.1/" xmlns:rdf="http://www.w3.org/1999/02/22-rdf-syntax-ns#"
	 xmlns="http://www.w3.org/2000/svg" xmlns:xlink="http://www.w3.org/1999/xlink" x="0px" y="0px" viewBox="0 0 360 180"
	 style="enable-background:new 0 0 360 180;" xml:space="preserve">
<g>
	
		<sodipodi:namedview  bordercolor="#666666" borderopacity="1.0" fit-margin-bottom="0.5" fit-margin-left="0.5" fit-margin-right="0.5" fit-margin-top="0.5" id="base" inkscape:current-layer="layer1" inkscape:cx="209.108" inkscape:cy="138.89051" inkscape:document-rotation="0" inkscape:document-units="px" inkscape:pageopacity="0" inkscape:pageshadow="2" inkscape:window-height="872" inkscape:window-maximized="0" inkscape:window-width="1440" inkscape:window-x="0" inkscape:window-y="28" inkscape:zoom="0.61249759" lock-margins="true" pagecolor="#00ffff" showgrid="false" units="px">
		</sodipodi:namedview>
	<path id="path39848" d="M36,54.3v-0.2C36,39,47.8,26.6,63.9,26.6c9.6,0,15.3,2.6,20.9,7.3l-7.4,8.9c-4.1-3.4-7.8-5.4-13.9-5.4
		c-8.5,0-15.3,7.5-15.3,16.6v0.2c0,9.7,6.7,16.9,16.1,16.9c4.2,0,8.1-1.1,11-3.2v-7.6H63.5V50.1h23.1v23.1c-5.5,4.6-13,8.4-22.7,8.4
		C47.4,81.6,36,70,36,54.3"/>
	<path id="path39850" d="M94.7,60.6v-0.2c0-11.6,8.3-21.2,20.1-21.2c13.6,0,19.8,10.6,19.8,22.1c0,0.9-0.1,2-0.2,3h-28.3
		c1.1,5.3,4.8,8,9.9,8c3.9,0,6.7-1.2,9.9-4.2l6.6,5.9c-3.8,4.7-9.3,7.6-16.6,7.6C103.8,81.6,94.7,73,94.7,60.6 M123.4,57.1
		c-0.7-5.2-3.7-8.7-8.6-8.7c-4.8,0-7.9,3.4-8.8,8.7H123.4"/>
	<path id="path39852" d="M143.2,40h11.5v5.8c2.7-3.4,6.1-6.5,11.9-6.5c8.7,0,13.8,5.8,13.8,15.1v26.3H169V58c0-5.5-2.6-8.3-7-8.3
		s-7.2,2.8-7.2,8.3v22.7h-11.5V40"/>
	<path id="path39854" d="M188.6,60.6v-0.2c0-11.6,8.3-21.2,20.1-21.2c13.6,0,19.8,10.6,19.8,22.1c0,0.9-0.1,2-0.2,3h-28.3
		c1.1,5.3,4.8,8,10,8c3.9,0,6.7-1.2,9.9-4.2l6.6,5.9c-3.8,4.7-9.3,7.6-16.6,7.6C197.6,81.6,188.6,73,188.6,60.6 M217.3,57.1
		c-0.7-5.2-3.7-8.7-8.6-8.7c-4.8,0-7.9,3.4-8.8,8.7H217.3"/>
	<path id="path39856" d="M237.1,40h11.5v8.2c2.4-5.6,6.1-9.3,13-9v12.1H261c-7.7,0-12.4,4.6-12.4,14.3v15h-11.5V40"/>
	<path id="path39858" d="M264.5,69v-0.1c0-8.9,6.7-13,16.4-13c4.1,0,7.1,0.7,10,1.7v-0.7c0-4.8-3-7.4-8.7-7.4
		c-4.4,0-7.5,0.8-11.2,2.2l-2.9-8.8c4.5-2,8.9-3.3,15.8-3.3c6.3,0,10.9,1.7,13.8,4.6c3,3,4.4,7.5,4.4,13v23.6h-11.2v-4.4
		c-2.8,3.1-6.7,5.2-12.3,5.2C270.8,81.5,264.5,77.1,264.5,69 M291,66.3v-2.1c-2-0.9-4.6-1.5-7.4-1.5c-4.9,0-8,2-8,5.6v0.2
		c0,3.1,2.6,4.9,6.3,4.9C287.4,73.5,291,70.5,291,66.3"/>
	<path id="path39860" d="M312.5,80.7H324V25.3h-11.5V80.7z"/>
	<path id="path39862" d="M38.4,100.8h12.6l14,22.5l14-22.5h12.6V154H79.9v-34.7L65,142h-0.3l-14.8-22.5V154H38.4L38.4,100.8"/>
	<path id="path39864" d="M103.3,98.6h12.1v10.3h-12.1V98.6z M103.6,113.3h11.5V154h-11.5V113.3z"/>
	<path id="path39866" d="M126.5,154h11.5V98.6h-11.5V154z"/>
	<path id="path39868" d="M149.5,154H161V98.6h-11.5V154z"/>
	<path id="path39870" d="M168.7,148.6l4.9-7.6c4.4,3.2,9,4.9,12.8,4.9c3.3,0,4.9-1.2,4.9-3v-0.2c0-2.5-3.9-3.3-8.4-4.7
		c-5.7-1.7-12.1-4.3-12.1-12.2v-0.2c0-8.3,6.7-12.9,14.9-12.9c5.2,0,10.8,1.8,15.2,4.7l-4.4,8c-4-2.4-8.1-3.8-11-3.8
		c-2.8,0-4.2,1.2-4.2,2.8v0.2c0,2.3,3.9,3.3,8.3,4.9c5.7,1.9,12.3,4.6,12.3,12.1v0.2c0,9-6.8,13.1-15.6,13.1
		C180.4,154.7,174.1,152.8,168.7,148.6"/>
</g>
</svg>
