<?xml version="1.0" encoding="utf-8"?>
<!-- Generator: Adobe Illustrator 28.1.0, SVG Export Plug-In . SVG Version: 6.00 Build 0)  -->
<svg version="1.1" id="Layer_1" xmlns="http://www.w3.org/2000/svg" xmlns:xlink="http://www.w3.org/1999/xlink" x="0px" y="0px"
	 viewBox="0 0 72 72" style="enable-background:new 0 0 72 72;" xml:space="preserve">
<g>
	<path d="M63.7,33.4L38.6,8.3c-1.4-1.4-3.8-1.4-5.2,0l-5.2,5.2l6.6,6.6c1.5-0.5,3.3-0.2,4.5,1.1c1.2,1.2,1.6,3,1,4.6l6.4,6.4
		c1.5-0.5,3.3-0.2,4.6,1c1.7,1.7,1.7,4.5,0,6.2c-1.7,1.7-4.5,1.7-6.2,0c-1.3-1.3-1.6-3.2-1-4.8l-6-6v15.7c0.4,0.2,0.8,0.5,1.2,0.8
		c1.7,1.7,1.7,4.5,0,6.2c-1.7,1.7-4.5,1.7-6.2,0c-1.7-1.7-1.7-4.5,0-6.2c0.4-0.4,0.9-0.7,1.4-1V28.4c-0.5-0.2-1-0.5-1.4-1
		c-1.3-1.3-1.6-3.2-1-4.8l-6.5-6.5L8.3,33.3c-1.4,1.4-1.4,3.8,0,5.2l25.1,25.1c1.4,1.4,3.8,1.4,5.2,0l25-25
		C65.2,37.2,65.2,34.9,63.7,33.4"/>
</g>
</svg>
