<?xml version="1.0" encoding="utf-8"?>
<!-- Generator: Adobe Illustrator 28.1.0, SVG Export Plug-In . SVG Version: 6.00 Build 0)  -->
<svg version="1.1" id="Layer_1" xmlns="http://www.w3.org/2000/svg" xmlns:xlink="http://www.w3.org/1999/xlink" x="0px" y="0px"
	 viewBox="0 0 72 72" style="enable-background:new 0 0 72 72;" xml:space="preserve">
<path d="M63.7,30.8H36.6v11.2h15.5c-0.7,3.6-2.7,6.6-5.8,8.7l0,0c-2.6,1.7-5.8,2.8-9.7,2.8c-7.5,0-13.9-5.1-16.1-11.9h0l0,0
	c-0.6-1.7-0.9-3.6-0.9-5.5s0.3-3.7,0.9-5.5c2.3-6.8,8.6-11.9,16.1-11.9c4.2,0,8,1.5,11,4.3l8.2-8.2c-5-4.7-11.5-7.5-19.3-7.5
	c-11.3,0-21,6.5-25.7,15.9C8.9,27,7.8,31.3,7.8,36s1.1,9,3.1,12.9v0c4.7,9.4,14.5,15.9,25.7,15.9c7.8,0,14.3-2.6,19.1-7
	c5.4-5,8.6-12.4,8.6-21.2C64.2,34.6,64,32.6,63.7,30.8z"/>
</svg>
