<?xml version="1.0" encoding="utf-8"?>
<!-- Generator: Adobe Illustrator 28.1.0, SVG Export Plug-In . SVG Version: 6.00 Build 0)  -->
<svg version="1.1"
	 id="svg2" xmlns:svg="http://www.w3.org/2000/svg" xmlns:cc="http://creativecommons.org/ns#" xmlns:dc="http://purl.org/dc/elements/1.1/" xmlns:rdf="http://www.w3.org/1999/02/22-rdf-syntax-ns#"
	 xmlns="http://www.w3.org/2000/svg" xmlns:xlink="http://www.w3.org/1999/xlink" x="0px" y="0px" viewBox="0 0 72 72"
	 style="enable-background:new 0 0 72 72;" xml:space="preserve">
<style type="text/css">
	.st0{stroke:#000000;stroke-width:2;}
</style>
<path class="st0" d="M44.9,16.1c-3.2,0-6.2,0.8-8.9,2.1c-2.7-1.4-5.7-2.1-8.9-2.1c-11,0-19.9,8.9-19.9,19.9s8.9,19.9,19.9,19.9
	c3.2,0,6.2-0.8,8.9-2.1c2.7,1.4,5.7,2.1,8.9,2.1c11,0,19.9-8.9,19.9-19.9S55.9,16.1,44.9,16.1z M44.9,52.1c-1.8,0-3.5-0.3-5.1-0.8
	c3.9-3.3,6.6-8.1,7.1-13.5h-1.3h-2.5h-5.3v3.8h4.4c-1.2,3.2-3.4,5.9-6.2,7.8c-2.8-1.9-5-4.6-6.2-7.8h4.4v-3.8h-5.3h-2.5h-1.3
	c0.5,5.4,3.1,10.2,7.1,13.5c-1.6,0.5-3.3,0.8-5.1,0.8C18.2,52.1,11,44.9,11,36s7.2-16.1,16.1-16.1c1.8,0,3.5,0.3,5.1,0.8
	c-3.1,2.6-5.4,6.1-6.5,10.1h4c1.1-3.4,3.4-6.3,6.3-8.3c2.9,2,5.2,4.9,6.3,8.3h4c-1.1-4-3.4-7.5-6.5-10.1c1.6-0.5,3.3-0.8,5.1-0.8
	C53.8,19.9,61,27.1,61,36S53.8,52.1,44.9,52.1z"/>
</svg>
