<?xml version="1.0" encoding="utf-8"?>
<!-- Generator: Adobe Illustrator 28.1.0, SVG Export Plug-In . SVG Version: 6.00 Build 0)  -->
<svg version="1.1" id="Layer_1" xmlns="http://www.w3.org/2000/svg" xmlns:xlink="http://www.w3.org/1999/xlink" x="0px" y="0px"
	 viewBox="0 0 72 72" style="enable-background:new 0 0 72 72;" xml:space="preserve">
<g>
	<path d="M9.8,47H7.7v-0.6h1.6C9.3,46.6,9.6,46.9,9.8,47z M63.1,47c0-0.2,0.2-0.4,0.5-0.6h1.1V47H63.1z M28,47.4
		c-0.9,0.4-2.1,0.4-3.1,0H13.9c-1.1,0.4-2.3,0.4-3.4,0H7.7v1.1h57.1v-1.1H28z M14.5,47c0.2-0.1,0.6-0.5,0.6-0.6h8.6
		c0.1,0.2,0.4,0.4,0.6,0.6H14.5L14.5,47z M26.5,46.7c1.5,0,2.7-1.2,2.7-2.7c0-1.5-1.2-2.7-2.7-2.7c-1.5,0-2.7,1.2-2.7,2.7
		C23.8,45.5,25,46.7,26.5,46.7v0.6c-1.8,0-3.3-1.5-3.3-3.2c0-1.8,1.5-3.3,3.3-3.3c1.8,0,3.2,1.5,3.2,3.3c0,1.8-1.5,3.2-3.2,3.2V46.7
		z M15.9,43.6c0-2-1.7-3.7-3.7-3.7c-2.1,0-3.7,1.7-3.7,3.7c0,2.1,1.6,3.7,3.7,3.7C14.2,47.3,15.9,45.6,15.9,43.6h-0.6
		c0,1.7-1.4,3.1-3.1,3.1c-1.7,0-3.1-1.4-3.1-3.1c0,0,0,0,0,0c0-1.7,1.4-3.1,3.1-3.1c1.7,0,3.1,1.4,3.1,3.1c0,0,0,0,0,0H15.9z"/>
	<path d="M28.3,45.9l-1.1-1.3v-0.1c0.1-0.1,0.1-0.1,0.1-0.2l1.7,0.4c0.1,0,0.2,0.1,0.2,0.1c0-0.1,0.1-0.3,0.1-0.4
		c-0.1,0.1-0.2,0.1-0.3,0.1l-1.6-0.4c-0.1,0-0.1-0.1-0.1-0.1v-0.3l1.6-0.6c0,0,0.2,0,0.2,0.1c0-0.1-0.1-0.3-0.1-0.4
		c0,0.1-0.1,0.2-0.2,0.2l0.1-0.1l-1.7,0.6c0,0.1,0,0-0.1,0c0-0.1-0.1-0.1-0.1-0.1c0-0.1-0.1-0.1,0-0.1L28,42
		c0.1-0.1,0.2-0.1,0.2-0.1c-0.1,0-0.3-0.2-0.4-0.2c0.1,0,0.1,0.2,0,0.2l-0.9,1.4h-0.1c0,0-0.1-0.1-0.2-0.1c0,0-0.1,0-0.1-0.1
		l-0.1-1.6c0-0.1,0-0.2,0.1-0.2h-0.4c0.1,0,0.1,0.2,0.1,0.2l0.1,1.6c0,0.1-0.1,0.1-0.1,0.1s-0.1,0.1-0.2,0.1c0,0-0.1,0-0.1-0.1
		L25,42C25,41.9,25,41.8,25,41.7c-0.1,0.1-0.3,0.2-0.3,0.3c0.1,0,0.2,0.1,0.2,0.1l1.1,1.3v0.1c-0.1,0-0.1,0.1-0.1,0.2
		c0,0-0.1,0.1-0.1,0.1l-1.6-0.4C24,43.2,24,43.1,24,43.1c0,0.1-0.1,0.3-0.1,0.4c0,0,0.2-0.1,0.2,0l1.6,0.4c0.1,0,0.1,0.1,0.1,0.1
		v0.3l-1.6,0.7c-0.1,0-0.2,0.1-0.2,0c0,0.1,0.1,0.3,0.1,0.4c0-0.1,0.1-0.2,0.2-0.2l1.5-0.7c0.1,0,0.1,0.1,0.1,0.1
		c0.1,0,0.1,0.1,0.1,0.1c0.1,0,0.1,0.1,0.1,0.1L25,46c-0.1,0.1-0.1,0.1-0.2,0.1c0.1,0.1,0.3,0.2,0.3,0.2c-0.1,0,0-0.2,0-0.2l0.9-1.3
		c0-0.1,0.1-0.1,0.1-0.1c0.1,0.1,0.1,0.1,0.2,0.1s0.1,0,0.1,0.1l0.1,1.7c0,0.1-0.1,0.2-0.1,0.2h0.4c-0.1,0-0.1-0.1-0.1-0.2l-0.1-1.6
		c0-0.1,0.1-0.1,0.1-0.1c0.1,0,0.2-0.1,0.2-0.1c0,0,0.1,0,0.1,0.1l1.1,1.2c0,0.1,0.1,0.2,0.1,0.2l0.3-0.3
		C28.4,46,28.3,45.9,28.3,45.9L28.3,45.9z M12.1,41.5c1.6,0,3.1,0.2,4,0.4c0.1,0,0.1,0.1,0,0.2c-0.9,0.2-2.5,0.4-4,0.4
		c-1.5,0.1-3,0-4-0.2c-0.1,0-0.1-0.1,0-0.1C9,41.8,10.5,41.5,12.1,41.5v-0.3c-1.7,0.1-3.4,0.4-4.7,0.9c-0.2,0.1-0.2,0.2,0,0.2
		c1.6,0.4,3.2,0.4,4.8,0.4c1.6-0.1,3.2-0.2,4.7-0.6c0.2-0.1,0.2-0.2,0.1-0.2c-1.6-0.5-3.2-0.7-4.9-0.7V41.5z"/>
	<path d="M28.7,40.5c-0.4,0.1-1.1,0.3-1.4,0.3c-0.3,0-1.7-0.1-2.6,0c-1.3,0.1-1.4,0.2-1.5,0.1c-0.3-0.4-0.5-1.1-0.9-1.5
		c-2.6,0.4-5.2,0.1-7.5-0.8v-0.3c0.2,0.1,0.3,0.1,0.4,0.1c-0.4-0.6-1.1-0.7-1.5-1.3c-0.2-0.2-0.3-0.5-0.5-0.7
		c0.1,0.6-0.4,1.1-0.5,1.6c0.3,0.1,0.8,0.1,0.9,0.1c0.2-0.1,0.5,0,0.6,0.2c0.2,0.1,0.3,0.2,0.5,0.2v0.3c-0.3-0.1-0.3-0.1-0.6-0.2
		c-0.3,0.1-0.5,0.1-0.6-0.1c-0.1-0.1-0.6-0.1-0.8-0.1c-0.7,0-1.5,0.3-1.9,0.9c-0.2,0.3-0.1,0.7,0.1,1c0.1,0.2,0.6,0.9,0.9,1.1
		l-0.4,0.1c-0.7-0.6-1.2-1.2-1.1-1.9c0.3-1.6,1.8-1.3,2.2-2c0.3-0.6,0.4-2.4,0.1-2.9c-0.9-0.4-2.1-0.9-2.3-2
		c-0.1-0.3,0.1-0.6,0.3-0.7c0.5-0.1,0.8,0.2,1.2,0.3c0.2-0.1-0.2-0.5,0.2-0.5c0.5,0,0.8,1,1,1.1l-0.1,0.4c-0.3-0.1-1.6-0.8-1.7-0.8
		c-0.2-0.1-0.5-0.3-0.7-0.1c-0.2,0.3,0.1,0.6,0.2,0.9c2.6,2.7,7-0.2,9.8,1.8c0.1-0.2,0-0.2-0.1-0.3c-2-1.8-5.1-0.9-7.6-1.5l0.1-0.4
		c3.1,0.8,7.3-0.5,8.9,3.1c1.1,1.5,2.2,3.9,4.5,4c1.8,0.1,3.1-0.7,4-2c1.2-2.2,2-4.8,4.1-6.3c0.2-0.1,0.3,0,0.2,0.1
		c-1.1,1.1-2,2.5-2.5,3.6c0.8,3.2,2.7,2.5,3.1,2.5c-0.1-1.2,0-4.6,2.5-5.5c1.5-1.1,3.5-1.4,5.2-0.6c-2,1.8-3.1,4.5-3.5,6.3l-2.2,0.6
		c0.2-0.3,0.2-0.9,0.1-1.5c-0.2,0.1-0.4,0.3-0.9,0.6c-0.2,0.1-0.1-0.3-0.1-0.3c0-0.1,0.6-0.3,1-0.6c-0.2-1.3-0.3-3,0.8-4
		c-2.2,0.7-1.6,5.3-1.3,5.9c-0.6,0.3-1.5,0.3-1.5,0.3L35.3,38c-0.9,0.3-2.6,0.1-3.3-2.4C31.2,37.2,30.5,39.8,28.7,40.5L28.7,40.5z
		 M62.7,33.6c-0.1-0.1-0.2-0.2-0.3-0.2c-0.1-0.1,0-0.1,0.1-0.1c0.1-0.1,0.2,0,0.2,0.1C62.8,33.5,62.8,33.6,62.7,33.6L62.7,33.6z"/>
	<path d="M12.7,44.4l1.2,1.3C14,45.9,14,46,14,46.1c0.2-0.1,0.4-0.3,0.5-0.4c-0.1,0.1-0.3,0.1-0.3-0.1l-1.2-1.3v-0.1l0.1-0.1
		C13,44,13,44,13,44l1.7,0.6c0.2,0.1,0.2,0.2,0.2,0.3c0.1-0.1,0.2-0.4,0.2-0.6c-0.1,0.1-0.2,0.1-0.3,0.1l-1.7-0.6
		c-0.1,0-0.1,0-0.1-0.1v-0.1c0-0.1,0.1-0.1,0.1-0.1l1.8-0.3c0.2-0.1,0.3,0.1,0.3,0.1c0-0.1-0.1-0.5-0.1-0.6c0,0.1-0.1,0.2-0.3,0.3
		l-1.7,0.3c-0.1,0-0.1-0.1-0.1-0.1C13,43.2,13,43.2,13,43.1v-0.1l1.4-1.2c0.2-0.1,0.3-0.1,0.4-0.1c-0.1-0.1-0.3-0.4-0.4-0.5
		c0.1,0.1,0,0.2-0.1,0.4l-1.3,1.1c-0.1,0.1-0.1,0.1-0.1,0c-0.1,0-0.1,0-0.2-0.1c0,0-0.1-0.1,0-0.1l0.6-1.7c0-0.1,0.2-0.2,0.3-0.2
		c-0.1-0.1-0.5-0.2-0.6-0.2c0.1,0,0.2,0.2,0.1,0.4l-0.6,1.7c0,0.1-0.1,0.1-0.1,0.1h-0.2l-0.1-0.1l-0.3-1.8c0-0.2,0.1-0.3,0.1-0.3
		c-0.1,0-0.4,0.1-0.6,0.1c0.1,0,0.2,0.1,0.3,0.3l0.3,1.7c0,0.1,0,0.1-0.1,0.1c-0.1,0-0.1,0.1-0.2,0.1h-0.1l-1.2-1.3
		c-0.1-0.2-0.1-0.3-0.1-0.3c-0.1,0.1-0.4,0.3-0.4,0.4c0.1,0,0.2,0,0.3,0.1l1.2,1.3V43l-0.1,0.1h-0.1l-1.7-0.6
		c-0.2-0.1-0.3-0.2-0.2-0.3c-0.1,0.2-0.2,0.5-0.2,0.6c0.1-0.1,0.2-0.1,0.4-0.1l1.7,0.6v0.3L9.4,44c-0.2,0-0.3-0.1-0.3-0.2
		c0,0.2,0.1,0.6,0.1,0.7c0-0.1,0.1-0.2,0.3-0.3l1.7-0.3c0,0,0.1,0,0.1,0.1s0,0.1,0.1,0.1v0.1L10,45.2c-0.2,0.2-0.3,0.1-0.3,0.1
		c0,0.2,0.3,0.4,0.3,0.5c0-0.1,0-0.2,0.1-0.3l1.5-1.1c0-0.1,0-0.1,0.1,0l0.1,0.1c0.1,0,0.1,0,0.1,0.1l-0.6,1.7
		c-0.1,0.2-0.2,0.3-0.3,0.2c0.1,0.1,0.4,0.2,0.6,0.2c-0.1,0-0.2-0.2-0.1-0.3l0.6-1.7c0,0,0-0.1,0.1-0.1c0.1,0.1,0.1,0.1,0.2,0.1
		c0,0,0.1,0,0.1,0.1l0.3,1.7c0,0.2-0.1,0.3-0.2,0.4c0.2,0,0.5-0.1,0.6-0.2c-0.1,0.1-0.2-0.1-0.2-0.2l-0.3-1.8v-0.1
		c0.1,0,0.1-0.1,0.2-0.1C12.7,44.4,12.7,44.4,12.7,44.4L12.7,44.4z M62,33.9c-0.1-0.1,0-0.1,0-0.2c0.1-0.2,0.1-0.2,0.1-0.3
		c-0.3-0.2-0.3-0.7-0.2-0.8c0.2-0.2,0.7,0.1,0.7,0.1c0.5-0.4,0.7-0.7,0.9-0.8c0.4,0,1.2,0.7,1.2,1.2c-0.1,0.2-0.4,0.4-0.8,1
		c0.2,0.4,0.2,0.7-0.1,0.9c-0.1,0-0.2,0-0.3-0.1c0.1,0.6,0.7,0.9,0.9,1.3c0,0.9,0.9,2-0.1,2.7c-0.2,0.1-0.4,0.3-0.6,0.5
		c0.2,0.9,0.5,1.8,0.7,2.8l-1.1,0.1c-0.1,0.3-0.4,0.9-0.3,1.3c0,0-0.1-0.1,0.1,0c0.2,0.2,0.2,2.1,0.2,2.2c0,0.2,0.2,0.2,0.1,0.6
		c-0.1,0.1-0.6,0.3-0.6,0.5c-0.3,0.3-1.1,0.3-1.1,0.2c0-0.3,0.6-0.6,0.7-0.9c0.1-1.3,0-2.7-0.7-3.7c-0.3-0.2-0.5,0.3-0.7,0.5
		c0.3,0.8,0.8,1.7,0.7,2.7c0,0.3,0.3,0.7,0.2,1.1L60.9,47h-3.2c-0.1-0.2-0.3-0.3-0.3-0.6h2.9c0-0.1,0.3-0.1,0.6-0.5
		c0-1.3-1.4-3.3-1.2-4c0.3-0.8,0.7-1.5,1.1-2.6l0.2-0.1c-0.5,1.7-1.2,2.5-1.1,3c0.1,0.3,0.2,0.5,0.3,0.8l0.1,0.3
		c0.1,0.2,0.2,0.6,0.3,0.7c0.2,0,0.3-0.1,0.4-0.2c0-0.2-0.2-0.5-0.3-0.7l-0.4,0.2l-0.1-0.3c0.3,0,0.6-0.2,0.3-0.4
		c0.8-0.4-0.2-0.3,0.1-0.4c0.4-0.2,0.7-1.1,0.7-1.6c0-0.1,0.1-0.2,0.2-0.2c0.3,0.9,0.3,2.1,0.9,2.9v0.3c-0.1,0.2,0,0.5,0.1,0.7
		c0.5,0.1,0.4-0.1,0.3-0.7c-0.1,0-0.3-0.1-0.4,0v-0.3c0.1-0.1,0.3,0,0.3-0.1c-0.2-0.3-0.2-0.5-0.2-0.8c0-0.2,0.1-0.5,0.2,0.2
		c0.2,0.1,0.4-1.3,0.5-1.7c-1.1,0.2,0-1-0.8-1.1l0.4-0.7c0-0.2-0.2-0.4-0.4-0.3l-0.2-0.3c-0.2-0.1-0.3-0.3-0.6-0.5
		c-0.2,0.2-0.4,0.5-0.5,0.7c-0.1,0.1,0.1,0.1,0.2,0.1c0.2-0.2,0.3,0.2,0.6,0.1c0.1-0.1,0.4-0.2,0.3-0.4l0.2,0.3
		c-0.2,0.1-0.2,0.5-0.2,0.8c-0.4,0.7-0.2-0.4-0.7-0.4c-0.3,0.2-0.4-0.3-0.6-0.2l-0.2,0.1c0-0.4,0.1-0.8,0-1.3
		c0.3-1.9,0.7-1.8,0.8-2.4c0-0.2,0.8-0.7,0.8-0.9c0.1,0,0.2,0.2,0.2,0.2c-0.1,0.3-0.6,0.3-0.6,0.9c0.3-0.6,1.3-0.6,1.3-1.3
		c-0.2-0.4,0.2-0.2,0.2-0.6c-0.1-0.1-0.4-0.4-0.5-0.6C63,33.4,63.2,33,62.4,33c-0.1,0.1-0.1,0.4-0.2,0.6c-0.1,0.1-0.2,0.2-0.1,0.2
		c0,0.1,0.1,0.1,0.1,0.3c-0.1,0.2,0,0.3,0.1,0.4c0.4,0.2,0.8,0,0.3,0.3c0,0.1,0,0.1-0.1,0.2c0-0.1-0.2-0.3-0.2-0.3
		c-0.1,0-0.3-0.2-0.3-0.4C62.1,34.1,62.1,34,62,33.9L62,33.9z M46.9,31.7c0.1,0.4-0.2,0.7-0.2,1.1c0.4,0.9,0,1.7,0.1,2.6
		c-0.4-0.3-0.6-1-0.7-1.8c-0.1-0.7,0.1-0.9,0.1-1.6L46.9,31.7z M45.8,32c-0.1,1.2-0.2,1.7,0.6,3.6c-2.1,0.9-3.9,1.5-6.4,2.2
		c0.3-1.8,2-5.2,3.5-6.1C44.7,32,45.8,32,45.8,32L45.8,32z"/>
	<path d="M40.3,45.1c-0.6,0.2-0.6,0.5-0.2,0.8c0.2,0.2,0.4,0.4,0.4,0.5h-3.6c0,0.2,0.2,0.3,0.3,0.6H57c0.1-0.3-0.2-0.6-0.3-0.9
		c-1.4-0.5-1.4-1.8-1.5-3.2c0-0.1-0.1-0.2-0.1-0.5c-0.2-0.2-1.1-2.5-0.7-4.4l0.3-0.6c0.3-0.4-0.1-0.6,0.2-1.1l4.1-0.8
		c0.1-0.1,0.1-0.2-0.1-0.3c0-0.1,0.1,0,0,0L55,36c0.2-1-0.7-1.3-0.3-2.2c0.6,0.6,2.1,1.7,2.8,1.8l0.4-0.1c-1-0.4-2.8-1.5-3.8-2.9
		c-0.1,0-0.2-0.1-0.3-0.2c0,0.1,0.3,0.4,0.2,0.5c0,0-0.7,0.4-1.9-0.1c-0.4,0.8-4.7,2.7-4.7,2.7c0.2,1.2,0.7,2,1.3,2.7
		c0.1,0.1-0.2-0.1,0,0c0.9,0.7,2,1.1,3.1,1.3c0.2,0.7,1.1,2.8,1.1,3.2c0.1,0.3,0.3,0.3,0.3,0.3c0.1,0.1,0.5,0.8,0.5,1.1l0.1,1.2
		c0.1,0.3,0.4,0.1,0.4,0.3l-0.2,0.7H55c-0.4-0.4-0.2-1.1-0.7-1.3c-0.1-0.7-0.1-1.2-0.4-1.5c-0.2-0.7-0.9-2.5-1.4-4.1l0.3-0.4
		c-1.2,0.3-2.2-0.1-3.3-0.7c-0.8-0.4-0.3-0.1-0.1-0.2c1.3,0.6,2,0.4,3,0.3c0.1,0.2,0.3,0.3,0.3,0.6l-0.3,0.4
		c0.3-0.3,0.5-0.1,0.7,0.7c0.2,0.7,0.4,1.2,0.6,1.7c0.2,0.6,0.4,1.3,0.6,1.7c0,0,0.2,0,0.3,0.2c0.4,1.2,0.5,1.4,0.4,2
		c0.1,0.4,0.7,0.1,0.7,0.6H41c0.2-0.9-0.3-1.7,0-2.5c-0.6-0.9-2-1.6-1.7-2.8c0.7-0.9,2.8-1.9,2.3-3c2-1,3,0.7,4.9,0.5
		c0.7,0,1.4-0.1,2-0.3c-0.8-0.6-1.5-1.6-1.8-2.4c-3.9,1.6-7.7,2.9-11.9,3.7l-0.3-0.1c-0.4,0.1-6.8,1.5-6.5,1.8
		c-2.4,0.2-5.2,1.2-5.8,1.5c-0.3,0.2-0.3,0.3,0,0.4c2.6,0.7,4.7,0.2,8.7-1.3l-0.3-0.2c-0.2,0.2-3.5,1.3-4.7,1.5
		c-1.3,0.2-2.5,0.1-3.1-0.1c-0.2-0.1-0.2-0.1-0.1-0.1c2.5-1,7.4-1.9,8-1.1c0.4,0.1,0.7,0.3,0.9,0.6c0.2,0.3,0.7,0.2,1,0.1
		c0.4-0.1,0.5-0.5,0.5-0.9l-0.5-0.1c-0.2,0-1.1,0.1-1.2,0.2c-0.3-0.3-0.7-0.6-1.1-0.7c0.9-0.4,2.3-0.7,3.1-0.8
		c-0.7,0.5-0.4,1.1-0.8,1.2l0.5,0.1c0-0.2,0-0.4,0.1-0.5c0.5-1.2,2.6-1.4,3.7-1.7c0,0-0.6,0.7-0.9,0.9c-0.1,1.7-0.7,3.2-0.8,5
		c0.5,0,0.5,0.6,0.6,0.9c-0.2,0.3-0.4,0-0.6,0.1c-0.8-0.4,0.2-1.1-0.4-1.6c0.3-1.4,0.8-2.8,0.8-4.2c-0.2,0-0.3,0.2-0.4,0.4
		c-0.2,1.4-0.6,2.7-0.9,4c0.1,0.1,0.4,0.2,0.4,0.4c-0.4,0.3,0,0.8-0.2,1.1h-5.1L28.8,47h7.7l0.1-0.3c-1.1-1.2-0.7-3-0.2-4.4l1.3-1.8
		c1.1-0.4,1.8-1.8,3-2.2c0,0.6-0.7,0.8-1.1,1.2c-0.4,0.9-1.7,1.1-1.9,2.1c0.5,0.6,1.2,0.9,1.8,1.5c0.6,0.4,0.4,1.2,0.9,1.6
		C40.5,44.9,40.4,45.1,40.3,45.1L40.3,45.1z"/>
	<path d="M48.8,25c-0.2,0.3-0.7,0.6-0.4,1.2c-0.6,0.3-0.4,0.8-0.2,1.1c-0.3,0.3-0.4,0.8-0.1,1.2c-0.4,0.5,0.1,0.9,0.3,1.1
		c-0.2,0.5,0,0.9,0,0.9c-0.1,0.3-0.7,0.9-0.9,1.1c-0.3,0.8-0.2,2.6-0.2,3.7c1.6-0.8,3.1-1.5,4.4-2.6c-1.1-0.7-1.9-2.5-3.1-2.3
		c-0.1-1.2-0.6-3.4,1.1-5.6c0.2-0.1,0.6-0.2,0.7-0.3c-0.7-0.1-1.7,0.3-2.3-0.1C48.2,24.4,48.5,24.9,48.8,25z"/>
	<path d="M52.6,24.4c0,0.1,0.2,0.2,0.2,0.2s0.2-0.1,0.2-0.1c0-0.1,0.1-0.2,0-0.3c-0.1,0-0.2-0.1-0.3-0.1
		C52.7,24.1,52.6,24.4,52.6,24.4l-0.1,0.1L51.7,24l0.1-0.1c0,0,0.3-0.3,0.5-0.3c0.2-0.1,1.1,0,1.3,0.2c0.2,0.2,0.3,0.3,0.5,0.7
		c0.6,0.4,1.6,0.4,2.2,0.9c-0.1,0.2,0.2,0.4-0.1,0.6c-0.2,0.1-0.6-0.1-0.6,0.1l-0.1,0.3l-0.2-0.1c0,0,0.1-0.4,0-0.4
		c-0.1-0.1-0.3-0.2-0.4-0.1c-0.1,0.1,0,0.1,0.1,0.2c0,0.1,0.3,0.2,0.4,0.1l0.2,0.1l0.3,0.1c-0.1,0.3-0.2,0.4-0.6,0.3
		c-0.1,0.3,0.5,0.5,0.6,0.6c-0.1,0.1-0.2,0.2-0.6,0c0,0-1.6,1.6-2.6,2c-1,0.4-0.1-0.2-0.1-0.2c0.4-0.2,2.4-1.8,2.4-2
		c-0.1-0.1-0.2-0.3-0.2-0.5c-0.3-0.1-0.8,0.1-1.1,0.2c0.1,0.5,1,3,0.3,6.8l-0.1-0.1c0.6-3.7-0.4-6.6-0.4-6.6
		c-0.6,0.2-0.9,0.1-1.2,0.1c-0.1,2.3,1.7,2.6,1.1,5.6c-2-0.3-3.4-2.7-4.5-2.5c-0.1-0.4-0.4-1.1-0.1-1.3c-0.1-0.3-0.2-0.8,0.3-1.1
		c-0.2-0.4-0.2-0.8,0.3-1.2c-0.1-0.3-0.1-0.9,0.6-1c0.1-0.5,0.3-0.9,0.7-1.1c-0.5-0.2-0.6-0.7-0.6-0.7c0.4,0.3,0.8,0.4,1.5,0.3
		L52.6,24.4L52.6,24.4z"/>
</g>
</svg>
