<?xml version="1.0" encoding="utf-8"?>
<!-- Generator: Adobe Illustrator 28.1.0, SVG Export Plug-In . SVG Version: 6.00 Build 0)  -->
<svg version="1.1" id="Layer_1" xmlns:svg="http://www.w3.org/2000/svg"
	 xmlns="http://www.w3.org/2000/svg" xmlns:xlink="http://www.w3.org/1999/xlink" x="0px" y="0px" viewBox="0 0 72 72"
	 style="enable-background:new 0 0 72 72;" xml:space="preserve">
<g>
	<path id="svg_6" d="M49.2,16.6c-1.3,5.9-1.8,8.6-2.9,12.9c-1,4.1-1.8,7.9-3.2,9.7c-1.4,1.9-3.3,2.3-4.5,2.4
		c-0.7,0.1-1.2,0.1-2.6,0.1s-1.9,0-2.6-0.1c-1.3-0.2-3.2-0.5-4.5-2.4c-1.4-1.8-2.2-5.7-3.2-9.7c-1.1-4.3-1.6-7-2.9-12.9
		c0,0-1.3,0-1.9,0.1c-0.8,0-1.4,0.1-2.1,0.2c0,0,0.8,12.1,1.1,17.3c0.3,5.4,1,14.5,1.6,21.4c0,0,1.1,0.2,3,0.3
		c1.9,0.1,2.8,0.1,2.8,0.1c0.8-3,1.8-7.2,2.9-9c0.9-1.5,2.3-1.6,3.1-1.7c1.2-0.2,2.3-0.2,2.8-0.2l0,0l0,0c0.5,0,1.5,0,2.8,0.2
		c0.8,0.1,2.2,0.3,3.1,1.7c1.1,1.8,2.1,6,2.9,9c0,0,0.8,0,2.8-0.1c1.8-0.1,3-0.3,3-0.3c0.6-6.9,1.2-16,1.6-21.4
		c0.3-5.1,1.1-17.3,1.1-17.3c-0.7-0.1-1.3-0.2-2.1-0.2C50.5,16.6,49.2,16.6,49.2,16.6"/>
	<path id="svg_7" d="M64.5,23.7c-0.8-7.7-5.9-9.3-10.4-10.1c-2.3-0.4-6.3-0.7-8.9-0.8c-2.3-0.2-7.6-0.2-9.2-0.2
		c-1.6,0-6.9,0.1-9.2,0.2c-2.6,0.1-6.6,0.4-8.9,0.8C13.4,14.4,8.2,16,7.4,23.7c-0.2,2.1-0.3,4.9-0.2,7.8c0.1,4.9,0.5,8.2,0.7,10.5
		c0.2,1.6,0.8,6.3,1.7,8.7C10.8,54,11.8,55,13,56c2.2,1.8,5.9,2.4,6.7,2.5c4.2,0.7,12.5,0.9,16.3,0.9c3.7,0,12.1-0.1,16.3-0.9
		c0.8-0.2,4.5-0.7,6.7-2.5c1.2-1,2.3-2,3.4-5.3c0.8-2.4,1.5-7.2,1.7-8.7c0.2-2.3,0.7-5.6,0.7-10.5C64.8,28.5,64.7,25.8,64.5,23.7
		 M61.6,36.7c-0.5,6.2-1,9.9-1.8,12.5c-0.7,2.3-1.5,3.9-2.8,5c-2.1,1.9-4.9,2.3-6.6,2.5c-3.6,0.5-9.7,0.7-14.5,0.7
		c-4.8,0-10.9-0.2-14.5-0.7c-1.7-0.3-4.5-0.7-6.6-2.5c-1.2-1.1-2.1-2.7-2.8-5c-0.8-2.7-1.3-6.4-1.8-12.5C10,33,10.1,27,10.5,23.7
		c0.6-4.9,3-7.3,8.1-8.2c2.4-0.4,5.6-0.7,8.7-0.9c2.5-0.2,6.5-0.2,8.7-0.2c2.2,0,6.3,0.1,8.7,0.2c3,0.2,6.3,0.5,8.7,0.9
		c5.1,0.9,7.5,3.3,8.1,8.2C61.9,26.9,61.9,32.9,61.6,36.7"/>
</g>
</svg>
