<?xml version="1.0" encoding="utf-8"?>
<!-- Generator: Adobe Illustrator 28.1.0, SVG Export Plug-In . SVG Version: 6.00 Build 0)  -->
<svg version="1.1" id="Layer_1" xmlns="http://www.w3.org/2000/svg" xmlns:xlink="http://www.w3.org/1999/xlink" x="0px" y="0px"
	 viewBox="0 0 72 72" style="enable-background:new 0 0 72 72;" xml:space="preserve">
<g>
	<path d="M61.5,17.2c-10.3-11.8-30.8-5.3-41.8,4c-13.4,12.5-15.6,27.1-8.6,35c6,5.6,14.3,5.3,21.5,4.5c5.8-1.1,12.2-3.6,18-8.2
		c4.7-3.7,9-8.8,12.2-15.7C67.5,26.9,62.5,18.3,61.5,17.2L61.5,17.2z M49.8,51c-2.9,2.6-21.7,14.3-34,2.3
		c-10.3-10-1.1-25.6,4.4-30.3c1-0.5,6.8-7.2,17.6-8.6c8-1,14.8,1.2,18.8,5.7c2.1,2.4,3.5,5.4,3.9,8.9C61.8,39.4,52.7,48.4,49.8,51
		L49.8,51z"/>
	<path d="M24.1,23.5V49h10.7V36.6c0-1.7-0.3-3.1-2.3-4.9L24.1,23.5L24.1,23.5z"/>
	<path d="M48.3,23.5V49H37.6V36.6c0-1.7,0.3-3.1,2.3-4.9L48.3,23.5L48.3,23.5z"/>
</g>
</svg>
