<?xml version="1.0" encoding="utf-8"?>
<!-- Generator: Adobe Illustrator 28.1.0, SVG Export Plug-In . SVG Version: 6.00 Build 0)  -->
<svg version="1.1" id="Layer_1" xmlns="http://www.w3.org/2000/svg" xmlns:xlink="http://www.w3.org/1999/xlink" x="0px" y="0px"
	 viewBox="0 0 72 72" style="enable-background:new 0 0 72 72;" xml:space="preserve">
<g>
	<path d="M28.4,51.7c0,0-2.2,1.3,1.6,1.7c4.6,0.5,6.9,0.4,11.9-0.5c0,0,1.3,0.8,3.2,1.5C33.8,59.3,19.6,54.2,28.4,51.7"/>
	<path d="M27.1,45.4c0,0-2.5,1.8,1.3,2.2c4.9,0.5,8.7,0.5,15.4-0.7c0,0,0.9,0.9,2.4,1.4C32.5,52.3,17.3,48.7,27.1,45.4"/>
	<path d="M38.7,34.7c2.8,3.2-0.7,6.1-0.7,6.1s7.1-3.6,3.8-8.2c-3-4.3-5.3-6.4,7.2-13.7C49,19,29.3,23.9,38.7,34.7"/>
	<path d="M53.6,56.4c0,0,1.6,1.3-1.8,2.4c-6.5,2-27.1,2.6-32.8,0.1c-2.1-0.9,1.8-2.1,3-2.4c1.3-0.3,2-0.2,2-0.2
		c-2.3-1.6-14.8,3.2-6.3,4.5C40.6,64.5,59.6,59.1,53.6,56.4"/>
	<path d="M29.5,38.9c0,0-10.5,2.5-3.7,3.4c2.9,0.4,8.5,0.3,13.8-0.1c4.3-0.4,8.7-1.1,8.7-1.1s-1.5,0.7-2.6,1.4
		c-10.6,2.8-31.2,1.5-25.3-1.4C25.4,38.6,29.5,38.9,29.5,38.9"/>
	<path d="M48.3,49.4c10.8-5.6,5.8-11,2.3-10.3c-0.9,0.2-1.2,0.3-1.2,0.3s0.3-0.5,0.9-0.7c6.9-2.4,12.2,7.2-2.2,10.9
		C48.1,49.7,48.2,49.5,48.3,49.4"/>
	<path d="M41.8,7.2c0,0,6,6-5.7,15.2c-9.4,7.4-2.1,11.6,0,16.4c-5.5-4.9-9.5-9.3-6.8-13.3C33.3,19.6,44.2,16.7,41.8,7.2"/>
	<path d="M30.6,64.6c10.4,0.7,26.3-0.4,26.7-5.3c0,0-0.7,1.9-8.6,3.3c-8.9,1.7-19.8,1.5-26.2,0.4C22.4,63.1,23.7,64.2,30.6,64.6"/>
</g>
</svg>
