<?xml version="1.0" encoding="utf-8"?>
<!-- Generator: Adobe Illustrator 28.1.0, SVG Export Plug-In . SVG Version: 6.00 Build 0)  -->
<svg version="1.1" id="Layer_1" xmlns="http://www.w3.org/2000/svg" xmlns:xlink="http://www.w3.org/1999/xlink" x="0px" y="0px"
	 viewBox="0 0 2658.88 1329.44" style="enable-background:new 0 0 2658.88 1329.44;" xml:space="preserve">
<g>
	<path d="M2435.35,651.49c-79.5,0-143.91,64.16-143.9,143.27c0,79.12,64.41,143.26,143.9,143.26c79.49,0,143.91-64.14,143.91-143.26
		C2579.25,715.63,2514.84,651.49,2435.35,651.49z"/>
	<path d="M1275.25,512.83c0.04-1.3,0.06-2.6,0.06-3.91c0-72.27-57.66-130.83-128.8-130.83c-71.14,0-128.82,58.57-128.82,130.83
		c0,1.01,0.02,2.01,0.04,3.01l-1.41,0l-0.28,648.69l1.67,0c0.9,71.45,58.23,129.1,128.8,129.1c70.57,0,127.87-57.64,128.78-129.09
		l1.54,0h0l-0.03-647.79L1275.25,512.83z"/>
	<path d="M840.8,1085.78L604.15,766.76l169.33-166.74l-1.33-1.24c22.29-23.43,35.97-55.17,35.97-90.11
		c0-72.09-58.23-130.51-130.07-130.51v0c-38.25,0-72.65,16.58-96.45,42.96l-0.07-0.06L340.89,656.39l-1.29-478.84l-1.57-0.02
		c0.13-2.4,0.2-4.81,0.2-7.24c0-72.12-57.25-130.57-127.87-130.57c-70.61,0-127.88,58.45-127.88,130.57c0,1.52,0.03,3.03,0.08,4.53
		l-2.92-0.03l0,0l-0.02,982.98l2.84,0.11c-0.02,0.86-0.03,1.72-0.03,2.59c0,71.31,57.01,129.14,127.36,129.14
		c67.92,0,123.39-53.9,127.15-121.79l1.68,0.07l0.01-169.45l65.66-60.9l214.21,286.33c22.33,39.3,64.17,65.76,112.11,65.76
		c71.41,0,129.28-58.72,129.28-131.11c0-26.36-7.67-50.89-20.87-71.45L840.8,1085.78z"/>
	<path d="M2220.24,1085.78l-236.65-319.02l169.31-166.74l-1.33-1.24c22.29-23.43,35.98-55.17,35.98-90.12
		c0-72.09-58.23-130.51-130.07-130.51v0c-38.25,0-72.64,16.58-96.44,42.96l-0.07-0.06l-240.67,235.34l-1.29-478.84l-1.56-0.02
		c0.13-2.4,0.2-4.81,0.2-7.24c0-72.12-57.26-130.57-127.87-130.57c-70.61,0-127.87,58.45-127.87,130.57c0,1.52,0.03,3.03,0.08,4.53
		l-2.94-0.03v0l-0.02,982.98l2.85,0.11c-0.02,0.86-0.03,1.72-0.03,2.58c0,71.31,57,129.14,127.37,129.14
		c67.91,0,123.39-53.9,127.14-121.79l1.68,0.07l0.01-169.45l65.66-60.9l214.24,286.39c22.34,39.27,64.17,65.71,112.08,65.71
		c71.41,0,129.27-58.72,129.27-131.11c0-26.36-7.67-50.89-20.86-71.45L2220.24,1085.78z"/>
</g>
</svg>
