<?xml version="1.0" encoding="utf-8"?>
<!-- Generator: Adobe Illustrator 28.1.0, SVG Export Plug-In . SVG Version: 6.00 Build 0)  -->
<svg version="1.1" id="Layer_1" xmlns="http://www.w3.org/2000/svg" xmlns:xlink="http://www.w3.org/1999/xlink" x="0px" y="0px"
	 viewBox="0 0 72 72" style="enable-background:new 0 0 72 72;" xml:space="preserve">
<g>
	<path d="M7.2,36c0-6.4,12.9-11.5,28.8-11.5S64.8,29.6,64.8,36S51.9,47.5,36,47.5S7.2,42.4,7.2,36L7.2,36z M42.4,37
		C42.4,37,42.4,36.9,42.4,37c-0.9-0.2-1.7-0.3-2.6-0.4c0,0-0.1-0.1-0.1-0.2c2.7-2.8,3.7-6.4,2.3-9.2c0-0.1,0.1-0.1,0.1-0.1l0,0
		c9.2,1.1,15.8,4.6,15.8,8.8c0,5-9.9,9.1-22.1,9.1s-21.9-4-21.9-9c0-4.4,7.4-8,17.4-8.9c0,0,0.1,0,0.1,0.1l-2.2,11.9
		c-0.2,0.8,0.4,1.5,1.1,1.7c0.1,0,0.2,0,0.3,0h0.1c1.9-0.1,4-0.7,5.9-1.8c0.6-0.3,1.1-0.7,1.6-1.1h0.1c0.7,0.4,1,0.9,1,1.5
		c0,0.7-0.7,1.4-1.8,1.9c-1.3,0.6-3.2,1-5.4,1c-1.8,0-3.5-0.3-4.8-0.7c-0.1,0-0.1,0-0.1,0.1l0,0l-0.2,1c0,0,0,0.1,0.1,0.1
		c2.6,0.6,5.6,1,8.8,1c4,0,7.2-1.3,7.2-2.9c0-0.6-0.5-1.2-1.3-1.7c-0.7-0.4-1.2-0.8-1.1-1.1c0.1-0.3,0.8-0.4,1.6-0.1
		c0,0,0.1,0,0.1-0.1L42.4,37z M36,29.7c0,0.1,0,0.1,0,0.2c0.1,2.1-1.2,4.9-3.6,7.3c-0.5,0.5-1,0.9-1.5,1.3c0,0,0,0-0.1,0l-0.1-0.1
		L33,25.5c0,0,0-0.1-0.1-0.1C20.1,26.1,10.1,30.6,10.1,36c0,5.8,11.6,10.6,25.9,10.6S61.9,41.9,61.9,36S50.3,25.4,36,25.4
		c-0.5,0-0.9,0-1.4,0c0,0-0.1,0-0.1,0.1L34.3,27v0.1C35.3,27.6,36,28.6,36,29.7L36,29.7z"/>
</g>
</svg>
