<?xml version="1.0" encoding="utf-8"?>
<!-- Generator: Adobe Illustrator 28.1.0, SVG Export Plug-In . SVG Version: 6.00 Build 0)  -->
<svg version="1.1" id="katman_1" xmlns="http://www.w3.org/2000/svg" xmlns:xlink="http://www.w3.org/1999/xlink" x="0px" y="0px"
	 viewBox="0 0 360 180" style="enable-background:new 0 0 360 180;" xml:space="preserve">
<g transform="matrix(3.72324 0 0 3.72324 100 155.731)">
	<path d="M-6.25-28.08h-7.98v10.77h10.78v-7.98c0-1.53-1.26-2.79-2.79-2.79C-6.25-28.08-6.25-28.08-6.25-28.08z"/>
	<path d="M-16.72-28.08h-1.38c-1.53,0-2.79,1.26-2.79,2.79v1.38h4.16V-28.08z"/>
	<path d="M-20.89-21.43h4.16v4.16h-4.16V-21.43z"/>
	<path d="M-7.58-10.64h1.38c1.53,0,2.79-1.26,2.79-2.79v-0.01v-1.33h-4.16V-10.64z"/>
	<path d="M-14.24-14.78h4.16v4.16h-4.16C-14.24-10.61-14.24-14.78-14.24-14.78z"/>
	<path d="M-20.89-14.78v1.38c0,1.53,1.26,2.79,2.79,2.79h1.38v-4.16C-16.73-14.78-20.89-14.78-20.89-14.78z"/>
	<path d="M7.19-26.96H5.56v15.24h8.63v-1.45H7.19V-26.96z"/>
	<path d="M19.42-22.92c-3.17,0-5.41,2.36-5.41,5.75v0.38c0.11,2.96,2.56,5.35,5.53,5.36h0.21c1.48,0,2.92-0.54,4.05-1.5v-0.04
		l-0.74-1.2l-0.08,0.04c-0.88,0.82-2.03,1.27-3.23,1.29c-0.03,0-0.06,0-0.09,0c-2.21,0-4.03-1.82-4.03-4.03c0-0.04,0-0.09,0-0.13
		h8.24v-0.09v-0.77C23.97-20.95,22.18-22.92,19.42-22.92L19.42-22.92z M15.74-18.37c0.22-1.81,1.77-3.19,3.6-3.18
		c1.38,0,2.88,0.83,3,3.18H15.74z"/>
	<path d="M33.45-21.64v0.57c-0.69-1.16-1.95-1.87-3.31-1.88h-0.2c-2.92,0-4.94,2.32-4.94,5.7s1.93,5.76,4.81,5.76
		c1.49,0.07,2.9-0.69,3.65-1.98v1.67h1.54v-15.17h-1.56L33.45-21.64L33.45-21.64z M30.11-12.92c-2.02,0-3.35-1.75-3.35-4.29
		s1.41-4.25,3.39-4.25c1.64,0,3.31,1.33,3.31,4.25c0,3.16-1.75,4.29-3.38,4.29H30.11z"/>
	<path d="M44.45-21.43v0.09c-0.3-0.51-1.24-1.63-3.5-1.63c-2.87,0-4.77,2.19-4.77,5.54s1.98,5.62,4.9,5.62
		c1.37,0.1,2.68-0.58,3.39-1.75v1.51c0,2.11-1.33,3.31-3.7,3.31c-1.02,0.01-2.03-0.23-2.94-0.69l-0.08-0.04l-0.61,1.33l0.09,0.04
		c1.1,0.56,2.32,0.86,3.56,0.88c2.53,0,5.26-1.29,5.26-4.86v-10.51h-1.61L44.45-21.43z M41.27-13.18c-2.11,0-3.5-1.63-3.5-4.16
		s1.2-4.04,3.26-4.04c2.27,0,3.35,1.33,3.35,4.04S43.33-13.18,41.27-13.18z"/>
	<path d="M52.53-22.92c-3.18,0-5.37,2.36-5.37,5.7v0.38c0.09,3,2.58,5.41,5.58,5.41h0.22c1.48-0.01,2.91-0.54,4.03-1.51l-0.75-1.28
		h-0.09c-0.88,0.82-2.02,1.27-3.21,1.29c-0.03,0-0.06,0-0.09,0c-2.21,0-4.04-1.82-4.04-4.04c0-0.04,0-0.08,0-0.12h8.31v-0.09v-0.77
		C57.12-20.95,55.31-22.92,52.53-22.92L52.53-22.92z M48.87-18.37c0.22-1.82,1.78-3.19,3.61-3.18c1.37,0,2.87,0.83,3,3.18H48.87z"/>
	<path d="M63.82-22.71c-0.22,0-0.38,0-0.61-0.09c-1.55,0.04-2.91,1.06-3.39,2.53v-2.45h-1.58v10.95h1.63v-4.6
		c0.01-0.7,0.12-1.4,0.34-2.08c0.51-1.67,1.67-2.74,3.05-2.74c0.17-0.01,0.35-0.01,0.51,0h0.09v-1.53H63.82z"/>
</g>
</svg>
