<?xml version="1.0" encoding="utf-8"?>
<!-- Generator: Adobe Illustrator 28.1.0, SVG Export Plug-In . SVG Version: 6.00 Build 0)  -->
<svg version="1.1" id="Layer_1" xmlns="http://www.w3.org/2000/svg" xmlns:xlink="http://www.w3.org/1999/xlink" x="0px" y="0px"
	 viewBox="0 0 72 72" style="enable-background:new 0 0 72 72;" xml:space="preserve">
<g>
	<path d="M9,30.3L41.7,63c0.5,0.5,0.2,1.3-0.4,1.4c-1.1,0.2-2.2,0.4-3.4,0.4c-0.2,0-0.5-0.1-0.7-0.2L7.5,34.7
		c-0.2-0.2-0.3-0.4-0.2-0.7c0.1-1.1,0.2-2.3,0.4-3.4C7.8,30,8.6,29.8,9,30.3z M8.1,43.5c-0.2-0.8,0.7-1.3,1.3-0.7l19.8,19.8
		c0.6,0.6,0.1,1.6-0.7,1.3C18.6,61.2,10.8,53.4,8.1,43.5z M11,21.6c0.3-0.5,0.9-0.6,1.3-0.2l38.2,38.2c0.4,0.4,0.3,1-0.2,1.3
		c-0.8,0.5-1.6,0.9-2.5,1.3c-0.3,0.1-0.7,0.1-0.9-0.2l-37-37c-0.2-0.2-0.3-0.6-0.2-0.9C10.1,23.3,10.5,22.4,11,21.6z M36,7.2
		c15.9,0,28.8,12.9,28.8,28.8c0,8.5-3.6,16.1-9.4,21.3c-0.3,0.3-0.8,0.3-1.2,0L14.7,17.8c-0.3-0.3-0.3-0.8,0-1.2
		C19.9,10.8,27.5,7.2,36,7.2z"/>
</g>
</svg>
