<?xml version="1.0" encoding="utf-8"?>
<!-- Generator: Adobe Illustrator 28.1.0, SVG Export Plug-In . SVG Version: 6.00 Build 0)  -->
<svg version="1.1" id="Layer_1" xmlns="http://www.w3.org/2000/svg" xmlns:xlink="http://www.w3.org/1999/xlink" x="0px" y="0px"
	 viewBox="0 0 72 72" style="enable-background:new 0 0 72 72;" xml:space="preserve">
<g>
	<path d="M14.1,64.8h43.9c3.8,0,6.9-3.1,6.9-6.9V14.1c0-3.8-3.1-6.9-6.9-6.9H14.1c-3.8,0-6.9,3.1-6.9,6.9v43.9
		C7.2,61.7,10.3,64.8,14.1,64.8z M29.1,29.1h8.2v3.5c0,0,2.7-3.5,8-3.5c5.4,0,9.9,3.7,9.9,11.3v14.7H47c0,0,0-12.7,0-13.7
		c0-2.7-1.4-5.5-4.8-5.5h-0.1c-3.3,0-4.7,2.8-4.7,5.5c0,1.2,0,13.7,0,13.7h-8.2V29.1z M20.9,18.2c2.5,0,4,1.5,4.1,3.4
		c0,1.9-1.5,3.5-4.1,3.5c-2.5,0-4.1-1.6-4.1-3.5S18.4,18.2,20.9,18.2z M16.8,29.1H25v26.1h-8.2V29.1z"/>
</g>
</svg>
