<?xml version="1.0" encoding="utf-8"?>
<!-- Generator: Adobe Illustrator 28.1.0, SVG Export Plug-In . SVG Version: 6.00 Build 0)  -->
<svg version="1.1" id="Layer_1" xmlns:svg="http://www.w3.org/2000/svg"
	 xmlns="http://www.w3.org/2000/svg" xmlns:xlink="http://www.w3.org/1999/xlink" x="0px" y="0px" viewBox="0 0 360 180"
	 style="enable-background:new 0 0 360 180;" xml:space="preserve">
<g>
	<polyline id="polyline3" points="192.7,112.5 229.8,112.5 229.8,108 199.1,108 199.1,93.5 222.2,93.5 222.2,88.9 199.1,88.9 
		199.1,75.5 229.8,75.5 229.8,71 192.7,71 192.7,112.5 	"/>
	<polyline id="polyline5" points="212,64.3 207,69.9 222.8,64.3 212,64.3 	"/>
	<polyline id="polyline7" points="292.2,108 292.2,71 286.4,71 286.4,112.5 324,112.5 324,108 292.2,108 	"/>
	<path id="path9" d="M253.9,71l-21.1,41.6h7.1l5.4-10.8h25.3l5.5,10.8h7.1L262.1,71H253.9 M248,96.6l10-19.9l10.1,19.9H248z"/>
	<path id="path11" d="M172.5,95.2c9.5-2.5,10.4-9.6,10.4-12.2c-0.6-7.4-5.6-12-14.6-12h-26.2v41.6h6V95.1h17.1l12.5,17.4h7.5
		C185.3,112.5,176.2,100.8,172.5,95.2 M167.5,90.2h-19.4V75.9h20.1c4.6,0,7.2,2.2,8.2,4.9c0.6,1.9,0.2,4.3-0.8,6
		C173.9,89.6,170.7,90.2,167.5,90.2z"/>
	<path id="path13" d="M106.3,63.9c-16.9,0-28.3,11.9-28.3,26.3c0,15.1,12.7,25.8,28.3,25.8c15.6,0,28.3-10.5,28.3-25.8
		C134.6,75.8,123,63.9,106.3,63.9 M106.1,110.9c-11.7,0-21.3-9.4-21.3-20.7c0-11.3,9.2-21.1,21.7-21.1c12.3,0,21.3,9.8,21.3,21.1
		C127.8,101.5,117.7,110.9,106.1,110.9z"/>
	<polyline id="polyline15" points="62.9,85.7 67.2,85.7 75,71 68.7,71 62.9,85.7 	"/>
	<polyline id="polyline17" points="41.8,108 41.8,71 36,71 36,112.5 73.6,112.5 73.6,108 41.8,108 	"/>
</g>
</svg>
