<?xml version="1.0" encoding="utf-8"?>
<!-- Generator: Adobe Illustrator 28.1.0, SVG Export Plug-In . SVG Version: 6.00 Build 0)  -->
<svg version="1.1" id="Layer_1" xmlns="http://www.w3.org/2000/svg" xmlns:xlink="http://www.w3.org/1999/xlink" x="0px" y="0px"
	 viewBox="0 0 360 180" style="enable-background:new 0 0 360 180;" xml:space="preserve">
<style type="text/css">
	.st0{fill:#0B0B0A;}
	.st1{fill:#0B0C0A;}
</style>
<g>
	<path class="st0" d="M302.5,99.2L302.5,99.2l-0.1-0.4l0-0.1c2.7-5.7,5.9-8.9,8.6-8.9h0c3.1,0,5.2,2.8,5.2,6.8c0,2.6-1.2,4.2-2.2,5
		c-1.1,0.9-2.6,1.5-4.1,1.5C306.5,103,304,100.9,302.5,99.2L302.5,99.2z M301.8,120.5c-0.4,0.6-1.1,0.9-1.8,0.9
		c-0.9,0-1.5-0.3-2-0.9c-1.3-1.7-0.9-5.7,1.2-12.9c0.2-0.9,0.5-1.7,0.8-2.6l0.2-0.7l0.2,0.7C302.8,113.4,303.3,118.6,301.8,120.5
		L301.8,120.5z M213.3,82.1c0.1-1.8,0.2-3.6,0.4-5.2c1.4-10.7,4.3-18.1,7.1-18.1h0c1.3,0,2,1,2,3c0,4.8-3.1,11.7-9.1,20.5l-0.5,0.7
		L213.3,82.1L213.3,82.1z M310.4,106.5L310.4,106.5c5.9,0,10-4,10.1-9.8c0-2.9-0.8-5.5-2.3-7.4c-1.6-2-3.9-3.1-6.5-3.1h-0.1
		c-3.6,0-6.9,2.7-10.2,8.3l-0.3,0.4l-0.2-0.5c-0.8-2.4-1.6-4.4-2-5.6c-0.3-0.8-0.4-1.2-0.5-1.3c-0.2-0.6-0.7-1-1.4-1
		c-0.4,0-0.9,0.1-1.3,0.4c-0.4,0.3-0.6,0.6-0.7,1l0,0.1c-3.3,10.2-6,15.1-8.2,15.1c-0.3,0-0.6-0.1-0.8-0.3c-0.6-0.7-0.5-2.2-0.2-4.4
		c0.1-1.6,0.3-3.4,0.2-5.3c-0.1-3.7-2.2-5.9-5.4-5.9c-4.1,0-6.8,4.4-8,7l-0.4,0.8l-0.1-0.9c-0.3-3.2-1.4-7.1-4.8-7.1
		c-4,0-7.1,4.7-8.9,8.6l-0.5,1.1l0.1-1.2c0.2-5.3,0.4-8.4,0.5-9.2c0.1-0.9,0.1-1.4-0.2-1.8c-0.3-0.3-0.8-0.4-1.5-0.4
		c-1.3,0.1-1.9,0.9-2.9,3.5c-1.6,4.3-5.7,14.3-9,14.3c-0.7,0-1.2-0.2-1.5-0.7c-1.4-1.6-0.8-5.9-0.1-11.8l0.1-0.5
		c0.4-2.8-0.3-3.4-1.8-3.7c-0.2,0-0.3,0-0.5,0c-1.2,0-1.8,1.2-2.9,4.4c-2,5.8-4.6,11.8-7.7,11.8c-0.1,0-0.2,0-0.3,0
		c-1.6-0.3-1.6-2.7-1.5-5.7c0-1.6,0.1-3.5-0.2-5.2c-0.5-3-2.2-4.9-4.6-4.9c-4.8,0-8,6.1-9.5,9.8l-0.3,0.8l-0.1-0.9
		c-0.2-1.6-0.5-4.1-0.6-7.1l0-0.1l0.1-0.1c9-11.3,13-19.4,13-26.4c0-4.5-2-7.1-5.5-7.2c-2.5,0-8.6,2.1-10.7,21.7
		c-0.4,3.6-0.6,7.4-0.6,11.1v0.1l0,0.1c-4.1,5.9-12.8,16.1-21.4,16.1c-7.7,0-13.9-6.3-13.9-17.3c0-14.8,10.5-23.9,18.4-23.9h0.1
		c1.7,0,3.2,0.5,4.3,1.4c1.1,0.9,1.7,2.2,1.7,3.8c0,2-0.7,3.1-1.3,4.1c-0.2,0.3-0.3,0.5-0.5,0.8c-0.2,0.3-0.3,0.7-0.1,1
		c0.2,0.4,0.7,0.6,1.4,0.6c1.9,0,4.7-2.7,4.7-6.8c0-4.3-3.6-8.7-10-8.7c-9.8,0-22.9,10.7-22.9,28.1c0,12.3,7.7,20.8,18.1,20.8
		c7.4,0,14.7-5.3,21.2-14.2l0.4-0.5l0,0.7c0.1,3.2,0.4,5.8,0.5,7.7c0.1,1.2,0.2,2.1,0.2,2.5c0,1,0.2,1.8,0.5,2.2
		c0.4,0.4,0.9,0.7,1.8,0.7c1.5,0,1.7-1,2.3-3.4l0.2-0.7c0.7-3,3.4-12.7,7.3-12.7c0.7,0,1.2,0.2,1.5,0.6c0.9,0.9,0.8,2.8,0.7,5.1
		c-0.1,1.4-0.1,2.8,0,4.2c0.4,3.8,2,5.6,5,5.6c3,0,6.2-3.3,7.9-6.3l0.3-0.6L238,99c0.3,1.6,1.7,7,6,7c3.9,0,7.3-4.1,11-12.6l0.5-1.1
		l0,1.2c-0.1,3.2-0.3,7.2-0.3,10.2c0,2.4,0.2,3.3,1.3,3.3c0.1,0,0.2,0,0.2,0c1,0,1.7-0.6,2.1-1.9c2.8-9.7,5.2-14.2,7.6-14.2
		c2.3,0,2.5,4.3,2.7,11.8l0,0.5c0.1,2.6,0.2,3.8,1.8,3.8c1.2,0,1.5-1,2.2-3.4c0.1-0.5,0.3-1,0.4-1.5c2.2-7.8,4.1-10.9,6.4-10.9
		c2,0,2.1,2.1,2.1,2.7c0.1,1.4-0.1,2.9-0.2,4.4c-0.1,1.4-0.3,2.7-0.2,4c0.1,3,1.8,4.7,4.7,4.7c3.8,0,7.2-4.4,10.2-13.1l0.2-0.6
		L297,94c0.5,1.4,1.2,3.2,1.9,5.4l0,0.1l0,0.1c-2.9,6.4-4.9,13.5-4.9,17.4c0,5,2.2,8.3,5.8,8.3h0.1c1.9,0,6.4-0.8,6.5-8
		c0-2.9-0.7-7.1-2.1-12.4l-0.2-0.6l0.5,0.3C306.3,105.9,308.4,106.5,310.4,106.5L310.4,106.5z"/>
	<path class="st0" d="M120.6,91.8c-1.3,5.1-3.7,11.3-8.1,11.6c-0.1,0-0.2,0-0.4,0c-1.8,0-2.8-1.2-3-3.5c-0.2-2.9,1-6.4,3.2-8.8
		c1.4-1.5,3-2.4,4.5-2.4h0c1.9,0,3.2,1.5,3.8,2.9L120.6,91.8L120.6,91.8L120.6,91.8z M160.8,63.2L160.8,63.2c0.5,0,0.8,0.2,1.1,0.6
		c1.4,1.9,1.5,9-1,17.1c-1.4,4.6-3.3,9-5.5,12.6l-0.3,0.6l-0.1-0.7c-0.3-2-0.4-4-0.5-5.7C153.9,75.6,157.6,63.4,160.8,63.2
		L160.8,63.2z M127.4,105.6c4.2-0.3,7.6-6.1,8.9-8.6l0.3-0.6l0.1,0.7c0.6,3.5,2.5,9.3,8.4,9.3h0.1c2.5,0,5.4-1.6,8.4-4.5l0.2-0.2
		l0.2,0.3c2,3.3,4.6,5,7.4,4.9c4.1-0.2,6.7-3.1,6.9-5.2c0.1-0.5-0.1-1-0.4-1.3c-0.4-0.4-0.9-0.5-1.3-0.1l-0.2,0.2
		c-1,0.9-2.8,2.7-4.7,2.8c-2.4,0.1-4.2-1.3-5.3-4.3l0-0.1l0.1-0.1c6.6-8.6,11.2-21.8,10.7-30.6c-0.2-4.1-1.4-8.9-5.9-8.9
		c-0.1,0-0.2,0-0.3,0c-1.7,0.1-3.3,0.9-4.6,2.4c-4.1,4.6-6.3,16-5.5,29c0.2,2.7,0.6,5.2,1.4,7.5l0,0.1l-0.1,0.1
		c-2.4,2.9-4.9,4.4-6.8,4.4c-4.7,0-4.5-7.8-4.1-14.3c0.1-1.4,0.2-2.3-0.2-2.8c-0.3-0.4-0.8-0.5-1.5-0.5h-0.1c-1.7,0-2,0.3-2.8,2.8
		c-1.8,5.1-5.2,13.7-8.7,13.7c-1,0-1.7-0.3-2.2-1c-1.7-2.2-0.4-7.6,0.6-11.9c0.2-0.8,0.4-1.5,0.5-2.2c0.2-1,0.2-1.8-0.2-2.2
		c-0.4-0.5-1.1-0.6-2.1-0.6c-1.5,0.1-2.5,0.7-2.9,3.6l-0.1,0.6l-0.3-0.4c-0.7-1-1.9-2.1-4.3-2.1c-0.2,0-0.4,0-0.6,0
		c-2.5,0.2-5.4,2-7.5,4.6c-2.5,3.1-3.6,7-3.3,10.9c0,0.2,0.1,0.4,0.1,0.6l0,0.1l-0.1,0.1c-1.5,1.6-3,2.4-4.5,2.4
		c-2.3,0-3.6-1.7-3.6-4.6c0-4.8,3.2-19.2,3.2-24.4c0-5.5-2.5-8.6-6.8-8.6h-0.1c-6.3,0-11.2,7.1-15.8,21.8c-0.4,1.3-0.9,2.9-1.3,4.2
		l-0.7,2.2l0.2-2.3c0.4-5.1,0.7-10.1,0.9-14.7c0.2-7.1-0.7-11.6-2.9-13.9c-1.2-1.2-2.8-1.8-4.8-1.9h-0.1c-7.7,0-11.3,12.9-14,22.1
		c-0.8,2.8-2.4,9-3.5,13.2l0.6-1c0.5-5.4,1.8-18.8,1.7-26c-0.1-7.8-2.7-11.3-8.4-11.3h-0.1c-3.1,0-5.2,1.5-6.4,2.8
		c-2,2.1-3.2,5-3.2,7.6c0,1.6,1,3,1.7,3c0.5,0,0.7-0.6,0.9-1c1.8-5.9,4.1-8.7,7-8.7c1.2,0,2.1,0.4,2.8,1.1c2.3,2.5,1.9,9.1,1.1,21.2
		c-0.2,3.9-0.5,8.3-0.8,13.3c0,0.9-0.1,1.7-0.1,2.5c-0.2,3.5-0.4,6.3,0.9,6.5c1.7,0.3,2.8-0.4,3.4-2.1c0.8-2.5,2.8-9.4,6.4-22.1
		c3.5-12.1,6.2-16.5,9.6-16.5c4,0,4.2,6.8,3.5,21.1c-0.2,3-0.4,6.5-0.5,10.2c0,0.5,0,1-0.1,1.5c-0.2,3.1-0.3,5.5,0.6,6.5
		c0.3,0.3,0.7,0.4,1.1,0.4c1.7,0,2.2-1.5,3.1-4c0.2-0.4,0.3-0.9,0.5-1.4c5.9-16.2,10.2-30.3,16.1-30.3c1.7,0,3.1,1.4,3.1,4.2
		c0,6.4-3.1,18.8-3.1,25c0,2.2,0.6,4.3,1.9,5.7c1.3,1.5,3,2.2,5.1,2.2h0c2,0,4-0.9,6-2.8l0.2-0.2l0.2,0.2c1.4,1.8,3.5,2.8,5.9,2.6
		c3.6-0.3,6.7-3.5,7.8-6.6l0.2-0.6l0.2,0.6C121.7,103.2,123.6,105.9,127.4,105.6L127.4,105.6z"/>
	<path class="st0" d="M141,73.1c-1.6,0-2.9,1.3-2.9,2.8c0,1.6,1.3,2.9,2.9,2.9l0,0.2v-0.2c1.6,0,2.9-1.3,2.9-2.8
		C143.9,74.4,142.6,73.1,141,73.1"/>
	<path class="st0" d="M242.7,73.1c-1.6,0-2.9,1.3-2.9,2.8c0,1.6,1.3,2.9,2.9,2.9l0,0.2v-0.2c1.6,0,2.9-1.3,2.9-2.8
		C245.7,74.4,244.4,73.1,242.7,73.1"/>
	<path class="st1" d="M322,107c-0.9,0-1.7-0.8-1.7-1.7c0-0.9,0.8-1.7,1.7-1.7c0.9,0,1.7,0.8,1.7,1.7C323.7,106.2,323,107,322,107
		L322,107z M322,103.3c-1.1,0-2,0.9-2,2s0.9,2,2,2c1.1,0,2-0.9,2-2S323.1,103.3,322,103.3L322,103.3z"/>
	<path class="st1" d="M321.9,105.1h-0.4v-0.8h0.5c0.2,0,0.5,0.1,0.5,0.4C322.6,105.1,322.3,105.1,321.9,105.1L321.9,105.1z
		 M322.9,104.7c0-0.4-0.2-0.6-0.7-0.6h-0.9v2.3h0.3v-1h0.4l0.7,1h0.3l-0.7-1C322.6,105.3,322.9,105.2,322.9,104.7L322.9,104.7z"/>
</g>
</svg>
