<?xml version="1.0" encoding="utf-8"?>
<!-- Generator: Adobe Illustrator 28.1.0, SVG Export Plug-In . SVG Version: 6.00 Build 0)  -->
<svg version="1.1" id="Layer_1" xmlns="http://www.w3.org/2000/svg" xmlns:xlink="http://www.w3.org/1999/xlink" x="0px" y="0px"
	 viewBox="0 0 72 72" style="enable-background:new 0 0 72 72;" xml:space="preserve">
<g>
	<path d="M36,7.5C20.1,7.5,7.2,20.3,7.2,36S20.1,64.5,36,64.5S64.8,51.7,64.8,36S51.9,7.5,36,7.5z M49.7,43
		c-9.8,9.7-27.4,6.6-27.4,6.6l0,0c-0.1-0.7-3-17.5,6.7-27.1c5.5-5.4,14.5-5.2,20.3,0.4C55,28.6,55.1,37.6,49.7,43z"/>
	<polygon points="39.3,24.2 36.5,29.9 30.7,32.7 36.5,35.5 39.3,41.3 42.1,35.5 47.9,32.7 42.1,29.9 	"/>
</g>
</svg>
