<?xml version="1.0" encoding="utf-8"?>
<!-- Generator: Adobe Illustrator 28.1.0, SVG Export Plug-In . SVG Version: 6.00 Build 0)  -->
<svg version="1.1" id="Layer_1" xmlns="http://www.w3.org/2000/svg" xmlns:xlink="http://www.w3.org/1999/xlink" x="0px" y="0px"
	 viewBox="0 0 72 72" style="enable-background:new 0 0 72 72;" xml:space="preserve">
<g>
	<path d="M28.2,36c0-5.8,2.5-11.2,7-14.9c-7.8-5.5-18.5-3.8-24.2,3.8C4.9,32.7,6.3,44,14,50.2c6.1,5,14.7,5.2,21.1,0.7
		C30.7,47.2,28.2,41.8,28.2,36L28.2,36z M61,24.9c-5.8-7.5-16.4-9.2-24.2-3.8c4.5,3.6,7.1,9.1,7.1,14.9s-2.6,11.2-7.1,14.9
		c3,2.1,6.5,3.2,10.2,3.2c4.8,0,9.3-2,12.7-5.4c3.3-3.4,5.2-8,5.2-12.7C64.8,32,63.5,28.1,61,24.9L61,24.9z M36,21.8
		c-4.3,3.5-6.8,8.7-6.8,14.2s2.5,10.7,6.8,14.2c4.3-3.5,6.8-8.7,6.8-14.2S40.3,25.3,36,21.8L36,21.8z"/>
</g>
</svg>
