<?xml version="1.0" encoding="utf-8"?>
<!-- Generator: Adobe Illustrator 28.1.0, SVG Export Plug-In . SVG Version: 6.00 Build 0)  -->
<svg version="1.1" id="Layer_1" xmlns="http://www.w3.org/2000/svg" xmlns:xlink="http://www.w3.org/1999/xlink" x="0px" y="0px"
	 viewBox="0 0 72 72" style="enable-background:new 0 0 72 72;" xml:space="preserve">
<g>
	<path d="M23.4,19.6c9,0,16.2,7.3,16.2,16.4s-7.3,16.4-16.2,16.4S7.2,45,7.2,36S14.5,19.6,23.4,19.6z M49.4,20.6
		c4.5,0,8.1,6.9,8.1,15.4h0c0,8.5-3.6,15.4-8.1,15.4s-8.1-6.9-8.1-15.4S44.9,20.6,49.4,20.6z M61.9,22.2c1.6,0,2.9,6.2,2.9,13.8
		c0,7.6-1.3,13.8-2.9,13.8s-2.9-6.2-2.9-13.8S60.4,22.2,61.9,22.2z"/>
</g>
</svg>
