<?xml version="1.0" encoding="utf-8"?>
<!-- Generator: Adobe Illustrator 28.1.0, SVG Export Plug-In . SVG Version: 6.00 Build 0)  -->
<svg version="1.1" id="Layer_1" xmlns="http://www.w3.org/2000/svg" xmlns:xlink="http://www.w3.org/1999/xlink" x="0px" y="0px"
	 viewBox="0 0 72 72" style="enable-background:new 0 0 72 72;" xml:space="preserve">
<g>
	<path d="M64.8,17.5l-2.8-8.7c0,0,0,0,0,0c0,0,0,0,0,0c0,0,0,0,0,0c0,0,0,0,0,0c0,0,0,0,0,0c0,0,0,0,0,0c0,0,0,0,0,0c0,0,0,0,0,0
		c0,0,0,0,0,0c0,0,0,0,0,0c0,0,0,0,0,0c0,0,0,0,0,0c0,0,0,0,0,0c0,0,0,0,0,0c0,0,0,0,0,0c0,0,0,0,0,0c0,0,0,0-0.1,0c0,0,0,0,0,0
		c0,0,0,0,0,0c0,0-0.1,0-0.1-0.1c0,0,0,0,0,0c0,0,0,0-0.1,0c0,0,0,0,0,0c0,0,0,0,0,0c0,0,0,0,0,0c0,0,0,0,0,0c0,0,0,0,0,0
		c0,0,0,0,0,0c0,0,0,0,0,0c0,0,0,0,0,0c0,0,0,0,0,0c0,0,0,0,0,0c0,0,0,0,0,0l-17.5,6.9H36H36h-7.4L11.1,8.4c0,0,0,0,0,0c0,0,0,0,0,0
		c0,0,0,0,0,0c0,0,0,0-0.1,0c0,0,0,0,0,0c0,0,0,0-0.1,0c0,0,0,0,0,0c0,0,0,0-0.1,0c0,0,0,0,0,0c0,0,0,0-0.1,0c0,0,0,0,0,0
		c0,0,0,0-0.1,0c0,0,0,0,0,0c-0.1,0-0.1,0-0.1,0.1c0,0,0,0,0,0c0,0,0,0,0,0c0,0,0,0-0.1,0c0,0,0,0,0,0c0,0,0,0,0,0c0,0,0,0,0,0
		c0,0,0,0,0,0c0,0,0,0,0,0c0,0,0,0,0,0c0,0,0,0,0,0c0,0,0,0,0,0c0,0,0,0,0,0c0,0,0,0,0,0c0,0,0,0,0,0c0,0,0,0,0,0c0,0,0,0,0,0
		c0,0,0,0,0,0c0,0,0,0,0,0c0,0,0,0,0,0l-2.8,8.7c0,0.1-0.1,0.3,0,0.4L9.5,27l-1.1-0.2C8,26.8,7.6,27,7.5,27.5
		c-0.1,0.4,0.2,0.8,0.6,0.9l1.6,0.3l-0.1,1.2l-1.3-0.2c-0.4-0.1-0.8,0.2-0.8,0.7c-0.1,0.4,0.2,0.8,0.7,0.8l1.4,0.2l-0.1,1.8
		c0,0.2,0,0.3,0.1,0.5l1.5,2.2L7.8,47.6c0,0.1,0,0.1,0,0.2l0,0c0,0,0,0,0,0c0,0,0,0,0,0c0,0,0,0,0,0c0,0,0,0,0,0l0,0c0,0,0,0,0,0
		c0,0,0,0,0,0v0c0,0,0,0,0,0c0,0,0,0,0,0c0,0,0,0,0,0c0,0.1,0,0.1,0,0.2l3.2,12.9c0.1,0.2,0.2,0.4,0.4,0.5c0.2,0.1,0.4,0.1,0.6,0.1
		l12.5-3.9l6.6,6c0.1,0.1,0.3,0.2,0.5,0.2H36H36h4.4c0.2,0,0.4-0.1,0.5-0.2l6.6-6l12.5,3.9c0.2,0.1,0.4,0,0.6-0.1
		c0.2-0.1,0.3-0.3,0.4-0.5L64.3,48c0-0.1,0-0.1,0-0.2c0,0,0,0,0,0v0v0c0-0.1,0-0.1,0-0.2l-3.4-11.8l1.5-2.2c0.1-0.1,0.1-0.3,0.1-0.5
		l-0.1-1.8l1.4-0.2c0.4-0.1,0.7-0.4,0.7-0.8c-0.1-0.4-0.4-0.7-0.8-0.7l-1.3,0.2l-0.1-1.2l1.6-0.3c0.4-0.1,0.7-0.5,0.6-0.9
		c-0.1-0.4-0.5-0.7-0.9-0.6L62.5,27l2.3-9.1C64.8,17.8,64.8,17.6,64.8,17.5z M47.1,32.5l3.2,4.4l-9.8,0.2l0.2-10.4L47.1,32.5z
		 M35.4,57.1h-3l0.8-3.7H36H36h2.7l0.8,3.7H35.4z M24.9,32.5l6.4-5.8l0.2,10.4l-9.8-0.2L24.9,32.5z M30.3,22.8l-14.5-11l12.1,4.8
		L30.3,22.8z M31.6,38.6l0.3,12.6l-5.2-3.6l-5-9.2L31.6,38.6z M26.6,49.4l4.6,3.2l-5.5,2.7L26.6,49.4z M24.1,54.7l-4.3-6l5.3,0.1
		L24.1,54.7z M45.4,49.4l1,5.9l-5.5-2.7L45.4,49.4z M46.9,48.8l5.3-0.1l-4.3,6L46.9,48.8z M45.4,47.6l-5.2,3.6l0.3-12.6l10-0.2
		L45.4,47.6z M44.2,16.7l12.1-4.8l-14.5,11L44.2,16.7z M36,16.8h6.4l-3.2,8c0,0,0,0,0,0c0,0,0,0,0,0c0,0,0,0,0,0.1c0,0,0,0,0,0
		c0,0,0,0,0,0.1c0,0,0,0,0,0c0,0,0,0,0,0.1c0,0,0,0,0,0c0,0,0,0,0,0c0,0,0,0,0,0l-0.6,26.9H36H36h-2.6L32.8,25c0,0,0,0,0,0
		c0,0,0,0,0,0c0,0,0,0,0,0c0,0,0,0,0-0.1c0,0,0,0,0,0c0,0,0,0,0,0c0,0,0,0,0,0c0,0,0,0,0-0.1c0,0,0,0,0,0c0,0,0,0,0,0l-3.2-8
		L36,16.8L36,16.8L36,16.8z M11.1,32.9l0.2-4.9c0,0,0,0,0,0c0,0,0-0.1,0-0.1c0,0,0,0,0,0c0,0,0-0.1,0-0.1c0,0,0,0,0,0l-2.5-10
		l2.4-7.5l19.6,14.8L24,31.3l-11.7,3.4L11.1,32.9z M12.6,36.2l9.8-2.9l-2.8,3.8c0,0,0,0,0,0c0,0,0,0,0,0.1c0,0,0,0,0,0
		c0,0,0,0,0,0.1c0,0,0,0,0,0c0,0,0,0.1,0,0.1c0,0,0,0,0,0c0,0,0,0,0,0.1c0,0,0,0,0,0c0,0,0,0,0,0c0,0,0,0,0,0.1c0,0,0,0,0,0
		c0,0,0,0.1,0,0.1c0,0,0,0,0,0c0,0,0,0.1,0,0.1c0,0,0,0,0,0c0,0,0,0.1,0,0.1c0,0,0,0,0,0l5.1,9.3L9.5,47L12.6,36.2z M9.4,48.6
		l8.5,0.2l5.4,7.5l-11.2,3.5L9.4,48.6z M40.2,62.2H36H36h-4.1l-5.9-5.3l5.6-2.8l-0.8,3.7c0,0.2,0,0.5,0.2,0.6
		c0.1,0.2,0.4,0.3,0.6,0.3h3.9h5.1c0.2,0,0.4-0.1,0.6-0.3c0.1-0.2,0.2-0.4,0.2-0.6l-0.8-3.7l5.6,2.8L40.2,62.2z M59.8,59.7
		l-11.2-3.5l5.4-7.5l8.5-0.2L59.8,59.7z M62.5,47l-15.2,0.3l5.1-9.3c0,0,0,0,0,0c0,0,0-0.1,0-0.1c0,0,0,0,0,0c0,0,0,0,0-0.1
		c0,0,0,0,0,0c0,0,0-0.1,0-0.1c0,0,0,0,0,0c0,0,0,0,0-0.1c0,0,0,0,0,0c0,0,0,0,0,0c0,0,0,0,0-0.1c0,0,0,0,0,0c0,0,0-0.1,0-0.1
		c0,0,0,0,0,0c0,0,0,0,0,0c0,0,0,0,0,0c0,0,0,0,0-0.1c0,0,0,0,0,0l-2.8-3.8l9.8,2.9L62.5,47z M60.7,27.8
		C60.7,27.8,60.7,27.8,60.7,27.8c0,0,0,0.1,0,0.1c0,0,0,0,0,0c0,0,0,0.1,0,0.1c0,0,0,0,0,0l0.2,4.9l-1.2,1.8L48,31.3l-6.9-6.2
		l19.6-14.8l2.4,7.5L60.7,27.8z"/>
	<path d="M46.4,42.1L43,40.3c-0.2-0.1-0.4-0.1-0.6,0s-0.4,0.2-0.4,0.4l-1.4,3.6c-0.1,0.3,0,0.6,0.2,0.8c0.1,0.1,0.3,0.2,0.5,0.2
		c0.1,0,0.2,0,0.3,0l4.8-1.8c0.3-0.1,0.5-0.4,0.5-0.7C46.8,42.5,46.7,42.3,46.4,42.1z M42.5,43.3l0.5-1.2l1.2,0.6L42.5,43.3z"/>
	<path d="M30.5,45.3c0.1,0,0.2,0,0.3,0c0.2,0,0.4-0.1,0.5-0.2c0.2-0.2,0.3-0.5,0.2-0.8l-1.4-3.6c-0.1-0.2-0.2-0.4-0.4-0.4
		s-0.4-0.1-0.6,0l-3.4,1.8c-0.3,0.1-0.4,0.4-0.4,0.7c0,0.3,0.2,0.6,0.5,0.7L30.5,45.3z M29,42.1l0.5,1.2l-1.7-0.6L29,42.1z"/>
</g>
</svg>
