<?xml version="1.0" encoding="utf-8"?>
<!-- Generator: Adobe Illustrator 28.1.0, SVG Export Plug-In . SVG Version: 6.00 Build 0)  -->
<svg version="1.1" id="Layer_1" xmlns="http://www.w3.org/2000/svg" xmlns:xlink="http://www.w3.org/1999/xlink" x="0px" y="0px"
	 viewBox="0 0 72 72" style="enable-background:new 0 0 72 72;" xml:space="preserve">
<path d="M36.3,7.2C20.3,7.1,7.4,19.8,7.2,35.7C7,51.7,20,64.8,36,64.8c5.9,0,11.4-1.8,16-4.9L28.4,29.4v16.9c0,0.7-0.5,1.2-1.2,1.2
	h-1.5c-0.7,0-1.2-0.5-1.2-1.2V25.7c0-0.7,0.5-1.2,1.2-1.2h3.1c0.4,0,0.7,0.2,0.9,0.5L44,43.4V25.7c0-0.7,0.5-1.2,1.2-1.2h1.5
	c0.7,0,1.2,0.5,1.2,1.2v21.9h-0.6L55,57.6c6.1-5.4,9.9-13.2,9.8-22C64.6,20,51.8,7.4,36.3,7.2z"/>
</svg>
