<?xml version="1.0" encoding="utf-8"?>
<!-- Generator: Adobe Illustrator 28.1.0, SVG Export Plug-In . SVG Version: 6.00 Build 0)  -->
<svg version="1.1" id="Layer_1" xmlns="http://www.w3.org/2000/svg" xmlns:xlink="http://www.w3.org/1999/xlink" x="0px" y="0px"
	 viewBox="0 0 360 180" style="enable-background:new 0 0 360 180;" xml:space="preserve">
<g>
	<path d="M72.4,76.6c-2.4-5.1-7.1-8.3-12.7-8.6c-0.8,0-1.6-0.1-2.4-0.1H36v43h13V97.7h7.9h0c2,0,3.9-0.2,5.8-0.6
		c6-1.2,10.5-6.2,11.1-12.3C74.1,82,73.7,79.2,72.4,76.6z M61,84c-0.1,0.7-0.4,1.3-0.8,1.9c-0.8,1.1-2,1.7-3.3,1.8
		c-1,0.1-1.8,0.1-2.8,0.1H49v-9.3h7.6c2.2,0,4.1,1.7,4.3,3.9C61.1,82.8,61.1,83.4,61,84z"/>
	<path d="M105.3,108.6c-0.2-2.5-0.3-4.7-0.3-7.2c-0.1-3.3-0.1-6.1-0.1-9.5c0-1.7-0.2-3.4-0.7-5.1c-0.5-2.2-2-4.1-4-5.2
		c-1.2-0.7-2.4-1.1-3.8-1.4c-4.2-0.9-8.6-1-12.8-0.3c-1.2,0.2-2.3,0.5-3.5,1c-2.6,1-4.7,3.2-5.5,6c-0.3,1-0.4,2.1-0.3,3.2
		c0,0.2,0.1,0.4,0.2,0.6L85,91c0-0.6,0.1-1.2,0.3-1.8c0.3-0.9,1-1.6,1.9-2c1.3-0.5,2.8-0.5,4.1-0.1c0.9,0.3,1.6,1,1.9,1.9
		c0.2,0.6,0.1,1.2-0.3,1.6c-0.3,0.4-0.7,0.7-1.2,0.9c-0.3,0.1-0.6,0.2-0.9,0.3c-1.4,0.4-2.7,0.7-4.1,0.9c-1.2,0.2-2.1,0.4-3.3,0.6
		c-1.5,0.3-2.9,0.7-4.4,1.1c-1.3,0.4-2.5,1.1-3.6,2.1c-1.4,1.2-2.2,2.9-2.5,4.7c-0.2,1.3-0.1,2.3,0.1,3.6c0.7,3.1,3,5.6,6.1,6.5
		c3.3,1,6.9,0.8,10.2-0.5c1.6-0.6,3-1.6,4-2.9c0.2,0.7,0.4,1.4,0.7,2.1c0.1,0.4,0.3,0.7,0.6,1h11.4
		C105.7,110.3,105.4,109.4,105.3,108.6L105.3,108.6z M93.5,100.4c-0.1,0.8-0.4,1.5-0.8,2.2c-0.5,0.8-1.2,1.4-2,1.7
		c-0.8,0.4-1.6,0.6-2.4,0.6c-0.7,0.1-1.4,0-2.1-0.2c-0.6-0.1-1.1-0.4-1.5-0.9c-0.3-0.4-0.6-0.8-0.7-1.3c-0.2-0.8,0.1-1.5,0.7-2
		c0.4-0.3,0.8-0.6,1.3-0.8c1.1-0.4,2.3-0.8,3.5-1.1c1.5-0.4,2.7-0.9,4.1-1.5C93.7,98.3,93.7,99.2,93.5,100.4z"/>
	<path d="M132.8,79.7c-3-0.9-6.2-0.7-9.1,0.7c-1.7,0.8-3.3,1.8-4.8,3.1l-0.3-3.2h-11.1V111h11.8V93.9c0-0.9,0.2-1.9,0.7-2.7
		c1.2-2,3.7-2.8,5.8-1.9c1,0.4,1.7,1.2,2,2.2c0.2,0.6,0.2,1.1,0.2,1.7V111h12.2V91.2c0-1.6-0.2-3.2-0.7-4.7
		C138.7,83.2,136.1,80.7,132.8,79.7z"/>
	<path d="M174.3,108.6c-0.2-2.5-0.3-4.7-0.3-7.2c-0.1-3.3-0.1-6.1-0.1-9.5c0-1.7-0.2-3.4-0.7-5.1c-0.5-2.2-2-4.1-4-5.2
		c-1.2-0.7-2.4-1.1-3.8-1.4c-4.2-0.9-8.6-1-12.8-0.3c-1.2,0.2-2.3,0.5-3.5,1c-2.6,1-4.7,3.2-5.5,6c-0.3,1-0.4,2.1-0.3,3.2
		c0,0.2,0.1,0.4,0.2,0.6l10.3,0.3c0-0.6,0.1-1.2,0.3-1.8c0.3-0.9,1-1.6,1.9-2c1.3-0.5,2.8-0.5,4.1-0.1c0.9,0.3,1.6,1,1.9,1.9
		c0.2,0.6,0.1,1.2-0.3,1.6c-0.3,0.4-0.7,0.7-1.2,0.9c-0.3,0.1-0.6,0.2-0.9,0.3c-1.4,0.4-2.7,0.7-4.1,0.9c-1.2,0.2-2.1,0.4-3.3,0.6
		c-1.5,0.3-2.9,0.7-4.4,1.1c-1.3,0.4-2.5,1.1-3.6,2.1c-1.4,1.2-2.2,2.9-2.5,4.7c-0.2,1.3-0.1,2.3,0.1,3.6c0.7,3.1,3,5.6,6.1,6.5
		c3.3,1,6.9,0.8,10.2-0.5c1.6-0.6,3-1.6,4-2.9c0.2,0.7,0.4,1.4,0.7,2.1c0.1,0.4,0.3,0.7,0.6,1h11.4
		C174.6,110.3,174.3,109.4,174.3,108.6L174.3,108.6z M162.5,100.4c-0.1,0.8-0.4,1.5-0.8,2.2c-0.5,0.8-1.2,1.4-2,1.7
		c-0.8,0.4-1.6,0.6-2.4,0.6c-0.7,0.1-1.4,0-2.1-0.2c-0.6-0.1-1.1-0.4-1.5-0.9c-0.3-0.4-0.6-0.8-0.7-1.3c-0.2-0.8,0.1-1.5,0.7-2
		c0.4-0.3,0.8-0.6,1.3-0.8c1.1-0.4,2.3-0.8,3.5-1.1c1.5-0.4,2.7-0.9,4.1-1.5C162.6,98.3,162.6,99.2,162.5,100.4z"/>
	<path d="M237.1,84.1c-2.4-2.4-5.6-4-9-4.4l0,0c-1.2-0.2-2.3-0.3-3.5-0.3s-2.3,0.1-3.5,0.3c-3.4,0.5-6.5,2-9,4.4
		c-2.7,2.5-4.3,5.9-4.6,9.6c-0.2,2.2,0,4.5,0.6,6.6c1,3.5,2.8,6.1,5.6,8.3c1.8,1.4,3.8,2.4,6.1,2.8c1.6,0.4,3.2,0.5,4.8,0.5
		c1.7,0,3.1-0.1,4.7-0.5c2.2-0.5,4.3-1.4,6.1-2.8c2.8-2.1,4.8-5,5.6-8.3c0.6-2.3,0.8-4.3,0.6-6.6C241.4,90,239.8,86.6,237.1,84.1z
		 M222.8,103.8C222.8,103.8,222.8,103.8,222.8,103.8c-1-0.5-1.9-1.3-2.3-2.3c-0.4-0.9-0.7-1.9-0.9-3c-0.3-2.2-0.3-4,0.1-6.2
		c0.2-1.1,0.6-2,1.2-3c1.4-2.1,4.1-2.6,6.2-1.3c0.5,0.3,0.9,0.8,1.3,1.3c0.6,0.9,1,1.9,1.2,3c0.4,2.1,0.5,4,0.1,6.2
		c-0.2,1.1-0.4,2-0.9,3C227.8,103.8,225.1,104.8,222.8,103.8z"/>
	<path d="M204.1,94.7c-1.5-1.3-3.2-2.2-5.1-2.8l-1.2-0.4c-2.3-0.6-4.6-1.1-7-1.5c-0.7-0.1-1.2-0.2-1.9-0.4c-0.3-0.1-0.6-0.2-0.8-0.3
		c-0.7-0.3-1-1.1-0.7-1.8l0,0l0.1-0.1c0.4-0.6,0.9-1.1,1.6-1.3c1.3-0.4,2.5-0.3,3.7,0.1c1.2,0.4,2,1.5,1.9,2.8h10.8
		c0-1.3-0.2-2.5-0.7-3.7c-0.4-1.2-1.2-2.3-2.2-3.1c-0.9-0.7-1.8-1.3-2.9-1.7c-1-0.4-2.1-0.7-3.1-0.9c-2.5-0.5-5.1-0.6-7.7-0.4
		c-1.6,0.1-2.9,0.3-4.4,0.6c-2,0.5-3.7,1.3-5.3,2.6c-1.4,1-2.4,2.5-2.9,4.1c-0.7,2-0.6,4.1,0.2,6c0.8,2.2,2.5,3.9,4.7,4.7
		c1.1,0.5,2.1,0.7,3.3,1c2.4,0.5,4.4,0.9,6.7,1.3l0,0c0.9,0.1,1.6,0.3,2.5,0.6c0.7,0.2,1.2,0.8,1.3,1.5c0.2,0.8-0.1,1.6-0.6,2.1
		c-0.5,0.6-1.3,0.9-2,1c-1.1,0.2-2,0.1-3.1-0.3c-0.5-0.2-0.9-0.4-1.3-0.7c-0.5-0.4-0.9-1-1.1-1.6c-0.2-0.5-0.2-1.1-0.2-1.6h-11.2
		v0.7c0,1.1,0.2,2,0.5,2.9c0.6,1.5,1.3,2.6,2.5,3.7c1.4,1.4,3.2,2.4,5.1,2.9c3.9,1.2,8.1,1.4,12.2,0.8c1.9-0.3,3.8-0.9,5.5-1.8
		c0.8-0.4,1.5-0.9,2.1-1.4c3-2.5,4.2-6.5,3-10.2C206,96.9,205.2,95.7,204.1,94.7z"/>
	<path d="M268.6,79.7c-3-0.9-6.2-0.7-9.1,0.7c-1.7,0.8-3.3,1.8-4.8,3.1l-0.3-3.2h-11.1V111h11.8V93.9c0-0.9,0.2-1.9,0.7-2.7
		c1.2-2,3.7-2.8,5.8-1.9c1,0.4,1.7,1.2,2,2.2c0.2,0.6,0.2,1.1,0.2,1.7V111h12.2V91.2c0-1.6-0.2-3.2-0.7-4.7
		C274.4,83.2,271.9,80.7,268.6,79.7z"/>
	<path d="M324,98.3h-11.1c0,0.7-0.1,1.2-0.2,1.9c-0.1,0.9-0.5,1.7-1.2,2.4c-0.6,0.7-1.4,1.1-2.2,1.2c-1.4,0.2-2.8-0.2-3.8-1.2
		c-0.9-0.8-1.5-1.9-1.8-3c-0.8-2.8-0.8-5.7,0.1-8.4c0.4-1.2,1.1-2.2,2.2-2.8c1.5-1,3.5-0.9,4.9,0.2c1.1,0.8,1.8,2,2,3.4h10.5
		c0.1-1.7-0.3-3.5-1.1-5c-0.7-1.3-1.6-2.5-2.6-3.5c-1.7-1.6-3.8-2.8-6-3.3c-3.3-0.9-6.3-0.9-9.7-0.2c-5.9,1.2-10.3,5.3-11.8,11.1
		c-0.7,2.6-0.8,4.8-0.4,7.5c0.3,1.8,0.9,3.5,1.8,5.1c1.2,2,2.7,3.8,4.6,5.2c2.3,1.8,5,2.8,7.9,3.1c2.3,0.2,4.2,0.1,6.4-0.3
		c3.2-0.6,6.1-2.2,8.2-4.6l0,0C323.1,104.7,324.2,101.5,324,98.3z"/>
	<rect x="278.5" y="80.3" width="11.5" height="30.7"/>
	<rect x="278.5" y="68" width="11.5" height="8.1"/>
</g>
</svg>
