<?xml version="1.0" encoding="utf-8"?>
<!-- Generator: Adobe Illustrator 28.1.0, SVG Export Plug-In . SVG Version: 6.00 Build 0)  -->
<svg version="1.1" id="Layer_1" xmlns="http://www.w3.org/2000/svg" xmlns:xlink="http://www.w3.org/1999/xlink" x="0px" y="0px"
	 viewBox="0 0 2626 2626" style="enable-background:new 0 0 2626 2626;" xml:space="preserve">
<g>
	<path style="fill-rule:evenodd;clip-rule:evenodd;" d="M2217.71,99.76H408.31v1289.06c0,397.43,18.31,572.61,193.5,792.27
		c183.03,227.48,441.88,345.14,716.44,345.14c258.86,0,533.41-117.66,716.42-350.39c169.97-214.4,183.04-379.13,183.04-787.03V99.76
		z M457.98,152.06h1712.66v1249.84c0,360.82-10.47,530.8-185.65,750.42c-154.28,193.51-397.43,316.4-669.37,316.4
		c-269.32,0-525.56-128.13-682.44-329.46c-169.96-219.63-175.18-371.29-175.18-776.56V152.06H457.98L457.98,152.06z
		 M2128.79,1616.31c0-444.5-360.82-807.94-813.18-807.94c-452.33,0-815.79,363.44-815.79,807.94c0,452.35,363.45,815.8,810.57,815.8
		C1762.73,2432.11,2128.79,2066.04,2128.79,1616.31L2128.79,1616.31z M766.52,447.53c0-120.28-109.82-120.28-243.17-120.28v305.92
		h83.67v-67.97C711.61,565.19,766.52,523.36,766.52,447.53L766.52,447.53z M881.57,327.25h-75.83v305.92h75.83V518.12h81.06v115.04
		h81.06V327.25h-81.06v112.43h-81.06V327.25z M1195.34,327.25h-75.82v305.92h75.82V327.25z M1352.22,327.25h-78.44v305.92h159.5
		v-67.97h-81.06V327.25L1352.22,327.25z M1553.56,327.25h-78.45v305.92h78.45L1553.56,327.25L1553.56,327.25z M1875.17,447.53
		c0-120.28-122.91-120.28-240.55-120.28v305.92h78.43v-67.97C1801.96,565.19,1875.17,536.42,1875.17,447.53L1875.17,447.53z
		 M1906.54,565.19v73.21c26.17,2.62,41.85,5.23,60.17,5.23c94.11,0,138.57-44.46,138.57-109.82c0-99.36-112.42-67.99-112.42-109.81
		c0-13.07,18.29-20.92,52.28-20.92h28.78v-75.83c-112.45,0-177.8,15.68-177.8,94.13c0,107.21,120.27,86.29,120.27,120.28
		c0,13.07-26.15,23.53-62.77,23.53H1906.54z M559.96,1550.96c73.21-31.39,122.89-44.46,180.41-44.46
		c162.11,0,211.8,104.59,389.6,104.59c133.36,0,240.55-104.59,394.81-104.59c130.74,0,258.86,101.96,360.84,101.96
		c96.74,0,159.49-33.97,185.62-49.67l2.63,31.39c-49.7,36.6-96.77,57.53-177.8,57.53c-143.83,0-230.11-104.59-373.92-104.59
		c-154.28,0-248.4,107.21-392.21,107.21c-159.49,0-237.93-101.98-384.36-101.98c-60.14,0-138.58,18.31-185.64,36.6L559.96,1550.96
		L559.96,1550.96z M941.7,962.62c83.67-44.45,107.21-52.29,169.96-70.59l-20.91,130.74l-135.96,23.53L941.7,962.62L941.7,962.62z
		 M941.7,1506.5l31.37-224.87l251.02-41.84l-88.89-15.68l20.92-141.2l146.43-31.37l-146.43-28.77l-20.92-138.58
		c73.21-15.68,109.82-20.92,172.58-20.92c410.52,0,679.82,285.01,758.28,637.98c-39.21,28.78-91.53,52.31-175.2,52.31
		c-149.02,0-217.01-104.59-381.75-104.59c-162.12,0-232.7,109.82-386.98,109.82C1038.44,1558.78,986.16,1537.88,941.7,1506.5
		L941.7,1506.5z M954.79,1061.98l135.96,20.92l15.68,133.34l-133.36-18.3L954.79,1061.98L954.79,1061.98z M557.34,1647.7
		c120.28-39.23,135.96-44.46,183.03-44.46c164.73,0,227.48,104.59,386.98,104.59c128.12,0,245.79-109.82,392.21-109.82
		c135.95,0,211.8,104.56,373.89,104.56c54.91,0,104.59-13.07,180.44-41.83v28.75c-65.38,39.23-109.84,52.31-188.27,52.31
		c-162.12,0-230.11-101.98-368.68-101.98c-164.73,0-237.94,104.59-392.22,104.59c-149.04,0-237.94-101.98-392.21-101.98
		c-39.22,0-88.89,10.47-172.58,36.6L557.34,1647.7L557.34,1647.7z M565.19,1733.97c70.59-26.15,115.04-36.6,169.96-36.6
		c156.9,0,232.7,107.21,386.98,107.21c146.43,0,237.93-107.21,392.19-107.21c73.23,0,125.52,18.29,172.59,49.67l-26.15,209.19
		l-253.65,47.07l88.91,20.89l-15.68,135.97l-154.28,31.39l154.28,39.21l23.53,122.89c-67.99,15.71-109.84,20.92-175.2,20.92
		C931.25,2374.59,622.71,2097.42,565.19,1733.97L565.19,1733.97z M565.19,1490.79c20.91-109.81,36.6-151.63,83.67-237.92
		l240.55,28.75l23.53,211.8c-83.67-33.99-125.51-44.46-167.34-44.46C682.85,1448.96,614.86,1469.9,565.19,1490.79z M1524.78,2029.44
		l135.98,15.68l13.07,128.13l-133.34-13.07L1524.78,2029.44L1524.78,2029.44z M1532.63,2343.2l7.85-112.42l135.95-26.15l13.07,70.59
		C1634.62,2309.21,1611.08,2319.66,1532.63,2343.2L1532.63,2343.2z M607.02,403.08c47.07,0,65.37,7.83,65.37,41.84
		c0,39.22-18.3,49.69-65.37,49.69V403.08z M1713.05,403.08c47.07,0,67.99,2.62,67.99,47.07c0,36.6-28.78,44.45-67.99,44.45V403.08z
		 M1718.29,1762.73c65.35,20.92,120.27,33.99,183.02,33.99c54.91,0,86.27-7.83,162.12-41.83c-13.07,86.27-39.23,156.88-78.45,224.87
		l-248.4-23.53L1718.29,1762.73L1718.29,1762.73z M1723.51,2259.52l13.07-214.4l224.87-31.36
		C1896.09,2126.18,1849.03,2178.46,1723.51,2259.52z M664.55,1226.71c65.37-101.97,122.89-172.58,251.02-251.02l-26.16,222.25
		L664.55,1226.71L664.55,1226.71z"/>
</g>
</svg>
