<?xml version="1.0" encoding="utf-8"?>
<!-- Generator: Adobe Illustrator 28.1.0, SVG Export Plug-In . SVG Version: 6.00 Build 0)  -->
<svg version="1.1" id="svg2516" xmlns:svg="http://www.w3.org/2000/svg"
	 xmlns="http://www.w3.org/2000/svg" xmlns:xlink="http://www.w3.org/1999/xlink" x="0px" y="0px" viewBox="0 0 360 180"
	 style="enable-background:new 0 0 360 180;" xml:space="preserve">
<g>
	<path d="M158.3,73.2h-6.7c-2,0-3.6,1.6-3.6,3.6v15.6c0,1.3-1.1,2.4-2.4,2.4s-2.4-1.1-2.4-2.4V76.9c0-2-1.6-3.7-3.6-3.7h-6.7
		c-2,0-3.6,1.4-3.6,3.3v17.9c0,5.3,4,11.1,11.2,11.1h0.2c3.9,0,5.4-1.3,7-2.6c0.6-0.7,0.8-0.6,0.8-0.1c0,4-4.3,7.5-7.7,7.5l-4.9-0.1
		c-1.4,0-2.3,1.7-2.3,2.6c0,1.4,0,2.1,0,3.7c-0.1,3.5,3.2,4.2,7.3,4.2h4.9c5.3,0,16.2-6.4,16.2-17.4V76.8
		C161.9,74.8,160.3,73.2,158.3,73.2z"/>
	<path d="M198.8,71.5c-3.5,0-6.7,1.1-9.4,3c-2.6-1.9-5.9-3-9.4-3c-9.1,0-16.4,7.3-16.4,16.5v15.1c0,1.9,1.8,3.6,3.6,3.6h6.7
		c1.9,0,3.6-1.8,3.6-3.6V87.9c0-1.3,1.1-2.4,2.4-2.4s2.4,1.1,2.4,2.5v15.1c0,1.9,1.8,3.6,3.6,3.6h6.7c1.9,0,3.6-1.8,3.6-3.6V87.9
		c0-1.3,1.1-2.4,2.4-2.4s2.4,1.1,2.4,2.4v15.2c0,1.9,1.8,3.6,3.6,3.6h6.7c1.9,0,3.6-1.8,3.6-3.6V87.9
		C215.1,78.9,207.8,71.5,198.8,71.5z"/>
	<path d="M54.5,71.5C44.3,71.5,36,79.8,36,90v27.2c0,2,1.6,3.6,3.7,3.6h6.7c2,0,3.6-1.6,3.6-3.6V90c0-2.5,2-4.5,4.5-4.5
		s4.5,2,4.5,4.5s-1.2,3.9-3.3,4.3c-1.4,0.2-3.3,1.2-3.3,3.3v7.6c0,3.3,3.3,3.3,3.3,3.3c9,0,17.4-8.3,17.4-18.5
		C73,79.8,64.7,71.5,54.5,71.5z"/>
	<path d="M235.2,71.5c-10.2,0-18.5,8.3-18.5,18.5s8.3,18.5,18.5,18.5s18.5-8.3,18.5-18.5S245.4,71.5,235.2,71.5z M235.2,94.8
		c-2.5,0-4.5-2-4.5-4.5c0-2.5,2-4.5,4.5-4.5c2.5,0,4.5,2,4.5,4.5C239.7,92.8,237.7,94.8,235.2,94.8z"/>
	<path d="M108.9,71.5c-10.2,0-18.5,8.3-18.5,18.5s8.4,18.5,17.4,18.5c0,0,3.3,0,3.3-3.3v-7.6c0-2.1-1.9-3.1-3.3-3.3
		c-2.2-0.3-3.3-1.8-3.3-4.3c0-2.5,2-4.5,4.5-4.5s4.5,2,4.5,4.5v13.1c0,2,1.6,3.6,3.6,3.6h6.7c2,0,3.6-1.6,3.6-3.6V90
		C127.3,79.8,119,71.5,108.9,71.5z"/>
	<path d="M85,59.2h-6.7c-2,0-3.6,1.6-3.6,3.6v40.3c0,2,1.6,3.6,3.6,3.6H85c2,0,3.6-1.6,3.6-3.6V62.9C88.7,60.8,87,59.2,85,59.2z"/>
	<path d="M318.8,98.5c0-0.5-0.5-1.1-1-1.1h-2.1v2.1h2C318.3,99.5,318.8,99,318.8,98.5z"/>
	<path d="M317,94.2c-3.2,0-5.7,2.6-5.7,5.8c0,3.2,2.6,5.8,5.7,5.8s5.7-2.6,5.7-5.8C322.8,96.8,320.2,94.2,317,94.2z M318.7,103.4
		l-1.9-3h-1.1v3.1h-1v-7h3c1.1,0,2.1,0.8,2.1,1.9s-0.6,1.9-1.7,1.9l2,3.1H318.7z"/>
	<path d="M320.4,59.4h-6.7c-2,0-3.6,1.6-3.6,3.6v40.3c0,2,1.6,3.6,3.6,3.6h6.7c2,0,3.6-1.6,3.6-3.6V63C324,61,322.4,59.4,320.4,59.4
		z M317,106.4c-3.5,0-6.4-2.9-6.4-6.4c0-3.5,2.9-6.4,6.4-6.4c3.5,0,6.4,2.9,6.4,6.4S320.6,106.4,317,106.4z"/>
	<path d="M275,71.6c0,0-3.3,0-3.3,3.3v7.6c0,2.1,1.9,3.1,3.3,3.3c2.2,0.3,3.3,1.8,3.3,4.3c0,2.5-2,4.5-4.5,4.5s-4.5-2-4.5-4.5V63
		c0-2-1.6-3.6-3.6-3.6h-6.7c-2,0-3.6,1.6-3.6,3.6v27.1c0,10.2,8.3,18.5,18.5,18.5s18.5-8.3,18.5-18.5S284,71.6,275,71.6z"/>
	<path d="M302.7,69.9c3.6-2.4,4.5-7.1,2.1-10.6h-18.7l5.7,8.5C294.2,71.4,299.1,72.4,302.7,69.9z"/>
	<path d="M304.4,73.3h-6.7c-2,0-3.6,1.6-3.6,3.6v26.3c0,2,1.6,3.6,3.6,3.6h6.7c2,0,3.6-1.6,3.6-3.6V77C308,75,306.4,73.3,304.4,73.3
		z"/>
</g>
</svg>
