<?xml version="1.0" encoding="utf-8"?>
<!-- Generator: Adobe Illustrator 28.1.0, SVG Export Plug-In . SVG Version: 6.00 Build 0)  -->
<svg version="1.1" id="svg2516" xmlns:svg="http://www.w3.org/2000/svg"
	 xmlns="http://www.w3.org/2000/svg" xmlns:xlink="http://www.w3.org/1999/xlink" x="0px" y="0px" viewBox="0 0 1024 407"
	 style="enable-background:new 0 0 1024 407;" xml:space="preserve">
<path id="path10907" d="M816,1.1l-22,15.2c-5.6,8.5-9.6,16.6-15.2,23.7c-2.4,0.8-5,1.2-7.9,1.7c-9.9,1.7-14.6-4.4-23.7-7.3
	c-16-5.4-25.2-9-38.3-16.9l-21.4,15.2c-8.4,8.2-3.6,15.8-4.5,24.8c-21.3-10.7-36.5-18.8-64.8-20.3l-22,14.7c-2,12.5-6.5,22-14.7,31
	c-12.2-0.4-25.3-17.7-42.8-20.8c-6.2-1.1-11-0.3-14.7,2.3l-21.4,15.2c-3.6,2.5-6.8,6.2-9.6,10.1c-0.7,1-1.5,1.8-2.3,2.8
	c-0.1,0,1.4,8,11.8-3.9c4.6-3.1,8.1-7.5,11.3-11.8c1,0.1,1.7-0.2,2.8,0c21.3,3.8,36.3,28.5,50.7,18.6l22-15.2
	c0.3-0.2,0.8-0.3,1.1-0.6c11.2-8.8,18.2-16.2,22.5-25.4c21,3.8,34.9,12,55.2,22l22-15.2c5.3-5.4,11.4-7.7,13.5-14.1
	c0.6-1.7,1-3.4,1.1-5.1c6,2.6,12.1,5.1,20.3,7.9c9,2.9,14.3,9,24.2,7.3c8.5-1.5,14.6-4.4,19.7-7.9l22-14.7
	c4.5-3.1,11.6-12.2,14.7-16.3c8.8,3.5,23.9,7.9,32.1,7.9c0,0,4.6-11.8,3.4-12.4C836.1,9.6,821.5,5.9,816,1.1z M829.5,54.1
	c-3,1.3-4.4,8.5-2.8,21.4c13.1,29.5,23.3,90.6-7.9,136.4c-32.7,38.7-70.8,55.2-124.5,62c-130.4,16.4-188.3-95.5-193.8-142
	c-1.2,3.1-14.9,13.8-14.1,18.6c10.8,89.4,106.6,152.9,193.3,142c57.8-7.3,98.2-25.2,132.4-70.4l14.1-19.2c2.4-3.2,2.5-6.5,4.5-10.1
	c26.2-48.8,24.3-90.9,5.6-134.7C833.7,54.8,831.3,53.3,829.5,54.1z M745,87.9c-1.9-0.1-3.7,0.2-5.6,0.6
	c-15.4,2.7-25.8,17.3-23.1,32.7c2.8,15.4,17.3,25.8,32.7,23.1c15.4-2.7,25.9-17.3,23.1-32.7C769.6,98.1,758.1,88.3,745,87.9z
	 M594,114.4c-1.9-0.1-4.3,0.2-6.2,0.6c-15.4,2.7-25.3,17.3-22.5,32.7c2.7,15.4,17.3,25.2,32.7,22.5c15.4-2.7,25.8-17.3,23.1-32.7
	C618.6,124,607.1,114.8,594,114.4z M708.9,175.8c-1,0.2-1.7,1.6-2.3,2.3c-6.9,7.5-16.5,12.7-27.6,14.7c-10.7,1.6-21-0.5-29.9-5.1
	c-0.8-0.4-1.9-0.7-2.8-0.6c-2.2,0.4-3.8,2.3-3.4,4.5c6.1,18.3,23.3,30.7,41.1,27.6c17.9-3.1,29.9-20.7,29.3-40
	C713,177,711.1,175.4,708.9,175.8z"/>
<g>
	<path d="M434.7,237.8h-23.9c-7.1,0-12.9,5.8-12.9,12.9l0,55.5c0,4.7-3.8,8.5-8.5,8.5c-4.7,0-8.5-3.8-8.5-8.5V251
		c0-7.1-5.8-13.2-12.9-13.2h-23.9c-7.1,0-12.9,4.8-12.9,11.9v63.7c0,18.9,14.2,39.4,39.7,39.4h0.7c14,0,19.3-4.7,24.8-9.1
		c2-2.5,3-2,3-0.5c0,14.3-15.2,26.7-27.5,26.6l-17.3-0.2c-5.1-0.1-8.1,6-8.1,9.3c0,5.1,0.1,7.4,0,13c-0.2,12.6,11.2,15.1,26,15.1
		h17.4c18.9,0,57.7-22.8,57.7-61.7l0-94.6C447.6,243.6,441.8,237.8,434.7,237.8z"/>
	<path d="M578.7,231.8c-12.4,0-23.9,3.9-33.3,10.5c-9.4-6.6-20.9-10.5-33.3-10.5c-32.2,0-58.2,26.1-58.2,58.7v53.7
		c0,6.6,6.3,12.9,12.9,12.9h23.9c6.6,0,12.9-6.3,12.9-12.9v-54.2c0-4.7,3.8-8.5,8.5-8.5c4.7,0,8.5,3.8,8.5,9v53.7
		c0,6.6,6.3,12.9,12.9,12.9h23.9c6.6,0,12.9-6.3,12.9-12.9v-54.2c0-4.7,3.8-8.5,8.5-8.5c4.7,0,8.5,3.8,8.5,8.5v54.2
		c0,6.6,6.3,12.9,12.9,12.9H624c6.6,0,12.9-6.3,12.9-12.9v-54.2C636.9,257.9,610.8,231.8,578.7,231.8z"/>
	<path d="M65.7,231.8C29.4,231.8,0,261.2,0,297.5v96.6C0,401.2,5.8,407,13,407h23.9c7.1,0,12.9-5.8,12.9-12.9v-96.6
		c0-8.8,7.1-15.9,15.9-15.9c8.8,0,15.9,7.1,15.9,15.9c0,8.8-4.3,14-11.9,15.2c-5,0.8-11.9,4.4-11.9,11.7v26.9
		c0,11.9,11.9,11.9,11.9,11.9c31.9,0,61.7-29.4,61.7-65.7C131.4,261.2,102,231.8,65.7,231.8z"/>
	<path d="M708.3,231.8c-36.3,0-65.7,29.4-65.7,65.7c0,36.3,29.4,65.7,65.7,65.7c36.3,0,65.7-29.4,65.7-65.7
		C774,261.2,744.6,231.8,708.3,231.8z M708.3,314.6c-8.8,0-15.9-7.1-15.9-15.9c0-8.8,7.1-15.9,15.9-15.9c8.8,0,15.9,7.1,15.9,15.9
		C724.2,307.5,717.1,314.6,708.3,314.6z"/>
	<path d="M259,231.8c-36.3,0-65.7,29.4-65.7,65.7c0,36.3,29.9,65.7,61.7,65.7c0,0,11.9,0,11.9-11.9v-26.9c0-7.3-6.9-10.9-11.9-11.7
		c-7.7-1.2-11.9-6.4-11.9-15.2c0-8.8,7.1-15.9,15.9-15.9c8.8,0,15.9,7.1,15.9,15.9v46.6c0,7.1,5.8,12.9,12.9,12.9h23.9
		c7.1,0,12.9-5.8,12.9-12.9v-46.6C324.7,261.2,295.2,231.8,259,231.8z"/>
	<path d="M174.2,188h-23.9c-7.1,0-12.9,5.8-12.9,12.9v143.3c0,7.1,5.8,12.9,12.9,12.9h23.9c7.1,0,12.9-5.8,12.9-12.9V201
		C187.2,193.8,181.4,188,174.2,188z"/>
	<path d="M1005.3,327.6c0-1.9-1.6-3.8-3.6-3.8h-7.3v7.4h7.2C1003.5,331.2,1005.3,329.5,1005.3,327.6z"/>
	<path d="M999.1,312.4c-11.3,0-20.4,9.2-20.4,20.5c0,11.3,9.1,20.5,20.4,20.5c11.3,0,20.4-9.2,20.4-20.5
		C1019.6,321.6,1010.4,312.4,999.1,312.4z M1005,345.2l-6.7-10.7h-4v10.9h-3.7v-24.9h10.7c3.9,0,7.3,2.8,7.3,6.7
		c0,3.9-2.2,6.9-6.2,6.9l7.1,11.1H1005z"/>
	<path d="M1011,188.6h-23.9c-7.1,0-12.9,5.8-12.9,12.9v143.3c0,7.1,5.8,12.9,12.9,12.9h23.9c7.1,0,12.9-5.8,12.9-12.9V201.5
		C1024,194.4,1018.2,188.6,1011,188.6z M999.1,355.8c-12.6,0-22.8-10.2-22.8-22.8c0-12.6,10.2-22.8,22.8-22.8
		c12.6,0,22.8,10.2,22.8,22.8C1021.9,345.6,1011.7,355.8,999.1,355.8z"/>
	<path d="M849.7,232.2c0,0-11.9,0-11.9,11.9V271c0,7.3,6.9,10.9,11.9,11.7c7.7,1.2,11.9,6.4,11.9,15.2c0,8.8-7.1,15.9-15.9,15.9
		c-8.8,0-15.9-7.1-15.9-15.9v-96.5c0-7.1-5.8-12.9-12.9-12.9H793c-7.1,0-12.9,5.8-12.9,12.9v96.5c0,36.3,29.4,65.7,65.7,65.7
		c36.3,0,65.7-29.4,65.7-65.7C911.5,261.6,881.6,232.2,849.7,232.2z"/>
	<path d="M948.2,226.2c12.8-8.6,16-25.1,7.4-37.8h-66.4l20.2,30.3C918.1,231.5,935.4,234.8,948.2,226.2z"/>
	<path d="M954.1,238.3h-23.9c-7.1,0-12.9,5.8-12.9,12.9v93.6c0,7.1,5.8,12.9,12.9,12.9h23.9c7.1,0,12.9-5.8,12.9-12.9v-93.6
		C967.1,244.1,961.3,238.3,954.1,238.3z"/>
</g>
</svg>
