<?xml version="1.0" encoding="utf-8"?>
<!-- Generator: Adobe Illustrator 28.1.0, SVG Export Plug-In . SVG Version: 6.00 Build 0)  -->
<svg version="1.1" id="Layer_1" xmlns="http://www.w3.org/2000/svg" xmlns:xlink="http://www.w3.org/1999/xlink" x="0px" y="0px"
	 viewBox="0 0 72 72" style="enable-background:new 0 0 72 72;" xml:space="preserve">
<g>
	<path d="M43.7,37.4C43,36.3,42.9,35,41.8,34c-0.8-0.7-1.6-1.1-1.9-1.5c-0.5-0.8-1-2.8-1.3-3.2c0,0,0.8-1.6,0.8-2.8
		c0-1.2,0.1-1.5-0.2-2.3c-0.3-0.8-0.8-0.8-0.8-1.3c0-0.6,0.3-1.2,0.3-1.4c0.1-1.1,0.7-2.7,0.7-2.7s0.3,0.8,0.5,1.5
		c0.1,0.5,0.6,1.1,0.7,1.5c0.1,0.3,0.3,0.8,0.8,1.8c0.5,1.1,0.7,1.3,0.7,2.2c0,1.2-0.3,1.5-0.3,2.3c0,0.4,0.1,1.5,0.5,1.5
		c0.5,0,1.1-1.2,1.1-1.6c0-0.4-0.2-0.4-0.3-0.9c-0.1-0.4-0.2-0.4-0.3-1.3c-0.2-1-0.4-3.1-0.5-3.8c-0.1-0.6-0.6-1.9-0.7-2.2
		c-0.1-0.3-0.3-1.9-0.5-2.3c-0.1-0.4-0.4-0.8-0.5-1.3c-0.1-0.5,0-0.9-0.1-1.2c-0.1-0.3-0.5-1.3-1.2-1.3c-1.8,0-2.1-0.8-2.1-1.1
		c0-1.2,0.9-1.9,0.9-2.5c0-1-0.2-1.3-0.5-1.8c-0.2-0.5-0.4-1-0.9-1c-1.2,0-1.5,1.2-1.5,1.8c0,0.6,0.1,0.7,0.1,1.3s0,2.1,0.1,2.3
		c0.2,0.3,0.6,0.2,0.6,0.8c0,0.7-0.5,1-1.1,1.3c-0.7,0.4-1.4,0.6-1.6,1.1c-0.3,0.4-0.9,3.7-1.3,5c-0.2,0.8-0.7,1.2-0.9,2.1
		c-0.3,1.6-0.4,2.6-0.8,4c-0.1,0.3-0.1,0.6-0.1,0.9c0,0.3-0.1,0.7-0.1,1.1c0,0.8,0.2,1.2,0.7,1.2c0.6,0,0.5-0.3,0.4-0.7
		c0,0,0.2-0.2,0.2-0.5c0-0.2-0.5-0.9-0.5-1.7c0-0.6,0.8-2,1-2.5c0.1-0.5,0.3-1.1,0.6-1.6c0.5-0.6,1.1-1.3,1.7-2.9c0,0,0.2,1,0.2,2.4
		c0,1.1-0.1,2.2-0.1,2.6c0,0.7,0.4,2.7,0.4,2.7s0.1,0.7,0.3,1.5c0.2,0.9,0.7,1.3,0.7,1.3s-0.5,2.8-0.5,3.4s0.2,1,0.3,1.3
		c0,0.3,0.1,0.9,0.1,0.9c-11.6,0.1-20.9,5.9-20.9,13c0,9.9,9.6,15.3,21.3,15.3c11.7,0,21.3-6.3,21.3-15.3
		C57.3,44,51.7,39.2,43.7,37.4z M57.1,49.2l-0.5-0.1l0-0.6l0.4,0.1L57.1,49.2z M56.8,47.3l-0.4-0.1l-0.2-0.5l0.4,0L56.8,47.3z
		 M56.6,46.5h-0.4L56,46l0.4,0L56.6,46.5z M56.3,45.8l-0.4,0l-0.2-0.5l0.4,0L56.3,45.8z M56,45.2l-0.4,0l-0.3-0.5l0.3,0L56,45.2z
		 M55.5,44.6l-0.3,0.1l-0.3-0.4l0.3-0.1L55.5,44.6z M55.2,44l-0.4,0.1l-0.3-0.4l0.3-0.1L55.2,44z M54.7,43.5l-0.3,0.1L54,43.1
		l0.3-0.1L54.7,43.5z M54.2,42.9L53.9,43l-0.4-0.4l0.2-0.1L54.2,42.9z M53.6,42.4l-0.3,0.1l-0.4-0.4l0.2-0.1L53.6,42.4z M53,41.9
		L52.8,42l-0.5-0.4l0.2-0.1L53,41.9z M52.4,41.4l-0.2,0.1l-0.5-0.3l0.2-0.1L52.4,41.4z M51.8,40.9L51.6,41L51,40.7l0.2-0.1
		L51.8,40.9z M51.1,40.5l-0.2,0.1l-0.6-0.3l0.2-0.1L51.1,40.5z M49.8,39.7l0.5,0.3l-0.2,0.1l-0.5-0.3L49.8,39.7z M49.1,39.3l0.6,0.3
		l-0.2,0.1l-0.5-0.3L49.1,39.3z M48.3,39l0.6,0.3l-0.2,0.1l-0.6-0.3L48.3,39z M47.5,38.7l0.5,0.3L48,39l-0.5-0.2L47.5,38.7z
		 M46.7,38.4l0.7,0.3l-0.1,0.1l-0.6-0.2L46.7,38.4z M45.9,38.1l0.6,0.2l-0.1,0.1l-0.7-0.2L45.9,38.1z M45.1,37.8l0.6,0.2l-0.1,0.1
		l-0.6-0.2L45.1,37.8z M44.2,37.6l0.6,0.2l-0.1,0.1l-0.6-0.2L44.2,37.6z M44,37.6l-0.1,0.1l-0.1-0.2L44,37.6z M43.7,42.6
		c-0.1,0.2-0.7,0.4-0.7,0.8c0,0.2,0.1,0.2,0.3,0.2s0.3-0.1,0.5-0.1c0.3,0.1,0.9,0.3,1.2,0.6c0.4,0.7,0.8,1.7,0.9,2.4
		c-1-0.1-6-0.6-6-0.6l3.8-3.6C43.7,42.4,43.8,42.5,43.7,42.6z M44.9,41.6c0-0.5,0.2-0.8,0.2-0.8c3.6,1.7,5.9,4.3,5.9,7.1
		c0,0.4-0.1,0.8-0.2,1.2c-0.4-0.1-1.4-0.6-1.6-1.2c-0.1-0.5-0.1-0.6-0.1-0.7c0-0.1-0.2-0.8-0.4-1.4c-0.3-0.8-1.6-1.6-1.6-1.9
		c-0.1-0.3,0-0.7,0-0.9c0-0.2-0.3-0.4-0.7-0.4c-0.4,0-0.6,0.2-1,0.2c-0.4,0-0.6-0.1-0.6-0.1C45,42.3,44.9,42.3,44.9,41.6z
		 M44.2,55.3C41.8,56.3,39,57,36,57c-8.3,0-15-3.6-15-9c0-4.9,6.5-8.8,14.5-9c-0.1,1,0,2.1,0,2.1l-1.3,3.4L27.7,42l-0.1,0.1l4,3.9
		l-8.1,1v0.2l8,1l-5.2,4.7l0.1,0.1l7.7-3.3l1.7,5.8l0.2,0l1.6-5.9l7.7,3.3l0.1-0.1l-4.7-4.2c0,0,2.4,0.6,2.9,0.9s1.8,1.1,2.5,1.4
		c0.7,0.3,0.8,0.2,1.1,0.3c0.2,0.1,1.8,1.3,1.8,1.3c-0.8,0.8-1.8,1.5-2.9,2.2c0,0-0.8-0.5-1.5-0.1C43.8,54.8,44.2,55.3,44.2,55.3z
		 M32.7,46.5l-2.4,0v0.1l2.5,0c0.2,0.3,1.1,0.3,1.1,0.3l0.1,0.2c0,0-0.2,0.4-0.2,0.6s0.2,0.3,0.3,0.3c0.1,0,0.5-0.1,0.5-0.1
		c0.8,0.6,2.3,0.4,2.9-0.2c0.5,0.1,1.3,0.3,1.3,0.3l-0.9,0.1l-2,6.9l-2-6.9L24,47l9.8-1.2l1.7-4.4c0,0,0,0.8-0.1,1.3
		s-0.1,0.8-0.3,1.2c-0.1,0.4-0.3,1.1-0.3,1.1s-0.8,0.9-1.1,1c-0.3,0.1-0.9,0-0.9,0.4C32.7,46.4,32.7,46.5,32.7,46.5z M37.8,48.8
		l0.1-0.4l5.8,3.6l0.2,0L38,48.2l0.9-0.2l1.2,0.3l4.6,4.1l-7.2-3l0.2-0.5l2.6,1.5l0.1-0.1L37.8,48.8z M30.3,49.8l2.5-1.6l0.6,0
		l-5.8,3.7l0.1,0.1l6-3.7l0.3,1.1l-7.3,3.1l5.1-4.5l0.8,0.1l-2.4,1.6L30.3,49.8z M33.8,45.3l-0.1,0.3l-4.9-2.9l-0.1,0l4.9,3
		l-1.7,0.2l-3.9-3.7l6.1,2.4l-0.2,0.5l-2.2-1.3l-0.1,0L33.8,45.3z M43.3,47.5l2.6-0.4c0,0.4,0.1,0.7,0,1.3
		C44.4,48.2,43.3,47.5,43.3,47.5z M40.9,44.3l-2.3,1.4l-0.6-0.1l4.7-2.9l-0.1-0.1l-4.8,2.9l-0.3-0.9l6.1-2.5l-3.9,3.7l-0.8-0.1
		L40.9,44.3L40.9,44.3z M43.1,39.9c-1.7-0.6-3.6-0.9-5.5-1c0,0,0.2-0.8,0-2c1.2,0.1,2.3,0.2,3.4,0.3C41.2,37.5,42.7,38.7,43.1,39.9z
		 M37.6,36.6l0.7,0l-0.1,0.2l-0.6,0L37.6,36.6z M38.4,36.8l0.1-0.2l0.7,0.1l-0.1,0.2L38.4,36.8z M39.2,36.9l0.1-0.1l0.7,0.1L39.9,37
		L39.2,36.9z M40.9,37.1L40.1,37l0.1-0.1l0.6,0.1L40.9,37.1z M37.5,33.6c0.3,0.2,0.4,0.7,0.8,1.1c0.4,0.3,1.1,0.7,1.5,1.1
		c0.4,0.4,0.9,1.1,0.9,1.1c-1-0.1-2-0.2-3.1-0.3c0,0-0.3-1.7-0.3-2S37.4,33.9,37.5,33.6z M37.2,40.5c0.3-0.7,0.4-1.5,0.4-1.5
		c2,0.1,3.9,0.5,5.6,1.1c0,0,0.2,0.6,0.2,0.8c0.2,0.4,0.2,1,0.2,1l-6.3,2.6l-0.8-2.2C36.6,42.4,36.9,41.2,37.2,40.5z M36.6,42.7
		l1.1,3.1l8.2,0.8l0,0.4l-2.8,0.4c0,0-0.7-0.5-2.1-0.6l4.1,0l0.1-0.2l-7,0l-0.4-0.1c0,0-0.1-0.8-1.3-1.1l-0.1-0.4
		c0,0-0.1-0.5-0.1-1.1C36.4,43.4,36.6,42.7,36.6,42.7z M37.4,46.4L36.6,46l0-0.3C37.2,46,37.4,46.4,37.4,46.4z M36.9,47.6
		c-0.3,0.2-0.6,0.3-1,0.3c-0.4,0-0.7,0-1-0.2C35.6,47.3,36.9,47.6,36.9,47.6z M35.5,38.2l-0.3-0.3l0.3-0.3L35.5,38.2z M35.6,36.6
		l0,0.2l-0.5,0l0-0.2L35.6,36.6z M34.9,36.6l0,0.2l-0.6,0l-0.1-0.2L34.9,36.6z M34.1,36.6l0.1,0.1l-0.6,0l-0.1-0.2L34.1,36.6z
		 M33.3,36.7l0.1,0.1l-0.6,0.1l-0.1-0.2L33.3,36.7z M32.5,36.8l0.1,0.1L32,37l-0.1-0.1L32.5,36.8z M31.7,36.8l0.1,0.1l-0.6,0.1
		L31,36.9L31.7,36.8z M30.9,37l0.1,0.1l-0.6,0.1l-0.1-0.1L30.9,37z M30.1,37.1l0.1,0.1l-0.6,0.1l-0.1-0.1L30.1,37.1z M29.3,37.2
		l0.1,0.1l-0.6,0.1l-0.1-0.1L29.3,37.2z M28.5,37.4l0.1,0.1L28,37.7l-0.1-0.1L28.5,37.4z M27.7,37.6l0.1,0.1l-0.6,0.2l-0.1-0.1
		L27.7,37.6z M26.9,37.8l0.1,0.1l-0.6,0.2L26.3,38L26.9,37.8z M26.1,38.1l0.1,0.1l-0.6,0.2l-0.1-0.1L26.1,38.1z M25.3,38.4l0.1,0.1
		l-0.6,0.2l-0.1-0.1L25.3,38.4z M24.4,38.7l0.1,0.1L24,39.1l-0.1-0.1L24.4,38.7z M23.7,39l0.1,0.1l-0.6,0.3l-0.2-0.1L23.7,39z
		 M22.9,39.4l0.2,0.1l-0.5,0.3l-0.2-0.1L22.9,39.4z M22.2,39.8l0.2,0.1l-0.5,0.3L21.6,40L22.2,39.8z M21.4,40.1l0.2,0.1l-0.6,0.3
		l-0.2-0.1L21.4,40.1z M20.7,40.6l0.2,0.1L20.4,41l-0.2-0.1L20.7,40.6z M20.1,41.1l0.2,0.1l-0.5,0.3l-0.2-0.1L20.1,41.1z M19.4,41.5
		l0.2,0.1L19.2,42L19,41.9L19.4,41.5z M18.8,42l0.2,0.1l-0.4,0.4l-0.3-0.1L18.8,42z M18.3,42.5l0.2,0.1L18.1,43l-0.3-0.1L18.3,42.5z
		 M17.7,43l0.3,0.1l-0.4,0.4l-0.3-0.1L17.7,43z M17.2,43.6l0.3,0.1l-0.3,0.4l-0.3-0.1L17.2,43.6z M16.8,44.2l0.3,0.1l-0.3,0.4
		l-0.3-0.1L16.8,44.2z M16.3,44.8l0.3,0l-0.3,0.5l-0.4,0L16.3,44.8z M16,45.4l0.4,0l-0.2,0.5l-0.4,0L16,45.4z M15.7,46l0.4,0
		l-0.2,0.5h-0.4L15.7,46z M15.4,46.7l0.4,0l-0.1,0.5l-0.4,0L15.4,46.7z M15.2,47.3l0.4,0l-0.1,0.5l-0.4,0L15.2,47.3z M15,48l0.4,0
		l-0.1,0.5H15L15,48z M14.9,48.7l0.4,0l0,0.5l-0.5,0.1L14.9,48.7z M14.9,49.3l0.5-0.1l0,0.5l-0.5,0.1L14.9,49.3z M14.9,50l0.5-0.1
		l0,0.6L15,50.6L14.9,50z M15,50.7l0.5-0.1l0.1,0.5l-0.5,0.1L15,50.7z M15.1,51.4l0.5-0.1l0.2,0.5L15.3,52L15.1,51.4z M15.3,52.1
		l0.5-0.1l0.2,0.5l-0.5,0.2L15.3,52.1z M15.6,52.8l0.4-0.2l0.3,0.5l-0.5,0.2L15.6,52.8z M15.9,53.5l0.4-0.2l0.3,0.5L16.2,54
		L15.9,53.5z M16.3,54.2l0.4-0.2l0.4,0.5l-0.4,0.3L16.3,54.2z M16.7,54.8l0.4-0.2l0.4,0.5l-0.5,0.3L16.7,54.8z M17.2,55.5l0.4-0.2
		l0.5,0.5L17.7,56L17.2,55.5z M18.3,56.6l-0.5-0.5l0.4-0.3l0.5,0.5L18.3,56.6z M18.5,56.8l0.4-0.3l0.6,0.5l-0.4,0.3L18.5,56.8z
		 M19.2,57.4l0.3-0.3l0.7,0.4l-0.4,0.3L19.2,57.4z M20.1,58l0.3-0.3l0.7,0.4l-0.3,0.3L20.1,58z M20.9,58.5l0.3-0.3l0.7,0.4l-0.3,0.4
		L20.9,58.5z M21.8,59l0.2-0.3l0.8,0.4l-0.2,0.4L21.8,59z M22.8,59.5l0.2-0.3l0.8,0.3l-0.2,0.4L22.8,59.5z M24.6,60.3L23.8,60
		l0.2-0.4l0.8,0.4L24.6,60.3z M25.8,60.7l-0.9-0.3l0.2-0.4l0.9,0.3L25.8,60.7z M26.9,61.1L26,60.8l0.2-0.4l0.9,0.3L26.9,61.1z
		 M28.1,61.3l-0.9-0.2l0.1-0.4l1,0.2L28.1,61.3z M29.3,61.6l-1-0.2l0.1-0.4l1,0.2L29.3,61.6z M30.6,61.8l-0.9-0.2l0.1-0.5l1,0.1
		L30.6,61.8z M31.9,62l-1-0.1l0.1-0.4l1,0.1L31.9,62z M33.2,62.1l-1-0.1l0-0.4l1,0.1L33.2,62.1z M34.5,62.2l-1,0l0-0.4l1,0
		L34.5,62.2z M35.8,62.2l-1,0v-0.4l1,0V62.2z M15.6,49.2c0-6.7,8.9-12.2,20-12.4v0.6l-0.4,0.4l-0.4-0.4l-0.5,0l0.3,0.1L35,38
		l-0.4,0.4l-0.2,0.1h0.5l-0.1-0.1l0.4-0.3l0.4,0.4l-0.1,0.4c-8.2,0.2-14.9,4.3-14.9,9.3c0,5.6,6.9,9.3,15.3,9.3
		c3.1,0,6.1-0.7,8.6-1.7c0.5,0.4,1.8,0.7,2.2,0.7c0.4,0.1,1.6,0.5,1.6,0.5l0.6,0.1c0.4,0.1,1.3,0.6,2,0.7c-3.7,2.4-9,3.9-14.8,3.9
		C24.7,61.5,15.6,56.6,15.6,49.2z M37.1,62.2l-1,0v-0.5l1,0V62.2z M37.4,62.2l0-0.4l1,0l0,0.4L37.4,62.2z M38.7,62.2l0-0.4l1-0.1
		l0,0.4L38.7,62.2z M40.1,62L40,61.6l1-0.1l0.1,0.4L40.1,62z M41.4,61.9l-0.1-0.5l1-0.1l0.1,0.4L41.4,61.9z M42.6,61.7l-0.2-0.5
		l1-0.2l0.1,0.4L42.6,61.7z M43.8,61.4l-0.1-0.4l0.9-0.3l0.1,0.4L43.8,61.4z M45.1,61l-0.2-0.4l0.9-0.3l0.2,0.4L45.1,61z M46.3,60.6
		l-0.2-0.4l0.9-0.3l0.2,0.4L46.3,60.6z M47.3,60.2l-0.2-0.3l0.8-0.3l0.2,0.3L47.3,60.2z M48.4,59.8l-0.2-0.4l0.8-0.3l0.2,0.3
		L48.4,59.8z M49.4,59.3L49.1,59l0.8-0.4l0.2,0.3L49.4,59.3z M50.4,58.8l-0.3-0.4l0.7-0.4l0.3,0.3L50.4,58.8z M51.3,58.3L51,58
		l0.2-0.2l0.4,0.3L51.3,58.3z M46.4,54.7c1.1-0.6,2-1.3,2.8-2.1c0.5,0.2,1,0.8,2.3,1.4c0.9,0.5,2.2,0.8,2.6,1
		c-0.3,0.3-0.6,0.6-0.9,0.9C52.1,55.5,48.2,55.9,46.4,54.7z M54.1,56l-0.6-0.1l0.4-0.4l0.3,0.3L54.1,56z M54.3,55.7l-0.3-0.4
		l0.3-0.4l0.4,0.1L54.3,55.7z M56.4,50.4l-2.7-0.6l-2.5-0.5c0.1-0.4,0.1-0.8,0.1-1.2c0-3-2.4-5.7-6.2-7.4c0.1-0.2,0.6-0.6,0.6-1.1
		c0-0.3-0.7-0.5-1.1-0.9c-0.3-0.3-0.6-0.9-0.6-0.9c6.4,1.7,11.1,5.2,12.2,9.4c0,0-1.3-0.4-1.8-0.4C54.2,46.4,54,46,54,46L54,46.2
		c-0.8,0-1.9,0-1.9,0l-0.2-0.2l0.2,0.5l0.1-0.2l1.9,0l0.2,0.1l0,0.2c-0.3,0-0.5,0.1-0.5,0.1h-1.4l-0.2-0.1l0.1,0.5l0.1-0.2l1,0
		c-0.2,0.1,0,0.3,0,0.3l-0.9,0l-0.1-0.1l0.1,0.5l0.1-0.2l1,0c0.7,0.8,3,0.9,3,0.9c0,0.2,0,0.5,0,0.7C56.5,49.6,56.4,50,56.4,50.4z
		 M57.1,50.6l-0.5-0.1l0.1-0.5l0.5,0.1L57.1,50.6z M56.7,49.8l0-0.5l0.4,0.1l0,0.5L56.7,49.8z"/>
	<polygon points="26.2,47.1 33.2,47.2 33.2,47.1 26.3,46.9 	"/>
	<polygon points="35.1,48.4 35,48.4 34.9,51.4 35,51.4 	"/>
	<polygon points="35.8,48.5 35.7,48.5 35.7,54.1 35.8,54.1 	"/>
	<path d="M45.2,56.4l0.5,1.8l-0.2,0.3l0.7-0.3l-0.3-0.1c0,0-0.3-0.8-0.4-1.2l1.4,0.8L46.8,58l0.9-0.4l-0.4,0L45.2,56.4z"/>
	<polygon points="50.5,41.7 50.1,41.4 50,41.6 48.8,42 48.5,41.9 48.9,42.3 48.9,42.1 50.3,41.7 	"/>
	<polygon points="50.6,42 49.3,42.5 49,42.4 49.4,42.7 49.4,42.6 50.7,42.1 51.1,42.2 50.6,41.8 	"/>
	<polygon points="29.4,39.2 29.3,39.3 29.8,39.1 29.6,39.1 29,38.4 29,38.3 28.6,38.5 28.8,38.5 	"/>
	<polygon points="27.9,39.2 27.8,39.6 27.6,39.8 28.1,39.6 27.9,39.6 28.1,39.2 28.6,39.4 28.5,39.5 29.1,39.3 28.8,39.3 28.1,39.1 
		28.2,38.5 27.9,38.6 28.1,38.7 28,39.1 27.4,38.9 27.4,38.8 26.9,39 27.2,39 	"/>
	<polygon points="22.1,42.3 22.3,42.8 22.3,43 22.7,42.7 22.4,42.7 22.2,42.3 23,42.3 23,42.5 23.4,42 23,42.1 22,42.2 21.7,41.7 
		21.8,41.5 21.4,41.8 21.7,41.8 21.9,42.2 21.2,42.2 21.1,42 20.6,42.5 21.1,42.3 	"/>
	<path d="M19.6,48l0.2-1l-0.2,0.1l-0.6-0.3l0.7-0.3l0.1,0.1l0.1-0.5l-0.2,0.2l-1,0.3L18,46.5l-0.2-0.3l-0.1,0.5l0.2-0.1l0.6,0.3
		c0,0-0.5,0.2-0.7,0.3L17.6,47l-0.2,1.1l0.2-0.2l1.9,0L19.6,48z M17.6,47.6l-0.1-0.1l0.3-0.2l0.9-0.3l0.8,0.3l0.1,0.2l-0.2,0.2H17.6
		z"/>
	<path d="M20,51.3l0.2,0.1L20,50.8l-0.2,0.3l-1.7,0.6l-0.4-0.1c0,0,0.1,0.3,0.2,0.5l0.1-0.3L20,51.3z"/>
	<path d="M20.3,51.8l0.2,0.1l-0.3-0.5l-0.1,0.3l-1.7,0.7L18,52.3c0,0,0.1,0.3,0.3,0.5l0.1-0.3L20.3,51.8z"/>
	<path d="M20.6,52.4l0.2,0.1l-0.3-0.5l0,0.2l-1.8,0.7l-0.3,0c0,0,0.2,0.2,0.3,0.4l0.1-0.2L20.6,52.4z"/>
	<polygon points="19,53.4 18.7,53.4 19,53.7 19,53.5 20.8,53.3 19.6,54.2 19.3,54.2 19.7,54.6 19.7,54.4 21.4,53.1 	"/>
	<path d="M25.4,58.1l-0.3,0l-0.3-0.2l1.2-1.4l0.3,0l-0.7-0.3l0.1,0.2l-1.3,1.3l-0.3,0L24,57.5l1.2-1.4l0.3,0l-0.6-0.3L25,56
		l-1.3,1.3l-0.3,0.1c0,0,1,0.6,2.3,1l-0.2-0.2l1.7-1l-0.5,1.3l-0.3,0l0.9,0.3L27,58.7l0.6-1.8L25.4,58.1z"/>
	<path d="M36.5,58.1h-0.1l-1,1.8L35.1,60l-0.3-0.1l0-1.6l0.3-0.1l-0.9,0l0.2,0.1v1.7L34,60c0,0,1.1,0.1,1.9,0l-0.3-0.1l0.7-1.3
		l0.7,1.2L36.6,60l1,0l-0.2-0.1L36.5,58.1z"/>
</g>
</svg>
