<?xml version="1.0" encoding="utf-8"?>
<!-- Generator: Adobe Illustrator 28.1.0, SVG Export Plug-In . SVG Version: 6.00 Build 0)  -->
<svg version="1.1" id="svg2" xmlns:svg="http://www.w3.org/2000/svg"
	 xmlns="http://www.w3.org/2000/svg" xmlns:xlink="http://www.w3.org/1999/xlink" x="0px" y="0px" viewBox="0 0 72 72"
	 style="enable-background:new 0 0 72 72;" xml:space="preserve">
<g id="layer1" transform="translate(116.92129,-338.61963)">
	<g id="g31225" transform="translate(35.40372,35.392161)">
		<path id="path38" d="M-118.8,335.6c0,0-9-9-9.1-9c-0.5-0.6-1.3-0.9-2.1-0.9h-15.2v5.8h16.6c1.3,0,2.5,0.5,3.4,1.4
			c0.9,0.9,1.4,2.1,1.4,3.4v16.6h5.8v-15.2C-118,336.8-118.3,336.1-118.8,335.6"/>
		<path id="path42" d="M-102.7,325.7c-0.8,0-1.5,0.3-2.1,0.9l-9,9c-0.5,0.5-0.9,1.3-0.9,2.1v15.2h5.8v-16.6c0-2.6,2.1-4.7,4.7-4.7
			h16.6v-5.8L-102.7,325.7"/>
	</g>
</g>
</svg>
