<?xml version="1.0" encoding="utf-8"?>
<!-- Generator: Adobe Illustrator 28.1.0, SVG Export Plug-In . SVG Version: 6.00 Build 0)  -->
<svg version="1.1" id="Layer_1" xmlns="http://www.w3.org/2000/svg" xmlns:xlink="http://www.w3.org/1999/xlink" x="0px" y="0px"
	 viewBox="0 0 72 72" style="enable-background:new 0 0 72 72;" xml:space="preserve">
<g>
	<path d="M42,46.1c-1.3,1.3-4.1,1.8-6,1.8c-2,0-4.7-0.4-6-1.8c-0.3-0.3-0.8-0.3-1.1,0c-0.3,0.3-0.3,0.8,0,1.1c2,2,5.9,2.2,7.1,2.2
		c1.1,0,5-0.1,7.1-2.2c0.3-0.3,0.3-0.8,0-1.1C42.8,45.8,42.3,45.8,42,46.1z"/>
	<path d="M32.4,39.3c0-1.6-1.3-3-3-3s-3,1.3-3,3s1.3,3,3,3C31,42.2,32.4,40.9,32.4,39.3z"/>
	<path d="M42.6,36.3c-1.6,0-3,1.3-3,3c0,1.6,1.3,3,3,3s3-1.4,3-3C45.5,37.6,44.2,36.3,42.6,36.3z"/>
	<path d="M36,7.2C20.1,7.2,7.2,20.1,7.2,36S20.1,64.8,36,64.8S64.8,51.9,64.8,36S51.9,7.2,36,7.2z M52.7,40.1
		c0.1,0.4,0.1,0.9,0.1,1.3c0,6.5-7.5,11.7-16.8,11.7s-16.8-5.3-16.8-11.7c0-0.4,0-0.9,0.1-1.3c-1.4-0.7-2.5-2.1-2.5-3.8
		c0-2.3,1.9-4.2,4.2-4.2c1.1,0,2.2,0.4,2.9,1.2c2.9-2.1,6.9-3.4,11.4-3.6l2.1-10c0-0.2,0.1-0.4,0.3-0.5c0.1-0.1,0.3-0.1,0.5-0.1
		l7,1.5c0.5-1,1.5-1.7,2.7-1.7c1.6,0,3,1.3,3,3s-1.3,3-3,3c-1.6,0-2.9-1.3-3-2.9l-6.2-1.3l-1.9,9c4.4,0.2,8.3,1.5,11.2,3.6
		c0.8-0.7,1.8-1.2,2.9-1.2c2.3,0,4.2,1.9,4.2,4.2C55.2,38,54.1,39.5,52.7,40.1z"/>
</g>
</svg>
