<?xml version="1.0" encoding="utf-8"?>
<!-- Generator: Adobe Illustrator 28.1.0, SVG Export Plug-In . SVG Version: 6.00 Build 0)  -->
<svg version="1.1" id="Layer_1" xmlns="http://www.w3.org/2000/svg" xmlns:xlink="http://www.w3.org/1999/xlink" x="0px" y="0px"
	 viewBox="0 0 72 72" style="enable-background:new 0 0 72 72;" xml:space="preserve">
<g id="_x23_ffffffff">
</g>
<g id="_x23_000000ff">
	<path d="M47.9,29.4c5.6-0.6,11.3-1.1,16.9-1.4c-3.1,0.8-6.1,1.5-9.1,2.4c-4.2,1.2-8.4,2.8-12.5,4.4c-2.1-1.3-4.3-2.5-6.4-3.8
		C40.4,30.3,44.2,29.8,47.9,29.4z"/>
	<path d="M7.2,28.3c7,0,14.1,0,21.1,0c1.5,0.8,3,1.7,4.5,2.5c5.8,3.3,11.6,6.7,17.3,10.2c1.4,0.8,2.8,1.7,4.1,2.5
		c0.3,0.2,0.6,0.4,0.9,0.6c-6.2-2.6-12.4-5.4-18.7-7.8c-5.4-2.1-10.9-3.8-16.4-5.2c-3.1-0.8-6.2-1.5-9.3-2.1
		C9.6,28.7,8.4,28.5,7.2,28.3z"/>
	<path d="M14.9,38.6c2.9-1.9,6.2-3.3,9.4-4.5c2,0.5,3.9,1.2,5.8,1.8c-2.6,1-5,2.3-7.3,4c-1.4,1.1-2.8,2.2-3.9,3.7
		c-3.2,0-6.4,0-9.6,0C11,41.6,12.9,39.9,14.9,38.6z"/>
	<path d="M24.7,41.3c2.2-2,4.8-3.6,7.5-4.8c1.5,0.5,3.1,1.1,4.6,1.7c-1.3,0.9-2.6,1.9-3.7,3.1c-0.6,0.7-1.2,1.4-1.7,2.2
		c-2.9,0-5.8,0-8.6,0C23.2,42.7,23.9,42,24.7,41.3z"/>
</g>
</svg>
