<?xml version="1.0" encoding="utf-8"?>
<!-- Generator: Adobe Illustrator 28.1.0, SVG Export Plug-In . SVG Version: 6.00 Build 0)  -->
<svg version="1.1" id="Layer_1" xmlns="http://www.w3.org/2000/svg" xmlns:xlink="http://www.w3.org/1999/xlink" x="0px" y="0px"
	 viewBox="0 0 72 72" style="enable-background:new 0 0 72 72;" xml:space="preserve">
<path d="M52.4,21.3c-1.8,0-3.5,0.4-5,1.1c-1.8-3.1-5.1-5.3-8.9-5.3c-2.9,0-5.4,1.2-7.3,3.1c-2-2.7-5.3-4.4-8.9-4.4
	c-6.2,0-11.2,5-11.2,11.2c0,1.6,0.3,3.1,0.9,4.4c-2.9,1.7-4.8,4.8-4.8,8.4c0,5.4,4.3,9.7,9.6,9.7c0.7,0,1.3-0.1,2-0.2
	c1.5,4,5.3,6.8,9.7,6.8c4.3,0,8-2.6,9.5-6.3c1.2,0.6,2.5,0.9,4,0.9c3.4,0,6.4-1.9,7.9-4.6c0.8,0.2,1.6,0.2,2.4,0.2
	c6.9,0,12.4-5.6,12.4-12.5C64.8,26.9,59.2,21.3,52.4,21.3z"/>
</svg>
