<?xml version="1.0" encoding="utf-8"?>
<!-- Generator: Adobe Illustrator 28.1.0, SVG Export Plug-In . SVG Version: 6.00 Build 0)  -->
<svg version="1.1"
	 id="svg2" xmlns:cc="http://creativecommons.org/ns#" xmlns:dc="http://purl.org/dc/elements/1.1/" xmlns:rdf="http://www.w3.org/1999/02/22-rdf-syntax-ns#" xmlns:inkscape="http://www.inkscape.org/namespaces/inkscape" xmlns:sodipodi="http://sodipodi.sourceforge.net/DTD/sodipodi-0.dtd" xmlns:svg="http://www.w3.org/2000/svg"
	 xmlns="http://www.w3.org/2000/svg" xmlns:xlink="http://www.w3.org/1999/xlink" x="0px" y="0px" viewBox="0 0 1000 332.03"
	 style="enable-background:new 0 0 1000 332.03;" xml:space="preserve">
<sodipodi:namedview  bordercolor="#666666" borderopacity="1" gridtolerance="10" guidetolerance="10" id="namedview30" inkscape:current-layer="svg2" inkscape:cx="466.89155" inkscape:cy="185.27065" inkscape:pageopacity="0" inkscape:pageshadow="2" inkscape:window-height="705" inkscape:window-maximized="1" inkscape:window-width="1366" inkscape:window-x="-8" inkscape:window-y="-8" inkscape:zoom="0.70710678" objecttolerance="10" pagecolor="#ffffff" showgrid="false">
	</sodipodi:namedview>
<g>
	<path d="M791.34,193.63c-0.3-3.45-0.34-4.88-0.37-6.81l0.02-43.54c0-1.83,0.23-5.09,0.43-6.81c2.3-19.32,17.96-25.54,36.32-25.54
		c18.34,0,34.39,6.19,36.29,25.54c0.34,3.3,0.23,6.81,0.23,6.81v3.45h-26.07v-5.79c0.02,0.01-0.03-2.46-0.34-3.93
		c-0.44-2.29-2.43-7.54-10.3-7.54c-7.54,0-9.74,4.97-10.29,7.54c-0.32,1.36-0.44,3.21-0.44,4.88v47.28
		c-0.02,1.31,0.05,2.75,0.26,3.93c0.45,2.77,3.05,7.49,10.54,7.49c7.49,0,10.11-4.73,10.59-7.49c0.19-1.19,0.24-2.63,0.23-3.93
		v-15.01h-10.61v-15.09h36.66v27.75c-0.02,1.93-0.07,3.36-0.37,6.81c-0.78,8.49-4.54,14.51-10.11,18.57
		c96.02-43.37,152.63-91.67,145.39-133.15C985.8,0.96,751.22-23.41,475.41,24.65C355.05,45.61,246.73,76.89,164,111.97
		c4.38-1.02,9.2-1.49,14.27-1.49c14.64,0,34.86,3.52,34.86,26.04v7.26h-25.78c0,0,0-4.48,0-6.38c0-5.65-3.57-9.38-9.61-9.38
		c-6.47,0-8.73,3.64-9.45,6.93c-0.24,1.18-0.38,3.37,0.11,5.45c2.92,12.11,42.16,18.57,46.53,40.21c0.43,2.21,1.36,8.05,0.11,16.98
		c-2.45,17.23-17.85,23.62-36.55,23.62c-19.45,0-37.59-6.95-37.59-30l0.02-8.01h27.73v10.01c0,5.68,3.93,9.39,10.41,9.39
		c6.88,0,9.21-3.5,10.07-6.94c0.47-1.94,0.78-5.16-0.23-7.67h0c-5.32-13.38-42.04-19.5-46.56-40.63c-1.09-5.19-0.98-9.33-0.23-13.97
		c1.18-7.24,4.64-12.48,9.65-16.11C52.27,161.29-6.75,210.66,0.62,252.96c13.6,78.1,248.23,102.48,524.03,54.44
		c123.16-21.45,233.69-53.7,317.11-89.79c-4.37,1.06-9.12,1.55-14.02,1.55C809.38,219.15,793.09,212.44,791.34,193.63z
		 M288.87,217.16l-13.78-93.81h-0.58l-14.16,93.81h-27.92l19.17-103.39h45.99l19.08,103.39H288.87z M426.42,217.16l-0.68-92.95
		h-0.54l-17.28,92.95h-26.23l-17.29-92.95h-0.56l-0.65,92.95h-25.89l2.29-103.39h42.19l12.77,79.03h0.55l12.78-79.03h42.16
		l2.24,103.39H426.42z M550.93,197.28c-2.41,17.07-17.67,23.38-36.17,23.38c-19.25,0-37.23-6.89-37.23-29.71l0.03-7.9h27.44
		l0.02,9.92c0,5.55,3.9,9.26,10.29,9.26c6.83,0,9.14-3.45,9.99-6.88c0.46-1.94,0.79-5.08-0.23-7.56h0
		c-5.26-13.25-41.63-19.32-46.07-40.23c-1.07-5.16-0.99-9.23-0.24-13.81c2.69-16.71,17.6-22.71,35.78-22.71
		c14.5,0,34.55,3.49,34.55,25.77v7.18h-25.59c0,0,0-4.44,0-6.32c0-5.6-3.49-9.25-9.48-9.25c-6.4,0-8.62,3.55-9.36,6.87
		c-0.25,1.11-0.4,3.28,0.1,5.35c2.89,11.99,41.74,18.38,46.07,39.82C551.3,182.65,552.19,188.42,550.93,197.28z M648.01,194.68
		c-1.83,19.3-17.09,25.56-36.09,25.56c-19.02,0-34.29-6.26-36.1-25.56c-0.09-0.98-0.27-4.89-0.22-6.79v-74.17h26.12v76.51
		c0,1.34,0.04,2.85,0.24,3.95c0.56,2.54,2.74,7.5,9.96,7.5c7.17,0,9.41-4.97,9.91-7.5c0.21-1.12,0.26-2.61,0.24-3.95v-76.51h26.15
		v74.17C648.28,189.79,648.09,193.7,648.01,194.68z M763.97,216.08h-36.8l-25.54-83.97h-0.55l1.42,83.97h-25.43V113.77h38.4
		l23.76,81.17h0.57l-1.42-81.17h25.6V216.08z"/>
	<path d="M151.75,117.28c4.02-1.78,8.1-3.55,12.24-5.3C159.34,113.06,155.18,114.79,151.75,117.28z"/>
	<path d="M841.76,217.61c4.6-1.12,8.77-2.88,12.23-5.41C849.98,214.01,845.9,215.81,841.76,217.61z"/>
</g>
</svg>
