<?xml version="1.0" encoding="utf-8"?>
<!-- Generator: Adobe Illustrator 28.1.0, SVG Export Plug-In . SVG Version: 6.00 Build 0)  -->
<svg version="1.1" id="Layer_1" xmlns="http://www.w3.org/2000/svg" xmlns:xlink="http://www.w3.org/1999/xlink" x="0px" y="0px"
	 viewBox="0 0 360 180" style="enable-background:new 0 0 360 180;" xml:space="preserve">
<g>
	<path d="M214.3,64.8L204,119.5h-21.6l-11.3-28.2c-3.1,14.6-6.2,29.1-9.3,43.7c-0.1,0.7-1,0.7-0.8-0.1l14.1-75.2h2.8l11.3,28.1
		c4.3-20.1,9-42.3,9.1-42.8c0.1-0.7,1-0.7,0.8,0.1l-8.6,46l1.7,4.3c3.6-16.8,7.2-33.6,10.8-50.4c0.1-0.7,1-0.7,0.8,0.1L193.8,99
		l1.6,4c4.6-21.8,12.3-57.5,12.4-58.1c0.1-0.7,1-0.7,0.8,0.1L197,107l1.5,3.7c4.2-19.6,13.9-65,14-65.7c0.1-0.7,1-0.7,0.8,0.1
		l-13.1,69.8l1.3,3.4c2-9.5,15.5-72.6,15.7-73.4c0.1-0.7,1-0.7,0.8,0.1l-2.7,14.5l15.8,0l7.5,22.5l15.2-22.5h19.9L244,98.2
		l-4.4,21.3h-16l4.4-22.1L214.3,64.8L214.3,64.8z M53.9,99.4H36.3c-2.1,14.3,8.7,21.6,24.3,21.4c17.8-0.2,26-3.7,29.7-19.2
		C92.8,84.4,71.8,83,66.8,81.8c-3.6-0.7-5.8-2.8-5.4-5.6c0.3-2.2,3.1-5.1,7.4-5.1c1.9,0,3.6,0.3,4.9,1.1c1.3,0.7,2.8,2.8,2.4,6.3
		h18.6C95.1,68,88.2,59,71.6,59c-14.9,0-26.5,5.6-28.7,18.3c-1.4,7.8,2.9,12.8,7.8,15.4c2.8,1.4,12.2,4.1,16.6,4.9
		c4.4,0.8,4.7,4.2,4.6,6.4c-1.1,3.6-5.1,5.2-10,5.2C56.8,109,52.4,104.6,53.9,99.4L53.9,99.4z M160.7,59.7l-14.1,75.2
		c-0.1,0.8,0.7,0.8,0.8,0.1c0.2-0.9,16-75.4,16-75.4L160.7,59.7L160.7,59.7z M165.5,59.7l-14.1,75.2c-0.1,0.8,0.7,0.8,0.8,0.1
		c0.2-0.9,16-75.4,16-75.4L165.5,59.7L165.5,59.7z M170.2,59.7l-14.1,75.2c-0.1,0.8,0.7,0.8,0.8,0.1c0.2-0.9,16-75.4,16-75.4
		L170.2,59.7L170.2,59.7z M298.6,57.9c-17.8-0.2-30.8,8.6-35.6,30.7c-3.9,17.9,7.7,30.8,26.5,30.8c17.7,0,30.3-10.3,33.9-30.7
		C326.2,73,319.1,58.1,298.6,57.9z M305.5,88.7c-1.3,7.2-6.3,17.7-14.8,17.7c-10.9,0-11-10.1-9.8-17.7c1.4-9.1,6.7-17.9,15.6-17.9
		C305.1,70.6,307,80.6,305.5,88.7L305.5,88.7z M155.9,59.7l-9.6,51l-9.4-51.1l-16.4,0.1l-35.1,59.9h17l4.6-8h23.3v0l1.2,8h13.3
		l-2.9,15.4c-0.1,0.8,0.7,0.8,0.8,0.1c0.2-0.9,16-75.4,16-75.4L155.9,59.7L155.9,59.7z M113.3,99.4l11.9-21.2l3.2,21.2H113.3z"/>
</g>
</svg>
