<?xml version="1.0" encoding="utf-8"?>
<!-- Generator: Adobe Illustrator 28.1.0, SVG Export Plug-In . SVG Version: 6.00 Build 0)  -->
<svg version="1.1" id="svg2" xmlns:svg="http://www.w3.org/2000/svg"
	 xmlns="http://www.w3.org/2000/svg" xmlns:xlink="http://www.w3.org/1999/xlink" x="0px" y="0px" viewBox="0 0 72 72"
	 style="enable-background:new 0 0 72 72;" xml:space="preserve">
<g id="g11" transform="matrix(1.25,0,0,-1.25,-511.80125,157.815)">
	<g id="g2510" transform="translate(1.4705494,-0.9803663)">
		<g id="g97">
			<g>
				<g id="g99">
					<path id="path107" d="M446.4,106.2c-0.6,0-0.9-0.1-1.1-0.4c-0.1-0.1-0.1-0.2-0.2-0.4l-3.1-11.9c-0.7-4.2-5.9-8.4-12.6-8.4H420
						l1.6,6.1h6c0.6,0,1.1,0.2,1.5,0.7c0.1,0.2,0.3,0.4,0.4,0.7L432,103c0.7,4.2,5.2,8.8,11.9,8.8h9.5l-1.2-5.6L446.4,106.2
						L446.4,106.2z M448.6,98.9l1.1,3.9h9.7c1.2,5.6,0.3,10.8-3.1,14.2c-6.9,6.9-21.3,4.5-32-5.7c-1.7-1.6-3.1-3.3-4.4-5.1h5.8
						l-1.4-3.9h-7c-0.7-1.2-1.3-2.4-1.8-3.7h8.3l-1.3-3.9h-8.1c-1.4-5.9-0.5-11.4,3-14.9c6.8-6.8,21.1-4.4,31.9,5.9
						c1.9,1.8,3.4,3.7,4.8,5.7h-7.5l1.1,3.9h8.8c0.6,1.2,1.2,2.4,1.7,3.7L448.6,98.9"/>
				</g>
			</g>
		</g>
	</g>
</g>
</svg>
