<?xml version="1.0" encoding="utf-8"?>
<!-- Generator: Adobe Illustrator 28.1.0, SVG Export Plug-In . SVG Version: 6.00 Build 0)  -->
<svg version="1.1"
	 id="svg9935" xmlns:svg="http://www.w3.org/2000/svg" xmlns:sodipodi="http://sodipodi.sourceforge.net/DTD/sodipodi-0.dtd" xmlns:inkscape="http://www.inkscape.org/namespaces/inkscape" xmlns:cc="http://creativecommons.org/ns#" xmlns:dc="http://purl.org/dc/elements/1.1/" xmlns:rdf="http://www.w3.org/1999/02/22-rdf-syntax-ns#"
	 xmlns="http://www.w3.org/2000/svg" xmlns:xlink="http://www.w3.org/1999/xlink" x="0px" y="0px" viewBox="0 0 360 180"
	 style="enable-background:new 0 0 360 180;" xml:space="preserve">
<sodipodi:namedview  bordercolor="#666666" borderopacity="1" fit-margin-bottom="0" fit-margin-left="0" fit-margin-right="0" fit-margin-top="0" gridtolerance="10" guidetolerance="10" id="namedview16" inkscape:current-layer="svg9935" inkscape:cx="36.149449" inkscape:cy="-37.101723" inkscape:pageopacity="0" inkscape:pageshadow="2" inkscape:window-height="1096" inkscape:window-maximized="1" inkscape:window-width="1920" inkscape:window-x="-8" inkscape:window-y="-8" inkscape:zoom="0.4623763" objecttolerance="10" pagecolor="#ffffff" showgrid="false">
	</sodipodi:namedview>
<g id="layer1" transform="matrix(3.4362416,0,0,3.4362416,-1078.3312,-2174.3932)">
	<g id="g9277" transform="matrix(0,1.5459704,1.5459704,0,415.67057,649.33146)">
		<path id="path9279" inkscape:connector-curvature="0" d="M5.4-40.6v-4.8H2.6v-2.5h7.3v2.5H7v4.8h2.9v2.5H2.6v-2.5H5.4"/>
	</g>
	<g id="g9281" transform="matrix(0,1.5459704,1.5459704,0,451.89266,657.95179)">
		<path id="path9283" inkscape:connector-curvature="0" d="M1.4-57.4l-2.8,1.7L1.4-54L1.4-57.4 M-3-56.7l7.3-4.4v1.9l-1.5,0.9v5.1
			l1.5,0.9v3L-3-53.7V-56.7"/>
	</g>
	<g id="g9285" transform="matrix(0,1.5459704,1.5459704,0,550.35088,651.36905)">
		<path id="path9287" inkscape:connector-curvature="0" d="M4.4-103.2c-0.8,0.6-1.9,0.5-2.5-0.6c-0.6-1.1-0.8-3.1-0.8-4.3
			c0-2,0.1-3.3,0.3-4.4h7.2v2.5H2.5c-0.2,0.9-0.2,1.8-0.2,2.1c0,1,0.2,1.5,0.5,2c0.3,0.5,1,0.6,1.5,0c0.4-0.4,0.7-1.3,0.4-3.3
			l0.5-0.3l3.4,3.8v3.4l-2.9-3.4C5.5-105,5.2-103.8,4.4-103.2"/>
	</g>
	<g id="g9289" transform="matrix(0,1.5459704,1.5459704,0,346.11736,647.86124)">
		<path id="path9291" inkscape:connector-curvature="0" d="M6.1-8.2c-0.3-1.4-0.5-2.6-0.9-2.6c-0.5,0-0.6,1-0.5,2.4
			c0.1,1.3,0.5,2.6,1,3.7L4.2-3.9C3.8-4.9,3.4-6.8,3.3-8.5c-0.1-1.9,0.1-5.1,2.1-5.3c1.8-0.1,2.2,2.4,2.6,4.1C8.3-8.2,8.5-6.6,9-6.6
			c0.4,0,0.7-0.5,0.6-1.9c-0.1-1.7-0.6-3.1-1.3-4.6l1.6-1c0.6,1.6,1.1,3.7,1.2,5.6c0,2.2-0.3,4.8-2.2,4.8C7.2-3.7,6.6-5.3,6.1-8.2"
			/>
	</g>
	<g id="g9293" transform="matrix(0,1.5459704,1.5459704,0,594.18532,651.0413)">
		<path id="path9295" inkscape:connector-curvature="0" d="M4.6-123.6c0.3-0.4,0.5-1,0.5-2c0-0.7-0.1-1.5-0.3-2.1H2.7
			c-0.2,0.9-0.2,1.8-0.2,2.1c0,1,0.2,1.6,0.5,2C3.3-123.1,4.1-123,4.6-123.6 M2.1-121.4c-0.6-1-0.8-2.9-0.8-4.3c0-2,0.1-3.3,0.3-4.4
			h7.2v2.5H6.1c0.1,0.8,0.2,1.7,0.2,2.5c0,2-0.5,3.5-1.2,4.2C4-120,2.8-120.3,2.1-121.4"/>
	</g>
</g>
</svg>
