<?xml version="1.0" encoding="utf-8"?>
<!-- Generator: Adobe Illustrator 28.1.0, SVG Export Plug-In . SVG Version: 6.00 Build 0)  -->
<svg version="1.1" id="Layer_1" xmlns="http://www.w3.org/2000/svg" xmlns:xlink="http://www.w3.org/1999/xlink" x="0px" y="0px"
	 viewBox="0 0 72 72" style="enable-background:new 0 0 72 72;" xml:space="preserve">
<g>
	<path d="M36.1,46.5L36.1,46.5L36.1,46.5z"/>
	<path d="M54.1,61.2l1.3-10.6l8.8-6.5c1.8-9.2-0.7-16.9-5.2-23C54.2,14.5,45.9,9.6,36.1,9.5c-9.8,0-18,4.8-23.1,11.3
		c-4.1,5.7-6.9,11.8-5.4,22.9c3.2,2.3,5.9,4.4,9.3,6.8l1.3,10.6l0,0h13.9c0.9,0.7,2.1,1.3,3.9,1.4c1.9-0.1,3.1-0.7,3.9-1.4
		L54.1,61.2L54.1,61.2z M36.1,57.5c-1.3-0.1-1.5-0.5-2.3-1.4L23.2,56l-1-8l-9.7-7.2c-0.3-1.1-0.6-3-0.5-4.6c0.2-1.6,0.5-2.4,0.9-3.4
		c4.9,4.8,11.1,11,16.1,15.8C24.3,43,18.6,36,13.8,30.2c0.2-1.3,0.5-2.7,1.2-3.8c0.8-1.4,1.5-2,2.3-2.7c4.4,7.1,9.6,16.6,13.9,23.8
		c-3.7-7.9-8.2-18-11.9-26c0.8-1.3,1.4-1.8,2.3-2.5c0.9-0.7,2.1-1.4,3.3-1.7c2.6,9,6,20.4,8.6,29.4c-1.9-9.3-4.1-21.3-6.1-30.6
		c1.1-0.6,1.9-0.9,3.2-1.3c1.2-0.2,2.7-0.3,3.8,0c0.6,9.8,0.8,21.9,1.6,31.8c0.7-9.8,0.8-22,1.5-31.8c1.1-0.2,2.4-0.1,3.8,0.1
		c1.2,0.4,2.1,0.7,3,1.4c-1.8,9.4-4.1,21.2-5.9,30.5c2.6-9,5.9-20.4,8.6-29.4c1.2,0.3,2.4,1,3.4,1.7c0.8,0.7,1.4,1.3,2.2,2.6
		c-3.8,7.8-8.1,18-12,25.9c4.3-7.1,9.7-16.7,14-23.8c0.8,0.8,1.3,1.3,2.2,2.7c0.8,1.2,1.1,2.5,1.3,3.8c-4.8,5.9-10.5,12.9-15.3,18.6
		C48,44,54.2,37.8,59.2,33c0.4,0.9,0.7,1.7,0.9,3.4c0.1,1.6-0.1,3.4-0.5,4.6L50,48.1l-1.1,8H38.3C38,56.7,37.3,57.5,36.1,57.5z"/>
</g>
</svg>
