<?xml version="1.0" encoding="utf-8"?>
<!-- Generator: Adobe Illustrator 28.1.0, SVG Export Plug-In . SVG Version: 6.00 Build 0)  -->
<svg version="1.1" id="Layer_1" xmlns="http://www.w3.org/2000/svg" xmlns:xlink="http://www.w3.org/1999/xlink" x="0px" y="0px"
	 viewBox="0 0 2500 2500" style="enable-background:new 0 0 2500 2500;" xml:space="preserve">
<g>
	<polygon points="1257,1367.6 1257,1367.6 1257,1367.6 	"/>
	<path d="M1830.4,1837l41.8-338.4l282.7-208.1c56.5-292.5-21.3-539.9-166.3-736.6c-154.9-207.3-417.8-365.4-731.7-368.7
		c-313.8,0-576,154.8-739,362.1c-131.1,183.5-220.4,376.9-172,733.3c102.4,74.6,187.6,139.3,298.2,217.9l41.8,338.4v0h444.9
		c30.3,22.1,67.2,42.6,126.2,44.3c59.8-1.6,97.5-22.1,125.4-44.3H1830.4z M1257,1721.5c-40.2-2.5-48.3-17.2-72.9-45.9l-340-2.5
		l-32.8-254.8L502.4,1189c-10.6-36.1-20.5-95.9-14.7-145.8c4.9-51.6,14.7-77.8,30.3-109c158.1,154,354.8,352.3,514.5,506.3
		c-153.2-185.1-335.1-408-487.5-594c4.9-41.8,16.4-85.2,39.3-122.1c27-45.9,47.5-63.1,74.6-86.8
		c139.3,227.8,307.2,530.1,445.7,759.5c-119.6-252.3-262.2-576-381-829.9c27-41,44.3-58.2,73.7-81.1c27.8-22.9,66.4-45.1,105.7-53.3
		c81.9,288.4,192.5,650.5,275.3,939.7c-60.6-297.4-131.9-679.2-193.4-979.1c33.6-18.8,62.3-29.5,101.6-41.8
		c39.3-6.5,86.8-9,120.4-0.8c19.7,312.1,26.2,701.3,50,1016.7c23.7-313.8,24.6-702.1,47.5-1016.7c34.4-5.7,77.8-4.1,122.1,4.1
		c38.5,11.5,67.2,22.1,96.7,43.4c-58.2,299-131.1,677.5-189.3,975c83.6-286.7,189.3-652.2,275.3-939.7c37.7,9,76.2,31.1,107.3,54.9
		c26.2,21.3,45.1,41.8,71.3,81.9c-120.5,250.7-259.7,574.3-382.6,827.5c138.5-227.7,308.9-532.5,449-759.5
		c26.2,24.6,42.6,41.8,71.3,87.7c24.6,36.9,34.4,79.5,42.6,121.3c-154,187.6-334.3,411.3-488.3,594.8
		c158.1-154,355.6-352.3,514.5-505.5c13.1,28.7,22.9,55.7,27.9,109.8c4.1,50-3.3,108.2-14.7,145.8L1701,1420l-34.4,255.6h-339.2
		C1317.6,1695.3,1295.5,1719,1257,1721.5z"/>
	<path d="M679.4,2102.5c-59-4.1-119.6-4.9-179.4-7.3c-19.7-2.5-27-9.9-27-39.3c0-31.1,17.2-37.7,30.3-37.7c35.5-2.5,71-2.5,106.5,0
		c17.2,1.6,23.8,14.7,23.8,49.2h145.8c0-69.6-25.4-101.6-108.1-101.6c-81.1-2.5-162.2-2.5-243.3,0c-77.8,2.5-104.9,24.6-109.8,100.8
		c4.1,54.9,14.7,72.9,84.4,88.5c69.6,6.6,137.6-0.8,207.3,4.9c19.7,4.1,23.8,23,23.8,40.2c0,40.2-12.3,45.1-25.4,47.5
		c-32.8,5.7-99.1,2.5-108.1-0.8c-8.2-5.7-25.4-13.9-23-49.2H318v0c0,41.8,4.1,90.1,40.2,99.9c38.5,11.5,82.7,15.6,118,15.6h157.3
		c15.6,0,95-9,111.4-16.4c17.2-10.7,41-33.6,39.3-99.2C781,2151.6,777.7,2108.2,679.4,2102.5z"/>
	<path d="M1225,2078.7c-27.9-18-68-15.6-105.7-15.6c-39.3,0-83.6,4.9-117.2,21.3v-117.2h-136v347.4l0,0h136v-147.5
		c3.3-20.5,8.2-36.9,58.2-36.9c47.5-0.8,60.6,12.3,60.6,36.9v147.5h136v-147.5C1257,2118.9,1256.1,2092.6,1225,2078.7z"/>
	<rect x="2044.3" y="1967.3" width="137.6" height="347.4"/>
	<path d="M1730.5,2132.8L1730.5,2132.8c-2.5-10.9-5.8-21.5-9.9-31.9c-23.8-38.5-105.7-38.5-185.1-40.2c-59.8,0-149.1,1.6-175.3,27
		c-10.7,11.5-16.4,27.9-19.7,45.1c-4.1,20.5-3.3,41.8-3.3,51.6c0,18,1.6,87.6,35.2,105.7c31.1,20.5,125.3,23,161.4,23
		c38.5,0,145-4.1,160.6-22.1c27.8-9.8,34.4-44.2,40.1-71.3h-136.8c0,27-21.3,43.4-63.9,40.9c-38.5,2.5-60.6-6.5-60.6-54.9l261.3,0.8
		C1734.6,2182.8,1735.4,2157.4,1730.5,2132.8z M1597.8,2156.5h-124.5c0-9.8,1.6-18,4.1-23.8c9-22.1,31.9-22.9,56.5-24.6
		c37.7,0,54.1,9,60.6,24.6C1597.8,2139.3,1598.6,2147.5,1597.8,2156.5z"/>
	<rect x="1811.6" y="1967.3" width="139.3" height="347.4"/>
</g>
</svg>
