<?xml version="1.0" encoding="utf-8"?>
<!-- Generator: Adobe Illustrator 28.1.0, SVG Export Plug-In . SVG Version: 6.00 Build 0)  -->
<svg version="1.1" id="Layer_1" xmlns="http://www.w3.org/2000/svg" xmlns:xlink="http://www.w3.org/1999/xlink" x="0px" y="0px"
	 viewBox="0 0 72 72" style="enable-background:new 0 0 72 72;" xml:space="preserve">
<g>
	<path d="M29.1,8l0.6,2.6c-2.5,0.6-5,1.6-7.2,3l-1.4-2.3C23.6,9.8,26.3,8.7,29.1,8z M42.9,8l-0.6,2.6c2.5,0.6,5,1.6,7.2,3l1.4-2.3
		C48.4,9.8,45.7,8.7,42.9,8z M11.3,21.1c-1.5,2.5-2.6,5.2-3.3,8l2.6,0.6c0.6-2.5,1.6-5,3-7.2L11.3,21.1z M9.9,36
		c0-1.3,0.1-2.6,0.3-3.9l-2.7-0.4c-0.4,2.9-0.4,5.8,0,8.6l2.7-0.4C10,38.6,9.9,37.3,9.9,36z M50.9,60.7l-1.4-2.3
		c-2.2,1.4-4.7,2.4-7.2,3l0.6,2.6C45.7,63.3,48.4,62.2,50.9,60.7z M62.1,36c0,1.3-0.1,2.6-0.3,3.9l2.7,0.4c0.4-2.9,0.4-5.8,0-8.6
		l-2.7,0.4C62,33.4,62.1,34.7,62.1,36z M64,42.9l-2.6-0.6c-0.6,2.5-1.6,5-3,7.2l2.3,1.4C62.2,48.4,63.3,45.7,64,42.9z M39.9,61.8
		c-2.6,0.4-5.2,0.4-7.8,0l-0.4,2.7c2.9,0.4,5.8,0.4,8.6,0L39.9,61.8z M57,51.5c-1.6,2.1-3.4,4-5.5,5.5l1.6,2.2
		c2.3-1.7,4.4-3.8,6.1-6.1L57,51.5z M51.5,15c2.1,1.6,4,3.4,5.5,5.5l2.2-1.6c-1.7-2.3-3.8-4.4-6.1-6.1L51.5,15z M15,20.5
		c1.6-2.1,3.4-4,5.5-5.5l-1.6-2.2c-2.3,1.7-4.4,3.8-6.1,6.1L15,20.5z M60.7,21.1l-2.3,1.4c1.4,2.2,2.4,4.7,3,7.2l2.6-0.6
		C63.3,26.3,62.2,23.6,60.7,21.1z M32.1,10.2c2.6-0.4,5.2-0.4,7.8,0l0.4-2.7c-2.9-0.4-5.8-0.4-8.6,0L32.1,10.2z M16.4,59.9l-5.6,1.3
		l1.3-5.6L9.5,55l-1.3,5.6c-0.3,1.5,0.6,2.9,2,3.2c0.4,0.1,0.8,0.1,1.2,0l5.6-1.3L16.4,59.9z M10,52.6l2.6,0.6l0.9-3.9
		c-1.3-2.2-2.3-4.6-2.9-7.1L8,42.9c0.6,2.4,1.5,4.7,2.7,6.8L10,52.6z M22.6,58.4l-3.9,0.9l0.6,2.6l2.8-0.7c2.2,1.2,4.5,2.1,6.8,2.7
		l0.6-2.6C27.2,60.7,24.9,59.7,22.6,58.4L22.6,58.4z M36,12.6c-12.9,0-23.4,10.5-23.4,23.4c0,4.4,1.2,8.7,3.6,12.4l-2.3,9.6l9.6-2.3
		c10.9,6.9,25.4,3.6,32.3-7.3s3.6-25.4-7.3-32.3C44.8,13.8,40.4,12.6,36,12.6L36,12.6z"/>
</g>
</svg>
