<?xml version="1.0" encoding="utf-8"?>
<!-- Generator: Adobe Illustrator 28.1.0, SVG Export Plug-In . SVG Version: 6.00 Build 0)  -->
<svg version="1.1"
	 id="svg2" xmlns:svg="http://www.w3.org/2000/svg" xmlns:sodipodi="http://sodipodi.sourceforge.net/DTD/sodipodi-0.dtd" xmlns:inkscape="http://www.inkscape.org/namespaces/inkscape" xmlns:cc="http://creativecommons.org/ns#" xmlns:dc="http://purl.org/dc/elements/1.1/" xmlns:rdf="http://www.w3.org/1999/02/22-rdf-syntax-ns#"
	 xmlns="http://www.w3.org/2000/svg" xmlns:xlink="http://www.w3.org/1999/xlink" x="0px" y="0px" viewBox="0 0 72 72"
	 style="enable-background:new 0 0 72 72;" xml:space="preserve">
<sodipodi:namedview  bordercolor="#666666" borderopacity="1" gridtolerance="10" guidetolerance="10" id="namedview12" inkscape:current-layer="svg2" inkscape:cx="209.46873" inkscape:cy="106.89686" inkscape:pageopacity="0" inkscape:pageshadow="2" inkscape:window-height="1137" inkscape:window-maximized="1" inkscape:window-width="1920" inkscape:window-x="-8" inkscape:window-y="-8" inkscape:zoom="2.085965" objecttolerance="10" pagecolor="#ffffff" showgrid="false">
	</sodipodi:namedview>
<g>
	<path d="M41,33.4c-2.4-0.6-4.8-1-7.1-1.6c-1.2-0.3-2.6-0.7-3.5-1.7c-0.9-1.1-0.6-2.9,0.4-3.9c1-1,2.5-1.4,3.9-1.4
		c1.9,0,4,0.3,5.5,1.6c1.2,0.9,1.9,2.4,3.4,3c1.2,0.4,2.7,0.1,3.7-0.8c0.9-0.9,0.8-2.3,0.3-3.4c-0.7-1.6-2.2-2.8-3.7-3.6
		c-3.5-1.9-7.6-2.5-11.5-1.9C29.7,20,26.9,21,25,23.1c-2.1,2.2-2.5,5.4-1.9,8.3c0.4,1.8,1.5,3.4,3.1,4.4c2,1.4,4.3,1.9,6.6,2.4
		c2.1,0.5,4.2,1,6.3,1.6c1.1,0.3,2.3,0.9,2.8,2.1c0.6,1.2,0.1,2.7-0.8,3.6c-1.3,1.4-3.2,2-5.1,1.9c-1.9,0-3.9-0.5-5.3-1.8
		c-1.2-1-1.8-2.5-3.1-3.5c-1.6-1.3-4.4-0.5-4.9,1.6c-0.4,2.1,0.8,4.1,2.3,5.4c3,2.6,7.1,3.4,11,3.5c3.6,0,7.5-0.7,10.3-3.2
		c3.5-3,4.1-8.7,1.3-12.4C46,35.1,43.5,34,41,33.4z"/>
	<path d="M62.7,40.7c0.8-4.5,0.4-9.2-1.1-13.5c-2.2-6.4-6.8-11.9-12.8-15c-5.3-2.9-11.6-3.9-17.6-2.8C26,6.2,19,6.6,14,10.1
		c-3.3,2.3-5.7,5.9-6.5,9.8c-0.8,3.8-0.2,8,1.7,11.4C8.5,36,8.9,41,10.6,45.5c2.3,6.3,7.1,11.7,13.2,14.7c5.2,2.6,11.2,3.5,16.9,2.5
		c5.1,3,11.9,2.8,16.8-0.5c3.6-2.3,6.1-6.1,7-10.3C65.3,48.1,64.6,44.1,62.7,40.7z M56.5,57.7c-2.9,2.6-7.1,3.6-10.9,2.5
		c-1.5-0.4-2.8-1.1-4.2-1.9c-4.5,1-9.4,0.8-13.7-0.9C21.4,55,16.2,49.5,14.1,43c-1.3-4-1.4-8.4-0.5-12.5c-1.4-2.2-2.4-4.6-2.3-7.2
		c0-4,2.1-7.8,5.4-10c3-2,7-2.5,10.4-1.4c1.2,0.4,2.3,1.1,3.4,1.7c4.3-0.9,8.9-0.8,13,0.7c6.6,2.3,12,7.8,14.2,14.5
		c1.4,4.1,1.5,8.5,0.6,12.7c1.1,1.8,2,3.7,2.2,5.7C61.1,51.1,59.5,55.2,56.5,57.7z"/>
</g>
</svg>
