<?xml version="1.0" encoding="utf-8"?>
<!-- Generator: Adobe Illustrator 28.1.0, SVG Export Plug-In . SVG Version: 6.00 Build 0)  -->
<svg version="1.1" id="Layer_1" xmlns="http://www.w3.org/2000/svg" xmlns:xlink="http://www.w3.org/1999/xlink" x="0px" y="0px"
	 viewBox="0 0 256 145" style="enable-background:new 0 0 256 145;" xml:space="preserve">
<g>
	<path d="M109.97,81.48l-1.49-54.49c0-1.69-1.39-2.99-2.99-2.99c-1.69,0-2.99,1.29-2.99,2.99l-1.39,54.49l1.39,26.2
		c0,1.69,1.39,2.99,2.99,2.99c1.69,0,2.99-1.29,2.99-2.99L109.97,81.48z"/>
	<path d="M99.21,81.48L97.52,24.9c0-1.59-1.29-2.79-2.79-2.79s-2.79,1.2-2.79,2.79l-1.49,56.48l1.49,26.4
		c0,1.59,1.29,2.79,2.79,2.79s2.79-1.2,2.79-2.79L99.21,81.48z"/>
	<path d="M76,25.3c-0.1-1.29-1.1-2.39-2.39-2.39c-1.29,0-2.29,1-2.39,2.39l-1.69,56.08l1.69,26.8c0,1.29,1.1,2.29,2.39,2.29
		c1.29,0,2.29-1,2.39-2.39L78,81.28L76,25.3z"/>
	<path d="M86.76,23.41c0-1.39-1.2-2.59-2.59-2.59c-1.39,0-2.59,1.1-2.59,2.59l-1.59,57.97l1.59,26.6c0,1.39,1.2,2.59,2.59,2.59
		c1.39,0,2.49-1.1,2.59-2.59l1.79-26.6L86.76,23.41z"/>
	<path d="M32.47,109.87c0.8,0,1.39-0.6,1.49-1.49l2.59-26.99l-2.59-27.89c-0.1-0.8-0.7-1.49-1.49-1.49c-0.8,0-1.39,0.6-1.49,1.49
		l-2.29,27.89l2.29,26.99C30.98,109.27,31.68,109.87,32.47,109.87z"/>
	<path d="M120.83,81.48l-1.39-64.75c0-1.1-0.6-2.09-1.49-2.69c-0.5-0.3-1.1-0.6-1.79-0.6c-0.6,0-1.2,0.2-1.79,0.5
		c-0.9,0.6-1.49,1.59-1.49,2.69v0.6l-1.2,64.15l1.2,26v0.1c0,0.7,0.3,1.39,0.8,1.89c0.6,0.7,1.49,1.2,2.49,1.2
		c0.9,0,1.69-0.4,2.29-0.9c0.6-0.6,1-1.39,1-2.29l0.1-2.59L120.83,81.48z"/>
	<path d="M44.33,55.48c-0.1-1-0.8-1.69-1.69-1.69c-0.9,0-1.69,0.7-1.69,1.69l-2.09,25.9l2.09,27.19c0.1,1,0.8,1.69,1.69,1.69
		c0.9,0,1.69-0.7,1.69-1.69l2.39-27.19L44.33,55.48z"/>
	<path d="M52.89,37.35c-1,0-1.89,0.8-1.89,1.89l-1.99,42.14L51,108.58c0.1,1.1,0.9,1.89,1.89,1.89s1.89-0.8,1.89-1.89l2.29-27.19
		l-2.29-42.14C54.79,38.25,53.89,37.35,52.89,37.35z"/>
	<path d="M65.25,108.58l2.09-27.09l-2.09-51.8c-0.1-1.2-1-2.09-2.19-2.09c-1.2,0-2.09,0.9-2.19,2.09l-1.89,51.8l1.89,27.09
		c0,1.2,1,2.09,2.19,2.09C64.25,110.77,65.15,109.77,65.25,108.58z"/>
	<path d="M128.7,7.87c-0.5-0.3-1.1-0.5-1.79-0.5c-0.8,0-1.59,0.3-2.19,0.8c-0.8,0.6-1.29,1.59-1.29,2.69v0.4l-1.39,70.33l0.7,12.95
		l0.7,12.65c0,1.89,1.59,3.39,3.49,3.39s3.39-1.59,3.49-3.49l1.49-25.6l-1.49-70.62C130.29,9.56,129.69,8.47,128.7,7.87z"/>
	<path d="M2.89,96.32c0.5,0,0.9-0.4,1-1l2.19-13.95L3.88,67.24c-0.1-0.6-0.5-1-1-1s-1,0.4-1,1L0,81.38l1.89,13.95
		C1.89,95.93,2.39,96.32,2.89,96.32z"/>
	<path d="M12.35,104.79c0.5,0,1-0.4,1.1-1l2.89-22.41l-2.89-22.91c-0.1-0.6-0.5-1-1.1-1c-0.5,0-1,0.4-1.1,1L8.77,81.38l2.49,22.41
		C11.36,104.39,11.75,104.79,12.35,104.79z"/>
	<path d="M22.31,108.87c0.7,0,1.2-0.5,1.29-1.29l2.69-26.2l-2.69-27.19c-0.1-0.7-0.6-1.29-1.29-1.29c-0.7,0-1.2,0.5-1.29,1.29
		l-2.39,27.19l2.39,26.2C21.12,108.28,21.62,108.87,22.31,108.87z"/>
	<path d="M223.63,48.01c-4.28,0-8.37,0.9-12.15,2.39C208.98,22.21,185.28,0,156.39,0c-7.07,0-13.95,1.39-20.02,3.79
		c-2.39,0.9-2.99,1.89-2.99,3.69v99.51c0,1.89,1.49,3.39,3.39,3.59h86.96c17.33,0,31.38-13.85,31.38-31.18
		C255,62.06,240.96,48.01,223.63,48.01z"/>
	<path d="M25,129.49c-3.69-0.9-4.68-1.29-4.68-2.79c0-1,0.8-2.09,3.29-2.09c2.09,0,3.79,0.9,5.28,2.39l3.39-3.29
		c-2.19-2.29-4.88-3.69-8.47-3.69c-4.58,0-8.27,2.59-8.27,6.77c0,4.58,2.99,5.98,7.27,6.87c4.38,1,5.18,1.69,5.18,3.19
		c0,1.79-1.29,2.49-4.08,2.49c-2.19,0-4.28-0.8-5.98-2.69l-3.39,2.99c1.79,2.59,5.18,4.18,8.96,4.18c6.38,0,9.06-2.99,9.06-7.37
		C32.77,131.59,28.69,130.29,25,129.49z M46.42,120.13c-6.38,0-10.06,4.88-10.06,11.95s3.79,11.95,10.06,11.95
		s10.06-4.88,10.06-11.95S52.69,120.13,46.42,120.13z M46.42,139.36c-3.79,0-5.28-3.19-5.28-7.37s1.59-7.37,5.28-7.37
		c3.79,0,5.28,3.19,5.28,7.37S50.1,139.36,46.42,139.36z M75.21,133.48c0,3.69-1.79,5.98-4.78,5.98s-4.78-2.39-4.78-6.08v-12.95
		h-4.68v13.05c0,6.77,3.79,10.56,9.36,10.56c5.88,0,9.36-3.88,9.36-10.56v-12.95h-4.68v12.95H75.21z M99.81,130.29
		c0,1.29,0.1,4.18,0.1,5.08c-0.3-0.6-1.1-1.79-1.59-2.59l-8.27-12.25h-4.48v23.21h4.58v-10.26c0-1.29-0.1-4.18-0.1-5.08
		c0.3,0.6,1.1,1.79,1.59,2.59l8.47,12.65h4.18v-23.21h-4.58v9.86H99.81z M117.64,120.43h-7.27v23.21h6.87
		c5.98,0,11.85-3.49,11.85-11.55C129.1,123.52,124.21,120.43,117.64,120.43z M117.24,139.16h-2.29v-14.14h2.49
		c4.88,0,6.97,2.39,6.97,7.07C124.41,136.27,122.12,139.16,117.24,139.16z M143.44,124.71c2.09,0,3.39,0.9,4.28,2.49l4.28-1.99
		c-1.49-2.99-4.08-5.18-8.47-5.18c-6.08,0-10.26,4.88-10.26,11.95c0,7.27,4.08,11.95,10.16,11.95c4.18,0,6.97-1.99,8.57-5.28
		l-3.88-2.29c-1.2,2.09-2.49,2.99-4.58,2.99c-3.49,0-5.48-3.19-5.48-7.37C138.06,127.7,140.05,124.71,143.44,124.71z M160.67,120.43
		h-4.68v23.21h13.95v-4.58h-9.26V120.43z M182.19,120.13c-6.38,0-10.06,4.88-10.06,11.95s3.79,11.95,10.06,11.95
		c6.38,0,10.06-4.88,10.06-11.95S188.56,120.13,182.19,120.13z M182.19,139.36c-3.79,0-5.28-3.19-5.28-7.37s1.59-7.37,5.28-7.37
		c3.79,0,5.28,3.19,5.28,7.37S185.97,139.36,182.19,139.36z M210.98,133.48c0,3.69-1.79,5.98-4.78,5.98s-4.78-2.39-4.78-6.08v-12.95
		h-4.68v13.05c0,6.77,3.79,10.56,9.36,10.56c5.88,0,9.36-3.88,9.36-10.56v-12.95h-4.68v12.95H210.98z M228.71,120.43h-7.27v23.21
		h6.87c5.98,0,11.85-3.49,11.85-11.55C240.16,123.52,235.28,120.43,228.71,120.43z M228.31,139.16h-2.19v-14.14h2.49
		c4.88,0,6.87,2.39,6.87,7.07C235.48,136.27,233.19,139.16,228.31,139.16z"/>
</g>
</svg>
