<?xml version="1.0" encoding="utf-8"?>
<!-- Generator: Adobe Illustrator 28.1.0, SVG Export Plug-In . SVG Version: 6.00 Build 0)  -->
<svg version="1.1" id="Layer_1" xmlns="http://www.w3.org/2000/svg" xmlns:xlink="http://www.w3.org/1999/xlink" x="0px" y="0px"
	 viewBox="0 0 72 72" style="enable-background:new 0 0 72 72;" xml:space="preserve">
<g>
	<polygon points="52.8,59.7 52.8,44.2 57.9,44.2 57.9,64.8 11.7,64.8 11.7,44.2 16.8,44.2 16.8,59.7 	"/>
	<path d="M22.5,42.8L47.6,48l1.1-5.1l-25.1-5.3L22.5,42.8L22.5,42.8z M25.8,30.8l23.3,10.8l2.1-4.7L27.9,26.1L25.8,30.8z M32.2,19.4
		L52,35.8l3.3-3.9L35.5,15.4L32.2,19.4L32.2,19.4z M45,7.2l-4.1,3.1l15.3,20.6l4.1-3.1L45,7.2z M21.9,54.5h25.7v-5.1H21.9V54.5z"/>
</g>
</svg>
