<?xml version="1.0" encoding="utf-8"?>
<!-- Generator: Adobe Illustrator 28.1.0, SVG Export Plug-In . SVG Version: 6.00 Build 0)  -->
<svg version="1.1" id="Layer_1" xmlns="http://www.w3.org/2000/svg" xmlns:xlink="http://www.w3.org/1999/xlink" x="0px" y="0px"
	 viewBox="0 0 360 180" style="enable-background:new 0 0 360 180;" xml:space="preserve">
<g>
	<path d="M83,99.7c0,7.1-4.1,11.4-10.6,12.7c-1.8,0.4-4.8,0.4-6.8,0.4l-15.7-0.1v6L36,107.3l13.9-11.4v6l17.6,0.1
		c1.7,0,2.4-1,2.4-1.9c0-1.8-1.7-2.4-6.7-4.8c-8-3.8-14.3-6.6-14.3-15.4c0-6.8,4.9-11.5,12.1-12.5c1.4-0.2,4.2-0.2,5.9-0.2
		c3.6,0,13.7,0.2,13.7,0.2v10.9l-16.6-0.2c-1.4,0-2.2,1-2.2,1.9c0,1.4,1.2,2,5.9,4.2C77.6,88.8,83,91.3,83,99.7z M109.1,98.9
		c0,2-1.8,3.7-5,3.7c-3.5,0-5-1.7-5-3.7V67.3H85.4V100c0,7.2,6,14,18.5,14c11.9,0,18.5-6.7,18.5-14V67.3h-13.3V98.9z M164,99.1
		c0,9-6.1,13.9-15,13.9h-22.4V67.3h21.6c9.7,0,14.6,5.4,14.6,12.5c0,3.6-1.7,6.7-5,9C161.8,91,164,94.3,164,99.1z M139.9,85.4h6.2
		c2.4,0,3.5-1.7,3.5-4.1c0-2.5-1.1-4.1-3.5-4.1h-6.2V85.4z M150.5,98.5c0-2.8-1.3-4.3-3.7-4.3h-6.8v8.6h6.8
		C149.3,102.8,150.5,101.2,150.5,98.5z"/>
	<g>
		<path d="M208.9,67.3h13.3v32.2c0,7.4-5.3,14.2-16.4,14.2c-4.8,0-8.5-1.4-11.2-3.6c-2.6,2.2-6.2,3.6-10.7,3.6
			c-11.9,0-16.8-6.7-16.8-14.2V67.3h13.3v31.9c0,1.3,0.7,3,3.7,3s3.8-1.6,3.8-3V67.3h13.3v31.9c0,1.3,0.7,3,3.7,3s3.8-1.6,3.8-3
			V67.3z M279.6,85.3v-18h-13.2v19.2c0,6.4,4.3,11.2,11.6,13.2v13.2h13.6V99.7c7.4-2,11.5-6.8,11.5-13.2v-7.1c0-0.7,0.4-1.1,1.1-1.1
			h5.9v5.8L324,72.7l-13.9-11.4v5.8h-9.2c-7.8,0-11,4.6-11,11v7.2c0,1.7-1.2,3.7-5.2,3.7C280.8,89,279.6,87,279.6,85.3z M263,80.4
			V113h-13.3V99.7h-10.1v13.2h-13.3V80.4c0-8.2,6.7-14.4,18.4-14.4C256.2,66,263,72.1,263,80.4z M249.7,89.3v-8.2
			c0-2.2-1.6-3.7-5-3.7c-3.6,0-5,1.6-5,3.7v8.2H249.7z"/>
	</g>
</g>
</svg>
