<?xml version="1.0" encoding="utf-8"?>
<!-- Generator: Adobe Illustrator 28.1.0, SVG Export Plug-In . SVG Version: 6.00 Build 0)  -->
<svg version="1.1" id="Synology_x5F_logo" xmlns="http://www.w3.org/2000/svg" xmlns:xlink="http://www.w3.org/1999/xlink" x="0px"
	 y="0px" viewBox="0 0 360 180" style="enable-background:new 0 0 360 180;" xml:space="preserve">
<g>
	<g>
		<path d="M36,92.7l10-0.9c0.6,3.4,1.8,5.8,3.7,7.4c1.9,1.6,4.4,2.4,7.5,2.4c3.3,0,5.8-0.7,7.5-2.1c1.7-1.4,2.5-3.1,2.5-4.9
			c0-1.2-0.4-2.3-1.1-3.1c-0.7-0.8-1.9-1.6-3.7-2.2c-1.2-0.5-4-1.2-8.3-2.3c-5.5-1.4-9.4-3.1-11.6-5.1c-3.1-2.8-4.7-6.3-4.7-10.4
			c0-2.6,0.7-5.1,2.2-7.3c1.5-2.3,3.6-4,6.4-5.2c2.8-1.2,6.1-1.8,10.1-1.8c6.4,0,11.2,1.4,14.5,4.2c3.2,2.9,4.9,6.7,5.1,11.4
			l-10.4,0.3c-0.5-2.6-1.4-4.5-2.8-5.7c-1.4-1.2-3.6-1.7-6.5-1.7c-3,0-5.4,0.6-7,1.9c-1.1,0.8-1.7,1.8-1.7,3.2
			c0,1.2,0.5,2.3,1.5,3.1c1.3,1.1,4.5,2.3,9.5,3.4c5,1.2,8.7,2.4,11.1,3.7c2.4,1.3,4.3,3,5.7,5.3c1.3,2.2,2.1,5,2.1,8.2
			c0,2.9-0.8,5.7-2.5,8.3c-1.6,2.6-3.9,4.5-6.9,5.8c-3,1.2-6.7,1.9-11.2,1.9c-6.5,0-11.5-1.5-14.9-4.5C38.7,102.9,36.7,98.5,36,92.7
			z"/>
	</g>
	<g>
		<path d="M76.4,72.2h10.4l8.9,26.5l8.7-26.5h10.1l-13,35.8l-2.4,6.5c-0.9,2.2-1.7,3.8-2.5,5c-0.8,1.2-1.7,2.1-2.7,2.8
			c-1,0.7-2.3,1.3-3.7,1.7c-1.5,0.4-3.2,0.6-5,0.6c-1.9,0-3.7-0.2-5.6-0.6l-0.8-7.7c1.5,0.3,2.9,0.5,4.1,0.5c2.3,0,4-0.7,5-2
			c1.1-1.4,1.9-3.1,2.5-5.2L76.4,72.2z"/>
	</g>
	<g>
		<path d="M148.6,109.5h-9.8v-19c0-4-0.2-6.6-0.6-7.8c-0.4-1.2-1.1-2.1-2.1-2.7c-0.9-0.6-2.1-1-3.4-1c-1.7,0-3.2,0.5-4.6,1.4
			c-1.4,0.9-2.3,2.2-2.8,3.7c-0.5,1.6-0.8,4.4-0.8,8.6v16.8h-9.8V72.2h9.1v5.5c3.3-4.1,7.3-6.2,12.3-6.2c2.2,0,4.2,0.4,6,1.2
			c1.8,0.8,3.2,1.8,4.1,3c0.9,1.2,1.6,2.6,1.9,4.1c0.4,1.5,0.6,3.7,0.6,6.6L148.6,109.5L148.6,109.5z"/>
	</g>
	<g>
		<path d="M148.7,90.5c0-3.3,0.8-6.4,2.4-9.5c1.6-3.1,3.9-5.4,6.9-7c3-1.6,6.3-2.4,9.9-2.4c5.6,0,10.3,1.8,13.9,5.5
			c3.6,3.7,5.4,8.3,5.4,13.9c0,5.6-1.8,10.3-5.5,14c-3.6,3.7-8.2,5.6-13.7,5.6c-3.4,0-6.7-0.8-9.8-2.3c-3.1-1.5-5.4-3.8-7.1-6.8
			C149.5,98.4,148.7,94.7,148.7,90.5z M158.7,91c0,3.7,0.9,6.6,2.6,8.5c1.8,2,3.9,3,6.5,3c2.6,0,4.7-1,6.5-3
			c1.7-1.9,2.6-4.8,2.6-8.5c0-3.7-0.9-6.5-2.6-8.4c-1.8-1.9-3.9-3-6.5-3c-2.6,0-4.7,1-6.5,3C159.6,84.4,158.7,87.3,158.7,91z"/>
	</g>
	<g>
		<path d="M199.1,53.1v48.1c0,2.3,0.2,3.8,0.5,4.5c0.3,0.8,0.8,1.3,1.5,1.7c0.7,0.4,2,0.6,3.8,0.6v1.4h-17.8v-1.4
			c1.7,0,2.8-0.2,3.4-0.5c0.6-0.4,1.1-0.9,1.4-1.7c0.3-0.8,0.5-2.3,0.5-4.6V68.4c0-4.1-0.1-6.7-0.3-7.6c-0.2-0.9-0.5-1.6-0.9-1.9
			c-0.4-0.4-0.9-0.6-1.5-0.6c-0.7,0-1.5,0.2-2.5,0.6l-0.7-1.4l10.7-4.4L199.1,53.1L199.1,53.1z"/>
	</g>
	<g>
		<path d="M222.6,72.1c5.5,0,9.9,2.1,13.3,6.3c2.8,3.6,4.2,7.7,4.2,12.3c0,3.3-0.8,6.5-2.3,9.9c-1.6,3.3-3.7,5.8-6.5,7.5
			c-2.7,1.7-5.8,2.5-9.1,2.5c-5.5,0-9.9-2.2-13.1-6.5c-2.7-3.7-4.1-7.8-4.1-12.4c0-3.3,0.8-6.6,2.5-9.9c1.7-3.3,3.8-5.7,6.5-7.3
			C216.8,72.9,219.6,72.1,222.6,72.1z M221.4,74.8c-1.4,0-2.8,0.4-4.2,1.2c-1.4,0.8-2.6,2.3-3.4,4.3c-0.9,2.1-1.3,4.8-1.3,8
			c0,5.3,1.1,9.8,3.2,13.6c2.1,3.8,4.9,5.7,8.3,5.7c2.6,0,4.7-1.1,6.3-3.2c1.7-2.1,2.5-5.7,2.5-10.9c0-6.4-1.4-11.5-4.2-15.2
			C226.7,76,224.3,74.8,221.4,74.8z"/>
	</g>
	<g>
		<path d="M248.1,96.2c-2.2-1.1-3.9-2.6-5.1-4.5c-1.2-2-1.8-4.1-1.8-6.4c0-3.6,1.3-6.7,4-9.2c2.7-2.6,6.2-3.9,10.4-3.9
			c3.4,0,6.4,0.8,9,2.5h7.7c1.1,0,1.8,0,2,0.1c0.2,0.1,0.3,0.2,0.4,0.3c0.2,0.2,0.2,0.7,0.2,1.3c0,0.7-0.1,1.2-0.2,1.4
			c-0.1,0.1-0.2,0.3-0.4,0.3c-0.2,0.1-0.9,0.1-2,0.1h-4.7c1.5,1.9,2.2,4.4,2.2,7.3c0,3.4-1.3,6.3-3.9,8.7c-2.6,2.4-6,3.6-10.4,3.6
			c-1.8,0-3.6-0.3-5.5-0.9c-1.1,1-1.9,1.9-2.2,2.7c-0.4,0.8-0.6,1.4-0.6,1.9c0,0.5,0.2,0.9,0.7,1.3c0.4,0.4,1.3,0.7,2.6,0.9
			c0.7,0.1,2.6,0.2,5.5,0.3c5.4,0.2,8.9,0.4,10.5,0.7c2.5,0.3,4.4,1.3,5.9,2.7c1.5,1.5,2.2,3.3,2.2,5.4c0,2.9-1.4,5.7-4.2,8.3
			c-4.1,3.8-9.4,5.7-16,5.7c-5.1,0-9.4-1.1-12.9-3.4c-2-1.3-3-2.7-3-4.1c0-0.6,0.1-1.3,0.4-1.9c0.4-1,1.3-2.3,2.7-4
			c0.2-0.2,1.5-1.7,4-4.3c-1.4-0.9-2.3-1.6-2.9-2.2c-0.6-0.6-0.9-1.4-0.9-2.2c0-0.9,0.4-2,1.1-3.3
			C243.7,100.2,245.5,98.4,248.1,96.2z M247.8,109.5c-1.2,1.3-2.1,2.6-2.7,3.7c-0.6,1.1-0.9,2.2-0.9,3.1c0,1.3,0.7,2.4,2.3,3.3
			c2.6,1.6,6.5,2.5,11.4,2.5c4.7,0,8.2-0.8,10.5-2.5c2.3-1.7,3.4-3.4,3.4-5.3c0-1.3-0.7-2.3-2-2.9c-1.4-0.6-4.1-0.9-8.2-1
			C255.6,110.3,251,109.9,247.8,109.5z M255,74.1c-2,0-3.6,0.8-4.9,2.4c-1.3,1.5-2,3.9-2,7.1c0,4.1,0.9,7.3,2.7,9.6
			c1.4,1.7,3.1,2.6,5.2,2.6c2,0,3.6-0.8,4.9-2.3c1.3-1.5,1.9-3.8,1.9-7c0-4.2-0.9-7.4-2.7-9.8C258.8,75,257.1,74.1,255,74.1z"/>
	</g>
	<g>
		<path d="M276.1,73.2h17v1.5h-0.8c-1.2,0-2.1,0.3-2.7,0.8c-0.6,0.5-0.9,1.2-0.9,1.9c0,1.1,0.4,2.5,1.3,4.3l8.9,18.4l8.1-20.1
			c0.4-1.1,0.7-2.2,0.7-3.3c0-0.5-0.1-0.8-0.3-1c-0.2-0.3-0.5-0.5-1-0.7c-0.4-0.2-1.2-0.3-2.4-0.3v-1.5h11.7v1.5
			c-1,0.1-1.7,0.3-2.3,0.6c-0.5,0.3-1.1,0.9-1.7,1.8c-0.2,0.4-0.7,1.4-1.4,3l-14.7,36.2c-1.4,3.5-3.3,6.2-5.6,8
			c-2.3,1.8-4.6,2.7-6.7,2.7c-1.6,0-2.8-0.4-3.9-1.3c-1-0.9-1.5-1.9-1.5-3.1c0-1.1,0.4-2,1.1-2.6c0.7-0.7,1.8-1,3-1
			c0.9,0,2.1,0.3,3.6,0.8c1.1,0.4,1.7,0.6,2,0.6c0.8,0,1.7-0.4,2.6-1.2c0.9-0.8,1.9-2.4,2.8-4.7l2.6-6.3l-13.1-27.3
			c-0.4-0.8-1-1.8-1.9-3.1c-0.7-0.9-1.2-1.5-1.6-1.9c-0.6-0.4-1.6-0.8-2.9-1.1L276.1,73.2L276.1,73.2z"/>
	</g>
	<path d="M318.5,61.3c-3.1,0-5.5,2.5-5.5,5.5c0,3.1,2.5,5.6,5.5,5.6c3,0,5.5-2.5,5.5-5.6C324,63.8,321.5,61.3,318.5,61.3z
		 M321.9,70.5l-1.1-1.8c-0.2-0.4-0.5-0.7-0.8-0.9c-0.1-0.1-0.3-0.2-0.6-0.4c0.7-0.1,1.2-0.3,1.5-0.7c0.3-0.3,0.5-0.8,0.5-1.3
		c0-0.4-0.1-0.7-0.3-1.1c-0.2-0.3-0.4-0.5-0.8-0.7c-0.3-0.2-0.8-0.2-1.5-0.2h-3.2v7.3h1v-3.2h1.1c0.2,0,0.4,0,0.5,0
		c0.2,0,0.3,0.1,0.4,0.2c0.2,0.1,0.3,0.3,0.5,0.5c0.2,0.2,0.4,0.6,0.7,1l1,1.5h0.8c-0.9,0.7-2,1.1-3.1,1.1c-2.8,0-5-2.3-5-5
		c0-2.8,2.2-5,5-5c2.8,0,5,2.2,5,5C323.5,68.3,322.9,69.6,321.9,70.5z M318.7,66.7h-2.1v-2.4h2.3c0.5,0,0.9,0.1,1.2,0.3
		c0.3,0.2,0.4,0.5,0.4,0.8c0,0.2-0.1,0.5-0.2,0.7c-0.1,0.2-0.3,0.4-0.6,0.4C319.4,66.7,319.1,66.7,318.7,66.7z"/>
</g>
</svg>
