<?xml version="1.0" encoding="utf-8"?>
<!-- Generator: Adobe Illustrator 28.1.0, SVG Export Plug-In . SVG Version: 6.00 Build 0)  -->
<svg version="1.1"
	 id="Layer_1" xmlns:cc="http://creativecommons.org/ns#" xmlns:dc="http://purl.org/dc/elements/1.1/" xmlns:rdf="http://www.w3.org/1999/02/22-rdf-syntax-ns#"
	 xmlns="http://www.w3.org/2000/svg" xmlns:xlink="http://www.w3.org/1999/xlink" x="0px" y="0px" viewBox="0 0 72 72"
	 style="enable-background:new 0 0 72 72;" xml:space="preserve">
<g>
	<path d="M36,64.7l8.1-45.3c7.7,0,10.1,0.8,10.5,4.3c0,0,5.2-1.9,7.8-5.8c-10.1-4.7-20.3-4.9-20.3-4.9L36,20.1h0l-5.9-7.2
		c0,0-10.2,0.2-20.3,4.9c2.6,3.9,7.8,5.8,7.8,5.8c0.4-3.4,2.8-4.3,10.4-4.3L36,64.7"/>
	<path d="M36,10.8c8.2-0.1,17.6,1.3,27.2,5.5c1.3-2.3,1.6-3.3,1.6-3.3C54.3,8.8,44.5,7.4,36,7.3c-8.5,0-18.3,1.5-28.8,5.6
		c0,0,0.5,1.3,1.6,3.3C18.4,12.1,27.8,10.7,36,10.8L36,10.8"/>
</g>
</svg>
