<?xml version="1.0" encoding="utf-8"?>
<!-- Generator: Adobe Illustrator 28.1.0, SVG Export Plug-In . SVG Version: 6.00 Build 0)  -->
<svg version="1.1" id="Layer_1" xmlns="http://www.w3.org/2000/svg" xmlns:xlink="http://www.w3.org/1999/xlink" x="0px" y="0px"
	 viewBox="0 0 828.2 828.2" style="enable-background:new 0 0 828.2 828.2;" xml:space="preserve">
<path d="M414.1,155.3c-220.9,0-400,115.87-400,258.73c0,142.97,179.1,258.87,400,258.87s400-115.87,400-258.87
	S635,155.3,414.1,155.3z M414.1,561.83c-32.87,0-59.67-64.73-61.33-146.17c40.81,3.57,81.86,3.57,122.67,0
	C473.77,497.07,446.97,561.83,414.1,561.83z M356.8,351.03c8.93-57.57,31.23-98.43,57.3-98.43s48.33,40.87,57.3,98.43
	C433.28,354.42,394.93,354.42,356.8,351.03z M414.1,192.7c-42.9,0-79.5,64.27-93,153.97C239.77,334,183,305.07,183,271.47
	c0-45.33,103.47-82.03,231.1-82.03c127.67,0,231.1,36.73,231.1,82.03c0,33.6-56.77,62.53-138.1,75.2
	c-13.5-89.67-50.1-153.93-93-153.93L414.1,192.7z M71.43,404.37c0-43.83,16.9-85,46.27-120.33c-0.3,2.47-0.5,5-0.5,7.53
	c0,55.23,82.83,102.33,198.43,119.67c-0.1,4-0.1,8.07-0.1,12.13c0,103,28.87,190.17,68.77,219.77
	C208.97,632.57,71.47,529.7,71.47,404.37H71.43z M443.9,643.13c39.9-29.6,68.77-116.8,68.77-219.77c0-4.1-0.07-8.1-0.1-12.1
	C628.1,393.93,711,346.87,711,291.57c0-2.53-0.2-5.07-0.5-7.53c29.37,35.43,46.23,76.5,46.23,120.33
	C756.73,529.7,619.23,632.57,443.9,643.13L443.9,643.13z"/>
</svg>
