<?xml version="1.0" encoding="utf-8"?>
<!-- Generator: Adobe Illustrator 28.1.0, SVG Export Plug-In . SVG Version: 6.00 Build 0)  -->
<svg version="1.1" id="Layer_1" xmlns="http://www.w3.org/2000/svg" xmlns:xlink="http://www.w3.org/1999/xlink" x="0px" y="0px"
	 viewBox="0 0 360 180" style="enable-background:new 0 0 360 180;" xml:space="preserve">
<g>
	<g>
		<g>
			<path d="M73.1,82.3c-0.5-1.5-1.9-4.9-2.2-7.4c-0.8-5.5,2.1-9.2,4.7-10c3-0.8,4.1,0.7,5.3,4.1c1.5,5.3,1.7,12.2,1.2,22.1
				c-0.6,13.5-7.4,29.9-24.3,29.6c-14.5-0.3-21-9.7-21.7-24.1c-0.3-6.8,0.2-13.5,3-23.1c1.5-5.1,2.8-7,7.4-7.9
				c3.6-0.7,3.3,3.1,2.5,7.6c-1.8,9.9-2.7,14.7-2,25.9c0.6,11.9,6.1,16.5,12.1,16.5c8.9,0.2,12.9-7.3,14.5-18
				C74.9,89.1,74,85,73.1,82.3z M263.4,94.1c3.5,0,4.5,4.1,3.6,6.6c-0.8,2.5-3.8,5.3-8.4,6.1C257.6,104.3,257.1,94.1,263.4,94.1z
				 M198.8,99.7c0-2.8-1.5-5.1-3.3-5.1c-1.5,0-5,1.6-5,6.9c0,4.2,1.5,6.1,2.1,7C197.4,106.9,198.8,102.9,198.8,99.7z M147.4,65.9
				c-0.2-2.7-2.3-4.4-5.1-4.4c-3.1,0-6.1,3.3-5.8,7.4c0.2,2.7,1.8,5,5,5C145.1,73.9,147.7,69.8,147.4,65.9z M174.3,75.7
				c-0.3-4.6-1.4-6.7-3.9-6.5c-3.3,0.2-4.8,10.6-4.2,21.4c0.4,7.1,1.5,8.2,2.5,8.1C170.5,98.6,174.9,85.9,174.3,75.7z M283.9,93
				c-2,8.5-8.2,21-17.5,21c-2.1,0-5.9-0.8-5.9-3c0-2.3,14.5-2.6,14.5-13.7c0-4.1-3.8-9.9-9.4-9.9c-7.4,0-14.7,8.1-14.7,19.3
				c0,10.1,6.3,13.4,12.5,13.4c10.9,0,17.5-8.9,21-16.4c1.7,5,2.6,16.4,6.8,16.4c1.6,0,2.8-0.8,4.8-5.3c5-11.1,9.7-23.8,16.4-23.8
				c2.5,0,1,4.5,6.9,4.5c2.8,0,4.8-2.3,4.8-5c0-3.8-3.5-6.8-8.8-6.8c-15.5,0-18.8,23.3-21.3,23.3c-4.1,0-2.8-18.7-5.8-18.7
				C285.5,88.4,284.2,91.6,283.9,93z M151.7,112.9c2.5,0,6.7-0.8,10.1-6.2c-1.9-4.3-3.3-12.9-3.5-16c-1-16,5.2-31.1,11.9-31.5
				c5-0.3,8.9,4.4,9.4,12c1.2,20-5.4,28.3-8.8,35.5c0.6,2.8,5.3,7.5,9.7,7.5c1.7,0,3.6-0.8,4.2-1.5c-0.3-1.2-0.7-2.6-0.7-4.8
				c0-11.6,7.4-21.3,13.9-21.3c5.1,0,8.1,6.8,8.1,11.2c0,5.3-4.5,9.6-11.1,13.7c1.2,1.2,3.3,2,5.1,2c9.4,0,14.3-11.4,18-21.8
				c0.7-2,1.8-4.8,4.1-4.8c4,0,5.6,26.1,12.2,26.1c2.8,0,5.1-5.8,5.1-10.2c0-3.3-1.2-3.6-1.2-8.4c0-5.3,2.8-9.7,6.6-9.7
				c2.3,0,3.2,2.3,3.2,5.1c0,10.6-7.6,30.3-18.8,30.3c-8.4,0-7.8-14.5-10.8-14.5c-3.3,0-7.9,14.7-24.3,14.7c-2.7,0-5.5-1.3-7.8-4
				c-4,2.7-7.3,3.8-11.1,3.8c-6.1,0-8.8-6.3-11.2-6.3c-3,0-6.3,6.4-16.2,6.4c-7.9,0-9.3-10.6-12.1-10.6c-2.5,0-6.3,10.6-10.4,10.6
				c-7,0-8.4-18.3-14.5-18.3c-4.8,0-19.9,18.6-24,18.2c-1.7-0.2-2.4-1.4-2.2-3.1c0.2-2.3,2.2-8.4,3-11.3c1.3-5,2.6-10.5,3.2-12.3
				c0.7-1.8,2.5-3,4-2.9c0.8,0.1,1,1.4,1.2,2.6c0.8,4.1,2,8.2,3.3,8.2c2.3,0,10-14.7,14.5-14.7c5.5,0,6.1,23.1,13.5,23.1
				c2.5,0,4.3-3,5.9-6.6c0.2-6.1,1.8-14.9,6.8-14.9c3.5,0,5.1,7.8,2.7,14.5C142.9,110.9,148.2,112.9,151.7,112.9"/>
		</g>
	</g>
</g>
</svg>
