<?xml version="1.0" encoding="utf-8"?>
<!-- Generator: Adobe Illustrator 28.1.0, SVG Export Plug-In . SVG Version: 6.00 Build 0)  -->
<svg version="1.1" id="Layer_1" xmlns="http://www.w3.org/2000/svg" xmlns:xlink="http://www.w3.org/1999/xlink" x="0px" y="0px"
	 viewBox="0 0 72 72" style="enable-background:new 0 0 72 72;" xml:space="preserve">
<g>
	<path d="M58.3,19.8c-0.3,0-0.7,0-1-0.5c-0.2-0.4-0.1-1-0.5-1.3c0.4,0.1,0.8,0.1,1,0.1c1,0,1.9-0.7,2.6-0.7c0.5,0,0.6,0.3,0.6,0.6
		C61.1,19,59.2,19.8,58.3,19.8z M58.8,22.2c2.2,0,4.3-1.8,4.3-3.3c0-0.7-0.3-1.3-1.2-1.4c0.2,0.2,0.2,0.3,0.2,0.7
		c0,1.2-1.8,2.5-3.7,2.5c-0.7,0-0.9,0.5-0.9,0.8C57.4,21.9,58,22.2,58.8,22.2z M58.6,23.1c0.3,2,3.4,4.8,4.2,4.7
		c0.6,0,0.8-2.7,0.8-4.7c0-1.2,0.1-2.1-0.6-2.3C62.1,22.8,59.5,23.2,58.6,23.1"/>
	<path d="M10.5,36.6c0.7,0,0.6-4.4,1.7-4.4c0.3,0,0.4,0.3,0.4,0.6c0,1-0.5,2.5-0.5,3.3c0,0.4,0.1,0.5,0.3,0.5c0.5,0,1.4-4.9,2.3-4.9
		c0.3,0,0.4,0.3,0.4,0.6c0,1-1.3,4-1.3,4.8c0,0.1,0,0.2,0.2,0.2c0.5,0,1.6-2.3,1.9-3.5c0.2-0.6,0.5-0.9,0.7-0.9
		c0.2,0,0.4,0.2,0.4,0.7c0,1.2-1.1,3.9-2,5.7c-0.7,1.4-1.9,3.4-1.9,4.6c0,0.6,0.1,1.2,0.9,1.9c-1.4-0.1-1.9-0.2-2.4-1.3
		c-2.3,4.6,4.2,4.1,2,8.1c-0.4-0.7-3.6-1.5-3.6-5.7c0-3.7,3.2-5.8,3.2-7.3c0-0.3-0.1-0.6-0.4-0.8c-0.7-0.6-0.7-1.1-1.3-1.1
		c-0.4,0-0.9,0.9-0.4,1.8c0.2,0.3,0.3,0.5,0.3,0.7c0,0.6-0.9,2.2-1.6,2.2c-0.7,0-1.2-1.6-1.2-4.3c0-2.4,0.5-4.7,1.2-4.7
		c0.2,0,0.3,0.1,0.3,0.3c0,0.3-0.1,0.8-0.1,1.8C10,36.5,10.3,36.6,10.5,36.6"/>
	<path d="M15.9,42.8c0.9,0,1.6-0.7,1.6-2.1v-2.2c0-0.8,0.1-1.8,0.6-2.4c-0.1,0.3-0.1,0.6-0.1,0.9c0,1.8,1,3.1,1,4.9
		c0,0.7-0.2,1-0.7,1c-0.5,0-0.5-0.5-0.6-0.5c-0.1,0-0.2,0.3-0.2,0.6c0,0.5,0.3,1.2,1.2,1.2c0.8,0,1.4-0.7,1.4-1.5
		c0-1.9-1.5-4.1-1.5-6.1c0-0.9,0.2-1.5,0.4-2c0,4.3,3.6,7.4,3.6,9.1c0,0.4-0.3,0.7-0.8,0.7c-0.5,0-0.7-0.4-0.7-0.7
		c0-0.2,0-0.2-0.1-0.2c-0.1,0-0.5,0.4-0.5,1c0,0.7,0.6,1.6,1.6,1.6c1.2,0,1.9-1,1.9-1.9c0-2.2-4.4-5.7-4.4-9.3
		c0-0.6,0.1-1.6,0.6-2.4c-2.8,1.8-3.7,4.2-3.7,6.4c0,1.8-0.1,2.8-1,2.8c-0.5,0-0.6-0.5-0.8-0.5c-0.1,0-0.2,0.4-0.2,0.5
		C14.8,42.4,15.4,42.8,15.9,42.8"/>
	<path d="M48.3,18.7c0.3-0.2,1.5,0.1,3-0.7c0.2-0.1,0.4-0.2,0.6-0.2c0.8,0,0.6,0.9,1.2,0.9c0.5,0,1.2-0.5,1.6-0.5c0.6,0,1.6,2,1.6,3
		c0,1.1-1.6,1.8-3.6,1.8c-2.8,0-4.6-2.5-4.6-4.1C48.2,18.8,48.3,18.8,48.3,18.7z M53,21.5c0.9,0,1.6-0.4,1.6-0.7
		c0-0.1-0.1-0.2-0.4-0.2c-0.3,0-0.8,0-1.9-0.2c-0.9-0.2-1.6-0.5-1.8-0.5c-0.1,0-0.1,0-0.1,0.1C50.4,20.6,51.4,21.5,53,21.5"/>
	<path d="M16.4,50.9c-0.7,0.2-1.8,1.3-1.8,3c0,2.1,2.2,5.3,5.9,5.3c3.1,0,3.9-2.2,3.9-3.6c0-3.2-2-5.5-4.6-5.5c-1.4,0-2.7,1-2.7,2.5
		c0,1.4,1.1,3.5,3.6,3.5c1.2,0,1.9-0.9,1.9-1.8c0-1-0.9-2.3-2.2-2.3c-0.4,0-0.7,0.3-0.7,0.7c0,0.5,0.7,1,1.6,1c0.2,0,0.4,0,0.5-0.1
		c0,0.1,0.1,0.2,0.1,0.3c0,0.5-0.5,0.8-1.2,0.8c-1.1,0-2.1-0.8-2.1-2.1c0-0.8,0.7-1.3,1.6-1.3c1.9,0,3,1.7,3,3.4
		c0,1.5-0.8,2.4-2.5,2.4C17.3,57.1,15.6,54,16.4,50.9"/>
	<path d="M40.8,63.4c1,0,1-0.1,1.3-0.1s0.3,0.2,0.3,0.3c0,0.5-1.1,1.1-2.9,1.1c-1.1,0-1.8-0.6-1.9-1.2c-1.1,0.7-2.7,1.3-4.3,1.3
		c-4.4,0-5.5-1.9-6.9-2.5c-1-0.5-2.7,0.5-4.9-2c0.3,0.1,0.7,0.1,1,0.1c2,0,3-1,3-2.5c0-0.2,0-0.4,0-0.6c0.6,0.2,2,1.3,2.3,3.1
		c0,0.2,0.9,0.4,1.5,0.4c0.8,0,1.8-0.3,1.9-1.6c2.6-0.2,4.3-1.7,4.7-3.7c0.9,0.3,2,1.1,2.2,1.6c0.4-0.1,0.8-0.2,1.3-0.2
		c0.7,0,1.5,0.1,2.4,0.4c0-0.3,0.1-0.6,0.5-0.6c0.6,0,0.5,0.7,0.7,1.1c0.1,0.2,0.6,0.3,0.6,0.8c0,0.4-0.3,0.6-0.6,0.6
		c-0.1,0-0.2,0-0.3,0c-0.4,0.2-0.5,3.2-2.2,3.2c-1.3,0-2.5-1.1-3.1-2.5c-0.2-0.4-0.5-0.7-0.8-0.7c-0.3,0-0.5,0.1-0.9,0.5
		c-1.2,1.3-3.1,2.4-5.5,2.4c-0.7,0-1.3-0.1-1.5-0.1c-0.1,0-0.1,0-0.1,0c0,0.2,0.7,0.7,2.3,0.7c3.8,0,4.7-2.1,5.3-2.1
		c0.1,0,0.3,0,0.5,0.3C37.7,63,39.6,63.4,40.8,63.4z M39.1,59.1c0,0.5,0.4,0.9,0.9,0.9s0.9-0.4,0.9-0.9s-0.4-0.9-0.9-0.9
		S39.1,58.7,39.1,59.1"/>
	<path d="M56.1,48.5c-0.3,0-0.6,0.2-0.6,0.8c0,0.6,0.5,1,0.8,1.2c0.2,0.1,0.4,0.2,0.6,0.2c0.6,0,1.1-0.2,1.1-0.7
		C58,49.3,57,48.5,56.1,48.5z M53.8,49.8c-0.5,0-2.9,3.3-4.5,3.3c-0.4,0-0.7-0.7-0.7-1.3c0-0.3,0.2-0.5,0.9-0.7
		c3.7-0.8,2.9-3.6,6-3.6c1.7,0,3.7,1.2,3.7,3.8c0,2.8-4,6.3-4.6,6.3c-0.5,0-1-0.7-1-1.2c0-0.2,0.1-0.3,0.5-0.5
		c2-0.8,3.2-2.7,3.2-3.7c0-0.2-0.1-0.4-0.4-0.4c-0.4,0-1.9,3.5-3.7,3.5c-1.2,0-2.4-1.1-2.4-1.6c0-0.9,3.5-2.4,3.5-3.6
		C54.2,49.8,54,49.8,53.8,49.8"/>
	<path d="M11.4,21.8c0,0-0.6,0.5-1.4,0.5c-0.9,0-1.6-0.7-1.6-1.6c0-0.7,0.3-1.3,1.1-1.7c0,0.1,0,0.2,0,0.4
		C9.5,20.5,10.2,21.4,11.4,21.8z M16,25.9c-0.5,0.6-1,1.5-1,2.5c0,1.2,0.7,2.1,1.8,2.1c1,0,1.5-0.9,1.5-1.8
		C18.4,27.2,17.1,26.2,16,25.9z M8.9,26.7c0,0.1-0.1,0.2-0.1,0.2c0,0.2,0.2,0.4,0.4,0.4c0.2,0,0.3,0,0.4,0c0.5,0,1.1,0.4,1.9,0.4
		c0.5,0,1.1-0.2,1.8-0.5c1.5-0.8,2.1-2.7,2.1-3c0-0.4-0.3-0.4-0.6-0.7c-0.3-0.4-0.2-0.7-0.3-0.9c-0.1-0.1-0.4-0.1-0.8-0.2
		c-0.1,0-0.3,0-0.5,0c-0.7,0-1.5,0.1-2.5,0.7C8.9,24.3,9.2,26.2,8.9,26.7z M13.9,24.1c0.2,0.2,0.6,0.5,0.6,0.6
		c0,0.3-0.2,0.7-0.5,0.7c-0.8,0-1.3-1.1-1.3-1.8c0-0.4,0.2-0.5,0.6-0.5c0.2,0,0.2,0,0.3,0.1C13.7,23.3,13.7,23.7,13.9,24.1z
		 M12,26.7c-0.7,0-1.5-0.9-1.5-1.7c0-0.4,0.3-1,0.6-1c0.1,0,0.1,0.1,0.2,0.2c0.1,1,0.8,1.6,1.5,1.9c0.1,0,0.1,0.1,0.1,0.1
		C12.8,26.5,12.4,26.7,12,26.7z M13.8,21.3c0.1-0.3,0.2-0.8,0.2-1.2c0-1-0.5-2.6-1.9-2.6c-0.8,0-1.4,0.7-1.4,1.5
		C10.6,20.6,12.3,21.3,13.8,21.3z M8.3,29.8c0,1.6,0.5,2.4,1.4,2.4c0.7,0,1.6-0.5,2.7-1.4c-0.8,0.2-1.5,0.3-2,0.3
		C9.5,31.1,8.9,30.8,8.3,29.8z M9,27.9c0,0.1,0,0.2,0,0.3c0,1,0.5,1.6,1.2,1.6c0.5,0,1.2-0.3,1.7-1c-0.2,0-0.5,0.1-0.8,0.1
		C10.4,28.9,9.5,28.6,9,27.9z M14.2,27.6c-0.5,0.1-1.5,0.7-1.5,1.8c0,0.8,0.6,1.3,1.3,1.3c0.4,0,0.7-0.1,0.8-0.2
		c-0.6-0.6-0.8-1.2-0.8-1.9C14.1,28.2,14.2,27.9,14.2,27.6z M15,21.8c0,0.5,0.4,0.9,0.9,0.9c0.5,0,0.9-0.4,0.9-0.9
		c0-0.5-0.4-0.9-0.9-0.9C15.4,20.9,15,21.3,15,21.8z M16.1,23.7c0,0.5,0.4,0.9,0.9,0.9c0.5,0,0.9-0.4,0.9-0.9s-0.4-0.9-0.9-0.9
		C16.5,22.8,16.1,23.2,16.1,23.7"/>
	<path d="M49.5,34.2c0-0.4,0.4-0.8,0.8-0.8c0.5,0,0.8,0.4,0.8,0.8c0,0.5-0.4,0.8-0.8,0.8C49.9,35,49.5,34.7,49.5,34.2z M42,27.6
		c0,0.5,0.4,0.9,0.9,0.9c0.5,0,0.9-0.4,0.9-0.9s-0.4-0.9-0.9-0.9C42.4,26.8,42,27.1,42,27.6z M41.3,30.6c0,0.7,0.6,1.2,1.2,1.2
		c0.7,0,1.2-0.6,1.2-1.2c0-0.7-0.6-1.2-1.2-1.2C41.8,29.4,41.3,30,41.3,30.6z M44,29.3c0,0.7,0.6,1.3,1.3,1.3c0.7,0,1.3-0.6,1.3-1.3
		c0-0.7-0.6-1.3-1.3-1.3C44.5,28,44,28.5,44,29.3z M44.1,26.5c0,0.5,0.4,0.8,0.8,0.8c0.5,0,0.8-0.4,0.8-0.8s-0.4-0.8-0.8-0.8
		C44.4,25.7,44.1,26,44.1,26.5z M47.9,24.4c0,0.5,0.4,0.8,0.8,0.8s0.8-0.4,0.8-0.8c0-0.5-0.4-0.8-0.8-0.8
		C48.3,23.6,47.9,24,47.9,24.4z M46.3,27.1c0,0.8,0.6,1.4,1.4,1.4s1.4-0.6,1.4-1.4c0-0.8-0.6-1.4-1.4-1.4
		C47,25.7,46.3,26.3,46.3,27.1z M44.1,32.1c0,0.5,0.4,0.9,0.9,0.9c0.5,0,0.9-0.4,0.9-0.9s-0.4-0.9-0.9-0.9
		C44.5,31.2,44.1,31.6,44.1,32.1z M46.9,30.4c0,0.5,0.4,0.9,0.9,0.9s0.9-0.4,0.9-0.9c0-0.5-0.4-0.9-0.9-0.9
		C47.3,29.5,46.9,29.9,46.9,30.4z M46.1,33.4c0,0.8,0.7,1.5,1.5,1.5s1.5-0.7,1.5-1.5s-0.7-1.5-1.5-1.5
		C46.8,31.9,46.1,32.6,46.1,33.4z M49.2,31.5c0,0.6,0.5,1,1,1c0.6,0,1-0.5,1-1s-0.5-1-1-1C49.7,30.5,49.2,31,49.2,31.5z M49.2,28.9
		c0,0.5,0.4,0.9,0.9,0.9s0.9-0.4,0.9-0.9c0-0.5-0.4-0.9-0.9-0.9C49.6,28,49.2,28.4,49.2,28.9"/>
	<path d="M51.3,56.9c-0.6,0.4-1.9,1.4-4,1.4c-1.2,0-1.7-0.4-1.8-0.4c-0.2,0-0.5,0.2-0.7,0.5c-0.5,0.6-1.2,1.7-1.2,2.9
		c0,0.9,0.7,1.7,1.9,1.7c4,0,7-2.5,7-4.5C52.5,57.4,51.8,56.9,51.3,56.9z M50.2,56.7c0.2-0.2,0.2-0.4,0.2-0.6v-0.5
		c0-0.6-0.9-1-2.2-1c-1.6,0-2.4,0.7-2.4,1v1c0,0.4,0.9,0.8,2.1,0.8C48.8,57.4,49.7,57.2,50.2,56.7z M50.1,58.8
		c0.1,0,0.2,0.1,0.2,0.5c0,0.5-0.2,1.1-1,1.6c-0.5,0.4-1.3,0.7-2.3,0.7c0.2-0.5,0.3-1,0.3-1.6c0-0.2,0-0.3,0-0.5h0.3
		C49.2,59.5,49.9,58.8,50.1,58.8"/>
	<path d="M41.9,32.7c0.2,1.8,2.7,0.9,2.7,3.1c0,0.3-0.1,0.8-0.1,1.2c0,0.5,0,0.9,0.4,0.9c0.4,0,0.5-0.3,0.5-0.6c0-0.3-0.1-0.8-0.1-1
		c0-0.8,0.5-0.9,0.9-0.9c0.8,0,1.4,0.8,2.7,0.8c-0.3,1.4-3.1,1-3.1,2.5c0,0.8,0.8,0.9,1.2,0.9c0.5,0,0.6-0.1,0.6-0.5
		c0-0.2,0-0.5,0-0.6c0-0.1,0.1-0.2,0.2-0.2c0.5,0,2.8,1.8,2.8,2.3c0,0.5-2.4,1-3.1,1c-0.2,0-0.3-0.2-0.3-0.2c0-0.2,0.4-0.6,0.4-0.9
		c0-0.2-0.3-0.3-1.2-0.3c-0.4,0-0.7,0-0.7,0.4c0,0.6,0.9,1.3,0.9,1.8c0,0.4-0.3,0.7-0.9,0.7c-0.6,0-1.5-0.5-1.5-1.2
		c0-0.6,0.6-1.2,0.6-1.6c0-0.1-0.1-0.3-0.3-0.3c-0.8,0-1,2.1-3.8,2.3c0.5-0.4,0.8-0.9,0.8-1.8c0-0.5-0.1-0.8-0.1-1.3
		c0-0.6,0.3-1,0.7-1c0.8,0,1.2,1.1,1.7,1.1c0.3,0,0.6-0.3,0.6-0.6c0-1.6-3.1-1.4-3.1-3.7C41.1,34.5,41.3,33.7,41.9,32.7z M52.1,38.9
		c0,0.5,0.2,1.2,0.7,1.2c0.5,0,0.8-0.7,0.8-1.4c0-0.9-0.2-1.5-0.2-1.9c0-0.2,0.1-0.2,0.2-0.2c0.3,0,0.6,0.9,1,0.9
		c0.4,0,1-0.7,1.2-0.7c0.1,0,0.1,0.1,0.1,0.1c0,0.3-0.5,1-0.5,1.3c0,0.2,1.2,0.3,1.2,0.5c0,0.3-1.3,0.3-1.9,0.6c-0.6,0.3-1,0.6-1,1
		c0,0.4,0.4,0.5,1,0.5c1.4,0,2.4-0.8,2.8-0.8c0.1,0,0.1,0,0.1,0.1c0,0.2-0.7,0.9-0.7,1.2c0,0.4,1.3,0.8,1.3,1c0,0.1-0.1,0.1-0.3,0.1
		c-0.2,0-0.6-0.1-0.9-0.1c-0.2,0-0.3,0-0.4,0.1c-0.2,0.2,0,1.3-0.3,1.3c-0.3,0-1-2.5-2.7-2.5c-0.2,0-0.4,0.2-0.4,0.5
		c0,0.9,0.8,1.8,1.6,2.3c0.4,0.2,1,0.5,1,0.6c0,0.3-1.4,0-1.4,0.5c0,0.4,0.2,1,0.2,1.3c0,0.1,0,0.2-0.2,0.2c-0.3,0-0.9-1.2-1.2-1.2
		c-0.3,0-0.8,0.7-1.1,0.7c-0.1,0-0.1-0.1-0.1-0.1c0-0.5,0.8-1.6,0.8-2.7c0-0.5-0.1-1.6-0.7-1.6c-0.5,0-1.1,0.8-1.4,1.6
		c-0.2,0.5,0,2.3-0.4,2.3c-0.3,0-0.2-1.2-0.7-1.2c-0.3,0-1,0.6-1.2,0.6c0,0-0.1,0-0.1-0.1c0-0.3,0.6-1.1,0.6-1.3
		c0-0.3-1.4-0.4-1.4-0.6c0-0.2,0.6-0.3,1.1-0.3c1.1-0.2,2.7-1,2.7-2.1c0-1.2-1.2-1.8-2-2.3c-0.4-0.3-0.9-0.5-0.9-0.6
		c0-0.2,0.5-0.2,0.7-0.2c0.3,0,0.6,0,0.6-0.3c0-0.2,0-0.6,0-0.9c0-0.2,0-0.4,0.1-0.4c0.3,0,0.8,1,1,1c0.3,0,0.8-0.9,1.1-0.9
		c0.1,0,0.2,0.1,0.2,0.3C52.5,37.3,52.1,38.2,52.1,38.9"/>
	<path d="M42.5,44.9c1,0.1,1.2,0.5,1.2,0.8c0,0.5-0.4,0.6-0.8,0.6c-0.3,0-0.6-0.1-1-0.1c-0.5,0-0.9,0.1-1.3,0.6
		c0.3,0,0.7,0.2,0.7,0.7c0,1.2-3.4,0.2-3.4,3.4c0,1.7,1.8,3.5,4.4,3.5c1.4,0,2.2-0.5,2.2-1c0-0.4-0.7-0.1-0.7-0.5
		c0-0.2,0.3-0.4,0.3-0.7c0-0.1-0.1-0.3-0.3-0.3c-0.4,0-1.1,0.6-2.6,0.6c-1.2,0-2.3-0.7-2.3-1.6c0-0.2,0.1-0.3,0.2-0.3
		s0.3,0.1,0.5,0.1c0.1,0,0.2-0.1,0.2-0.3c0-0.2,0-0.9,0.4-0.9c0.4,0,1.2,1.5,4.1,1.5c1,0,2.9-0.2,3.6-0.8c0,2.4-1.9,5.5-5.7,5.5
		c-4,0-6.1-3.2-6.1-6.2c0-3.3,2.7-6.2,6.3-6.2c0.9,0,1.7,0.3,1.7,0.7C44,44.5,42.6,44.2,42.5,44.9z M49.1,46
		c0.2,0.2,0.2,0.5,0.2,0.7c0,0.6-0.4,1.2-0.4,1.8c0,0.7,0.5,1.3,1.3,1.3c0.9,0,1.5-0.7,1.5-1.5C51.7,47.1,50.7,46.1,49.1,46z
		 M42,47.4c0.2,0.2,0.3,0.4,0.3,0.6c0,0.3-0.2,0.7-0.2,1c0,0.5,0.4,1,0.9,1c0.6,0,1-0.5,1-1C44.1,48.2,43.2,47.4,42,47.4z
		 M44.8,43.7c2.2,0.4,3.5,2.1,3.5,3.7c0,1.1-0.7,2.1-1.9,2.1c-1.1,0-1.9-0.8-1.9-1.9c0-0.9,0.7-1.8,0.7-2.8
		C45.2,44.5,45.1,44.1,44.8,43.7z M45.9,46.6c0,0.3,0.2,0.5,0.5,0.5c0.3,0,0.6-0.3,0.6-0.6c0-0.5-0.4-1.1-0.8-1.1
		c-0.2,0-0.1,0.3-0.2,0.5C46.1,46.1,45.9,46.4,45.9,46.6"/>
	<path d="M22.3,24.6c0.7,0,1.6-3.9,1.6-4.6c0-0.2-0.1-0.3-0.2-0.3c-0.7,0-1.6,3.7-1.6,4.6C22.1,24.4,22.1,24.6,22.3,24.6z
		 M27.6,25.7c0.5,0,1.1-2.1,1.1-3.3c0-0.3,0-0.6-0.2-0.6c-0.5,0-1.2,2.1-1.2,3.3C27.3,25.5,27.4,25.7,27.6,25.7z M24.1,23.8
		c0.2,0,0.5-0.3,1.1-0.9c0-0.3,0-0.5,0-0.9c0-0.4-0.2-0.9-0.4-0.9c-0.6,0-1,1.7-1,2.2C23.8,23.6,24,23.8,24.1,23.8z M27,22.9
		c0-0.4-0.1-0.5-0.2-0.5c-0.2,0-0.5,0.3-0.8,0.8c0,0.8,0.2,1.1,0.4,1.1C26.7,24.4,27,23.7,27,22.9z M28.7,20.4c1.4,0,2,1.2,2,2.6
		c0,0.6-0.2,1.5-0.5,1.5C30,24.5,30,24,30,23.6c0-0.6-0.2-0.7-0.3-0.7c-0.4,0-0.6,0.9-0.6,1.6c0,0.5,0.1,1,0.5,1
		c0.2,0,0.4-0.1,0.5-0.2c-0.1,1-0.8,1.8-1.8,1.8c-1.9,0-2.6-2.2-2.8-3.5c-1.1,1.2-2.2,2.1-4.1,2.1c-1.7,0-2.5-1.3-2.5-2.5
		c0-0.4,0.1-1.3,0.6-1.3c0.5,0,0.1,1.7,1.1,1.7c0.3,0,0.7-0.2,1-0.9c0.2-0.4,0.2-0.9,0.2-1.3c0-0.6-0.1-0.9-0.6-0.9
		c-0.4,0-0.8,0.3-1,0.4c0.5-1.5,1.8-2.3,3.1-2.3c1.7,0,2.6,1.5,2.6,3.2c0,0.2,0,0.5-0.1,0.7C26.6,21.3,27.6,20.4,28.7,20.4"/>
	<path d="M24.7,26.2c-0.9,0-1,1.1-1,3.4c-0.7-1.5-1.8-3.1-3.1-3.1c-0.9,0-1.2,0.6-1.2,1.6c0,0.2,0,0.5,0.1,0.7
		c0.1-0.4,0.5-0.5,0.9-0.5c0.9,0,2,0.7,2.8,1.7c-0.8-0.2-1.6-0.3-2.3-0.3c-0.4,0-0.8,0-1.1,0.2c-0.6,0.3-1.5,1.2-1.5,2.6
		c0,0.2,0,0.5,0.1,0.7c0.8-1.7,2.7-2.4,4-2.4c0.3,0,0.5,0,0.6,0c-0.7,0.6-0.8,1.6-0.9,2.4c0,0.3-0.2,0.4-0.4,0.4
		c0,0.7,0.6,1.8,0.6,2.3c0,0.2-0.1,0.4-0.2,0.4c0,0.9,0.9,1.6,0.9,2.2c0,0.2,0,0.3-0.1,0.3c0.1,0.4,1.1,1,1.2,1.4
		c0.2,0.4,0.3,0.5,0.5,0.5c0.4,0,0.9-0.4,0.9-0.8c0-0.1-0.1-0.3-0.2-0.3c-0.4-0.3-0.6-0.9-0.8-1.4c-0.2,0-0.3-0.1-0.4-0.3
		c-0.1-0.4-0.1-1.3-0.3-1.8c-0.3-0.1-0.4-0.2-0.4-0.8c0-0.3,0.2-1.4,0.2-1.8c-0.1,0-0.3-0.1-0.3-0.3c0-0.7,0.7-1.2,0.9-2.1
		c1.2,0.9,1.5,1.8,1.5,2.6c0,0.4-0.1,0.8-0.2,1.2c0.9-0.5,2.2-1.1,2.2-2.5c0-0.8-0.4-1.7-2.8-2c0.8-0.3,1.7-0.4,2.5-0.4
		c1.4,0,2.2,0.4,2.3,1.4c0.3-0.4,0.5-0.9,0.5-1.4c0-1.1-0.9-1.7-2-1.7c-1.3,0-2.5,0.7-3.7,1.5c0.6-1.2,0.9-1.8,1.6-1.8
		c0.1,0,0.2,0,0.3,0C26.1,27.1,25.2,26.2,24.7,26.2"/>
	<path d="M60.7,41.6c1.1,0,1.9,1.4,1.9,3c0,1.7-0.8,3.6-2.3,4.9c0-2.9-3.6-2-3.6-4.1c0-0.9,0.6-1.5,1.4-1.5c0.7,0,1.2,0.2,1.6,0.6
		c-0.4-0.4-0.6-0.9-0.6-1.4C59.3,42.4,59.8,41.6,60.7,41.6"/>
	<path d="M41.6,21.3c0.6,0.5,1,0.8,1.6,0.8c0.2,0,0.5-0.1,0.7-0.1c0.2,0,0.3,0.1,0.3,0.2c0,0.2-0.2,0.6-0.5,0.8
		c0.3,0.1,0.5,0.2,0.8,0.2c1.2,0,2.6-0.8,2.6-2.7c0.3,0.3,0.4,1,0.4,1.4c0,2.3-1.7,3.2-3.3,3.2c-1,0-1.5-0.3-1.7-0.3
		c-0.4,0-0.4,0.8-0.7,0.8c-0.5-0.1-0.9-1.2-0.9-2.3C41,22.5,41.2,21.8,41.6,21.3z M44.8,19.7c-0.2-0.3-0.8-0.4-1.1-0.4
		c-0.9,0-1.6,0.7-1.7,1.3c-0.1-0.2-0.2-0.5-0.2-0.7c0-0.9,0.6-2.1,2.2-2.1c1.4,0,1.9,0.7,2.1,0.7c0.2,0,0.4-0.2,0.6-0.2
		c0.2,0,0.2,0.4,0.2,0.6c0,0.9-0.4,2.3-1.4,2.9c-0.2-0.4-0.5-0.8-1.1-1c-0.2-0.1-0.2-0.2-0.2-0.3C44.4,20.1,44.6,19.8,44.8,19.7"/>
	<path d="M26.7,15.1c0,0.8,2.7,4.4,3.2,4.4c0.4,0,0.8-0.8,0.8-1.4c0-0.2,0-0.3-0.1-0.5c-0.4-0.5-3.1-2.7-3.7-2.7
		C26.8,14.9,26.7,15,26.7,15.1z M11,12.8c0,0.4-1.6,1.9-2.2,1.9c-0.2,0-0.3-0.3-0.3-0.5c0-0.4,0.2-1,0.4-1.2
		c0.3-0.3,0.9-0.4,1.4-0.4C10.7,12.6,11,12.7,11,12.8z M30.5,14.1c0-1.3-3.5-3.6-3.5-4.6c0-0.1,0-0.2,0.1-0.3
		c0.6-0.6,3.1-1.1,3.1-1.6c0-0.3-0.5-0.3-0.8-0.3c-2,0-4.9,0.7-4.9,1.4c0,0.7,2.6,2.5,2.6,3.4c0,0.2-0.2,0.3-0.4,0.3
		c-0.7,0-2.3-0.9-3.1-0.9c-0.3,0-0.5,0.2-0.5,0.6c0,1,1.2,3,1.2,3.5c0,0.1,0,0.2-0.1,0.2c-0.4,0-2.2-2.1-2.8-2.1
		c-0.2,0-0.3,0.3-0.3,0.8v0.7c0,0.5,0,0.8-0.3,0.8c-0.6,0-0.8-1.6-1.3-1.6c-0.6,0-0.7,2.8-1.2,2.8c-0.6,0-0.1-3.1-0.7-3.1
		c-0.7,0-1.4,2-1.9,2c-0.2,0-0.2-0.2-0.2-0.3c0-0.6,0.4-1.6,0.4-2.2c0-0.3-0.1-0.5-0.3-0.5c-0.7,0-2.1,1.1-2.7,1.1
		c-0.1,0-0.2,0-0.2-0.1c0-0.5,2.3-2.1,2.3-2.9c0-0.7-3.2-0.2-3.2-1.1c0-0.7,2.3-1.4,2.3-2.1c0-0.6-2.7-0.9-3.8-0.9
		c-1.3,0-1.9,0.2-1.9,0.5c0,0.6,2.9,0.7,2.9,1.2c0,0.5-3,1.7-3,2.5c0,0.6,4.2,0,4.2,0.7C12.6,12.8,9,16,9,17c0,0.2,0.2,0.3,0.4,0.3
		c1.1,0,4-2.1,4.8-2.1c0.3,0,0.3,0.3,0.3,0.6c0,0.6-0.2,1.4-0.2,2c0,0.5,0.1,0.8,0.6,0.8c0.8,0,1.5-1.3,2.1-1.3c0.7,0,0.3,4,1.3,4
		c0.9,0,1.2-4.3,1.8-4.3s1,1.2,1.5,1.2c0.6,0,0.3-2.2,1-2.2c0.8,0,2.9,2.6,3.8,2.6c0.3,0,0.4-0.2,0.4-0.5c0-1.1-1.6-3.7-1.6-4.5
		c0-0.2,0.1-0.3,0.3-0.3c0.8,0,3.3,1.2,4.4,1.2C30.3,14.6,30.5,14.4,30.5,14.1z M28.3,9.9c0,0.4,1.3,1.2,2,1.2c0.4,0,0.5-0.5,0.5-1
		c0-0.6-0.3-0.7-0.8-0.7C29.2,9.4,28.3,9.6,28.3,9.9z M23.3,7.7c0-0.1-0.6-0.3-1.5-0.3c-1.4,0-1.2,1.2-2.3,1.2
		c-1.1,0-0.8-1.2-2.2-1.2c-0.9,0-1.6,0.2-1.6,0.3c0,0.3,1,0.2,1,0.9c0,0.7-2.2,1-2.2,1.4c0,0.2,0.2,0.2,0.4,0.2
		c0.5,0,1.2-0.2,1.8-0.2c0.3,0,0.6,0.1,0.6,0.3c0,0.5-1.2,1.5-1.2,1.9c0,0.1,0.1,0.2,0.2,0.2c0.4,0,1.2-1.1,1.8-1.1
		c1.1,0,0.4,2.4,1,2.4c0.6,0,0.4-2.4,1.3-2.4c0.8,0,1.3,1.6,1.8,1.6c0.1,0,0.2-0.1,0.2-0.3c0-0.5-0.6-1.4-0.6-2
		c0-0.4,0.3-0.5,0.6-0.5c0.5,0,1.2,0.3,1.5,0.3c0.1,0,0.3,0,0.3-0.2c0-0.5-1.9-1.1-1.9-1.7C22.2,8,23.3,8,23.3,7.7"/>
	<path d="M61.2,11.1c0,1.9-1.4,3.4-3.9,3.8c0.3,0,0.5,0,0.8,0c2.9,0,4-1.3,4-2.4C62.1,11.9,61.8,11.3,61.2,11.1z M57.6,13.3
		c0-1.5-3.6-1.9-3.6-2.2c0-0.3,2-0.8,3.1-0.8c-1.6-2-3.9-1.8-3.9-2.2c0-0.2,1.7-0.6,3.3-0.6c1.3,0,2.6,0.3,2.6,1.3
		c0,0.6-0.5,1.1-0.5,2c0,0.5,0.2,0.9,0.9,0.9c0.7,0,0.8-0.7,0.8-1.5c0-0.6-0.1-1.1-0.1-1.4c0-0.9,0.6-1.5,1.5-1.5
		c0.7,0,0.9,0.3,2,0.3c-0.6,0.3-0.8,1-0.8,1.3c0,0.9,0.6,1.5,0.6,3.4c0,3.4-3.2,4.6-7,4.6c-1.1,0-2.2-0.1-3.3-0.3
		c-0.2,0-0.2-0.1-0.2-0.2c0-0.3,1.5-0.4,1.5-1.8c0-0.5-0.2-1.1-0.2-1.2c0-0.1,0.1-0.2,0.2-0.2c0.3,0,1,1.2,2.2,1.2
		C56.8,14.4,57.6,14.3,57.6,13.3z M61.1,8.6c0,0.3,0.2,0.5,0.5,0.5c0.3,0,0.5-0.2,0.5-0.5S61.9,8,61.6,8C61.3,8,61.1,8.3,61.1,8.6"
		/>
	<path d="M59.2,28.3c0-0.5-1.1-0.5-1.2-1.7c0-0.2-0.1-0.5-0.3-0.5c-0.4,0-0.1,1.2-0.5,1.2c-1,0-1.3-1.9-1.7-1.9
		c-0.1,0-0.2,0.1-0.2,0.3c0,0.2,0,0.4,0,0.7c0,0.3-0.1,0.5-0.3,0.5c-0.6,0-1.1-1.3-1.6-1.3c-0.1,0-0.2,0.1-0.2,0.2
		c0,0.3,0.4,0.7,0.4,1c0,0.5-1.4,0.2-1.4,0.7c0,0.2,0.2,0.3,0.5,0.3c0.5,0,1.2-0.2,1.5-0.2c0.2,0,0.5,0,0.5,0.3c0,0.3-0.8,0.7-0.8,1
		c0,0.1,0.1,0.2,0.2,0.2c0.6,0,1.6-1,2.3-1c0.1,0,0.5,0.1,0.5,0.3c0,0.3-0.7,0.8-0.7,1.2c0,0.1,0.1,0.2,0.2,0.2c0.4,0,0.9-1,1.6-1
		c0.3,0,0.7,0.1,0.9,0.1C59.1,28.5,59.2,28.4,59.2,28.3z M59.7,38.7c0.3-1.1,0.8-1.8,1.5-3c-0.7-0.4-2.6-1.1-2.6-2.4
		c0-1.5,1.8-2.6,2.2-2.6c0.2,0,0.2,0.2,0.2,0.4c0,0.8-0.4,2-0.4,2.7c0,0.6,0.4,1.2,0.7,1.2c0.4,0,1.4-1.3,1.4-2.5c0-2.3-2-3-2.6-3
		c-0.6,0-1.6,0.9-4.1,0.9c-4.6,0-5.6-4.6-5.6-6.5c0-0.1,0-0.1,0-0.1c0.1,0,0.6,0.6,2,0.6c0.8,0,1.4-0.2,2.5-0.2c2.6,0,3.7,1.8,5.3,4
		c1,0.6,3.2,1.6,3.2,4.3c0,2.4-2.5,3.7-3.2,6.3c1-0.1,1.6-1.9,2.6-1.9c0.5,0,0.8,0.4,0.8,1.1c0,0.9-0.5,2.4-1.6,3.2
		c0-0.1,0-0.2,0-0.3c0-0.6-0.2-1.5-0.9-1.5c-1.1,0-1.4,1.2-2,2.1c-0.6-2.2-1.5-4.1-3-5.4c-1.5-1.2-4.1-0.6-4.1-2.8
		c0-0.6,0.4-1.5,0.4-2.1c0-0.2,0-0.5-0.2-0.6c2.1,0.8,1.3,2.1,2.6,3.6c0.8,0.9,3,1.8,4.2,5.5c0-0.1,0-0.4,0-0.6
		c0-3.2-4.2-6.3-4.6-7.6c2.4,0.3,2.9,0.9,4,4.1C59,36.3,59.7,37.9,59.7,38.7"/>
	<path d="M48,16.1c-1.5,0-2.5-0.7-2.5-1.1c0-0.2,0.1-0.3,0.3-0.3c0.5,0,1.5,0.7,1.8,0.7c0.1,0,0.2,0,0.2-0.2c0-0.4-0.4-1-0.4-1.3
		c0-0.1,0.1-0.2,0.2-0.2c0.6,0,1.4,0.2,1.9,0.2c0.2,0,0.2-0.1,0.2-0.2c0-0.5-1.4-1.4-1.4-1.7c0-0.3,1.7-0.6,1.7-1
		c0-0.4-2.4-0.1-2.4-0.5c0-0.3,0.5-0.8,0.5-1c0-0.1-0.1-0.2-0.2-0.2c-0.2,0-1.2,0.4-1.6,0.4c-0.2,0-0.5,0-0.5-0.3c0-0.5,0.8-1,2.1-1
		c2.1,0,3.4,1.5,3.4,3.9C51.4,15.3,49.2,16.1,48,16.1z M43.9,12c0-0.2-0.8-0.7-0.8-0.9c0,0,0-0.1,0.1-0.1c0.2,0,0.6,0.1,1,0.1
		c0.3,0,0.3-1.2,0.5-1.2c0.2,0,0.4,1.1,0.6,1.1c0.3,0,0.8-0.3,1-0.3c0,0,0.1,0,0.1,0.1c0,0.2-0.5,0.7-0.5,0.9c0,0.2,1.2,0.4,1.2,0.6
		c0,0.2-1.2,0.2-1.2,0.4c0,0.2,0.5,0.8,0.5,0.9c0,0,0,0.1-0.1,0.1c-0.2,0-0.8-0.3-1-0.3c-0.2,0-0.6,0.9-0.8,0.9
		c-0.1,0-0.1-0.1-0.1-0.2l0-0.9c0-0.1,0-0.2-0.2-0.2c-0.3,0-0.8,0-0.9,0c-0.1,0-0.2,0-0.2-0.1C43,12.8,43.9,12.2,43.9,12z
		 M43.3,15.5c0.3,0,0.4,0.8,0.5,1.3c0,0.3,0.1,0.3,0.2,0.3c0.3,0,0.7-1,0.9-1c0.4,0,1.5,1.1,3.3,1.1c2.6,0,5-1.8,5-5
		c0-3.1-2.2-4.9-5.2-4.9c-1.4,0-2.5,0.7-3,0.7c-0.3,0-0.9-0.8-1.1-0.8c-0.1,0-0.2,0.2-0.2,0.6c0,0.2,0,1-0.3,1
		c-0.5,0-2.5-1.5-2.5-0.9c0,0.5,1.3,2,1.3,2.4c0,0.4-1.3,0.8-1.3,1c0,0.5,1.4,0.6,1.4,1.2c0,0.6-1.5,1.1-1.5,1.5
		c0,0.4,1.5,0.1,1.5,0.6c0,0.5-1.1,1.9-1.1,2.4c0,0.1,0,0.1,0.1,0.1C41.7,16.9,43,15.5,43.3,15.5"/>
	<path d="M33.6,53.1c0,0.2-0.1,0.4-0.2,0.6c-0.2-0.4-0.9-0.6-1.2-0.6c-2.2,0-1.4,3.2-3.7,3.2c-1,0-1.1-0.1-1.4-0.1
		c-0.2,0-0.2,0.1-0.2,0.2c0,0.6,0.8,1.9,3,1.9c2.2,0,4.3-1.3,4.3-3c0-0.3-0.1-0.6-0.2-0.9c0.1-0.1,0.3-0.2,0.5-0.2
		c0.3,0,0.5,0.4,0.9,0.4c0.3,0,0.6-0.3,0.6-0.6c0-0.3-0.2-0.5-0.4-0.6c0.2-0.1,0.3-0.3,0.3-0.6c0-0.4-0.3-0.7-0.7-0.7
		c-0.2,0-0.3,0.1-0.5,0.2c0-0.4-0.3-0.7-0.7-0.7c-0.3,0-0.6,0.2-0.6,0.6C33.3,52.5,33.6,52.7,33.6,53.1"/>
	<path d="M21.8,49.1c1.7,0.4,2.6,1.3,2.7,2.4c0.2,1,0.4,1.9,0.8,2.3c0.5,0.6,1.6,1.1,2.5,1.1c0.8,0,1.4-0.3,1.4-1
		c0-0.8-1-2.5-2.6-2.5c-0.2,0-0.3,0-0.6,0c-0.2,0-0.5,0-0.6-0.2c-0.3-0.3-0.5-1.9-1.1-2.9c-0.7-1.1-1.5-1.4-2.5-1.4
		c-0.8,0-1.6,0.4-1.6,1C20.3,48.5,20.5,48.8,21.8,49.1z M27.8,53.9c-0.6,0-1.6-0.7-1.6-1.1c0-0.3,0.3-0.5,0.5-0.5
		c0.5,0,1.5,0.7,1.5,1.2C28.2,53.7,28.1,53.9,27.8,53.9"/>
	<path d="M25.8,37.2c0-1.4,3.3-2.1,3.3-3.8c0-0.3-0.1-0.8-0.3-1.1c1.1,0.6,2,1.7,2,2.5c0,1.5-1.5,2.2-1.5,3.1c0,1.1,1.6,1.2,1.6,2.6
		c0,1.1-1.6,2.4-1.6,3.8c0,1.1,0.8,2,1.9,2.1c-0.4,0.1-0.7,0.2-1.1,0.2c-2.2,0-4.4-1.8-4.4-3.9c0-1,0.5-2,1.1-2.6
		c0.6,0.5,1.2,0.9,1.6,0.9c0.3,0,0.5-0.2,0.5-0.4C29,39.7,25.8,38.9,25.8,37.2z M32.7,48c-0.7,0.3-1,0.3-1,1c0,0.3-0.1,0.6-0.1,0.8
		c0,0.3,0,0.4,0.3,0.4c0.8,0,2-1.3,2-2.4c0-0.3-0.2-0.4-0.4-0.4C33.4,47.5,33.2,47.8,32.7,48z M32.6,46.5c0-1-2-1-2-2.4
		c0-0.4,0.2-1,0.7-1.6c0.2,1.1,0.6,1.7,1.6,2.1c1.9,0.7,2.2,1.8,2.2,2.9c0,1.9-1.3,4.3-4.8,4.3c-2.8,0-4.8-2.5-4.8-4.6
		c0-0.6,0.2-1.2,0.5-1.2c0.3,0,0.4,0.3,0.7,0.5c1,1,2,1.2,3.5,1.2C31.6,47.6,32.6,47.1,32.6,46.5"/>
	<path d="M17.4,47c0.1,0.4-0.3,0.9-0.7,0.9c-0.4,0.1-0.9-0.3-0.9-0.7c-0.1-0.5,0.3-0.9,0.7-0.9C17,46.2,17.4,46.5,17.4,47z
		 M13.4,47.8c0.1,0.7,0.8,1.3,1.5,1.2c0.3,0,0.5-0.1,0.7-0.2c0.2,0.7,0.7,1.1,1.5,1c0.8-0.1,1.3-0.7,1.2-1.5c0-0.2-0.1-0.3-0.1-0.5
		c0,0,0.1,0,0.2,0c0.8-0.1,1.3-0.8,1.2-1.5c-0.1-0.8-0.8-1.3-1.5-1.3c-0.3,0-0.5,0.1-0.7,0.3c-0.2-0.6-0.8-1.2-1.6-1.1
		c-0.7,0.1-1.2,0.8-1.2,1.6c0,0.1,0,0.3,0.1,0.4c0,0-0.1,0-0.2,0C14,46.4,13.3,47,13.4,47.8"/>
</g>
</svg>
