<?xml version="1.0" encoding="utf-8"?>
<!-- Generator: Adobe Illustrator 28.1.0, SVG Export Plug-In . SVG Version: 6.00 Build 0)  -->
<svg version="1.1" id="Layer_1" xmlns="http://www.w3.org/2000/svg" xmlns:xlink="http://www.w3.org/1999/xlink" x="0px" y="0px"
	 viewBox="0 0 72 72" style="enable-background:new 0 0 72 72;" xml:space="preserve">
<g>
	<path d="M30.6,20.3c-0.6-0.1-0.6-0.1-0.4-0.2c0.6-0.1,1.9,0,2.8,0.2c2.1,0.5,4.1,1.8,6.1,4.1l0.5,0.6l0.8-0.1
		c3.3-0.5,6.7-0.1,9.5,1.2c0.8,0.4,2,1.1,2.1,1.3c0,0.1,0.1,0.4,0.2,0.8c0.2,1.4,0.1,2.5-0.3,3.2c-0.2,0.4-0.2,0.6-0.1,0.9
		c0.1,0.3,0.5,0.5,0.8,0.5c0.7,0,1.5-1.1,1.8-2.7l0.1-0.6L55,30c1.5,1.7,2.7,4,2.9,5.7l0.1,0.4l-0.3-0.4c-0.4-0.7-0.9-1.1-1.4-1.5
		c-1-0.7-2.1-0.9-4.9-1c-2.6-0.1-4-0.4-5.4-0.8c-2.4-0.8-3.7-1.9-6.6-5.7C38,25,37.2,24,36.5,23.3C34.6,21.6,32.9,20.7,30.6,20.3z"
		/>
	<path d="M52.8,24.1c0.1-1.1,0.2-1.9,0.5-2.6c0.1-0.3,0.2-0.5,0.3-0.5c0,0,0,0.2-0.1,0.4c-0.2,0.7-0.3,1.6-0.1,2.6
		c0.2,1.3,0.3,1.5,1.7,3c0.7,0.7,1.4,1.5,1.7,1.9l0.5,0.7l-0.5-0.5c-0.6-0.6-2.1-1.7-2.4-1.9c-0.2-0.1-0.2-0.1-0.4,0
		c-0.1,0.1-0.1,0.3-0.2,1.2c0,1.3-0.2,2.2-0.6,3c-0.2,0.5-0.3,0.4-0.1-0.2c0.2-0.4,0.2-0.6,0.2-1.8c0-2.6-0.3-3.2-2.1-4.3
		c-0.5-0.3-1.2-0.7-1.7-0.9S48.7,24,48.7,24c0.1-0.1,1.8,0.5,2.5,0.7c1,0.4,1.2,0.5,1.3,0.4C52.7,25.1,52.7,24.8,52.8,24.1z"/>
	<path d="M31.8,28.5c-1.3-1.7-2-4.4-1.9-6.4l0.1-0.6l0.3,0.1c0.5,0.1,1.5,0.4,1.9,0.7c1.2,0.7,1.7,1.7,2.2,4.1
		c0.2,0.7,0.4,1.5,0.5,1.8c0.1,0.4,0.7,1.5,1.2,2.2c0.3,0.5,0.1,0.7-0.6,0.6C34.3,30.9,32.8,29.8,31.8,28.5z"/>
	<path d="M51.2,41.4c-5.9-2.4-8-4.4-8-7.9c0-0.5,0-0.9,0-0.9c0,0,0.2,0.2,0.5,0.4c1.2,1,2.5,1.4,6.2,1.9c2.2,0.3,3.4,0.6,4.5,1
		c3.6,1.2,5.8,3.6,6.4,6.9c0.2,1,0.1,2.8-0.2,3.7c-0.2,0.7-0.8,2.1-1,2.1c0,0-0.1-0.2-0.1-0.4C59.6,47,59,45.8,58,44.8
		C56.8,43.8,55.1,43,51.2,41.4z"/>
	<path d="M47.1,42.4c-0.1-0.4-0.2-1-0.3-1.2l-0.2-0.4l0.3,0.3c0.4,0.4,0.7,1,1,1.7c0.2,0.6,0.2,0.7,0.2,1.7c0,0.9,0,1.1-0.2,1.6
		c-0.3,0.8-0.6,1.4-1.2,2c-1.1,1.1-2.5,1.7-4.5,2c-0.3,0-1.4,0.1-2.2,0.2c-2.2,0.1-3.7,0.4-5,0.8C34.7,51,34.5,51,34.5,51
		c-0.1-0.1,0.8-0.6,1.6-1c1.1-0.5,2.1-0.8,4.4-1.2c1.2-0.2,2.4-0.4,2.7-0.5C46.1,47.5,47.6,45.2,47.1,42.4z"/>
	<path d="M49.8,47.2c-0.8-1.7-1-3.3-0.5-4.8c0-0.2,0.1-0.3,0.2-0.3c0,0,0.2,0.1,0.4,0.2c0.4,0.2,1.1,0.7,3,1.7
		c2.4,1.3,3.8,2.3,4.7,3.5c0.8,1,1.3,2.2,1.6,3.6c0.1,0.8,0.1,2.7-0.1,3.5c-0.6,2.5-2.2,4.5-4.3,5.7c-0.3,0.2-0.6,0.3-0.6,0.3
		c0,0,0.1-0.3,0.3-0.6c0.7-1.5,0.8-3,0.3-4.6c-0.3-1-1-2.2-2.4-4.3C50.6,48.7,50.2,48.1,49.8,47.2z"/>
	<path d="M27.6,56.3c2.2-1.8,4.9-3.2,7.4-3.6c1.1-0.2,2.8-0.1,3.8,0.1c1.6,0.4,3,1.3,3.7,2.4c0.7,1.1,1,2,1.4,4
		c0.1,0.8,0.3,1.6,0.3,1.8c0.2,1.1,0.7,1.9,1.3,2.3c0.9,0.7,2.5,0.7,4.1,0.1c0.3-0.1,0.5-0.2,0.5-0.2c0.1,0.1-0.7,0.6-1.3,0.9
		c-0.8,0.4-1.3,0.5-2.1,0.5c-1.4,0-2.6-0.7-3.6-2.2c-0.2-0.3-0.6-1.2-1-2c-1.1-2.4-1.6-3.1-2.8-3.9c-1.1-0.7-2.4-0.8-3.5-0.3
		c-1.4,0.7-1.7,2.4-0.8,3.5c0.4,0.4,1.1,0.8,1.7,0.9c1.1,0.1,2-0.7,2-1.8c0-0.7-0.3-1.1-1-1.4c-1-0.4-2,0.1-2,1
		c0,0.4,0.2,0.6,0.6,0.8c0.2,0.1,0.3,0.1,0.1,0.1c-0.9-0.2-1.1-1.2-0.4-1.9c0.8-0.8,2.6-0.5,3.2,0.7c0.3,0.5,0.3,1.4,0.1,2
		c-0.5,1.3-1.9,2-3.4,1.6c-1-0.3-1.4-0.5-2.6-1.8c-2.1-2.1-2.9-2.5-5.9-3L27,56.9L27.6,56.3z"/>
	<path d="M31.8,30.1C30.4,28.5,11.1,7.2,11,7.2c0,0,0.4,0.6,1,1.3c6.9,8.4,17.6,21.5,18.1,22.2c0.4,0.6,0.3,1.1-0.5,1.6
		c-0.4,0.2-1.3,0.5-1.7,0.5c-0.5,0-1-0.2-1.4-0.6c-0.3-0.3-1.4-2-4-6c-2-3.1-3.7-5.7-3.7-5.7c-0.1-0.1-0.1-0.1,3.5,6.4
		c2.3,4.1,3,5.5,3,5.7c0,0.4-0.1,0.6-0.6,1.1c-0.8,0.9-1.2,1.9-1.4,4c-0.3,2.3-1.1,4-3.4,6.8c-1.3,1.7-1.5,2-1.9,2.6
		c-0.4,0.8-0.5,1.3-0.6,2.4c-0.1,1.1,0,1.9,0.4,2.9c0.3,0.9,0.6,1.6,1.4,2.8c0.7,1.1,1.1,1.9,1.1,2.2c0,0.2,0,0.2,1.1,0
		c2.6-0.6,4.7-1.6,5.8-2.9c0.7-0.8,0.9-1.2,0.9-2.3c0-0.7,0-0.8-0.2-1.2c-0.3-0.6-0.9-1.2-2.1-2c-1.6-1.1-2.3-2-2.5-3.2
		c-0.2-1,0-1.7,0.9-3.6c0.9-1.9,1.1-2.7,1.3-4.7c0.1-1.3,0.2-1.7,0.6-2.1c0.4-0.4,0.7-0.6,1.6-0.7c1.5-0.2,2.5-0.6,3.3-1.3
		c0.7-0.6,1-1.2,1-2.2l0-0.7L31.8,30.1z M21.1,50.7c-0.3,0.5-0.9,0.7-1.3,0.4c-0.3-0.2-0.3-0.5,0-0.8c0.2-0.3,0.2-0.5-0.1-0.6
		c-0.2-0.1-0.2-0.2-0.2-0.3c0-0.4,0.8-0.6,1.3-0.3C21.3,49.5,21.5,50.2,21.1,50.7z"/>
	<path d="M35,35.3c-0.4-0.2-1.4-0.3-1.8-0.2c-0.7,0.2-1.4,1-1.6,1.8c-0.1,0.5-0.1,1.3,0.1,1.6c0.3,0.4,0.6,0.5,1.5,0.5
		c1.6,0,3-0.7,3.2-1.6C36.5,36.7,35.9,35.7,35,35.3z M35.1,36.6c-0.2,0.2-0.7,0.5-1.1,0.5c-0.6,0-1.2-0.4-1.2-0.8
		c0-0.8,1.2-1.2,2-0.7C35.2,35.8,35.3,36.2,35.1,36.6z"/>
</g>
</svg>
