<?xml version="1.0" encoding="utf-8"?>
<!-- Generator: Adobe Illustrator 28.1.0, SVG Export Plug-In . SVG Version: 6.00 Build 0)  -->
<svg version="1.1" id="Layer_1" xmlns="http://www.w3.org/2000/svg" xmlns:xlink="http://www.w3.org/1999/xlink" x="0px" y="0px"
	 viewBox="0 0 72 72" style="enable-background:new 0 0 72 72;" xml:space="preserve">
<g>
	<path d="M57.1,12.8c-1.4-1.3-7.2-5.5-20.1-5.6c0,0-15.2-0.9-22.6,5.9c-4.1,4.1-5.6,10.2-5.7,17.6S8.4,52.3,21.9,56.1h0l0,5.8
		c0,0-0.1,2.3,1.5,2.8c1.9,0.6,3-1.2,4.8-3.1c1-1.1,2.3-2.6,3.4-3.8c9.2,0.8,16.3-1,17.2-1.3c1.9-0.6,12.4-2,14.1-16
		C64.5,26.1,61.9,16.9,57.1,12.8z M58.7,39.5c-1.4,11.7-10,12.4-11.6,13c-0.7,0.2-6.9,1.8-14.8,1.3c0,0-5.8,7.1-7.7,8.9
		c-0.3,0.3-0.6,0.4-0.8,0.3c-0.3-0.1-0.4-0.4-0.4-1c0-0.8,0.1-9.6,0.1-9.6c-11.4-3.2-10.8-15.1-10.6-21.4s1.3-11.4,4.8-14.8
		c6.3-5.7,19.2-4.8,19.2-4.8c10.9,0,16.1,3.3,17.3,4.4l0,0C58.2,19.2,60.2,27.4,58.7,39.5z"/>
	<path d="M42.3,31.2c-0.4,0-0.7-0.3-0.7-0.7c-0.1-2.5-1.3-3.7-3.7-3.8c-0.4,0-0.7-0.4-0.7-0.8c0-0.4,0.4-0.7,0.8-0.7
		c3.1,0.2,4.9,2,5,5.2C43.1,30.8,42.8,31.1,42.3,31.2C42.4,31.2,42.4,31.2,42.3,31.2z"/>
	<path d="M46.1,32.4C46.1,32.4,46.1,32.4,46.1,32.4c-0.4,0-0.7-0.3-0.7-0.7c0.1-2.5-0.7-4.5-2.2-6.2c-1.5-1.7-3.6-2.6-6.3-2.8
		c-0.4,0-0.7-0.4-0.7-0.8c0-0.4,0.4-0.7,0.8-0.7c3.1,0.2,5.6,1.3,7.3,3.2c1.8,1.9,2.6,4.3,2.6,7.2C46.8,32.1,46.5,32.4,46.1,32.4z"
		/>
	<path d="M49.9,33.9c-0.4,0-0.7-0.3-0.7-0.7c0-4.4-1.4-7.9-3.9-10.4c-2.6-2.5-5.8-3.8-9.7-3.8c-0.4,0-0.7-0.3-0.7-0.7
		c0-0.4,0.3-0.7,0.7-0.7c4.2,0,7.8,1.5,10.7,4.2c2.9,2.8,4.3,6.6,4.4,11.4C50.6,33.6,50.3,33.9,49.9,33.9
		C49.9,33.9,49.9,33.9,49.9,33.9z"/>
</g>
</svg>
