<?xml version="1.0" encoding="utf-8"?>
<!-- Generator: Adobe Illustrator 28.1.0, SVG Export Plug-In . SVG Version: 6.00 Build 0)  -->
<svg version="1.1" id="Layer_1" xmlns="http://www.w3.org/2000/svg" xmlns:xlink="http://www.w3.org/1999/xlink" x="0px" y="0px"
	 viewBox="0 0 360 180" style="enable-background:new 0 0 360 180;" xml:space="preserve">
<g transform="translate(0.000000,321.000000) scale(0.100000,-0.100000)">
	<path d="M1349.9,2703.2c-10.6-4.2-71.2-70.1-71.2-77.2c0-4.6,13.1-20.9,34.3-42.5c45.3-46.4,44.6-46.4,90.6,0
		c21.2,21.6,34.3,37.9,34.3,42.1c0,9.2-64.4,75.8-75.4,77.9C1358.4,2704.6,1352.7,2704.3,1349.9,2703.2z"/>
	<path d="M2585.1,2494c-8.9-2.8-20.9-7.4-27.3-10.3c-6-2.5-13.1-4.6-15.9-4.6c-2.5,0-11.7-5-20.5-10.6c-8.9-5.7-17.3-10.6-19.1-10.6
		c-3.9,0-23.4-15.9-45.7-37.9c-17.3-16.6-55.6-68.7-55.6-75.4c0-1.4-4.2-12-9.2-23.4c-25.1-56.3-24.8-166,0-222
		c5-11.3,9.2-21.9,9.2-23.7c0-6,34.7-54.2,51.7-71.5c15.9-16.3,55.9-48.9,59.8-48.9c1.1,0,11.7-4.6,24.1-10.3
		c52.7-24.1,43.2-23.4,269.8-23.4c186.6,0,206.8,0.7,221.3,6c8.9,3.5,18.4,6.4,21.2,6.4c7.4,0,47.4,20.5,71.2,36.1
		c11,7.4,28.3,21.9,38.9,32.9c19.8,20.2,52.8,67.3,52.8,75.4c0,2.5,1.8,8.1,4.2,12.4c13.1,23.4,23.7,75.4,24.1,117.2
		c0,28.7-7.1,83.2-12.4,95.9c-2.5,6-7.1,16.6-10.3,24.1s-5.7,14.9-5.7,16.3c0,11.3-64.8,92.4-73.6,92.4c-1.8,0-5.3,2.5-7.8,5.3
		c-6.4,7.8-53.5,35.8-63.7,37.9c-10.3,2.5-28.7,8.9-45.3,15.6C3003.2,2503.2,2607.7,2501.8,2585.1,2494z M3012.4,2394.9
		c9.9-3.5,20.2-8.1,23-10.3c2.5-2.1,8.1-5,12.7-6.4c11.3-3.2,57.4-47.1,63.4-60.2c2.8-5.7,8.9-17,13.5-24.8c5-7.8,8.9-18.8,8.9-24.8
		c0-5.7,2.5-21.2,5.7-34.3c5-20.2,5.3-27.3,1.8-42.5c-2.5-10.3-5.7-26.9-7.4-37.2c-3.5-23-20.9-54.2-42.1-76.5
		c-18.4-19.5-54.5-45-63.4-45c-3.5,0-9.2-2.1-13.1-4.6c-15.9-10.6-53.5-13.1-211-13.1c-123.2,0-162.5,1.1-181.6,5
		c-13.5,2.8-26.2,7.1-28,8.9c-2.1,2.1-7.4,3.9-11.3,3.9c-4.2,0-14.5,5-22.3,10.6c-8.1,6-16.3,10.6-18.1,10.6
		c-1.8,0-12,9.6-22.7,21.2c-20.2,22.3-41.4,58.1-41.4,69.4c0,3.9-2.5,13.1-5.3,20.9c-2.8,8.1-5,26.9-5,44.3c0,17.3,2.1,36.1,5,44.3
		c2.8,7.8,5.3,17.3,5.3,20.9c0,8.1,18.1,41.1,32.6,59.8c9.9,12.4,40.7,37.5,59.1,47.8c4.6,2.8,17.3,7.8,28.3,11.3
		c18.4,6,34.7,6.7,207.5,6.7C2978.7,2401.2,2995.7,2400.9,3012.4,2394.9z"/>
	<path d="M381.9,2483c-16.6-11-21.9-21.2-21.9-44.6c0-19.1,1.8-23.4,14.2-41.8c7.8-11.3,15.9-23.4,17.7-26.6
		c2.1-3.2,7.8-11.7,13.5-18.8c5.3-7.1,9.6-14.2,9.6-15.6c0-1.4,5-8.5,10.6-15.9c6-7.4,10.6-14.5,10.6-15.9c0-1.4,5-8.5,10.6-15.9
		c6-7.4,10.6-14.5,10.6-15.9s4.2-7.8,9.9-14.2c9.2-11,16.6-22.3,29.7-45.3c3.2-6,7.4-11.7,9.2-12.7c2.5-1.8,21.6-29,36.1-51.7
		c2.8-4.6,14.9-22.3,26.6-38.9c11.7-17,23.7-34.3,26.6-38.9c76.5-117.2,103.4-140.2,182-153.6c20.5-3.5,63,5,87.1,17.7
		c17.3,9.2,74.3,64.8,74.3,72.6c0,2.5,4.6,10.3,10.6,16.6c5.7,6.7,10.6,13.5,10.6,14.9c0,1.8,4.2,8.5,9.6,15.6
		c5.7,7.1,32.6,47.1,60.5,88.9c28,41.8,52.4,76.8,54.2,77.2c1.8,0.7,3.2,2.8,3.2,4.2c0,1.8,7.4,13.8,16.6,27.3
		c26.2,37.9,52,75.8,57.7,84.6c2.8,4.6,15.9,23.7,29,42.8c27.6,40.4,31.9,55.9,22.7,80.7c-4.2,10.6-9.9,17.7-18.4,22.7
		c-15.9,9.6-42.1,9.9-55.6,0.7c-9.9-6.4-31.9-34.3-43.5-55.2c-3.2-5.7-7.1-11.3-8.1-12.4c-1.1-1.1-3.5-4.2-5.7-7.8
		c-1.8-3.2-13.1-19.5-24.8-36.5c-11.7-16.6-22.7-33.3-24.8-36.5c-1.8-3.2-7.8-11.7-13.1-18.8c-5.7-7.1-9.9-14.2-9.9-15.6
		c0-1.4-4.2-8.5-9.6-15.6c-5.7-7.1-11.3-15.2-13.5-18.4c-14.9-23.7-30.4-45-35-48.9c-3.2-2.5-5.7-6.4-5.7-8.1c0-2.1-5-9.6-10.6-17
		c-6-7.4-10.6-14.5-10.6-15.9s-4.6-8.5-10.6-15.9c-5.7-7.4-10.6-14.5-10.6-15.6s-6.7-11.7-14.9-23c-8.5-11.7-20.9-29.4-27.6-39.3
		c-26.2-39.3-51.3-60.2-71.9-60.2c-19.1,0-39.7,14.5-61.2,43.9c-19.8,26.6-65.8,93.8-74,107.6c-1.8,3.5-7.4,11.7-12.4,18.4
		s-10.3,14.9-12.4,18.4c-1.8,3.2-13.1,19.8-24.8,36.5s-23.7,34-26.6,38.6c-2.8,5-13.1,20.2-23,34.7c-9.6,14.2-18.4,27.3-19.1,29.4
		c-0.7,1.8-9.6,14.5-19.8,28.3c-21.2,29.4-58.8,84.3-63.4,93.1C443.6,2488.3,400.7,2495.8,381.9,2483z"/>
	<path d="M1330.4,2483c-5.3-3.5-13.1-11.3-16.6-16.6c-6.4-9.9-6.7-21.2-6.7-262.3c0-233.3,0.4-252.8,6.4-262.7
		c6.4-12,30.4-25.1,45-25.1c13.1,0,30.4,8.1,40.7,19.5l8.9,9.6l1.1,253.5c1.1,282.2,2.1,268.7-22.3,283.9
		C1371.8,2491.9,1344.2,2492.2,1330.4,2483z"/>
	<path d="M1521.9,2483c-25.8-17-31.5-52-13.1-77.5c6-8.1,10.6-15.9,10.6-17c0-1.1,5-8.1,10.6-15.6c6-7.4,10.6-14.5,10.6-15.6
		c0-1.8,26.2-39.3,35-50.3c1.4-1.8,5-7.4,7.4-12.4c2.5-4.6,5.7-9.2,7.1-10.3c1.8-1.4,23.7-32.9,33.6-48.5
		c2.1-3.2,11.7-17.7,21.9-32.6c9.9-14.9,37.2-54.5,60.2-88.2c23-34,44.3-65.1,47.1-69.7c57-87.4,86.7-112.6,148.7-125.7
		c24.4-5.3,29-5.3,54.9,0c15.6,3.2,35.8,9.2,45,13.8c18.8,9.2,73.6,60.5,73.6,69c0,1.1,5,8.9,10.6,17c6,8.5,24.8,36.1,41.8,61.2
		c17.3,25.5,44.3,65.1,60.2,88.5s31.2,45.3,33.6,49.2c2.1,3.5,11,15.9,19.5,27.3c8.1,11.7,14.9,21.6,14.9,22.7
		c0,1.8,21.6,34,24.8,37.2c2.1,2.1,42.5,61.2,47.8,70.1c2.1,3.2,7.8,11.7,13.1,18.8c23.4,30.8,20.9,70.5-4.6,86.7
		c-18.1,11.3-43.2,11.7-58.8,0.7c-6.4-4.6-26.9-31.2-45.7-59.5c-18.8-28.3-42.5-63-52.4-77.5c-9.9-14.5-20.5-29.7-23.4-34.3
		c-25.5-38.6-76.5-111.9-80.4-115.1c-2.5-2.1-4.6-5.3-4.6-6.7c0-1.8-8.5-14.9-18.4-29.7c-10.3-14.9-20.2-30.1-22.3-33.3
		c-1.8-3.5-7.4-11.7-12.4-18.4c-5-6.7-10.3-14.9-12.4-18.1c-25.1-41.1-54.9-66.9-77.5-66.9c-13.1,0-38.6,14.2-50.3,28.3
		c-6,6.7-18.8,24.4-28.3,38.9c-9.9,14.5-25.5,37.5-34.3,50.6c-9.2,13.5-16.6,25.1-16.6,26.2c0,1.1-4.6,7.8-10.3,14.9
		c-5.3,7.1-26.6,37.5-47.1,67.6c-35.4,52.8-64.1,94.5-104.4,152.9c-10.3,15.2-18.8,28.3-18.8,29.4c0,4.6-33.6,46.7-41.8,52
		C1563.7,2491.9,1535,2491.9,1521.9,2483z"/>
</g>
</svg>
