<?xml version="1.0" encoding="utf-8"?>
<!-- Generator: Adobe Illustrator 28.1.0, SVG Export Plug-In . SVG Version: 6.00 Build 0)  -->
<svg version="1.1" id="Layer_1" xmlns="http://www.w3.org/2000/svg" xmlns:xlink="http://www.w3.org/1999/xlink" x="0px" y="0px"
	 viewBox="0 0 2500 2500" style="enable-background:new 0 0 2500 2500;" xml:space="preserve">
<g>
	<path d="M655.2,757.1c-50.8-1.5-92.5,37.3-94,87.4c-1.5,50.7,37.3,91.4,88.4,92.7c50.7,1.3,93.2-37.6,95.1-87
		C746.6,802,704.8,758.6,655.2,757.1z"/>
	<path d="M1399.9,1335.7c-42.2-0.2-77.5,36-76,77.9c1.4,40.1,35.1,72.4,75.5,72.5c40.7,0,74.2-31.8,75.7-72
		C1476.7,1371.6,1442.5,1335.9,1399.9,1335.7z"/>
	<path d="M1231.6,937.6c51.3-0.6,90.3-40.3,89.8-91.5c-0.4-50.2-41.5-89.9-92.2-89c-49.8,0.9-91.8,43.3-91,91.7
		C1139.1,898.9,1180.4,938.2,1231.6,937.6z"/>
	<path d="M2125,0H375C167.9,0,0,167.9,0,375v1750c0,207.1,167.9,375,375,375h1750c207.1,0,375-167.9,375-375V375
		C2500,167.9,2332.1,0,2125,0z M739.1,1638.4c-25-2.1-54.6,0.9-75.7,12.8c-70.1,39.6-137.4,84.3-217.1,134.1
		c14.6-66.2,24.1-124.1,40.9-179.8c12.3-41,6.6-63.7-31.1-90.4c-242.2-171-344.3-426.9-267.9-690.4
		C258.8,581,432.4,433.1,668.3,356.1c322-105.2,683.8,2.1,879.6,257.7c70.6,92.3,114,196,125.5,318.5
		c-201.8,10.5-377.2,71.7-519.7,209.9C1009.7,1281.8,944,1452.9,962,1665C883.1,1655.2,811.3,1644.5,739.1,1638.4z M2158.8,1969.4
		c-62.2,55.2-84.6,100.6-44.7,173.4c7.5,13.5,8.3,30.5,12.6,47.4c-63.9-28.4-122.5-71.1-184.9-77.6c-62.2-6.5-127.5,29.4-192.5,36
		c-198.1,20.3-375.6-34.9-521.9-170.3c-278.3-257.4-238.5-652.1,83.4-863.1c286.2-187.5,705.9-125,907.6,135.2
		C2394.5,1477.4,2373.8,1778.7,2158.8,1969.4z"/>
	<path d="M1868.2,1335.9c-39.5-0.3-73,32-74.6,71.9c-1.7,42.6,31.4,77.7,73.6,77.8c40.8,0.1,73.1-30.7,74.5-71.3
		C1943.4,1371.5,1910.2,1336.2,1868.2,1335.9z"/>
</g>
</svg>
