<?xml version="1.0" encoding="utf-8"?>
<!-- Generator: Adobe Illustrator 28.1.0, SVG Export Plug-In . SVG Version: 6.00 Build 0)  -->
<svg version="1.1" id="Layer_1" xmlns="http://www.w3.org/2000/svg" xmlns:xlink="http://www.w3.org/1999/xlink" x="0px" y="0px"
	 viewBox="0 0 360 180" style="enable-background:new 0 0 360 180;" xml:space="preserve">
<g>
	<path d="M41.6,50h15.1c0,0,3.9-0.7,5.5,3.3C64,58,71.5,88,71.5,88l10.7-15.8c0,0-4.4-22.2,3.3-22.1c9.2,0.1,14.4,0,14.4,0
		s3.7-0.4,6,5.8c2.7,7.2,9.3,32.6,9.3,32.6l15.2-34.8c0,0,2.1-3.7,5.5-3.7c3.6,0,5.8,2.5,5,5.4c-1.2,4.4-26.4,70.7-26.4,70.7
		s-1.7,4-5.2,4c-3.5,0-5-2.1-6.9-6.9c-2.1-4.9-14-37.2-14-37.2l-18,40.9c0,0-1.4,3.1-4.2,3.1c-3.3,0-4.6-1.5-6.3-4.6
		C58.2,122.3,37,61.7,37,61.7S32.8,50,41.6,50L41.6,50z M153.2,50h15.1c0,0,3.9-0.7,5.5,3.3c1.8,4.7,9.3,34.7,9.3,34.7l10.7-15.8
		c0,0-4.4-22.2,3.3-22.1c9.2,0.1,14.4,0,14.4,0s3.7-0.4,6,5.8c2.7,7.2,9.3,32.6,9.3,32.6l15.2-34.8c0,0,2.1-3.7,5.5-3.7
		c3.6,0,5.8,2.5,5,5.4c-1.2,4.4-26.4,70.7-26.4,70.7s-1.7,4-5.2,4s-5-2.1-6.9-6.9c-2.1-4.9-14-37.2-14-37.2l-18,40.9
		c0,0-1.4,3.1-4.2,3.1c-3.3,0-4.6-1.5-6.3-4.6c-1.7-3.2-22.9-63.8-22.9-63.8S144.4,50,153.2,50L153.2,50z M265,130.1
		c0,0-5.2,0.4-5.2-7.7V55c0,0,0-5.1,7.4-5.1h50.7c0,0,6.1-0.3,6.1,5.6s-5.7,5.3-5.7,5.3h-30.2c0,0-3.6,0-3.6,3.4v16.6h23.3
		c0,0,6.3,0,6.3,4.9s-5.3,5.2-5.3,5.2h-24.5v32.4c0,0,0.4,6.6-3.9,6.6C277.5,130.1,265,129.9,265,130.1z"/>
</g>
</svg>
