<?xml version="1.0" encoding="utf-8"?>
<!-- Generator: Adobe Illustrator 28.1.0, SVG Export Plug-In . SVG Version: 6.00 Build 0)  -->
<svg version="1.1" id="Layer_1" xmlns="http://www.w3.org/2000/svg" xmlns:xlink="http://www.w3.org/1999/xlink" x="0px" y="0px"
	 viewBox="0 0 72 72" style="enable-background:new 0 0 72 72;" xml:space="preserve">
<g>
	<path d="M34,7.2c-1.1,0-2.3,0.4-3.1,1.1c-1.5,1.3-3,2.6-2.9,4.4c0.1,1.7,1,2.7,1,2.7s0.7,0.5,0,1c-0.7,0.5-8.6,5.5-8.2,15.9
		c0,0,0.2,2.7-0.1,5.6c-0.2,2.1,0.5,4.6,0.9,5.8c0,0,0.2,0.5-0.2,0.2c-2.1-1.3-3.9-3.4-5.4-5.9c-1.3-2.4-2.1-5.3-2.1-8.3
		c0-6.4,3.5-11.9,8.6-14.8c-7,1.9-12.2,8.5-12.2,16.3c0,0.6,0,1.2,0.1,1.8c0.1,1.3,0.2,3.5,0.6,4.3c0.6,1.3,0.5,4.1,0.5,4.5
		c0,0.5,0.2,15.7,9.1,15.6c0,0,4.3,0.1,4.3-1.6c0-1.5-0.4-1.7-0.8-2.6c-0.4-0.8-0.7-0.9-0.5-3.6c0,0,0-0.6,0.2-0.6
		c0.2,0,2.7,7.4,5.9,11.3c3.2,3.9,6.5,4.3,8.9,4.3c0,0,4.6,0,4.6-2.3c0-2.3-2.1-1.4-2.1-8.7c0-7.3,3.5-7,4-5.2
		c0.4,1.8,0.8,3.2,0.1,8.1c-0.7,4.8,1.2,5.4,3,5.4c1.8,0,11.2,0.3,12.9-26.7c0,0,0.2-4.4-1.2-8.1c0,0,0.6,7.2-3.9,11s-7,3.3-7,3.3
		s-2.2-0.2-3,0.9c-0.9,1.1-0.7,1.8-2.6,1.3c-1.8-0.6-1.9-1-3.6-0.8s-2.7,0.4-3.4-1c-0.7-1.4-1.4-2.3-2.8-2.5
		c-1.4-0.3-7.5-3.2-7.3-11.3c0.2-7.6,3.6-10.2,3.6-10.2s0.6-0.6,1.1-0.4c0.6,0.3,1.5,0.3,2.6-0.7c1.1-1,1.8-1.7,3.7-2.4
		c0,0,1.3-0.2,1.3-1.5s-1.1-4.3-2.5-5.1C35.7,7.4,34.9,7.2,34,7.2L34,7.2z M38.7,44c0.3,0,0.8,0.2,1.2,0.4c0.7,0.3,2.3,0.1,2.9,0.1
		c0.6,0,1,0.2,0.5,0.8c-0.7,0.8-1.5,0.8-2.5,0.8c-1,0.1-2.1-0.9-2.1-0.9c-0.1-0.1-0.6-0.6-0.3-1C38.4,44,38.5,44,38.7,44z
		 M33.4,27.6c1.2-1.5,1.8-1.6,2.9-1.6c1,0,2.5,0.7,2.9,2.3c0.5,1.7,0.7,2-1,4c-1.2,1.4-3.3,4.5-5.5,2.5
		C30.5,32.7,31.3,30.1,33.4,27.6L33.4,27.6z M52.7,30.3c-0.7-1.7-1.3-2.1-2.3-2.4c-1-0.3-2.5-0.1-3.4,1.3c-1,1.5-1.3,1.7-0.3,4
		c0.7,1.7,1.9,5.3,4.5,4.1C53.9,36.1,53.9,33.3,52.7,30.3L52.7,30.3z M41.3,41.8c0.5-0.9,1.8-1.2,2.6-1.2c1,0,1-0.9,1-0.9
		s0.1-0.9-3.4-1.2c-3.5-0.3-3.6,0.6-3.6,0.6s-0.2,0.8,0.8,1c0.7,0.2,1.9,0.7,2.3,1.6C41,42,41.2,42,41.3,41.8L41.3,41.8z M57.9,20.7
		c-0.6,0.2-1.5,0.1-2.5-0.9c-1-1.1-1.6-1.9-3.5-2.8c0,0-1.3-0.4-1.1-1.7c0.2-1.3,1.6-4.1,3.1-4.8c1.5-0.7,4-0.3,5.3,1.2
		c1.3,1.4,2.7,2.9,2.4,4.7c-0.2,1.7-1.3,2.6-1.3,2.6l0,0C59.8,19.5,57.9,20.7,57.9,20.7L57.9,20.7z"/>
</g>
</svg>
