<?xml version="1.0" encoding="utf-8"?>
<!-- Generator: Adobe Illustrator 28.1.0, SVG Export Plug-In . SVG Version: 6.00 Build 0)  -->
<svg version="1.1" id="Layer_1" xmlns="http://www.w3.org/2000/svg" xmlns:xlink="http://www.w3.org/1999/xlink" x="0px" y="0px"
	 viewBox="0 0 2500 870" style="enable-background:new 0 0 2500 870;" xml:space="preserve">
<path d="M804.4,731.4c9.6,9.6,15,22.6,15,36.2c0,15.6-7,28.2-15,36.2c-15.3,15.2-36,31.1-63.2,42.3c-23.5,9.7-48.7,14.7-74.1,14.7
	H193.7c-53.5,0-101.9-21.7-136.9-56.7C21.7,769.2,0,720.8,0,667.3V193.8C0,140.4,21.7,92,56.7,56.9c35-35,83.5-56.7,136.9-56.7
	h473.4c25.4,0,50.6,5,74.1,14.7c31.3,13,51.3,29,70.6,49.8c7.7,8.3,15,20.6,15,36.2c0,13.1-5,26.2-15,36.2c-9.6,9.6-22.6,15-36.2,15
	c-13.6,0-26.6-5.4-36.2-15c-13.7-13.7-21.2-20.7-36.8-27.3c-11.2-4.8-23.3-7.2-35.4-7.2H193.7c-25.1,0-47.9,10.2-64.4,26.7
	c-16.5,16.5-26.7,39.3-26.7,64.4v473.5c0,25.2,10.2,47.9,26.7,64.4c16.5,16.5,39.3,26.7,64.4,26.7h473.4c12.6,0,24.5-2.5,35.4-7.2
	c11-4.7,20.9-11.4,29.4-19.9c9.6-9.6,22.7-15,36.2-15C781.7,716.4,794.8,721.8,804.4,731.4z M665.6,670.4
	c-1.8-37.4-27.1-94.9-90.6-102.5H349.2l260.2-249.1c11-10.5,35.6-46,18.1-84.3c-14.1-30.7-37.7-43.9-79-43.9H224.4
	c1.3,43,22.8,94.3,79.8,103.5h185.2L215.6,551.5c-11.1,10.7-29.4,43.4-15,76.7c13,30,34.9,42.2,75.7,42.2H665.6L665.6,670.4z
	 M1407.1,435.8v190.9c0,70.6-21.6,132-70.6,181c-44,44-99.7,62.2-160.8,62.2c-119.8,0-181.5-92.6-181.5-92.6
	c32.2-32.2,77-51.8,120.9-25.5c7.4,4.4,29.5,16.5,61.1,16.5c110.9,0,128.9-99.1,128.9-128.6c-38.4,23.2-81.8,34.8-129.9,34.8h-0.1
	c-62.7,0-117.6-19.8-163.3-58.9l-0.6-0.5c-44.9-43-67.8-96.1-68.2-157.7c-0.3-12.7-0.3-53.2,0-62.7c0.1-60.6,23.1-113.5,68.2-156.7
	c45.5-43.6,100.7-65.7,163.9-65.8h0.1c84,0,145.7,41.6,174.2,76.2c7.3,8.8,11.5,20.1,11.5,32.4c0,14.2-5.8,27.1-15.1,36.5
	c-9.7,9.7-22.8,15.1-36.5,15.1c-14.1,0-27.6-5.9-36.2-14.8c-32-33.3-62.4-43.8-98-43.8c-35.5,0-65.1,11.9-90.5,36.2
	c-25.2,23.8-37.1,50.8-37.5,85.2c-0.6,15.1-0.6,47,0,61.5c0.3,35.2,12.1,62.7,37.3,86.8c26.2,23.9,56,35.7,90.7,35.7
	c34.8,0,64.5-11.7,91-35.9c13.8-13.2,23.6-27.5,29.6-43.6c4.8-12.9,15-39.9,49.3-53.6C1373.9,434.5,1407.1,435.8,1407.1,435.8
	L1407.1,435.8z M1891.3,446c-34.3,13.7-44.4,40.6-49.3,53.6c-6,16.1-15.8,30.4-29.6,43.6c-26.4,24.1-56.2,35.9-91,35.9
	c-34.8,0-64.5-11.7-90.7-35.7c-25.2-24.1-37-51.5-37.3-86.8c-0.5-14.5-0.5-46.4,0-61.5c0.3-34.4,12.2-61.4,37.5-85.2
	c25.4-24.4,55-36.2,90.5-36.2c35.5,0,66,10.5,97.9,43.8c8.6,8.9,22.1,14.8,36.2,14.8c14.3,0,27.2-5.8,36.5-15.1
	c9.7-9.7,15.1-22.8,15.1-36.5c0-12.3-4.2-23.6-11.5-32.4c-28.5-34.6-90.2-76.2-174.2-76.2h-0.1c-63.2,0-118.4,22.1-163.9,65.8
	c-45.1,43.2-68,96-68.2,156.7c-0.3,9.4-0.3,50,0,62.7c0.4,61.7,23.3,114.7,68.2,157.8l0.6,0.5c45.7,39.1,100.7,58.9,163.3,58.9h0.1
	c48.2,0,91.5-11.6,129.9-34.8c0,29.5-18.1,128.6-128.9,128.6c-31.6,0-53.8-12.1-61.1-16.5c-43.9-26.3-88.7-6.7-120.9,25.5
	c0,0,61.7,92.6,181.5,92.6c61.1,0,116.7-18.1,160.8-62.2c49-49,70.6-110.4,70.6-181V435.8C1953.3,435.8,1920.2,434.5,1891.3,446
	L1891.3,446z M2499.8,395c-0.1-61-23.1-113.9-68.2-157.1c-45.6-43.6-100.7-65.7-163.9-65.8h-0.1c-63.2,0-118.3,22.1-163.9,65.8
	c-45.1,43.2-68,96-68.2,156.7c-0.3,9.4-0.3,50,0,62.7c0.4,61.7,23.3,114.7,68.2,157.8l0.6,0.5c45.7,39.1,100.6,58.9,163.3,58.9h0.1
	c62.6,0,117.6-19.8,163.3-58.9l0.6-0.5c44.8-43,67.8-96.1,68.2-157.5C2500.1,444.6,2500.1,404,2499.8,395 M2267.6,579.1
	c-34.8,0-64.5-11.7-90.7-35.7c-25.2-24.1-37-51.5-37.3-86.8c-0.6-14.5-0.6-46.4,0-61.5c0.4-34.4,12.2-61.4,37.5-85.2
	c25.4-24.4,55-36.2,90.5-36.2c35.5,0,65.1,11.9,90.6,36.3c25.2,23.7,37,50.7,37.4,85.4c0.5,14.1,0.7,45.9,0,61.6
	c-0.3,34.8-12.2,62.3-37.1,86.2C2332.2,567.4,2302.4,579.1,2267.6,579.1 M860.8,190.8c-53.7,0.1-102.5,45.2-102.5,93.5v386.2
	c53.7-0.1,102.5-45.2,102.5-93.5V190.8z"/>
</svg>
