<!-- Generator: Adobe Illustrator 28.1.0, SVG Export Plug-In . SVG Version: 6.00 Build 0)  -->
<svg version="1.1" id="Layer_1" xmlns="http://www.w3.org/2000/svg" xmlns:xlink="http://www.w3.org/1999/xlink" x="0px" y="0px"
	 viewBox="0 0 72 72" style="enable-background:new 0 0 72 72;" xml:space="preserve">
<path d="M59,43.4c-0.4-0.3-0.9-0.4-1.4-0.5V29.2c0.5-0.1,0.9-0.3,1.4-0.5c2.5-1.4,3.3-4.6,1.9-7c-1.4-2.5-4.6-3.3-7-1.9
	c-0.4,0.3-0.8,0.6-1.2,0.9l-11.8-6.8c0.1-0.5,0.2-1,0.2-1.5c0-2.8-2.3-5.1-5.1-5.1c-2.8,0-5.1,2.3-5.1,5.1c0,0.5,0.1,1,0.2,1.5
	l-11.8,6.8c-0.3-0.4-0.7-0.7-1.2-0.9c-2.5-1.4-5.6-0.6-7,1.9s-0.6,5.6,1.9,7c0.4,0.3,0.9,0.4,1.4,0.5v13.7c-0.5,0.1-0.9,0.3-1.4,0.5
	c-2.5,1.4-3.3,4.6-1.9,7c1.4,2.5,4.5,3.3,7,1.9c0.4-0.3,0.8-0.6,1.1-0.9l11.8,6.8c-0.1,0.5-0.2,0.9-0.2,1.5c0,2.8,2.3,5.1,5.1,5.1
	c2.8,0,5.1-2.3,5.1-5.1c0-0.6-0.1-1.1-0.3-1.6l11.8-6.8c0.4,0.4,0.8,0.7,1.3,1c2.5,1.4,5.6,0.6,7-1.9C62.4,47.9,61.5,44.8,59,43.4z
	 M16.9,42.9c-0.1,0-0.1,0-0.2-0.1V29.1c1.3-0.3,2.5-1.2,3.2-2.4c0.7-1.3,0.9-2.7,0.5-4l11.9-6.9c0,0.1,0.1,0.1,0.1,0.1L16.9,42.9z
	 M39.8,56.2c-0.9-1-2.3-1.7-3.8-1.7c-1.5,0-2.8,0.6-3.7,1.6l-11.9-6.8c0-0.1,0-0.1,0.1-0.2h31c0,0.1,0.1,0.2,0.1,0.3L39.8,56.2z
	 M52,45.3c-0.3,0.4-0.4,0.9-0.5,1.4h-31c-0.1-0.5-0.3-0.9-0.5-1.4c-0.3-0.4-0.6-0.8-0.9-1.1l15.5-26.9c0.5,0.1,0.9,0.2,1.4,0.2
	c0.5,0,1-0.1,1.4-0.2l15.5,26.8C52.6,44.4,52.3,44.8,52,45.3z M55.3,42.8c-0.1,0-0.1,0-0.2,0.1L39.6,16c0,0,0.1-0.1,0.1-0.1
	l11.9,6.9c-0.4,1.3-0.2,2.7,0.5,4c0.7,1.3,1.9,2.1,3.2,2.4L55.3,42.8L55.3,42.8z"/>
</svg>
