<!-- Generator: Adobe Illustrator 28.1.0, SVG Export Plug-In . SVG Version: 6.00 Build 0)  -->
<svg version="1.1" id="Layer_1" xmlns="http://www.w3.org/2000/svg" xmlns:xlink="http://www.w3.org/1999/xlink" x="0px" y="0px"
	 viewBox="0 0 72 72" style="enable-background:new 0 0 72 72;" xml:space="preserve">
<g>
	<polygon points="26.5,33.4 21,26.5 15.5,26.5 15.5,45.5 21,45.5 21,34.6 26.5,41.5 32,34.6 32,45.5 37.6,45.5 37.6,26.5 32,26.5 	
		"/>
	<polygon points="52.9,26.5 47.4,26.5 47.4,36.3 41.9,36.3 50.1,45.5 58.4,36.2 52.9,36.2 	"/>
	<path d="M60.7,18.2H11.3c-2.2,0-4.1,1.9-4.1,4.1v27.2c0,2.2,1.9,4.1,4.1,4.1h49.5c2.2,0,4-1.9,4-4.1V22.4
		C64.8,20.1,62.9,18.2,60.7,18.2z M62,49.6c0,0.7-0.5,1.4-1.4,1.4H11.3c-0.7,0-1.4-0.5-1.4-1.4V22.4c0-0.7,0.7-1.4,1.4-1.4
		c0,0,49.5,0,49.3,0c0.7,0,1.4,0.5,1.4,1.4V49.6z"/>
</g>
</svg>
