<!-- Generator: Adobe Illustrator 28.1.0, SVG Export Plug-In . SVG Version: 6.00 Build 0)  -->
<svg version="1.1" id="Layer_1" xmlns="http://www.w3.org/2000/svg" xmlns:xlink="http://www.w3.org/1999/xlink" x="0px" y="0px"
	 viewBox="0 0 72 72" style="enable-background:new 0 0 72 72;" xml:space="preserve">
<path d="M13.6,46.3c-1.7-0.1-3.1-0.5-4.2-1.4c-0.2-0.2-0.7-0.7-0.9-0.9c-0.4-0.6-0.7-1.1-0.9-1.7c-0.6-1.9-0.3-4.3,0.9-7
	c1-2.3,2.6-4.6,5.5-7.7c0.4-0.5,1.6-1.8,1.7-1.8c0,0-0.1,0.1-0.1,0.3c-0.7,1.2-1.4,2.7-1.7,3.9c-0.5,2-0.5,3.7,0.2,5
	c0.5,0.9,1.3,1.7,2.2,2.1c1.6,0.8,3.9,0.8,6.7,0.2c0.2,0,9.7-2.6,21.2-5.6s20.9-5.6,20.9-5.6c0,0-26.7,11.4-40.5,17.3
	c-2.2,0.9-2.8,1.2-3.8,1.5C17.8,45.9,15.5,46.3,13.6,46.3L13.6,46.3z"/>
</svg>
