<!-- Generator: Adobe Illustrator 28.1.0, SVG Export Plug-In . SVG Version: 6.00 Build 0)  -->
<svg version="1.1" id="Layer_1" xmlns="http://www.w3.org/2000/svg" xmlns:xlink="http://www.w3.org/1999/xlink" x="0px" y="0px"
	 viewBox="0 0 300 100" style="enable-background:new 0 0 300 100;" xml:space="preserve">
<path d="M6.87,92.69l37.48-0.04C59.68,92.65,72.1,80.26,72.1,65c0-15.29-12.43-27.68-27.76-27.68l-9.73,0.05
	c-0.77,0-1.39-0.63-1.39-1.4s0.62-1.4,1.39-1.4l37.41,0.01l0.01-11.74H34.6c-7.24,0-13.12,5.88-13.12,13.1
	c0,7.23,5.89,13.09,13.12,13.09l9.78,0.13c8.78,0,15.89,7.08,15.89,15.83c0,8.75-7.11,15.85-15.89,15.85H6.88L6.87,92.69"/>
<path d="M6.88,78.07h37.5c7.26,0,13.13-5.86,13.13-13.09c0-7.23-5.87-13.08-13.13-13.08l-9.78-0.11c-8.77,0-15.89-7.09-15.89-15.86
	c0-8.74,7.12-15.83,15.89-15.83l37.43-0.01L72.02,8.31H34.61c-15.32,0-27.76,12.37-27.76,27.65s12.44,27.66,27.76,27.66l9.68,0.01
	c0.74,0,1.36,0.6,1.36,1.36c0,0.74-0.62,1.34-1.36,1.34L6.87,66.37L6.88,78.07"/>
<path d="M101.16,80.9c-6.5,0-11.83-5.18-11.83-11.8V31.67c0-6.36,5.33-11.6,11.83-11.6l40,0.01V8.31h-40
	c-13.02,0-23.56,10.51-23.56,23.48V69.1c0,12.97,10.54,23.5,23.56,23.5l39.84,0.02l-0.01-11.73L101.16,80.9"/>
<path d="M92.2,31.79c0-4.96,3.99-8.98,8.96-8.98h40v11.77H106.7c-2.76,0-2.8,2.74-2.8,2.74h28.75v11.72H92.18L92.2,31.79"/>
<path d="M101.16,78.05c-4.95,0-8.97-4-8.97-8.94V51.84h40.47v11.74H103.9c0.04,2.76,2.8,2.77,2.8,2.77h34.3l-0.01,11.68
	L101.16,78.05"/>
<path d="M169.19,80.87c-6.48,0-11.77-5.28-11.77-11.77V31.79c0-6.49,5.26-11.73,11.74-11.73h38.74V8.31h-38.83
	c-13.01,0-23.56,10.51-23.56,23.48V69.1c0,12.97,10.64,23.5,23.65,23.5l38.74,0.02V37.33h-33.3v11.72h21.53v31.82L169.19,80.87"/>
<path d="M160.18,69.1c0,4.97,4.02,9.01,8.98,9.01h24.2V51.82h-18.72v11.76h6.95l0.02,2.76h-6.92c-1.51,0-2.75-1.25-2.75-2.76
	l-0.06-26.26c0,0-0.01-2.73,2.78-2.8h33.26l-0.01-11.71l-38.74,0.01c-4.96,0-8.98,4.02-8.98,8.98L160.18,69.1"/>
<path d="M244.32,22.64c0.52-1.49,1.94-2.57,3.62-2.57c1.68,0,3.11,1.08,3.62,2.57l18.81,55.56h-27.54l0.03-13.07h9.2l-4.14-12.31
	l-13.5,39.79h-13.88L244.32,22.64"/>
<path d="M274.15,80.87h-31.29v11.74h47.61l-24.76-73.26c-2.17-7.15-9.32-12.4-17.79-12.4c-8.48,0-15.61,5.23-17.8,12.37
	l-24.99,73.29h12.46l24.26-71.24c0.99-2.36,3.31-4.02,6.04-4.02c2.72,0,5.05,1.66,6.05,4.01L274.15,80.87"/>
<path d="M281.5,17.64c2.22,0,4.3-0.86,5.86-2.42c1.56-1.57,2.43-3.64,2.43-5.86c0-2.2-0.87-4.26-2.43-5.83
	c-1.56-1.55-3.65-2.41-5.86-2.41c-4.56,0-8.28,3.69-8.28,8.25c0,2.22,0.86,4.29,2.44,5.86C277.22,16.77,279.3,17.64,281.5,17.64
	 M274.39,9.36c0-1.89,0.73-3.68,2.08-5.02c1.35-1.34,3.14-2.07,5.03-2.07c1.91,0,3.7,0.73,5.05,2.07c1.34,1.34,2.09,3.13,2.09,5.02
	c0,3.92-3.2,7.11-7.14,7.11c-1.89,0-3.68-0.74-5.03-2.08C275.12,13.05,274.39,11.27,274.39,9.36z"/>
<path d="M279.38,10.06v3.9h-1.2V4.79h3.41c1.28,0.01,2.03,0.01,2.75,0.55c0.69,0.51,0.98,1.28,0.98,2.12c0,2.14-1.74,2.42-2.19,2.51
	l2.58,3.98h-1.45l-2.51-3.9L279.38,10.06 M279.38,9.05h2.43c0.39,0,0.75,0,1.12-0.09c0.85-0.2,1.15-0.81,1.15-1.48
	c0-0.24-0.02-0.86-0.55-1.28c-0.48-0.4-1.08-0.39-1.79-0.39h-2.37V9.05z"/>
</svg>
