<!-- Generator: Adobe Illustrator 28.1.0, SVG Export Plug-In . SVG Version: 6.00 Build 0)  -->
<svg version="1.1"
	 id="svg12494" xmlns:svg="http://www.w3.org/2000/svg" xmlns:cc="http://creativecommons.org/ns#" xmlns:dc="http://purl.org/dc/elements/1.1/" xmlns:rdf="http://www.w3.org/1999/02/22-rdf-syntax-ns#"
	 xmlns="http://www.w3.org/2000/svg" xmlns:xlink="http://www.w3.org/1999/xlink" x="0px" y="0px" viewBox="0 0 72 72"
	 style="enable-background:new 0 0 72 72;" xml:space="preserve">
<g id="layer1" transform="translate(-291.84746,-593.15508)">
	<g id="g12167" transform="matrix(3.0314991,0,0,-3.0314991,125.02367,2886.5171)">
		<g>
			<g id="g12169">
				<g id="g12213" transform="translate(92.8631,733.0946)">
					<path id="path12215" d="M-29.3,10.1L-30,8.8l-4.2,0.2l0.4,0.7L-29.3,10.1z M-26.2,14.3l0.4-1.4l-6,0.4l0.4,0.7L-26.2,14.3z
						 M-30.2,16.1l3.5,0l0.3-1l-4.2,0.3C-30.6,15.4-30.2,16.1-30.2,16.1z M-30.5,8l-0.6-1l-4.3,0l0.4,0.7C-35,7.7-30.5,8-30.5,8z
						 M-22.9,10.8L-23.9,9h1c0.5,0,1.3,0.2,1.6,0.9c0.2,0.6-0.2,0.9-0.5,0.9C-21.9,10.8-22.9,10.8-22.9,10.8z M-21.9,12.6l0.9,0
						c0.6,0,1.2,0.3,1.4,0.8c0.2,0.5-0.1,0.9-0.4,0.9h-0.8C-20.9,14.3-21.9,12.6-21.9,12.6z M-25.8,12.9l0.9,1.5l3,0.2l0.1,0.2
						l-2.8,0.2l0.6,1.1h5.1c1.6,0,2.7-0.6,2.3-2.2c-0.1-0.5-0.8-1.8-2.7-2.3c0.4,0,1.4-0.5,1.2-1.6c-0.3-2-2.9-3-4.4-3l-6,0
						l-0.3,1.2l3.2,0.2l0.1,0.2l-3.4,0.2l-0.4,1.4l4.9,0.3l0.1,0.2l-8.8,0.6l0.4,0.7l9.5,0.6l0.1,0.2L-25.8,12.9"/>
				</g>
			</g>
		</g>
	</g>
</g>
</svg>
