<!-- Generator: Adobe Illustrator 28.1.0, SVG Export Plug-In . SVG Version: 6.00 Build 0)  -->
<svg version="1.1"
	 id="svg817" xmlns:svg="http://www.w3.org/2000/svg" xmlns:sodipodi="http://sodipodi.sourceforge.net/DTD/sodipodi-0.dtd" xmlns:inkscape="http://www.inkscape.org/namespaces/inkscape" xmlns:cc="http://creativecommons.org/ns#" xmlns:dc="http://purl.org/dc/elements/1.1/" xmlns:rdf="http://www.w3.org/1999/02/22-rdf-syntax-ns#"
	 xmlns="http://www.w3.org/2000/svg" xmlns:xlink="http://www.w3.org/1999/xlink" x="0px" y="0px" viewBox="0 0 360 180"
	 style="enable-background:new 0 0 360 180;" xml:space="preserve">
<sodipodi:namedview  bordercolor="#666666" borderopacity="1" fit-margin-bottom="0" fit-margin-left="0" fit-margin-right="0" fit-margin-top="0" gridtolerance="10" guidetolerance="10" id="namedview819" inkscape:current-layer="svg817" inkscape:cx="539" inkscape:cy="0.63205701" inkscape:pageopacity="0" inkscape:pageshadow="2" inkscape:window-height="745" inkscape:window-maximized="1" inkscape:window-width="1366" inkscape:window-x="-8" inkscape:window-y="-8" inkscape:zoom="0.61131725" objecttolerance="10" pagecolor="#ffffff" showgrid="false">
	</sodipodi:namedview>
<g>
	<path id="path815" inkscape:connector-curvature="0" d="M309.2,147L266.6,29.5l0-0.1h-0.8l-8.8,24.1l-16,43.9l0,0
		c-5.5-4.9-13.4-7.9-23.2-9.1l-3-0.3l3-0.4c16.2-2.9,27.2-13.2,27.2-25.5c0-17-15.9-28.8-38.8-28.8h-47.5v0.9h13.8v87.6l-33.5-92.3
		l0-0.1h-0.8l-8.8,24.1l-33.9,93.1l-0.2,0c-0.6,0.1-1.2,0.1-1.7,0.2c-0.9,0.1-1.7,0.1-2.5,0.1H56.5l65.1-112.7l0.5-0.8H42.5v34.9
		h0.8c0.2-17,10-34,31.9-34h26.4L36,147.8h88.4v-33.4h-0.8c-0.1,14.8-8.5,28.9-26.8,32l-0.6,0.1l13.9-38.2H149l14,38.6h-13.8v0.8
		h54.3V147h-13.9V88.7h16c16.3,0,25.7,7.3,25.7,20V119c0,1.1,0.1,2.8,0.2,4.2v0.1l-8.6,23.7h-11.3v0.8h23.3V147h-11.1l7.9-21.6
		c0,0.2,0,0.3,0,0.3l0.2,1.9l0.2,1.3c1.3,8,4.4,13.8,9,17.4l0.7,0.5c3.6,2.5,8,3.7,13.2,3.7c6.9,0,11.4-1.7,15.2-5.7l-0.5-0.5
		c-3.5,3.2-6.4,4.5-10,4.5c-6.2,0-9.5-7.6-9.5-15v-14.5c0-3.6-0.5-7.2-1.7-10.6l-0.2-0.4v0h28.5l14,38.6H277v0.8h47V147L309.2,147z
		 M110.4,107.5l19.2-52.7l19.1,52.7H110.4z M189.6,87.9V34.2h12.2c16.4,0,25,9.7,25,28.1c0,19.6-5,25.5-21.2,25.5L189.6,87.9z
		 M248,107.5l-0.1-0.2c-1.3-3.1-3.1-5.9-5.4-8.3l-0.8-0.8l-0.1-0.1l15.8-43.3l19.1,52.7L248,107.5z"/>
</g>
</svg>
