<!-- Generator: Adobe Illustrator 28.1.0, SVG Export Plug-In . SVG Version: 6.00 Build 0)  -->
<svg version="1.1" id="Layer_1" xmlns="http://www.w3.org/2000/svg" xmlns:xlink="http://www.w3.org/1999/xlink" x="0px" y="0px"
	 viewBox="0 0 2500 1679" style="enable-background:new 0 0 2500 1679;" xml:space="preserve">
<path d="M938,939.5l-1-253.5l242.7-90.1l-244.5-80.1l-5.1-249.8L781.8,467.6l-242.6-74.8L680,604.4l-137.5,212L782,737L938,939.5z"
	/>
<path d="M968.3,1206h434.8L1948,603.4L1400.5,0H969.8L1482,602.5L968.3,1206z"/>
<path d="M0,1530.4c0-78.3,66.2-155.3,156.7-155.3c61.6,0,130.8,69.5,130.8,69.5l-74.9,43.6c0,0-12.4-32.7-58.6-32.7
	c-47,0-74.6,38.6-74.9,73.6c-0.4,39.1,31.7,73.6,72.2,73.6c31.8,0,65.4-34.1,65.4-34.1l64,46.3c0,0-47.9,58.6-128.1,58.6
	C72.3,1673.5,0,1625.1,0,1530.4z"/>
<path d="M467.3,1379.1c-84.3,0-152.5,67.3-152.5,150.1c0,82.8,68.2,149.8,152.5,149.8S620,1611.9,620,1529.2
	C620,1446.4,551.6,1379.1,467.3,1379.1L467.3,1379.1z M467.3,1454.1c42.1,0,76.4,33.7,76.4,75.1c0,41.4-34.2,74.8-76.4,74.8
	c-42.1,0-76.1-33.4-76.1-74.8C391.2,1487.8,425.1,1454.1,467.3,1454.1z M677.3,1383.3v280.6h73.5v-151.6L872,1663.9h72.4v-280.6
	h-73.7v164l-119.9-164H677.3z M1004.3,1383.3l99.2,280.6h109.3l99.2-280.6h-80.4l-73.5,222.8l-73.5-222.8H1004.3z M1364.7,1383.3
	v280.6h225.7v-64.7h-152.2v-46.9H1575V1495h-136.8v-44.8h152.2v-66.8L1364.7,1383.3z M2274.3,1383.3v280.6H2500v-64.7h-152.2v-46.9
	h136.8V1495h-136.8v-44.8H2500v-66.8L2274.3,1383.3z M1673.4,1388.6v276.6h65.2v-109h37.4l57.3,109h84.1l-56.8-118.3
	c73.8-44.2,59.2-136.8-23.1-158.3H1673.4z M1737.3,1455.4h75.3c26.2,0,24.5,40.6,0,40.6h-75.3V1455.4z"/>
<path d="M1956.6,1626.5c2.9,17.3,71.3,50.1,138.7,50.1c62,0,111.8-29.8,111.8-88.8c0-72.6-84.8-89.4-84.8-89.4s-70.4-1-72.3-33.7
	c-0.9-15.4,20.6-24.1,39.5-24.1c30.9,0,65.5,30.8,65.5,30.8l49.1-53c0,0-62.2-49.1-114.7-49.1c-50.1,0-121.4,32.8-121.4,101.2
	c0,58.2,82.5,84.9,82.5,84.9s87.1,9.3,87.1,36.5c0,18.5-31.6,24.1-50.1,24.1c-45,0-82.9-39.5-82.9-39.5L1956.6,1626.5z"/>
</svg>
