<!-- Generator: Adobe Illustrator 28.1.0, SVG Export Plug-In . SVG Version: 6.00 Build 0)  -->
<svg version="1.1"
	 id="svg5102" xmlns:svg="http://www.w3.org/2000/svg" xmlns:sodipodi="http://sodipodi.sourceforge.net/DTD/sodipodi-0.dtd" xmlns:inkscape="http://www.inkscape.org/namespaces/inkscape" xmlns:cc="http://creativecommons.org/ns#" xmlns:dc="http://purl.org/dc/elements/1.1/" xmlns:rdf="http://www.w3.org/1999/02/22-rdf-syntax-ns#"
	 xmlns="http://www.w3.org/2000/svg" xmlns:xlink="http://www.w3.org/1999/xlink" x="0px" y="0px" viewBox="0 0 360 180"
	 style="enable-background:new 0 0 360 180;" xml:space="preserve">
<sodipodi:namedview  bordercolor="#666666" borderopacity="1" gridtolerance="10" guidetolerance="10" id="namedview50" inkscape:current-layer="svg5102" inkscape:cx="732.02485" inkscape:cy="106.35524" inkscape:document-rotation="0" inkscape:pageopacity="0" inkscape:pageshadow="2" inkscape:window-height="705" inkscape:window-maximized="1" inkscape:window-width="1366" inkscape:window-x="-8" inkscape:window-y="-8" inkscape:zoom="0.23969534" objecttolerance="10" pagecolor="#ffffff" showgrid="false">
	</sodipodi:namedview>
<g>
	<path id="path846" inkscape:connector-curvature="0" d="M176.8,135.3c-13.7-0.5-27.8-3.8-42.2-10c-5.9-2.5-12.1-5.6-18.4-9.2
		c-4.2-2.4-13.7-8.2-14.2-8.7c-0.3-0.3-0.5-0.6-0.5-1c0-0.8,0.6-1.4,1.4-1.4c0.4,0,0.5,0,1.5,0.7c4,2.5,9.5,5.3,14.9,7.6
		c25.1,10.6,54.8,14.4,83.3,10.5c19.5-2.7,38.2-8.9,52.8-17.6c2.1-1.3,2.3-1.3,2.9-1c0.9,0.4,1.1,1.5,0.4,2.2
		c-0.3,0.3-0.6,0.5-5.4,3.5c-12.8,7.9-23.1,13.2-33.9,17.2C205,133.2,190.5,135.8,176.8,135.3L176.8,135.3z"/>
	<g>
		<path d="M98.5,46.4C88.3,57.3,81.4,74.6,79.3,97.1h11.4c0.3-3.9,0.8-7.4,1.4-11h23.1c0.6,3.6,1.1,7.1,1.4,11h11.7
			c-2.2-22.3-8.6-39.1-19-50.6C109.3,46.4,98.5,46.4,98.5,46.4z M94.1,76.6c2.2-7.7,5.4-14.6,9.4-20.7c4,6.1,7,12.7,9.6,20.7H94.1z"
			/>
		<path d="M70.7,49.4c-6.2-3.9-15.7-4.7-23.1-4.4c-7.3,0.3-11.4,1.1-11.6,1.1l0,0c0,0,0.3,0.8,0.5,3.3c0.3,6,0.3,11,0.4,16.6
			c0.1,4.3,0,8.5,0,12.5c0,2.7,0,4.2,0,6.7c0,7.4-0.6,12.6-0.6,12.6s5.5,1.2,13.7,1.2c8.3,0,17-2.9,22.1-7.1
			c5-4.3,9.6-10.4,9.6-21.4C81.6,59.4,76.9,53.3,70.7,49.4z M62.1,86.7c-7.3,3.4-14.5,2.1-14.5,2.1l0.1-33.9c0,0,2.3-0.1,5-0.1
			s8.8,0.5,13.3,4.9s4.5,9.3,4.5,12.8C70.6,75.9,69.4,83.4,62.1,86.7z"/>
		<path d="M263.3,71.3c-3.4-5.7-7.6-10.4-11.8-14.5c-4.1-4.1-7.5-7.5-11.7-10.4h-9.7v50.6h11.4V62.5c10.5,9.2,18.2,20.7,22.8,34.5
			l9.8,0.1V46.4h-11L263.3,71.3z"/>
		<path d="M162.8,70.9c-6.5-9.3-14.3-17.6-23.2-24.4h-9.3v50.6h11.1V62.5c10.5,9.2,18,20.7,22.6,34.5h9.9V46.4h-11.1L162.8,70.9
			L162.8,70.9z"/>
		<path d="M323.9,67.3c-0.3-5.8-2.1-11.1-5.7-15.6c-3.6-4.5-9.7-6.9-17.3-6.8c-7.1,0.1-13,2.5-17.6,7.4c-4.3,4.6-6.9,11.6-6.8,20.7
			c0.1,8.7,2.3,15.1,7.7,20.4c3.8,3.7,8.8,5.6,15.5,5.6c12.7-0.4,17.9-4.5,23.1-11.6l0,0l-11-2.6c-2.9,2.9-6,4.3-10,4.2
			c-8.3-0.1-12.4-5-13.9-13h35.5C323.9,73.2,324.1,70.2,323.9,67.3z M288.3,67.2c0.4-6.6,6.5-12.7,12.9-12.7
			c6.6,0,12.3,4.8,12.6,12.7H288.3z"/>
		<path d="M202.4,44.7c-14.1,0-25.9,12.3-25.9,27.2s11.5,27,25.6,27c14.1,0,25.9-12.1,25.9-27C228,56.9,216.5,44.7,202.4,44.7z
			 M202,88.9c-8.4,0-15.3-7.6-15.3-17s6.8-17,15.3-17c8.4,0,15.3,7.6,15.3,17S210.5,88.9,202,88.9z"/>
	</g>
</g>
</svg>
