<!-- Generator: Adobe Illustrator 28.1.0, SVG Export Plug-In . SVG Version: 6.00 Build 0)  -->
<svg version="1.1" id="Layer_1" xmlns="http://www.w3.org/2000/svg" xmlns:xlink="http://www.w3.org/1999/xlink" x="0px" y="0px"
	 viewBox="0 0 72 72" style="enable-background:new 0 0 72 72;" xml:space="preserve">
<g>
	<path d="M63.7,61.1c0.7-0.4,1.1-1.2,1.1-1.9c0-0.7-0.5-1.5-1.4-3.2c0-0.1-0.1-0.1-0.1-0.2l-7-11.9l-0.1-0.1c-1-1.7-1.5-2.5-2.1-2.8
		c-0.7-0.4-1.5-0.4-2.2,0c-0.6,0.3-1.2,1.2-2.2,3l-6.9,11.9l0,0c-1,1.7-1.5,2.6-1.5,3.3c0.1,0.8,0.5,1.5,1.1,1.9
		c0.6,0.4,1.6,0.4,3.7,0.4H60C62,61.6,63.1,61.6,63.7,61.1z"/>
	<path d="M26.1,61.3c1.1-0.3,2.1-0.9,3-1.7c0.8-0.7,1.3-1.7,2.4-3.7l0-0.1l12.6-22.2c1.1-2,1.7-2.9,1.9-4c0.3-1.1,0.3-2.3,0-3.4
		c-0.2-1-0.8-2-1.9-3.9l0,0l-4.9-8.6c-1-1.8-1.5-2.7-2.2-3c-0.7-0.4-1.5-0.4-2.2,0c-0.7,0.3-1.2,1.2-2.2,3L8.7,55.9
		c-1,1.8-1.5,2.6-1.5,3.4c0.1,0.8,0.5,1.5,1.1,1.9c0.6,0.4,1.6,0.4,3.7,0.4h9.7C23.9,61.6,25.1,61.6,26.1,61.3z"/>
</g>
</svg>
