<!-- Generator: Adobe Illustrator 28.1.0, SVG Export Plug-In . SVG Version: 6.00 Build 0)  -->
<svg version="1.1" id="Layer_1" xmlns="http://www.w3.org/2000/svg" xmlns:xlink="http://www.w3.org/1999/xlink" x="0px" y="0px"
	 viewBox="0 0 72 72" style="enable-background:new 0 0 72 72;" xml:space="preserve">
<path d="M36,38.1c-0.1,0-0.3-0.1-0.5-0.6c-1.2-2.2-2.8-4.1-4.7-5.6c-1.5-1.2-3.2-2.2-5-2.9c-0.3-0.1-0.6-0.2-0.8-0.3
	c-2.4-1-4.9-2-7.3-3.3c-0.3-0.1-0.5-0.3-0.8-0.5c0.5-0.8,1-1.6,1.6-2.3c0.9-1,1.9-2,3-2.7c1.2-0.8,2.5-1.5,3.9-1.9
	c2.9-1,6.4-1.6,10.7-1.6c4.3,0,7.8,0.5,10.7,1.6c1.4,0.5,2.7,1.1,3.9,1.9c1.1,0.8,2.1,1.7,3,2.7c0.6,0.7,1.1,1.5,1.6,2.3
	c-0.2,0.2-0.5,0.3-0.8,0.5c-2.3,1.4-4.9,2.3-7.3,3.3L46.3,29c-1.8,0.7-3.5,1.7-5,2.9c-2,1.5-3.6,3.5-4.7,5.6
	C36.3,38,36.1,38.1,36,38.1 M36,55.1c-3.7,0-6.7-0.3-9.2-0.9c-2.4-0.6-4.5-1.5-6.2-2.9c-1.3-1-2.5-2.3-3.3-3.7
	c-0.8-1.3-1.5-2.8-1.9-4.2c-0.7-2.3-1.1-4.7-1.1-7.2c0-1.6,0.1-3.2,0.3-4.6c2.7,1.4,5.2,2.1,7.4,2.8l0.5,0.1
	c3.1,0.9,5.6,2.1,7.5,3.6c1.1,0.9,2.1,1.9,3,3c0.9,1.2,1.6,2.6,2.1,4.1c0.2,0.7,0.5,1.1,1,1.1c0.5,0,0.7-0.4,1-1.1
	c0.9-2.8,2.7-5.4,5.1-7.2c2-1.5,4.4-2.7,7.5-3.6l0.5-0.1c2.2-0.6,4.7-1.4,7.4-2.8c0.2,1.4,0.3,2.9,0.3,4.6c0,1.1-0.1,4-1.1,7.2
	c-0.5,1.5-1.1,2.9-1.9,4.2c-0.9,1.4-2,2.7-3.4,3.7c-1.7,1.3-3.8,2.2-6.2,2.9C42.7,54.8,39.7,55.1,36,55.1 M59.3,20.1
	C54.7,15.2,47.3,13,36,13c-11.3,0-18.7,2.3-23.3,7.2c-3.4,3.7-5.5,8.7-5.5,15.6c0,3.8,0.9,13.4,8.6,18.4c4.6,3,10.4,4.9,20.2,4.9
	c9.8,0,15.7-1.9,20.2-4.9c7.6-5,8.6-14.6,8.6-18.4C64.8,28.9,62.6,23.8,59.3,20.1L59.3,20.1z"/>
</svg>
