<!-- Generator: Adobe Illustrator 28.1.0, SVG Export Plug-In . SVG Version: 6.00 Build 0)  -->
<svg version="1.1"
	 id="svg3070" xmlns:svg="http://www.w3.org/2000/svg" xmlns:sodipodi="http://sodipodi.sourceforge.net/DTD/sodipodi-0.dtd" xmlns:inkscape="http://www.inkscape.org/namespaces/inkscape" xmlns:cc="http://creativecommons.org/ns#" xmlns:dc="http://purl.org/dc/elements/1.1/" xmlns:rdf="http://www.w3.org/1999/02/22-rdf-syntax-ns#"
	 xmlns="http://www.w3.org/2000/svg" xmlns:xlink="http://www.w3.org/1999/xlink" x="0px" y="0px" viewBox="0 0 360 180"
	 style="enable-background:new 0 0 360 180;" xml:space="preserve">
<sodipodi:namedview  bordercolor="#666666" borderopacity="1.0" fit-margin-bottom="0" fit-margin-left="0" fit-margin-right="0" fit-margin-top="0" id="base" inkscape:current-layer="layer1" inkscape:cx="142.93233" inkscape:cy="33.703355" inkscape:document-units="px" inkscape:pageopacity="0.0" inkscape:pageshadow="2" inkscape:window-height="750" inkscape:window-maximized="1" inkscape:window-width="1280" inkscape:window-x="-8" inkscape:window-y="-8" inkscape:zoom="2.8" pagecolor="#ffffff" showgrid="false">
	</sodipodi:namedview>
<g id="layer1" transform="translate(-200.55198,-393.96227)" inkscape:groupmode="layer" inkscape:label="Layer 1">
	<g id="g3019" transform="matrix(1.018827,0,0,-1.018827,170.5996,498.03288)">
		<path id="path16" inkscape:connector-curvature="0" d="M64.7-21.5h44.5v14.6H80.8v55.7H64.7C64.7,48.8,64.7-21.5,64.7-21.5z"/>
		<path id="path18" inkscape:connector-curvature="0" d="M131.8-21.5v48.4h-16.1v-48.4H131.8z M123.7,33.5c5.6,0,9.1,3.7,9.1,8.4
			c-0.1,4.8-3.5,8.4-9,8.4s-9.1-3.6-9.1-8.4c0-4.7,3.5-8.4,8.9-8.4L123.7,33.5L123.7,33.5z"/>
		<path id="path20" inkscape:connector-curvature="0" d="M139.2-21.5h16.1V5.5c0,1.4,0.1,2.9,0.5,3.9c1.2,2.9,3.8,5.9,8.3,5.9
			c5.8,0,8.2-4.4,8.2-11v-25.9h16.1V6.3c0,14.9-7.9,21.8-18.5,21.8c-8.7,0-12.5-4.9-14.6-8.2h0.1v7h-16.1
			C139.4,22.4,139.2-21.5,139.2-21.5L139.2-21.5z"/>
		<path id="path22" inkscape:connector-curvature="0" d="M211.1,48.8H195v-70.3h16.1v15.7l4,5.1l12.6-20.8h19.8L226.4,8.5L244.9,29
			h-19.4c0,0-13.2-18.3-14.4-20.5V48.8L211.1,48.8z"/>
		<path id="path24" inkscape:connector-curvature="0" d="M290.6-1.3c0.2,1.2,0.5,3.6,0.5,6.3c0,12.5-6.4,25.2-23.1,25.2
			c-17.9,0-26.2-14.2-26.2-27c0-15.9,10.1-25.8,27.7-25.8c7,0,13.4,1,18.8,3.2l-2.1,10.6c-4.3-1.4-8.8-2.2-14.3-2.2
			c-7.5,0-14.1,3.1-14.6,9.7L290.6-1.3L290.6-1.3z M257.1,9.6c0.4,4.1,3.2,10.2,10.1,10.2c7.3,0,9-6.5,9-10.2H257.1z"/>
		<path id="path26" inkscape:connector-curvature="0" d="M330.9,48.8V24.5h-0.2c-2.3,3.4-7.2,5.7-13.7,5.7
			c-12.4,0-23.3-9.9-23.2-26.9c0-15.7,9.8-25.9,22.1-25.9c6.7,0,13,2.9,16.2,8.5h0.3l0.6-7.3h14.3c-0.2,3.4-0.4,9.3-0.4,15.1v55.3
			L330.9,48.8L330.9,48.8z M330.9,0.9c0-1.2-0.1-2.5-0.3-3.5c-0.9-4.4-4.8-7.5-9.4-7.5c-6.7,0-11,5.4-11,13.8
			c0,8,3.7,14.4,11.1,14.4c5,0,8.5-3.4,9.4-7.6c0.2-0.9,0.2-2,0.2-2.9L330.9,0.9L330.9,0.9z"/>
	</g>
</g>
</svg>
