<!-- Generator: Adobe Illustrator 28.1.0, SVG Export Plug-In . SVG Version: 6.00 Build 0)  -->
<svg version="1.1"
	 id="svg3070" xmlns:cc="http://creativecommons.org/ns#" xmlns:dc="http://purl.org/dc/elements/1.1/" xmlns:rdf="http://www.w3.org/1999/02/22-rdf-syntax-ns#" xmlns:inkscape="http://www.inkscape.org/namespaces/inkscape" xmlns:sodipodi="http://sodipodi.sourceforge.net/DTD/sodipodi-0.dtd" xmlns:svg="http://www.w3.org/2000/svg"
	 xmlns="http://www.w3.org/2000/svg" xmlns:xlink="http://www.w3.org/1999/xlink" x="0px" y="0px" viewBox="0 0 291 79.46"
	 style="enable-background:new 0 0 291 79.46;" xml:space="preserve">
<sodipodi:namedview  bordercolor="#666666" borderopacity="1.0" fit-margin-bottom="0" fit-margin-left="0" fit-margin-right="0" fit-margin-top="0" id="base" inkscape:current-layer="layer1" inkscape:cx="142.93233" inkscape:cy="33.703355" inkscape:document-units="px" inkscape:pageopacity="0.0" inkscape:pageshadow="2" inkscape:window-height="750" inkscape:window-maximized="1" inkscape:window-width="1280" inkscape:window-x="-8" inkscape:window-y="-8" inkscape:zoom="2.8" pagecolor="#ffffff" showgrid="false">
	</sodipodi:namedview>
<g id="layer1" transform="translate(-200.55198,-393.96227)" inkscape:groupmode="layer" inkscape:label="Layer 1">
	<g id="g3019" transform="matrix(1.018827,0,0,-1.018827,170.5996,498.03288)">
		<path id="path16" inkscape:connector-curvature="0" d="M31.15,37.71h31.04V47.9h-19.8v38.87H31.15
			C31.15,86.77,31.15,37.71,31.15,37.71z"/>
		<path id="path18" inkscape:connector-curvature="0" d="M77.9,37.71V71.5H66.67V37.71H77.9z M72.28,76.12
			c3.92,0,6.36,2.6,6.36,5.84c-0.07,3.32-2.44,5.84-6.28,5.84c-3.84,0-6.36-2.52-6.36-5.84c0-3.25,2.44-5.84,6.21-5.84H72.28
			L72.28,76.12z"/>
		<path id="path20" inkscape:connector-curvature="0" d="M83.12,37.71h11.23v18.87c0,1.01,0.07,2.02,0.37,2.74
			c0.81,2.02,2.66,4.11,5.76,4.11c4.06,0,5.69-3.1,5.69-7.64V37.71h11.23v19.38c0,10.38-5.54,15.21-12.93,15.21
			c-6.06,0-8.72-3.39-10.2-5.69h0.07v4.9H83.12C83.26,68.33,83.12,37.71,83.12,37.71L83.12,37.71z"/>
		<path id="path22" inkscape:connector-curvature="0" d="M133.25,86.77h-11.23V37.71h11.23v10.96l2.81,3.53l8.79-14.49h13.82
			l-14.78,20.98l12.93,14.27H143.3c0,0-9.24-12.77-10.05-14.28L133.25,86.77L133.25,86.77z"/>
		<path id="path24" inkscape:connector-curvature="0" d="M188.71,51.8c0.15,0.87,0.37,2.53,0.37,4.42c0,8.74-4.43,17.6-16.11,17.6
			c-12.49,0-18.25-9.88-18.25-18.84c0-11.08,7.02-18,19.29-18c4.88,0,9.38,0.72,13.08,2.23l-1.48,7.42c-3.03-1-6.13-1.51-9.98-1.51
			c-5.25,0-9.83,2.15-10.2,6.74L188.71,51.8L188.71,51.8z M165.36,59.4c0.3,2.88,2.22,7.14,7.02,7.14c5.1,0,6.28-4.54,6.28-7.14
			H165.36z"/>
		<path id="path26" inkscape:connector-curvature="0" d="M216.8,86.77V69.79h-0.15c-1.63,2.38-5.03,3.96-9.53,3.96
			c-8.65,0-16.26-6.92-16.18-18.74c0-10.96,6.87-18.09,15.44-18.09c4.66,0,9.09,2.02,11.31,5.91h0.22l0.44-5.12h9.98
			c-0.15,2.38-0.3,6.49-0.3,10.52v38.54H216.8L216.8,86.77z M216.8,53.35c0-0.86-0.07-1.73-0.22-2.45c-0.66-3.1-3.33-5.26-6.58-5.26
			c-4.66,0-7.69,3.75-7.69,9.66c0,5.55,2.59,10.02,7.76,10.02c3.47,0,5.91-2.38,6.58-5.33c0.15-0.65,0.15-1.37,0.15-2.02
			L216.8,53.35L216.8,53.35z"/>
		<path d="M308.2,100.4h-63.38c-3.04,0-5.5-2.4-5.5-5.36V30.92c0-2.96,2.46-5.36,5.5-5.36h63.38c3.04,0,5.5,2.4,5.5,5.36v64.12
			C313.7,98,311.24,100.4,308.2,100.4z M261.87,37.75h-11.23v33.79h11.23V37.75z M256.26,76.16L256.26,76.16h-0.07
			c-3.77,0-6.21,2.6-6.21,5.84c0,3.32,2.51,5.84,6.35,5.84c3.84,0,6.21-2.52,6.28-5.84C262.61,78.75,260.17,76.16,256.26,76.16z
			 M302.38,37.75h-11.23v18.08c0,4.54-1.63,7.64-5.69,7.64c-3.1,0-4.95-2.09-5.76-4.11c-0.3-0.72-0.37-1.73-0.37-2.74V37.75h-11.23
			c0,0,0.15,30.62,0,33.79h11.23v-4.79c1.49,2.3,4.16,5.58,10.12,5.58c7.39,0,12.93-4.83,12.93-15.21V37.75z"/>
	</g>
</g>
</svg>
