<!-- Generator: Adobe Illustrator 28.1.0, SVG Export Plug-In . SVG Version: 6.00 Build 0)  -->
<svg version="1.1" id="Layer_1" xmlns="http://www.w3.org/2000/svg" xmlns:xlink="http://www.w3.org/1999/xlink" x="0px" y="0px"
	 viewBox="0 0 2279.41 810.68" style="enable-background:new 0 0 2279.41 810.68;" xml:space="preserve">
<g>
	<path d="M0,0v810.68v0h2279.41V0H0z M2037.9,625.45c-283.05,117.21-590.8,152.11-895,152.11c-303.18,0-615.27-32.62-896.79-152.11
		C162.29,590.03,30.06,510.3,30.06,405.33c0-105.22,132.47-184.72,216.04-220.12C527.64,65.72,839.47,33.11,1142.9,33.11
		c304.19,0,611.95,34.9,895,152.1c90.44,37.46,211.45,108.53,211.45,220.12C2249.35,516.66,2128.58,588,2037.9,625.45z"/>
	<path d="M1463.91,444.33c0,0-0.01-0.01-0.01-0.01v0.01H1463.91z"/>
	<path d="M1092.44,534.51L990.54,373.5l73.89-107.26c5.66-8.49,13.38-15.41,22.42-20.13H876.41c1.53,3.31,3.31,6.87,3.31,10.44
		c0,3.58-1.52,6.89-3.31,9.69l-61.9,92.73v-92.73c0-8.66,5.34-14.77,11.47-20.13H612.72c5.86,5.6,11.47,11.48,11.47,20.13V534.5
		c0,8.4-5.6,14.53-11.47,19.87h213.24c-6.11-5.34-11.47-11.47-11.47-19.87v-93.24v0l54.78,93.25c2.04,3.32,4.07,7.41,4.07,11.48
		c0,3.05-2.3,5.85-4.07,8.39h245.08C1105.18,549.54,1097.8,543.17,1092.44,534.51z"/>
	<path d="M1338.8,455.03V437.7h105.73c7.14,0,13.49,2.8,19.36,6.62v-95.79c-5.88,4.06-12.23,6.61-19.38,6.61h-105.73v-20.13h139.63
		c6.87,0,13.26,2.81,19.1,6.63v-95.54h-353.36c6.11,5.1,11.71,11.48,11.71,19.87v268.77c0,8.16-5.6,14.53-11.71,19.62h353.37V448.66
		c-5.86,3.55-12.24,6.37-19.1,6.37H1338.8z"/>
	<path d="M2032.01,540.63l-105.99-259.11c-2.54-6.11-4.57-12.74-4.57-19.61c0-5.6,2.28-10.7,4.57-15.8h-291.18
		c2.31,4.84,4.33,9.93,4.33,15.54c0,6.63-2.02,13.5-4.33,19.87l-96.05,259.11c-2.04,5.37-4.85,9.69-8.92,13.76H1710
		c-1.79-3.31-3.06-6.63-3.06-10.45c-0.01-1.73,0.25-3.45,0.77-5.1l15.55-46.11h78.19l0,0l16.82,43.58c0.77,2.04,1.04,4.07,1.04,6.37
		c0,4.07-1.04,7.9-2.56,11.71h224.96C2037.14,550.31,2034.06,546.25,2032.01,540.63z M1743.37,430.57l16.82-49.17l18.08,49.17
		H1743.37z"/>
	<path d="M536.79,246.11H318.46v0c5.86,5.36,11.21,11.21,11.21,19.87v268.53c0,8.4-5.34,14.53-11.21,19.87h218.33
		c-6.11-5.34-11.47-11.47-11.47-19.87V265.98C525.33,257.32,530.68,251.47,536.79,246.11z"/>
</g>
</svg>
