<!-- Generator: Adobe Illustrator 28.1.0, SVG Export Plug-In . SVG Version: 6.00 Build 0)  -->
<svg version="1.1" id="Layer_1" xmlns="http://www.w3.org/2000/svg" xmlns:xlink="http://www.w3.org/1999/xlink" x="0px" y="0px"
	 viewBox="0 0 72 72" style="enable-background:new 0 0 72 72;" xml:space="preserve">
<g>
	<polygon points="22.8,53 22.2,53 19.5,50.3 19.5,49.7 23.7,45.6 26.5,45.6 26.9,46 26.9,48.8 	"/>
	<polygon points="19.5,22.3 19.5,21.7 22.2,19 22.8,19 26.9,23.2 26.9,26 26.5,26.4 23.7,26.4 	"/>
	<path d="M43.4,44.2h-3.9l-0.3-0.3v-9.2c0-1.6-0.6-2.9-2.6-3c-1,0-2.2,0-3.4,0l-0.2,0.2v12l-0.3,0.3h-4l-0.3-0.3V28.1l0.3-0.3h8.9
		c3.5,0,6.3,2.8,6.3,6.3v9.9L43.4,44.2z"/>
	<polygon points="23.3,38.3 7.5,38.3 7.2,38 7.2,34 7.5,33.7 23.3,33.7 23.7,34 23.7,38 	"/>
	<polygon points="64.5,38.3 48.7,38.3 48.3,38 48.3,34 48.7,33.7 64.5,33.7 64.8,34 64.8,38 	"/>
	<polygon points="33.7,22.8 33.7,11 34.1,10.7 38,10.7 38.3,11 38.3,22.8 38,23.2 34.1,23.2 	"/>
	<polygon points="33.7,61 33.7,49.2 34.1,48.8 38,48.8 38.3,49.2 38.3,61 38,61.3 34.1,61.3 	"/>
</g>
</svg>
