<!-- Generator: Adobe Illustrator 28.1.0, SVG Export Plug-In . SVG Version: 6.00 Build 0)  -->
<svg version="1.1" id="Layer_1" xmlns="http://www.w3.org/2000/svg" xmlns:xlink="http://www.w3.org/1999/xlink" x="0px" y="0px"
	 viewBox="0 0 72 72" style="enable-background:new 0 0 72 72;" xml:space="preserve">
<g>
	<path d="M61.8,48.8C62.5,33,48.9,15.2,30.3,13l0-0.2c18.3,0,32.3,16.9,32.3,30.3c0,2.8-0.2,4.5-0.6,5.8L61.8,48.8z M60.7,50.8
		c-1.2,1.5-2.8,3-4.5,4.4c-3.3-19-17.2-35.6-27.1-40.4l-0.2,0.1c9.9,8.1,21.7,23.9,26.3,41c-2.3,1.7-4.9,3.2-7.6,4.3
		C38.2,49.6,29.5,29,26.7,15.9L26.4,16c0.1,12.7,9.1,34.2,20,44.7c-2.5,1-5.1,1.7-7.8,2.2c-10.5-4.2-18-17.5-18-31.2
		c0-8.9,2.7-14.5,3.2-15.6L23.6,16C23,17,19,22.5,19,32.1c0,15.5,7.6,27.3,17.7,31c-3.6,0.4-7.3,0.2-10.8-0.5l-0.1,0.2
		c1.1,0.4,4.8,1.9,10.4,1.9c12.7,0,21.2-7.9,24.7-13.9L60.7,50.8z"/>
	<path d="M34.9,7.2c-9.6,0-20.9,6.9-20.9,13.3c0,2.5,2.2,4.5,6.9,4.5c10.8,0,20.8-7.4,20.8-13.2C41.7,8.8,38.8,7.2,34.9,7.2z
		 M38.8,11.7c0,4.9-9.3,10.8-17.1,10.8c-3.4,0-5.3-1.4-5.3-3.6c0-4.9,9.4-10.8,16.7-10.8C37.9,8.1,38.8,10.5,38.8,11.7z"/>
	<path d="M10.2,23.4C10,23.9,8.9,26,8.9,28.2c0,4,4.1,7.8,11.5,7.8c14.4,0,31-10.6,31-20.4c0-4.4-4.2-6.8-7.1-7.3l-0.1,0.2
		c0.9,0.3,4.2,1.8,4.2,5.8c0,7.8-14.7,18.5-29.3,18.5c-5.6,0-9.1-2.8-9.1-6.8c0-1.3,0.3-2.1,0.3-2.4L10.2,23.4z"/>
	<path d="M57.4,16.2c0.4,0.3,2.8,2.3,2.8,6c0,12.7-20,25.3-37.6,25.3c-10.5,0-15.3-5.2-15.1-9.8h0.2c0.4,2.4,3.8,6.7,13,6.7
		c17.7,0,37.4-13,37.4-24.3c0-1.9-0.5-3.2-0.8-3.7L57.4,16.2z"/>
	<path d="M64.1,28.1c0.1,0.3,0.5,1.5,0.5,3.4c0,14.2-20.2,26.3-37.8,26.3c-9,0-13.8-4.4-14.8-6.2l0.2-0.1c2.5,2.2,7.4,3.9,13.2,3.9
		c15.5,0,38.7-11.8,38.5-27.2L64.1,28.1z"/>
</g>
</svg>
