<!-- Generator: Adobe Illustrator 28.1.0, SVG Export Plug-In . SVG Version: 6.00 Build 0)  -->
<svg version="1.1"
	 id="Layer_1" xmlns:cc="http://creativecommons.org/ns#" xmlns:dc="http://purl.org/dc/elements/1.1/" xmlns:rdf="http://www.w3.org/1999/02/22-rdf-syntax-ns#" xmlns:svg="http://www.w3.org/2000/svg"
	 xmlns="http://www.w3.org/2000/svg" xmlns:xlink="http://www.w3.org/1999/xlink" x="0px" y="0px" viewBox="0 0 187.09 59.04"
	 style="enable-background:new 0 0 187.09 59.04;" xml:space="preserve">
<path id="path7" d="M149.42,48.24c0-2.13,1.73-3.85,3.85-3.85c2.13,0,3.85,1.73,3.85,3.85c0,2.13-1.73,3.85-3.85,3.85
	C151.15,52.09,149.42,50.37,149.42,48.24L149.42,48.24L149.42,48.24L149.42,48.24z M153.28,52.65c2.44,0,4.41-1.98,4.41-4.41
	c0-2.44-1.98-4.41-4.41-4.41c-2.44,0-4.41,1.98-4.41,4.41C148.86,50.67,150.84,52.65,153.28,52.65L153.28,52.65L153.28,52.65
	L153.28,52.65z"/>
<path id="path9" d="M152.25,46.24h1.4l0,0c0.63,0,1.3,0.1,1.3,0.85c0,0.84-0.7,0.89-1.37,0.89l0,0h-1.33L152.25,46.24L152.25,46.24
	L152.25,46.24L152.25,46.24z M155.56,47.12c0-0.97-0.7-1.31-1.76-1.31l0,0h-2.13v4.92h0.58v-2.27h1.13l1.4,2.27h0.72l-1.5-2.27l0,0
	C154.86,48.42,155.56,48.06,155.56,47.12L155.56,47.12L155.56,47.12L155.56,47.12z"/>
<polygon id="polygon11" points="151.87,18.34 154.29,8.6 154.29,8.6 154.29,8.6 158.78,8.6 156.43,18.34 "/>
<polygon id="polygon13" points="143.75,27.14 147.26,8.6 151.75,8.6 146.03,34.53 146.03,52.09 139.02,52.09 139.02,34.53 
	133.32,8.6 133.32,8.6 133.32,8.6 140.54,8.6 "/>
<path id="path15" d="M171.93,39v4.76l0,0c0,3.06-1.31,2.83-2.41,2.83c-1.35,0-2.46,0-2.46-2.78l0,0l-0.05-6.79h-6.54v8.18l0,0
	c0,7.63,4.11,6.86,8.93,6.86c3.87,0,9.42,0.77,9.42-7.03l0,0v-8.45l0,0c0-2.39-1.25-4.15-3.21-6.11c0,0-2.19-1.86-5.91-5.58
	c-2.51-2.48-3.06-4.3-3.06-5.99l0,0v-3.57l0,0c0-3.04,1.3-2.8,2.39-2.8c1.33,0,2.48,0,2.48,2.78l0,0l0.03,5.46h6.55v-6.01l0,0
	c0-7.63-4.11-6.84-8.94-6.84c-3.86,0-9.4-0.78-9.4,7l0,0v6.4l0,0c0,2.37,1.71,4.93,5.77,8.77C165.53,30.09,171.93,34.27,171.93,39
	L171.93,39L171.93,39L171.93,39L171.93,39z"/>
<path id="path17" d="M84.12,39v4.76l0,0c0,3.06-1.3,2.83-2.39,2.83c-1.33,0-2.47,0-2.47-2.78l0,0l-0.02-6.79h-6.55v8.18l0,0
	c0,7.63,4.1,6.86,8.94,6.86c3.86,0,9.42,0.77,9.42-7.03l0,0v-8.45l0,0c0-2.39-1.26-4.15-3.21-6.11c0,0-2.18-1.86-5.92-5.58
	c-2.53-2.48-3.04-4.3-3.04-5.99l0,0v-3.57l0,0c0-3.04,1.3-2.8,2.39-2.8c1.33,0,2.47,0,2.47,2.78l0,0l0.03,5.46h6.55v-6.01l0,0
	c0-7.63-4.11-6.84-8.96-6.84c-3.86,0-9.4-0.78-9.4,7l0,0v6.4l0,0c0,2.37,1.71,4.93,5.79,8.77C77.76,30.09,84.12,34.27,84.12,39
	L84.12,39L84.12,39C84.12,39,84.12,39,84.12,39z"/>
<path id="path19" d="M56.73,13.07h1.5l0,0c2.6,0,2.3,2.99,2.3,6.03c0,0,0.29,5.94-2.3,5.94l0,0h-1.5V13.07L56.73,13.07L56.73,13.07z
	 M49.44,52.09h7.29V30.86h1.3l0,0c2.34,0,2.49,1.11,2.49,3.6l0,0v9.4l0,0c0,2.9,0.19,6.81,0.97,8.23l0,0h7.22l0,0
	c-0.8-1.42-0.72-5.33-0.72-8.23l0,0v-7.68l0,0c0-4.3,0.15-7.58-3.99-8.33l0,0l0,0l0,0c3.14-0.48,4.3-1.88,4.3-8.72
	c0-9.17-1.55-10.53-9.34-10.53l0,0h-9.52L49.44,52.09L49.44,52.09L49.44,52.09z"/>
<polygon id="polygon21" points="123.37,14.37 123.37,24.95 130.88,24.95 130.88,30.86 123.37,30.86 123.37,45.83 132.29,45.83 
	132.29,52.09 116.35,52.09 116.35,8.6 116.35,8.6 116.35,8.6 131.93,8.6 131.93,14.37 "/>
<polygon id="polygon23" points="37.68,14.37 37.68,24.95 45.19,24.95 45.19,30.86 37.68,30.86 37.68,45.83 46.59,45.83 46.59,52.09 
	30.65,52.09 30.65,8.6 30.65,8.6 30.65,8.6 46.27,8.6 46.27,14.37 "/>
<polygon id="polygon25" points="105.38,24.88 105.38,8.6 112.39,8.6 112.39,52.09 105.38,52.09 105.38,30.86 101.33,30.86 
	101.33,52.09 94.3,52.09 94.3,8.6 94.3,8.6 94.3,8.6 101.33,8.6 101.33,24.88 "/>
<polygon id="polygon27" points="20.53,24.88 20.53,8.6 27.54,8.6 27.54,52.09 20.53,52.09 20.53,30.86 16.48,30.86 16.48,52.09 
	9.48,52.09 9.48,8.6 9.48,8.6 9.48,8.6 16.48,8.6 16.48,24.88 "/>
</svg>
