<!-- Generator: Adobe Illustrator 28.1.0, SVG Export Plug-In . SVG Version: 6.00 Build 0)  -->
<svg version="1.1" id="Layer_1" xmlns="http://www.w3.org/2000/svg" xmlns:xlink="http://www.w3.org/1999/xlink" x="0px" y="0px"
	 viewBox="0 0 800 800" style="enable-background:new 0 0 800 800;" xml:space="preserve">
<path d="M472.59,94.85c-13.87-30.73-34.48-45.73-61.66-45.73H389.2c-27.17,0-47.79,14.99-61.66,45.73L220.54,353.84h-80.96
	c-24.18,0.19-43.85,19.68-44.04,44.04v0.56c0.19,24.18,19.86,43.85,44.04,44.04h43.48L80.92,689.29c-1.87,5.43-3,11.06-3,16.87
	c0,13.87,4.31,24.74,11.99,33.17c7.68,8.43,18.74,12.56,32.61,12.56c9.18-0.19,17.99-3,25.3-8.43c7.87-5.43,13.31-13.31,17.62-22.3
	l112.44-278.86h77.96c24.18-0.19,43.85-19.68,44.04-44.04v-1.12c-0.19-24.18-19.86-43.85-44.04-44.04h-41.6l85.83-213.83
	l233.88,581.7c4.31,9,9.74,16.87,17.62,22.3c7.31,5.43,16.3,8.25,25.3,8.43c13.87,0,24.74-4.12,32.61-12.56
	c7.87-8.43,11.99-19.3,11.99-33.17c0.19-5.62-0.75-11.43-3-16.68L472.59,94.85z"/>
</svg>
