<!-- Generator: Adobe Illustrator 28.1.0, SVG Export Plug-In . SVG Version: 6.00 Build 0)  -->
<svg version="1.1"
	 id="svg3536" xmlns:cc="http://creativecommons.org/ns#" xmlns:dc="http://purl.org/dc/elements/1.1/" xmlns:rdf="http://www.w3.org/1999/02/22-rdf-syntax-ns#" xmlns:svg="http://www.w3.org/2000/svg"
	 xmlns="http://www.w3.org/2000/svg" xmlns:xlink="http://www.w3.org/1999/xlink" x="0px" y="0px" viewBox="0 0 217.3 36.85"
	 style="enable-background:new 0 0 217.3 36.85;" xml:space="preserve">
<g id="layer1" transform="translate(-342.04262,-216.08648)">
	<g id="g30" transform="matrix(1.357057,0,0,-1.357057,462.80779,237.61268)">
		<path id="path32" d="M-17.8,3.17c0,1.5,0,3,0,4.49c-1.29,0.01-2.57,0.01-3.86,0c0,1.63-0.01,3.27,0.01,4.9
			c-1.7-0.01-3.41-0.01-5.11,0V7.67h-2.12c0-1.5,0-3,0-4.5h2.12v0h0c0.01-1.37,0-2.74,0-4.11h0c0-0.11,0-0.23,0-0.34
			c0-0.09,0-0.17,0-0.26h0c0-0.8,0-1.6,0.01-2.39c0.04-2.16,0.83-4.47,2.64-5.73c1.6-1.14,3.59-1.36,5.5-1.33
			c-1.57,1.64-2.52,4.03-2.89,5.95l-0.01,0.06l-0.01,0.06c-0.05,0.42-0.12,1.1-0.11,1.81c-0.01,0.15-0.02,0.3-0.03,0.45
			c-0.01,0.39-0.01,0.78-0.01,1.17c-0.01,1.56,0.01,3.11,0,4.66C-20.37,3.17-19.09,3.17-17.8,3.17"/>
	</g>
	<g id="g34" transform="matrix(1.357057,0,0,-1.357057,442.38884,224.05785)">
		<path id="path36" d="M-14.79,1.17c-0.01,1.5-0.01,3,0,4.5c-2.52,0.42-5.42,0.26-7.44-1.49c-1.81-1.62-2.16-4.21-2.1-6.51
			c-0.02,0-0.03,0-0.05,0l0,0h-2.16c0-1.5,0-3,0-4.5h1.86c0.12,0,0.24,0,0.36,0v0h0.01v-2.46h-0.01c0-3.68,0.01-7.37,0-11.05h2.37
			c0.94,0,1.88,0,2.81,0c0,3.74,0,7.47,0,11.21l0,0v2.3h3.46c0,1.5,0,3,0,4.5c0,0-3.39,0-3.48,0c0.05,1.01-0.07,2.22,0.76,2.97
			C-17.39,1.5-15.99,1.23-14.79,1.17"/>
	</g>
	<g id="g38" transform="matrix(1.357057,0,0,-1.357057,410.49516,260.535)">
		<path id="path40" d="M-10.09,6.55h2.3c0.44,0,0.87,0,1.31,0h1.46c-0.03,3.86,0.03,7.72-0.03,11.57c-0.04,2.26-0.9,4.78-3.06,5.84
			c-3.09,1.54-6.7,1.19-10,0.66c-0.01-1.64,0-3.28-0.01-4.92c2.12,0.46,4.43,0.94,6.53,0.15c0.98-0.34,1.34-1.36,1.49-2.29
			c-1.47,0.18-2.96,0.53-4.44,0.23c-1.75-0.22-3.49-1.08-4.48-2.58c-1.6-2.39-1.14-6.01,1.23-7.74c2.22-1.7,5.46-1.51,7.72,0.02
			C-10.07,7.26-10.08,6.79-10.09,6.55 M-10.3,10.45c-1.31-0.4-2.92-0.85-4.12,0.06c-1.1,0.78-0.96,2.64,0.23,3.26
			c1.22,0.64,2.64,0.42,3.93,0.16C-10.14,12.77-10.15,11.6-10.3,10.45"/>
	</g>
	<g id="g42" transform="matrix(1.357057,0,0,-1.357057,365.52242,219.10107)">
		<path id="path44" d="M-3.46,0.44c2.07-0.01,4.13,0,6.2,0c-3.03-4.07-5.99-8.19-9.03-12.25c2.71-4.05,5.38-8.13,8.11-12.17
			c-2.14-0.02-4.29,0.01-6.43-0.01c-2.39,3.62-4.78,7.24-7.16,10.87c-0.01-3.62-0.01-7.25,0-10.87c-1.85,0.01-3.69,0-5.54,0
			c0.01,8.14,0.01,16.28,0,24.42c1.85,0.01,3.69,0,5.54,0.01c0-3.84-0.01-7.68,0-11.53C-9.01-7.23-6.22-3.4-3.46,0.44"/>
	</g>
	<g id="g46" transform="matrix(1.357057,0,0,-1.357057,376.66196,230.07803)">
		<path id="path48" d="M-5.1,2.06c1.74,0.01,3.48,0,5.22,0.01c-0.01-1.15-0.01-2.3-0.03-3.44c0.84,1.9,2.67,3.14,4.7,3.47
			c0-1.7,0.02-3.41-0.02-5.12c-2.22-0.27-4.5-1.92-4.58-4.32c-0.06-2.85-0.01-5.7-0.02-8.55c-1.76,0-3.52,0-5.27,0
			C-5.1-9.9-5.1-3.92-5.1,2.06"/>
	</g>
	<g id="g50" transform="matrix(1.357057,0,0,-1.357057,533.95517,254.34561)">
		<path id="path52" d="M-28.28,5.64c-0.73-0.29-0.87-0.44-1.75-0.73c-0.87-0.29-1.89-0.29-2.77,0c-2.77,1.16-1.02,5.39-1.02,5.39
			c11.36,2.77,9.76,8.89,6.7,9.18c-1.89,0-8.74-0.29-11.95-8.16c-0.44-1.17-3.5-9.47,3.35-10.05c1.46,0,3.06,0.15,4.52,0.87
			c1.31,0.73,2.33,1.6,3.2,2.77C-27.26,6.22-28.28,5.64-28.28,5.64 M-29.89,17.29c0.87-0.29-1.31-4.66-1.31-4.66
			c-0.87-0.29-1.75-0.58-2.33-0.58C-33.24,12.63-31.63,18.17-29.89,17.29"/>
	</g>
	<g id="g54" transform="matrix(1.357057,0,0,-1.357057,578.93618,257.06393)">
		<path id="path56" d="M-34.91,6.04c-0.15,0.15-0.44,0.15-0.58,0.29c-0.87,0.58-0.15,2.19,0,3.06l2.62,9.32
			c0.15,0.58,1.17,3.64-2.91,3.06c-3.5-0.58-5.97-2.77-5.97-2.77c0.29,0.87,0.58,2.18,0,2.48c-0.73,0.29-4.95-1.02-5.97-1.89
			c-0.29,0-0.73-0.44-0.29-0.87c0.44-0.58,0.58-1.02,0.29-2.04c-0.58-1.75-2.33-7.87-2.77-9.03c-0.44-1.17-1.02-3.35,0-4.08
			c0.73-0.58,3.79,0.73,4.23,1.02c0.44,0.15,0.87,0.44,1.02,0.58c0.58,0.58-0.29,0.87,0.58,3.93c0,0.15,1.02,3.2,1.75,5.83
			c0.58,2.19,2.62,3.21,3.35,3.35c1.17,0.15,0.87-0.87,0.73-1.6c-1.02-3.21-2.19-8.01-2.62-9.18c-0.44-1.17-1.17-3.5,0-3.93
			c1.02-0.73,5.68,1.31,6.12,1.6C-34.48,5.75-34.48,6.04-34.91,6.04"/>
	</g>
	<g id="g58" transform="matrix(1.357057,0,0,-1.357057,548.78427,257.06393)">
		<path id="path60" d="M-30.47,6.04c-0.29,0.15-0.44,0.15-0.58,0.29c-0.87,0.58-0.29,2.19,0,3.06l2.77,9.32
			c0.15,1.02,0.73,2.33,0,2.77c-0.87,0.29-5.1-1.02-6.12-1.89c-0.15,0-0.58-0.44-0.15-0.87c0.44-0.58,0.44-1.02,0.15-2.04
			c-0.44-1.75-2.48-8.01-2.91-9.18c-0.44-1.17-1.02-3.5,0.29-3.93c1.02-0.73,5.39,1.17,5.97,1.6C-30.03,5.6-30.03,6.04-30.47,6.04"
			/>
	</g>
	<g id="g62" transform="matrix(1.357057,0,0,-1.357057,547.3013,227.15914)">
		<path id="path64" d="M-30.25,1.63c0.29-0.58,2.91,0.58,4.23,1.31c0.15,0.15,0.73,0.58,0.87,1.02c0.29,1.02,0.44,1.46,0.58,2.19
			c0.15,0.29,0.15,0.73-0.29,0.87c-0.58,0.15-4.08-0.29-4.95-1.75C-30.1,4.69-31.12,1.92-30.25,1.63"/>
	</g>
	<g id="g66" transform="matrix(1.357057,0,0,-1.357057,613.53693,244.45972)">
		<path id="path68" d="M-40.01,4.18c-0.44,1.6-3.06,2.04-4.08,1.17c-0.58-0.58-0.87-1.75-0.73-2.04c2.48,0.73,2.91-1.46,2.48-2.33
			c-0.87-1.31-1.17-1.75-2.33-1.75h-7.72c-0.15,0.15-0.29,0.29,0,0.58c0.44,0.58,8.01,10.93,8.3,11.36
			c0.15,0.29,0.58,1.02-0.44,1.02h-8.45c-0.87,0-1.31-0.29-2.04-1.02c-0.58-0.73-1.31-2.91-1.75-4.37c0,0,0-0.58,0.87,0.15
			c0.15,0.15,0.44,0.73,0.87,0.73h5.1c1.6,0-6.85-8.01-9.47-12.24c-0.44-0.73,0.29-0.73,0.73-0.73h11.07c2.77,0,2.33-0.44,3.79,1.6
			C-43.8-3.69-39.28,2.14-40.01,4.18"/>
	</g>
	<g id="g70" transform="matrix(1.357057,0,0,-1.357057,510.22907,252.86261)">
		<path id="path72" d="M-24.79,5.42l3.06,11.8c2.04,7.14,3.2,7.43,3.93,8.16h-4.81c-1.75,0-3.06-2.48-3.35-4.08l-2.04-7.43h-4.37
			c0,0,2.62,9.47,2.91,10.49c0.15,0.44,0.15,1.02-0.73,1.02c-0.15,0-9.32,0.29-12.24-0.73c-1.31-0.44-3.2-1.6-3.79-3.35
			c-0.44-1.02-1.02-2.91,0.29-6.41c0.15-0.44,0.44-0.73,0.58-0.87c0.44-0.29,4.22,0.29,4.08,0.29c0.29,0,0.44,0.15,0.15,0.73
			c-0.29,0.73-1.16,2.04-1.31,3.35c-0.58,5.1,3.06,5.83,3.64,5.97c0.87,0.15,1.6,0.15,2.48,0c0.29,0,1.02-0.15,1.17-0.44
			c0.29-0.58-0.15-1.6-0.44-2.77c-0.29-0.87-2.77-9.91-3.5-12.38c-0.44-1.89-2.33-5.97-4.22-6.56c-0.44-0.15-1.02-0.15-1.6,0
			c-0.58,0.15-1.17,0.44-1.6,0.73c-1.17,1.17-1.89,3.5-2.04,5.24c-0.15,2.19,0.29,3.79-0.15,3.79c-0.76,0-3.3-1-4.33-1.74
			c0,0,0,0,0,0c-0.42-0.3-0.44-0.36-0.44-0.36c-0.02-0.02-0.04-0.04-0.05-0.06c-0.27-0.46-0.25-2.09-0.13-3.08
			c0.44-2.19,1.6-4.66,3.35-5.83c4.66-3.2,12.82,2.62,13.7,3.21c1.31,1.17,2.19,2.77,2.48,3.93c0.44,1.46,1.17,3.93,1.17,3.93h4.37
			c0,0-1.75-6.56-2.19-8.16c-0.44-1.31-0.73-3.5,0.44-3.35c4.37,0,6.12,1.6,6.27,1.75c0.15,0.15,0.15,0.44,0,0.58
			C-24.35,2.94-25.37,3.96-24.79,5.42"/>
	</g>
</g>
</svg>
