<!-- Generator: Adobe Illustrator 28.1.0, SVG Export Plug-In . SVG Version: 6.00 Build 0)  -->
<svg version="1.1" id="Layer_1" xmlns="http://www.w3.org/2000/svg" xmlns:xlink="http://www.w3.org/1999/xlink" x="0px" y="0px"
	 viewBox="0 0 360 180" style="enable-background:new 0 0 360 180;" xml:space="preserve">
<g>
	<path d="M66.1,97.8l-2.4,6.7h-0.2c-0.4-1.5-1.1-3.8-2.3-6.6l-12.7-32H36v51h8.2V85.4c0-2,0-4.2-0.1-7C44,77,43.9,76,43.8,75.2H44
		c0.4,2,0.9,3.4,1.2,4.4l15.3,37.2h5.8l15.2-37.6c0.3-0.9,0.7-2.6,1-4h0.2c-0.2,3.8-0.3,7.1-0.4,9.2v32.3h8.8V65.8h-12L66.1,97.8z
		 M99.5,80.1h8.6v36.6h-8.6V80.1z M103.9,64.8c-1.5,0-2.6,0.5-3.6,1.5c-1,0.9-1.5,2.1-1.5,3.6c0,1.4,0.5,2.6,1.5,3.5
		s2.2,1.4,3.6,1.4c1.5,0,2.7-0.5,3.6-1.4c1-0.9,1.5-2.1,1.5-3.5s-0.5-2.6-1.5-3.6C106.6,65.2,105.4,64.8,103.9,64.8 M138.5,79.8
		c-1.6-0.3-3.2-0.5-4.8-0.5c-3.9,0-7.5,0.9-10.4,2.6c-3,1.7-5.3,4.1-6.9,7.1s-2.4,6.5-2.4,10.6c0,3.5,0.8,6.6,2.3,9.4s3.6,5,6.5,6.5
		c2.7,1.5,5.9,2.3,9.4,2.3c4.1,0,7.6-0.9,10.4-2.4l0.1-0.1v-7.9l-0.3,0.3c-1.3,0.9-2.7,1.7-4.2,2.2s-2.9,0.8-4.1,0.8
		c-3.4,0-6.1-1-8.1-3.2c-2-2.1-3-5-3-8.6c0-3.8,1-6.7,3-8.9c2-2.2,4.8-3.3,8.1-3.3c2.8,0,5.6,0.9,8.2,2.8l0.3,0.3v-8.4l-0.1-0.1
		C141.5,80.8,140.2,80.1,138.5,79.8 M166.8,79.6c-2.1,0-4.1,0.7-5.8,2c-1.5,1.2-2.4,2.9-3.3,4.9h-0.1v-6.4H149v36.6h8.6V98
		c0-3.2,0.7-5.8,2.1-7.7c1.5-2,3.3-3,5.5-3c0.8,0,1.6,0.2,2.6,0.3c0.9,0.3,1.6,0.5,2,0.9l0.3,0.3v-8.6l-0.2-0.1
		C169.5,79.8,168.3,79.6,166.8,79.6 M190.2,79.4c-6,0-10.8,1.8-14.2,5.3s-5.1,8.3-5.1,14.4c0,5.7,1.7,10.3,5,13.7
		c3.3,3.3,7.8,5,13.4,5c5.9,0,10.6-1.8,13.9-5.3c3.4-3.6,5.1-8.3,5.1-14.2c0-5.8-1.6-10.4-4.8-13.8C200.4,81,195.9,79.4,190.2,79.4
		 M197.1,107.5c-1.6,2-4.1,3-7.2,3c-3.1,0-5.6-1-7.4-3.2c-1.8-2-2.6-5-2.6-8.8c0-3.9,0.9-6.9,2.6-9c1.8-2.1,4.2-3.2,7.3-3.2
		c3,0,5.4,1,7.1,3s2.6,5,2.6,8.9C199.4,102.3,198.7,105.4,197.1,107.5 M227.5,95.3c-2.7-1.1-4.4-2-5.2-2.7c-0.7-0.7-1-1.6-1-2.8
		c0-1,0.4-2,1.4-2.6c1-0.7,2.1-1,3.8-1c1.5,0,3,0.3,4.4,0.7c1.5,0.4,2.8,1,3.8,1.8l0.3,0.2v-8l-0.2-0.1c-1-0.4-2.3-0.8-3.9-1.1
		c-1.6-0.3-3-0.4-4.2-0.4c-4.1,0-7.5,1-10.1,3.2c-2.6,2-3.9,4.8-3.9,8.1c0,1.7,0.3,3.2,0.9,4.5c0.6,1.3,1.5,2.4,2.6,3.4
		c1.2,0.9,2.9,2,5.3,3c2,0.9,3.5,1.5,4.4,2s1.5,1.1,2,1.6c0.3,0.5,0.5,1.2,0.5,2c0,2.4-1.8,3.6-5.6,3.6c-1.5,0-3-0.3-4.8-0.9
		s-3.4-1.5-4.8-2.4l-0.3-0.3v8.4l0.2,0.1c1.3,0.6,2.8,1,4.6,1.5c1.8,0.3,3.5,0.6,4.9,0.6c4.4,0,8.1-1,10.6-3.2c2.6-2.1,4-4.8,4-8.3
		c0-2.4-0.7-4.6-2.1-6.3C233.3,98.3,230.9,96.8,227.5,95.3 M260,79.4c-6,0-10.8,1.8-14.2,5.3s-5.1,8.3-5.1,14.4
		c0,5.7,1.7,10.3,5,13.7c3.3,3.3,7.8,5,13.4,5c5.9,0,10.6-1.8,13.9-5.3c3.4-3.6,5.1-8.3,5.1-14.2c0-5.8-1.6-10.4-4.8-13.8
		C270.2,81,265.6,79.4,260,79.4 M266.8,107.5c-1.6,2-4.1,3-7.2,3c-3.2,0-5.6-1-7.4-3.2c-1.8-2-2.6-5-2.6-8.8c0-3.9,0.9-6.9,2.6-9
		c1.8-2.1,4.2-3.2,7.3-3.2c3,0,5.4,1,7.1,3s2.6,5,2.6,8.9C269.3,102.3,268.4,105.4,266.8,107.5 M324,87.2v-7.1h-8.6V69.3l-0.3,0.1
		l-8.2,2.4l-0.2,0.1v8.3h-12.9v-4.6c0-2.1,0.5-3.8,1.5-4.8c0.9-1.1,2.3-1.6,4-1.6c1.2,0,2.4,0.3,3.8,0.9l0.3,0.2v-7.4l-0.2-0.1
		c-1.2-0.4-2.8-0.7-4.8-0.7c-2.6,0-4.8,0.6-6.9,1.6c-2,1.1-3.6,2.6-4.7,4.7c-1.1,2-1.7,4.2-1.7,6.8v5.1h-6v7h6v29.6h8.6V87.2h12.9
		v18.8c0,7.7,3.6,11.6,10.9,11.6c1.2,0,2.4-0.2,3.6-0.4c1.3-0.3,2.2-0.6,2.7-0.9l0.1-0.1v-7.1l-0.3,0.3c-0.5,0.3-1,0.6-1.8,0.8
		c-0.7,0.2-1.3,0.3-1.7,0.3c-1.7,0-2.9-0.4-3.8-1.4c-0.8-0.9-1.2-2.4-1.2-4.7V87.2H324L324,87.2z"/>
</g>
</svg>
