<!-- Generator: Adobe Illustrator 28.1.0, SVG Export Plug-In . SVG Version: 6.00 Build 0)  -->
<svg version="1.1" id="Layer_1" xmlns="http://www.w3.org/2000/svg" xmlns:xlink="http://www.w3.org/1999/xlink" x="0px" y="0px"
	 viewBox="0 0 2500 534" style="enable-background:new 0 0 2500 534;" xml:space="preserve">
<path d="M882.6,307.6l-14.9,42.2h-1.2c-2.5-9.5-7-24-14.5-41.4l-79.9-200.8h-78.2v320h51.7V230.2c0-12.4,0-26.5-0.4-43.9
	c-0.4-8.7-1.2-15.3-1.7-20.3h1.2c2.5,12.4,5.4,21.5,7.5,27.3l96,233.5h36.4l95.2-235.5c2.1-5.4,4.1-16.1,6.2-25.3h1.2
	c-1.2,23.6-2.1,44.7-2.5,57.5v202.8h55.1V106.8h-75.3L882.6,307.6z M1092.1,197h53.8v229.3h-53.8V197z M1119.4,100.2
	c-9.1,0-16.6,3.3-22.8,9.1c-6.2,5.8-9.5,13.2-9.5,22.4c0,8.7,3.3,16.1,9.5,21.9c6.2,5.8,13.7,8.7,22.8,8.7s17-3.3,22.8-8.7
	c6.2-5.8,9.5-13.2,9.5-21.9s-3.3-16.1-9.5-22.4C1136.8,103.5,1128.9,100.2,1119.4,100.2 M1336.7,195c-9.9-2.1-20.3-3.3-30.2-3.3
	c-24.4,0-46.8,5.4-65.4,16.1c-18.6,10.8-33.5,25.7-43.1,44.3c-9.9,19-14.9,41-14.9,66.2c0,21.9,5,41.4,14.5,59.2
	c9.5,17.4,22.8,31.5,40.6,41c17,9.5,36.8,14.5,59.2,14.5c25.7,0,47.6-5.4,65-15.3l0.4-0.4v-49.7l-2.1,1.7
	c-7.9,5.8-17,10.8-26.1,13.7c-9.5,3.3-18.2,5-25.7,5c-21.5,0-38.5-6.2-50.5-19.9c-12.4-13.2-18.6-31.5-18.6-54.2
	c0-23.6,6.2-42.2,19-55.9c12.8-13.7,29.8-20.7,50.5-20.7c17.4,0,35.2,5.8,51.3,17.4l2.1,1.7v-52.6l-0.4-0.4
	C1355.4,200.4,1347.5,197,1336.7,195 M1514.3,193.3c-13.2,0-25.7,4.1-36.4,12.8c-9.1,7.5-15.3,18.2-20.7,31h-0.4V197H1403v229.3
	h53.8V309.2c0-19.9,4.1-36.4,13.2-48.4c9.1-12.4,20.7-18.6,34.8-18.6c5,0,9.9,1.2,16.1,2.1c5.8,1.7,9.9,3.3,12.8,5.4l2.1,1.7v-53.8
	l-1.2-0.4C1530.9,194.6,1523.4,193.3,1514.3,193.3 M1660.8,192.1c-37.7,0-67.9,11.2-89,33.1c-21.5,21.9-31.9,52.2-31.9,90.2
	c0,35.6,10.8,64.6,31.5,85.7c20.7,20.7,48.8,31.5,84,31.5c36.8,0,66.2-11.2,87.3-33.5c21.5-22.4,31.9-52.2,31.9-89
	c0-36.4-9.9-65.4-30.2-86.5C1725,202.4,1696.4,192.1,1660.8,192.1 M1703.9,368.4c-9.9,12.8-25.7,19-45.1,19
	c-19.5,0-35.2-6.2-46.4-19.9c-11.2-12.8-16.6-31.5-16.6-55.1c0-24.4,5.8-43.1,16.6-56.3c11.2-13.2,26.5-19.9,45.9-19.9
	c19,0,33.9,6.2,44.7,19s16.6,31.5,16.6,55.9C1718.8,336.1,1714.2,355.6,1703.9,368.4 M1894.7,292.3c-17-7-27.7-12.4-32.7-17
	c-4.1-4.1-6.2-9.9-6.2-17.4c0-6.2,2.5-12.4,8.7-16.6s13.2-6.2,23.6-6.2c9.1,0,18.6,1.7,27.7,4.1c9.1,2.5,17.4,6.2,24,11.2l2.1,1.7
	v-50.5l-1.2-0.4c-6.2-2.5-14.5-5-24.4-7c-9.9-1.7-19-2.5-26.5-2.5c-25.7,0-46.8,6.2-63.3,19.9c-16.6,12.8-24.4,30.2-24.4,50.5
	c0,10.8,1.7,20.3,5.4,28.1c3.7,7.9,9.1,15.3,16.6,21.5c7.5,5.8,18.2,12.4,33.1,18.6c12.4,5.4,21.9,9.5,27.7,12.8s9.5,7,12.4,9.9
	c2.1,3.3,3.3,7.5,3.3,12.8c0,15.3-11.6,22.8-35.2,22.8c-9.1,0-18.6-1.7-29.8-5.4c-11.2-3.7-21.5-9.1-30.2-15.3l-2.1-1.7v52.6
	l1.2,0.4c7.9,3.7,17.4,6.2,29,9.1c11.6,2.1,21.9,3.7,31,3.7c27.7,0,50.5-6.2,66.6-19.9c16.6-13.2,25.3-30.2,25.3-52.2
	c0-15.3-4.1-29-13.2-39.3C1931.2,310.9,1916.3,300.5,1894.7,292.3 M2098.4,192.1c-37.7,0-67.9,11.2-89,33.1
	c-21.1,21.9-31.9,52.2-31.9,90.2c0,35.6,10.8,64.6,31.5,85.7c20.7,20.7,48.8,31.5,84,31.5c36.8,0,66.2-11.2,87.3-33.5
	c21.5-22.4,31.9-52.2,31.9-89c0-36.4-9.9-65.4-30.2-86.5C2162.6,202.4,2134,192.1,2098.4,192.1 M2141,368.4
	c-9.9,12.8-25.7,19-45.1,19c-19.9,0-35.2-6.2-46.4-19.9c-11.2-12.8-16.6-31.5-16.6-55.1c0-24.4,5.8-43.1,16.6-56.3
	c11.2-13.2,26.5-19.9,45.9-19.9c18.6,0,33.9,6.2,44.7,19s16.6,31.5,16.6,55.9C2156.8,336.1,2151.4,355.6,2141,368.4 M2499.9,241.3
	V197h-54.2v-67.9l-1.7,0.4l-51.3,15.3l-1.2,0.4V197h-81.1v-29c0-13.2,3.3-23.6,9.1-30.2s14.5-9.9,25.3-9.9c7.5,0,15.3,1.7,24,5.4
	l2.1,1.2V87.8l-1.2-0.4c-7.5-2.5-17.4-4.1-30.2-4.1c-16.1,0-30.2,3.7-43.1,9.9c-12.8,7-22.4,16.6-29.4,29.4
	c-7,12.4-10.8,26.5-10.8,42.6V197h-37.7v43.9h37.7v185.5h54.2v-185h81.1v118c0,48.4,22.8,72.9,68.3,72.9c7.5,0,15.3-1.2,22.8-2.5
	c7.9-1.7,13.7-3.7,17-5.4l0.4-0.4v-44.3l-2.1,1.7c-3.3,2.1-6.2,3.7-11.2,5c-4.1,1.2-7.9,1.7-10.8,1.7c-10.8,0-18.2-2.5-23.6-8.7
	c-5-5.8-7.5-15.3-7.5-29.4V241.3H2499.9L2499.9,241.3z"/>
<path d="M0.1,0h253.8v253.8H0.1V0z"/>
<path d="M280.3,0h253.8v253.8H280.3V0z"/>
<path d="M0.1,280.2h253.8V534H0.1V280.2z"/>
<path d="M280.3,280.2h253.8V534H280.3V280.2z"/>
</svg>
