<!-- Generator: Adobe Illustrator 28.1.0, SVG Export Plug-In . SVG Version: 6.00 Build 0)  -->
<svg version="1.1"
	 id="svg2" xmlns:svg="http://www.w3.org/2000/svg" xmlns:sodipodi="http://sodipodi.sourceforge.net/DTD/sodipodi-0.dtd" xmlns:inkscape="http://www.inkscape.org/namespaces/inkscape" xmlns:cc="http://creativecommons.org/ns#" xmlns:dc="http://purl.org/dc/elements/1.1/" xmlns:rdf="http://www.w3.org/1999/02/22-rdf-syntax-ns#"
	 xmlns="http://www.w3.org/2000/svg" xmlns:xlink="http://www.w3.org/1999/xlink" x="0px" y="0px" viewBox="0 0 360 180"
	 style="enable-background:new 0 0 360 180;" xml:space="preserve">
<g>
	
		<sodipodi:namedview  bordercolor="#666666" borderopacity="1.0" fit-margin-bottom="5" fit-margin-left="10" fit-margin-right="10" fit-margin-top="5" id="base" inkscape:current-layer="layer1" inkscape:cx="172.36641" inkscape:cy="217.38017" inkscape:document-units="px" inkscape:pageopacity="0.0" inkscape:pageshadow="2" inkscape:window-height="1017" inkscape:window-maximized="1" inkscape:window-width="1920" inkscape:window-x="1016" inkscape:window-y="-8" inkscape:zoom="1.4" pagecolor="#ffffff" showgrid="false" units="px">
		</sodipodi:namedview>
	<g id="layer1" transform="translate(-137.8498,-390.54123)" inkscape:groupmode="layer" inkscape:label="Layer 1">
		<g id="g23944" transform="matrix(1.5421564,0,0,1.5421564,148.7686,-598.51789)">
			<g id="g13605" transform="matrix(0,2.7249422,2.7249422,0,129.07155,656.47605)">
				<path id="path13607" inkscape:connector-curvature="0" d="M11.8-12.7c0-1.2,0.6-2.6,1.7-3.5l0,0l0,0H12v-3h10.7v3h-6.1
					c-1.1,0-2.3,0.9-2.3,2.4c0,1.2,0.8,2.5,2.3,2.5h6.1v3h-6.7C13.6-8.3,11.8-10.1,11.8-12.7"/>
			</g>
			<g id="g13609" transform="matrix(0,2.7249422,2.7249422,0,247.76404,657.32296)">
				<path id="path13611" inkscape:connector-curvature="0" d="M11.7-30.9l7.3-2.7l-7.3-2.7v-3.4l10.7,4.4v3.2l-10.7,4.4V-30.9z"/>
			</g>
			<g id="g13613" transform="matrix(0,2.7249422,2.7249422,0,57.56743,672.48808)">
				<path id="path13615" inkscape:connector-curvature="0" d="M9.4-1.7C8.7-1.2,8.3-0.4,8.3,0.6c0,1.1,0.6,1.9,1.5,2.3l2.1-5.2
					C10.8-2.4,10-2.2,9.4-1.7 M13.6,4c0.9-1.2,1.1-2,1.1-3.1c0-1-0.3-1.8-0.9-2.4l-3.1,7.5c-1.2-0.2-2.2-0.6-3-1.3
					c-1.2-1-1.8-2.5-1.8-4.2c0-3.2,2.4-5.7,5.6-5.7c3.2,0,5.6,2.5,5.6,6c0,2-0.9,4-2.1,5L13.6,4z"/>
			</g>
			<g id="g13617" transform="matrix(0,2.7249422,2.7249422,0,39.971116,694.96858)">
				<path id="path13619" inkscape:connector-curvature="0" d="M5.9,1v-6.7H-5.3v-3h14V1H5.9z"/>
			</g>
			<g id="g13621" transform="matrix(0,2.7249422,2.7249422,0,288.37412,668.31919)">
				<path id="path13623" inkscape:connector-curvature="0" d="M10-37.1c0-1.6,1.3-2.8,3-2.8c1.7,0,3,1.3,3,2.9c0,1.6-1.3,2.8-3,2.8
					C11.3-34.2,10-35.5,10-37.1 M18.6-37.1c0-3.2-2.4-5.8-5.6-5.8c-3.1,0-5.6,2.5-5.6,5.8c0,3.2,2.4,5.8,5.6,5.8
					C16.1-31.3,18.6-33.9,18.6-37.1"/>
			</g>
			<g id="g13625" transform="matrix(0,2.7249422,2.7249422,0,181.94605,668.31919)">
				<path id="path13627" inkscape:connector-curvature="0" d="M10-20.8c0-1.6,1.3-2.8,3-2.8c1.7,0,3,1.3,3,2.9c0,1.6-1.3,2.8-3,2.8
					C11.3-17.9,10-19.2,10-20.8 M18.6-20.8c0-3.2-2.4-5.8-5.6-5.8c-3.1,0-5.6,2.5-5.6,5.8c0,3.2,2.4,5.8,5.6,5.8
					C16.1-15,18.6-17.5,18.6-20.8"/>
			</g>
		</g>
	</g>
</g>
</svg>
