<!-- Generator: Adobe Illustrator 28.1.0, SVG Export Plug-In . SVG Version: 6.00 Build 0)  -->
<svg version="1.1" id="Layer_1" xmlns="http://www.w3.org/2000/svg" xmlns:xlink="http://www.w3.org/1999/xlink" x="0px" y="0px"
	 viewBox="0 0 360 180" style="enable-background:new 0 0 360 180;" xml:space="preserve">
<g>
	<path d="M57.2,52.1v62h34.4V128H36V52L57.2,52.1L57.2,52.1z M140.4,97.2l-9.9-27.6l-9.9,27.6H140.4z M143.9,52.1l28.8,75.8h-22.1
		l-6.3-17.9h-27.8l-6.3,17.9H92.5L121,52.1H143.9z M196.3,114h9.5c5.7,0,13.2-1,18.1-7.5c4.9-6.5,5-14.2,5-17.2c0-4-0.5-12-6.2-17.7
		c-5.3-5.1-12.2-5.5-17.3-5.5h-9.1V114z M175.1,52.1h31.1c9,0,22.6,0.9,33.1,9.8c8.5,7.2,12.4,18.9,12.4,28
		c0,6.6-2.1,20.2-13.8,29.4c-9.3,7.3-19.7,8.6-29.5,8.6h-33.3V52.1L175.1,52.1z M291.6,97.2l-9.9-27.6l-9.9,27.6H291.6z M295.2,52.1
		l28.8,75.8h-22.1l-6.3-17.9h-27.8l-6.4,17.9h-17.7l28.6-75.8H295.2L295.2,52.1z"/>
</g>
</svg>
