<svg xmlns="http://www.w3.org/2000/svg" xml:space="preserve" viewBox="0 0 88.2 35"><path d="M48 34h2c6-.3 10.2-5 10.2-10.6 0-1.9-.4-3.8-1.3-5.3H48zM37 18h10v16H37zm21.3-1c-1-1.4-2.4-2.5-3.9-3.3 1.8-1.3 3-3.4 3-5.7 0-3.9-3.1-7-7-7H48v16zM37 1h10v16H37zm38 33h2c6-.3 10.2-5 10.2-10.6 0-1.9-.4-3.8-1.3-5.3H75zM64 18h10v16H64zm21.3-1c-1-1.4-2.4-2.5-3.9-3.3 1.8-1.3 3-3.4 3-5.7 0-3.9-3.1-7-7-7H75v16zM64 1h10v16H64zM6.7 18 1 34h8.3l2.4-7H17v-9zM17 1h-4.3L7 17h10zm1 26h5.3l2.4 7H34l-5.7-16H18zm10-10L22.3 1H18v16z"/></svg>