<svg xmlns="http://www.w3.org/2000/svg" xml:space="preserve" viewBox="0 0 360 180"><path d="M302.1 123.5c11.9 0 21.9-4.8 21.9-16.8 0-6.7-5-11.5-12.6-13.2-8.1-2-18.2-1.8-18.2-7 .5-3.3 3.6-4.3 8.5-4.3 7.4 0 7.7 4.1 8.1 6.5h12.1c-.9-9.4-8.5-15.9-20.8-15.9-12.8 0-20.2 7-20.2 15.7 0 5.2 2.6 9.6 7 11.9 3 1.6 7.4 2.7 12.6 3.6 5.4.4 10 .9 10.5 4.8 0 2.6-2.7 5.8-8.3 5.8-8.3 0-10.1-4.8-10.1-7.9h-12.8c.3 10 8.6 16.8 22.3 16.8M249.4 112c-7.7 0-14.2-6.5-14.2-13.9 0-7.7 6.5-14.2 14.2-14.2 7.4 0 13.6 6.5 13.6 14.2.1 7.4-6.2 13.9-13.6 13.9m13.7-38.6V77c-4.1-2.9-8.7-4.4-14.3-4.4-13.9 0-25.6 11.3-25.6 25.4 0 13.9 11.7 25.4 25.6 25.4 5.6 0 10.2-1.6 14.3-4.4v3.1h12.4V73.2h-12.4zm-70 38.6c-7.4 0-13.9-6.5-13.9-13.9 0-7.7 6.5-14.2 13.9-14.2 7.6 0 14.1 6.5 14.1 14.2 0 7.4-6.5 13.9-14.1 13.9m14.1-55.4V77c-4.3-2.9-8.9-4.4-14.3-4.4-14.2 0-25.4 11.3-25.4 25.4 0 13.9 11.3 25.4 25.4 25.4 5.4 0 10.2-1.6 14.3-4.4v3.1h12.1V56.5zm-56.9 0h12.2v12.1h-12.2zm0 16.8h12.2v48.9h-12.2zM118.2 112c-8.1 0-14.6-6.5-14.6-13.9 0-7.7 6.5-14.2 14.6-14.2 7.4 0 13.9 6.5 13.9 14.2 0 7.4-6.5 13.9-13.9 13.9m13.9-55.4V77c-4.3-2.9-9.1-4.4-14.6-4.4C103.6 72.7 92 83.9 92 98c0 13.9 11.7 25.4 25.6 25.4 5.4 0 10.3-1.6 14.6-4.4v3.1h12.4V56.5zc0-.1 0 0 0 0M61.6 112c-7.4 0-13.9-6.5-13.9-13.9 0-7.7 6.5-14.2 13.9-14.2 8.1 0 14.6 6.5 14.6 14.2 0 7.4-6.6 13.9-14.6 13.9m14.6-38.6V77c-4.3-2.9-9.4-4.4-14.8-4.4C47.5 72.7 36 83.9 36 98c0 13.9 11.5 25.4 25.4 25.4 5.6 0 10.5-1.6 14.8-4.4v3.1h11.9V73.2H76.2z"/></svg>