<svg xmlns="http://www.w3.org/2000/svg" xml:space="preserve" viewBox="0 0 834.52 581.2"><path d="M414.74 487.39a38.34 38.34 0 0 1 38.46-38.46c21.33 0 38.45 17.12 38.45 38.46 0 21.33-17.11 38.46-38.45 38.46-21.17.07-38.39-17.04-38.46-38.21zm156.45 0a38.34 38.34 0 0 1 38.46-38.46c21.33 0 38.45 17.12 38.45 38.46 0 21.33-17.12 38.46-38.45 38.46-21.17.07-38.39-17.04-38.46-38.21zm-362.67 0c-.07-21.17 17.03-38.39 38.2-38.46h.25c21.33 0 38.45 17.12 38.45 38.46 0 21.33-17.12 38.46-38.45 38.46-21.17.07-38.39-17.03-38.46-38.2.01-.09.01-.17.01-.26m-156.45 0c0-21.33 17.11-38.46 38.45-38.46 21.17-.07 38.39 17.03 38.46 38.2v.25c.07 21.17-17.03 38.39-38.2 38.46h-.25c-21.17.07-38.38-17.04-38.45-38.21-.01-.07-.01-.15-.01-.24m316.31-67.95h-33.45v134.59h33.45zM128.71 554.03h33.45V419.44h-33.45v10.8c-11.33-7.9-25.02-12.38-39.77-12.38-38.46 0-69.54 31.07-69.54 69.53 0 38.72 31.08 69.53 69.54 69.53 14.74 0 28.44-4.48 39.77-12.38zm519.12 0h33.45V419.44h-33.45v10.8c-11.33-7.9-25.02-12.38-39.77-12.38-38.46 0-69.53 31.07-69.53 69.53 0 38.72 31.07 69.53 69.53 69.53 14.74 0 28.44-4.48 39.77-12.38zm45.83-43.73c1.05 27.13 24.23 46.36 62.95 46.36 31.6 0 57.68-13.7 57.68-43.98 0-21.07-11.85-33.45-39.24-38.72l-21.33-4.21c-13.7-2.63-23.18-5.27-23.18-13.43 0-8.95 9.22-12.9 20.81-12.9 16.86 0 23.7 8.43 24.23 18.43h33.72c-1.84-26.34-22.92-43.98-56.89-43.98-35.03 0-55.84 19.22-55.84 44.24 0 30.55 24.76 35.55 46.09 39.51l17.65 3.16c12.64 2.37 18.17 6.06 18.17 13.43 0 6.58-6.32 13.16-21.33 13.16-21.86 0-28.97-11.32-29.24-21.07zm-408.5-136.68v56.63c-11.33-7.9-25.02-12.38-39.77-12.38-38.46 0-69.54 31.07-69.54 69.53 0 38.72 31.08 69.53 69.54 69.53 14.74 0 28.44-4.48 39.77-12.38v9.48h33.45V373.62zm206.22 0v56.63c-11.33-7.9-25.02-12.38-39.77-12.38-38.46 0-69.53 31.07-69.53 69.53 0 38.72 31.07 69.53 69.53 69.53 14.74 0 28.44-4.48 39.77-12.38v9.48h33.45V373.62zm-385.06-39.77 22.65 39.77h156.18l-61.9-106.93zm262.06 73.21v-33.45h123L360.22 146.59l-117.2 67.16 91.92 159.87v33.45h33.44zm172.78-33.44h156.45L495.33 23.59 378.4 91.01z"/></svg>