<svg xmlns="http://www.w3.org/2000/svg" xml:space="preserve" viewBox="0 0 72 72"><path d="M60.4 42.1c-.4.7-1 1.7-1.6 2.3H12.9c-.4-.4-1.2-1.5-1.5-2.3zM57 46.7H14.8c.7.8 1.4 1.5 2.2 2.1h37.6c1-.6 1.9-1.3 2.4-2.1M51.8 51H40.2c-.3 1.8-.3 3.5-.3 4.8 3.4-.3 7.8-1.8 11.9-4.8m12.9-23.8c-5.2.3-12.8 3.8-17.7 9.6-.9 1-1.7 2.1-2.3 3.2h16.9c2.3-4.6 3.5-9.1 3.1-12.8M31.9 55.7c.1-1.2.1-2.9-.2-4.8L20 51c4.2 3 8.6 4.5 11.9 4.7m4 .4c1.2-1.3 2.5-3 3.6-5.1h-7.3c1.3 2.1 2.4 3.8 3.7 5.1M27.3 40c-.6-1.1-1.5-2.1-2.3-3.2-5-5.8-12.6-9.3-17.7-9.6-.4 3.7.8 8.2 3.1 12.8zm16 0c.1-1.3.2-2.6.2-4.1 0-8-3.6-16.3-7.6-20-4 3.7-7.5 12-7.5 20 0 1.5 0 2.8.2 4.1z"/></svg>