<svg xmlns="http://www.w3.org/2000/svg" xml:space="preserve" viewBox="0 0 360 180"><path d="M75.6 77.3c-4.1-2.9-9.1-4.5-14.4-4.5C47.3 72.8 36 84.1 36 98c0 14 11.3 25.2 25.2 25.2 5.3 0 10.3-1.6 14.4-4.5v3.4h12.1V73.4H75.6zm.1 20.7c0 7.7-6.2 13.9-13.8 13.9h-.1c-7.7 0-13.9-6.2-13.9-13.8V98c0-7.7 6.2-13.9 13.9-13.9 7.6 0 13.9 6.2 13.9 13.9 0-.1 0 0 0 0M207 77.3c-4.1-2.9-9.1-4.5-14.4-4.5-13.9 0-25.2 11.3-25.2 25.2 0 14 11.3 25.2 25.2 25.2 5.3 0 10.3-1.6 14.4-4.5v3.4h12.1V56.8H207zm-13.8 34.6c-7.7 0-13.9-6.2-13.9-13.8V98c0-7.7 6.2-13.9 13.9-13.9s13.9 6.2 13.9 13.9-6.2 13.9-13.9 13.9m70.5-34.6c-4.1-2.9-9.1-4.5-14.4-4.5-13.9 0-25.2 11.3-25.2 25.2 0 14 11.3 25.2 25.2 25.2 5.3 0 10.3-1.6 14.4-4.5v3.4h12.1V73.4h-12.1zm-13.8 34.6c-7.7 0-13.9-6.2-13.9-13.8V98c0-7.7 6.2-13.9 13.9-13.9s13.9 6.2 13.9 13.9-6.2 13.9-13.9 13.9m59.9-18.7-7.7-1.5c-5-1-8.4-1.9-8.4-4.9 0-3.2 3.3-4.7 7.5-4.7 6.1 0 8.6 3.1 8.8 6.7h12.2c-.7-9.5-8.3-15.9-20.6-15.9-12.7 0-20.2 7-20.2 16 0 11.1 9 12.9 16.7 14.3l6.4 1.1c4.6.9 6.6 2.2 6.6 4.9 0 2.4-2.3 4.8-7.7 4.8-7.9 0-10.5-4.1-10.6-7.6h-12.4c.4 9.8 8.8 16.8 22.8 16.8 11.5 0 20.9-5 20.9-15.9-.1-7.8-4.4-12.2-14.3-14.1M132.3 77.3c-4.1-2.9-9.1-4.5-14.4-4.5-13.9 0-25.2 11.3-25.2 25.2 0 14 11.3 25.2 25.2 25.2 5.3 0 10.3-1.6 14.4-4.5v3.4h12.1V56.8h-12.1zm-13.8 34.6c-7.7 0-13.9-6.2-13.9-13.8V98c0-7.7 6.2-13.9 13.8-13.9h.1c7.7 0 13.9 6.2 13.9 13.9s-6.2 13.9-13.9 13.9m31.8-55.1v12.1h12.1V56.8zm0 16.6h12.1v48.8h-12.1z"/></svg>