<svg xmlns="http://www.w3.org/2000/svg" xml:space="preserve" viewBox="0 0 2500 780"><path d="M1317.6 196c0 28.1-22.7 50.7-50.8 50.7s-50.7-22.6-50.7-50.7 21.9-50.7 50.7-50.7c28.9.7 50.8 23.4 50.8 50.7m-209.3 102.3v12.5s-24.2-31.2-75.7-31.2c-85.1 0-151.5 64.8-151.5 154.6 0 89 65.6 154.6 151.5 154.6 52.3 0 75.7-32 75.7-32V570c0 6.2 4.7 10.9 10.9 10.9h63.2V287.3h-63.2c-6.2 0-10.9 5.5-10.9 11m0 188.1c-11.7 17.2-35.1 32-63.2 32-50 0-88.2-31.2-88.2-84.3s38.3-84.3 88.2-84.3c27.3 0 52.3 15.6 63.2 32zm121-199.1h74.9v293.6h-74.9zm1119.7-7.8c-51.5 0-75.7 31.2-75.7 31.2V146h-74.9v434.9h63.2c6.2 0 10.9-5.5 10.9-10.9v-13.3s24.2 32 75.7 32c85.1 0 151.5-65.6 151.5-154.6s-66.4-154.6-150.7-154.6m-12.5 238.2c-28.9 0-51.5-14.8-63.2-32V381c11.7-15.6 36.7-32 63.2-32 50 0 88.2 31.2 88.2 84.3s-38.3 84.4-88.2 84.4m-177.3-110.9v174.9h-75V415.4c0-48.4-15.6-67.9-57.7-67.9-22.6 0-46.1 11.7-60.9 28.9V581h-74.9V287.3h59.3c6.2 0 10.9 5.5 10.9 10.9v12.5c21.9-22.7 50.7-31.2 79.6-31.2 32.8 0 60.1 9.4 82 28.1 26.6 21.9 36.7 50 36.7 99.2m-450.5-127.3c-51.5 0-75.7 31.2-75.7 31.2V146h-75v434.9h63.2c6.2 0 10.9-5.5 10.9-10.9v-13.3s24.2 32 75.7 32c85.1 0 151.5-65.6 151.5-154.6.9-89-65.5-154.6-150.6-154.6m-12.5 238.2c-28.9 0-51.5-14.8-63.2-32V381c11.7-15.6 36.7-32 63.2-32 50 0 88.2 31.2 88.2 84.3s-38.2 84.4-88.2 84.4m-203-238.2c22.6 0 34.4 3.9 34.4 3.9v69.5s-62.5-21.1-101.5 23.4v205.3h-75V287.3h63.2c6.2 0 10.9 5.5 10.9 10.9v12.5c14.2-16.3 44.6-31.2 68-31.2M714.8 554.4c-3.9-9.4-7.8-19.5-11.7-28.1-6.3-14-12.5-27.3-18-39.8l-.8-.8c-53.9-117.1-111.6-235.8-172.6-352.9l-2.3-4.7c-6.4-12.1-12.6-24.4-18.7-36.7-7.8-14.1-15.6-28.9-28.1-42.9C437.7 17.2 401.7 0 363.5 0c-39 0-74.2 17.2-99.9 46.8-11.7 14-20.3 28.9-28.1 42.9-6.1 12.3-12.3 24.5-18.7 36.7l-2.3 4.7C154.2 248.3 95.7 367 41.8 484.1l-.8 1.6c-5.5 12.5-11.7 25.8-18 39.8-3.9 8.6-7.8 18-11.7 28.1C1.2 582.4-1.9 609.8 2 637.9c8.6 58.6 47.6 107.7 101.5 129.6 20.3 8.6 41.4 12.5 63.2 12.5 6.2 0 14-.8 20.3-1.6 25.8-3.1 52.3-11.7 78.1-26.5 32-18 62.5-43.7 96.8-81.2 34.4 37.5 65.6 63.2 96.8 81.2 25.8 14.8 52.3 23.4 78.1 26.5 6.2.8 14.1 1.6 20.3 1.6 21.9 0 43.7-3.9 63.2-12.5 54.7-21.9 92.9-71.8 101.5-129.6 6.3-27.3 3.2-54.7-7-83.5m-352.1 40.5c-42.2-53.1-69.5-103.1-78.9-145.2-3.9-18-4.7-33.6-2.3-47.6 1.6-12.5 6.2-23.4 12.5-32.8 14.8-21.1 39.8-34.4 68.7-34.4s54.7 12.5 68.7 34.4c6.2 9.4 10.9 20.3 12.5 32.8 2.3 14.1 1.6 30.5-2.3 47.6-9.4 41.4-36.8 91.4-78.9 145.2m311.5 36.7c-5.5 40.6-32.8 75.7-71 91.4-18.7 7.8-39 10.1-59.3 7.8-19.5-2.3-39-8.6-59.3-20.3-28.1-15.6-56.2-39.8-89-75.7 51.5-63.2 82.8-121 94.5-172.5 5.5-24.2 6.3-46.1 3.9-66.4-3.1-19.5-10.1-37.5-21.1-53.1-24.2-35.1-64.8-55.4-110.1-55.4s-85.9 21.1-110.1 55.4c-10.9 15.6-18 33.6-21.1 53.1-3.1 20.3-2.3 42.9 3.9 66.4 11.7 51.5 43.7 110.1 94.5 173.3-32 35.9-60.9 60.1-89 75.7-20.3 11.7-39.8 18-59.3 20.3-21.1 2.3-41.4-.8-59.3-7.8-38.3-15.6-65.6-50.8-71-91.4-2.3-19.5-.8-39 7-60.9 2.3-7.8 6.2-15.6 10.1-25 5.5-12.5 11.7-25.8 18-39l.8-1.6c53.9-116.3 111.6-235 171.8-350.6l2.3-4.7c6.3-11.7 12.5-24.2 18.7-35.9 6.2-12.5 13.3-24.2 21.9-34.4 16.4-18.7 38.3-28.9 62.5-28.9s46.1 10.2 62.5 28.9c8.6 10.2 15.6 21.9 21.9 34.4 6.3 11.7 12.5 24.2 18.7 35.9l2.3 4.7c59.2 116 116.2 233.2 171 351.3v.8c6.3 12.5 11.7 26.6 18 39.1 3.9 9.4 7.8 17.2 10.1 25 6 20.3 8.3 39.9 5.2 60.1"/></svg>