<svg xmlns="http://www.w3.org/2000/svg" xml:space="preserve" viewBox="0 0 360 180"><path d="M110.183 110.309h22.243c1.934 0 3.385-1.45 3.385-3.627v-1.692c-.967.242-2.66.242-5.803.242h-7.253l12.814-24.66h-25.144v4.835h11.121l-10.637 20.308c-.968 1.935-.968 3.385-.726 4.594M87.94 94.594l5.803 11.121c1.692 3.143 2.418 4.594 6.044 4.594h8.22c-.483-.484-.967-1.209-1.692-2.66l-8.462-15.473 9.913-11.363h-8.704zm-10.637 15.715h10.154V75.011c0-3.627-2.66-6.044-6.286-6.044h-3.868zm-4.593-2.659L62.554 77.429c-1.209-3.627-2.418-5.32-7.495-5.32h-4.835l-14.264 38.2h6.527l3.143-9.429h13.781l1.934 6.044c.725 2.176 1.693 3.385 4.11 3.385h8.704c-.725-.484-.967-1.209-1.45-2.66M47.323 96.286l5.56-15.956 5.077 15.956zm105.895 14.748c8.462 0 15.715-6.044 15.715-16.198 0-8.462-6.77-14.99-15.473-14.99s-15.715 6.286-15.715 16.199c-.242 9.187 7.011 14.99 15.473 14.99m0-5.561c-3.385 0-4.594-4.11-4.594-10.155s1.21-9.912 4.594-9.912 4.593 4.352 4.593 10.638c0 5.802-.967 9.429-4.593 9.429m20.308 4.835h6.286V85.89l16.199 19.584c2.176 2.66 3.868 4.835 6.286 4.835h4.593V75.253c0-1.934-1.45-3.385-3.384-3.385h-2.902v22.968L184.89 76.22c-2.417-2.901-3.626-4.594-7.01-4.594h-4.594v38.683zm53.431.725c8.462 0 15.715-6.044 15.715-16.198 0-8.462-6.77-14.99-15.473-14.99s-15.715 6.286-15.715 16.199c-.242 9.187 7.011 14.99 15.473 14.99m0-5.561c-3.385 0-4.835-4.11-4.835-10.155s1.209-9.912 4.835-9.912c3.385 0 4.594 4.352 4.594 10.638 0 5.802-.967 9.429-4.594 9.429m82.443-9.429c.242-1.21.242-2.418.242-3.385 0-7.011-5.078-12.572-14.023-12.572s-15.231 6.286-15.231 15.473 5.56 15.473 14.99 15.473c9.186 0 12.571-4.835 12.813-9.429-1.934 1.45-5.077 2.176-8.462 2.176-5.077 0-8.462-2.901-8.945-7.736zm-18.858-4.11c.242-4.352 1.934-7.012 4.835-7.012 3.869 0 4.594 7.012 4.594 7.012zM264.915 80.33c-3.385 0-6.286 1.209-7.737 2.66v-7.98c0-3.626-2.66-6.043-6.286-6.043h-3.868v41.342h11.846c11.363 0 17.65-6.044 17.65-16.924.241-7.495-4.836-13.055-11.605-13.055m-6.286 25.144h-1.451v-19.1c.725 0 1.209-.242 2.176-.242 3.868 0 6.77 3.627 6.77 8.22 0 7.253-2.66 11.122-7.495 11.122m55.123 4.835h10.154V75.011c0-3.627-2.66-6.044-6.286-6.044h-3.868z"/></svg>