<svg xmlns="http://www.w3.org/2000/svg" xml:space="preserve" viewBox="0 0 72 72"><path d="M36.7 26.6c-6.3 0-11.5 5.1-11.5 11.5s5.1 11.5 11.5 11.5 11.5-5.1 11.5-11.5S43 26.6 36.7 26.6m8 7.2-7.6 3.9c-.2.1-.5-.1-.5-.3v-8.5c0-.2.2-.3.4-.3 3.4.1 6.3 2 7.9 4.8.1.1 0 .3-.2.4"/><path d="M57.2 7.2H14.8c-4.2 0-7.6 3.4-7.6 7.6v42.5c0 4.2 3.4 7.6 7.6 7.6h42.4c4.2 0 7.6-3.4 7.6-7.6V14.8c0-4.2-3.4-7.6-7.6-7.6m-26 10.9c0-1.4 1.1-2.5 2.5-2.5h5.8c1.4 0 2.5 1.1 2.5 2.5v2c0 .2-.2.4-.4.3-1.6-.4-3.2-.7-4.9-.7s-3.4.2-5.1.7c-.2.1-.4-.1-.4-.3zm-11.6 6.5c0-.7.3-1.3.7-1.8l1.2-1.2c.5-.5 1.1-.7 1.8-.7s1.3.3 1.8.7l1 1c.1.2.1.4-.1.5-.8.6-1.6 1.2-2.3 1.9s-1.3 1.4-1.9 2.2c-.1.2-.4.2-.5 0l-1-1c-.5-.3-.7-.9-.7-1.6m17.1 29.7c-9 0-16.3-7.3-16.3-16.3s7.3-16.3 16.3-16.3C45.7 21.8 53 29 53 38s-7.3 16.3-16.3 16.3"/></svg>