<svg xmlns="http://www.w3.org/2000/svg" xml:space="preserve" viewBox="0 0 360 180"><path d="M214.7 114.5c-16.7 12.3-41 18.9-61.9 18.9-29.3 0-55.7-10.8-75.6-28.8-1.6-1.4-.2-3.3 1.7-2.2 21.5 12.5 48.1 20.1 75.6 20.1 18.5 0 38.9-3.8 57.7-11.8 2.9-1.3 5.2 1.7 2.5 3.8"/><path d="M221.6 106.5c-2.1-2.7-14.1-1.3-19.5-.7-1.6.2-1.9-1.2-.4-2.3 9.6-6.7 25.3-4.8 27.1-2.5s-.5 18-9.5 25.5c-1.4 1.2-2.7.5-2.1-1 2-4.9 6.6-16.2 4.4-19m-19.1-50.4v-6.5c0-1 .8-1.7 1.7-1.7h29.3c.9 0 1.7.7 1.7 1.7v5.6c0 .9-.8 2.2-2.2 4.1L217.8 81c5.6-.1 11.6.7 16.7 3.6 1.2.7 1.5 1.6 1.6 2.5v7c0 1-1.1 2.1-2.2 1.5-9-4.7-21-5.2-31 0-1 .5-2.1-.5-2.1-1.5v-6.6c0-1.1 0-2.9 1.1-4.5l17.6-25.2h-15.3c-1-.1-1.7-.7-1.7-1.7M95.6 96.9h-8.9c-.9-.1-1.5-.7-1.6-1.5V49.7c0-.9.8-1.6 1.7-1.6h8.3c.9 0 1.6.7 1.6 1.5v6h.2c2.2-5.8 6.2-8.5 11.7-8.5 5.6 0 9.1 2.7 11.6 8.5 2.2-5.8 7.1-8.5 12.3-8.5 3.7 0 7.8 1.5 10.3 5 2.8 3.8 2.2 9.4 2.2 14.3v28.9c0 .9-.8 1.7-1.7 1.7h-8.9c-.9-.1-1.6-.8-1.6-1.7V71c0-1.9.2-6.7-.2-8.6-.7-3.1-2.7-3.9-5.2-3.9-2.2 0-4.4 1.4-5.3 3.7s-.8 6.2-.8 8.8v24.2c0 .9-.8 1.7-1.7 1.7h-8.9c-.9-.1-1.6-.8-1.6-1.7V71c0-5.1.8-12.6-5.5-12.6-6.4 0-6.2 7.3-6.2 12.6v24.2c-.1 1-.9 1.7-1.8 1.7M260.3 47c13.2 0 20.4 11.4 20.4 25.8 0 14-7.9 25-20.4 25-13 0-20.1-11.4-20.1-25.5.1-14.2 7.2-25.3 20.1-25.3m.1 9.4c-6.6 0-7 9-7 14.5 0 5.6-.1 17.5 6.9 17.5 6.9 0 7.2-9.6 7.2-15.5 0-3.9-.2-8.5-1.3-12.1-1-3.2-2.9-4.4-5.8-4.4m37.5 40.5H289c-.9-.1-1.6-.8-1.6-1.7V49.4c.1-.8.8-1.5 1.7-1.5h8.3c.8 0 1.4.6 1.6 1.3v7h.2c2.5-6.3 6-9.2 12.1-9.2 4 0 7.9 1.4 10.4 5.4 2.3 3.7 2.3 9.8 2.3 14.2v28.8c-.1.8-.8 1.4-1.7 1.4h-8.9c-.8-.1-1.5-.7-1.6-1.4V70.6c0-5 .6-12.3-5.6-12.3-2.2 0-4.2 1.5-5.2 3.7-1.3 2.8-1.4 5.6-1.4 8.7v24.6c0 .9-.8 1.6-1.7 1.6M177.967 75.1v-1.9c-6.4 0-13.3 1.4-13.3 9 0 3.8 2 6.5 5.4 6.5 2.5 0 4.8-1.5 6.2-4.1 1.7-3.2 1.7-6.1 1.7-9.5m8.9 21.7c-.6.5-1.4.6-2.1.2-3-2.5-3.5-3.6-5.1-5.9-4.9 5-8.3 6.5-14.7 6.5-7.5 0-13.3-4.6-13.3-13.9 0-7.2 3.9-12.2 9.5-14.6 4.8-2.1 11.6-2.5 16.8-3.1v-1.2c0-2.1.2-4.6-1.1-6.5-1.1-1.6-3.2-2.3-5-2.3-3.4 0-6.4 1.7-7.2 5.4-.1.8-.7 1.6-1.5 1.6l-8.7-.9c-.7-.2-1.5-.8-1.3-1.9 2-10.5 11.5-13.6 19.9-13.6 4.3 0 10 1.2 13.4 4.4 4.3 4.1 3.9 9.5 3.9 15.3v13.9c0 4.2 1.7 6 3.4 8.3.6.8.7 1.8 0 2.4-1.8 1.5-5.1 4.3-6.9 5.9M62.3 75.1v-1.9c-6.4 0-13.3 1.4-13.3 9 0 3.8 2 6.5 5.4 6.5 2.5 0 4.8-1.5 6.2-4.1 1.7-3.2 1.7-6.1 1.7-9.5m9 21.7c-.6.5-1.4.6-2.1.2-3-2.5-3.5-3.6-5.1-5.9-4.9 5-8.3 6.5-14.7 6.5-7.5 0-13.3-4.6-13.3-13.9 0-7.2 3.9-12.2 9.5-14.6 4.8-2.1 11.6-2.5 16.8-3.1v-1.2c0-2.1.2-4.6-1.1-6.5-1.1-1.6-3.2-2.3-5-2.3-3.4 0-6.4 1.7-7.2 5.4-.1.8-.7 1.6-1.5 1.6l-8.7-.9c-.7-.2-1.5-.8-1.3-1.9 2-10.5 11.5-13.6 19.9-13.6 4.3 0 10 1.2 13.4 4.4 4.3 4.1 3.9 9.5 3.9 15.3v13.9c0 4.2 1.7 6 3.4 8.3.6.8.7 1.8 0 2.4-1.9 1.5-5.1 4.3-6.9 5.9"/></svg>