<svg xmlns="http://www.w3.org/2000/svg" xml:space="preserve" viewBox="0 0 72 72"><path d="M29.1 64.8c2.5 0 4.6-2.1 4.6-4.6v-4.6h-9.2v4.6c0 2.5 2 4.6 4.6 4.6m-9-42.6h31.8c-.9-4.1-3.8-7.4-7.6-9.5L46.7 9c.4-.5.2-1.3-.3-1.6-.5-.4-1.3-.2-1.6.3l-2.7 4c-1.9-.7-4-1.1-6.1-1.1-2.2 0-4.2.4-6.1 1.1l-2.7-4c-.3-.4-.7-.6-1.2-.5-.1 0-.3.1-.4.1-.6.4-.7 1.2-.4 1.7l2.5 3.7c-3.8 2-6.7 5.4-7.6 9.5m22.1-5.8c1 0 1.7.8 1.7 1.7 0 1-.8 1.7-1.7 1.7-1 0-1.7-.8-1.7-1.7s.8-1.7 1.7-1.7m-12.5 0c1 0 1.7.8 1.7 1.7 0 1-.8 1.7-1.7 1.7-1 0-1.7-.8-1.7-1.7-.1-.9.7-1.7 1.7-1.7M13 27.9V44c0 1.9 1.5 3.5 3.5 3.5.4 0 .8-.1 1.2-.2V24.7c-.4-.1-.7-.2-1.2-.2-2 0-3.5 1.5-3.5 3.4m41.3-3.2v22.6c.4.1.7.2 1.2.2 1.9 0 3.5-1.5 3.5-3.5V27.9c0-1.9-1.5-3.5-3.5-3.5zM52 49.8V24.5H19.9v25.3c0 1.9 1.6 3.5 3.5 3.5h25.3c1.8 0 3.3-1.6 3.3-3.5m-9.2 15c2.5 0 4.6-2.1 4.6-4.6v-4.6h-9.2v4.6c0 2.5 2.1 4.6 4.6 4.6"/></svg>