<svg xmlns="http://www.w3.org/2000/svg" xml:space="preserve" viewBox="0 0 800 850.58"><path d="M568.84 7432.01c29.16-33.79 48.82-80.88 43.44-127.71-42.03 1.6-92.87 26.84-123 60.61-27.06 29.96-50.68 77.83-44.33 123.75 46.87 3.46 94.72-22.81 123.89-56.65m105.12 297.28c1.17 121.07 110.83 161.35 112.04 161.88-.89 2.83-17.51 57.4-57.76 113.79-34.83 48.73-70.95 97.25-127.86 98.28-55.9 1-73.9-31.76-137.85-31.76-63.91 0-83.89 30.72-136.79 32.75-54.93 1.97-96.79-52.71-131.86-101.27-71.75-99.32-126.56-280.68-52.95-403.07 36.56-60.76 101.89-99.3 172.83-100.25 53.92-1 104.84 34.77 137.81 34.77 32.96 0 94.85-43.01 159.89-36.68 27.22 1.07 103.67 10.53 152.73 79.36-3.96 2.36-91.2 50.99-90.23 152.2" style="fill-rule:evenodd;clip-rule:evenodd" transform="translate(-46 -7279)"/></svg>