<svg xmlns="http://www.w3.org/2000/svg" xml:space="preserve" viewBox="0 0 360 180"><path d="m228.773 128.82 10-48.4 3.8 48.4h21.5l-10-76.8h-23l-10.8 46-10.7-46h-23l-10 76.8h21.5l3.8-48.4 10 48.4zm66.8-76.8h-20.7v76.8h49.1v-16.2h-28.4zm-210.4 0h-26.1l-23 76.8h23l3.1-13.8h20l3.1 13.8h23zm-13.1 16.9 6.9 31.5h-13.8zm91.399 4.6c-19.1-16.7-48.9-9.9-49.2 5.4-4.3-28.4 30-34.3 49.2-25.3.4 4.5.7 9.4 0 19.9"/><path d="M147.673 82.52c-4.8-1.9-11.8-3.6-11.8-9 0-2.2.9-4.7 5.4-6.1-15.4 1.5-20.5 20.2-3.5 29.5 3 1.6 8.1 3.3 8.1 8.9 0 6.5-7.1 8.8-11.8 8.7-7.8-.2-14.1-2.9-21.2-8v18.4c8.5 3.6 22.2 7.8 36 3.6 11.2-3.4 20.8-12.8 20.8-22.8 0-16.2-14.2-20.1-22-23.2"/></svg>