<svg xmlns="http://www.w3.org/2000/svg" xml:space="preserve" viewBox="0 0 360 180"><path d="M47.3 92.8 53.1 77l5.5 15.9H47.3zm17.1 16h5.4l-14-38.2h-5.3L36 108.8h5.4L45.6 97h14.5zm25.4-8.2c0 3.1-2.5 4.8-6.9 4.8-3.5 0-5.8-1-7.1-3.3l-5.1.9c2 4.1 6.1 6 12 6 8 0 12.1-4.4 12.1-9.1 0-6-5.6-7.6-12-9-3.1-.6-6.8-1.8-6.8-4.5 0-2 1.9-4.3 5.8-4.3s6.3 2.6 6.6 3.8l4.5-1.9c-2.1-4-6.3-5.5-10.5-5.5-6.8 0-11.1 3.3-11.1 8.5 0 6 5.1 7.1 10.1 8.3 4.3 1.1 8.4 2.1 8.4 5.3m15.8-30-5 2.1v7H96v4h4.6v18.6c-.1 3.8-.1 6.5 5.6 6.5 1.9 0 3.9-.4 4.8-.5v-3.9c-1 .3-2.3.6-3.1.6-2.1 0-2.1-1.5-2.1-4.9V83.7h5.3v-4h-5.3v-9.1zm9.6 9.1v29h4.9V95.4c0-2.5-.1-5.4 1.3-7.5 1.6-2.6 3.9-3.5 8.8-3.6v-5c-2 .1-7.1.1-9.9 5.6v-5.1c-.1-.1-5.1-.1-5.1-.1m43.6-9.1v4.8h21.8l-21.7 28.5v5h27.9v-4.6h-22.2l21.7-28.8v-4.8h-27.5zm58.6 9.1v29h4.9V92.3c0-2.1 0-4.4 2.1-6.5 1.5-1.5 3.4-2.3 5.5-2.3 2.6 0 5.4 1.3 6.3 4 .3 1 .3 1.9.3 4.8v16.4h4.9v-17c0-2.5 0-4.3-.5-5.9-1.4-4.8-5.9-6.6-9.5-6.6-1.8 0-6.4.4-9 5.1v-4.4h-4.9zm75.6 22.1c-1 2-2.9 3.8-6.8 3.8-3.3 0-8.8-2-8.8-11.6 0-2.6.5-11.6 8.5-11.6 4 0 5.9 2.3 6.8 4.1l4.5-1.9c-2.8-4.6-7.9-5.8-11.5-5.8-9.3 0-13.8 7.4-13.8 15.6 0 7.1 3.9 15 14.1 15 5.9 0 9.3-2.9 11-5.8zm-99.2-10.5h15.4c-.4-7.6-4.8-8.9-7.8-8.9-4.1 0-6.9 3-7.6 8.9m19.4 12c-1.6 2.9-4.9 6-11.1 6-8.5 0-13.5-5.8-13.5-15.5 0-10.9 7.1-15 13.3-15 5.4 0 10.4 3 12.1 10.3.5 2.5.5 4.6.5 5.9h-20.8c-.1 4.9 1.9 11 8.8 10.9 2.8 0 4.8-1.4 6-3.3zm36.1-12h15.4c-.4-7.6-4.8-8.9-7.8-8.9-4.2 0-7.1 3-7.6 8.9m19.2 12c-1.6 2.9-4.9 6-11.1 6-8.5 0-13.5-5.8-13.5-15.5 0-10.9 7.1-15 13.3-15 5.4 0 10.4 3 12.1 10.3.5 2.5.5 4.6.5 5.9h-20.9c-.1 4.9 1.9 11 8.8 10.9 2.8 0 4.8-1.4 6-3.3zm55.5 5.5h-5.1s-.5-2-.6-4.3c-1.5 1.5-4.3 4.6-9.8 4.6-5.6 0-9.8-3.4-9.8-8.3 0-1.5.4-3.1 1.3-4.4 1.6-2.5 4.8-4.4 13.4-5.1l4.6-.3v-.8c0-3 0-8-6.5-8-4 0-5.5 2-5.9 3.8l-4.5-1.9c.1-.1.1-.4.3-.5 1.8-3.1 5.1-5.1 10-5.1 2.6 0 6.1.6 8.4 2.5 3.3 2.5 3.1 7.3 3.1 7.3l.3 14.9c-.1.1.2 4.3.8 5.6m-6.8-8c.8-1.6.8-2.3.8-6.5-1.9.3-4.5.6-7.6 1.4-5.4 1.1-6.3 3.3-6.3 5.3 0 2.4 1.9 4.3 5.5 4.3 3.4-.2 6.3-1.5 7.6-4.5m-161.8 8h-5s-.5-2-.6-4.3c-1.5 1.5-4.3 4.6-9.8 4.6-5.6 0-9.9-3.4-9.9-8.3 0-1.5.4-3.1 1.3-4.4 1.6-2.5 4.8-4.4 13.4-5.1l4.6-.4v-.8c0-3 0-8-6.5-8-4.1 0-5.5 2-5.9 3.8l-4.5-1.9c.1-.1.1-.4.3-.5 1.8-3.1 5.1-5.1 10-5.1 2.6 0 6.1.6 8.4 2.5 3.3 2.5 3.1 7.3 3.1 7.3l.1 14.9c.1.2.4 4.4 1 5.7m-6.6-8c.8-1.6.8-2.3.8-6.5-1.9.3-4.5.6-7.6 1.4-5.4 1.1-6.3 3.3-6.3 5.3 0 2.4 1.9 4.3 5.5 4.3 3.2-.2 6.1-1.5 7.6-4.5"/></svg>