<svg xmlns="http://www.w3.org/2000/svg" xml:space="preserve" viewBox="0 0 360 180"><path d="M59.8 106.8c1.1 0 2.2-.1 3.2-.3s1.9-.6 2.7-1.1 1.4-1.2 1.9-2.1.7-2 .7-3.4c0-2.7-.8-4.6-2.3-5.8-1.5-1.1-3.5-1.7-6-1.7H47.5v14.4zm-.6-22.3q3 0 5.1-1.5c1.3-1 2-2.6 2-4.8q0-1.8-.6-3t-1.8-1.8c-.7-.4-1.6-.8-2.5-.9-1-.2-1.9-.3-3-.3H47.5v12.2h11.7zm1.5-21.1c2.5 0 4.8.2 6.8.7 2.1.4 3.8 1.2 5.3 2.2s2.6 2.3 3.4 4c.8 1.6 1.2 3.7 1.2 6.1q0 3.9-1.8 6.6c-1.2 1.8-3 3.2-5.3 4.3 3.2.9 5.6 2.6 7.2 4.9q2.4 3.45 2.4 8.4c0 2.7-.5 4.9-1.5 6.9-1 1.9-2.4 3.5-4.1 4.7q-2.55 1.8-6 2.7c-2.2.6-4.5.9-6.8.9H36V63.4zm47.5 23.3c-1.2-1.4-3.3-2.1-5.9-2.1-1.7 0-3 .3-4.1.8-1.1.6-2 1.3-2.6 2.1-.7.8-1.1 1.7-1.4 2.7-.3.9-.4 1.8-.5 2.5h16.9c-.3-2.7-1.2-4.6-2.4-6m-12 19.9c1.6 1.5 3.8 2.3 6.7 2.3 2.1 0 3.9-.5 5.4-1.6s2.4-2.2 2.8-3.4h9.2c-1.5 4.6-3.7 7.8-6.8 9.8-3 2-6.7 2.9-11 2.9-3 0-5.7-.5-8.1-1.4-2.4-1-4.4-2.3-6.1-4.1-1.6-1.8-2.9-3.9-3.8-6.3s-1.4-5.1-1.4-8.1c0-2.8.5-5.5 1.4-7.9.9-2.5 2.3-4.6 4-6.3 1.7-1.8 3.8-3.2 6.1-4.2 2.4-1 5-1.5 7.9-1.5 3.2 0 6 .6 8.4 1.9 2.4 1.2 4.4 2.9 5.9 5q2.25 3.15 3.3 7.2c.7 2.7.9 5.5.7 8.4H93.6c0 2.9 1.1 5.8 2.6 7.3m39.6-43.2v19.7h.2c1.3-2.2 3-3.8 5-4.8s4.1-1.5 6-1.5c2.8 0 5.1.4 6.8 1.1 1.8.8 3.2 1.8 4.2 3.2 1 1.3 1.7 3 2.1 4.9s.6 4.1.6 6.4v23.3h-10.5V94.3c0-3.1-.5-5.5-1.5-7S146 85 143.5 85c-2.8 0-4.8.8-6.1 2.5s-1.9 4.4-1.9 8.3v19.9H125V63.4zm53 34.7c-.6.2-1.4.4-2.1.6-.8.1-1.6.3-2.4.4s-1.7.2-2.5.4-1.6.3-2.3.6c-.8.2-1.4.6-2 1s-1 .9-1.4 1.6c-.3.6-.5 1.5-.5 2.4s.2 1.7.5 2.3.8 1.1 1.4 1.5 1.3.6 2 .8c.8.2 1.6.2 2.4.2 2 0 3.6-.3 4.7-1s2-1.5 2.5-2.5.9-1.9 1-2.9.2-1.8.2-2.4v-3.9c-.3.3-.9.7-1.5.9m-20.5-14.8c1.1-1.6 2.4-2.9 4.1-3.9s3.5-1.7 5.6-2.1q3.15-.6 6.3-.6c1.9 0 3.8.1 5.8.4 1.9.3 3.7.8 5.3 1.6q2.4 1.2 3.9 3.3c1 1.4 1.6 3.2 1.6 5.5v19.7c0 1.7.1 3.3.3 4.9s.7 2.8 1.2 3.5h-10.6c-.3-.5-.6-1.2-.7-1.8s-.2-1.2-.3-1.9c-1.7 1.7-3.6 2.9-5.9 3.6-2.2.7-4.5 1-6.9 1-1.8 0-3.5-.2-5-.7-1.5-.4-2.9-1.1-4.1-2s-2.1-2.1-2.7-3.5c-.7-1.4-1-3.1-1-5.1 0-2.2.4-3.9 1.2-5.3.7-1.4 1.7-2.5 2.9-3.3s2.6-1.5 4.1-1.9 3.1-.8 4.6-1c1.6-.2 3.1-.4 4.6-.6 1.5-.1 2.9-.4 4-.7 1.2-.3 2.1-.7 2.8-1.3s1-1.4 1-2.5q0-1.65-.6-2.7c-.4-.7-.8-1.2-1.4-1.5-.6-.4-1.3-.6-2.1-.7s-1.7-.2-2.6-.2c-2 0-3.6.5-4.8 1.3-1.2.9-1.9 2.4-2.1 4.4h-10.4c.2-2.2.8-4.3 1.9-5.9m48.2-5.5v5.3h.2q1.95-3.3 5.1-4.8c2.1-1 4.3-1.5 6.5-1.5 2.8 0 5.1.4 6.9 1.1 1.8.8 3.2 1.8 4.2 3.2 1 1.3 1.8 3 2.2 4.9s.6 4.1.6 6.4v23.3h-10.5V94.3c0-3.1-.5-5.5-1.5-7s-2.7-2.5-5.2-2.5c-2.8 0-4.9 1.1-6.2 2.8s-1.9 4.4-1.9 8.3v19.9h-10.3v-38zm48.8 6.8c-1.7 0-3.1.4-4.2 1.1-1.1.8-2.1 1.7-2.8 2.9s-1.2 2.5-1.5 4c-.3 1.4-.4 2.9-.4 4.3s.2 2.8.4 4.2c.3 1.4.8 2.7 1.4 3.9.7 1.1 1.6 2.1 2.7 2.8s2.5 1.1 4.1 1.1c2.5 0 4.4-.7 5.8-2.1 1.3-1.4 2.2-3.3 2.5-5.6h10c-.7 5-2.6 8.9-5.9 11.5-3.2 2.6-7.4 4-12.4 4-2.8 0-5.4-.5-7.8-1.4-2.4-1-4.4-2.3-6.1-4s-3-3.8-3.9-6.1c-.9-2.4-1.4-5-1.4-7.8 0-2.9.4-5.7 1.3-8.2.8-2.5 2.1-4.7 3.8-6.5s3.7-3.3 6.1-4.3 5.1-1.5 8.2-1.5c2.3 0 4.4.3 6.5.9s3.9 1.5 5.6 2.7c1.6 1.2 3 2.7 4 4.5q1.5 2.7 1.8 6.3H273c-.7-4.6-3.3-6.7-7.7-6.7M91.5 66.9h21.2V72H91.5zm219.6 19.8c-1.3-1.4-3.4-2.1-5.9-2.1-1.7 0-3 .3-4.2.8-1.1.6-2.1 1.3-2.7 2.1-.7.8-1.1 1.7-1.4 2.7-.2.9-.4 1.8-.5 2.5h17.1c-.2-2.7-1.1-4.6-2.4-6M299 106.6c1.6 1.5 3.9 2.3 6.9 2.3 2.1 0 3.9-.5 5.4-1.6s2.4-2.2 2.8-3.4h9.2c-1.5 4.6-3.7 7.8-6.7 9.8s-6.7 2.9-11 2.9c-3 0-5.7-.5-8.1-1.4-2.4-1-4.4-2.3-6.1-4.1s-2.9-3.9-3.9-6.3c-.9-2.4-1.4-5.1-1.4-8.1 0-2.8.5-5.5 1.4-7.9.9-2.5 2.3-4.6 4-6.3 1.7-1.8 3.8-3.2 6.1-4.2 2.4-1 5-1.5 7.9-1.5 3.2 0 6 .6 8.4 1.9 2.4 1.2 4.4 2.9 5.9 5s2.7 4.5 3.3 7.2c.7 2.7.9 5.5.7 8.4h-27.5c.2 2.9 1.2 5.8 2.7 7.3" style="fill:#0a0b09"/></svg>