<svg xmlns="http://www.w3.org/2000/svg" xml:space="preserve" viewBox="0 0 72 72"><path d="M43 8.1C27.5 4.2 11.9 13.6 8.1 29c-3.9 15.4 5.5 31.1 21 34.9s31.1-5.5 34.9-21-5.6-31-21-34.8m5.7 23.8c-.4 2.8-2 4.2-4 4.6 2.8 1.5 4.3 3.7 2.9 7.7-1.7 4.9-5.8 5.3-11.1 4.3l-1.3 5.2-3.2-.8 1.3-5.2c-.8-.2-1.7-.4-2.5-.7l-1.3 5.2-3.2-.8 1.3-5.2c-.7-.2-1.5-.4-2.3-.6l-4.1-1 1.6-3.6 2.3.6c.9.2 1.3-.4 1.4-.7l2.1-8.3c.1 0 .2.1.3.1-.1-.1-.2-.1-.3-.1l1.5-5.9c0-.7-.2-1.5-1.5-1.8l-2.3-.6.8-3.4 4.4 1.1c.7.2 1.3.3 2 .5l1.3-5.2 3.2.7-1.3 5.1c.8.2 1.7.4 2.5.6l1.3-5.1 3.2.8-1.3 5.2c4 1.4 6.9 3.5 6.3 7.3"/><path d="m35.9 26.8-1.6 6.3c1.8.4 7.3 2.3 8.2-1.3.9-3.7-4.9-4.5-6.6-5m-2.4 9.5-1.7 7c2.1.5 8.7 2.7 9.7-1.3 1-4.1-5.9-5.1-8-5.7"/></svg>