<svg xmlns="http://www.w3.org/2000/svg" viewBox="0 0 800 850.6"><path d="M207.4 166.2c78 58.5 161.8 177.2 192.6 240.9 30.8-63.7 114.6-182.4 192.6-240.9C648.9 124 740 91.3 740 195.3s-11.9 174.4-18.9 199.4c-24.3 86.7-112.7 108.9-191.4 95.5 137.5 23.4 172.5 100.9 97 178.5-143.5 147.2-206.2-36.9-222.3-84.1-2.9-8.7-4.3-12.7-4.3-9.3 0-3.4-1.4.6-4.3 9.3-16.1 47.2-78.8 231.4-222.3 84.1-75.6-77.5-40.6-155.1 97-178.5-78.7 13.4-167.1-8.7-191.4-95.5-7-25-18.9-178.6-18.9-199.4 0-104 91.1-71.3 147.4-29.1Z"/></svg>