<svg xmlns="http://www.w3.org/2000/svg" xml:space="preserve" viewBox="0 0 800 800"><path d="m366.77 78.33-.43-4.57 1.43 4.33 22.13 49.63h20.2l22.13-49.6 1.33-4.37-.33 4.57 2.33 66.27c7.73.73 15.77 1.8 23.67 3.13L455.6 49.6a488 488 0 0 0-33.07-2.6l-21.77 54.17-.77 4-.77-4L377.4 47c-11 .47-22 1.4-33.07 2.6l-3.57 98.13c7.85-1.33 15.74-2.37 23.67-3.13z"/><path d="M400 0C179.1 0 0 179.1 0 400s179.1 400 400 400 400-179.1 400-400S620.9 0 400 0m0 773.97C193.43 773.97 26.03 606.53 26.03 400S193.47 26 400 26s373.97 167.43 373.97 374c0 206.53-167.4 373.97-373.97 373.97"/><path d="m677.2 180.87-51.3 33.8-3.5 3.07 2.6-3.83 22.67-45.2-16-16-45.2 22.67-3.83 2.6 3.03-3.53 33.93-51.3c-6-5.07-11.7-9.7-19-15.33l-51.43 80.93c6.5 5 15.07 12.37 20.57 17.4L618.17 181l3.07-2.3-2.3 3.13-25.07 48.43c5.43 5.83 13.27 15.27 17.67 21l81-51.47a546 546 0 0 0-15.34-18.92"/><path d="M400 162.83v-.07c-121.64-.05-223.59 91.93-236 212.93v.07c-13.26 130.44 81.74 246.93 212.18 260.19 23.94 2.43 48.11 1.21 71.69-3.62C558.14 609.67 637.26 512.58 637.2 400c-.13-130.94-106.26-237.06-237.2-237.17M606.07 400H400v206.07c-113.68.13-205.94-91.92-206.07-205.6V400H400V193.93c113.68-.13 205.94 91.92 206.07 205.6z"/><path d="M231.07 205.93c12.77-13.5 20-29 7.2-43.9-6.93-8.07-18.6-9.83-28.33-5.83l-.93.33.33-.87c2.46-9.04-.73-18.68-8.1-24.47a24.14 24.14 0 0 0-17.9-5v-.03c-12 1.23-21.27 9.43-46.43 37.5a628 628 0 0 0-25.23 30.47l69.13 65.57c22.89-25.33 32.19-34.73 50.26-53.77M140.9 189.9c13.9-17 28.7-32.47 35.4-38.6 2.01-2.1 4.49-3.68 7.23-4.63 4.53-1.23 9.23 2 10.27 6.67 1.07 4.67-1.87 9.07-5.13 12.73-7.33 8.33-34.37 36.6-34.37 36.6zm61.9-11c3.4-3.53 5.6-5.67 7.93-6.83 1.45-.75 3.04-1.17 4.67-1.23h.03c1.57 0 3.2.43 4.67 1.43 2.93 1.97 4.27 5.33 3.53 8.67-.87 3.97-4.17 7.7-6.83 10.6l-34.83 37.33-14-13.33c0-.01 26.23-27.74 34.83-36.64"/></svg>