<svg xmlns="http://www.w3.org/2000/svg" xml:space="preserve" viewBox="0 0 72 72"><path d="M36 7.2C20.1 7.2 7.2 20.1 7.2 36S20.1 64.8 36 64.8 64.8 51.9 64.8 36 51.9 7.2 36 7.2m0 54.7c-14.3 0-25.9-11.6-25.9-25.9S21.7 10.1 36 10.1 61.9 21.7 61.9 36 50.3 61.9 36 61.9"/><path d="M46.2 17.5c-.1-.1-.2-.1-.3-.1-.4 0-.6.3-.6.6v9c0 .3-.2.5-.5.5H27.2c-.3 0-.5-.2-.5-.5v-9c0-.1 0-.2-.1-.3-.2-.3-.6-.4-1-.2-6.4 4-10.3 10.9-10.3 18.5s3.9 14.5 10.4 18.5c.1.1.2.1.3.1.4 0 .6-.3.6-.6v-9c0-.3.2-.5.5-.5h17.4c.3 0 .5.2.5.5v9c0 .1 0 .2.1.3.2.3.6.4 1 .2 6.4-4 10.4-10.9 10.4-18.5s-3.7-14.5-10.3-18.5M23.3 47.3l.1 1.1-.8-.9c-5.4-6.8-5.4-16.2 0-23l.6-.8.1-.1-.1 1.1c-.1.9-.1 1.8-.1 2.7v17.1c.1 1 .2 1.8.2 2.8m21.9-7c0 .3-.2.5-.5.5H27.2c-.3 0-.5-.2-.5-.5v-8.6c0-.3.2-.5.5-.5h17.4c.3 0 .5.2.5.5v8.6zm3.9 7.2-.8.9.1-1.1c.1-.9.1-1.8.1-2.7V27.4c0-1 0-1.8-.1-2.7v-1l.6.9c2.6 3.2 4 7.3 4 11.5s-1.3 8.2-3.9 11.4"/></svg>