<svg xmlns="http://www.w3.org/2000/svg" xml:space="preserve" viewBox="0 0 2500 534"><path d="M266.9.1C119.6.1 0 119.7 0 267s119.6 266.9 266.9 266.9 267-119.6 267-266.9S414.2.1 266.9.1m0 507.1C134.3 507.2 26.8 399.3 26.8 267S134.3 26.8 266.9 26.8 507.1 134.7 507.1 267 399.5 507.2 266.9 507.2"/><path d="M362.2 95.9c-.9-.6-2.1-.9-3.2-.9-3.5 0-6.2 2.6-6.2 6.2v83.5c0 2.9-2.4 5.3-5.3 5.3H185.8c-2.9 0-5-2.4-5.3-5.3v-83.5c0-1.2-.3-2.1-.9-3.2-1.8-2.9-5.6-3.8-8.5-2.1-59.7 36.8-95.8 100.5-95.8 171.1s36.2 134.3 96.4 171.1c.9.6 2.1.9 3.2.9 3.5 0 6.2-2.6 6.2-6.2v-83.5c0-2.9 2.4-5 5.3-5.3h161.7c2.9 0 5.3 2.4 5.3 5.3v83.5c0 1.2.3 2.1.9 3.2 1.8 2.9 5.6 3.8 8.5 2.1 60.3-36.7 96.4-100.5 96.4-171.1s-36.8-134.3-97-171.1M149.9 371.7l.9 10-6.5-7.9c-49.7-62.6-49.7-151.1 0-213.7l5.6-7.1.9-.9-.9 10.3c-.9 8.2-1.2 16.8-1.2 25.3v158.5c.1 8.4.6 16.9 1.2 25.5M352.8 307c0 2.9-2.4 5.3-5.3 5.3H185.8c-2.9 0-5-2.4-5.3-5.3v-80c0-2.9 2.4-5.3 5.3-5.3h161.7c2.9 0 5.3 2.4 5.3 5.3zm36.4 66.7-6.5 7.9.9-10c.9-8.2 1.2-16.8 1.2-25.3V187.6c0-8.5-.3-17.1-1.2-25.3l-.3-4.4-.3-4.7V152l6.2 7.9c24.1 30 37.3 68.2 37.3 106.7s-13.2 77.1-37.3 107.1m547.4-111.4c-1.5-.6-3.2-1.2-3.2-2.9 0-1.2.6-2.1 1.8-2.6 2.1-.9 52.9-19.1 52.9-79.1 0-66.7-45-106.4-120.8-106.4H683.5v392.2H884c58.5 0 121.4-41.5 121.4-108.2 0-63.9-48.2-86.2-68.8-93M776.1 151.5c0-1.5 1.2-2.6 2.6-2.6h72.9c24.1 0 40.6 16.2 40.6 40.3 0 18.8-14.7 39.1-42.3 39.1h-71.1c-1.5 0-2.6-1.2-2.6-2.6zm75.6 234.6h-72.9c-1.5 0-2.6-1.2-2.6-2.6v-78.2c0-1.5 1.2-2.6 2.6-2.6h71.1c35 0 55 15 55 41.5 0 27.2-18.6 41.9-53.2 41.9M1626 227.3l-14.1-2.9c-31.7-6.8-62.6-15.3-62.6-42.6s25.6-39.7 50.9-39.7c29.7 0 59.1 13.2 81.4 36.2l58.2-57.6c-25-27.6-69.4-59.4-141.1-59.4-86.4 0-144.6 49.1-144.6 122.3 0 77.3 60.9 106.4 112 117.3l13.8 2.9c49.7 10.6 73.2 18.5 73.2 46.7 0 25.3-22.6 42-56.2 42-39.4 0-74.4-17.3-100.8-50l-59.7 58.5c31.7 37.6 73.8 71.7 161.7 71.7 75 0 151.1-43.5 151.1-127-.3-85.5-58.5-104.9-123.2-118.4m774.6-156.1v143.5c0 1.5-1.2 2.6-2.6 2.6h-120.5c-1.5 0-2.6-1.2-2.6-2.6V71.2H2176v392.2h98.8v-154c0-1.5 1.2-2.6 2.6-2.6H2398c1.5 0 2.6 1.2 2.6 2.6v154h99.4V71.2zm-423.3 311.9c-44.4 0-92.3-37-92.3-118.5 0-74.4 45-113.2 89.4-113.2 32.3 0 55 13.5 72.9 43.5l75.8-50.3c-38.8-57-85-82.9-149.3-82.9-126.1 0-182.6 102-182.6 202.8 0 122.6 74.7 208.1 181.4 208.1 79.4 0 115.5-29.1 153.5-82.9l-76.4-51.4c-17.1 27.8-35.6 44.8-72.4 44.8M1227.4 61.2c-107.9 0-180.2 82.6-180.2 205.8s72.3 205.8 180.2 205.8 180.2-82.6 180.2-205.8-72.3-205.8-180.2-205.8m0 321.9c-52.9 0-87-45.6-87-116.1 0-70.3 34.1-115.5 87-115.5 53.2 0 87.6 45.3 87.6 115.5 0 70.6-34.4 116.1-87.6 116.1"/></svg>