<svg xmlns="http://www.w3.org/2000/svg" xml:space="preserve" viewBox="0 0 360 180"><path d="M76.1 89.3c-.3-.1-.5-.2-.5-.4s.1-.4.3-.4c.4-.2 8.4-3 8.4-12.5 0-10.6-7.1-16.9-19.1-16.9H36v62.2h31.8c9.2 0 19.3-6.6 19.3-17.2-.1-10.2-7.7-13.7-11-14.8M50.7 71.7c0-.3.2-.4.4-.4h11.6c3.8 0 6.4 2.6 6.4 6.4 0 3-2.3 6.2-6.7 6.2H51.1c-.3 0-.4-.2-.4-.4zm12 37.1H51.1c-.3 0-.4-.2-.4-.4V96c0-.3.2-.4.4-.4h11.3c5.5 0 8.7 2.4 8.7 6.6 0 4.3-2.9 6.6-8.4 6.6m122.7-25.1-2.2-.4c-5.1-1.1-10-2.4-10-6.8s4.1-6.3 8.1-6.3c4.7 0 9.3 2.1 12.9 5.8l9.2-9.2c-4-4.4-11-9.4-22.4-9.4-13.7 0-22.9 7.8-22.9 19.4 0 12.3 9.7 16.9 17.8 18.6l2.2.4c7.9 1.7 11.6 2.9 11.6 7.4 0 4-3.6 6.7-8.9 6.7-6.2 0-11.8-2.8-16-7.9l-9.4 9.2c5.1 6 11.7 11.4 25.6 11.4 11.9 0 24-6.9 24-20.2-.1-13.5-9.4-16.6-19.6-18.7M308.3 59v22.8c0 .3-.2.4-.4.4h-19.1c-.3 0-.4-.2-.4-.4V59h-15.6v62.2h15.6V96.8c0-.3.2-.4.4-.4h19.1c.3 0 .4.2.4.4v24.4H324V58.9zm-67.1 49.4c-7 0-14.7-5.9-14.7-18.8 0-11.8 7.1-18 14.1-18 5.2 0 8.7 2.1 11.6 6.9l12-8c-6.1-9.1-13.5-13.2-23.6-13.2-20 0-29 16.2-29 32.2 0 19.5 11.8 33 28.8 33 12.6 0 18.3-4.6 24.4-13.2l-12.1-8.2c-2.8 4.6-5.8 7.3-11.5 7.3m-119-51c-17.1 0-28.5 13.1-28.5 32.6s11.5 32.6 28.5 32.6 28.6-13.1 28.6-32.6-11.4-32.6-28.6-32.6m0 51c-8.4 0-13.8-7.2-13.8-18.4 0-11.1 5.4-18.3 13.8-18.3s13.9 7.2 13.9 18.3c0 11.2-5.4 18.4-13.9 18.4"/></svg>