<svg xmlns="http://www.w3.org/2000/svg" xml:space="preserve" viewBox="0 0 360 180"><path d="m250.6 108.2-8.9-15.7c4-1.9 6.5-5.9 6.5-10.3 0-6.3-5.1-11.4-11.4-11.4h-19.1v37.4h8.5V93.7h6.8l8.3 14.5zm-24.7-21.7v-8.4h9.2c2.8.1 4.6 1.8 4.6 4.2s-1.9 4.1-4.7 4.2zm-43 21.7V70.9h27.9V78h-19.2v7.5h16.8v7.3h-16.8v8h20.2v7.5zm-39.9 0-8.9-15.7c4-1.9 6.5-5.9 6.5-10.3 0-6.3-5.1-11.4-11.4-11.4h-19.1v37.4h8.5V93.7h6.8l8.3 14.5zm-24.6-21.7v-8.4h9.2c2.8.1 4.6 1.8 4.6 4.2s-1.9 4.1-4.7 4.2zm-31 22.6c10.2 0 16.3-5.9 16.3-15.7V70.9H95v22c0 5.3-2.8 8.4-7.6 8.4s-7.6-3-7.6-8.4v-22h-8.7v22.6c0 9.8 6.1 15.6 16.3 15.6M59.7 87.5c5 1.7 7.5 6 7.5 10.1 0 5.8-4.7 10.6-10.5 10.6H36V70.9h19c4.9 0 8.9 4.1 8.9 9 .1 3.1-1.6 6-4.2 7.6m-15.1 13.8h9.5c3 0 4.6-2.2 4.6-4.4 0-1.8-1.4-4.3-4.6-4.3h-9.5zm6.9-15.7c2.2 0 3.9-1.7 3.9-3.9 0-2.1-1.8-3.9-3.9-3.9h-7v7.7zm119.2 1.901c5 1.7 7.5 6 7.5 10.1 0 5.8-4.7 10.6-10.5 10.6H147v-37.4h19c4.9 0 8.9 4.1 8.9 9 .1 3.2-1.5 6.1-4.2 7.7m-15.1 13.7h9.5c3 0 4.6-2.2 4.6-4.4 0-1.8-1.4-4.3-4.6-4.3h-9.5zm7-15.7c2.2 0 3.9-1.7 3.9-3.9 0-2.1-1.8-3.9-3.9-3.9h-7v7.7zM287.5 108.2l-8.9-15.7c4-1.9 6.5-5.9 6.5-10.3 0-6.3-5.1-11.4-11.4-11.4h-19.1v37.4h8.5V93.7h6.8l8.3 14.5zm-24.6-21.7v-8.4h9.2c2.8.1 4.6 1.8 4.6 4.2s-1.9 4.1-4.7 4.2zm37 21.7V93l-14.8-22.1H296l8.5 12.8 8.6-12.8H324L309.1 93v15.2z"/></svg>