<svg xmlns="http://www.w3.org/2000/svg" xml:space="preserve" viewBox="0 0 72 72"><path d="M23 35.8c-.1 2.1 1.5 4 3.7 4.1h.2c2.2 0 3.9-1.7 3.9-3.9s-1.7-3.9-3.9-3.9c-2.1 0-3.8 1.6-3.9 3.7m-14.5-1c-.7 0-1.3.5-1.3 1.2s.5 1.3 1.2 1.3 1.3-.5 1.3-1.2-.5-1.2-1.2-1.3M21.6 11c-.6.3-.9 1.1-.5 1.7.3.6 1.1.9 1.7.6s.9-1.1.5-1.7c-.3-.6-1.1-.9-1.7-.6m5.1 9.2c1-.5 1.3-1.6.9-2.6-.5-1-1.6-1.3-2.6-.9-1 .5-1.3 1.6-.9 2.6.5.9 1.6 1.3 2.6.9m-13.3 4.7c.7.5 1.7.3 2.2-.5.5-.7.3-1.7-.5-2.2-.7-.5-1.7-.3-2.2.5-.4.7-.2 1.7.5 2.2m2.4 9.2c-1.1-.1-2 .8-2 1.8-.1 1.1.8 2 1.8 2 1.1.1 2-.8 2-1.8.1-1-.7-1.9-1.8-2m-2.2 13c-.8.4-1.1 1.4-.7 2.2s1.4 1.1 2.2.7 1.1-1.4.7-2.2-1.4-1.1-2.2-.7m7.6-17c1.1.7 2.5.4 3.2-.7s.4-2.5-.7-3.2-2.5-.4-3.2.7-.4 2.5.7 3.2M45.1 20c.9.6 2.1.3 2.7-.5.6-.9.3-2.1-.5-2.7s-2.1-.3-2.7.5c-.7.9-.4 2.1.5 2.7m3.9-6.8c.6.4 1.4.2 1.7-.4.4-.6.2-1.4-.4-1.7-.6-.4-1.4-.2-1.7.4-.3.5-.1 1.3.4 1.7m-4.1 26.6h.2c2.1 0 3.9-1.7 3.9-3.9 0-2-1.6-3.8-3.7-3.9s-4 1.5-4.1 3.7 1.6 4 3.7 4.1m-9.6-11.7c0-.6-.1-1.2-.4-1.7-1-1.9-3.3-2.7-5.2-1.7S27 28 28 29.9c.7 1.3 2 2.1 3.5 2.1 2.1 0 3.8-1.8 3.8-3.9m23.1-3.2c.8-.4 1.1-1.4.7-2.2s-1.4-1.1-2.2-.7-1.1 1.4-.7 2.1c.4.8 1.3 1.2 2.2.8m-7.8 5.3c1.1-.6 1.6-1.9 1-3.1-.6-1.1-1.9-1.6-3.1-1-1.1.6-1.6 1.9-1 3.1.6 1.1 1.9 1.5 3.1 1M34.3 10.9c0 .9.6 1.6 1.5 1.7.9 0 1.6-.6 1.7-1.5s-.6-1.6-1.5-1.7c-.8-.1-1.6.6-1.7 1.5m3.9 9.6c.1-1.3-.9-2.3-2.2-2.4s-2.3.9-2.4 2.2.9 2.3 2.2 2.4c1.3 0 2.4-1 2.4-2.2M23.5 45.9c1.1-.6 1.6-1.9 1-3.1-.6-1.1-1.9-1.6-3.1-1-1.1.6-1.6 1.9-1 3.1.6 1.1 2 1.6 3.1 1m14.9-14.6c1.8 1.2 4.2.7 5.4-1.1s.7-4.2-1.1-5.4c-.6-.4-1.4-.6-2.1-.6-1.3 0-2.5.7-3.2 1.7-1.3 1.8-.8 4.2 1 5.4m5.7 10.9c-1-2-3.3-2.7-5.2-1.8-1.9 1-2.7 3.3-1.7 5.2s3.3 2.7 5.2 1.7c1.8-.9 2.6-3.2 1.7-5.1m6.7-.3c-1.1-.7-2.5-.4-3.2.7s-.4 2.5.7 3.2 2.5.4 3.2-.7.4-2.5-.7-3.2m7.5-5.8c.1-1.1-.8-2-1.8-2-1.1-.1-2 .8-2 1.8-.1 1.1.8 2 1.8 2 1 .1 1.9-.8 2-1.8m5.3-1.4c-.7 0-1.3.5-1.3 1.2s.5 1.3 1.2 1.3 1.3-.5 1.3-1.2-.5-1.3-1.2-1.3m-5 12.4c-.7-.5-1.7-.3-2.2.5-.5.7-.3 1.7.5 2.2.7.5 1.7.3 2.2-.5.4-.7.2-1.7-.5-2.2M23 58.8c-.6-.4-1.4-.2-1.7.4-.4.6-.2 1.4.4 1.7.6.4 1.4.2 1.7-.4.3-.5.1-1.3-.4-1.7m26.3-.1c-.6.3-.9 1.1-.5 1.7.3.6 1.1.9 1.7.5.6-.3.9-1.1.5-1.7s-1.1-.8-1.7-.5M34.7 46.1c1.2-1.8.7-4.2-1.1-5.4s-4.2-.7-5.4 1.1-.7 4.2 1.1 5.4c.6.4 1.4.6 2.1.6 1.4 0 2.6-.6 3.3-1.7M26.9 52c-.9-.6-2.1-.3-2.7.5-.6.9-.3 2.1.5 2.7.9.6 2.1.3 2.7-.5.7-.9.4-2.1-.5-2.7m9.1 7.4c-.9 0-1.6.6-1.7 1.5s.6 1.6 1.5 1.7c.9 0 1.6-.6 1.7-1.5 0-.9-.6-1.6-1.5-1.7m0-10c-1.3-.1-2.3.9-2.4 2.2s.9 2.3 2.2 2.4 2.3-.9 2.4-2.2c0-1.3-.9-2.4-2.2-2.4m9.3 2.4c-1 .5-1.3 1.7-.8 2.6.5 1 1.7 1.3 2.6.8 1-.5 1.3-1.6.9-2.6-.5-.9-1.7-1.3-2.7-.8"/></svg>