<svg xmlns="http://www.w3.org/2000/svg" xml:space="preserve" viewBox="0 0 360 180"><path d="M56.5 112.5c-.1 0-.5-.1-.9-.1-3.5-.4-7.3-1.8-10.2-3.9-4.4-3.2-7.6-7.8-8.8-13.2-.7-2.8-.8-6-.4-8.9 1.2-7.8 6.3-14.5 13.5-17.5 1.8-.7 3.6-1.2 5.7-1.5 1.2-.2 4-.2 5.2 0 2.5.4 4.6 1 6.8 2 2.4 1.2 4 2.3 6 4.4 1.8 1.8 2.8 3.2 4.1 5.5l.3.5-1 .7c-1.3 1-4.4 3.1-5.3 3.8l-.8.5-.4-.7c-.4-.9-.7-1.4-1.2-2.1-2-2.8-5-4.9-8.3-5.5-1.8-.4-3.9-.3-5.7.1s-3.8 1.3-5.3 2.6c-.6.4-1.7 1.6-2.2 2.2C45 84.7 44 89 44.9 93.3c.4 1.5 1.2 3.4 2 4.6 2.2 3.4 5.7 5.5 9.6 6 .7.1 2.4.1 3 0 3.5-.4 6.7-2.2 8.9-5 .6-.8 1.1-1.5 1.6-2.5.3-.4.4-.8.4-.8s1.6 1.2 3.6 2.5l3.5 2.5-.4.7c-.7 1.4-2 3.1-3.2 4.4-2 2.1-4 3.6-6.5 4.9-2.2 1.1-4.5 1.8-7 2-.7-.1-3.5 0-3.9-.1m30-22.9v-22H95v15.7h22.2V67.7h8.5v43.9h-8.5V92.3H95v19.3h-8.5zm47.9 18.2c1-2.1 5.3-12 9.8-22l8-18h12l9.7 21.7c5.3 11.9 9.8 21.9 9.8 22l.1.3h-10.2l-2-4.4-2-4.4h-22.8l-2 4.4-2 4.4h-10.2zm31.7-13.7c0-.2-7.7-17.4-7.8-17.4 0 0-7.4 17.2-7.5 17.5 0 0 2.9.1 7.6.1 6.5-.1 7.7-.1 7.7-.2m24.6-4.5v-22h12l9.4 13.2 9.4 13.2V67.7h8.6v43.9h-7L211.3 95c-6.6-9.1-11.9-16.5-11.9-16.5s-.1 7.5-.1 16.5v16.5h-8.6zm54.9 0v-22h30.8v8.9h-22.1v8.8h20.5v8.8h-20.5v8.8h25.3v8.7h-33.9zm45.9 0v-22h8.6v35.2H324v8.7h-32.5z"/></svg>