<svg xmlns="http://www.w3.org/2000/svg" xml:space="preserve" viewBox="0 0 360 180"><path d="M237.8 51.8s-5.4 2.1-11.7 9.1c-6.3 6.9-9.9 14.7-7.2 16.8 1 .8 3.4.9 7.8-3 4-3.5 7.2-7.9 9.2-12.8 2.7-6.9 1.9-10 1.9-10.1m34.3 12.4c-7-3.6-12.1-8-17.4-10.7-5.1-2.6-8.3-3.7-12.4-3.1-.6.1-1.1.2-1.7.4 0 0 2.1 7.2-6.3 19.3-8.5 12.3-16.2 12.2-18.4 8.8-2.3-3.6.7-10.8 5.6-17.2 5.2-6.7 14.3-12.3 14.3-12.3s-2.9-1.8-10 2.3c-7 3.9-18.9 13.3-30 29.1s-13.3 24.5-14.9 31.3-.1 14.2 7.4 14.2c7.6 0 16.4-11.6 18.9-15.6 4.6-7.5 7.7-19 1.3-17.4-3.1.8-5.6 4.2-7.2 7.5-1 2.1-1.8 4.4-2.3 6.6-2.2.9-4.3 2.1-6.1 3.6-2.1 1.5-4 3.3-5.8 5.2 0 0 0-5.5 4.4-14.3s12.4-12.9 16.9-13.3c4.1-.3 9.4 3.1 4.9 15.9s-17.8 28.3-31.8 28.5c-12.9.2-21.3-16.3-3.4-44.9 19.8-31.7 43.1-41.4 50.7-42.5s10 2.3 10 2.3c4.6-1.9 9.5-2.7 14.4-2.4 9.2.6 16.4 7.2 25.8 11.7-2.4 2.3-4.8 4.7-6.9 7m41.5-10.7c-6.4 4.1-15.2 7.8-23.7 7-2.2 2.2-4.5 4.8-6.8 7.6 14.7 2.9 27.7-6.2 34.5-14 2.5-2.8 4.7-5.9 6.4-9.2-3.1 3.3-6.6 6.2-10.4 8.6m-19.7 41.6.3-.6c-.1-.7-.7-1.2-1.4-1.3-1.4-.1-3.3.2-8.3 5.8-4.2 4.6-7.8 9.7-10.7 15.2-2.9 5.3-4 9.2-2.4 10.2.5.3 1.2.3 1.7.2 1.1-.3 2.4-1.3 4.3-3.5.9-1 1.9-2.5 3.1-4.2 3.4-4.7 11.8-18.9 13.4-21.8m-52.1 6c.8-2.2 1.9-6.5-.3-8.2-2.4-1.8-8.5 2.4-8.5 6.7 0 4.4 4.3 6.4 5.3 6.7.6.2.8.1 1.1-.3.9-1.5 1.7-3.2 2.4-4.9m-4.6 8.1q-2.25-1.05-4.2-2.7c-1.3-1.1-2.3-2.4-3.1-3.8-.1-.1-.2 0-.3.1s-.5.5-3.7 5.2-8.2 14.6-3.7 16.3c2.9 1.1 7.7-4 10.3-7.3 1.8-2.3 3.4-4.8 4.8-7.4.1-.3 0-.4-.1-.4m51.1 11.3c-1.2 2-2.6 5.7 1.4 3.4 4.9-2.8 11.9-13.5 11.9-13.5h3.2c-2.9 4.4-6.1 8.7-9.6 12.6-5 5.5-11.1 10.5-15.4 10-5-.6-3.4-7.2-3.4-7.2s-7.2 7.6-12.1 7.1c-6.7-.7-4.6-9-4.6-9s-7.6 9.3-12.7 9c-8.1-.5-6-10.3-3.8-17.2 1.2-3.7 2.3-6.6 2.3-6.6s-.8.2-2.5.5c-.9.1-2.5.2-2.5.2s-3.4 5.9-6.1 9.5-14.1 15.9-20.9 13.4c-6.2-2.3-4.2-11.8-.5-19.4 5.3-11 20.2-26.9 28.8-24.8 8.9 2.2.2 18.4.2 18.4s0 .1.1.1c.2.1.6.1 1.7-.1s2.2-.6 3.3-1c0 0 8.9-18.7 18.8-31s29.6-33.4 37.3-28.3c1.9 1.3 1 5.6-1.5 10.8-1.1.4-2.3.7-3.5.9 1.7-3.1 2.8-5.7 3.2-7.5 1.2-6.3-13.6 7-24.2 21.4-6.4 8.6-12 17.8-16.9 27.4 1.9-1.2 3.7-2.5 5.5-3.9 4.7-3.9 9.2-8.1 13.4-12.5q6.15-6.3 11.4-13.2c1.1-.1 2.2-.2 3.4-.3-3.9 5.2-8.1 10.2-12.6 14.9-4.2 4.3-8.8 8.8-12.7 12.2-3.5 3-7.3 5.8-11.2 8.3 0 0-9.2 18.6-4.2 19.8 3 .7 8.8-8.3 8.8-8.3s7.6-11.6 12.2-16.9c6.3-7.1 11.6-11.2 17-11.3 3.1-.1 5 3.3 5 3.3l1.5-2.3h9.1c-.3.2-17.3 28.9-18.6 31.1m25.3-67c-6.4 4.1-15.2 7.8-23.7 7-2.2 2.2-4.5 4.8-6.8 7.6 14.7 2.9 27.7-6.2 34.5-14 2.5-2.8 4.7-5.9 6.4-9.2-3.1 3.3-6.6 6.2-10.4 8.6M186 67.7h-8.6l-4.9 7.9h8.6zM145.1 95c3.7-5 13.8-22.7 13.8-22.7-.1-.7-.7-1.2-1.3-1.3-1.4-.1-3.7.4-8.4 6.2-4.6 5.8-8.3 10.5-10.9 15.3-2.9 5.3-4.1 9-2.5 10 .5.3 1.2.3 1.7.2 1.1-.3 2.5-1.4 4.4-3.6 1-1.1 2-2.5 3.2-4.1M98.7 71.1c-2.4-1.8-8.5 2.4-8.5 6.7 0 4.4 5.5 5.8 6.2 5.8.2 0 .4 0 .6-.1l.3-.3c.6-1.3 1.2-2.6 1.7-3.9.9-2.2 2-6.5-.3-8.2m-3.6 15.2c-1.6-.5-3.2-1.2-4.7-2.2-1.4-.9-2.6-2.2-3.3-3.7-.1-.1-.2 0-.3.1s-.6.7-3.8 5.5-8.1 14.5-3.6 16.2c2.9 1.1 7.7-4 10.4-7.3 2-2.6 3.8-5.3 5.5-8.2.1-.2 0-.3-.2-.4m70.6 3h3.2s-15.9 22.9-24.8 21.9c-5-.6-3.5-6.8-3.5-6.8s-7 8.2-13.5 6.6c-5.9-1.5-2.1-11.2-2.1-11.2-.7.3-13.3 14.5-22.2 11.1-9.3-3.6-4.5-15.5-2.7-19.1 1.5-3 3.2-6 3.2-6s-1.4.4-2.3.6-2.2.5-2.2.5-4.4 7.2-7.1 10.7-14.1 15.8-20.9 13.4-5.2-12-1.4-19.4c6.1-12.2 20.7-27.1 29.5-24.8 8.9 2.3 1.5 16.6 1.5 16.6s1.8.2 6-2.7c6.1-4.2 14.1-15.3 22.8-14 4.1.6 7.9 4.8 2.7 12.8-1.7 2.6-4.5 4.8-6.6 2.6-1.3-1.4-.2-4 1.2-5.7 1.1-1.5 2.9-2.3 4.7-2.1 0 0 1.4-3.3-2.2-3.2-3 .1-10.5 7-14.7 13.9-3.9 6.4-9.8 17.3-3.9 19.7 5.4 2.2 15.7-10 20.5-16.4s15.6-20.9 24.7-21.5c3.1-.2 5 2.7 5 2.7l1.1-1.7h9.1s-17.2 28.6-18.5 30.8c-1.1 1.7-2.5 5.5 1.4 3.4s12-12.7 12-12.7m-5 45.9c-6.7-4.6-14.7-7-22.9-6.7-4.5.1-8.6 2.4-11.2 6.1-3.5-6.1-10.3-9.8-21-9.7-17.2.2-34.2 8.1-47.7 8.1-12.9 0-22.3-8.1-22-22.5.7-25.4 22.1-48.2 38-58.5 9.2-5.9 16.9-7.6 21.9-7.1 3.7.4 8.1 4.6 5.3 10.9-4.1 9.1-9.7 8.4-9.5 4 .1-2.8 2-4.6 3.4-5.6.9-.6 2.5-.8 3.3-.8.8-.7 1.4-5.7-5.2-4S78.6 57.5 71 65.9c-7.6 8.3-19.3 24.1-22.2 40.7-1.4 7.7-.5 21.7 17.8 21.5 15.5-.1 38.2-10.3 59.2-10.1 8.1.1 15.2 2.3 20.7 5.7 5.5 3.3 12 8.1 14.2 11.5"/></svg>