<svg xmlns="http://www.w3.org/2000/svg" xml:space="preserve" viewBox="0 0 72 72"><path d="M50.1 43.6h.8l.2-.1.2-.1.2-.1.2-.1.2-.1.2-.1h.2l.2-.1h.2l.2-.1h2l.2.1h.6l.2.1h.4l.2.1.1.1.2.1.2.1.2.1h2.6l.2-.1.2-.1h.4l.2-.1.2-.1.2-.1h.2v-.1l-2 .1-.1-.1-.2-.1-.1-.1-.2-.1-.2-.1h-.2l-.1-.1h-.2l-.2-.1-.2-.1-.2-.1-.2-.1h-.2l-.2-.1h-.2l.3.1h-.4l-.2-.1H56l-.2-.1H53l-.2.1h-.4l-.2.1H52l-.2.1h-.4l-.1.1h-.2l-.2.1-.1.1-.2.1-.2.1-.2.1.8.3h-.2l-.2.1-.1.1-.1.1-.2.1-.2.1-.2.1zm-4.6 3.1h2l.2.1h.2l.1.1h.2l.2.1.2.1.2.1h2.4l.2-.1h.4l.2-.1.2-.1.1-.1h.2l.2-.1h.4l.2-.1h2.8l.2.1h.2l.2.1h.2l.2.1h.2l.2.1h.2l.2.1h2.6l.2-.1h.2l.2-.1h.2L59 47l.2-.1h.2l.2-.1h3.2l.2.1h.2l.2.1h.2l.2.1.2.1h.2l.2.1h.4v-.1l-.1-.1-.1-.2-.1-.1-.1-.2-.1-.1-.1-.1-.1-.2L63 46l-.1-.1-.1-.2-.1-.1-.1-.1-.1-.1-.1-.1-.1-.1-.2-.2-.1-.2-.1-.1-.1-.1-.1-.1-.1-.1-.1-.1-.1-.1-.1-.1-.3-.1h-.8l-.2.1h-.4l-.2.1-.2.1-.2.1h-.2l.2.1h-.2l-.2.1-.2.1h-3.2l-.2-.1h-.2l-.1-.1h-.2l-.1-.1.6-.1h-.6l-.2-.1H52l-.2.1h.2-.4l-.2.1-.2.1-.2.1h-3.6l.6.1-.1.1-.1.1-.2.1h-.1l-.1.1-.1.1-.3.1-.1.1-.1.1-.1.1-.2.1-.1.1-.1.1-.2.1-.2.1-.1.1-.1.1-.1.1-.1.1-.1.1v.1zm19.3 4.5v-1l-.1-.2v-.2l-.1-.2v-.2l-.1-.2V49l-.1-.2v-.2l-.1-.2-.1-.2-.1-.2h-1.2l-.1-.1h-.2l-.2-.1h-.2l-.2-.1h-.2l.4.3h-1l-.2-.1h-1.2l.1.1h-.2l-.2.1-.2.1-.2.1-.1.1h-.2l-.2.1h-2.4l-.2-.1h-.6.6-.4l-.2-.1h-.2l-.2-.1v-.1h-.6V48h-.2l-.2-.1h-2.2l-.2.1-.2.1h-.2l-.1.1h-.4l-.2.1h-.2l-.2.1h-.4l-.2.1h-1.2.7-1.2l-.2-.1-.2-.1h-.2l-.2-.1h-.2l.2-.2h-2.1l-.2.1h-.4l-.1-.1h-.4l-.2.1-.2.1-.2.1-.2.1-.2.1.2.1-.1.1-.1.1-.1.1-.3.1-.1.1-.1.1-.2.1-.1.1-.1.1-.1.1-.1.1-.1.1-.2.2-.1.1-.2.2-.1.1-.1.1-.1.1-.1.1-.2.1-.1.1-.1.2-.2.1.2.1.2.1h.2l.2.1.2.1h1.2l.2-.1h.8-.2l.2-.1.2-.1h.4l.1-.1h.2l.2-.1h.2l.2-.1h2.4l.2.1h.8l.1.1.2.1h.2l.2.1h.2l.2.1.2.1h.2l.2.1h.6l.2.1h1l.2-.1.2-.1h.2l.2-.1.2-.1h.6l.2-.1h.8l.2-.1h1l.2.1h1l.2.1.2.1.2.1h.2l.2.1h.2l.2.1.2.1.2.1H61l.2-.1h.6l.2-.1.1-.1.2-.1h.4l.2-.1h3.4l.2.1.2.1.2.1.2.1h.2l.2.1.2.1.2.1H64h.2l.2.1h.4zM29.1 28.1l.2.2.1.1.1.1.1.1.1.1.2.1.1.2.1.1.2.2.2.2.2.2.2.2.2.2.2.2.1.1.1.2.1.1.2.1.1.1.1.1.2.2.2.2.1.1.1.1.1.1.1.1.2.1.2.2h.1l.1.1.2.2.2.2.1.1.1.1.1.1h.1l.2.1.1.1.1.1.1.1.2.2.1.1v.4l.2.2h.1l.1-.1v-4.8l-.2-.2-.1-.1-.1-.1-.2-.1-.1-.2h-.1l-.1-.1-.2-.1-.1-.1-.1-.2-.1-.2-.1-.1-.2-.2-.1-.1-.2-.1-.1-.2-.1-.1-.1-.2-.1-.1-.1-.2-.2-.2-.1-.1-.2-.1-.3-.2-.1-.2-.1-.1-.1-.1-.2-.2-.1-.1-.1-.1h-.2l-.2.1-.1.1-.1.1-.1.1-.2.4h-.1l-.1.1v.1l-.1.1-.1.2-.1.2-.2.2-.1.1-.1.2-.2.2v.1l-.1.1-.1.2v.1zm3-3.8.2.2.1.1.2.2v.1h.1l.1.1.1.1.2.2.2.1.1.2.1.1.1.1.1.1.1.1.1.1.1.2.1.1.1.1.1.1.1.1.1.1.2.1.2.1.1.1.1.1.2.1.1-.2v-6.6l-.1-.1-.1.1-.1.1H35v.1l-.2.2-.1.1-.2.1-.1.2-.1.1-.1.2-.1.1H34l-.2.3-.2.2-.1.1-.1.2-.1.1-.3.2-.2.2-.2.2-.1.2-.1.2-.1.1-.2.2-.1.2zm4.6 1.9v.8l.1.1h.2l.2-.2.2-.1.1-.1.1-.1.1-.1.2-.1.2-.2.2-.2.1-.1.2-.2.2-.2.1-.1.2-.2.1-.1.2-.2.2-.2.2-.2.1-.1.1-.2.2-.2H40l-.1-.1-.1-.2-.2-.2-.1-.2-.1-.2-.2-.1h-.1l-.1-.1-.1-.2-.1-.1-.1-.1-.2-.2-.1-.1-.1-.1-.2-.2-.2-.2-.2-.2-.2-.2-.2-.2-.2-.2-.1-.1-.1-.1-.1-.2h-.2l-.1.1v5.3zm-1.3 18.3v-.6l-.1-.2v-.1l-.1-.1-.2-.1-.1-.1-.1-.2-.1-.1-.2-.2-.1-.1v-.1h-.1l-.1-.1-.1-.1-.1-.1-.1-.1-.2-.1-.1-.2-.1-.1-.1-.1-.1-.1-.1-.1-.2-.1-.1-.1-.1-.1-.1-.1-.1-.1-.2-.2-.2-.2-.1-.1H32l-.2-.2-.2-.1-.2-.2h-.1l-.2-.1-.1-.2-.1-.1-.1-.1-.1-.1-.2-.1.1-.3-.1-.1-.1-.1-.1-.1-.3-.2-.1-.1-.2-.1h-.1l-.1-.1V38l-.1-.2-.1-.1-.1-.1-.1-.2-.1-.1-.1-.1-.4-.2-.1-.1-.1-.1-.2-.1-.1-.1-.1-.2-.1-.1-.3-.3-.1-.1-.1-.1-.1-.1-.1-.1-.1-.2-.1-.1-.1-.1-.2-.2-.2-.1-.1-.1-.1-.2H26l-.1.2v1.5l.1.2v2.2l.1.2.1.1.1.3v.2l.1.1.1.2v.1l.1.2.1.2.1.2v.1l.1.1v.1l.1.2.1.2.2.2.1.2.1.1v.1l.1.2.1.2.1.2.2.2.1.2.2.2.1.1h.1l.1.1.1.1.2.1.1.1.2.1.1.1.2.2.1.1.1.1.2.1.2.1.2.1.2.1.1.1.2.1.1.1.1.1h.1l.1.1.1.1.1.1.1.1h.1l.2.1.2.1.2.1.1.1h.2l.2.1h.1l.2.1h.1l.1.1.2.1h.4l.1.1H35v-.1l.1-.2v-1zm1.3-11.3v.8l.1.1h.1l.1-.1.2-.1.1-.1.2-.2.2-.2.2-.2.2-.2.2-.2.1-.1.1-.1.1-.1.1-.1.1-.2.1-.1.1-.1.2-.2.1-.1.1-.1.1-.1.1-.1.1-.1.1-.1v-.1l.1-.1.2-.1.1-.1.1-.1.2-.2v-.1l.1-.1.1-.1.2-.1.1-.1h.1l.1-.1.1-.1.1-.1.1-.1.2-.1.1-.1.1-.1.2-.2.1-.1.2-.2.1-.1.1-.1.2-.1v-.3l-.1-.2v-.1l-.2-.2-.2-.2-.1-.1-.1-.2-.1-.2v-.4l-.1-.1-.1-.1-.2-.2-.1-.2-.1-.2-.1-.1-.1-.2-.2-.2-.2-.1-.1.1h-.1l-.2.2-.2.2-.1.1v.1l-.1.1h-.1l-.1.1-.1.2-.1.1-.2.1-.1.1-.1.1-.2.2-.1.1v.1l-.1.1-.1.1-.1.1-.2.1-.2.2-.2.2-.1.1-.1.2-.1.1-.1.1-.1.1-.1.1-.1.1-.1.1-.1.1-.1.1v-.1l-.1.1-.1.1-.1.1zm9.6 2.9v-1.3l-.1-.2-.1-.1-.2.1-.2.1-.2.2-.1.1-.1.1-.1.1v.1l-.2.2-.2.2-.1.1-.1.2h-.2l-.1.1-.1.1-.1.1-.1.1-.1.1-.1.1-.1.1h-.1l-.2.2-.1.1-.1.1-.1.1-.1.1-.1.1-.2.2-.3.4-.2.1h-.1l-.1.3-.1.1-.1.1-.1.1-.1.1-.2.2-.1.1-.1.1-.2.1-.2.2-.2.1-.1.4-.1.1-.2.2-.1.1-.1.1-.1.1-.1.1-.1.1-.3.2-.1.1v.1l-.1.1-.1.1-.1.1-.1.1-.2.1-.3.3-.2.2-.1.1-.1.1-.1.1h-.1l-.2.2-.2.3-.1.1-.1.1-.2.1v.1l-.2.2-.1.1-.1.1v1.8l.1.1v.1l.1.2h.5l.2-.1h.7l.1-.1.2-.1h.2l.2-.1h.3l.2-.1h.2l.2-.1.2-.1.2-.1.1-.1.2-.1.2-.1.1-.1.2-.2.1-.1.2-.1h.2l.1-.1.1-.1.2-.1.2-.1.2-.1.2-.1.2-.1.1-.1.1-.1.1-.1.2-.2.1-.1.1-.1.1-.2.2-.1.1-.2.1-.1.1-.1.1-.2.1-.2.1-.1.1-.1.1-.1.1-.1v-.2l.1-.1.1-.2.1-.1.1-.2.1-.2.1-.1.1-.2v-.1l.1-.1.1-.2.1-.1.1-.2V39l.1-.2.1-.2v-1l.1-.2v-.7zm-9.6 5.5.1.1h.1l.1-.1.1-.1.2-.1.1-.1.1-.2.1-.1.1-.1.2-.2.1-.1.1-.1.1-.1.1-.2.1-.2.2-.1.1-.1.1-.1.1-.2.1-.1.1-.1.1-.1.2-.2.2-.1.1-.1.1-.1.1-.2.1-.1.2-.1.2-.1.1-.1h.1l.2-.2.1-.1.1-.1.2-.2.2-.2.2-.2.1-.1.1-.2.1-.1h.1l.1-.1.1-.1.1-.1.1-.1.1-.1.1-.1.1-.1.1-.1.1-.1.2-.1v-.1h.1l.2-.2.2-.2.1-.1.1-.1.1-.1.2-.2.1-.1.1-.1.1-.1.1-.2.1-.1.1-.1.1-.2h.1l.2-.1.1-.2.1-.1.2-.1.1-.1.1-.1.1-.2.1-.1.1-.2.1-.2v-.1l-.1-.2-.1-.2v-.1l-.1-.2-.1-.2-.1-.1v-.1l-.1-.1-.5.3-.1-.2-.1-.2-.1-.2-.1-.2-.1-.2-.1-.2-.1-.2h-.1l-.1-.2-.1-.2-.1-.1v-.1l-.2-.1-.2.1-.1.1-.1.2-.1.1-.1.1H43l-.2.2-.2.2-.1.1-.1.1-.2.2-.2.3h-.1l-.1.1-.1.1-.1.1-.1.1-.2.2-.1.1-.1.1-.1.3-.2.1-.1.1-.1.2-.1.1-.1.1v.1l-.1.1-.4.1-.1.1-.1.1-.2.1-.1.1-.1.1-.1.1-.2.2v.2l-.1.1-.2.2-.2.2-.1.1-.1.1-.1.1-.1.1H38l-.1.1v.1l-.2.2-.2.2-.1.1-.1.2-.1.1-.2.2-.1.1v.2l-.1.2v2.2l-.1.2v1.3l-.1.2v1.2zm-1.3-.7v-4.4l-.1-.2-.1-.3H35v-.1l-.1-.1-.1-.2-.2-.1-.1-.2-.2-.1-.1-.1-.1-.1-.1-.1h-.1l-.1-.1-.1-.1v-.1l-.1-.1-.1-.1-.1-.1-.2-.1-.1-.2-.1-.1-.1-.1-.1-.1-.2-.1-.2-.1-.1-.2-.1-.1-.1-.2-.1-.1-.1-.2-.1-.1-.2-.2-.1-.1-.2-.2h-.1l-.2-.2-.1-.2h-.1l-.1-.2-.2-.1-.1-.1-.1-.1-.2-.2-.2-.2-.1-.1-.1-.1-.2-.1-.1-.2-.1-.1-.1-.2v-.1H29l-.1-.1-.1-.1-.2-.1-.1-.1-.1-.1h-.2l-.1.1H28l-.1.2v.2l-.1.1-.1.1-.1.2-.1.2-.1.1-.1.2v.1l-.1.1-.1.2-.1.2-.1.2v.2l-.1.1-.1.2-.1.1-.1.2-.1.1-.1.2-.1.2.1.3.1.2.1.1.1.2.1.1.1.1.2.1.1.1.1.1.2.2.2.2.2.2.2.2.2.2.1.1.1.1.1.1.1.2h.1v.1l.2.2.1.2.1.1.1.2.1.1.1.1.1.1.1.1.1.2.1.1.2.1.1.1.1.2.2.1.1.1.1.1.1.1.1.2.1.1.1.1.1.1.1.1v.1l.1.1.1.1.1.1.1.2.1.1.1.1.2.2.1.1.2.1.1.1.1.1.1.1.1.1.1.1.2.2.2.2.1.1v.1l.1.1.1.1.1.1.2.2.1.1.2.1.2.1.1.2.1.1.1.1.1.1.1.1.2.1v.1l.2.1.1-.2V42zM19 49.3l.1-.1v-.1l.2-.2.1-.1.1-.1.1-.1.1-.1.2-.1.1-.1.2-.2.1-.1.1-.1v-.1l.2-.2.2-.2.2-.2.1-.1.1-.1.1-.1.1-.1.1-.2.1-.1h.1l.2-.2.2-.2.2-.2.1-.1.1-.1.1-.2.1-.1.1-.1.1-.1.2-.2v-.1l.1-.1.1-.1.1-.2.2-.1.1-.1.1-.1.1-.2-.1-.2-.2-.1-.2-.1-.3.4-.1-.1-.2-.1-.2-.1h-.1l-.2-.1-.2-.1H22l-.1-.1-.2-.1-.2-.1-.2-.2-.2-.1H21l-.1-.1-.2-.1h-.1l-.2-.1-.2-.1h-.3l-.1.1-.1.1-.2.2v.1l-.1.1-.1.1-.1.2-.2.1-.1.1-.2.2-.2.2-.2.2-.1.1-.2.3-.1.1-.2.2-.1.2-.2.1-.1.1-.1.1-.2.2-.2.2-.3.2-.2.2h-.1l-.1.1-.1.2h-.1l-.1.2-.2.1v.2l-.1.1-.2.2-.1.2-.1.1-.1.1-.2.2-.1.1h-.2l-.1.1h-.1l-.2.2-.1.2v.1l-.1.1-.1.1-.1.1-.1.1-.1.1-.1.1-.1.1-.2.2-.1.1-.1.1-.1.1-.2.2-.1.1-.1.1-.2.2-.1.1H12l-.1.1-.1.1-.1.2-.1.1h-.1l-.1.2v.2l.1.1h2.6l.2.1h1.5l.2-.1h.7l.2-.1h.2l.2-.1.1-.1.1-.1.1-.1.1-.2.1-.1.1-.1.1-.1.1-.1.1-.1.1-.1.2-.2.1-.1.1-.1.1-.2.1-.1.1-.1.2-.2zm7 0 .1-.2.2-.1.1-.1.1-.1.1-.1.2-.2.2-.2.2-.2.2-.2.1-.2.1-.1.2-.1.1-.2-.1-.2-.2-.1-.1-.2-.1-.1-.2-.1-.2-.2h-.1l-.2-.1-.2-.1-.3-.2-.1-.1H26l-.2-.1-.2-.2-.1-.1-.1-.1-.2-.2h-.1l-.1.1-.1.1-.1.1-.1.1-.2.2-.1.1-.1.1h-.2l-.1.1-.1.1-.2.2-.1.1-.1.2-.1.1-.3.2-.1.3-.1.1-.1.1-.1.1-.2.2-.2.2-.2.1-.1.1-.2.1-.1.1-.2.1-.2.2-.1.1v.2l-.2.2-.2.2h-.1l-.2.1-.2.2-.2.2-.1.2v.1l-.1.1-.1.1-.1.1-.1.1h-.1l-.1.1v.1l-.1.2-.1.1-.1.1-.1.1-.1.2.2.1h4.8l.2-.1h.1l.1-.2.1-.1.1-.1V51l.1-.1.1-.2.2-.1.2-.1.1-.1.2-.2.2-.2.1-.1.1-.1h.1l.1-.1zm6.6 2-.1-.1-.1-.1-.2-.1-.1-.1-.1-.2-.2-.1-.1-.1-.2-.2-.2-.2-.2-.2-.2-.2-.1-.1-.1-.1-.1-.1-.2-.2-.2-.2-.1-.1-.1.1-.2-.2-.2-.1-.2-.2-.1-.1-.1-.1-.2-.1-.2.1-.1.2-.2.1-.1.1h-.1l-.1.1-.1.1v.1H28l-.2.1-.1.2-.1.2-.1.1-.1.1-.1.1-.1.2H27l-.1.1-.1.2-.1.1-.2.2-.1.1-.1.1-.3.1-.1.2-.1.1-.1.1v.2l.1.1h6.5l.1-.1zm-21.2-2 .2-.1.1-.1.1-.1.1-.1.1-.1.1-.1.1-.1.1-.1v-.1l.1-.1.1-.2.2-.1v-.1l.2-.2.1-.1.1-.1.2-.1.1-.1.1-.1.1-.1.1-.1.1-.1.1-.1.1-.1.2-.1.1-.1.1-.1.1-.1.1-.1.1-.1.1-.1.1-.1.1-.1.1-.1.2-.1.1-.1.1-.1.2-.1.1-.1.1-.2.1-.1.1-.1.1-.1.1-.1.1-.1.2-.2.2-.2.1-.1.1-.1.2-.1.2-.2.2-.2h.1l.1-.1.1-.1.1-.1.1-.2.1-.1.1-.1.1-.1.1-.2.1-.1.1-.1.1-.1.1-.2-.5.1h-3.2l-.1.1-.2.1-.3.1-.1.1h-.2l-.1.1H14l-.2.1h-.2l-.2.1h-.2l-.4.3-.2.1-.2.1-.2.1-.1.1-.2.2-.2.1-.1.1h-.1l-.1.1-.2.1-.1.1H11l-.1.2-.1.1h-.1l-.1.1-.2.2-.2.2-.1.1-.1.1-.1.1-.1.2-.1.1v.1l-.2.2-.1.1v.1l-.1.1-.1.1-.2.1v.1l-.1.2-.1.2-.1.2-.1.2v.1l-.1.2-.1.2-.1.2-.1.1h-.1l-.1.2v.2l-.1.2v.1l-.1.2-.1.2-.1.3-.1.2-.1.2v.4l-.1.1v.6l-.1.3v.2h.1l.1.1h1.5l.1-.1h.1l.2-.1.2-.1.1-.1.1-.1.1-.1.2-.1.1-.1.1-.1.1-.1.2-.2.2-.2.1-.2.1-.1.1-.1.1-.1.1-.1z"/></svg>