<svg xmlns="http://www.w3.org/2000/svg" xml:space="preserve" viewBox="0 0 2500 1679"><path d="M938 939.5 937 686l242.7-90.1-244.5-80.1-5.1-249.8-148.3 201.6-242.6-74.8L680 604.4l-137.5 212L782 737z"/><path d="M968.3 1206h434.8L1948 603.4 1400.5 0H969.8L1482 602.5zM0 1530.4c0-78.3 66.2-155.3 156.7-155.3 61.6 0 130.8 69.5 130.8 69.5l-74.9 43.6s-12.4-32.7-58.6-32.7c-47 0-74.6 38.6-74.9 73.6-.4 39.1 31.7 73.6 72.2 73.6 31.8 0 65.4-34.1 65.4-34.1l64 46.3s-47.9 58.6-128.1 58.6C72.3 1673.5 0 1625.1 0 1530.4m467.3-151.3c-84.3 0-152.5 67.3-152.5 150.1S383 1679 467.3 1679 620 1611.9 620 1529.2c0-82.8-68.4-150.1-152.7-150.1m0 75c42.1 0 76.4 33.7 76.4 75.1s-34.2 74.8-76.4 74.8c-42.1 0-76.1-33.4-76.1-74.8s33.9-75.1 76.1-75.1m210-70.8v280.6h73.5v-151.6L872 1663.9h72.4v-280.6h-73.7v164l-119.9-164zm327 0 99.2 280.6h109.3l99.2-280.6h-80.4l-73.5 222.8-73.5-222.8zm360.4 0v280.6h225.7v-64.7h-152.2v-46.9H1575V1495h-136.8v-44.8h152.2v-66.8zm909.6 0v280.6H2500v-64.7h-152.2v-46.9h136.8V1495h-136.8v-44.8H2500v-66.8zm-600.9 5.3v276.6h65.2v-109h37.4l57.3 109h84.1l-56.8-118.3c73.8-44.2 59.2-136.8-23.1-158.3zm63.9 66.8h75.3c26.2 0 24.5 40.6 0 40.6h-75.3zm219.3 171.1c2.9 17.3 71.3 50.1 138.7 50.1 62 0 111.8-29.8 111.8-88.8 0-72.6-84.8-89.4-84.8-89.4s-70.4-1-72.3-33.7c-.9-15.4 20.6-24.1 39.5-24.1 30.9 0 65.5 30.8 65.5 30.8l49.1-53s-62.2-49.1-114.7-49.1c-50.1 0-121.4 32.8-121.4 101.2 0 58.2 82.5 84.9 82.5 84.9s87.1 9.3 87.1 36.5c0 18.5-31.6 24.1-50.1 24.1-45 0-82.9-39.5-82.9-39.5z"/></svg>