<svg xmlns="http://www.w3.org/2000/svg" xml:space="preserve" viewBox="0 0 360 180"><path d="M36 90.2c0-9 7.6-17.9 18-17.9 7.1 0 15.1 8 15.1 8l-8.6 5.1s-1.4-3.7-6.8-3.7-8.6 4.4-8.6 8.4c-.1 4.5 3.6 8.4 8.4 8.4 3.6 0 7.6-3.9 7.6-3.9l7.4 5.3s-5.5 6.8-14.8 6.8c-9.3.1-17.7-5.5-17.7-16.5m53.9-17.8c-9.7 0-17.6 7.7-17.6 17.3s7.8 17.2 17.6 17.2 17.6-7.7 17.6-17.2c0-9.6-7.9-17.3-17.6-17.3m0 8.6c4.9 0 8.8 3.9 8.8 8.6 0 4.8-3.9 8.6-8.8 8.6s-8.8-3.8-8.8-8.6c0-4.7 3.9-8.6 8.8-8.6m24.1-8.2v32.4h8.4V87.6l14 17.5h8.4V72.8h-8.5v18.9l-13.8-18.9zm37.7 0 11.4 32.4h12.6l11.4-32.4h-9.2l-8.4 25.7-8.5-25.7zm41.5 0v32.4h26v-7.5h-17.5v-5.4h15.7v-6.6h-15.7v-5.2h17.5v-7.7zm104.8 0v32.4h26v-7.5h-17.5v-5.4h15.7v-6.6h-15.7v-5.2H324v-7.7zm-69.2.6v31.8h7.5V92.7h4.3l6.6 12.5h9.7l-6.6-13.6c8.5-5.1 6.8-15.7-2.7-18.2zm7.4 7.8h8.7c3 0 2.8 4.7 0 4.7h-8.7zm25.2 20.8c.4 2 8.2 5.8 16 5.8 7.1 0 12.9-3.5 12.9-10.2 0-8.4-9.8-10.3-9.8-10.3s-8.1-.1-8.4-3.9c-.1-1.8 2.4-2.8 4.5-2.8 3.6 0 7.6 3.6 7.6 3.6L290 78s-7.2-5.7-13.2-5.7c-5.8 0-14 3.8-14 11.6 0 6.7 9.5 9.8 9.5 9.8s10 1.1 10 4.2c0 2.1-3.6 2.8-5.8 2.8-5.2 0-9.5-4.5-9.5-4.5z"/></svg>