<svg xmlns="http://www.w3.org/2000/svg" xml:space="preserve" viewBox="0 0 360 180"><path d="M176.8 135.3c-13.7-.5-27.8-3.8-42.2-10-5.9-2.5-12.1-5.6-18.4-9.2-4.2-2.4-13.7-8.2-14.2-8.7-.3-.3-.5-.6-.5-1 0-.8.6-1.4 1.4-1.4.4 0 .5 0 1.5.7 4 2.5 9.5 5.3 14.9 7.6 25.1 10.6 54.8 14.4 83.3 10.5 19.5-2.7 38.2-8.9 52.8-17.6 2.1-1.3 2.3-1.3 2.9-1 .9.4 1.1 1.5.4 2.2-.3.3-.6.5-5.4 3.5-12.8 7.9-23.1 13.2-33.9 17.2-14.4 5.1-28.9 7.7-42.6 7.2M98.5 46.4C88.3 57.3 81.4 74.6 79.3 97.1h11.4c.3-3.9.8-7.4 1.4-11h23.1c.6 3.6 1.1 7.1 1.4 11h11.7c-2.2-22.3-8.6-39.1-19-50.6 0-.1-10.8-.1-10.8-.1m-4.4 30.2c2.2-7.7 5.4-14.6 9.4-20.7 4 6.1 7 12.7 9.6 20.7zM70.7 49.4C64.5 45.5 55 44.7 47.6 45c-7.3.3-11.4 1.1-11.6 1.1 0 0 .3.8.5 3.3.3 6 .3 11 .4 16.6.1 4.3 0 8.5 0 12.5v6.7c0 7.4-.6 12.6-.6 12.6S41.8 99 50 99c8.3 0 17-2.9 22.1-7.1 5-4.3 9.6-10.4 9.6-21.4-.1-11.1-4.8-17.2-11-21.1m-8.6 37.3c-7.3 3.4-14.5 2.1-14.5 2.1l.1-33.9s2.3-.1 5-.1 8.8.5 13.3 4.9 4.5 9.3 4.5 12.8c.1 3.4-1.1 10.9-8.4 14.2m201.2-15.4c-3.4-5.7-7.6-10.4-11.8-14.5-4.1-4.1-7.5-7.5-11.7-10.4h-9.7V97h11.4V62.5c10.5 9.2 18.2 20.7 22.8 34.5l9.8.1V46.4h-11zm-100.5-.4c-6.5-9.3-14.3-17.6-23.2-24.4h-9.3v50.6h11.1V62.5c10.5 9.2 18 20.7 22.6 34.5h9.9V46.4h-11.1zm161.1-3.6c-.3-5.8-2.1-11.1-5.7-15.6s-9.7-6.9-17.3-6.8c-7.1.1-13 2.5-17.6 7.4-4.3 4.6-6.9 11.6-6.8 20.7.1 8.7 2.3 15.1 7.7 20.4 3.8 3.7 8.8 5.6 15.5 5.6 12.7-.4 17.9-4.5 23.1-11.6l-11-2.6c-2.9 2.9-6 4.3-10 4.2-8.3-.1-12.4-5-13.9-13h35.5c.5-2.8.7-5.8.5-8.7m-35.6-.1c.4-6.6 6.5-12.7 12.9-12.7 6.6 0 12.3 4.8 12.6 12.7zm-85.9-22.5c-14.1 0-25.9 12.3-25.9 27.2s11.5 27 25.6 27 25.9-12.1 25.9-27c0-15-11.5-27.2-25.6-27.2m-.4 44.2c-8.4 0-15.3-7.6-15.3-17s6.8-17 15.3-17c8.4 0 15.3 7.6 15.3 17s-6.8 17-15.3 17"/></svg>