<svg xmlns="http://www.w3.org/2000/svg" xml:space="preserve" viewBox="0 0 360 180"><path d="M278.487 102.806c0-.503 0-1.005 2.512-1.759 2.763-.753 9.295-3.014 13.314-5.275 4.02-2.26 4.522-2.512 5.527-2.01s.753 2.01.753 3.266v10.802c1.507-2.512 6.28-10.3 10.048-12.56 3.015-1.759 4.02-2.01 5.778-2.01 2.261 0 7.536 1.256 7.788 6.783.25 4.27-3.015 6.028-5.025 5.777-1.507-.25-2.763-1.758-3.768-3.265s-2.512-2.512-4.019-2.01-10.3 6.029-10.802 14.068c-.251 5.777 0 24.115 0 24.115 0 2.764 1.005 3.769 2.261 4.522s5.778.754 7.034 1.005 1.256.502 1.256.754c0 .502 0 .502-1.256.502h-30.396c-1.005 0-1.256-.251-1.256-.754 0-.753 1.256-.753 2.26-.753 1.005-.251 6.03.251 7.537-2.261 1.005-1.759 1.005-4.522 1.005-4.522l-.252-32.154c0-2.512-.753-3.015-1.507-3.266-.753-.502-2.01-.754-4.522.251-2.26 1.005-4.019 1.759-4.27.754m-106.512 0c-.502-.754.251-1.256 2.512-2.01 2.512-.753 8.039-2.26 12.31-4.773 4.27-2.512 5.023-2.763 6.028-2.512s.754 2.01.754 3.266v41.7c0 2.261.251 3.266 1.256 4.27 1.005 1.006 3.768 1.508 7.285 1.508 1.507 0 2.01.251 2.01.754s-.503.753-1.005.753H172.98c-1.005 0-1.256-.502-1.256-.753 0-.503.502-.754 1.758-.754s6.532.502 7.788-2.512c.502-1.005.753-2.512.753-4.02v-32.908c0-2.512-2.01-3.516-4.27-3.014-2.261.502-5.276 2.01-5.778 1.005m15.324-28.889c4.019 0 7.536-3.266 7.536-7.536 0-4.02-3.266-7.536-7.536-7.536-4.02 0-7.537 3.265-7.537 7.536.252 4.27 3.517 7.536 7.537 7.536m36.425 47.227c1.507 13.565 9.546 24.116 19.594 22.357 10.048-1.758 15.072-11.304 13.816-26.628-1.256-15.574-8.792-23.362-19.343-22.357-10.802 1.005-15.574 13.063-14.067 26.628m9.797-28.889c12.811-2.512 31.15.503 35.42 20.6s-9.797 30.898-21.604 33.41-31.652.753-35.42-20.85c-3.266-19.595 10.802-31.15 21.604-33.16M81.29 142.497h7.535c27.633 0 35.17-2.513 44.967-15.575s11.053-31.652 11.053-37.933-1.759-22.106-11.556-35.42-26.125-16.83-40.444-16.83H81.289c-2.763 0-3.014 1.255-3.014 3.265v100.232c0 2.01.753 2.26 3.014 2.26m-45.217 2.513c0-1.005 1.256-1.256 2.512-1.256 14.068-.503 16.83-1.005 18.338-2.513.754-1.004 2.261-1.758 2.261-8.29V42.768c0-8.038-9.797-6.782-16.83-7.536-2.513-.251-2.764-.502-2.764-1.256s.502-1.005 1.758-1.005h57.024c62.551 0 65.817 45.72 65.817 58.03 0 26.125-17.334 55.013-53.507 55.013H37.83c-1.005 0-1.759-.25-1.759-1.004"/></svg>