<svg xmlns="http://www.w3.org/2000/svg" xml:space="preserve" viewBox="0 0 72 72"><path d="M56 17.4c-3.7-1.7-7.7-3-11.9-3.7-.5.9-1.1 2.2-1.5 3.2q-6.6-1.05-13.2 0c-.4-1-1-2.2-1.5-3.2-4.2.7-8.2 2-11.9 3.7-7.5 11.4-9.6 22.5-8.6 33.4 5 3.7 9.8 6 14.6 7.5 1.2-1.6 2.2-3.3 3.1-5.1-1.7-.7-3.4-1.5-4.9-2.4.4-.3.8-.6 1.2-1 9.5 4.4 19.8 4.4 29.1 0 .4.3.8.6 1.2 1-1.6.9-3.2 1.7-4.9 2.4.9 1.8 1.9 3.5 3.1 5.1 4.8-1.5 9.6-3.7 14.6-7.5 1.3-12.6-2-23.6-8.5-33.4M26.4 44.1c-2.8 0-5.2-2.7-5.2-5.9s2.3-5.9 5.2-5.9 5.2 2.7 5.2 5.9-2.3 5.9-5.2 5.9m19.2 0c-2.8 0-5.2-2.7-5.2-5.9s2.3-5.9 5.2-5.9 5.2 2.7 5.2 5.9c-.1 3.2-2.3 5.9-5.2 5.9"/></svg>