<svg xmlns="http://www.w3.org/2000/svg" xml:space="preserve" viewBox="0 0 72 72"><path d="M63.6 31.1c-1.3-.9-4.3-1.2-6.6-.8-.3-2.3-1.5-4.2-3.7-6l-1.2-.9-.9 1.3c-1.1 1.7-1.6 4.1-1.5 6.3.1.8.3 2.2 1.1 3.4-.8.5-2.3 1-4.4 1H7.5l-.1.5c-.4 2.3-.4 9.3 4 14.7 3.4 4.1 8.3 6.2 14.9 6.2 14.2 0 24.6-6.8 29.6-19.1 1.9.1 6.1 0 8.2-4.2.1-.1.2-.3.5-1.2l.2-.5zM38.7 15.2h-5.9v5.6h5.9zm0 6.8h-5.9v5.6h5.9zm-7 0h-5.9v5.6h5.9zm-7.1 0h-5.9v5.6h5.9zm-7 6.7h-5.9v5.6h5.9zm7 0h-5.9v5.6h5.9zm7.1 0h-5.9v5.6h5.9zm7 0h-5.9v5.6h5.9zm7 0h-5.9v5.6h5.9z"/></svg>