<svg xmlns="http://www.w3.org/2000/svg" xml:space="preserve" viewBox="0 0 72 72"><path d="M36 64.8c15.9 0 28.8-12.9 28.8-28.8S51.9 7.2 36 7.2 7.2 20.1 7.2 36 20.1 64.8 36 64.8m0-4.8c-5.5 0-10.6-1.8-14.6-4.9 2.5-3.4 9.7-12.4 19.1-14.8 2.2 5.5 4 11.5 4.9 17.8-2.9 1.2-6.1 1.9-9.4 1.9m13.8-4.4c-1-5.7-2.5-11.2-4.4-16.2 1.9-.2 3.7-.3 5.2-.3 4.3 0 7.3.6 9 1.1-1.1 6.4-4.7 11.9-9.8 15.4m5.3-34.1c2.9 3.9 4.7 8.7 4.9 13.9-2.1-.5-5.3-1-9.4-1-2.1 0-4.5.1-7.1.4-.6-1.4-1.2-2.7-1.9-4 5.4-2.1 9.1-4.8 11.5-7.1.8-.7 1.5-1.5 2-2.2M36 12c6.1 0 11.6 2.3 15.8 6-.4.6-1.1 1.4-2 2.3-2.1 2-5.3 4.4-10.3 6.2-3.4-6.3-6.7-11-8.9-14 1.7-.3 3.5-.5 5.4-.5m-10.2 2.2c2 2.6 5.5 7.4 9 13.7-9.8 2.6-18.7 2.9-22.3 2.9 1.6-7.3 6.6-13.4 13.3-16.6M12 35.7c3.2 0 13.6-.2 25-3.4.5 1.1 1.1 2.3 1.6 3.4-10.2 2.9-17.6 11.6-20.7 16C14.2 47.5 12 42 12 36z"/></svg>