<svg xmlns="http://www.w3.org/2000/svg" xml:space="preserve" viewBox="0 0 72 72"><path d="M36 7.2c15.9 0 28.8 12.9 28.8 28.8S51.9 64.8 36 64.8 7.2 51.9 7.2 36 20.1 7.2 36 7.2m-.1 7.4c-.8 3-3.5 5.7-6.3 8.4-4.2 4.2-8.9 8.9-8.9 16 0 8.4 6.8 15.2 15.2 15.2S51.1 47.4 51.1 39c0-7.1-4.7-11.9-8.9-16l-.4-.4c-2.7-2.6-5.2-5.1-5.9-8m.2 22.7c1.7 1.9 2.8 3.1 4 4.5.1.1.2.2.2.3 1.4 2 1.2 4.7-.5 6.6-2 2.1-5.3 2.3-7.4.3s-2.3-5.3-.3-7.4c1.1-1.3 2.5-2.6 4-4.3m-7-6.9.7.7 3.4 3.5c.1.1.1.4 0 .5L29.7 39l-1.2 1.5c-.5.6-.9 1.2-1.2 1.9 0 .1-.1.2-.3.2h-.1c-.3 0-.7-.7-.7-.7l-.1-.1c-.1-.1-.2-.3-.2-.4l-.1-.1c-.5-1.6-.5-3.3-.1-4.9v-.2c.4-1.3 1-2.6 1.8-3.7.5-.7 1-1.4 1.6-2.1m6.8-7.1c.9 1 1.9 2.1 2.9 3v.1c2 1.9 3.8 3.9 5.4 6.2 1.4 1.9 2.1 4.2 2.1 6.5 0 1-.2 2-.5 3-.1.2-.3.3-.5.4h-.1c-.2-.1-.4-.2-.5-.4l-.2-.2c-.9-1.3-1.8-2.5-2.9-3.6l-1.4-1.5-4.5-4.8c-.8-.8-2.2-2.1-2.8-2.8 0 0 0-.1-.1-.1-.2-.2-.3-.5-.4-.7v-.1c-.1-.5 0-1 .2-1.4.1-.3.3-.5.5-.7 1-1 1.9-1.9 2.8-2.9"/></svg>