<svg xmlns="http://www.w3.org/2000/svg" xml:space="preserve" viewBox="0 0 360 180"><path d="M152.3 92.7c-.2.3-.1.6-.1.9v13c0 1.2-.1 2.4-.5 3.5-1.1 3.7-4.2 6-8.1 5.7-4.8-.3-7.5-3.2-7.9-8.3v-35c0-3.5 1.3-6.2 4.6-7.6 3.4-1.4 6.6-.9 9.4 1.6 1.5 1.3 2.6 3.1 3.8 4.8 3.7 5.1 7.7 10 11.2 15.3.4.5.7 1.1 1.2 1.6V73.4c0-1.9.3-3.8 1.3-5.4 1.8-3.1 4.6-4 8-3.7 3.9.4 6.5 3 7.1 7 .1.9.2 1.8.2 2.7v33.6c0 3.5-1.2 6.2-4.4 7.6-3.5 1.5-6.8.9-9.6-1.6-1.8-1.6-3.1-3.6-4.5-5.5-3.9-5-8.1-9.8-11.4-15.2-.2-.1-.2-.1-.3-.2m121.1.1v.9c0 4.7 0 9.4-.1 14.1 0 1.3-.4 2.6-1 3.8-1.4 2.8-4.4 4.4-7.6 4.2-4.7-.4-7.5-3.3-7.8-8V71.7c0-3 1.4-5.3 4.1-6.6 3.1-1.4 6-1.2 8.9.6.9.5 1.6 1.3 2.2 2 4.5 6.1 9.2 12.1 13.5 18.4.5.7.9 1.4 1.5 2.4V73.1c0-2.2.5-4.4 2-6.2 2.2-2.7 5.2-3.1 8.3-2.5 3 .6 4.8 2.6 5.7 5.4.4 1.3.5 2.7.5 4.1v33.7c0 3.4-1.3 6.2-4.4 7.5-3.3 1.4-6.5 1-9.3-1.3-.4-.4-.9-.8-1.3-1.3-4.5-5.8-9.3-11.4-13.5-17.4-.6-.7-1.1-1.5-1.7-2.3.2 0 .1 0 0 0M51.9 65.2c2.9 0 6.2-.2 9.5.4 9.1 1.7 16.1 6.3 19.3 15.2 3.3 9.2 2.2 18-4.3 25.6-4 4.7-9.4 7.2-15.4 8-5.6.8-11.2.3-16.8.4-.3 0-.5-.1-.8-.1-4.4-.8-7.5-4.4-7.5-8.8V74.2c0-5 3.8-8.9 8.8-9zm.6 24.8v8.2c0 .4 0 .8.6.8 1.8 0 3.5.1 5.2-.1 4.6-.5 7.6-4 7.7-8.8 0-4.7-3-8.3-7.6-8.8-1.7-.2-3.4 0-5.1-.1-.6 0-.8.2-.8.8zm152.1-10.3c3-3.8 6-7.5 8.9-11.2 1.7-2.2 3.6-3.7 6.4-4 4.9-.5 9.5 4 9.2 8.8-.2 2.2-1.1 4.1-2.5 5.8-2.8 3.4-5.7 6.7-8.6 10-.4.5-.4.8 0 1.2 3.1 3.4 6.1 6.9 9.2 10.3 1.7 1.9 2.6 4 2.5 6.5-.2 5.4-5.6 9.6-10.6 8.1-1.7-.5-3.1-1.5-4.2-2.9-3.2-4-6.6-7.9-9.7-11.9-.1-.2-.3-.4-.4-.6-.3.2-.2.4-.2.6v7.1c-.1 4.8-3.5 8.2-8.2 8.1-4.7 0-8.2-3.4-8.2-8.1V72c0-4.8 3.6-8.1 8.3-8.1s8 3.3 8.2 8.1c-.1 2.7-.1 5.2-.1 7.7m-74.5 5.6c0 3.2.1 7.3-.1 11.3-.5 9.9-8 17.8-17.8 19-4.4.5-8.7.3-12.8-1.4-7.4-3-11.4-8.6-12.5-16.4-.1-1-.2-2-.2-3.1V72.5c0-4.9 3.5-8.4 8.3-8.4s8.2 3.5 8.2 8.6v20.9c0 2.3.8 4.2 3 5.3 3.4 1.7 7.1-.7 7.5-4.6V72.4c0-4.4 3-7.8 7.4-8.3 4.3-.4 8 2.2 8.9 6.5.1.7.2 1.3.2 2.1-.1 4-.1 7.9-.1 12.6M234.8 90V72.4c0-3.4 1.5-6.1 4.7-7.4 3.3-1.4 6.5-1 9.2 1.4 1.7 1.4 2.5 3.4 2.5 5.6 0 12.1.1 24.1 0 36.2 0 4.5-3.8 7.9-8.3 7.8-4.7-.1-8.1-3.4-8.1-8zm73.8-13.9c0-2 0-4 .4-6 .9-4.1 4.4-6.5 8.6-5.8 4.1.6 6.7 4 6.3 8.1-.4 3.4-1.3 6.7-2.7 9.8-.8 1.8-2 3.3-4 4-3.2 1.1-6.6-.5-7.8-3.7-.7-2-.8-4.2-.8-6.4"/></svg>