<svg xmlns="http://www.w3.org/2000/svg" xml:space="preserve" viewBox="0 0 360 180"><path d="M236.65 103.6c1.72-1.23 3.59-2.66 5.33-4.03 13.41-10.73 23.65-22.49 25.68-28.99.06-.21.24-.82.24-1.29 0-.67-.32-1.14-.93-1.14-6.16 0-25.91 19.67-30.68 35.59v.06zm-49.5-2.26c18.67-14.1 38.28-34.64 40.38-43.06.06-.27.12-.54.12-.8-.03-.56-.33-1.05-1.04-1.05-5.91-.01-33.27 25.23-39.46 44.91M72.52 113.73c-4.93-3.42-12.55-6.41-19.36-6.41-6.6 0-10.83 2.6-10.83 5.87 0 3.76 5.13 5.4 10.87 5.4 6.95.01 13.27-1.87 19.32-4.86m57.19-44.23c13.39-4.29 26.08-13.26 35.55-22.63 8.75-8.67 15.75-18.96 15.75-24.06 0-1.16-.83-1.86-1.89-1.86-4.05 0-11.74 5.38-22.08 15.74-8.05 8.06-17.44 19.09-27.33 32.81m199.22 32.35c-11.49 11.44-47.31 42.88-56.79 69.33l-11.74-3.03c3.84-10.96 15.4-28 28.27-41.14-2.74 1.03-5.6 1.42-7.89 1.42-3.48 0-6.18-1.05-7.81-3.02-1.16-1.42-1.76-3.27-1.76-5.48 0-.48.03-.96.1-1.51-11.31 6.89-20.4 10-29.31 10-6.93 0-12.77-3.02-15.47-8.32-11.23 5.57-21.99 8.32-30.99 8.32-8.38 0-15.13-3.32-18.23-9.36-11.35 6.38-21.01 9.36-28.69 9.36-4.42 0-7.93-1.23-10.18-3.55-1.66-1.71-2.53-4.01-2.66-6.67-7.28 4.8-17.91 10.22-28.8 10.22-11.15 0-18.62-3.83-24.43-7.62-9.26 5.13-19.44 7.62-30.21 7.62-8.14 0-21.27-3.39-21.27-15.05-.02-9.42 9.81-15.8 22.96-15.8 11.18 0 21.95 4.71 28.71 9.6 6.41-5.11 13.15-12.26 21.09-22.36-1.75.1-3.45.15-5.13.15-15.21 0-27.9-4.48-34.84-12.33-3.74-4.24-5.52-9.22-5.52-14.57 0-21.15 26.72-37.57 50.1-39.99 1.54 3.5 2.92 6.2 4.35 9.41-23.09 2.69-42.33 16.36-42.33 29.71 0 8.78 9.87 17.6 30.81 17.6 3.59 0 7.19-.35 10.74-.83 18.49-25.52 46.82-65.15 71.2-65.15 7.21 0 10.99 4.39 10.99 10.25 0 12.07-10.38 25.05-17.14 31.83-10.62 10.67-29.84 26.55-56.67 31.81-10.44 14.52-19.02 24.15-27.6 31.11 5.2 2.8 10.08 4.53 15.89 4.53 14.44 0 28.46-13.22 39.4-24.43l.39-.37 8.53 6.67-.39.47c-4.84 5.55-9.3 11.41-9.3 14.7 0 2.49 2.11 2.98 3.92 2.98 5.53 0 14.06-3.58 24.09-9.75v-.08c1.11-24.79 34.94-62.71 55.48-62.71 5.8 0 9.13 2.89 9.13 7.95 0 12.43-21.44 39.07-52.63 59.47v.02c1.61 3.47 5.33 5.14 11.63 5.14 4.92 0 14.54-2.19 25.98-8.17 1.32-12.84 8.6-26.64 17.84-36.47 9.26-9.84 19.64-16.24 28.62-16.24 5.53 0 8.8 3.04 8.8 7.83 0 10.84-12.59 29.37-42.91 48.78 1.34 2.6 3.95 4.24 8 4.24 9.03 0 24.94-9.64 37.33-21.48l8.9 6.91c-3.8 4.61-7.64 9.68-7.52 12.59.03.95.67 1.58 2.17 1.58 9.13 0 23.51-12.06 34.29-22.7zM163.61 76.99c4.03 0 7.29 3.27 7.29 7.3s-3.26 7.3-7.29 7.3c-4.05 0-7.32-3.27-7.32-7.3a7.32 7.32 0 0 1 7.32-7.3"/></svg>