<svg xmlns="http://www.w3.org/2000/svg" xml:space="preserve" viewBox="0 0 72 72"><path d="M33.125 12.738h1.623c1.588.141 3.21.565 4.551 1.482 1.623 1.058 2.752 2.752 3.21 4.621.6 2.329.353 4.798-.494 7.02-.282.777-.564 1.553-.846 2.364 1.305-.352 2.575-.952 3.492-1.94.988-1.023 1.517-2.399 1.835-3.775h7.09c-1.234 3.246-2.116 6.668-2.046 10.16.036 4.022 1.482 7.832 1.905 11.818.283 2.681.212 5.468-.564 8.079-.706 2.434-2.01 4.727-3.775 6.526-1.764 1.87-3.986 3.246-6.35 4.163-3.034 1.2-6.35 1.658-9.63 1.588-3.881-.07-7.832-.953-11.184-3.034-2.892-1.764-5.256-4.41-6.456-7.585-1.199-3.175-1.093-6.809.318-9.878 1.129-2.399 3.104-4.339 5.468-5.468 2.928-1.41 6.28-1.764 9.454-1.446.46-1.164.882-2.329 1.341-3.493-2.681-1.164-5.15-3.069-6.562-5.68-2.152-3.915-1.658-9.242 1.411-12.558 1.623-1.764 3.881-2.787 6.21-2.964m-1.8 8.22c-.529 1.2-.6 2.61 0 3.81.635 1.305 1.623 2.54 2.964 3.14.282-.635.493-1.27.74-1.905.388-1.023.847-2.011.953-3.105.141-.917 0-1.905-.6-2.61-.6-.741-1.693-1.023-2.575-.706-.67.177-1.164.741-1.482 1.376M38.7 34.752c-.529 1.481-1.093 2.928-1.623 4.374 1.623.776 3.317 1.552 4.587 2.858-.812 2.046-1.588 4.092-2.435 6.103-1.27-1.235-2.716-2.293-4.374-2.964-.917 2.4-1.764 4.763-2.681 7.162h-6.915c1.023-2.752 2.047-5.539 3.07-8.29-2.258-.071-4.551 1.093-5.786 2.998-.53.811-.847 1.764-.706 2.752.142 2.046 1.165 3.95 2.752 5.256 2.152 1.764 4.974 2.505 7.69 2.717 2.258.14 4.552.035 6.739-.706 1.94-.635 3.74-1.8 5.01-3.422 1.657-2.081 2.292-4.868 2.116-7.479-.177-2.01-.67-3.986-1.023-5.962-.424-2.222-.776-4.515-.776-6.773a22 22 0 0 1-5.645 1.376M50 19.9c3.6-2.7 5.4-4.2 6.5-6.2 1.6-2.8.6-5.2-1.4-6.1-1.9-.9-4.2-.1-5.1 1.8-.9-1.9-3.2-2.7-5.1-1.8-2.1.9-3 3.3-1.4 6.1 1.2 2 3 3.5 6.5 6.2"/></svg>