<svg xmlns="http://www.w3.org/2000/svg" xml:space="preserve" viewBox="0 0 247.02 144.28"><path d="M47.11 14.238h4c3.98.331 7.959 1.439 11.289 3.707 3.997 2.629 6.84 6.84 8.03 11.462 1.484 5.754.86 11.938-1.236 17.456-.684 1.95-1.393 3.894-2.085 5.842 3.228-.847 6.39-2.332 8.69-4.809 2.49-2.543 3.756-5.98 4.571-9.38 5.867-.032 11.734-.007 17.597-.014-3.03 8.057-5.267 16.566-5.112 25.237.057 10.009 3.704 19.506 4.7 29.4.736 6.693.525 13.576-1.394 20.067-1.76 6.068-4.97 11.723-9.367 16.26-4.402 4.607-9.902 8.085-15.822 10.382-7.588 2.96-15.804 4.085-23.914 3.916-9.674-.202-19.48-2.403-27.789-7.504-7.175-4.346-13.098-10.968-16.044-18.891-2.967-7.864-2.762-16.937.811-24.568 2.77-5.969 7.744-10.795 13.639-13.642 7.278-3.51 15.592-4.395 23.558-3.573 1.111-2.893 2.205-5.793 3.341-8.679-6.706-2.871-12.81-7.63-16.32-14.139-5.372-9.772-4.155-23.005 3.55-31.203 3.908-4.315 9.532-6.893 15.306-7.327M42.71 34.734c-1.333 2.96-1.481 6.505-.042 9.451 1.563 3.256 4.04 6.286 7.39 7.772.682-1.556 1.246-3.165 1.863-4.745.942-2.523 2.092-5.013 2.41-7.715.324-2.24-.018-4.714-1.485-6.513-1.524-1.817-4.195-2.533-6.431-1.785-1.694.543-2.981 1.955-3.705 3.535m18.338 34.287c-1.32 3.647-2.748 7.253-4.025 10.918 4.042 1.901 8.226 3.866 11.405 7.108-1.997 5.077-3.987 10.157-6.057 15.205-3.137-3.1-6.791-5.736-10.915-7.338-2.24 5.93-4.431 11.875-6.629 17.82-5.743.013-11.49.006-17.233.003 2.565-6.869 5.119-13.748 7.673-20.624-5.641-.169-11.307 2.692-14.355 7.48-1.298 2-2.085 4.42-1.757 6.818.314 5.077 2.935 9.854 6.848 13.053 5.34 4.424 12.35 6.23 19.142 6.738 5.612.385 11.362.05 16.725-1.764 4.83-1.562 9.299-4.441 12.439-8.473 4.11-5.197 5.715-12.065 5.245-18.602-.458-5.01-1.665-9.913-2.575-14.852-1.058-5.564-1.94-11.2-1.94-16.88a55 55 0 0 1-13.991 3.39M89.18 32.11c8.86-6.74 13.36-10.49 16.23-15.47 4.03-7 1.59-12.95-3.52-15.27-4.79-2.18-10.48-.13-12.7 4.57-2.22-4.7-7.91-6.75-12.71-4.57-5.11 2.32-7.56 8.26-3.52 15.27 2.86 4.98 7.35 8.74 16.22 15.47m22.9 19.16v-.07c0-7.05 5.5-12.83 13.01-12.83 4.47 0 7.16 1.2 9.75 3.4l-3.44 4.15c-1.92-1.6-3.62-2.52-6.49-2.52-3.97 0-7.13 3.51-7.13 7.73v.07c0 4.54 3.12 7.87 7.51 7.87 1.98 0 3.76-.5 5.14-1.49v-3.55h-5.49v-4.72h10.78V60.1c-2.55 2.16-6.06 3.94-10.6 3.94-7.72-.01-13.04-5.43-13.04-12.77m27.41 2.94v-.07c0-5.43 3.87-9.89 9.4-9.89 6.35 0 9.26 4.93 9.26 10.32 0 .43-.04.92-.07 1.42h-13.23c.53 2.45 2.23 3.72 4.64 3.72 1.81 0 3.12-.57 4.61-1.95l3.09 2.73c-1.77 2.2-4.33 3.54-7.76 3.54-5.72 0-9.94-4.01-9.94-9.82m13.4-1.6c-.32-2.41-1.74-4.04-4.01-4.04-2.23 0-3.69 1.6-4.11 4.04zm9.25-8.01h5.39v2.69c1.24-1.6 2.84-3.05 5.57-3.05 4.08 0 6.45 2.69 6.45 7.05v12.3h-5.39V53c0-2.55-1.2-3.86-3.26-3.86s-3.37 1.31-3.37 3.86v10.6h-5.39zm21.17 9.61v-.07c0-5.43 3.87-9.89 9.4-9.89 6.35 0 9.26 4.93 9.26 10.32 0 .43-.04.92-.07 1.42h-13.22c.53 2.45 2.23 3.72 4.65 3.72 1.81 0 3.12-.57 4.61-1.95l3.08 2.73c-1.77 2.2-4.33 3.54-7.76 3.54-5.73 0-9.95-4.01-9.95-9.82m13.4-1.6c-.32-2.41-1.74-4.04-4.01-4.04-2.23 0-3.69 1.6-4.11 4.04zm9.25-8.01h5.39v3.83c1.1-2.62 2.87-4.33 6.06-4.18v5.64h-.28c-3.58 0-5.78 2.16-5.78 6.7v7.02h-5.39zm12.8 13.55v-.07c0-4.15 3.15-6.06 7.66-6.06 1.92 0 3.3.32 4.65.78v-.32c0-2.23-1.38-3.47-4.08-3.47-2.06 0-3.51.39-5.25 1.03l-1.35-4.11c2.09-.92 4.15-1.53 7.37-1.53 2.94 0 5.07.78 6.42 2.13 1.42 1.42 2.05 3.51 2.05 6.06v11.03h-5.21v-2.06c-1.31 1.45-3.12 2.41-5.74 2.41-3.58-.01-6.52-2.07-6.52-5.82m12.37-1.25v-.96c-.92-.43-2.13-.71-3.44-.71-2.3 0-3.72.92-3.72 2.62v.07c0 1.45 1.21 2.3 2.94 2.3 2.52.02 4.22-1.37 4.22-3.32m10 6.71h5.39V37.72h-5.39zM113.18 73h5.88l6.53 10.49L132.12 73H138v24.82h-5.42v-16.2l-6.98 10.6h-.14l-6.91-10.49v16.1h-5.35zm30.32-1.06h5.67v4.79h-5.67zm.14 6.87h5.39v19h-5.39zm10.7 19.01h5.39V71.94h-5.39zm10.71 0h5.39V71.94h-5.39zm8.97-2.52 2.3-3.54c2.06 1.49 4.22 2.27 5.99 2.27 1.56 0 2.27-.57 2.27-1.42v-.07c0-1.17-1.84-1.56-3.94-2.2-2.66-.78-5.67-2.02-5.67-5.71v-.07c0-3.86 3.12-6.03 6.95-6.03 2.41 0 5.04.82 7.09 2.2l-2.06 3.72c-1.88-1.1-3.76-1.77-5.14-1.77-1.31 0-1.98.57-1.98 1.31v.07c0 1.07 1.81 1.56 3.86 2.27 2.66.89 5.74 2.16 5.74 5.64v.07c0 4.22-3.16 6.13-7.27 6.13-2.65 0-5.62-.89-8.14-2.87"/></svg>