<svg xmlns="http://www.w3.org/2000/svg" xml:space="preserve" viewBox="0 0 500 500"><path d="M336.61 138.92c-10.29-5.09-29.15 21.93-29.15 49.79 20.36-17.67 40.88-43.91 29.15-49.79m-157.4 59.94c22.38-12.21 51.56-55.14 35.6-60.46-13.5-4.5-35.6 38.06-35.6 60.46"/><path d="M251.17 497.49c135.73-.63 245.64-110.52 246.31-246.24-.67-130.11-103.29-236.55-231.8-243.39 128.78 6.84 231.13 113.1 231.8 243.38 0-.41.02-.83.02-1.24C497.5 113.31 386.69 2.5 250 2.5S2.5 113.31 2.5 250 113.31 497.5 250 497.5c.38 0 .77-.01 1.15-.01-28.67-.15-56.18-5.23-81.72-14.43 25.56 9.2 53.08 14.27 81.74 14.43m234.78-244.98c0 128.95-104.51 233.43-233.43 233.43-128.95 0-233.46-104.48-233.46-233.43 0-128.98 104.51-233.46 233.46-233.46 128.92 0 233.43 105.18 233.43 233.46m-478.45.01C7.5 117.22 117.18 7.5 252.48 7.5h.04-.02c-135.05.01-245 109.93-245 245.02 0 103.07 63.66 191.26 153.79 227.43C71.26 443.84 7.5 355.86 7.5 252.52"/><path d="M139.84 342.17c0 10.85 6.8 17.35 16.96 16.89 34.87-1.57 48.62-48.14 54.04-88.84-30.55 14.95-71 42.8-71 71.95"/><path d="M69.24 158.18c-5.41 17.63-8.83 32.57-8.83 49.54 0 39.37 22.41 41.4 22.41 59.75 0 9.5-7.47 16.27-16.27 16.27-15.61 0-27.82-17.63-27.82-47.51 0-27.16 7.13-49.05 8.1-52.23.03-.18-.1-.67-.7-.87-.59-.22-1.07 0-1.21.2-.17.28-10.93 30.83-10.96 69.19-.03 78.72 40.04 158.1 124.22 183.88 17.63 5.45 32.57 8.84 49.53 8.84 39.35 0 40.74-23.07 59.07-23.07 9.49 0 16.96 7.47 16.96 16.96 0 14.95-17.66 27.16-47.51 27.16-27.16 0-49.11-6.91-52.19-8.1-.31-.14-.84.21-1.01.66-.25.6.04 1.19.35 1.37 7.6 3.41 33.16 10.81 69.15 10.81 78.01 0 158.09-39.38 183.23-124.2 5.4-16.96 8.79-32.57 8.79-48.84 0-40.03-22.38-41.4-22.38-59.72 0-10.2 6.78-17.01 16.31-17.01 15.57 0 27.71 18.33 27.78 48.25.07 27.68-8.1 51.84-8.13 52.22 0 .39.13.67.73.88.77.25 1.15-.03 1.25-.24.11-.25 11.28-30.23 10.88-69.86-.73-77.39-39.34-157.47-124.2-183.26-17.63-5.45-32.58-8.8-49.5-8.8-39.38 0-40.74 22.38-59.07 22.38-10.15 0-16.96-7.47-16.96-16.27 0-15.63 18.33-27.85 47.51-27.82 31.24 0 51.88 8.63 52.26 8.66.2.04.62-.03.91-.69.21-.55 0-1.01-.21-1.19-1.22-.97-32.95-11.83-69.22-11.55-78.05.61-157.47 40.05-183.27 124.21m169-16.32c0 31.9-31.9 67.19-57.7 76.02.69 2.73 3.42 10.2 11.55 10.2 10.2 0 22.42-9.5 28.53-17 2.72-14.25 12.88-34.63 26.43-34.63 5.48 0 8.17 4.09 8.17 8.83 0 10.19-11.17 23.42-19.3 32.25-2 9.92-2.62 17.59-2.62 20.56 23.73-14.25 36.86-22.28 54.52-35.16-1.4-4.74-1.4-10.19-1.4-15.6 0-31.9 21.04-67.19 48.87-67.19 15.61 0 23.77 10.86 23.77 23.07 0 23.08-19.68 43.42-47.51 64.48 2.03 5.4 5.31 10.09 10.03 12.49 0 0 9.1-3.24 18.11-2.89 8.1.31 19.31 3.21 19.87 10.75 1.21 17.14-37.67 10.23-37.81 10.23-14.94 4.05-43.46 21.01-43.46 64.47 0 29.19 18.32 56.31 46.84 56.31 21.68 0 40.18-17.45 40.84-42.58 0-16.27-7.61-32.04-23.88-32.04-8.14 0-16.34 5.82-16.93 14.52-.88 13.19 10.82 15.32 10.82 24.19 0 6.06-4.74 8.79-9.53 8.79-13.53 0-23.73-13.57-23.73-30.54 0-20.35 17.63-37.32 40.7-37.32 29.88 0 45.49 25.77 45.5 53.57 0 30.55-26.46 62.46-65.14 62.46-46.86 0-70.59-39.38-70.59-74.67 0-49.53 33.93-70.58 48.17-78.05-2.69-2.03-4.74-4.74-6.77-8.13-16.3 11.56-31.1 21.74-62.28 39.41-1.39 21.75-3.56 45.45-8.97 61.72-11.55 34.63-35.33 59.73-66.53 59.73-26.46 0-39.34-18.99-39.34-39.38 0-14.91 8.83-33.9 24.4-48.17 19.68-17.64 41.4-28.49 71.28-44.13.7-4.05 1.36-8.14 2.02-12.88-7.47 6.77-18.32 9.49-27.16 9.49-14.24 0-25.76-12.22-28.48-25.13-18.99-1.33-33.23-14.94-33.93-36.66 0-15.61 6.11-29.18 16.27-29.18 4.09 0 5.45 3.38 5.45 6.1 0 2.73-3.39 11.52-3.39 20.36 0 8.83 4.05 20.35 14.94 20.35 0-35.25 25.76-80.74 56.3-80.74 20.35 0 23.07 14.95 23.07 21.72m12.91 355.63c.44 0 .89.01 1.33.01h.02c-.44 0-.88-.01-1.33-.01zm246.33-246.25c0 .43.02.85.02 1.28 0-.43-.01-.85-.02-1.28"/><path d="M252.5 497.5h.02c135.02 0 244.98-109.26 244.98-244.98 0 135.29-109.67 244.97-245 244.98"/></svg>