<svg xmlns="http://www.w3.org/2000/svg" xml:space="preserve" viewBox="0 0 360 180"><path d="M159.2 92.5c0 13.6-10.7 23.7-23.8 23.7s-23.8-10-23.8-23.7 10.7-23.7 23.8-23.7 23.8 10 23.8 23.7m-10.4 0c0-8.5-6.2-14.4-13.4-14.4S122 83.9 122 92.5c0 8.4 6.2 14.4 13.4 14.4s13.4-6 13.4-14.4m61.7 0c0 13.6-10.7 23.7-23.8 23.7s-23.8-10-23.8-23.7 10.7-23.7 23.8-23.7 23.8 10 23.8 23.7m-10.4 0c0-8.5-6.2-14.4-13.4-14.4s-13.4 5.8-13.4 14.4c0 8.4 6.2 14.4 13.4 14.4s13.4-6 13.4-14.4m59.5-22.3v42.5c0 17.5-10.3 24.6-22.5 24.6-11.5 0-18.4-7.7-21-14l9.1-3.8c1.6 3.9 5.6 8.4 11.9 8.4 7.8 0 12.7-4.8 12.7-13.9v-3.4h-.4c-2.3 2.9-6.8 5.4-12.5 5.4-11.8 0-22.7-10.3-22.7-23.6 0-13.4 10.8-23.8 22.7-23.8 5.7 0 10.1 2.5 12.5 5.3h.4V70zm-9.1 22.4c0-8.3-5.6-14.4-12.7-14.4-7.2 0-13.2 6.1-13.2 14.4s6 14.3 13.2 14.3c7.1-.1 12.7-6.1 12.7-14.3m25.4-47.3v69.4h-10.1V45.3zm39.6 55 8.1 5.4c-2.6 3.9-8.9 10.5-19.7 10.5-13.5 0-23.5-10.4-23.5-23.7 0-14.1 10.1-23.7 22.3-23.7 12.3 0 18.3 9.8 20.3 15.1l1.1 2.7-31.7 13.1c2.4 4.8 6.2 7.2 11.5 7.2 5.2-.1 8.9-2.7 11.6-6.6m-24.9-8.5 21.2-8.8c-1.2-3-4.7-5-8.8-5-5.3 0-12.6 4.6-12.4 13.8M73.3 86.3v-10h33.9c.3 1.7.5 3.8.5 6.1 0 7.5-2.1 16.9-8.7 23.5-6.5 6.7-14.7 10.3-25.7 10.3C53 116.2 36 99.7 36 79.4s17-36.8 37.3-36.8c11.2 0 19.2 4.4 25.2 10.1l-7.1 7.1c-4.3-4-10.1-7.2-18.1-7.2-14.8 0-26.4 11.9-26.4 26.7S58.5 106 73.3 106c9.6 0 15.1-3.9 18.6-7.4 2.8-2.8 4.7-6.9 5.5-12.4z"/></svg>