<svg xmlns="http://www.w3.org/2000/svg" xml:space="preserve" viewBox="0 0 187.09 59.04"><path d="M149.42 48.24c0-2.13 1.73-3.85 3.85-3.85 2.13 0 3.85 1.73 3.85 3.85 0 2.13-1.73 3.85-3.85 3.85s-3.85-1.72-3.85-3.85m3.86 4.41a4.41 4.41 0 1 0-4.41-4.41c-.01 2.43 1.97 4.41 4.41 4.41"/><path d="M152.25 46.24h1.4c.63 0 1.3.1 1.3.85 0 .84-.7.89-1.37.89h-1.33zm3.31.88c0-.97-.7-1.31-1.76-1.31h-2.13v4.92h.58v-2.27h1.13l1.4 2.27h.72l-1.5-2.27c.86-.04 1.56-.4 1.56-1.34m-3.69-28.78 2.42-9.74h4.49l-2.35 9.74zm-8.12 8.8 3.51-18.54h4.49l-5.72 25.93v17.56h-7.01V34.53l-5.7-25.93h7.22zM171.93 39v4.76c0 3.06-1.31 2.83-2.41 2.83-1.35 0-2.46 0-2.46-2.78l-.05-6.79h-6.54v8.18c0 7.63 4.11 6.86 8.93 6.86 3.87 0 9.42.77 9.42-7.03v-8.45c0-2.39-1.25-4.15-3.21-6.11 0 0-2.19-1.86-5.91-5.58-2.51-2.48-3.06-4.3-3.06-5.99v-3.57c0-3.04 1.3-2.8 2.39-2.8 1.33 0 2.48 0 2.48 2.78l.03 5.46h6.55v-6.01c0-7.63-4.11-6.84-8.94-6.84-3.86 0-9.4-.78-9.4 7v6.4c0 2.37 1.71 4.93 5.77 8.77.01 0 6.41 4.18 6.41 8.91m-87.81 0v4.76c0 3.06-1.3 2.83-2.39 2.83-1.33 0-2.47 0-2.47-2.78l-.02-6.79h-6.55v8.18c0 7.63 4.1 6.86 8.94 6.86 3.86 0 9.42.77 9.42-7.03v-8.45c0-2.39-1.26-4.15-3.21-6.11 0 0-2.18-1.86-5.92-5.58-2.53-2.48-3.04-4.3-3.04-5.99v-3.57c0-3.04 1.3-2.8 2.39-2.8 1.33 0 2.47 0 2.47 2.78l.03 5.46h6.55v-6.01c0-7.63-4.11-6.84-8.96-6.84-3.86 0-9.4-.78-9.4 7v6.4c0 2.37 1.71 4.93 5.79 8.77.01 0 6.37 4.18 6.37 8.91M56.73 13.07h1.5c2.6 0 2.3 2.99 2.3 6.03 0 0 .29 5.94-2.3 5.94h-1.5zm-7.29 39.02h7.29V30.86h1.3c2.34 0 2.49 1.11 2.49 3.6v9.4c0 2.9.19 6.81.97 8.23h7.22c-.8-1.42-.72-5.33-.72-8.23v-7.68c0-4.3.15-7.58-3.99-8.33 3.14-.48 4.3-1.88 4.3-8.72 0-9.17-1.55-10.53-9.34-10.53h-9.52zm73.93-37.72v10.58h7.51v5.91h-7.51v14.97h8.92v6.26h-15.94V8.6h15.58v5.77zm-85.69 0v10.58h7.51v5.91h-7.51v14.97h8.91v6.26H30.65V8.6h15.62v5.77zm67.7 10.51V8.6h7.01v43.49h-7.01V30.86h-4.05v21.23H94.3V8.6h7.03v16.28zm-84.85 0V8.6h7.01v43.49h-7.01V30.86h-4.05v21.23h-7V8.6h7v16.28z"/></svg>