<svg xmlns="http://www.w3.org/2000/svg" xml:space="preserve" viewBox="0 0 72 72"><path d="M47.63 18.152c2.1-1 3.1-.9 3.2.1 0 1.4-.2 3.2-.3 4.5-.8 7.1-2.1 12.9-2.2 20.1 3.4-8.8 6.3-15 10-22.6 1.2-2.4 1.9-2 2.9-2.4 3.7-1.7 3.9-.6 3.4 1.4-1.8 7.6-6.5 31.4-7.2 35-.2 1.1-1.4.6-1.7.2-1.3-1.8-2.8-1.9-2.7-3.1.8-6.1 3.8-21.4 4.6-25.1-4 8.2-8.2 18.5-10.3 24.3-.5 1.2-1.3 1.1-1.8.2-.7-1.3-2.1-1.9-2.4-3.4-.7-4.8.8-13.9 1.1-19.6-2.2 6.3-5.8 18.5-7.4 24-.7 2.3-2.9 1.9-2.3-.3 2.4-9.2 7.7-25.6 10-31.5.6-1.3 2-1.2 3.1-1.8m-13.2-1.1c-.7-.2-2.8.9-4 1.2-.4.1-.8.5-.9.8-2 4.6-3.8 9.1-5.4 13.1-2 .3-4.3.8-7 1.4 1.9-4.8 3.8-9.6 5.6-14.1.9-2.3-1.5-2.5-2.4-.2-1.2 3-3.5 8.5-6 15-1.8.5-3.8 1-5.8 1.6-1.5.4-1.5.8-.9 1.7.4.5 1.1.4 1.4.8.9.9 1.4 2 2.9 2.2-1.4 3.7-2.8 7.5-4 11.2-.8 2.3 1.5 2.8 2.3.3 1.4-3.9 2.8-7.9 4.3-11.9 1.3-.3 4.3-.9 7.1-1.5-2.2 6.1-3.7 10.7-4.2 12.9-.1.4.1.7.2.8.7 1.1 1.5 1.1 2.4 2.5.3.4 1.1.6 1.4-.3 2.1-6.2 4.2-12 6.1-17.3.8-.2 2.3-.5 3.2-1.9 1.6-2.4 2.1-1.9 2.5-2.6.5-.9.2-1.8-1.5-1.6 0 0-.6 0-1.8.2 1.9-4.9 3.6-9 4.8-12.2.3-1.2.3-2-.3-2.1"/><path d="M31.63 48.652c.4 1.1 1.8.8 1.3-.6s-1.9-5.5-2.2-6.8c-.5-1.8 1.6-1.3.5-.1-.9 1-1.5 1.4-3.1 3.3s-1.2 4.3.5 4.8c1.9.6 3.6-1.5 4.7-3.1 1-1.5 0-2.4-1-1.5-.7.6-1.4 1.5-2.2 1.9-.6.4-1.1 0-.3-1.2 1-1.3 2.1-2.5 2.9-3.7 1.7-2.6-1.6-4-3-2.4-.8.9-.6 1.8-.4 2.5.3 1.3 1.5 5.1 2.3 6.9"/></svg>