<svg xmlns="http://www.w3.org/2000/svg" xml:space="preserve" viewBox="0 0 72 72"><path d="M49.2 16.6c-1.3 5.9-1.8 8.6-2.9 12.9-1 4.1-1.8 7.9-3.2 9.7-1.4 1.9-3.3 2.3-4.5 2.4-.7.1-1.2.1-2.6.1s-1.9 0-2.6-.1c-1.3-.2-3.2-.5-4.5-2.4-1.4-1.8-2.2-5.7-3.2-9.7-1.1-4.3-1.6-7-2.9-12.9 0 0-1.3 0-1.9.1-.8 0-1.4.1-2.1.2 0 0 .8 12.1 1.1 17.3.3 5.4 1 14.5 1.6 21.4 0 0 1.1.2 3 .3s2.8.1 2.8.1c.8-3 1.8-7.2 2.9-9 .9-1.5 2.3-1.6 3.1-1.7 1.2-.2 2.3-.2 2.8-.2s1.5 0 2.8.2c.8.1 2.2.3 3.1 1.7 1.1 1.8 2.1 6 2.9 9 0 0 .8 0 2.8-.1 1.8-.1 3-.3 3-.3.6-6.9 1.2-16 1.6-21.4.3-5.1 1.1-17.3 1.1-17.3-.7-.1-1.3-.2-2.1-.2-.8-.1-2.1-.1-2.1-.1"/><path d="M64.5 23.7c-.8-7.7-5.9-9.3-10.4-10.1-2.3-.4-6.3-.7-8.9-.8-2.3-.2-7.6-.2-9.2-.2s-6.9.1-9.2.2c-2.6.1-6.6.4-8.9.8-4.5.8-9.7 2.4-10.5 10.1-.2 2.1-.3 4.9-.2 7.8.1 4.9.5 8.2.7 10.5.2 1.6.8 6.3 1.7 8.7C10.8 54 11.8 55 13 56c2.2 1.8 5.9 2.4 6.7 2.5 4.2.7 12.5.9 16.3.9 3.7 0 12.1-.1 16.3-.9.8-.2 4.5-.7 6.7-2.5 1.2-1 2.3-2 3.4-5.3.8-2.4 1.5-7.2 1.7-8.7.2-2.3.7-5.6.7-10.5 0-3-.1-5.7-.3-7.8m-2.9 13c-.5 6.2-1 9.9-1.8 12.5-.7 2.3-1.5 3.9-2.8 5-2.1 1.9-4.9 2.3-6.6 2.5-3.6.5-9.7.7-14.5.7s-10.9-.2-14.5-.7c-1.7-.3-4.5-.7-6.6-2.5-1.2-1.1-2.1-2.7-2.8-5-.8-2.7-1.3-6.4-1.8-12.5-.2-3.7-.1-9.7.3-13 .6-4.9 3-7.3 8.1-8.2 2.4-.4 5.6-.7 8.7-.9 2.5-.2 6.5-.2 8.7-.2s6.3.1 8.7.2c3 .2 6.3.5 8.7.9 5.1.9 7.5 3.3 8.1 8.2.4 3.2.4 9.2.1 13"/></svg>