<svg xmlns="http://www.w3.org/2000/svg" xml:space="preserve" viewBox="0 0 2279.41 810.68"><path d="M0 0v810.68h2279.41V0zm2037.9 625.45c-283.05 117.21-590.8 152.11-895 152.11-303.18 0-615.27-32.62-896.79-152.11C162.29 590.03 30.06 510.3 30.06 405.33c0-105.22 132.47-184.72 216.04-220.12 281.54-119.49 593.37-152.1 896.8-152.1 304.19 0 611.95 34.9 895 152.1 90.44 37.46 211.45 108.53 211.45 220.12 0 111.33-120.77 182.67-211.45 220.12"/><path d="m1463.91 444.33-.01-.01v.01zm-371.47 90.18L990.54 373.5l73.89-107.26a60.7 60.7 0 0 1 22.42-20.13H876.41c1.53 3.31 3.31 6.87 3.31 10.44 0 3.58-1.52 6.89-3.31 9.69l-61.9 92.73v-92.73c0-8.66 5.34-14.77 11.47-20.13H612.72c5.86 5.6 11.47 11.48 11.47 20.13V534.5c0 8.4-5.6 14.53-11.47 19.87h213.24c-6.11-5.34-11.47-11.47-11.47-19.87v-93.24l54.78 93.25c2.04 3.32 4.07 7.41 4.07 11.48 0 3.05-2.3 5.85-4.07 8.39h245.08c-9.17-4.84-16.55-11.21-21.91-19.87"/><path d="M1338.8 455.03V437.7h105.73c7.14 0 13.49 2.8 19.36 6.62v-95.79c-5.88 4.06-12.23 6.61-19.38 6.61h-105.73v-20.13h139.63c6.87 0 13.26 2.81 19.1 6.63V246.1h-353.36c6.11 5.1 11.71 11.48 11.71 19.87v268.77c0 8.16-5.6 14.53-11.71 19.62h353.37v-105.7c-5.86 3.55-12.24 6.37-19.1 6.37zm693.21 85.6-105.99-259.11c-2.54-6.11-4.57-12.74-4.57-19.61 0-5.6 2.28-10.7 4.57-15.8h-291.18c2.31 4.84 4.33 9.93 4.33 15.54 0 6.63-2.02 13.5-4.33 19.87l-96.05 259.11c-2.04 5.37-4.85 9.69-8.92 13.76H1710c-1.79-3.31-3.06-6.63-3.06-10.45-.01-1.73.25-3.45.77-5.1l15.55-46.11h78.19l16.82 43.58c.77 2.04 1.04 4.07 1.04 6.37 0 4.07-1.04 7.9-2.56 11.71h224.96c-4.57-4.08-7.65-8.14-9.7-13.76m-288.64-110.06 16.82-49.17 18.08 49.17zM536.79 246.11H318.46c5.86 5.36 11.21 11.21 11.21 19.87v268.53c0 8.4-5.34 14.53-11.21 19.87h218.33c-6.11-5.34-11.47-11.47-11.47-19.87V265.98c.01-8.66 5.36-14.51 11.47-19.87"/></svg>