<svg xmlns="http://www.w3.org/2000/svg" xml:space="preserve" viewBox="0 0 2500 1331.45"><path d="M965.21 1107.96c-11.09 0-20.76 3.83-28.99 11.45-8.77 8.16-13.15 18.39-13.15 30.7q0 17.775 12.18 29.97c8.12 8.11 18.11 12.18 29.97 12.18 11.48 0 21.31-3.98 29.51-11.91 8.42-8.18 12.63-18.26 12.63-30.25a40.57 40.57 0 0 0-12.36-29.78 40.6 40.6 0 0 0-29.79-12.36m24.53 66.96a33.36 33.36 0 0 1-24.53 10.29c-9.26.14-18.16-3.57-24.59-10.23a33.9 33.9 0 0 1-10.25-24.88c0-9.43 3.36-17.56 10.06-24.42a33.23 33.23 0 0 1 24.76-10.52c9.59.01 17.79 3.51 24.61 10.52 6.76 6.91 10.12 15.05 10.12 24.42 0 9.65-3.39 17.91-10.18 24.82m-46.1-331.86 136.05 186.28h99.91V677.09h-101.57v188.87L943.64 677.09H840.75v352.26h102.89zm268.67-47.44h97.71v97.7h-97.71zM1521 1033.47c98.87 0 179.02-70.19 179.02-179.02 0-108.8-80.15-179.02-179.02-179.02s-179.02 69.1-179.02 179.02c.01 109.94 80.15 179.02 179.02 179.02m0-262.22c42.49 0 76.94 37.26 76.94 83.21 0 45.98-34.46 83.24-76.94 83.24-42.5 0-76.95-37.26-76.96-83.24 0-45.95 34.46-83.21 76.96-83.21m-810.58 24.37h97.71v97.7h-97.71zm-131.51 70.34L442.85 677.09H339.96v352.26h102.89V843.06l136.05 186.28h101.57V677.09H578.91zm-395.09 163.39h107.44V677.09H183.82z"/><path d="M984.27 1170.86c-.05-.45-.08-.91-.08-1.36v-4.18c0-4.76-1.37-8.24-4.11-10.47-1.49-1.17-3.71-2.08-6.64-2.68 3.2-.32 5.9-1.39 8.09-3.14s3.29-4.59 3.29-8.51c0-5.14-2.08-8.87-6.23-11.14-2.86-1.46-6-2.29-9.21-2.41-.65-.05-3.85-.08-9.62-.1l-13.01-.03v46.74H959v-16.56h-.03 2.58l2.68.18c1.88.1 3.26.35 4.18.74 1.6.58 2.85 1.85 3.42 3.45.38.99.62 2.89.74 5.72.12 2.81.36 4.97.75 6.46h11.66l-.4-1.32c-.16-.45-.26-.93-.31-1.39m-13.86-23.94c-1.61 1.14-3.83 1.7-6.69 1.7h-4.75v-13.55h2.97c3.05 0 5.41.32 7.08.99 2.52.99 3.79 2.76 3.79 5.32.01 2.51-.79 4.37-2.4 5.54m244.19-82.73a17.49 17.49 0 0 0-15.29-9.01H1019.8c-3.76 0-7.42 1.22-10.43 3.46-7.75 5.77-9.36 16.74-3.59 24.5l120.93 161.59c3.3 4.41 8.48 6.99 13.99 6.99h148.22c2.97 0 5.9-.76 8.5-2.2 8.45-4.68 11.49-15.33 6.81-23.77zm-65.16 152.53-94.73-126.57h134.3l70.22 126.57zm456.63-46.84c0 11.51-9.33 20.84-20.84 20.84s-20.84-9.33-20.84-20.84v-97.75h-46.59v95.47c0 46.41 30.19 67.43 67.43 67.43s67.43-20.52 67.43-67.43v-95.47h-46.59zm636.69-140.54V772.31h67.74v-95.22h-236.61v95.22h63.31v257.03zM964.83 649.89c8.45-4.68 11.49-15.33 6.81-23.77L847.78 402.85l1004.67 119.5-11.22 83.29c-.61 4.47.53 9 3.18 12.65 5.68 7.8 16.61 9.53 24.41 3.85l198.19-143.24a17.52 17.52 0 0 0 7.04-11.53c.71-4.63-.46-9.36-3.28-13.11l-151.56-203.2a17.47 17.47 0 0 0-11.72-6.9c-9.57-1.27-18.36 5.45-19.64 15.02l-11.88 88.3C1684.27 311.76 632.76 115.51 534.11 88.1c-67.27-18.69-126.27-5.58-153.96 34.21-24.22 34.78-19.16 82.55 13.51 127.79 9.98 13.82 39.45 53.17 80.21 107.64 56.14 75.03 133.06 177.81 214.1 287.27 3.31 4.45 8.52 7.08 14.06 7.08h254.3c2.97 0 5.9-.76 8.5-2.2m-253.98-32.78a69783 69783 0 0 0-208.98-280.32c-40.66-54.33-70.04-93.59-79.84-107.16-23.93-33.14-28.73-64.97-13.16-87.33 18.95-27.24 63.37-35.08 115.9-20.49 103.82 28.84 1234.35 239.5 1362.9 263.43 9.49 1.76 18.62-4.51 20.38-14 .05-.29.1-.58.14-.86l8.64-64.04 115.31 154.6-150.8 108.98 8.16-60.53c1.28-9.59-5.45-18.39-15.04-19.67l-.23-.03L817.98 364.07c-9.59-1.15-18.29 5.69-19.44 15.28-.44 3.66.29 7.36 2.08 10.57l126.03 227.19zm1221.12 274.01c-.03 25.16-20.43 45.56-45.59 45.59-25.22.04-45.69-20.38-45.72-45.59V677.09H1738.7v209.03c0 101.58 66.09 147.61 147.61 147.61s147.61-44.92 147.61-147.61V677.09h-101.95zm106.46 343.11 99.13.69v-44.69h-44.99v-16.94h37.48v-44.69h-37.48v-11.8l44.99-.01v-44.68h-99.13zm-117.42-100.76v46.64h30.12c-6.35 7-15.35 11.01-24.8 11.08-19.4 0-35.14-17.02-35.14-38.03s15.73-38.03 35.14-38.03c10.56 0 20.04 5.07 26.5 13.05l42.79-20.44c-14.46-22.93-40.08-36.35-69.28-36.35-45.16 0-81.77 31.57-81.77 81.77 0 50.23 36.6 81.8 81.77 81.8s81.77-32.07 81.77-81.8c0-6.43-.61-13.42-1.78-19.21zm-108.84-5.83c0-31.89-21.08-57.53-59.38-57.53h-55.81v164.12h49.99v-34.68l27.59 34.68h64.94l-48.91-63.02c12.18-10.56 21.58-26.17 21.58-43.57m-50.08 4.05c-2.25 6.1-9.02 9.23-15.12 6.98v-22.11c1.3-.47 2.67-.71 4.05-.71 1.4 0 2.79.25 4.09.72 6.1 2.25 9.23 9.02 6.98 15.12m-293.03 15.07c4.57-5.24 8.92-14.51 8.92-30.8 0-48.31-56.16-43.88-56.16-43.88h-54.01v164.12h60.28c34.45 0 62.37-14.49 62.37-46.72 0-16.91-8.29-32.24-21.4-42.72m-48.5-32.12c1.06-.31 2.16-.46 3.27-.45 5.27 0 9.55 3.22 9.55 7.17.01 3.96-4.27 7.18-9.55 7.18-1.1-.01-2.2-.16-3.27-.45zm3.27 77.09c-1.52 0-2.98-.23-4.36-.58v-17.96c1.36-.38 2.84-.58 4.36-.58 7.04 0 12.74 4.28 12.74 9.55.01 5.29-5.69 9.57-12.74 9.57m843.43-20.52c12.2-10.56 21.58-26.17 21.58-43.57 0-31.89-21.05-57.53-59.38-57.53h-55.78v164.12h49.96v-34.68l27.59 34.68h64.94zm-28.56-39.6c-2.21 6.11-8.95 9.27-15.06 7.06v-22.11c1.3-.47 2.67-.71 4.05-.71 1.34.01 2.68.25 3.95.7 6.1 2.21 9.27 8.95 7.06 15.06"/></svg>