<svg xmlns="http://www.w3.org/2000/svg" xml:space="preserve" viewBox="0 0 72 72"><path d="M28.4 51.7S26.2 53 30 53.4c4.6.5 6.9.4 11.9-.5 0 0 1.3.8 3.2 1.5-11.3 4.9-25.5-.2-16.7-2.7m-1.3-6.3s-2.5 1.8 1.3 2.2c4.9.5 8.7.5 15.4-.7 0 0 .9.9 2.4 1.4-13.7 4-28.9.4-19.1-2.9m11.6-10.7c2.8 3.2-.7 6.1-.7 6.1s7.1-3.6 3.8-8.2c-3-4.3-5.3-6.4 7.2-13.7 0 .1-19.7 5-10.3 15.8"/><path d="M53.6 56.4s1.6 1.3-1.8 2.4c-6.5 2-27.1 2.6-32.8.1-2.1-.9 1.8-2.1 3-2.4 1.3-.3 2-.2 2-.2-2.3-1.6-14.8 3.2-6.3 4.5 22.9 3.7 41.9-1.7 35.9-4.4M29.5 38.9s-10.5 2.5-3.7 3.4c2.9.4 8.5.3 13.8-.1 4.3-.4 8.7-1.1 8.7-1.1s-1.5.7-2.6 1.4c-10.6 2.8-31.2 1.5-25.3-1.4 5-2.5 9.1-2.2 9.1-2.2m18.8 10.5c10.8-5.6 5.8-11 2.3-10.3-.9.2-1.2.3-1.2.3s.3-.5.9-.7c6.9-2.4 12.2 7.2-2.2 10.9 0 .1.1-.1.2-.2M41.8 7.2s6 6-5.7 15.2c-9.4 7.4-2.1 11.6 0 16.4-5.5-4.9-9.5-9.3-6.8-13.3 4-5.9 14.9-8.8 12.5-18.3"/><path d="M30.6 64.6c10.4.7 26.3-.4 26.7-5.3 0 0-.7 1.9-8.6 3.3-8.9 1.7-19.8 1.5-26.2.4-.1.1 1.2 1.2 8.1 1.6"/></svg>