<svg xmlns="http://www.w3.org/2000/svg" xml:space="preserve" viewBox="0 0 72 72"><path d="M63.9 29c-1.5 1-3.4 2.8-5.4 5-.3-2.6-.6-5.3-.8-8.3-.4-7.2-.5-13.1.7-16.2.7-1.8 0-2.2-1.2-1.7-5.1 2.2-12.5 8.5-12.7 18.7-.1 3.5.8 6.7 2.1 9.3-1.8 1.6-4 1.3-5.7 1.7-.8-2.8-1.6-6-4.4-7.6-4.7-3.5-10.8 0-15.5 3.2-.3-2.3-.5-4.6-.7-7.3-.5-7.2-.5-13.1.7-16.2.7-1.8 0-2.2-1.2-1.7-5.1 2.2-12.5 8.5-12.7 18.7 0 7.5 3.9 13.3 8.3 15.4-.1.2-.3.4-.4.6-3.2 5.3-4.1 8.2-4.9 11.4-1.2 4.7-.8 9.7 2.2 10.3 4.1.9 8.3-6.4 9.2-13.3.8-5.8.4-10.2-.1-14.8.1-.1.1-.2.2-.2.4-.5.8-1.1 1.2-1.6 1.9-1.8 4-2.9 6-3.8 2.3-.6 4.7-.1 6.5 1.4.8 1 2 2.2 1.6 3.5-1.8-.5-3.3-1.7-5.4-1.6-1.9-.2-3.9.1-4.9 1.9-.6 1.4.5 2.7 1.4 3.7 2.6 3 10.3-1.5 10.8 3.8 1.3-.5 1.2-2.3 1.8-3.5 2.3-.9 4.4-1.2 7.4-1.8 1.4 1.9 3 3.3 4.8 4.1-.1.2-.3.4-.4.6-3.2 5.3-4.1 8.2-4.9 11.4-1.2 4.7-.8 9.7 2.2 10.3 4.1.9 8.3-6.4 9.2-13.3.8-5.8.4-10.2-.1-14.8.1-.1.1-.2.2-.2 1.8-2.3 4.4-4.6 5.3-5.5.6-.9.9-2.4-.4-1.6M18.7 54c-.7 7-3.9 7.7-5.3 7.1-1.7-.6-2.1-5.7.4-12.1 1.2-3.1 2.8-5.8 4.2-8.1.6 4.8 1.1 9.4.7 13.1m.9-43.6c-.9 2.1-2.8 6.1-3 12.9-.2 4.4.6 9.8 1.2 15.1-.6.8-1.1 1.6-1.6 2.4-3.1-2.2-4.7-6.8-4.9-13.9C11 16.2 16.2 11 19 9.7c.6-.3 1-.3.6.7m16.5 28.2c-1.3.5-3.5.2-4.8-.6-.4-.4-1.4-1.1-.7-1.8 2.1-1.2 4 .1 5.5 1.8zm20 15.4c-.7 7-3.9 7.7-5.3 7.1-1.7-.6-2.1-5.7.4-12.1 1.2-3.1 2.8-5.8 4.2-8.1.6 4.8 1 9.4.7 13.1m.8-43.6c-.9 2.1-2.8 6.1-3 12.9-.2 4.4.6 9.8 1.2 15.1-.6.8-1.1 1.6-1.6 2.4-3.1-2.2-4.7-6.8-4.9-13.9-.3-10.7 4.9-15.9 7.7-17.2.7-.3 1.1-.3.6.7" style="fill-rule:evenodd;clip-rule:evenodd"/></svg>