<svg xmlns="http://www.w3.org/2000/svg" xml:space="preserve" viewBox="0 0 1000 349.65"><path d="M957.63 116.177c-17.518 0-33.377 14.097-53.175 30.578-18.139 15.03-55.247 53.175-89.142 74.839 9.433-14.823 32.133-46.852 35.553-61.882 3.628-15.755-7.981-21.87-23.84-12.127-17.31 10.676-33.791 61.985-58.254 61.985-4.457 0-7.566-2.177-7.566-7.152.103-15.03 23.425-44.986 65.094-61.467 6.427-2.592 8.915-6.738 9.018-10.366 0-1.14-.207-8.707-13.06-8.707-41.254 0-96.917 48.2-104.69 85.1-8.086 8.085-22.494 20.11-40.84 27.883 20.73-29.334 38.455-52.863 47.784-77.326 10.78-28.504-4.56-32.236-20.316-23.944-15.34 8.085-26.12 30.578-30.682 39.182-4.457 8.5-8.292 19.383-21.767 30.163s-27.468 9.018-17.621-12.128c8.81-18.865 28.712-38.663 45.815-47.784 4.042-2.177 7.567-3.42 7.463-8.914-.207-8.707-10.262-14.616-24.462-8.5-19.384 8.396-28.712 13.993-45.09 13.993-13.06 0-19.798-3.524-25.395-5.804-7.463-3.214-12.957-2.073-15.86-1.14-2.59.932-6.737 3.42-10.157 7.255-2.695 3.006-5.08 7.982-5.598 11.091-3.835 23.115-24.047 64.577-38.973 64.577-5.08 0-10.78-1.452-9.33-13.268 2.385-19.383 25.707-45.504 31.097-50.687 5.39-5.286 15.548-8.81 16.274-14.615.622-4.872-2.384-10.262-11.92-10.262-31.408 0-73.491 43.535-77.637 82.716-4.872 4.56-10.78 9.018-17.414 9.018-14.512 0-18.658-13.579-17.622-24.359 38.145-34.413 110.6-111.22 112.776-165.95.518-13.06-5.805-19.59-16.585-19.59-26.95 0-64.68 39.388-88.21 69.759-28.919 37.419-46.643 82.612-52.966 116.818-21.146 18.347-29.75 19.59-38.974 19.59-12.75 0-17.207-9.225-16.896-16.48 35.657-32.444 97.642-109.563 98.886-147.811.415-11.298-6.012-16.585-17.414-16.585-24.255 0-58.772 25.603-83.441 59.394s-40.736 73.49-45.297 109.562c-18.554 16.585-32.34 20.005-43.742 20.005-6.945 0-11.92-4.871-13.164-6.84 16.377-9.433 53.693-33.17 53.693-68.516 0-17.518-11.817-25.395-23.633-25.395-29.956 0-77.119 37.315-76.808 88.935 0 .933.104 4.042.31 5.286-13.578 4.665-22.907 9.433-20.73 19.176 1.97 8.81 12.957 8.396 27.261 3.317 3.317 6.116 17.31 16.17 37.108 16.17 26.847 0 47.266-12.75 63.436-26.535 6.738 15.859 23.53 24.255 41.047 24.255 21.25 0 42.291-14.408 58.876-27.469 1.97 12.232 14.304 31.2 35.76 31.2 19.591 0 34.517-11.402 46.334-23.736 3.11 12.438 14.511 22.285 29.334 22.285 49.547 0 77.43-70.174 83.752-95.362.83-3.213 3.94-3.938 6.012-3.213 9.226 3.213 13.786 4.768 25.396 3.524-18.865 14.823-35.45 40.115-35.45 58.565s15.963 27.054 27.676 27.054 27.157-7.567 37.419-17.103c-2.695 5.39-6.323 13.786-12.128 19.59-10.676 2.903-41.98 14.201-61.881 26.328-18.865 11.506-37.108 29.75-37.108 50.79 0 11.3 9.225 24.463 30.888 24.463 36.487 0 61.985-23.84 96.399-86.447 28.504-11.92 45.607-23.115 56.802-32.651 4.872 8.603 14.408 12.542 23.84 12.542 13.994 0 22.39-4.043 33.688-12.128-1.555 3.836-4.043 9.64-7.878 14.72-20.42 8.499-44.882 19.694-57.424 27.26-33.377 20.11-40.84 38.249-40.84 52.45 0 8.706 7.463 23.84 29.956 23.84 48.718 0 78.881-60.534 98.575-94.844 14.408-7.67 35.035-21.767 56.18-38.04-.725 2.59-1.036 5.286-1.036 8.292 0 15.237 13.786 29.54 36.383 29.54 44.675 0 58.564-32.857 57.942-68.41-.207-11.61-1.865-20.835-2.073-24.981-.414-10.884 3.214-16.689 13.06-16.689 9.951 0 16.689-1.762 16.689-10.261 0-11.817-8.396-17.103-19.798-17.103M507.772 53.57c1.243 0 1.762 1.14 1.762 2.903-.415 13.993-36.383 70.484-69.656 103.446 20.11-58.979 60.016-106.349 67.894-106.349m-284.634 141.8c1.45-25.085 21.352-44.468 29.23-44.468 2.902 0 4.25 1.658 4.25 5.079 0 9.017-12.024 27.675-33.48 39.388M392.3 74.301c1.555 0 2.177 1.14 2.073 3.11-.31 10.365-26.224 57.839-59.394 90.8 17.518-53.485 45.92-93.91 57.321-93.91m182.016 243.173c-2.59 0-3.835-1.659-3.835-4.147 0-15.237 33.895-33.273 51.62-39.803-7.567 12.439-35.76 43.95-47.785 43.95m135.684.829c-2.488 0-3.421-1.451-3.421-3.94 0-13.474 30.682-34.309 48.51-40.839-9.329 15.963-34.931 44.779-45.09 44.779m185.127-97.02c-2.177 0-5.39-.519-5.39-7.67 0-5.183-2.488-10.988-11.61-10.988-1.243 0-2.591.104-4.146.31 19.487-15.444 34.724-32.443 48.925-43.948-2.902 35.138-11.298 62.296-27.78 62.296"/><path d="M878.024 109.647c-.622 6.116-7.567 8.915-8.085 14.408-.311 3.213 1.97 5.39 5.908 5.287 10.262-.104 37.626-15.963 40.01-40.53 1.244-12.438-6.53-23.218-20.108-23.218-13.683 0-26.018 12.853-27.158 23.633-1.14 10.677 10.055 14.408 9.433 20.42m-712.31 173.517c-8.811-.415-12.854-10.884-12.854-23.633 0-13.993 9.018-44.26 12.542-58.565 3.628-14.407 5.183-37.833-7.877-51.205 49.65-20.005 123.14-88.002 132.573-102.824s11.299-33.792-1.762-43.224C275.38-5.72 254.13 6.615 241.588 24.65c-34.517 49.754-55.351 74.113-78.88 94.532-18.347 15.963-27.262 16.274-36.072 17.414 0 0 33.895-55.455 46.54-72.143 15.134-19.901-3.524-27.365-21.663-14.822-3.732 2.59-32.34 22.389-67.064 40.321-61.882 31.925-76.808 46.644-76.808 65.82 0 8.5 5.908 19.176 18.347 19.176 24.255 0 48.199-43.327 60.015-54.107 4.561-4.25 15.134-13.475 19.28-13.475 1.348 0 2.28.83 2.28 3.42 0 8.293-16.066 31.822-41.046 58.772C30.34 208.637.697 224.392.697 249.373c0 16.274 12.23 25.084 25.498 25.084 27.883 0 46.54-37.212 57.735-55.662 4.458-7.36 29.024-53.175 34.206-63.125 5.39 2.902 8.707 8.81 6.945 21.041-3.317 21.871-22.804 48.407-22.804 85.308 0 30.163 27.883 39.595 39.078 39.7 10.365 0 24.047-4.043 27.468-14.305.415-1.555-.104-4.146-2.902-4.354m824.153-171.34c5.804 0 9.536 3.732 9.536 9.537 0 5.804-3.732 9.536-9.536 9.536-5.909 0-9.536-3.732-9.536-9.536 0-5.909 3.627-9.64 9.536-9.537m0 16.689c4.353 0 7.152-2.799 7.152-7.256s-2.799-7.256-7.152-7.256c-4.457 0-7.256 2.799-7.256 7.152 0 4.457 2.799 7.36 7.256 7.36m.622-12.128c1.45 0 3.11.726 3.11 2.902 0 1.452-.934 2.28-1.97 2.695.622.933 1.14 2.28 1.97 2.28h.517c.104.104.208.312.208.726 0 .622-.518 1.14-1.451 1.14-1.866 0-2.073-2.176-3.317-3.835h-1.14v3.628c-.208.104-.726.208-1.14.208-.623 0-1.14-.104-1.14-1.037v-8.5c.206-.103.621-.103 1.14-.103zm-1.97 1.762v2.384h1.451q1.555 0 1.555-1.244c0-.725-.518-1.14-1.347-1.14z"/></svg>