<svg xmlns="http://www.w3.org/2000/svg" xml:space="preserve" viewBox="0 0 72 72"><path d="M50.7 29.5c-.1 1.9-1.2 3.8-1.5 4.2-.6 1-.8 1.8-.9 2.1s-.4.2-.4.2c-.1-.1-.1-.4-.1-.4s-.2 0-.3.3-.4.7-.6.9c-.1.1-.1.4-.1.5 0 .3 0 1.6-.2 3-.4 2.5-1.5 3.9-2.3 4.7-1.8 1.7-3.3 2.4-3.5 2.5s-.6.1-.7 0l-.4-.4c-.2-.2-.3.1-.3.2s.1.3.1.6c.1.5-.3 1-.6 1.4-.2.3-.4.5-.6.8-.2.4-.4.8-.4 1.2 0 .1 0 .1-.1.1-.4.1-.8-.4-1.2-.7-.2-.2-.5-.4-.7-.6l-.7-.7v-.1c-.1-.1-.2-.2-.2-.3 0 0 0-.1-.1-.1-.1-.1-.2-.2-.3-.4-.8-1.3-.6-2.1-.1-3.5.3-1 .1-2.1.1-2.2s0-.3.3-.1c.2.1.4.5.6.8s.3.1.3-.1c.1-.5 0-.8 0-1 0-.1-.1-.4-.3-.5-.3-.1-.6-.2-.8-.3-.1-.1-.2-.2-.1-.3.2-.1.5-.3.7-.4.3-.1.7-.2 1.1-.1 2.7.4 3.5-.1 4.6-.4.2-.1.3-.1.5 0s.6.3.7.5 0 1.1.1 1.7.6.1.7-.2.2-.9.3-1c0-.2.2-.8.4-1 .5-.4.7-.9.7-1.1.1-.2.2-.8.2-1.7s-.2-1-.4-1.2-.5-.2-1.1-.7c-.5-.4-.9-1.2-1.3-1.6-.4-.5-1-.9-1.7-1.1s-.4.5-.3.7c0 .1.1.5-.1.7s-1.6 1.1-2.7.9c-1.8-.3-2.4-1.5-2.5-2s.5-1.6.6-2.4c0-.4.1-1 .1-1.5s.4-1.1.5-1.2.5-.2.9-.3c.4 0 .9.2.9.5.3 1.2.7 1.4.8 1.5s.4-.1.5-.2.4-.3.3-.5-.2-.4-.2-.5c-.1-.2.2-.2.3-.1.8.5 1.2.6 2 .7s2.2-.3 2.3-.3.4.1.5.3c.1.1.2.4.3.4s.4.1.6.1.6 0 .5.4c-.2 1-1.1 1.5-1.1 1.5-.1.1-.3.1-.6.2-.2 0-.3.1-.4.1-.1.1.1.3.3.5.1.1.6 0 .9-.1.7-.3 1.1-.7 1.5-1.3.4-.5.8-2.4.9-2.8.1-.3.2-.5.4-.6s1-.5 1.2-.5c.1 0 .2 0 .3.3s.1 2.1.1 2.4.2.3.3.2c.2-.1.3-.2.5-.5.2-.2.1-.6 0-.8s-.3-.5-.2-.7c.3-.6.8-.5.9-.4-.1.3.4.5.3 1.8M39.4 39.6c-.3.1-1.3.3-1.7.3-.5 0-1.9.1-2.1.1-.3 0-.7-.2-1-.4-.1-.1-.1-.3.1-.3.5 0 1.3-.3 4.2 0h.5c.1.1.3.2 0 .3m-6.7-1.5c-1.3.3-1.6-.2-1.7-.3s.1-.2.2-.3c.3-.1.7-.3 1-.5.2-.2.7-.8 1-1 .1-.1.9-.2 1.4.1.6.4 1.6.5 2.2.5s.9-.4 1.1-.6.5-.3.7-.3c.5-.1 1.2-.7 1.3-.7.1-.1.3-.1.6.1.5.4.8.8 1.2 1.5.4.6 1 .8 1.2.8s.3.3.3.3c0 .1-.2.2-.3.3s-.2.2-1.2.1c-5.1-.5-7.5-.3-9 0m-.7 6.7c-1 0-3.6-1.1-4.7-5.4-.3-1.1.3-2.1.8-2.3.3-.1.4-.1.5-.1s.6 0 .5.5c0 .4.3 3.7 1.3 5 .2.3.4.3.5 0 .1-.2.3-.6.3-.7s.3-.3.4 0c.2.8.5 1.8.7 2.2.2.6 0 .8-.3.8m-5.6-12.4c.1.1.4.3.8.4.2.1.4 0 .4-.2.1-.2.3-.4 0-.6s-1.2-.6-1.7-1.9c-.1-.2 0-.3.1-.4.1 0 .3-.2.5-.2.1-.1.3 0 .4.1s.5.4.7.4c.3 0 .3-.1.4-.1.2-.2.8-1.1 2.1-.9.5.1 1 .2 1.2.2s.8 0 1.2-.2.5 0 .3.2c-.3.2-.4.4-.2.6s.2.3.3.3v.2c-.1.4-.4.8-.6 1-.3.3-.9.5-1.1.5-.3.1-.7.1-.8.1h-.5c-.2 0-.2.2-.2.3s0 .2.1.2c0 .1.2.3.6.3h.1c.4 0 .7-.1.9-.1.1 0 .3-.1.5-.1-.1.1-.1.2-.2.3-.3.5-.3.7-.4.9s-.2.3-.4.3c-.2.1-.9.3-1.5.8-.6.4-1.2.4-1.7-.1s-1.1-1.3-1.4-2.3c-.2-.1 0-.1.1 0m-.7-4.8c.1-.2.4-.7.9-.8.1 0 .3-.1.5-.1s.5 0 .6-.1c.4 0 .4.3.2.4l-.6.3c-.3.2-.7.4-.9.6-.4.3-.8.1-.7-.3m5.6.1c-.3-.1-.7-.1-1.3 0-.7.1-1.1.4-1.5.5-.3.1-.7.2-.8.2s-.5-.1-.2-.4c.1-.1.3-.1.6-.3l.6-.3c.4-.3 1.3-.6 1.6-.6s.7.1.9.4c.4.3.4.6.1.5m2.3 6.4c.1.1.1.4.1.5s-.5.3-.8-.2c-.4-.5-.2-1.1 0-1.4.3-.4.9-.1.8 0-.2.5-.1 1-.1 1.1m10.8-5.3c-.1.1-.5-.1-.7-.1-.3-.2-.5-.3-.9-.6q-.45-.3-1.2-.3c-.3 0-.5.1-.8.1-.3.1-.3-.2-.2-.2.1-.1.5-.5 1.1-.6h.4c.3 0 .7.2 1 .5s.7.7 1 .9c.3.1.6.2.3.3m-.3-1.3c-.2-.2-.5-.4-.7-.5-.1-.1-.1-.2.1-.2q1.05 0 1.5.3c.2.2.4.5.3.8s-.3.2-.4.2c-.1-.1-.6-.5-.8-.6m3.1-.7v.3c0 .1-.1.1-.2.1h-.8c-.1 0-.2-.1-.2-.2v-.4c0-.1 0-.1.1-.1h1c.1.2.1.2.1.3M25.5 25v-.8c0-.1.1-.3.2-.4.2-.2.4-.3.6-.4.3-.2.3-.7.3-.9.2-.8.5-3.4 2.6-5.7 1.1-1.2 2.1-1.1 3.3-1.2 1.1 0 2.3.3 2.9.6.5.2.7.4.9.2.2-.1.7-.5.9-.7.2-.1.1-.4-.1-.5s-2-1.8-4.8-2.3c-2.7-.4-5 .2-5.6.3h-.3c-.1 0-.3-.1-.2-.3s.4-.4.7-.6 1.7-1.2 3-1.6c.2-.1.3-.1.5-.1s.4-.4 0-.5-.6 0-.8 0-.3-.1-.2-.3c.2-.2.5-.3 1-.5 1.2-.4 3.3-.8 4.3-.9 1.3-.1 1.4-.1 2.3 0 .8.1 1.4.2 1.7.2 2.5.4 5.2 1.6 7.2 3.2 1.9 1.7 4.5 4.6 4.3 10.8 0 .7-.1 1.1-.2 1.3s-.3.5-.5.1c-.4-1.3-1.2-3.1-2.1-4.8-.1-.3-.3-.2-.3.1 0 .1.1 1.8.1 2s-.2.8.5 1.9c.3.5.6.9.7 1.5s.1.9.1 1 0 .3-.3.2c-.3 0-1.5-.3-2-.3-.5-.1-4.1-.2-5.4-.1s-2.1.3-2.9.9c-.2.1-.4.3-.5.3s-.2 0-.6-.1c-.3-.1-.9-.1-1.2 0s-.6.2-.9 0c-.5-.3-1.3-1.3-3.6-1.5-2.2-.2-2.7-.2-5.2-.1-.2.3-.3.2-.4 0m-.6-5.5c-.2.1-.6.5-.8.9-.2.5-.9 2.2-1 5 0 .3.1.8-.3.9-.2.1-.4.1-.5.2-.2 0-.3 0-.4-.2-.2-.5-.3-1.4-.3-2s.1-2.3.3-3.2.1-1.5-.2-1.9c-.3-.5-.5-.8-.5-1-.1-.2 0-.3.2-.4.1-.1.3 0 .5 0 .3 0 1.4-.2 2.2-.7s2.2-1.4 3.1-1.8c.9-.3 1.3-.5 2.3-.5.2 0 .4.1.1.3s-1.3.4-2.6 1.8c-.8.9-1 1.4-1.3 1.8-.2.4-.4.5-.8.8m.1 7.7h-.8c-.2 0-.3 0-.3-.1v-.4c0-.1 0-.1.1-.1h1c.1 0 .1 0 .1.2v.3c0-.1 0 .1-.1.1m-1.8 3.1c-.2-.1-.7-1.1-.9-2.1 0-.1 0-.4.2-.4s.4-.1.5-.2c.1 0 .4-.1.4.3s0 .8.2 1.9c.1.2.1.3.1.3-.1.2-.4.3-.5.2M51.6 26s2.3-8-4.4-14.4c0 0-.2-.2-.4-.3-.3-.2-.6-.5-1-.8-.9-.6-1.6-1.1-3-1.7-.4-.2-1.9-.9-3.4-1.2-.4 0-1.4-.3-2.4-.4h-2.3c-.2 0-.5 0-.9.1-.5.1-1.1.2-1.4.2-.4.1-.9.2-1.6.4-.2.1-.5.1-.7.2-.1 0-.2 0-.2.1l-.9.3c-.2.1-1.1.4-1.3.5-.1 0-.2.1-.4.1-.9.3-.8.8-.8.8-1.1 2.5-4.4 2.4-4.4 2.4-.1 1.1 2.4 2.1 2.4 2.1-.5.9-1.9 1.5-3.5 1.6-1.7.1-1.8 1.5-1.8 1.5.8 1.2 1.8 1.5.9 7.5s4.4 10.4 4.4 10.4c-.5 2.7 1.3 5.6 1.3 5.6-.6 2.2 1.6 5.4 1.6 5.4.2.2 1.5 1.8 4 3.3.4.2.7.4.8.5s.2.3-.1.3c-.2 0-.9 0-1.7.1-.8.2-.7.5-.7.9v1.2c0 .5-.1 1 .1 1.2s.6.4 1.5.4c.9-.1 1.2-.1 1.3-.1s2.1-.1 2.4-.2.4.1.2.5c-.4.8-2.1 3.9-5.5 6.8-.6.4 2.3 1.2 2.6 1.1.2-.1 1.9-1.7 2.8-3.2.1-.1.5-.7.9-1.7.1-.1.2-.2.2 0s.4 4.5.1 6.1c-.1.8.6.7 2.5 1.1.5.1.2-7.4-.9-10.5v-.1c0-.1.1-.2.2-.2h.1c.7-.1 2.2 0 2.4 0 .3 0 .9.1 1.3.2.4 0 1.2.1 1.2-.9v-1.9c0-.3 0-.6-.5-.8-.6-.1-1.6-.1-2.5.1h-.2s0-.1.1-.2c.2-.1 1.9-.9 3.4-2.2 1.7-1.4 2.5-2.5 3-3.6 0 0 1.7-3.4 1.3-7l.3-.4s1.1.4 1.8-1.3c.9-1.7 5.2-8.9 1.8-9.9"/><path d="m42.3 54.4-.2.1v.5H42v-.5h-.2v-.1zm.1 0h.1l.2.5.2-.5h.1v.6h-.1v-.6l-.2.6h-.1zl.1.1v.5h-.1z"/></svg>