<svg xmlns="http://www.w3.org/2000/svg" xml:space="preserve" viewBox="0 0 378.75 220.25"><path d="M123.54 104.74c-.28-7.64-.15-15.3-.07-22.94 43.97.13 87.94.03 131.91.05.01 7.61.01 15.21 0 22.81-43.95.05-87.9-.1-131.84.08m59.6-96.38h10.98c.09 3.73.08 7.45.06 11.18 3.67-.01 7.35.01 11.02-.02.03 3.66.03 7.32-.08 10.98-3.64 0-7.29.02-10.93 0 0 3.6-.01 7.21.02 10.82-3.62.23-7.24.18-10.86.15-.02-3.66-.02-7.33-.04-11-3.68.05-7.35.03-11.02.04-.06-3.65-.05-7.31-.06-10.96 3.7-.01 7.4-.02 11.09 0-.08-3.73.25-7.48-.18-11.19m91.28 49.6c0 10.56-8.56 19.12-19.12 19.12s-19.12-8.56-19.12-19.12 8.56-19.12 19.12-19.12 19.12 8.55 19.12 19.12m-43.95 0c0 10.56-8.56 19.12-19.12 19.12s-19.12-8.56-19.12-19.12 8.56-19.12 19.12-19.12 19.12 8.55 19.12 19.12m-43.95 0c0 10.56-8.56 19.12-19.12 19.12s-19.12-8.56-19.12-19.12 8.56-19.12 19.12-19.12 19.12 8.55 19.12 19.12m-43.95 0c0 10.56-8.56 19.12-19.13 19.12-10.56 0-19.12-8.56-19.12-19.12s8.56-19.12 19.12-19.12 19.13 8.55 19.13 19.12m78.44 66.15c18.28-.06 36.56.12 54.84-.09 5.77 15.69 10.82 31.65 16.27 47.46.45-.71 1.09-1.31 1.32-2.14 5.21-15.09 10.54-30.14 15.8-45.22 18.38-.02 36.76-.03 55.14.01v87.66c-11.25.14-22.51.05-33.76.05-.02-20.18.1-40.37-.06-60.56-1.57.88-1.73 2.87-2.4 4.36-6.53 18.75-13.23 37.44-19.76 56.19-10.58 0-21.17.14-31.74-.07-6.63-19.17-13.49-38.25-20.18-57.39-.24-1.07-.84-1.85-1.78-2.35-.03 19.94.01 39.89-.01 59.84-11.23 0-22.46 0-33.69-.01.02-29.24-.01-58.49.01-87.74m-206.63 0c11.1 0 22.2-.01 33.31.01.02 10.62-.02 21.25.01 31.88 11.01-10.54 21.77-21.33 32.78-31.87q16.785-.045 33.57 0c-12.9 13.11-26.15 25.88-38.95 39.08 16.13 15.64 31.71 31.86 47.98 47.33.14-28.8.02-57.61.06-86.42q17.025-.03 34.05 0c0 21.85-.02 43.7 0 65.55 18.13-.05 36.25.06 54.37-.06.25 7.41.04 14.83.12 22.24-44.06 0-88.13.04-132.19-.02-10.42-10.55-20.98-20.96-31.45-31.46-.15 10.51.02 21.01-.09 31.52-11.19-.08-22.38.01-33.57-.05z"/></svg>