<svg xmlns="http://www.w3.org/2000/svg" xml:space="preserve" viewBox="0 0 360 180"><path d="M206 53.9c15 0 30.1.1 45.1-.1 4.7 12.9 8.9 26 13.4 39.1.4-.6.9-1.1 1.1-1.8 4.3-12.4 8.7-24.8 13-37.2H324V126c-9.3.1-18.5 0-27.8 0 0-16.6.1-33.2 0-49.8-1.3.7-1.4 2.4-2 3.6-5.4 15.4-10.9 30.8-16.3 46.2-8.7 0-17.4.1-26.1-.1-5.5-15.8-11.1-31.5-16.6-47.2-.2-.9-.7-1.5-1.5-1.9V126H206zm-170 0h27.4v26.2c9.1-8.7 17.9-17.6 27-26.2H118c-10.6 10.8-21.5 21.3-32 32.2 13.3 12.9 26.1 26.2 39.5 38.9.1-23.7 0-47.4 0-71.1h28v53.9h44.7c.2 6.1 0 12.2.1 18.3H89.5c-8.6-8.7-17.3-17.2-25.9-25.9-.1 8.6 0 17.3-.1 25.9-9.2-.1-18.4 0-27.6 0V53.9z"/></svg>