<svg xmlns="http://www.w3.org/2000/svg" xml:space="preserve" viewBox="0 0 360 180"><path d="M128.1 79.1h-8.2c.3-5.8 1.5-10.9 6.8-14.2 5.2-3.2 11-4 17-3.5 3.2.3 6.4.9 9.4 2.3q7.8 3.6 7.8 12.3v30.5c0 3.7.8 4.4 4.5 4 .4-.1.8-.1 1.2-.2.1.2.1.4.1.5v6.2c-3 1-6 1.3-9 .5-2.2-.6-3.6-2.2-4.4-4.3-.4-1.1-.6-2.2-.9-3.4-.3.4-.6.7-.9 1-6.5 6.6-14.2 9.4-23.3 7-6.4-1.6-10.9-7.5-11.1-14.2-.1-2.1.1-4.3.6-6.4 1.2-4.8 4.6-7.7 8.9-9.7 3-1.4 6.3-1.8 9.6-2.2 3.9-.5 7.6-.9 11.5-1.5 2.6-.4 3.9-1.8 4.3-4.4.8-5.2-1.5-8.7-6.6-10-3-.8-6.1-.9-9.2-.3-4.6.8-7.1 3.4-8 7.9.2.7 0 1.4-.1 2.1m24.2 10.1c-3.8 2-7.5 2.5-11.2 3.1-3.1.5-6.3.9-9.3 1.9-4 1.3-5.8 4.6-5.4 9 .3 3.7 2.8 6.6 6.8 7.3 6.1 1 11.6-.7 15.9-5.2 1.3-1.3 2.3-3.2 2.5-5 .5-3.6.5-7.2.7-11.1m117.1 10.6c-.2.9-.3 1.6-.5 2.3-3.5 10.8-10.7 15.4-19.5 16.4-15.1 1.6-23.8-8.2-26-18.7-1.8-8.3-1.5-16.6 2.1-24.4 3.5-7.4 9-12.3 17.3-13.7 9.9-1.8 24 3.2 26.3 18.6.6 4 .8 8.1 1.1 12.3h-38.4c.3 5.7 1.2 11 5.4 15.1 1.7 1.7 3.9 2.5 6.3 3 7.8 1.4 14.2-2.3 16.7-9.9.3-.8.6-1.1 1.5-1zm-37.1-14.5H261c-.3-3.3-.9-6.4-2.5-9.4-1.5-2.8-3.7-4.8-6.8-5.8-9.8-3.4-20.1 4.5-19.4 15.2m57.8 31.4h-8.7V62.5h8.3v7.6c.6-.7 1-1.1 1.4-1.6 5.9-6.8 13.4-8.5 21.9-6.4 5.9 1.5 9.2 5.6 10.3 11.4.4 2.4.8 4.9.8 7.3.1 11.6.1 23.3.1 34.9 0 .3-.1.6-.1 1H315v-1.5c0-10.9.1-21.7-.1-32.6 0-2.4-.4-4.9-1.1-7.2-1.1-3.8-4.2-5.8-8.2-6-7.3-.3-13 3.6-14.8 10-.6 2.3-.8 4.8-.8 7.3-.1 9.5-.1 19-.1 28.4zm-115-54.2h8.4v23l1.1-1.1c6.9-7 13.8-14.1 20.7-21.1.6-.6 1.1-.9 2-.9 3.2.1 6.5 0 10 0l-1.1 1.1c-6.1 6.1-12.1 12.2-18.2 18.2-.7.7-.7 1.1-.3 1.9 6.6 10.6 13.2 21.1 19.8 31.7.3.4.4.8.8 1.3-.4.1-.8.1-1.1.1h-9c-.8 0-1.2-.3-1.6-.9-5.1-8.5-10.1-16.9-15.2-25.5-.3-.4-.4-.8-.8-1.2l-6.9 6.9c-.3.3-.4.9-.4 1.3v19.3h-4.9c-1.1 0-2.7.3-3.3-.3-.6-.5-.3-2.1-.3-3.3V64c.3-.3.3-.8.3-1.5m-97 0c-6.8 6.8-13.5 13.4-20.2 20 7.2 11.5 14.2 22.8 21.4 34.3-.6 0-.9.1-1.3.1h-8.8c-.8 0-1.3-.3-1.8-1-5.1-8.5-10.1-16.9-15.2-25.5-.2-.4-.4-.7-.8-1.2-1.3 1.3-2.4 2.8-3.8 3.8-2.8 2.1-3.7 4.8-3.5 8.3.3 4.6.1 9.3.1 13.9v1.5H36V62.5h8.3v22.6c.2.1.4.3.5.4.3-.4.4-.8.6-1.1 6.8-7 13.7-14 20.5-21 .6-.6 1.2-.9 2.1-.9 2.8.1 5.7 0 8.5 0zm16.7 9c4.2-6.2 8.7-11.4 17.1-9.9v9.3c-2.2.1-4.4.1-6.5.5-5.1 1.1-9.1 5.8-9.9 11.4-.1 1.1-.3 2.3-.3 3.4v30.5h-8.6V62.6h8.2z"/></svg>