<svg xmlns="http://www.w3.org/2000/svg" xml:space="preserve" viewBox="0 0 360 180"><path d="M47.73 64.47c5.64-.38 11.39.76 16.44 3.31 7.49 3.69 13.45 10.31 16.22 18.12 1.25 3.47 1.9 7.11 1.9 10.79v13.62c0 .54 0 1.14-.11 1.68-.33 1.36-1.3 2.6-2.6 3.2-.92.43-1.95.49-2.87.33-2.06-.38-3.69-2.33-3.69-4.45V98.38c.05-1.19.05-2.5-.6-3.53-1.03-1.95-3.63-2.87-5.64-2.06-1.74.6-2.98 2.39-3.04 4.23v12.86c0 .81.05 1.63-.22 2.39-.43 1.52-1.68 2.71-3.2 3.15-2.01.54-4.29-.33-5.26-2.17-.71-1.08-.65-2.44-.6-3.69v-12.8c-.05-2.17-1.84-4.12-3.96-4.39-1.41-.22-2.87.27-3.91 1.25-.92.87-1.41 2.12-1.41 3.36v12.42c0 1.03.11 2.12-.27 3.09-.6 1.79-2.39 3.09-4.29 3.04-1.95.11-3.85-1.25-4.45-3.04-.33-.92-.27-1.84-.27-2.82V96.81c0-2.12-1.68-4.07-3.74-4.45-1.9-.38-3.96.54-4.94 2.28-.38.71-.6 1.52-.6 2.33v13.94c0 1.36-.6 2.71-1.63 3.58-1.57 1.36-4.12 1.46-5.75.22-1.19-.81-1.9-2.22-1.9-3.69v-14.1c0-5.32 1.36-10.63 3.91-15.35 2.06-3.85 4.94-7.27 8.35-9.98 5.05-4.24 11.51-6.74 18.13-7.12M174.49 80.8h-7.05c.27-4.94 1.3-9.38 5.8-12.2 4.5-2.77 9.44-3.42 14.59-2.98 2.77.22 5.53.81 8.08 2.01 4.5 2.06 6.73 5.59 6.73 10.52v26.2c0 3.2.65 3.8 3.85 3.47.33-.05.71-.11 1.03-.16.05.16.05.33.05.43v5.32c-2.55.87-5.15 1.14-7.7.43-1.9-.54-3.09-1.9-3.74-3.69-.33-.92-.54-1.9-.81-2.93-.27.33-.49.6-.76.87-5.59 5.64-12.2 8.03-20.02 6.02-5.53-1.41-9.33-6.46-9.49-12.2-.05-1.84.11-3.69.54-5.48 1.03-4.12 3.96-6.62 7.65-8.3 2.6-1.19 5.42-1.52 8.25-1.9 3.31-.43 6.56-.81 9.87-1.3 2.22-.33 3.36-1.52 3.69-3.74.71-4.5-1.3-7.49-5.64-8.57-2.6-.65-5.26-.76-7.92-.27-3.91.71-6.08 2.93-6.83 6.78.05.53-.06 1.07-.17 1.67m20.78 8.68c-3.25 1.74-6.4 2.17-9.6 2.66-2.66.43-5.37.81-7.97 1.63-3.42 1.14-4.99 3.96-4.66 7.76.27 3.15 2.39 5.7 5.8 6.24 5.26.87 9.93-.6 13.62-4.5 1.08-1.14 1.95-2.77 2.17-4.29.48-3.05.42-6.14.64-9.5m100.51 9.11c-.16.76-.27 1.41-.43 2.01-3.04 9.28-9.22 13.24-16.71 14.1-12.96 1.41-20.4-7.05-22.29-16.06-1.52-7.16-1.3-14.27 1.84-20.99 2.98-6.35 7.76-10.52 14.86-11.77 8.52-1.52 20.56 2.71 22.57 16 .54 3.42.65 6.94.98 10.52h-32.98c.27 4.88 1.03 9.44 4.61 12.96 1.46 1.46 3.36 2.17 5.42 2.55 6.67 1.19 12.2-2.01 14.37-8.46.22-.71.54-.92 1.25-.87 2.12.01 4.24.01 6.51.01m-31.89-12.47h24.68c-.27-2.87-.76-5.53-2.12-8.03-1.3-2.39-3.2-4.12-5.8-4.99-8.52-2.93-17.3 3.85-16.76 13.02m49.63 27.01h-7.49V66.59h7.11v6.51c.54-.6.87-.98 1.19-1.36 5.1-5.8 11.5-7.32 18.77-5.53 5.04 1.25 7.87 4.83 8.84 9.82.38 2.06.65 4.18.65 6.24.05 9.98.05 19.96.05 29.94 0 .27-.05.54-.05.87h-7.65v-1.25c0-9.33.05-18.66-.05-27.99 0-2.06-.33-4.18-.92-6.18-.98-3.25-3.58-4.99-7-5.15-6.24-.22-11.17 3.09-12.69 8.62-.54 2.01-.71 4.12-.71 6.24-.05 8.19-.05 16.33-.05 24.41zm-98.67-46.54h7.21v19.74c.43-.43.71-.65.98-.92 5.91-6.02 11.83-12.1 17.74-18.12.49-.54.98-.76 1.74-.76 2.77.05 5.59 0 8.62 0-.43.43-.65.71-.92.98-5.21 5.21-10.36 10.47-15.62 15.62-.6.6-.6.98-.22 1.63 5.7 9.06 11.34 18.12 16.98 27.18.22.33.38.65.65 1.14-.38.05-.65.05-.98.05h-7.76c-.71 0-1.03-.27-1.41-.81-4.34-7.27-8.68-14.54-13.02-21.86-.22-.33-.38-.65-.65-1.03-2.01 2.01-3.96 3.91-5.91 5.91-.27.27-.33.76-.33 1.14v16.6h-4.18c-.98 0-2.33.27-2.87-.27-.49-.43-.22-1.84-.22-2.82V67.83c.17-.27.17-.7.17-1.24m-83.26-.06c-5.86 5.8-11.55 11.5-17.3 17.2 6.18 9.87 12.2 19.53 18.33 29.4-.49 0-.81.05-1.14.05h-7.54c-.71 0-1.14-.27-1.52-.87-4.34-7.27-8.68-14.54-13.02-21.86-.16-.33-.38-.6-.65-1.03-1.08 1.14-2.06 2.39-3.25 3.25-2.44 1.84-3.15 4.12-2.98 7.16.27 3.96.05 7.97.05 11.93v1.3h-7.16V66.59h7.16v19.42c.16.11.33.22.43.33.22-.33.33-.71.54-.98 5.86-6.02 11.77-11.99 17.63-18.06.54-.54 1.03-.81 1.84-.76 2.44.05 4.88 0 7.32 0 .39-.01.71-.01 1.26-.01m14.32 7.76c3.63-5.32 7.49-9.76 14.65-8.46v7.97c-1.9.11-3.8.05-5.59.43-4.39.92-7.81 4.94-8.52 9.82-.11.98-.22 1.95-.22 2.93v26.2h-7.38V66.7h7.05c.01 2.44.01 4.88.01 7.59"/></svg>