<svg xmlns="http://www.w3.org/2000/svg" xml:space="preserve" viewBox="0 0 72 72"><path d="M7.2 36c0-6.4 12.9-11.5 28.8-11.5S64.8 29.6 64.8 36 51.9 47.5 36 47.5 7.2 42.4 7.2 36m35.2 1s0-.1 0 0c-.9-.2-1.7-.3-2.6-.4 0 0-.1-.1-.1-.2 2.7-2.8 3.7-6.4 2.3-9.2 0-.1.1-.1.1-.1 9.2 1.1 15.8 4.6 15.8 8.8 0 5-9.9 9.1-22.1 9.1s-21.9-4-21.9-9c0-4.4 7.4-8 17.4-8.9 0 0 .1 0 .1.1l-2.2 11.9c-.2.8.4 1.5 1.1 1.7h.4c1.9-.1 4-.7 5.9-1.8.6-.3 1.1-.7 1.6-1.1h.1c.7.4 1 .9 1 1.5 0 .7-.7 1.4-1.8 1.9-1.3.6-3.2 1-5.4 1-1.8 0-3.5-.3-4.8-.7-.1 0-.1 0-.1.1l-.2 1s0 .1.1.1c2.6.6 5.6 1 8.8 1 4 0 7.2-1.3 7.2-2.9 0-.6-.5-1.2-1.3-1.7-.7-.4-1.2-.8-1.1-1.1s.8-.4 1.6-.1c0 0 .1 0 .1-.1zM36 29.7v.2c.1 2.1-1.2 4.9-3.6 7.3-.5.5-1 .9-1.5 1.3h-.1l-.1-.1L33 25.5s0-.1-.1-.1c-12.8.7-22.8 5.2-22.8 10.6 0 5.8 11.6 10.6 25.9 10.6S61.9 41.9 61.9 36 50.3 25.4 36 25.4h-1.4s-.1 0-.1.1l-.2 1.5v.1c1 .5 1.7 1.5 1.7 2.6"/></svg>