<svg xmlns="http://www.w3.org/2000/svg" xml:space="preserve" viewBox="0 0 360 180"><path d="M156.598 72.917c-5.042 0-10.926 2.521-14.708 7.143v-6.303h-12.607v44.965h12.607V93.088c0-4.623 3.782-9.666 10.086-9.666 5.043 0 10.505 3.362 10.505 9.666v25.634h12.607V90.566c0-10.085-7.564-17.65-18.49-17.65m106.561.886-11.346 30.677-11.346-30.677h-14.288l18.49 44.965h13.447l18.49-44.965zM92.553 87.524c2.101-2.941 5.463-4.622 9.665-4.622 4.623 0 7.984 2.521 9.665 6.303L90.032 98.03c-.42-4.623.42-7.984 2.52-10.506m23.954 17.65c-5.043 3.782-8.405 4.622-13.027 4.622q-6.303 0-10.086-3.782l31.518-13.027c-.841-5.043-2.522-9.245-5.463-12.607-4.203-5.042-10.506-7.564-17.65-7.564-13.447 0-23.953 10.086-23.953 23.533s10.506 23.533 25.214 23.533c8.404 0 16.809-3.782 21.011-8.825zm-39.743 2.311H48.607V60.419H36.001v58.832h40.762zm222.969-23.869c-6.724 0-11.766 5.463-11.766 12.607s5.463 12.607 12.186 12.607c6.724 0 11.767-5.463 11.767-12.607s-5.463-12.607-12.187-12.607m0 36.14c-13.447 0-24.373-10.085-24.373-23.533 0-13.027 10.505-23.532 24.373-23.532 13.447 0 24.373 10.085 24.373 23.532 0 13.027-10.926 23.533-24.373 23.533M204.1 83.616c-6.723 0-11.766 5.463-11.766 12.607s5.463 12.607 12.187 12.607 11.766-5.463 11.766-12.607-5.463-12.607-12.187-12.607m0 36.14c-13.447 0-24.373-10.085-24.373-23.533 0-13.027 10.506-23.532 24.373-23.532 13.448 0 24.374 10.085 24.374 23.532 0 13.027-10.506 23.533-24.374 23.533"/></svg>