<svg xmlns="http://www.w3.org/2000/svg" xml:space="preserve" viewBox="0 0 72 72"><path d="M36 8.6C20.1 8.6 7.2 19 7.2 31.9c0 11.6 10.3 21.2 24.1 23.1.9.2 2.2.6 2.5 1.4.3.7.2 1.9.1 2.6 0 0-.3 2-.4 2.5-.1.7-.6 2.8 2.5 1.6 3.1-1.3 16.6-9.8 22.6-16.7 4.2-4.6 6.2-9.2 6.2-14.4C64.8 19 51.9 8.6 36 8.6M25.8 38.8c0 .3-.2.5-.5.5h-8.1c-.3 0-.5-.2-.5-.5V26.3c0-.3.2-.5.5-.5h2.1c.3 0 .5.2.5.5v10h5.5c.3 0 .5.2.5.5zm4.9 0c0 .3-.2.6-.6.6h-2c-.3 0-.6-.2-.6-.6V26.3c0-.3.2-.6.6-.6h2c.3 0 .6.2.6.6zm13.9 0c0 .3-.2.5-.5.5H42c-.1 0-.1-.1-.1-.1l-5.8-7.8v7.5c0 .3-.2.5-.5.5h-2c-.3 0-.5-.2-.5-.5V26.3c0-.3.2-.5.5-.5h2.1v.1l5.7 7.8v-7.5c0-.3.2-.5.5-.5h2c.3 0 .5.3.5.6zm11.2-10.5c0 .3-.2.5-.5.5h-5.5V31h5.5c.3 0 .5.2.5.5v2.1c0 .3-.2.5-.5.5h-5.5v2.1h5.5c.3 0 .5.2.5.5v2c0 .3-.2.5-.5.6h-8.1c-.3 0-.5-.2-.5-.5V26.3c0-.3.2-.5.5-.5h8.1c.3 0 .5.2.5.5z"/></svg>