<svg xmlns="http://www.w3.org/2000/svg" xml:space="preserve" viewBox="0 0 72 72"><path d="M9 30.3 41.7 63c.5.5.2 1.3-.4 1.4-1.1.2-2.2.4-3.4.4-.2 0-.5-.1-.7-.2L7.5 34.7c-.2-.2-.3-.4-.2-.7.1-1.1.2-2.3.4-3.4.1-.6.9-.8 1.3-.3m-.9 13.2c-.2-.8.7-1.3 1.3-.7l19.8 19.8c.6.6.1 1.6-.7 1.3-9.9-2.7-17.7-10.5-20.4-20.4M11 21.6c.3-.5.9-.6 1.3-.2l38.2 38.2c.4.4.3 1-.2 1.3-.8.5-1.6.9-2.5 1.3-.3.1-.7.1-.9-.2l-37-37c-.2-.2-.3-.6-.2-.9.4-.8.8-1.7 1.3-2.5M36 7.2c15.9 0 28.8 12.9 28.8 28.8 0 8.5-3.6 16.1-9.4 21.3-.3.3-.8.3-1.2 0L14.7 17.8c-.3-.3-.3-.8 0-1.2 5.2-5.8 12.8-9.4 21.3-9.4"/></svg>