<svg xmlns="http://www.w3.org/2000/svg" xml:space="preserve" viewBox="0 0 291 79.46"><path d="M1.784 65.65h31.624V55.27H13.236V15.667H1.784zm47.63 0V31.225H37.973v34.427zm-5.726-39.133c3.994 0 6.48-2.648 6.48-5.95-.071-3.382-2.486-5.95-6.398-5.95s-6.48 2.568-6.48 5.95c0 3.312 2.486 5.95 6.327 5.95zM54.733 65.65h11.44V46.426c0-1.029.072-2.058.378-2.791.825-2.058 2.71-4.188 5.868-4.188 4.137 0 5.797 3.159 5.797 7.784v18.42h11.442V45.907c0-10.576-5.644-15.497-13.174-15.497-6.174 0-8.884 3.454-10.392 5.798h.072v-4.993H54.733c.142 3.24 0 34.437 0 34.437m51.073-49.985H94.365v49.984h11.441V54.484l2.863-3.596 8.956 14.763h14.08l-15.058-21.375 13.173-14.539h-13.774s-9.414 13.01-10.24 14.549z"/><path d="M162.31 51.295a28 28 0 0 0 .377-4.503c0-8.904-4.513-17.931-16.413-17.931-12.725 0-18.593 10.066-18.593 19.195 0 11.288 7.152 18.338 19.653 18.338 4.972 0 9.556-.733 13.326-2.272l-1.508-7.56c-3.087 1.02-6.245 1.54-10.168 1.54-5.349 0-10.015-2.191-10.392-6.868zm-23.79-7.743c.307-2.934 2.263-7.274 7.153-7.274 5.196 0 6.398 4.625 6.398 7.274zm52.41-27.885v17.3h-.154c-1.66-2.425-5.124-4.035-9.709-4.035-8.813 0-16.566 7.05-16.485 19.093 0 11.166 7 18.43 15.731 18.43 4.748 0 9.261-2.058 11.523-6.02h.224l.448 5.216h10.168c-.152-2.425-.305-6.613-.305-10.718V15.667zm0 34.05c0 .875-.072 1.762-.225 2.495-.672 3.159-3.393 5.36-6.704 5.36-4.747 0-7.834-3.821-7.834-9.843 0-5.654 2.638-10.208 7.906-10.208 3.535 0 6.02 2.425 6.703 5.43.153.662.153 1.396.153 2.058zM284.05 1.78h-64.573c-3.097 0-5.604 2.446-5.604 5.461v65.327c0 3.016 2.507 5.461 5.604 5.461h64.573c3.097 0 5.604-2.445 5.604-5.46V7.24c0-3.015-2.507-5.46-5.604-5.46m-47.202 63.83h-11.442V31.184h11.442zm-5.716-39.133h-.071c-3.841 0-6.327-2.65-6.327-5.95 0-3.383 2.557-5.95 6.47-5.95s6.326 2.567 6.398 5.95c0 3.311-2.486 5.95-6.47 5.95m46.989 39.133h-11.442V47.19c0-4.626-1.66-7.784-5.797-7.784-3.158 0-5.043 2.129-5.868 4.187-.306.734-.377 1.763-.377 2.792V65.61h-11.442s.153-31.197 0-34.426h11.442v4.88c1.518-2.343 4.238-5.685 10.31-5.685 7.53 0 13.174 4.92 13.174 15.496z"/></svg>