<svg xmlns="http://www.w3.org/2000/svg" xml:space="preserve" viewBox="0 0 360 180"><path d="M192.7 112.5h37.1V108h-30.7V93.5h23.1v-4.6h-23.1V75.5h30.7V71h-37.1zM212 64.3l-5 5.6 15.8-5.6zm80.2 43.7V71h-5.8v41.5H324V108zm-38.3-37-21.1 41.6h7.1l5.4-10.8h25.3l5.5 10.8h7.1L262.1 71zM248 96.6l10-19.9 10.1 19.9zm-75.5-1.4c9.5-2.5 10.4-9.6 10.4-12.2-.6-7.4-5.6-12-14.6-12h-26.2v41.6h6V95.1h17.1l12.5 17.4h7.5c.1 0-9-11.7-12.7-17.3m-5-5h-19.4V75.9h20.1c4.6 0 7.2 2.2 8.2 4.9.6 1.9.2 4.3-.8 6-1.7 2.8-4.9 3.4-8.1 3.4m-61.2-26.3C89.4 63.9 78 75.8 78 90.2c0 15.1 12.7 25.8 28.3 25.8s28.3-10.5 28.3-25.8c0-14.4-11.6-26.3-28.3-26.3m-.2 47c-11.7 0-21.3-9.4-21.3-20.7s9.2-21.1 21.7-21.1c12.3 0 21.3 9.8 21.3 21.1s-10.1 20.7-21.7 20.7M62.9 85.7h4.3L75 71h-6.3zM41.8 108V71H36v41.5h37.6V108z"/></svg>