<svg xmlns="http://www.w3.org/2000/svg" xml:space="preserve" viewBox="0 0 72 72"><path d="M49.7 7.9h14.8v3.3c-1.3.1-2.5.2-3.7.7s-2.2 1.5-2.7 2.7c-6 14.1-12 28.3-18 42.4-.1.2-.2.5-.3.7h-6.5c-.9-1.9-1.9-3.8-2.8-5.7-1.1 2.9-2.2 5.9-3.3 8.8h21.3c1.3 0 2.6 0 3.9-.5 2-.8 3.6-2.4 4.9-4.1 1.6-2.1 2.8-4.4 3.8-6.7h3.6c-2.3 4.9-4.6 9.7-6.8 14.5h-49c.4-1 .8-2.1 1.2-3.1 0-.1.2-.1.2-.1 2 0 4.1-.1 6.1-.5 1-.2 2.1-.6 2.9-1.3.4-.4.6-1 .7-1.5 1.9-5.2 3.9-10.3 5.8-15.5L13.5 15.9c-.3-.8-.8-1.5-1.4-2-1.4-1.1-3.3-1.2-5-1.3V8.9h17.2v3.7c-.7 0-1.5 0-2.2.4-.3.2-.5.6-.4.9.1.6.6 1 .8 1.6 2.4 5.2 4.8 10.4 7.3 15.7 1.2-3.4 2.4-6.8 3.7-10.2q.3-.75 0-1.5c-.2-.4-.5-.6-.9-.8-.7-.3-1.5-.3-2.2-.3.4-1.1.8-2.1 1.2-3.2.1-.1.2 0 .3 0h17.5c-.4 1.1-.8 2.1-1.2 3.2-1.4.1-2.8.1-4.2.6-.6.3-1.2.6-1.5 1.2-.2.4-.4.9-.6 1.3-2.4 6.6-4.9 13.3-7.3 19.9 1.3 3 2.7 6 4.1 9 4.9-11.7 9.9-23.3 14.8-35 .3-.7.9-1.3.9-2.1 0-.6-.4-1.2-1-1.4-1.2-.5-2.5-.6-3.7-.6z"/></svg>