<svg xmlns="http://www.w3.org/2000/svg" viewBox="0 0 800 850.6"><path d="M740 299.5c0-159-104.2-205.6-104.2-205.6-52.5-24.1-142.7-34.3-236.4-35h-2.3c-93.7.8-183.8 10.9-236.4 35 0 0-104.2 46.6-104.2 205.6s-.7 79.9.4 126.1c3.8 155.5 28.5 308.7 172.3 346.8 66.3 17.5 123.2 21.2 169 18.7 83.1-4.6 129.8-29.7 129.8-29.7l-2.7-60.3s-59.4 18.7-126.1 16.4c-66.1-2.3-135.9-7.1-146.5-88.3q-1.5-10.65-1.5-22.8s64.9 15.9 147.1 19.6c50.3 2.3 97.4-2.9 145.3-8.7 91.8-11 171.8-67.5 181.8-119.2 15.8-81.4 14.5-198.7 14.5-198.7ZM617.1 504.3h-76.3V317.4c0-39.4-16.6-59.4-49.7-59.4s-55 23.7-55 70.6v102.3h-75.8V328.6c0-46.9-18.4-70.6-55-70.6s-49.7 20-49.7 59.4v186.9h-76.3V311.8c0-39.3 10-70.6 30.1-93.7 20.8-23.1 47.9-35 81.7-35s68.6 15 88.1 45l19 31.8 19-31.8c19.5-30 49.1-45 88.1-45s60.9 11.9 81.7 35c20.1 23.1 30.1 54.4 30.1 93.7z"/></svg>