<svg xmlns="http://www.w3.org/2000/svg" xml:space="preserve" viewBox="0 0 72 72"><path d="M36 7.2C19.8 7.2 7.2 19.1 7.2 35.1c0 8.4 3.4 15.7 9 20.7.5.4.8 1 .8 1.6l.2 5.1c0 1.3 1.1 2.3 2.4 2.2.3 0 .6-.1.9-.2l5.7-2.5c.5-.2 1-.3 1.5-.1 2.6.7 5.4 1.1 8.3 1.1 16.2 0 28.8-11.9 28.8-27.9S52.2 7.2 36 7.2m17.3 21.5-8.5 13.4c-1.3 2-3.9 2.6-6 1.4-.1-.1-.2-.1-.3-.2l-6.7-5c-.6-.5-1.5-.5-2.1 0l-9.1 6.9c-1.2.9-2.8-.5-2-1.8L27.1 30c1.3-2 3.9-2.6 6-1.4.1.1.2.1.3.2l6.7 5c.6.5 1.5.5 2.1 0l9.1-6.9c1.2-.9 2.8.5 2 1.8"/></svg>