<svg xmlns="http://www.w3.org/2000/svg" xml:space="preserve" viewBox="0 0 360 180"><path d="M142.2 83c-5.6 0-9 4.1-9 11.3 0 6.6 3 11.6 9 11.6 5.7 0 9.4-4.6 9.4-11.8-.2-7.6-4.3-11.1-9.4-11.1"/><path d="M36 43.8v92.4h288V43.8zm65.6 69.7V92c0-6.6-2.2-9.1-6.5-9.1-5.2 0-7.3 3.7-7.3 9v13.3h5v8.3H76.9V92c0-6.6-2.2-9.1-6.5-9.1-5.2 0-7.3 3.7-7.3 9v13.3h7.2v8.3H47.1v-8.3h5.1V83.7h-5.5v-8.3H63v5.7c2.3-4 6.2-6.5 11.6-6.5 5.5 0 10.5 2.6 12.4 8.2 2.1-5.1 6.4-8.2 12.4-8.2 6.8 0 13.1 4.1 13.1 13.2v17.4h5.1v8.3zm40.1.8c-11.7 0-19.8-7.2-19.8-19.3 0-11.1 6.8-20.3 20.4-20.3s20.3 9.2 20.3 19.8c.1 12.1-8.7 19.8-20.9 19.8m60.6-.8h-33.2l-1.1-5.7 20.9-24.1H177l-1.7 5.9-7.9-.8 1.3-13.3h33.5l.8 5.7-21 24h12.3l1.8-5.9 8.6.8zm20.6 0h-11.4V99.8h11.4zm0-24.4h-11.4V75.4h11.4zm6 24.4 16.5-58h10.7l-16.5 58zm22.1 0 16.5-58h10.7l-16.4 58zm56.7.8c-5.1 0-7.9-3-8.4-7.6-2.2 3.9-6.1 7.6-12.2 7.6-5.5 0-11.7-3-11.7-10.9 0-9.4 9-11.6 17.7-11.6 2.1 0 4.2.1 6.2.3v-1.3c0-3.9-.1-8.5-6.2-8.5-2.3 0-4.1.2-5.8 1.1l-1.4 5.4-8.7-.9 1.7-9.9c6.7-2.7 10-3.5 16.3-3.5 8.2 0 15.1 4.2 15.1 12.9v16.5c0 2.2.8 3 2.6 3 .5 0 1.1-.1 1.6-.3l.1 5.7c-2.1 1.4-4.5 2-6.9 2"/><path d="M286.6 102.2c0 2.4 1.2 4.4 4.5 4.4 3.9 0 8-2.8 8.3-9.1-1.8-.3-3.6-.5-5.5-.5-3.9-.1-7.3 1-7.3 5.2"/></svg>