<svg xmlns="http://www.w3.org/2000/svg" xml:space="preserve" viewBox="0 0 72 72"><path d="M54.623 28.994c-3.784-5.677-7.148-7.57-7.99-8.41-1.05-1.051-1.892-2.103-2.312-2.734-1.051-1.261-2.523-2.733-4.836-2.733S35.7 16.59 35.28 17.85c-.21.421-.21.842-.42 1.052-.21.42-1.262 2.102-1.683 2.733h1.893l-.841 1.682c1.05-.21 1.892-.42 2.943-.42.841 0 1.472.21 1.892.84.631 1.052.631 4.206 1.472 6.729.841 2.313 2.944 4.415 5.257 6.097.21 0 .21 0 .21-.21v-.21c-1.892-1.893-3.364-3.995-4.205-6.308s-.631-5.467-1.472-6.938c-.42-.841-1.472-1.262-2.523-1.262-.841 0-1.472.21-1.682.21l.84-1.471h-1.47c.21-.42.63-1.052.84-1.262s.21-.63.42-1.051c.631-1.262 1.683-2.103 3.154-2.103 1.893 0 2.944 1.262 4.206 2.523.42.631 1.261 1.682 2.312 2.734.631.63 1.893 1.261 3.785 3.364 1.051 1.261 2.523 2.733 3.785 4.625 4.835 7.149 8.2 13.457 9.882 18.503-5.257-3.575-9.672-6.728-13.247-10.934-2.523-2.943-4.835-6.307-6.728-10.512-.21-.21-.21-.631-.42-.841 0-.21 0-.21-.21-.21 0 0-.21 0-.21.21s0 .42.21.84c1.05 4.416 3.784 8.41 6.938 11.775 2.944 3.364 6.518 6.097 9.251 8.2l2.103 6.308c0 .21.21.42.21.42v.21h-1.051c-.21 0-.42 0-.42-.21s-.211-.21-.211-.42c-.21-.631-1.262-3.785-1.472-4.626 0-.21-.21-.21-.21-.21s-.21 0-.21.21v.42c.21 1.472.63 3.154.84 3.785 0 .21.21.63.21.841s0 .21-.21.42l-.63.631c-.21.21-.21.21-.42.21s-.21-.21-.421-.42c-.841-3.574-1.892-7.99-2.313-9.251 0-.21-.21-.42-.21-.42-.21 0-.21 0-.21.21v.21c.21 1.261.84 5.887 1.682 10.302.21.631.42 1.052 1.05 1.052.211 0 .632-.21.842-.42l1.051-1.052c.42-.42.631-.42 1.262-.42h1.472c.42 0 .63 0 .63-.21.21-.211.21-.421.21-.632 0-.21 0-.63-.21-.84-.42-1.052-1.682-4.626-1.892-5.467 1.262 1.051 3.154 2.102 3.995 2.102.21 0 .42-.21.42-.42-.63-1.262-3.574-8.83-10.723-19.554M19.706 17.2c.21-.42.631-.84 1.262-.84.841 0 1.261.63 1.261 1.47 0 .421-.21.842-.63 1.052 0 .21.21.42.21.631 0 .841-.42 1.472-1.472 1.682 0 .63-.21 1.262-.63 1.472-.631.63-1.262.63-1.262.84 0 .211 0 .211.42.211 1.052 0 2.313-.63 2.313-1.682 1.051-.21 1.682-1.472 1.682-2.313 0-.21 0-.42-.21-.63.42-.21.841-.631.841-1.472 0-.631-.21-1.262-.841-1.682-.42-.42-1.051-.631-1.682-.631-1.051 0-1.682.63-2.103 1.051-1.05 0-2.523 1.262-2.523 2.944h-.21c0-.631-.63-1.052-1.261-1.052-.421-1.261-1.472-2.312-2.944-2.312h-.63c-.421-.42-.842-.631-1.683-.631-1.472 0-2.523 1.051-2.523 2.523.21.841.42 1.472 1.262 1.892v.21c0 1.052 1.261 2.944 2.943 2.944 0 .21.42.63.841.841v.21h-.21c-2.523 0-3.574 1.262-3.574 1.893-.841.21-1.262 1.05-1.262 1.892 0 1.472 1.051 2.523 2.523 2.523.42 0 1.051-.21 1.262-.42.21 0 .63.21.84.21.631 0 1.473-.21 2.103-1.052h.21c.842 0 1.683-.63 2.103-1.261 0-.21.21-.42.21-.42s0-.21-.21-.21-.21.21-.42.42c-.631.42-1.472.63-2.313.63-.42.631-1.052 1.052-1.682 1.052-.42 0-.841-.21-1.262-.42-.21.42-.63.42-1.051.42-.841 0-1.262-.631-1.262-1.472 0-.63.42-1.051.841-1.262 0-1.05 1.262-1.682 2.523-1.682h.631c.42-.42.841-.84 1.472-.84h.42c.21 0 .21-.21.21-.21s0-.211-.21-.211h-.42c-.63-.42-1.262-.841-1.682-1.682-1.472 0-2.733-1.262-2.733-2.523-.42-.21-.841-.631-.841-1.262 0-.84.63-1.261 1.261-1.261.42 0 .841.21 1.051.63h.631c1.051 0 2.313.631 2.523 2.103 1.893-.21 2.103.841 2.313 1.472 0 .21 0 .42.21.42s.21-.21.21-.42c.21-.631.421-.841.842-1.262 0-1.261.84-2.523 2.312-2.523m3.064 7.985c-.63.63-.841 1.051-2.103 2.313-1.471 1.682-2.102 3.153-3.364 6.097h1.261l.211-.42c.841-1.472 1.682-3.365 2.944-5.047l.42-.63c1.262-1.682 2.103-2.523 2.733-4.626.21-.841.42-1.472.841-1.892.42-.42 1.052-.631 1.682-.631.421 0 .841.21 1.472.42.42.21.631.21 1.262.21h.42l-.63 1.052 1.05.63c-1.26.421-1.891 1.473-2.102 2.103v.21s0 .21.21.21.21 0 .421-.21c.42-1.05.841-1.471 2.944-2.102L30.97 21.61l1.261-1.682h-1.05c-.632 0-1.052 0-1.683-.21-1.051-.42-1.472-.63-2.103-.63-.84 0-1.682.21-2.312.84-.841.841-1.052 1.682-1.472 2.734-.21.84-.42 1.682-.841 2.523"/><path d="M24.995 32.095c-.631.84-1.472 1.892-1.893 2.943.21 0 .841.42 1.052.631.63-1.051 1.682-2.523 2.313-3.364.42-1.051.84-1.262.84-2.523v-.63c0-.632.21-1.262.842-1.893.42-.42 1.05-.631 1.682-.631.63 0 .84.21 1.471.21.42 0 .631 0 .841-.21h.21l-.42 1.051 1.051.42c-.63.421-2.312 2.314-2.312 4.626 0 .841.21 1.472.21 2.103 0 0 0 .21.21.21 0 0 .21 0 .21-.21v-.21c0-.631 0-1.682.42-2.734.421-1.682 1.683-3.153 2.945-3.784l-1.683-.841.841-1.893-.84.21c-.421 0-.842.211-1.262.211-.21 0-.63 0-1.051-.21-.21 0-.631-.21-1.052-.21-.84 0-1.682.21-2.312.84-1.052 1.052-1.052 2.103-1.262 3.154 0 1.472-.42 1.893-1.051 2.734m26.06.628-.21-.21c-.21 0-.21 0-.21.21s0 .21.42.84c.84 1.262 1.682 2.524 2.943 3.786q1.893 1.892 4.416 3.784l.42.42h.21s.21 0 .21-.21v-.21c-1.471-1.261-3.153-2.943-4.625-4.625-1.262-1.052-2.523-2.524-3.574-3.785m-32.582-4.515c0-.42.631-.841.631-1.052-.84-1.682-2.102-3.153-2.523-3.784l-.42.42c.42.841 1.471 2.313 2.312 4.416m-7.563-9.18q0-.315 0 0c-.21-.21 0-.42 0-.42h.211c.841.42 1.472.63 1.892 1.05a4.9 4.9 0 0 1 1.472 1.473l-.42.42c-.631-.42-2.313-1.892-3.154-2.523m7.277 3.342-.63-.421c.42-.841.84-1.682 1.261-2.103.42-.42.63-.84 1.051-1.051l.21-.21s.21 0 .21.21v.21c-.63.841-1.681 2.734-2.102 3.364m-6.848 4.743h-.42v-.42c1.262-1.052 2.313-1.262 3.785-1.683l.21.631zm26.04-7.819c0-.42.21-1.051.84-1.051.21 0 .42 0 .631.21.21 0 .42.21.42.42s-.21.421-.42.631-.63.42-1.051.42-.42-.42-.42-.63m-10.441 2.874c0-.42.42-.841.84-.841.21 0 .421 0 .631.21.21 0 .21.21.21.42s-.21.421-.42.631-.42.21-.63.21q-.631 0-.631-.63"/><path d="M29.477 28.386v-.42c0-.21.21-.42.631-.42.21 0 .42 0 .63.21.211 0 .211.21.211.42 0 .42-.63.84-1.051.84s-.42-.21-.42-.63m-4.14 12.806c-1.261 0-1.892-.63-1.892-1.472 0-1.472 2.523-2.943 4.836-3.784l.63.84c-1.471.631-4.204 1.683-4.204 2.734 0 .42.21.63 1.05.63 1.473 0 3.155-.63 4.626-1.471h.421c.21 0 .21 0 .42.21l.21.42c-1.892.842-3.994 1.893-6.097 1.893"/><path d="M29.234 41.557c-1.262.84-2.734 1.261-3.995 1.261-1.472 0-2.523-.63-3.575-2.102-.42-.631-.84-1.472-1.261-2.103q-.63-1.26-1.893-1.261c-.84 0-1.682.42-2.523.63v.21c0 .211.21.631.42.631h.421c.421-.21.841-.21 1.262-.21.841 0 1.051.42 1.682 1.472l.21.42c-.63.21-1.682.21-2.733.21h-.42v.421c0 .21 0 .42.21.42h.84c1.262 0 1.893-.21 2.524-.21 1.261 1.893 2.943 2.524 4.625 2.524 1.472 0 2.944-.42 4.206-1.262zm1.335.508-.21-.84c2.102-1.052 3.994-2.103 7.148-2.314 0 1.262 0 2.734.841 2.734s2.523-2.103 4.415-4.626c.21.21.421.42.841.63l-.42.632c-2.103 2.312-3.785 4.415-5.256 4.415-1.262 0-1.682-1.472-1.682-2.523q-2.84.315-5.677 1.892M57.44 21.658c-.842 0-1.052-.42-1.052-1.051 0-1.262.841-3.154 1.262-4.205h-1.262c-.63 1.261-3.154 5.256-4.625 6.938l.84.841c.631-.84 1.472-2.102 2.313-3.574h.21v.21c0 1.051.631 1.892 2.103 1.892.841 0 2.313-.42 3.575-.84 1.05-.421 2.102-.842 2.523-.842v-1.261c-.631.21-1.682.63-2.944 1.051-1.051.42-2.313.841-2.944.841m2.779 3.709c1.261-.42 3.364-1.472 4.625-1.892v-1.262c-2.523.841-6.938 2.733-10.092 4.415l.63.841c1.262-.63 2.524-.84 3.365-.84 1.472 0 2.733 0 4.625-.421v-.841c-.84.21-2.102.42-2.943.42-.42 0-.63 0-.63-.21 0 0 .21-.21.42-.21M34.03 31.082l-.42.84h5.256l-.42-.84z"/><path d="M15.368 36.738c.631 0 1.051-.21 1.472-.42.42-.21.841-.42 1.262-.42 1.261 0 2.943.63 4.415 1.26h.21c.21 0 .42 0 .42-.21l.21-.42c-1.47-.84-3.994-1.682-5.255-1.682-.631 0-1.052.21-1.472.21-.42.21-.841.42-1.262.42-1.051 0-3.574-1.05-3.574-1.891 0-1.262 4.205-1.683 4.625-1.683l.421-.84c-2.944 0-6.728 1.05-6.728 2.523 0 .42.21.63.21 1.05s-.21.842-.21 1.473c0 .42.21.84.42 1.261.42.21.841.42.841.841 0 .21-.21.63-.21 1.262 0 1.261.841 2.102 2.313 3.784l.21.42c-1.261.421-3.574 1.473-4.205 1.683-1.892.63-2.313 1.682-2.313 3.154v1.892h.42c.842 0 .842-.42.842-.841v-1.051c0-.841 0-1.682 1.472-2.103.63-.21 3.153-1.261 5.256-2.102.42-.42 1.051-.631 1.682-.631.63 0 1.472.21 2.523.84.841.421 1.682 1.052 2.313 1.893l.84-.63c-.84-.842-1.681-1.683-2.732-2.313s-2.103-.841-2.734-.841c-.42 0-.63 0-.84.21-.211 0-.632.21-.842.21-.42 0-.63 0-1.051-.63-.42-.421-1.472-1.683-1.682-2.103 0 0-.21-.42-.21-.841 0-.21 0-.42.21-.631.84.84 1.892 1.261 3.364 1.472l-.21-1.052c-2.103-.63-4.205-2.312-4.205-3.574 0-.21 0-.42.21-.63.84.84 2.523 1.681 3.574 1.681m14.569.162c1.472-.84 2.733-1.05 3.785-1.05.63 0 1.471 0 2.102.21.63 0 1.262.21 1.892.21 1.472 0 2.734-.42 3.365-.841l.63.63c-.21.21-2.102 1.262-3.995 1.262-.84 0-1.682 0-2.312-.21-.631 0-1.262-.21-1.893-.21-.63 0-2.102.21-2.943.63z"/><path d="M48.929 40.486a15.7 15.7 0 0 1-6.308 6.938c-1.051.63-2.102 1.051-4.415 1.051H33.37c-1.682 0-2.733.21-3.574.42-.841.211-1.472.421-2.313.421-1.262 0-2.523-.63-3.154-1.261l1.051-.841-.63-.841c-.42.21-4.206 3.154-5.047 3.784v-.63c0-2.313-1.05-2.734-2.523-3.365l-1.05.631c2.102.631 2.732 1.262 2.732 2.944 0 1.261-.42 1.892-1.05 2.102-.632.42-1.473.631-2.314.631-.42 0-.42 0-.63.21s-.21.21-.21.631v.42h.21c1.261 0 2.523-.21 3.994-1.26l4.416-3.575c.63.63 2.313 1.682 4.205 1.682 1.051 0 1.682-.21 2.733-.42.841-.211 1.472-.421 3.154-.421h4.836c2.523 0 3.574-.42 4.836-1.262 2.733-1.682 5.256-4.205 6.518-7.359 0-.21-.42-.42-.631-.63"/><path d="M41.164 44.253c1.261-1.892 2.312-3.784 5.046-5.046-.21-.21-.631-.42-.841-.63-1.052.42-2.103 1.471-2.944 2.312-2.102 2.103-1.892 3.364-3.995 4.205-.63.21-1.261.42-2.102.63-.42-1.47-1.682-3.153-3.154-3.153-.841 0-1.892.42-3.154 1.051-1.472.631-2.733 1.262-3.154 1.682l.631.841 2.944-1.471c1.05-.42 2.102-.841 2.733-.841 1.051 0 1.682 1.261 2.102 2.102-1.471.42-3.574.42-4.205.42-.42 0-.42 0-.63.21 0 0-.21.211-.21.421v.42h.63c3.785 0 7.359-.63 9.672-1.891.42 0 .63.21 1.051.21 1.262 0 2.733-.63 3.574-1.472.21-.21.421-.42.421-.63v-.631c-1.262 1.05-2.313 1.682-3.574 1.682-.42-.21-.631-.42-.841-.42"/></svg>