<svg xmlns="http://www.w3.org/2000/svg" xml:space="preserve" viewBox="0 0 360 180"><path d="M227.6 51.3v56.4c7 .3 13.9.7 20.8 1.2v11.9c-10.9-.7-21.9-1.3-32.9-1.7V51.3zm96.4 0-15.8 36.6 15.8 40.7c-4.6-.7-9.2-1.3-13.8-1.9l-8.9-22.9-8.9 20.7c-4.2-.5-8.5-.9-12.7-1.3L295 87.7l-14.1-36.4H294l7.9 20.4 8.8-20.4zm-150.1 67.2V51.3h33.9v12.1H186V79h16.4v12H186v27.6h-12.1zm-45.3-55.1V51.3h37.5v12.1h-12.7v55.5c-4 .1-8.1.2-12.1.4V63.4zm-41.5 59.3V51.3h33.7v12.1H99.2v16.3c5-.1 12-.1 16.4-.1v12c-5.5-.1-11.7.1-16.4.1v18.1q10.8-.9 21.6-1.5v12c-11.3.6-22.5 1.4-33.7 2.4M63.3 95.1V51.3h12.1v72.5c-4.4.5-8.9.9-13.3 1.5L48.1 85v42c-4 .5-8.1 1.1-12.1 1.7V51.3h11.5zm195.1 26.4V51.3h12.1v71.2c-4-.3-8-.7-12.1-1"/></svg>