<svg xmlns="http://www.w3.org/2000/svg" xml:space="preserve" viewBox="0 0 360 180"><path d="m139.2 127.7 16.6-74.9h20.5l-8.9 39.9 16.6-20h22.9l-20.6 25 8.5 30.1h-20.4l-8.5-28.5-6.7 28.5zm-74-37.6 14.4 37.7h19.6l16.9-74.9H96L87.4 91 73.2 52.8H52.7L36 127.7h20.6c2.4-12 5.5-24.7 8.6-37.6m64.2 37.6 12.3-55h-20.1l-12.3 55zm-6.9-67.1c0 1.7.4 7.8 11.4 7.8 9.1 0 12.7-5.9 12.7-10.2 0-2.9-2.4-8.1-11.4-8.1-8.3.1-12.7 5.6-12.7 10.5M316.1 72c-8.6-2.6-19.3 1.7-24.5 9 .5-2.3 1.1-4.9 1.7-7.9h-20.4L261 127.8h20.3l6.8-31c1.2-5.7 5.8-8.1 9.9-7.1 1.8.5 4.2 1.8 3.4 6.6l-6.9 31.6h20.1l9.2-42.1c1.8-9.5-5.8-13.3-7.7-13.8m-68.3 50.8c8.8-7.2 13.2-19.4 13.1-30.9-.1-11-9.5-21.5-25.7-21.5-31 0-35.5 24.2-36.4 28.6-2.3 11.1.3 25.6 14.8 29.5 9.5 2.4 24.5 2.2 34.2-5.7m-22.7-31.9c1.5-4 5.4-4.9 7.2-4.9 4.4 0 5.7 2.6 5.3 5.1-1.1 6.9-3.4 15.6-4.3 18.4v.1c-1 3-3.8 4.8-7.2 4.8s-5.5-2.1-5.2-4.9c.4-4.7 3.3-16.3 4.2-18.6" style="fill:#150301"/></svg>