<svg xmlns="http://www.w3.org/2000/svg" xml:space="preserve" viewBox="0 0 72 72"><path d="M63.6 18.9q0-.15 0 0v-1.1s0-.1-.1-.1l-.1-.1-.1-.1-.1-.1-.1-.1-.1-.1-.1-.1s-.1 0-.1-.1l-.1-.1s-.1 0-.1-.1l-.1-.1-.1-.1c-.1 0-.1-.1-.2-.2-.2-.2-.4-.3-.7-.5l-.1-.1L51.2 9c-2.5-1.8-3.5-2-7.4-1.7L11.9 9.7c-2.6.2-3.5 1.9-3.5 3.9v34.9c0 1.6.6 2.9 1.9 4.7l7.5 9.7c1.2 1.6 2.3 1.9 4.7 1.8l37-2.2c3-.2 4-1.6 4-3.9V19.1c.1-.1.1-.2.1-.2m-45.7-1.6-4.4-3.5c-.4-.5-.2-1 .9-1.1L45 10.5c2.6-.2 3.9.7 4.9 1.5l5.3 3.8c.2.1.8.8.1.8l-31.6 1.9h-.4c-3 .1-3.6.2-5.4-1.2m41.9 38.3c0 1.5-.2 2.7-2.2 2.8l-34.8 2c-2 .1-2.9-.6-2.9-2.4V24.7c0-1.5.4-2.1 1.8-2.2L58 20.3c1.2-.1 1.8.7 1.8 2.1z"/><path d="M46.5 26.9c-1.1.1-2 1-1.8 2.2l2.9.3V45L36.2 27.5l-8.3.5c-1.6.1-2.1 1.6-1.9 2.6l2.8.2v22.1l-2 .6c-.8.2-1 1.3-.8 1.8l7.7-.4c2.8 0 2.8-2 2.8-2L33 52V35.3l11 17.2c1.3 1.7 1.8 2.2 3.6 2.2 1.1 0 2.5-.4 3.9-1.2V28.9l1.7-.3c1-.1 1.2-1.1 1-2.1z"/></svg>