<svg xmlns="http://www.w3.org/2000/svg" xml:space="preserve" viewBox="0 0 72 72"><path d="M39.5 54.8h21.4c.7 0 1.3-.2 1.9-.5s1.1-.8 1.4-1.4.5-1.2.5-1.9-.2-1.3-.5-1.9L49.9 25c-.3-.6-.8-1-1.4-1.4-.6-.3-1.3-.5-1.9-.5s-1.3.2-1.9.5c-.7.4-1.2.8-1.5 1.4l-3.7 6.2-7.2-12.1c-.3-.6-.8-1-1.4-1.4-.6-.3-1.3-.5-1.9-.5-.7 0-1.3.2-1.9.5s-1.1.8-1.4 1.4l-18 30.1c-.3.6-.5 1.2-.5 1.9s.2 1.3.5 1.9.8 1 1.4 1.4c.6.3 1.3.5 1.9.5h13.4c5.3 0 9.3-2.3 12-6.7l6.6-11 3.5-5.9L57 49H43zm-15.2-5.9h-9.4L29 25.3l7 11.8-4.7 7.9c-1.8 2.8-3.8 3.9-7 3.9"/></svg>