<svg xmlns="http://www.w3.org/2000/svg" xml:space="preserve" viewBox="0 0 72 72"><path d="M17.5 33.7s2.4 9.1 11.2 10.7v-2.7c-4.9-1.7-6.6-7.5-6.6-7.5s2.9-3.4 6.6-3v-3c-7 .9-11.2 5.5-11.2 5.5"/><path d="M28.7 24.9v-2.8C17.2 23 7.2 32.8 7.2 32.8s5.6 16.3 21.5 17.8v-3c-11.6-1.4-15.6-14.2-15.6-14.2s5.2-7.7 15.6-8.5"/><path d="M28.7 17v5.1l1-.1c13.1-.4 21.6 10.7 21.6 10.7s-9.8 11.9-20 11.9c-.9 0-1.8-.1-2.6-.2v3.2c.7.1 1.5.1 2.2.1 9.5 0 16.4-4.9 23-10.6 1.1.9 5.6 3 6.6 4-6.3 5.3-21.1 9.6-29.4 9.6-.8 0-1.6 0-2.3-.1V55h36.1V17z"/><path d="M30.6 28.2c6 0 9.6 4.7 9.6 4.7L35.3 37c-2.2-3.7-2.9-5.3-6.6-5.7v10.4c.9.3 1.8.4 2.8.4 7.1 0 13.8-9.2 13.8-9.2s-6.2-8.4-15.6-8.1h-1v3.4c.6.1 1.2 0 1.9 0"/></svg>