<svg xmlns="http://www.w3.org/2000/svg" xml:space="preserve" viewBox="0 0 256 260"><path d="M239.18 106.2a64.7 64.7 0 0 0-5.58-53.1c-14.15-24.64-42.6-37.32-70.39-31.36a65.58 65.58 0 0 0-62.33-20.32 65.57 65.57 0 0 0-48.78 43.8A64.68 64.68 0 0 0 8.87 76.58c-14.31 24.6-11.06 55.63 8.03 76.74a64.65 64.65 0 0 0 5.53 53.1c14.17 24.65 42.64 37.32 70.45 31.36a64.72 64.72 0 0 0 48.75 21.74c28.48.03 53.71-18.36 62.41-45.48 18.25-3.75 34-15.18 43.23-31.36 14.13-24.55 10.87-55.42-8.09-76.48m-34.54-60.16a48.63 48.63 0 0 1 20.11 48.14v.2l-1.53-.92-51.62-30.08a8.38 8.38 0 0 0-8.49 0L99.98 99.81V74.59c-.03-.26.09-.52.31-.67l52.23-30.13a48.64 48.64 0 0 1 52.12 2.25M128.07 97.3l28.19 16.22v32.43l-28.09 16.22-28.19-16.22-.05-32.43zM65.81 65.68c.02-18.86 10.94-36 28.02-44s37.24-5.4 51.74 6.65l-1.53.87-51.68 29.83a8.59 8.59 0 0 0-4.25 7.37l-.05 72.7-21.84-12.59a.87.87 0 0 1-.41-.61zM23.55 85.13v.26a48.48 48.48 0 0 1 25.58-21.33v61.39a8.3 8.3 0 0 0 4.2 7.32l62.87 36.27-21.84 12.64c-.24.13-.53.13-.77 0l-52.23-30.13c-23.22-13.47-31.18-43.16-17.81-66.42m13.61 112.8a48.33 48.33 0 0 1-5.78-32.59l1.53.92 51.72 29.83a8.33 8.33 0 0 0 8.44 0l63.18-36.43v25.22c-.01.26-.14.51-.36.67l-52.34 30.18c-23.24 13.4-52.96 5.44-66.39-17.8m153.06-3.99c-.06 26.82-21.78 48.54-48.6 48.6a48.36 48.36 0 0 1-31.1-11.26l1.53-.87 51.67-29.83a8.59 8.59 0 0 0 4.25-7.37v-72.85L189.81 133c.22.11.37.32.41.56zm48.65-39.76a48.61 48.61 0 0 1-31.46 41.5v-61.39a8.53 8.53 0 0 0-4.4-7.21l-63.08-36.63 21.79-12.59c.24-.13.53-.13.77 0l52.23 30.18c16.31 9.41 25.72 27.39 24.15 46.14"/></svg>