<svg xmlns="http://www.w3.org/2000/svg" xml:space="preserve" viewBox="0 0 360 180"><path d="M72.4 76.6c-2.4-5.1-7.1-8.3-12.7-8.6-.8 0-1.6-.1-2.4-.1H36v43h13V97.7h7.9c2 0 3.9-.2 5.8-.6 6-1.2 10.5-6.2 11.1-12.3.3-2.8-.1-5.6-1.4-8.2M61 84c-.1.7-.4 1.3-.8 1.9-.8 1.1-2 1.7-3.3 1.8-1 .1-1.8.1-2.8.1H49v-9.3h7.6c2.2 0 4.1 1.7 4.3 3.9.2.4.2 1 .1 1.6m44.3 24.6c-.2-2.5-.3-4.7-.3-7.2-.1-3.3-.1-6.1-.1-9.5 0-1.7-.2-3.4-.7-5.1-.5-2.2-2-4.1-4-5.2-1.2-.7-2.4-1.1-3.8-1.4-4.2-.9-8.6-1-12.8-.3-1.2.2-2.3.5-3.5 1-2.6 1-4.7 3.2-5.5 6-.3 1-.4 2.1-.3 3.2 0 .2.1.4.2.6L85 91q0-.9.3-1.8c.3-.9 1-1.6 1.9-2 1.3-.5 2.8-.5 4.1-.1.9.3 1.6 1 1.9 1.9.2.6.1 1.2-.3 1.6q-.45.6-1.2.9l-.9.3c-1.4.4-2.7.7-4.1.9-1.2.2-2.1.4-3.3.6-1.5.3-2.9.7-4.4 1.1q-1.95.6-3.6 2.1c-1.4 1.2-2.2 2.9-2.5 4.7-.2 1.3-.1 2.3.1 3.6.7 3.1 3 5.6 6.1 6.5 3.3 1 6.9.8 10.2-.5 1.6-.6 3-1.6 4-2.9.2.7.4 1.4.7 2.1.1.4.3.7.6 1H106c-.3-.7-.6-1.6-.7-2.4m-11.8-8.2c-.1.8-.4 1.5-.8 2.2-.5.8-1.2 1.4-2 1.7q-1.2.6-2.4.6c-.7.1-1.4 0-2.1-.2q-.9-.15-1.5-.9c-.3-.4-.6-.8-.7-1.3-.2-.8.1-1.5.7-2 .4-.3.8-.6 1.3-.8 1.1-.4 2.3-.8 3.5-1.1 1.5-.4 2.7-.9 4.1-1.5.1 1.2.1 2.1-.1 3.3m39.3-20.7c-3-.9-6.2-.7-9.1.7-1.7.8-3.3 1.8-4.8 3.1l-.3-3.2h-11.1V111h11.8V93.9c0-.9.2-1.9.7-2.7 1.2-2 3.7-2.8 5.8-1.9 1 .4 1.7 1.2 2 2.2.2.6.2 1.1.2 1.7V111h12.2V91.2c0-1.6-.2-3.2-.7-4.7-.8-3.3-3.4-5.8-6.7-6.8m41.5 28.9c-.2-2.5-.3-4.7-.3-7.2-.1-3.3-.1-6.1-.1-9.5 0-1.7-.2-3.4-.7-5.1-.5-2.2-2-4.1-4-5.2-1.2-.7-2.4-1.1-3.8-1.4-4.2-.9-8.6-1-12.8-.3-1.2.2-2.3.5-3.5 1-2.6 1-4.7 3.2-5.5 6-.3 1-.4 2.1-.3 3.2 0 .2.1.4.2.6l10.3.3q0-.9.3-1.8c.3-.9 1-1.6 1.9-2 1.3-.5 2.8-.5 4.1-.1.9.3 1.6 1 1.9 1.9.2.6.1 1.2-.3 1.6q-.45.6-1.2.9l-.9.3c-1.4.4-2.7.7-4.1.9-1.2.2-2.1.4-3.3.6-1.5.3-2.9.7-4.4 1.1q-1.95.6-3.6 2.1c-1.4 1.2-2.2 2.9-2.5 4.7-.2 1.3-.1 2.3.1 3.6.7 3.1 3 5.6 6.1 6.5 3.3 1 6.9.8 10.2-.5 1.6-.6 3-1.6 4-2.9.2.7.4 1.4.7 2.1.1.4.3.7.6 1h11.4c-.2-.7-.5-1.6-.5-2.4m-11.8-8.2c-.1.8-.4 1.5-.8 2.2-.5.8-1.2 1.4-2 1.7q-1.2.6-2.4.6c-.7.1-1.4 0-2.1-.2q-.9-.15-1.5-.9c-.3-.4-.6-.8-.7-1.3-.2-.8.1-1.5.7-2 .4-.3.8-.6 1.3-.8 1.1-.4 2.3-.8 3.5-1.1 1.5-.4 2.7-.9 4.1-1.5 0 1.2 0 2.1-.1 3.3m74.6-16.3c-2.4-2.4-5.6-4-9-4.4-1.2-.2-2.3-.3-3.5-.3s-2.3.1-3.5.3c-3.4.5-6.5 2-9 4.4-2.7 2.5-4.3 5.9-4.6 9.6-.2 2.2 0 4.5.6 6.6 1 3.5 2.8 6.1 5.6 8.3 1.8 1.4 3.8 2.4 6.1 2.8 1.6.4 3.2.5 4.8.5 1.7 0 3.1-.1 4.7-.5 2.2-.5 4.3-1.4 6.1-2.8 2.8-2.1 4.8-5 5.6-8.3.6-2.3.8-4.3.6-6.6-.2-3.7-1.8-7.1-4.5-9.6m-14.3 19.7c-1-.5-1.9-1.3-2.3-2.3q-.6-1.35-.9-3c-.3-2.2-.3-4 .1-6.2.2-1.1.6-2 1.2-3 1.4-2.1 4.1-2.6 6.2-1.3.5.3.9.8 1.3 1.3q.9 1.35 1.2 3c.4 2.1.5 4 .1 6.2-.2 1.1-.4 2-.9 3-1 2.3-3.7 3.3-6 2.3m-18.7-9.1c-1.5-1.3-3.2-2.2-5.1-2.8l-1.2-.4c-2.3-.6-4.6-1.1-7-1.5-.7-.1-1.2-.2-1.9-.4-.3-.1-.6-.2-.8-.3-.7-.3-1-1.1-.7-1.8l.1-.1c.4-.6.9-1.1 1.6-1.3 1.3-.4 2.5-.3 3.7.1s2 1.5 1.9 2.8h10.8c0-1.3-.2-2.5-.7-3.7-.4-1.2-1.2-2.3-2.2-3.1-.9-.7-1.8-1.3-2.9-1.7-1-.4-2.1-.7-3.1-.9-2.5-.5-5.1-.6-7.7-.4-1.6.1-2.9.3-4.4.6-2 .5-3.7 1.3-5.3 2.6-1.4 1-2.4 2.5-2.9 4.1-.7 2-.6 4.1.2 6 .8 2.2 2.5 3.9 4.7 4.7 1.1.5 2.1.7 3.3 1 2.4.5 4.4.9 6.7 1.3.9.1 1.6.3 2.5.6.7.2 1.2.8 1.3 1.5.2.8-.1 1.6-.6 2.1-.5.6-1.3.9-2 1-1.1.2-2 .1-3.1-.3-.5-.2-.9-.4-1.3-.7-.5-.4-.9-1-1.1-1.6-.2-.5-.2-1.1-.2-1.6h-11.2v.7c0 1.1.2 2 .5 2.9.6 1.5 1.3 2.6 2.5 3.7 1.4 1.4 3.2 2.4 5.1 2.9 3.9 1.2 8.1 1.4 12.2.8 1.9-.3 3.8-.9 5.5-1.8.8-.4 1.5-.9 2.1-1.4 3-2.5 4.2-6.5 3-10.2-.4-1.2-1.2-2.4-2.3-3.4m64.5-15c-3-.9-6.2-.7-9.1.7-1.7.8-3.3 1.8-4.8 3.1l-.3-3.2h-11.1V111h11.8V93.9c0-.9.2-1.9.7-2.7 1.2-2 3.7-2.8 5.8-1.9 1 .4 1.7 1.2 2 2.2.2.6.2 1.1.2 1.7V111H276V91.2c0-1.6-.2-3.2-.7-4.7-.9-3.3-3.4-5.8-6.7-6.8M324 98.3h-11.1c0 .7-.1 1.2-.2 1.9q-.15 1.35-1.2 2.4c-.6.7-1.4 1.1-2.2 1.2-1.4.2-2.8-.2-3.8-1.2-.9-.8-1.5-1.9-1.8-3-.8-2.8-.8-5.7.1-8.4.4-1.2 1.1-2.2 2.2-2.8 1.5-1 3.5-.9 4.9.2 1.1.8 1.8 2 2 3.4h10.5c.1-1.7-.3-3.5-1.1-5-.7-1.3-1.6-2.5-2.6-3.5-1.7-1.6-3.8-2.8-6-3.3-3.3-.9-6.3-.9-9.7-.2-5.9 1.2-10.3 5.3-11.8 11.1-.7 2.6-.8 4.8-.4 7.5q.45 2.7 1.8 5.1c1.2 2 2.7 3.8 4.6 5.2 2.3 1.8 5 2.8 7.9 3.1 2.3.2 4.2.1 6.4-.3 3.2-.6 6.1-2.2 8.2-4.6 2.4-2.4 3.5-5.6 3.3-8.8m-45.5-18H290V111h-11.5zm0-12.3H290v8.1h-11.5z"/></svg>