<svg xmlns="http://www.w3.org/2000/svg" xml:space="preserve" viewBox="0 0 2626 2626"><path d="M2217.71 99.76H408.31v1289.06c0 397.43 18.31 572.61 193.5 792.27 183.03 227.48 441.88 345.14 716.44 345.14 258.86 0 533.41-117.66 716.42-350.39 169.97-214.4 183.04-379.13 183.04-787.03zm-1759.73 52.3h1712.66V1401.9c0 360.82-10.47 530.8-185.65 750.42-154.28 193.51-397.43 316.4-669.37 316.4-269.32 0-525.56-128.13-682.44-329.46C463.22 1919.63 458 1767.97 458 1362.7V152.06zm1670.81 1464.25c0-444.5-360.82-807.94-813.18-807.94-452.33 0-815.79 363.44-815.79 807.94 0 452.35 363.45 815.8 810.57 815.8 452.34 0 818.4-366.07 818.4-815.8M766.52 447.53c0-120.28-109.82-120.28-243.17-120.28v305.92h83.67V565.2c104.59-.01 159.5-41.84 159.5-117.67m115.05-120.28h-75.83v305.92h75.83V518.12h81.06v115.04h81.06V327.25h-81.06v112.43h-81.06zm313.77 0h-75.82v305.92h75.82zm156.88 0h-78.44v305.92h159.5V565.2h-81.06zm201.34 0h-78.45v305.92h78.45zm321.61 120.28c0-120.28-122.91-120.28-240.55-120.28v305.92h78.43V565.2c88.91-.01 162.12-28.78 162.12-117.67m31.37 117.66v73.21c26.17 2.62 41.85 5.23 60.17 5.23 94.11 0 138.57-44.46 138.57-109.82 0-99.36-112.42-67.99-112.42-109.81 0-13.07 18.29-20.92 52.28-20.92h28.78v-75.83c-112.45 0-177.8 15.68-177.8 94.13 0 107.21 120.27 86.29 120.27 120.28 0 13.07-26.15 23.53-62.77 23.53zM559.96 1550.96c73.21-31.39 122.89-44.46 180.41-44.46 162.11 0 211.8 104.59 389.6 104.59 133.36 0 240.55-104.59 394.81-104.59 130.74 0 258.86 101.96 360.84 101.96 96.74 0 159.49-33.97 185.62-49.67l2.63 31.39c-49.7 36.6-96.77 57.53-177.8 57.53-143.83 0-230.11-104.59-373.92-104.59-154.28 0-248.4 107.21-392.21 107.21-159.49 0-237.93-101.98-384.36-101.98-60.14 0-138.58 18.31-185.64 36.6zM941.7 962.62c83.67-44.45 107.21-52.29 169.96-70.59l-20.91 130.74-135.96 23.53zm0 543.88 31.37-224.87 251.02-41.84-88.89-15.68 20.92-141.2 146.43-31.37-146.43-28.77-20.92-138.58c73.21-15.68 109.82-20.92 172.58-20.92 410.52 0 679.82 285.01 758.28 637.98-39.21 28.78-91.53 52.31-175.2 52.31-149.02 0-217.01-104.59-381.75-104.59-162.12 0-232.7 109.82-386.98 109.82-83.69-.01-135.97-20.91-180.43-52.29m13.09-444.52 135.96 20.92 15.68 133.34-133.36-18.3zM557.34 1647.7c120.28-39.23 135.96-44.46 183.03-44.46 164.73 0 227.48 104.59 386.98 104.59 128.12 0 245.79-109.82 392.21-109.82 135.95 0 211.8 104.56 373.89 104.56 54.91 0 104.59-13.07 180.44-41.83v28.75c-65.38 39.23-109.84 52.31-188.27 52.31-162.12 0-230.11-101.98-368.68-101.98-164.73 0-237.94 104.59-392.22 104.59-149.04 0-237.94-101.98-392.21-101.98-39.22 0-88.89 10.47-172.58 36.6zm7.85 86.27c70.59-26.15 115.04-36.6 169.96-36.6 156.9 0 232.7 107.21 386.98 107.21 146.43 0 237.93-107.21 392.19-107.21 73.23 0 125.52 18.29 172.59 49.67l-26.15 209.19-253.65 47.07 88.91 20.89-15.68 135.97-154.28 31.39 154.28 39.21 23.53 122.89c-67.99 15.71-109.84 20.92-175.2 20.92-397.42.02-705.96-277.15-763.48-640.6m0-243.18c20.91-109.81 36.6-151.63 83.67-237.92l240.55 28.75 23.53 211.8c-83.67-33.99-125.51-44.46-167.34-44.46-62.75 0-130.74 20.94-180.41 41.83m959.59 538.65 135.98 15.68 13.07 128.13-133.34-13.07zm7.85 313.76 7.85-112.42 135.95-26.15 13.07 70.59c-54.88 33.99-78.42 44.44-156.87 67.98M607.02 403.08c47.07 0 65.37 7.83 65.37 41.84 0 39.22-18.3 49.69-65.37 49.69zm1106.03 0c47.07 0 67.99 2.62 67.99 47.07 0 36.6-28.78 44.45-67.99 44.45zm5.24 1359.65c65.35 20.92 120.27 33.99 183.02 33.99 54.91 0 86.27-7.83 162.12-41.83-13.07 86.27-39.23 156.88-78.45 224.87l-248.4-23.53zm5.22 496.79 13.07-214.4 224.87-31.36c-65.36 112.42-112.42 164.7-237.94 245.76M664.55 1226.71c65.37-101.97 122.89-172.58 251.02-251.02l-26.16 222.25z" style="fill-rule:evenodd;clip-rule:evenodd"/></svg>