<svg xmlns="http://www.w3.org/2000/svg" xml:space="preserve" viewBox="0 0 360 180"><path d="M101.5 48.1q18.75.15 27.3 10.8c5.6 7.1 7.5 16.8 5.6 29.2-.7 5.6-2.4 11.2-4.9 16.6q-3.6 8.1-10.2 14.7-7.95 8.25-17.1 10.5c-9.15 2.25-12.3 2.2-18.8 2.2H64.2l-6.1 30.3H36L58.8 48.1zm188.9 0q18.75.15 27.3 10.8c5.6 7.1 7.5 16.8 5.6 29.2-.7 5.6-2.4 11.2-4.9 16.6q-3.6 8.1-10.2 14.7-7.95 8.25-17.1 10.5c-9.15 2.25-12.3 2.2-18.8 2.2h-19.1l-6.1 30.3h-22.2l22.8-114.3zM181.6 17.6 175.4 48h19.8c10.8.2 18.9 2.4 24.2 6.7 5.4 4.2 7 12.3 4.8 24.2L213.5 132h-22.3l10.2-50.7c1.1-5.3.7-9.1-1-11.3s-5.4-3.3-11-3.3l-17.7-.2-13.1 65.5h-22l22.9-114.4zM84.3 66.2c-1.3.1-2.5.2-3.7.2h-3.2l-9.5 47.7c.6.1 1.3.2 1.9.2H72q15.3.15 25.5-3c6.8-2.2 11.4-10 13.7-23.3 1.9-11.2 0-17.6-5.7-19.3-5.6-1.8-12.7-2.6-21.2-2.5m188.9 0c-1.3.1-2.5.2-3.7.2h-3.2l-9.5 47.7c.6.1 1.3.2 1.9.2h2.2q15.3.15 25.5-3c6.8-2.2 11.4-10 13.7-23.3 1.9-11.2 0-17.6-5.7-19.3-5.6-1.8-12.7-2.6-21.2-2.5"/></svg>