<svg xmlns="http://www.w3.org/2000/svg" xml:space="preserve" viewBox="0 0 360 180"><path d="M158.3 73.2h-6.7c-2 0-3.6 1.6-3.6 3.6v15.6c0 1.3-1.1 2.4-2.4 2.4s-2.4-1.1-2.4-2.4V76.9c0-2-1.6-3.7-3.6-3.7h-6.7c-2 0-3.6 1.4-3.6 3.3v17.9c0 5.3 4 11.1 11.2 11.1h.2c3.9 0 5.4-1.3 7-2.6.6-.7.8-.6.8-.1 0 4-4.3 7.5-7.7 7.5l-4.9-.1c-1.4 0-2.3 1.7-2.3 2.6v3.7c-.1 3.5 3.2 4.2 7.3 4.2h4.9c5.3 0 16.2-6.4 16.2-17.4V76.8c-.1-2-1.7-3.6-3.7-3.6m40.5-1.7c-3.5 0-6.7 1.1-9.4 3-2.6-1.9-5.9-3-9.4-3-9.1 0-16.4 7.3-16.4 16.5v15.1c0 1.9 1.8 3.6 3.6 3.6h6.7c1.9 0 3.6-1.8 3.6-3.6V87.9c0-1.3 1.1-2.4 2.4-2.4s2.4 1.1 2.4 2.5v15.1c0 1.9 1.8 3.6 3.6 3.6h6.7c1.9 0 3.6-1.8 3.6-3.6V87.9c0-1.3 1.1-2.4 2.4-2.4s2.4 1.1 2.4 2.4v15.2c0 1.9 1.8 3.6 3.6 3.6h6.7c1.9 0 3.6-1.8 3.6-3.6V87.9c.2-9-7.1-16.4-16.1-16.4m-144.3 0C44.3 71.5 36 79.8 36 90v27.2c0 2 1.6 3.6 3.7 3.6h6.7c2 0 3.6-1.6 3.6-3.6V90c0-2.5 2-4.5 4.5-4.5s4.5 2 4.5 4.5-1.2 3.9-3.3 4.3c-1.4.2-3.3 1.2-3.3 3.3v7.6c0 3.3 3.3 3.3 3.3 3.3 9 0 17.4-8.3 17.4-18.5-.1-10.2-8.4-18.5-18.6-18.5m180.7 0c-10.2 0-18.5 8.3-18.5 18.5s8.3 18.5 18.5 18.5 18.5-8.3 18.5-18.5-8.3-18.5-18.5-18.5m0 23.3c-2.5 0-4.5-2-4.5-4.5s2-4.5 4.5-4.5 4.5 2 4.5 4.5-2 4.5-4.5 4.5M108.9 71.5c-10.2 0-18.5 8.3-18.5 18.5s8.4 18.5 17.4 18.5c0 0 3.3 0 3.3-3.3v-7.6c0-2.1-1.9-3.1-3.3-3.3-2.2-.3-3.3-1.8-3.3-4.3s2-4.5 4.5-4.5 4.5 2 4.5 4.5v13.1c0 2 1.6 3.6 3.6 3.6h6.7c2 0 3.6-1.6 3.6-3.6V90c-.1-10.2-8.4-18.5-18.5-18.5M85 59.2h-6.7c-2 0-3.6 1.6-3.6 3.6v40.3c0 2 1.6 3.6 3.6 3.6H85c2 0 3.6-1.6 3.6-3.6V62.9c.1-2.1-1.6-3.7-3.6-3.7m233.8 39.3c0-.5-.5-1.1-1-1.1h-2.1v2.1h2c.6 0 1.1-.5 1.1-1"/><path d="M317 94.2c-3.2 0-5.7 2.6-5.7 5.8s2.6 5.8 5.7 5.8 5.7-2.6 5.7-5.8c.1-3.2-2.5-5.8-5.7-5.8m1.7 9.2-1.9-3h-1.1v3.1h-1v-7h3c1.1 0 2.1.8 2.1 1.9s-.6 1.9-1.7 1.9l2 3.1z"/><path d="M320.4 59.4h-6.7c-2 0-3.6 1.6-3.6 3.6v40.3c0 2 1.6 3.6 3.6 3.6h6.7c2 0 3.6-1.6 3.6-3.6V63c0-2-1.6-3.6-3.6-3.6m-3.4 47c-3.5 0-6.4-2.9-6.4-6.4s2.9-6.4 6.4-6.4 6.4 2.9 6.4 6.4-2.8 6.4-6.4 6.4m-42-34.8s-3.3 0-3.3 3.3v7.6c0 2.1 1.9 3.1 3.3 3.3 2.2.3 3.3 1.8 3.3 4.3s-2 4.5-4.5 4.5-4.5-2-4.5-4.5V63c0-2-1.6-3.6-3.6-3.6H259c-2 0-3.6 1.6-3.6 3.6v27.1c0 10.2 8.3 18.5 18.5 18.5s18.5-8.3 18.5-18.5S284 71.6 275 71.6m27.7-1.7c3.6-2.4 4.5-7.1 2.1-10.6h-18.7l5.7 8.5c2.4 3.6 7.3 4.6 10.9 2.1m1.7 3.4h-6.7c-2 0-3.6 1.6-3.6 3.6v26.3c0 2 1.6 3.6 3.6 3.6h6.7c2 0 3.6-1.6 3.6-3.6V77c0-2-1.6-3.7-3.6-3.7"/></svg>