<svg xmlns="http://www.w3.org/2000/svg" xml:space="preserve" viewBox="0 0 360 180"><path d="M125.4 64H124v13.4h4.8V113h14.3V99.2c7.1.2 12.4-.8 15.8-2.8 7.1-4.3 11.3-13.1 7.2-20.8-6.9-13-26.3-11.6-40.7-11.6m20.7 24.9H143V77.7h3c2.9 0 6 1.4 6.7 4.4 1 4-2.8 6.8-6.6 6.8m43.2-20.3c-11.4 0-20 11.2-20 25s9 25.8 20 25.9c8.9.1 14.5-4.6 17.4-11.4l-4.6-3.9-1.3 1c-5.2 4.2-18.2 3-18-6.6v-.8h26.3v-.5c0-2.3.2-4.5 0-6.8-.6-12.4-6.4-21.9-19.8-21.9m-5 20.2c0-5.1 2.4-9.1 7.8-9.3 5-.2 7.8 4.2 7.8 9.3zm-146.9-25H36v13.4h4.8v35.6h14.3V99c7.1.2 12.4-.8 15.8-2.8 7.1-4.3 11.3-13.1 7.2-20.8-6.9-12.9-26.3-11.6-40.7-11.6m20.7 24.9H55V77.4h3c2.9 0 6 1.4 6.7 4.4 1 4.1-2.8 6.9-6.6 6.9m44.4-28.9c-11.1 0-20.1 11.1-20.1 24.7s9 24.7 20.1 24.7 20.1-11.1 20.1-24.7-9-24.7-20.1-24.7m-2.8 37.9c-4.9 0-8.9-4.4-8.9-9.9s4-9.9 8.9-9.9 8.9 4.4 8.9 9.9-4 9.9-8.9 9.9m221.4 11.7c-1.6 0-2.9 1.3-2.9 2.9s1.3 2.9 2.9 2.9 2.9-1.3 2.9-2.9-1.3-2.9-2.9-2.9m1.7 4.7c-.5.5-1.1.7-1.7.7-.7 0-1.3-.2-1.7-.7-.5-.5-.7-1.1-.7-1.7 0-.7.2-1.3.7-1.7s1.1-.7 1.7-.7c.7 0 1.2.2 1.7.7s.7 1.1.7 1.7-.2 1.2-.7 1.7"/><path d="M322.5 111.6c0-.5-.4-.9-1-.9h-1.7v3.3h.7v-1.3h.7c.3 0 .6.2.6.8v.5h.6c-.1-.3 0-.7-.1-1-.1-.4-.3-.5-.5-.6.4-.1.7-.4.7-.8m-1.1.5h-.9v-1h.8c.3 0 .5.2.5.5s-.1.5-.4.5M268 69.3c-11.4 0-20 11.2-20 25s9 25.8 20 25.9c8.9.1 14.5-4.6 17.4-11.4l-4.6-3.9-1.3 1c-5.2 4.2-18.2 3-18-6.6v-.8h26.3V98c0-2.3.2-4.5 0-6.8-.7-12.4-6.5-21.9-19.8-21.9m-5.1 20.2c0-5.1 2.4-9.1 7.8-9.3 5-.2 7.8 4.2 7.8 9.3z"/><path d="M251.8 63.1h-15.3v7c0 8-3.6 12.4-7.3 12.5-3.6 0-7.2-4.2-7.3-12.8v-6.5h-13.7c0 14.5 2.7 26.8 13.6 30.6V113h14.4V94.2c11.8-3.3 15.6-15.9 15.6-31.1m69.2 40.5c5-6.7 2.9-15.4-3.6-19.8-4.5-3-16.5-10-8.2-13.5 2.9-1.2 7.7-.4 11.7 2.7l3.1 2.1-.3-11.6s-2-1-4.4-1.7c-9.7-2.7-23.4-4-26.6 8.1-1.3 4.9 1.5 8.6 4.7 12.1 2.5 2.8 12.3 8.2 11.3 12.8-1 4.7-11.9 0-17.3-2.4l-1.1-.5.4 12.4 1.2.6c2.9 1.4 5.8 2.4 8.8 3.3 6.5 2.2 15.2 2.1 20.3-4.6"/></svg>