<svg xmlns="http://www.w3.org/2000/svg" xml:space="preserve" viewBox="0 0 360 180"><path d="M41.2 112.3h-4c-.3 0-1.2 0-1.2-.5 0-.3.2-.5.7-.7 3.7-1.2 4.5-3.2 4.5-6.1V74.9c0-2.7-.8-4.7-4.5-6.1-.5 0-.7-.3-.7-.5 0-.7.8-.5 1.2-.5h33.4c7.6 0 13.8 6.1 13.8 13.7s-6.2 13.6-13.8 13.6H53.7v10.3c.2 2.7 1 4.5 4.5 5.7.5.2.7.3.7.7 0 .5-.8.5-1.2.5zM290.1 96h7.9l-7.9-13.5-.8-1.3-7.1 14.8zm0-28.3h5.4l22.6 39.8c.7 1 1.5 2 2.5 2.5.8.7 1.9.8 2.7 1.2.3.2.7.3.7.7 0 .5-.8.5-1.2.5h-20.1c-.3 0-1.4 0-1.4-.5 0-.3.3-.5.7-.7 1-.3 1.7-.8 2-1.9.3-1.2 0-1.9-.8-3.4-1.1-2.4-2.3-4.9-3.5-7.3h-18.9l-.2.3c-.2.7-1.5 3-2.5 5.6-1.3 2.7-1.9 3.4-1.5 4.7.2 1 1 1.5 2 1.9.3.2.5.3.5.7 0 .5-.8.5-1.2.5h-9.3c-.3 0-1.2 0-1.2-.5 0-.3.2-.5.7-.7.8-.3 1.9-.5 2.7-1.2 1-.5 1.9-1.5 2.5-2.5l1.2-2.5 12.8-26.8-1.9-3.2c-1.7-2.7-3.4-4.4-5.2-5.4-.8-.5-1.7-.5-2.5-.8-.5-.2-.7-.3-.5-.7 0-.3.3-.2.5-.3zm-50.4 44.5h.7c31 0 30.7-44.3 0-44.3h-25.5c-.5 0-1.3-.2-1.3.5 0 .2.3.5.7.5 3.7 1.2 4.5 3.2 4.7 5.7v30.9c-.2 2.7-1 4.5-4.7 5.7-.3.2-.7.3-.7.7 0 .5.8.5 1.3.5h16.4v-.2zm0-41.2c4.7 0 8.6 3.9 8.6 8.6v20.6c0 4.7-3.9 8.6-8.6 8.6h-8.4V71zm-64.3 25h7.9l-7.9-13.5-.8-1.3-7.1 14.8zm0-28.3h5.6l22.6 39.8c.5 1 1.3 2 2.4 2.5.8.7 1.9.8 2.9 1.2.3.2.7.3.7.7 0 .5-1 .5-1.3.5h-20.1c-.3 0-1.2 0-1.2-.5 0-.3.2-.5.7-.7.8-.3 1.7-.8 1.9-1.9.3-1.2 0-1.9-.7-3.4-1.2-2.5-2.5-4.9-3.7-7.3h-18.9l-.3.4c-.2.7-1.3 3-2.5 5.6-1.2 2.7-1.9 3.4-1.5 4.7.3 1 1 1.5 2 1.9.3.2.7.3.7.7 0 .5-.8.5-1.3.5h-9.1c-.3 0-1.3 0-1.3-.5 0-.3.3-.5.7-.7 1-.3 1.9-.5 2.9-1.2.8-.5 1.9-1.5 2.4-2.5l1.2-2.5 13-26.8-1.9-3.2c-1.7-2.7-3.5-4.4-5.2-5.4-1-.5-1.7-.5-2.7-.8-.3-.2-.7-.3-.5-.7.2-.3.5-.2.7-.3zm-55.6 29.5c3.9 1.3 8.6 1.7 12.3.5l14.7 12.6 1.2 1c.1.1.2.3.2.5 0 .5-.8.5-1.2.5h-15.5l-11.6-9.6-9.4-7.6v10.5c.2 2.5 1.2 4.4 4.7 5.6.3.2.5.3.5.7 0 .5-.8.5-1.2.5H94c-.5 0-1.3 0-1.3-.5 0-.3.3-.5.7-.7 4-1.3 4.5-3.4 4.7-6.6V75.4c-.2-3-.7-5.2-4.7-6.6-.3 0-.7-.3-.7-.5 0-.7.8-.5 1.3-.5h32.9c7.5 0 13.6 6 13.7 13.5v.1c0 7.5-6 13.6-13.5 13.6h-10.7c.5 1 1.7 1.3 2.7 1.9.2.1.4.3.7.3m0-5.3h1.4c4.4 0 8.1-4.7 8.1-10.8 0-5.9-3.7-10.6-8.1-10.6h-10.8v21.4zM63.3 70.5h-9.6v21.4h11.1c4.5 0 8.1-4.7 8.1-10.8 0-5.9-3.5-10.6-8.1-10.6z"/></svg>