<svg xmlns="http://www.w3.org/2000/svg" xml:space="preserve" viewBox="0 0 72 72"><path d="M12.6 13.8c-.4.1-.7 1.4-1.4 2.1-.5.5-1.2.5-1.5 1.1-.1.2-.1.6-.2 1-.3.8-1.3.8-1.3 1.7s.9 1.1 1.6 1.7c.6.5.6.9 1.3 1.1.6.2 1.5-.5 2.3-.2.7.2 1.3.3 1.4 1 .1.6 0 1.6-.8 1.5-.3 0-1.4-.4-2.9-.3-1.7.2-3.7.8-3.9 2.7-.1 1.1 1.2 2.4 2.5 2.1.9-.2.5-1.2 1-1.7.6-.7 4.3 2.3 7.6 2.3 1.4 0 2.5-.4 3.5-1.5.1-.1.2-.3.4-.3.1 0 .4.2.5.2 2.7 2.2 4.8 6.5 14.7 6.6 1.4 0 3 .7 4.3 1.9 1.2 1.1 1.8 2.7 2.5 4.4 1 2.5 2.8 5 5.5 7.8.1.1 2.4 1.9 2.6 2 0 0 .2.4.1.6-.1 1.7-.3 6.5 3.3 6.7.9 0 .6-.6.6-1 0-.8-.2-1.7.3-2.5.6-1.2-1.3-1.7-1.2-4.3 0-1.9-1.6-1.6-2.4-3-.5-.8-.9-1.3-.9-2.3.2-5.8-1.2-9.6-1.9-10.5-.5-.7-1-1-.5-1.3 3-2 3.7-3.8 3.7-3.8 1.6-3.7 3-7.1 5-8.6.4-.3 1.4-1.1 2-1.4 1.8-.9 2.8-1.4 3.3-1.9.8-.8 1.5-2.5.7-3.6-1-1.3-2.7-.3-3.5.2-5.5 3.3-6.3 9-8.2 12.3-1.5 2.6-4 4.6-6.2 4.7-1.7.1-3.4-.2-5.2-1-4.3-1.9-6.7-4.3-7.2-4.8-1.2-.9-10.2-9.7-17.5-10.1 0 0-.9-1.8-1.1-1.8-.5-.1-1.1 1.1-1.5 1.2-.4.3-1-1.1-1.4-1"/></svg>