<svg xmlns="http://www.w3.org/2000/svg" xml:space="preserve" viewBox="0 0 72 72"><path d="M49.2 7.3c-.2.2-.1.9.2 1.4.4.6.3.9-.9 1.6-.6.4-1.2.9-1.4 1-.2.2-.5.4-.7.5-1.7 1-5.4 3.7-5.7 4-.4.5-.4.7 0 .7.3 0 2.3-1.1 2.4-1.4 0-.1.2-.2.3-.2.2 0 1.4-.8 1.5-1 0-.1.2-.1.3-.1q.3 0 3.3-2.4c.3-.2.8-.6 1.1-.9.6-.5.8-.5 1 .2.2.6 1.2.8 1.2.2 0-.2-.1-.6-.2-.8-.3-.6-1-2.1-1-2.3s-.7-.8-.9-.8c-.3.2-.4.3-.5.3m-11.4 9.3c-.3.3-.5.7-.5 1 0 .4-.2.7-.5 1-1 .7-1.4 1.2-1.5 1.9s.1 1.4.5 1.4c.1 0 .4.1.5.2.2.1.2.2-.1.6-.2.2-.4.4-.5.4-.3 0-.9.9-.8 1.2.1.2-.1.5-.6 1-1.2 1.1-1.4 1.3-1.4 1.6 0 .4 1 1.4 1.4 1.4.5 0 1.1.9 1.1 1.5 0 .3.1.7.3.9s.3.7.3 1.1c0 1 .7 2.3 1.3 2.3.2 0 .5-.1.6-.3.2-.5 1-.3 1 .3.1.6-.2.7-.4.3q-.15-.3-.3-.3c-.4 0-1.2 1.4-1.1 1.8.1.2 0 .4-.2.6-.6.5-.2 2.3.7 3.4.2.2.2.3-.1.6-.2.2-.4.9-.6 1.5s-.6 1.7-.9 2.4c-.5 1.1-.6 1.4-.5 2.8.1.9.2 2.2.3 2.9.2 1.1.3 1.5.9 2 .4.3.7.6.8.6s.3.2.5.4c.5.6 1.3.4 1.3-.3.1-.6-.5-1.3-1.1-1.3-.7 0-1.5-1.3-1.7-2.8-.1-.8-.1-1 .2-1.2.2-.2.3-.6.3-1.3 0-.9.1-1.1.6-1.6.3-.3 1-.9 1.5-1.4l.9-.8-.6-.6c-.3-.3-.6-.7-.5-.8.1-.2-.8-2.3-1-2.3s-.6-.9-.6-1.3c0-.2.1-.3.3-.4s.3-.4.3-1c0-1 .3-.9.4.1.1.9.4.9.8.1.2-.4.4-.7.5-.7s.2-.2.2-.4.3-.6.8-.9c.4-.3.9-.6.9-.6.1 0-.1-.2-.3-.3-.3-.2-.3-.4-.3-1.1 0-.5 0-1.1-.2-1.4-.1-.3-.3-1.3-.3-2.3-.1-1.6-.2-2.1-.7-3.1-.4-.8-.5-1.3-.4-1.6.2-.5.4-.5.6-.1.1.2.3.3.6.2.5.2.5.1.5-.4 0-.7.3-1 1.1-1s.8.2.2.8c-.3.3-.6.7-.6.9s-.2.5-.5.6l-.6.2.5.4c.6.5.7 1 .2 1.2-.3.1-.3.2-.1.4s.3.2.5-.1c.1-.2.4-.3.6-.3s.4-.1.4-.3c.1-.2.3-.3 1.2-.2l1.1.1.1-.9c0-.5 0-1.1-.1-1.2-.1-.3-.2-.3-.5 0-.2.2-.5.3-.7.2-.3-.1-.3-.2 0-.5.2-.2.6-.4 1-.5q1.2-.3.9-1.5c-.1-.5-.2-.6-.7-.6s-.6 0-.3-.2c.5-.3.4-.4-.7-1.2-.9-.5-1.2-.7-2.3-.7-1 0-1.3-.1-1.6-.5s-.3-.4-.1-.8c.3-.3.3-.4 0-1s-.4-.7-1.1-.7c-.4 0-.7.1-1.1.5m.3 2.8c.2.1.5.3.6.5s.3.2.8.1c.6-.1.6-.1.5.5s-.1.6.4.6q.6 0 1.2-.6c.5-.5.6-.5.7-.3.2.5 0 1-.5 1.1-.3.1-.5.3-.5.5-.1.6-.3.7-.8.5-.3-.2-.5-.2-1.1.1-1.1.5-1.3.4-1.2-.3s-.1-.9-.4-.3c-.2.3-.3.3-.7-.2-.6-.7-.6-1.4-.2-1.9.3-.6.6-.6 1.2-.3m5.7 1.8c.5.1.6.7.2 1-.5.4-1.3-.4-1-.9.1-.2.2-.2.8-.1m-.7 2.7c-.1.4-.6.6-.8.3-.1-.2-.1-.3-.1-.4.2-.2 1-.1.9.1m-5.3.6c.1.4 0 .5-.4.5-.3 0-.5.1-.6.2-.1.3.1-.7.2-1.2.1-.4.7-.1.8.5m1.3.9c.3.2-.2 1.7-.6 1.7s-.5-.3-.2-1c.3-.5.3-.6 0-.6-.5 0-.6-.4-.2-.7.3-.2.4-.2.5.1zm5.3-.3c0 .2-.2.3-.8.2-1.1-.1-1.2-.5-.1-.5.7 0 .9.1.9.3m-8.2.9c.2.3.3.7.3.9 0 .1.1.3.3.3q.3 0 .3-.6c0-.5.1-.6.3-.5.4.1.3 1.1-.1 1.4-.4.2-.3 1.6.2 4.1.1.3.3.7.4.9.2.2.2.3.1.4s-.3 0-.3-.1c-.1-.1-.4-.2-.7-.1-.6.1-.6.1-.6-.7 0-.5-.1-1.1-.3-1.4s-.3-.9-.3-1.3-.1-1-.2-1.3c-.2-.5-.4-2.3-.2-2.6s.5-.1.8.6"/><path d="M43.4 26.8c-1.2.4-1.4.5-1.8 1.3l-.6.9.4.4c.3.2.4.6.4 1 0 .7.3.8.5.2.2-.5.5-.3.5.2 0 .2.2.5.3.7.5.5.8 1.2.9 2.3.2 1.8 1.5 3.7 2.2 3.3.3-.2.2-.6-.2-.7-.2-.1-.5-.4-.6-.8-.3-.5-.3-.7 0-1 .1-.2.3-.6.3-.9s.1-.6.3-.7c.5-.3.9-2.1.5-2.4-.2-.1-.3-.4-.3-.7 0-.6-.2-1.1-.5-1.1-.2 0-.3-.3-.6-1.7-.1-.4-.2-.7-.3-.7zm1.2 1.8q0 .3-.3.3c-.3 0-.5-.3-.4-.5.3-.2.7-.1.7.2"/><path d="M41.8 32c-.1.2-.1.6 0 .9l.1.5.4-.4.4-.4-.4-.4c-.3-.5-.4-.5-.5-.2m6.2.1c-.1.1-.3.3-.3.6s-.3.4-.6.5c-.3 0-.4.2-.5.5-.1.4 0 .4.3.3.2-.1.5 0 .8.3.5.5.6 2.3.2 2.7-.3.3-.3.9 0 1q.3.15.3.6c0 .3.1.5.2.6.3.2.5-.4.5-1.8 0-1.7.3-2 .9-.7.5 1 .4 2.4-.2 3-.2.2-.5.6-.5.9-.1.5-.2.6-.9.5-.9 0-1.1.2-1 1.9.1.9.1 1 .5 1.1.6.1 1.2-1 1.2-2 0-1.1.5-.9.9.4.3 1 .3 1.1 0 1.5-.3.3-.3.8-.4 1.9 0 .8-.1 1.7-.3 1.9-.1.2-.2.7-.2 1.1s-.1.8-.3.9c-.2.2-.3.6-.3 1.5 0 .7-.1 1.3-.2 1.3-.3.2-.3.8 0 1s1.3-.3 1.4-.7c.1-.2.1-.7 0-1.1s0-1 .2-1.5c.2-.4.3-.9.3-1.1s.2-.9.4-1.5c.5-1.3.5-1.9.1-2.1s-.4-.4.1-.6c.3-.1.5-.4.5-.6.2-1.3.7-3.5.9-3.8.1-.2.3-.4.3-.6s.1-.5.3-.7.3-.8.3-1.7c0-1.2-.1-1.5-.7-2.4-.4-.6-.7-1.2-.6-1.3.1-.3 1.3-.3 1.3-.1 0 .1.1.2.3.2s.3.1.4.3.3.3.7.3.6-.1.7-.4-.1-.6-.7-1.2c-.9-.9-1.3-.9-2.3-.2-.9.6-1 .6-1.6.1-.3-.3-1.9-1-1.9-.9-.3 0-.4 0-.5.1m.6 1.7c0 .9-.4.9-.4 0-.1-.5 0-.7.2-.7.1.1.2.4.2.7m-.5 8.1c0 .3-.1.4-.3.4-.1 0-.2-.2-.3-.4 0-.3 0-.4.3-.4.2-.1.3.1.3.4m-6-7.7c-.2.4-.5.7-.6.7s-.5.4-.9.9-.8.9-.9.9-.3.2-.3.4c-.1.2-.2.4-.3.4s-.2.2-.2.4.1.4.2.4.2.2.1.5 0 .5.1.6.2.3.2.6.1.5.3.6.3.3.3.5c0 .5.8 1.3 1.2 1.3.2 0 .3.1.4.3s.3.3.7.3h.6v1.4c0 1-.1 1.5-.4 2.1-.2.4-.4.9-.3 1.1.3 1 .7 1.8 1.1 2.2.5.7.5.8-.1 1.8-.3.4-.5.9-.5 1.2 0 .4-.5 1.5-.8 1.7-.1.1-.2.4-.2.7 0 .7.3.7 1.1.2.7-.5.8-.7.7-1.3-.1-.4 0-.6.2-.6.2-.1.3-.3.3-.5 0-.8.2-1.2.9-1.6.9-.5 1.4-1.6.9-2.1-.1-.1-.1-.5 0-1.1s.1-1.4 0-2.1c-.2-1.2-.8-2.8-1-2.8-.1 0-.2-.3-.2-.7 0-.9-.2-1.6-.4-1.5-.1.1-.5 0-.8-.1-.6-.2-.7-.3-.7-1 0-.8.4-1.5.9-1.5.4 0 .5.3.2.9s-.2.9.1.5c.3-.3.7-.3.7 0 0 .2.1.3.3.4s.3.4.3 1.4q0 1.35.3 1.2c.1-.1.3-.4.3-.8s.1-.7.3-.7c.3 0 .2-.6-.1-1-.2-.2-.3-.5-.3-.7s-.3-.7-.6-1.1-.6-.9-.7-1.1-.3-.5-.5-.5c-.3-.1-.4-.4-.5-1.3-.1-.7-.3-1.3-.5-1.5-.5-.7-.5-.7-.9 0m.8 1.4c.1.2.2.6.2.8 0 .5-.7 1.3-1.1 1.3-.1 0-.3.2-.3.5s-.1.5-.2.5-.2.1-.2.3-.2.3-.4.4c-.4.1-.6.9-.2.9.1 0 .3.2.4.5l.2.5.3-.4c.4-.5.5-.5 1.1.1.4.4.4.5.2.7-.6.5-2.4-.3-2.4-1 0-.2-.1-.4-.2-.4-.3 0-.4-.6-.3-.9.1-.1.2-.4.3-.7s.3-.7.6-.8c.3-.2.5-.4.5-.6s.1-.3.3-.4q.3-.15.3-.6c.1-1 .5-1.4.9-.7m2 9.3c.2.2.3.5.2.7-.1.4-.5.2-.5-.2 0-.2-.1-.3-.2-.3s-.2-.1-.2-.3c0-.4.3-.4.7.1m-.7 1.6c.3.3.3.8.4 1.5 0 .9.1 1.1.3 1.2s.3.2.1.3c-.3.3-1.4-1-1.3-1.5.1-.2 0-.7-.2-1-.4-.9.1-1.3.7-.5M17.6 61.3c0 .2.1.4.2.4.3.1.3-.2 0-.5-.2-.3-.2-.3-.2.1m-.3 1.4c-.1 0-.1.2-.1.4v.3l.3-.3c.2-.1.2-.3.2-.4-.1-.2-.2-.2-.4 0m.6 1.1c0 .5 0 .7.1.9.5.4.8 0 .4-.5-.1-.2-.3-.5-.3-.7.1-.7-.2-.4-.2.3"/></svg>