<svg xmlns="http://www.w3.org/2000/svg" xml:space="preserve" viewBox="0 0 72 72"><path d="m54.7 33.3-.4-.7c0-5.2-2.4-7.3-5.1-9 .8-.2 1.7-.4 1.9-1.5 1.4-.4 1.7-1.1 1.9-1.8.4-.3 1.6-1 1.5-2.2.7-.5 1.1-1.1.9-2 .8-.8 1-1.5.6-2.2.9-1.2.5-1.8.1-2.4.7-1.3.1-2.6-1.8-2.4-.8-1.1-2.4-.9-2.7-.9-.3-.4-.7-.7-1.8-.5-.8-.7-1.6-.6-2.5-.2-1-.8-1.7-.2-2.5.1-1.3-.4-1.5.2-2.2.4-1.4-.3-1.8.3-2.4 1h-.8c-2.1 1.2-3.1 3.7-3.4 5-.4-1.3-1.4-3.7-3.4-5h-.8c-.7-.7-1.1-1.3-2.4-1-.6-.2-.9-.8-2.2-.4-.5-.2-1-.5-1.5-.5-.3 0-.6.1-1 .4-.9-.3-1.7-.5-2.5.2-1.2-.2-1.5.2-1.8.5-.3 0-1.9-.3-2.7.9-1.9-.2-2.5 1.1-1.8 2.4-.4.6-.8 1.2.1 2.4-.3.6-.1 1.3.6 2.2-.2.9.2 1.5.9 2-.1.8.4 1.4.9 1.7.3.2.5.4.6.5.1.7.4 1.4 1.9 1.8.2 1.1 1.1 1.3 1.9 1.5-2.8 1.6-5.2 3.7-5.1 9l-.4.7c-3.2 1.9-6.1 8.2-1.6 13.2.3 1.6.8 2.7 1.2 4 .7 5.1 4.9 7.5 6.1 7.7 1.7 1.3 3.4 2.5 5.8 3.3 2.2 2.3 4.7 3.2 7.1 3.2 0 0 5-.9 7.2-3.2 2.4-.8 4.1-2 5.8-3.3 1.1-.3 5.4-2.7 6.1-7.7.4-1.3.9-2.4 1.2-4 4.5-5 1.7-11.2-1.5-13.2m-2.9-.8c-.2 2.1-11-7.3-9.1-7.6 5-.9 9.2 2.1 9.1 7.6m-4.5 10.4c-2.7 1.8-6.6.6-8.7-2.6s-1.6-7.2 1.1-9 6.6-.6 8.7 2.6 1.6 7.3-1.1 9m-7.4-32.4q.15.75.3.9c.6-.7 1.1-1.3 1.9-2 0 .4-.2.8.3 1.1.4-.6 1-1.1 1.7-1.5-.4.6-.1.8.1 1 .6-.5 1.1-1 2.2-1.4-.3.4-.7.7-.3 1.1.6-.4 1.2-.7 2.6-1-.3.4-1 .7-.6 1.1q1.05-.45 2.4-.6c-.4.4-.8.7-.4 1 .8-.2 1.9-.6 2.9-.3l-.7.7c-.1.1 1.6.1 2.6.1-.4.6-.8 1.1-1 2.1.1.1.6 0 1.1 0-.5 1.1-1.4 1.4-1.6 1.9.3.2.8.2 1.2 0-.4.8-1.2 1.3-1.8 2 .2.1.4.2 1.1.1-.6.6-1.3 1.2-2.1 1.7.1.2.6.2 1.1.2-.7.7-1.7 1.1-2.6 1.6.4.3.8.2 1.1.2-.6.5-1.7.8-2.7 1.1.2.3.4.4.8.5-1.1.6-2.6.3-3 .6.1.3.4.5.7.7-1.7.1-6.4-.1-7.2-3.6 1.7-1.9 4.9-4.2 10.4-7-4.3 1.4-8.1 3.4-11.3 6-3.6-2-1-6.5.8-8.3M36 23.4c2.7 0 6 2 6 3.9 0 1.7-2.3 3.1-6 3-3.6 0-5.9-1.7-5.9-3.3 0-1.4 2.9-3.7 5.9-3.6m-13.6-1.5c.4-.1.6-.2.8-.5-1-.3-2.1-.6-2.7-1.1.3 0 .7.1 1.1-.2-.9-.5-1.8-.9-2.6-1.6.5 0 1 0 1.1-.2-.8-.5-1.5-1.1-2.1-1.7.6.1.9 0 1.1-.1-.6-.6-1.4-1.2-1.8-2q.75.3 1.2 0c-.2-.5-1.1-.8-1.6-1.9.5 0 1 .1 1.1 0-.2-1-.6-1.5-1-2.1 1.1 0 2.7 0 2.6-.1l-.7-.7c1.1-.3 2.1 0 2.9.3.4-.3 0-.6-.4-1q1.35.15 2.4.6c.4-.4-.3-.7-.6-1.1 1.4.3 2 .6 2.6 1 .4-.4 0-.8-.3-1.1 1 .4 1.6.9 2.2 1.4.4 0 .7-.2.3-.8.7.4 1.3.9 1.7 1.5.5-.3.3-.7.3-1.1.8.6 1.3 1.3 1.9 2q.15-.15.3-.9c1.8 1.8 4.4 6.3.7 8.1-3.2-2.6-7-4.6-11.3-6 5.5 2.8 8.6 5.1 10.4 7-.9 3.6-5.5 3.7-7.2 3.6.3-.2.6-.4.7-.7-.5-.2-2 0-3.1-.6m6.3 2.8c1.9.3-8.9 9.7-9.1 7.6-.2-5.5 4.1-8.5 9.1-7.6m-11.3 21c-2.6-2.1-3.5-8.3 1.4-11.1 2.9-.8 1 12.1-1.4 11.1m10.2 11c-1.5.9-5.1.5-7.6-3.1-1.7-3.1-1.5-6.2-.3-7.1 1.8-1.1 4.6.4 6.8 2.9 1.8 2.2 2.7 6.1 1.1 7.3m-2.9-13.4c-2.7-1.8-3.2-5.8-1.1-9s6-4.3 8.7-2.6c2.7 1.8 3.2 5.8 1.1 9s-6 4.3-8.7 2.6M36 63c-3.3.1-6.4-2.7-6.4-3.6 0-1.4 4-2.5 6.6-2.5 2.6-.1 6.2.8 6.2 2.1s-3.3 4.1-6.4 4m6.7-14.1c0 3.3-2.9 6.1-6.5 6.1s-6.6-2.7-6.6-6v-.1c0-3.3 2.9-6.1 6.5-6.1 3.6.1 6.6 2.7 6.6 6.1m9.1 4.9c-2.8 3.9-6.6 4-8 3-1.5-1.4-.4-5.7 1.7-8.1 2.3-2.6 4.8-4.3 6.5-3 1.2 1.1 1.9 5.4-.2 8.1m2.2-8.3c-2.4 1.1-4.3-11.8-1.4-11.1 4.9 2.8 4.1 9 1.4 11.1"/></svg>