<svg xmlns="http://www.w3.org/2000/svg" xml:space="preserve" viewBox="0 0 744.09 403.23"><path d="M497.08 158.86c-4.41-3.24-11.42-5.32-18.17-5.19-7.4.13-14.4 2.47-19.34 6.36v-46.46H436.6v151.57h22.97v-79.16c0-5.45 4.67-11.55 13.24-11.94 3.76-.13 9.08 1.56 11.81 5.58 2.85 4.15 2.73 9.86 2.73 15.96l-.13 69.56h22.97V194.8c-.01-20.76-2.6-28.16-13.11-35.94m-186.87 52.03c0 14.79-.52 18.95-.65 20.24-.78 8.31-4.28 17-13.89 17-9.47 0-13.37-9.34-13.76-17.39-.13 0-.65-5.06-.65-19.85s.52-21.02.65-21.02c0-8.43 4.41-16.74 13.76-16.74 9.47 0 13.76 8.31 13.89 16.61 0 .13.65 6.36.65 21.15m22.19-17.91c-3.24-32.31-21.67-39.32-36.72-39.32-21.41 0-34.39 13.63-36.72 39.32-.26 2.08-.52 5.84-.65 17.91-.13 8.82.52 16.09.65 17.91 1.43 24.01 15.18 38.67 36.72 38.67s35.3-14.92 36.85-38.67c.13-1.69.52-9.08.52-17.91 0-4.02-.26-14.79-.65-17.91m216.2 4.29c.13-5.06.13-6.1.26-7.53.65-9.08 4.67-16.61 14.01-16.61 11.03-.13 13.63 10.64 14.01 16.61.26 3.24.39 5.32.39 7.53zm28.42 30.36s0 1.69-.26 3.76c-.65 5.32-2.72 16.74-13.89 16.74-9.6 0-13.24-8.69-13.89-17.26-.13-2.47-.52-5.19-.52-14.53h51.26s0-7.66-.13-12.2c0-1.82-.13-4.8-.52-11.16-.78-9.73-4.41-20.37-9.99-27.12-6.36-8.05-15.44-12.2-26.21-12.2-20.76 0-33.74 13.5-36.21 39.32-.26 2.34-.65 5.58-.65 17.91 0 8.82.52 16.22.65 17.91 1.3 23.62 15.31 38.67 36.21 38.67 20.76 0 34.65-14.66 36.21-39.84z"/><path d="M185.64 36.22h373.47l142.74 167.14-142.74 164.8H185.64L42.24 202.85zm382.42-18.55H176.55L17.72 202.2l158.97 183.36h391.38l158.32-182.71z"/><path d="M190.31 134.2h10.77c11.81 0 18.3 6.23 18.56 17.39 0 .91.13 1.82.13 3.5 0 2.08 0 2.73-.13 3.63-.65 6.62-3.63 18.17-17.39 18.17h-11.94zm54.37 121.46-2.34-37.11c-1.04-16.61-5.32-26.47-14.01-31.53 6.23-3.76 14.27-12.98 14.14-32.31 0-29.33-18.3-39.71-39.84-39.97h-35.04v150.4h22.58l.13-68.78h12.59c7.27 0 15.44 6.36 16.74 24.27l2.34 35.17c.26 5.06 1.17 9.34 1.17 9.34h22.71s-1.04-4.16-1.17-9.48m154.81-29.07c0 1.69-.13 3.11-.26 4.15-.65 8.43-3.5 17.39-13.89 17.39-9.47 0-13.24-9.73-14.01-16.87-.39-4.28-.26-7.66-.39-20.37-.13-14.79.39-18.69.65-21.02.78-9.47 4.41-16.74 13.76-16.74 9.73-.13 13.76 8.31 13.89 16.61 0 .13.26 2.08.39 6.49h22.71c0-1.56-.13-2.85-.13-3.5-2.6-31.4-21.8-39.06-36.85-39.06-21.41 0-34.39 13.63-36.72 39.32-.26 2.08-.52 5.84-.65 17.91-.13 8.82.52 16.09.65 17.91 1.43 24.01 15.18 38.67 36.72 38.67 22.32.13 34.65-13.5 36.85-38.67 0-.91.13-1.56.13-2.21h-22.85"/></svg>