<svg xmlns="http://www.w3.org/2000/svg" xml:space="preserve" viewBox="0 0 256 180"><path d="M160.73 76.17c-1.95 0-3.34.67-4.24 2.06-.92 1.4-1.38 3.4-1.38 5.93 0 2.54.47 4.54 1.38 5.95.91 1.4 2.3 2.08 4.24 2.08 1.95 0 3.34-.68 4.26-2.08.93-1.41 1.41-3.41 1.41-5.95s-.47-4.53-1.4-5.93c-.93-1.39-2.32-2.06-4.27-2.06m-59.61-.09c-1.95 0-3.33.76-4.24 2.15-.6.91-.99 2.09-1.2 3.5h10.57c-.11-1.36-.37-2.58-.98-3.5-.92-1.39-2.21-2.15-4.15-2.15m-29.13 8.95s-1.9-.31-4.02-.34c-3.02-.04-4.31 1.07-4.3 1.07-.89.63-1.32 1.57-1.32 2.87 0 .82.15 1.47.44 1.93.2.3.28.42.86.88-.01 0 1.33 1.05 4.35.87 2.12-.13 4-.53 4-.53v-6.75z"/><path d="M200.74 24.38a54.5 54.5 0 0 0-22.3 4.74c-7.84-13.97-22.57-23.39-39.45-23.39-12.7 0-24.18 5.33-32.43 13.92C97.48 7.79 83.16.13 67.06.13c-27.43 0-49.67 22.21-49.67 49.6 0 7.01 1.46 13.68 4.09 19.73C8.71 76.92.13 90.86.13 106.82c0 23.82 19.11 43.13 42.69 43.13 3.01 0 5.94-.31 8.77-.91 6.48 17.57 23.35 30.1 43.15 30.1 19.01 0 35.33-11.55 42.33-28.02 5.33 2.6 11.31 4.06 17.63 4.06 15.11 0 28.27-8.32 35.18-20.65 3.51.71 7.14 1.08 10.86 1.08 30.45 0 55.13-24.9 55.13-55.62 0-30.71-24.68-55.61-55.13-55.61M54.89 88.92c0 4.49-3.26 7.28-8.5 7.28-2.58 0-5.04-.4-7.65-1.79-.49-.28-.98-.53-1.46-.88-.05-.07-.27-.16-.11-.58l1.03-2.87c.16-.5.54-.33.69-.24.28.17.5.33.87.54 3.05 1.93 5.87 1.95 6.76 1.95 2.28 0 3.69-1.21 3.69-2.83v-.09c0-1.78-2.17-2.44-4.7-3.22l-.56-.17c-3.46-.99-7.16-2.41-7.16-6.79v-.09c0-4.16 3.35-7.06 8.15-7.06h.52c2.82 0 5.54.82 7.52 2.02.18.11.35.31.26.59-.09.26-.97 2.61-1.07 2.87-.19.49-.69.16-.69.16-1.73-.95-4.41-1.7-6.67-1.7-2.03 0-3.34 1.08-3.34 2.54v.09c0 1.71 2.24 2.44 4.85 3.29l.45.15c3.45 1.09 7.13 2.6 7.13 6.75v.08zm21.48 5.84s-.55.15-1.04.27c-.5.11-2.28.47-3.73.72-1.47.25-2.98.38-4.5.38-1.44 0-2.76-.13-3.92-.4-1.18-.27-2.2-.71-3.02-1.31-.83-.6-1.48-1.38-1.93-2.32-.45-.93-.68-2.07-.68-3.38 0-1.29.27-2.44.79-3.42a7 7 0 0 1 2.15-2.44c.9-.64 1.94-1.13 3.1-1.44 1.15-.31 2.38-.47 3.65-.47.93 0 1.71.03 2.31.07 0 0 1.17.11 2.44.29v-.63c0-1.97-.41-2.91-1.22-3.53-.83-.64-2.06-.96-3.66-.96 0 0-3.61-.05-6.46 1.5-.13.08-.24.12-.24.12s-.35.12-.48-.24l-1.05-2.82c-.16-.41.13-.59.13-.59 1.33-1.04 4.57-1.67 4.57-1.67 1.07-.21 2.86-.37 3.97-.37 2.96 0 5.25.69 6.81 2.05 1.56 1.37 2.36 3.57 2.36 6.54l.01 13.56c-.02.01.01.4-.36.49m9.95.43c0 .25-.18.45-.43.45h-3.93c-.25 0-.42-.2-.42-.45V63.55c0-.25.17-.45.42-.45h3.93c.25 0 .43.2.43.45zm24.55-10.18c-.04.38-.43.39-.43.39l-14.82-.01c.09 2.25.63 3.85 1.73 4.93 1.07 1.06 2.77 1.74 5.07 1.74 3.52.01 5.03-.7 6.09-1.09 0 0 .41-.15.56.26l.97 2.71c.2.46.04.62-.12.71-.93.51-3.18 1.47-7.46 1.48-2.08 0-3.89-.3-5.38-.87-1.5-.58-2.75-1.41-3.73-2.47-.98-1.05-1.7-2.32-2.15-3.77-.45-1.43-.67-3.02-.67-4.73 0-1.68.22-3.27.65-4.73.43-1.47 1.11-2.76 2.01-3.85s2.05-1.96 3.41-2.6 3.05-.95 4.89-.95c1.59 0 3.04.34 4.25.86.93.4 1.86 1.12 2.81 2.15.6.65 1.52 2.07 1.89 3.47.94 3.33.44 6.21.43 6.37m12.32 11.2c-2.58 0-5.04-.4-7.65-1.79-.49-.28-.98-.53-1.46-.88-.05-.07-.27-.16-.11-.58l1.03-2.87c.15-.47.6-.3.69-.24.28.18.5.33.86.54 3.05 1.93 5.87 1.95 6.76 1.95 2.28 0 3.7-1.21 3.7-2.83v-.09c0-1.78-2.18-2.44-4.7-3.22l-.56-.17c-3.46-.99-7.16-2.41-7.16-6.79v-.09c0-4.16 3.35-7.06 8.15-7.06h.52c2.82 0 5.54.82 7.52 2.02.18.11.35.31.26.59-.09.26-.97 2.61-1.07 2.87-.19.49-.69.16-.69.16-1.73-.95-4.41-1.7-6.67-1.7-2.03 0-3.34 1.08-3.34 2.54v.09c0 1.71 2.24 2.44 4.85 3.29l.45.15c3.45 1.09 7.13 2.6 7.13 6.75v.09c-.01 4.48-3.27 7.27-8.51 7.27m25.89-20.04c-.08.45-.5.43-.5.43h-4.88l-3.34 18.9c-.35 1.95-.79 3.63-1.3 4.98-.52 1.37-1.06 2.36-1.92 3.32-.8.88-1.7 1.53-2.74 1.91-1.03.37-2.28.56-3.64.56-.65 0-1.35-.01-2.17-.2-.59-.14-.92-.24-1.36-.4-.19-.07-.33-.3-.23-.59.11-.3.98-2.7 1.1-3.01.15-.38.54-.24.54-.24.27.11.45.19.8.26s.83.13 1.19.13c.64 0 1.24-.08 1.75-.25.62-.21.98-.56 1.36-1.05.39-.5.71-1.19 1.03-2.11.33-.93.63-2.16.89-3.65l3.32-18.55h-3.28c-.39 0-.52-.19-.48-.48l.55-3.09c.09-.44.5-.43.5-.43h3.37l.18-1c.5-2.98 1.5-5.24 2.98-6.73s3.6-2.25 6.28-2.25c.77 0 1.45.05 2.01.15.56.11.99.2 1.46.35.1.04.39.18.27.52l-1.13 3.11c-.09.23-.16.38-.64.23-.12-.04-.3-.09-.76-.19a6 6 0 0 0-1.22-.12c-.59 0-1.12.07-1.59.23-.46.15-.88.41-1.24.77-.37.37-.81.91-1.04 1.58-.54 1.57-.76 3.24-.78 3.34h4.74c.4 0 .52.18.48.48zm21.7 12.69c-.43 1.45-1.1 2.74-1.99 3.8-.89 1.07-2.03 1.93-3.36 2.54-1.34.61-2.92.92-4.69.92-1.78 0-3.36-.31-4.7-.92s-2.47-1.46-3.36-2.54c-.9-1.07-1.56-2.35-2-3.8-.43-1.44-.64-3.03-.64-4.71s.21-3.26.64-4.71 1.1-2.73 1.99-3.8c.9-1.07 2.03-1.93 3.37-2.56 1.34-.62 2.92-.94 4.7-.94 1.77 0 3.36.32 4.69.94 1.34.63 2.47 1.49 3.36 2.56s1.56 2.35 1.99 3.8.64 3.03.64 4.71-.21 3.27-.64 4.71m18.32-15.48c-.14.4-.86 2.43-1.11 3.11-.09.26-.26.43-.54.4 0 0-.85-.2-1.63-.2-.54 0-1.3.07-1.99.28-.67.21-1.29.58-1.83 1.1-.54.53-.98 1.26-1.3 2.18-.33.93-.49 2.41-.49 3.89v11.05c0 .25-.2.45-.45.45h-3.89c-.25 0-.45-.2-.45-.45V73.08c0-.25.18-.45.43-.45h3.8c.25 0 .43.2.43.45v1.8c.57-.76 1.59-1.43 2.51-1.85.93-.42 1.96-.73 3.82-.62.97.06 2.23.33 2.48.43.09.04.32.2.21.54M207.63 95c-1.65.65-3.96 1.11-6.2 1.11-3.8 0-6.71-1.1-8.65-3.25-1.93-2.15-2.91-5.09-2.91-8.72 0-1.68.24-3.27.71-4.71.48-1.45 1.19-2.73 2.13-3.8s2.13-1.93 3.53-2.55c1.4-.63 3.04-.94 4.88-.94 1.23 0 2.34.08 3.29.22 1.01.15 2.35.51 2.92.74.1.04.39.18.27.51-.41 1.17-.69 1.93-1.07 2.99-.16.45-.51.3-.51.3-1.44-.46-2.82-.66-4.63-.66-2.17 0-3.79.72-4.86 2.14s-1.67 3.29-1.68 5.77c-.01 2.73.67 4.74 1.88 5.99s2.89 1.88 5.01 1.88c.86 0 1.67-.06 2.4-.17.72-.11 1.4-.34 2.04-.58 0 0 .41-.16.56.27l1.07 2.97c.14.34-.18.49-.18.49m21.95-9.99c-.04.38-.43.39-.43.39l-14.82-.01c.09 2.25.63 3.85 1.73 4.93 1.07 1.06 2.77 1.74 5.07 1.74 3.52.01 5.02-.7 6.08-1.09 0 0 .41-.15.56.26l.97 2.71c.2.46.04.62-.12.71-.93.51-3.18 1.47-7.46 1.48-2.08 0-3.89-.3-5.38-.87-1.5-.58-2.75-1.41-3.73-2.47-.98-1.05-1.7-2.32-2.15-3.77-.45-1.43-.67-3.02-.67-4.73 0-1.68.22-3.27.65-4.73.43-1.47 1.11-2.76 2.01-3.85s2.05-1.96 3.41-2.6 3.04-.95 4.89-.95c1.59 0 3.04.34 4.25.86.93.4 1.86 1.12 2.81 2.15.6.65 1.53 2.07 1.9 3.47.94 3.33.45 6.21.43 6.37"/><path d="M219.83 76.08c-1.95 0-3.33.76-4.24 2.15-.6.91-.99 2.09-1.2 3.5h10.57c-.11-1.36-.37-2.58-.98-3.5-.91-1.39-2.2-2.15-4.15-2.15"/></svg>