<svg xmlns="http://www.w3.org/2000/svg" xml:space="preserve" viewBox="0 0 360 180"><path d="M214.3 64.8 204 119.5h-21.6l-11.3-28.2c-3.1 14.6-6.2 29.1-9.3 43.7-.1.7-1 .7-.8-.1l14.1-75.2h2.8l11.3 28.1c4.3-20.1 9-42.3 9.1-42.8.1-.7 1-.7.8.1l-8.6 46 1.7 4.3L203 45c.1-.7 1-.7.8.1l-10 53.9 1.6 4c4.6-21.8 12.3-57.5 12.4-58.1.1-.7 1-.7.8.1L197 107l1.5 3.7c4.2-19.6 13.9-65 14-65.7s1-.7.8.1l-13.1 69.8 1.3 3.4c2-9.5 15.5-72.6 15.7-73.4.1-.7 1-.7.8.1l-2.7 14.5h15.8l7.5 22.5 15.2-22.5h19.9L244 98.2l-4.4 21.3h-16l4.4-22.1zM53.9 99.4H36.3c-2.1 14.3 8.7 21.6 24.3 21.4 17.8-.2 26-3.7 29.7-19.2C92.8 84.4 71.8 83 66.8 81.8c-3.6-.7-5.8-2.8-5.4-5.6.3-2.2 3.1-5.1 7.4-5.1 1.9 0 3.6.3 4.9 1.1 1.3.7 2.8 2.8 2.4 6.3h18.6C95.1 68 88.2 59 71.6 59c-14.9 0-26.5 5.6-28.7 18.3-1.4 7.8 2.9 12.8 7.8 15.4 2.8 1.4 12.2 4.1 16.6 4.9s4.7 4.2 4.6 6.4c-1.1 3.6-5.1 5.2-10 5.2-5.1-.2-9.5-4.6-8-9.8m106.8-39.7-14.1 75.2c-.1.8.7.8.8.1.2-.9 16-75.4 16-75.4zm4.8 0-14.1 75.2c-.1.8.7.8.8.1.2-.9 16-75.4 16-75.4zm4.7 0-14.1 75.2c-.1.8.7.8.8.1.2-.9 16-75.4 16-75.4zm128.4-1.8c-17.8-.2-30.8 8.6-35.6 30.7-3.9 17.9 7.7 30.8 26.5 30.8 17.7 0 30.3-10.3 33.9-30.7 2.8-15.7-4.3-30.6-24.8-30.8m6.9 30.8c-1.3 7.2-6.3 17.7-14.8 17.7-10.9 0-11-10.1-9.8-17.7 1.4-9.1 6.7-17.9 15.6-17.9 8.6-.2 10.5 9.8 9 17.9m-149.6-29-9.6 51-9.4-51.1-16.4.1-35.1 59.9h17l4.6-8h23.3l1.2 8h13.3l-2.9 15.4c-.1.8.7.8.8.1.2-.9 16-75.4 16-75.4zm-42.6 39.7 11.9-21.2 3.2 21.2z"/></svg>