<svg xmlns="http://www.w3.org/2000/svg" xml:space="preserve" viewBox="0 0 300 100"><path d="m6.87 92.69 37.48-.04C59.68 92.65 72.1 80.26 72.1 65c0-15.29-12.43-27.68-27.76-27.68l-9.73.05c-.77 0-1.39-.63-1.39-1.4s.62-1.4 1.39-1.4l37.41.01.01-11.74H34.6c-7.24 0-13.12 5.88-13.12 13.1 0 7.23 5.89 13.09 13.12 13.09l9.78.13c8.78 0 15.89 7.08 15.89 15.83s-7.11 15.85-15.89 15.85H6.88z"/><path d="M6.88 78.07h37.5c7.26 0 13.13-5.86 13.13-13.09S51.64 51.9 44.38 51.9l-9.78-.11c-8.77 0-15.89-7.09-15.89-15.86 0-8.74 7.12-15.83 15.89-15.83l37.43-.01-.01-11.78H34.61c-15.32 0-27.76 12.37-27.76 27.65s12.44 27.66 27.76 27.66l9.68.01c.74 0 1.36.6 1.36 1.36 0 .74-.62 1.34-1.36 1.34l-37.42.04zm94.28 2.83c-6.5 0-11.83-5.18-11.83-11.8V31.67c0-6.36 5.33-11.6 11.83-11.6l40 .01V8.31h-40c-13.02 0-23.56 10.51-23.56 23.48V69.1c0 12.97 10.54 23.5 23.56 23.5l39.84.02-.01-11.73z"/><path d="M92.2 31.79c0-4.96 3.99-8.98 8.96-8.98h40v11.77H106.7c-2.76 0-2.8 2.74-2.8 2.74h28.75v11.72H92.18zm8.96 46.26c-4.95 0-8.97-4-8.97-8.94V51.84h40.47v11.74H103.9c.04 2.76 2.8 2.77 2.8 2.77H141l-.01 11.68zm68.03 2.82c-6.48 0-11.77-5.28-11.77-11.77V31.79c0-6.49 5.26-11.73 11.74-11.73h38.74V8.31h-38.83c-13.01 0-23.56 10.51-23.56 23.48V69.1c0 12.97 10.64 23.5 23.65 23.5l38.74.02V37.33h-33.3v11.72h21.53v31.82z"/><path d="M160.18 69.1c0 4.97 4.02 9.01 8.98 9.01h24.2V51.82h-18.72v11.76h6.95l.02 2.76h-6.92c-1.51 0-2.75-1.25-2.75-2.76l-.06-26.26s-.01-2.73 2.78-2.8h33.26l-.01-11.71-38.74.01a8.98 8.98 0 0 0-8.98 8.98zm84.14-46.46a3.836 3.836 0 0 1 7.24 0l18.81 55.56h-27.54l.03-13.07h9.2l-4.14-12.31-13.5 39.79h-13.88z"/><path d="M274.15 80.87h-31.29v11.74h47.61l-24.76-73.26c-2.17-7.15-9.32-12.4-17.79-12.4-8.48 0-15.61 5.23-17.8 12.37l-24.99 73.29h12.46l24.26-71.24a6.54 6.54 0 0 1 6.04-4.02c2.72 0 5.05 1.66 6.05 4.01zm7.35-63.23c2.22 0 4.3-.86 5.86-2.42a8.26 8.26 0 0 0 2.43-5.86c0-2.2-.87-4.26-2.43-5.83a8.28 8.28 0 0 0-5.86-2.41c-4.56 0-8.28 3.69-8.28 8.25 0 2.22.86 4.29 2.44 5.86a8.3 8.3 0 0 0 5.84 2.41m-7.11-8.28c0-1.89.73-3.68 2.08-5.02a7.1 7.1 0 0 1 5.03-2.07c1.91 0 3.7.73 5.05 2.07a7.08 7.08 0 0 1 2.09 5.02c0 3.92-3.2 7.11-7.14 7.11-1.89 0-3.68-.74-5.03-2.08a7 7 0 0 1-2.08-5.03"/><path d="M279.38 10.06v3.9h-1.2V4.79h3.41c1.28.01 2.03.01 2.75.55.69.51.98 1.28.98 2.12 0 2.14-1.74 2.42-2.19 2.51l2.58 3.98h-1.45l-2.51-3.9zm0-1.01h2.43c.39 0 .75 0 1.12-.09.85-.2 1.15-.81 1.15-1.48 0-.24-.02-.86-.55-1.28-.48-.4-1.08-.39-1.79-.39h-2.37v3.24z"/></svg>