<svg xmlns="http://www.w3.org/2000/svg" xml:space="preserve" viewBox="0 0 360 180"><path d="M91.8 84.3c-9.1-.6-18.5-.8-27.7-1.1-3-.4-4.2-1.5-4.2-6.1 0-4.8 2.7-5.8 4.7-5.8q8.25-.6 16.5 0c2.7.2 3.7 2.3 3.7 7.6h22.5c0-10.8-3.9-15.7-16.7-15.7-12.5-.4-25.1-.4-37.6 0-12 .4-16.2 3.8-17 15.6.6 8.5 2.3 11.3 13 13.7 10.8 1 21.3-.1 32 .8 3 .6 3.7 3.6 3.7 6.2 0 6.2-1.9 7-3.9 7.3-5.1.9-15.3.4-16.7-.1-1.3-.9-3.9-2.1-3.6-7.6H36c0 6.5.6 13.9 6.2 15.4 5.9 1.8 12.8 2.4 18.2 2.4h24.3c2.4 0 14.7-1.4 17.2-2.5 2.7-1.7 6.3-5.2 6.1-15.3-.5-7.2-1-13.9-16.2-14.8m84.3-3.7c-4.3-2.8-10.5-2.4-16.3-2.4-6.1 0-12.9.8-18.1 3.3V63.4h-21v53.7h21V94.3c.5-3.2 1.3-5.7 9-5.7 7.3-.1 9.4 1.9 9.4 5.7v22.8h21V94.3c0-7.5-.1-11.5-5-13.7m126.6-17.2H324v53.7h-21.3zM254.3 89c-.4-1.7-.9-3.3-1.5-4.9-3.7-5.9-16.3-5.9-28.6-6.2-9.2 0-23 .2-27.1 4.2-1.7 1.8-2.5 4.3-3 7-.6 3.2-.5 6.5-.5 8 0 2.8.2 13.5 5.4 16.3 4.8 3.2 19.4 3.6 24.9 3.6 5.9 0 22.4-.6 24.8-3.4 4.3-1.5 5.3-6.8 6.2-11h-21.1c0 4.2-3.3 6.7-9.9 6.3-5.9.4-9.4-1-9.4-8.5l40.4.1c0-3.8.1-7.7-.6-11.5m-20.6 3.7h-19.2c0-1.5.2-2.8.6-3.7 1.4-3.4 4.9-3.5 8.7-3.8 5.8 0 8.4 1.4 9.4 3.8.5 1 .7 2.3.5 3.7m33.1-29.3h21.5v53.7h-21.5z"/></svg>