<svg xmlns="http://www.w3.org/2000/svg" xml:space="preserve" viewBox="0 0 72 72"><path d="m29.1 8 .6 2.6c-2.5.6-5 1.6-7.2 3l-1.4-2.3c2.5-1.5 5.2-2.6 8-3.3m13.8 0-.6 2.6c2.5.6 5 1.6 7.2 3l1.4-2.3c-2.5-1.5-5.2-2.6-8-3.3M11.3 21.1c-1.5 2.5-2.6 5.2-3.3 8l2.6.6c.6-2.5 1.6-5 3-7.2zM9.9 36q0-1.95.3-3.9l-2.7-.4c-.4 2.9-.4 5.8 0 8.6l2.7-.4q-.3-1.95-.3-3.9m41 24.7-1.4-2.3c-2.2 1.4-4.7 2.4-7.2 3l.6 2.6c2.8-.7 5.5-1.8 8-3.3M62.1 36q0 1.95-.3 3.9l2.7.4c.4-2.9.4-5.8 0-8.6l-2.7.4q.3 1.95.3 3.9m1.9 6.9-2.6-.6c-.6 2.5-1.6 5-3 7.2l2.3 1.4c1.5-2.5 2.6-5.2 3.3-8M39.9 61.8q-3.9.6-7.8 0l-.4 2.7c2.9.4 5.8.4 8.6 0zM57 51.5c-1.6 2.1-3.4 4-5.5 5.5l1.6 2.2c2.3-1.7 4.4-3.8 6.1-6.1zM51.5 15c2.1 1.6 4 3.4 5.5 5.5l2.2-1.6c-1.7-2.3-3.8-4.4-6.1-6.1zM15 20.5c1.6-2.1 3.4-4 5.5-5.5l-1.6-2.2c-2.3 1.7-4.4 3.8-6.1 6.1zm45.7.6-2.3 1.4c1.4 2.2 2.4 4.7 3 7.2l2.6-.6c-.7-2.8-1.8-5.5-3.3-8M32.1 10.2q3.9-.6 7.8 0l.4-2.7c-2.9-.4-5.8-.4-8.6 0zM16.4 59.9l-5.6 1.3 1.3-5.6-2.6-.6-1.3 5.6c-.3 1.5.6 2.9 2 3.2q.6.15 1.2 0l5.6-1.3zM10 52.6l2.6.6.9-3.9c-1.3-2.2-2.3-4.6-2.9-7.1l-2.6.7c.6 2.4 1.5 4.7 2.7 6.8zm12.6 5.8-3.9.9.6 2.6 2.8-.7c2.2 1.2 4.5 2.1 6.8 2.7l.6-2.6c-2.3-.6-4.6-1.6-6.9-2.9M36 12.6c-12.9 0-23.4 10.5-23.4 23.4 0 4.4 1.2 8.7 3.6 12.4L13.9 58l9.6-2.3c10.9 6.9 25.4 3.6 32.3-7.3s3.6-25.4-7.3-32.3c-3.7-2.3-8.1-3.5-12.5-3.5"/></svg>