<svg xmlns="http://www.w3.org/2000/svg" xml:space="preserve" viewBox="0 0 242 344.71"><path d="M69.24 249.67c2.5-.72 7.52 8.49 8.89 10.15 3.41 4.14 7.47 7.94 12.6 9.79 8.09 2.93 16.07-2.23 22.23-7.13 4.39-3.49 12.33-11.82 2.46-13.11-8.25-1.08-16.41-2.31-24.63-3.8-27.15-4.91-53.65-14.56-68.18-39.72-15.45-25.78-16.58-58.48-8.83-86.95 4.62-17 12.23-37.56 26.3-48.87 10.07-8.09 24.4-9.64 34.6-.87 8.42 7.25 11.95 18.34 15.25 28.57 6.74 20.86 13.6 45.12 12.41 67.19-.42 7.73-1.89 23.46-11.79 25.01-10.89 1.71-18.18-14.51-21.46-22.35-4.42-10.56-6.21-21.63-8.44-32.78-1.13-5.64-1.6-18.35-5.39-22.8-.55-.53-8.12 20.29-8.22 20.69-4.27 16.7-5.15 35.4 1.31 51.69 13.84 34.86 56.81 32.69 86.65 44.17 31.37 12.06 8.35 38.03-10.52 49.61-10.89 6.68-23.55 10.55-35.95 6.01-7.4-3.29-13.16-9.28-16.69-16.52-1.05-2.13-6.91-16.77-2.6-17.98 1.15-.33-1.06.3 0 0"/><path d="M145.38 193.09c7.94-.38 13.08 25.71 14.69 31.13 4.68 15.74 9.14 31.57 15.26 46.83 2.52 6.28 5.24 12.48 8.31 18.51 2.81 5.51 9.56 12.67 9.68 18.96.86 13.11-15.94 26.44-28.18 20.36-5.45-3-8.59-10.3-11.37-15.61-6.88-13.31-11.6-27.7-14.5-42.39-2.79-14.13-3.89-28.64-3.37-43.03.22-5.74.59-34.34 9.48-34.76 2.63-.13-2.58.12 0 0m-11.52-15.02c-10.13-.99-9.7-32.46-9.76-37.87-.22-18.08 1.55-36.56-.94-54.53-1.96-14.16-7.71-25.12-19.93-33.12-7.6-4.98-14.14-8.92-14.22-19.13-.07-8.92 6.09-17.6 15.07-19.29 16.28-3.08 35.81 18.43 43.06 30.93 7.58 13.07 10.24 28.36 9.81 43.33-.52 17.89-4.71 35.74-9.46 52.92-1.07 3.78-7.62 37.36-13.63 36.76-1.32-.13 1.26.13 0 0m57.63 87.32c-10.65 6.93-21.7-39.22-22.54-44.17-3.52-20.79-4.68-41.99-2.64-62.99 2.14-22.06 7.35-43.83 15.35-64.51 5.49-14.2 13.2-41.19 32.29-41.14 8.6.02 15.12 6.84 16.61 14.97 1.5 8.18-2.2 14.67-5.79 21.71a294.2 294.2 0 0 0-22.44 58.68c-5.41 20.5-8.01 41.28-9.51 62.39-.67 9.43-1.25 18.89-1.2 28.35.03 4.49 3.9 24.12-.13 26.71-1.06.69 1.12-.72 0 0"/></svg>