<svg xmlns="http://www.w3.org/2000/svg" xml:space="preserve" viewBox="0 0 72 72"><path d="M41 33.4c-2.4-.6-4.8-1-7.1-1.6-1.2-.3-2.6-.7-3.5-1.7-.9-1.1-.6-2.9.4-3.9s2.5-1.4 3.9-1.4c1.9 0 4 .3 5.5 1.6 1.2.9 1.9 2.4 3.4 3 1.2.4 2.7.1 3.7-.8.9-.9.8-2.3.3-3.4-.7-1.6-2.2-2.8-3.7-3.6-3.5-1.9-7.6-2.5-11.5-1.9-2.7.3-5.5 1.3-7.4 3.4-2.1 2.2-2.5 5.4-1.9 8.3.4 1.8 1.5 3.4 3.1 4.4 2 1.4 4.3 1.9 6.6 2.4 2.1.5 4.2 1 6.3 1.6 1.1.3 2.3.9 2.8 2.1.6 1.2.1 2.7-.8 3.6-1.3 1.4-3.2 2-5.1 1.9-1.9 0-3.9-.5-5.3-1.8-1.2-1-1.8-2.5-3.1-3.5-1.6-1.3-4.4-.5-4.9 1.6-.4 2.1.8 4.1 2.3 5.4 3 2.6 7.1 3.4 11 3.5 3.6 0 7.5-.7 10.3-3.2 3.5-3 4.1-8.7 1.3-12.4-1.6-1.9-4.1-3-6.6-3.6"/><path d="M62.7 40.7c.8-4.5.4-9.2-1.1-13.5-2.2-6.4-6.8-11.9-12.8-15-5.3-2.9-11.6-3.9-17.6-2.8C26 6.2 19 6.6 14 10.1c-3.3 2.3-5.7 5.9-6.5 9.8-.8 3.8-.2 8 1.7 11.4-.7 4.7-.3 9.7 1.4 14.2 2.3 6.3 7.1 11.7 13.2 14.7 5.2 2.6 11.2 3.5 16.9 2.5 5.1 3 11.9 2.8 16.8-.5 3.6-2.3 6.1-6.1 7-10.3.8-3.8.1-7.8-1.8-11.2m-6.2 17c-2.9 2.6-7.1 3.6-10.9 2.5-1.5-.4-2.8-1.1-4.2-1.9-4.5 1-9.4.8-13.7-.9C21.4 55 16.2 49.5 14.1 43c-1.3-4-1.4-8.4-.5-12.5-1.4-2.2-2.4-4.6-2.3-7.2 0-4 2.1-7.8 5.4-10 3-2 7-2.5 10.4-1.4 1.2.4 2.3 1.1 3.4 1.7 4.3-.9 8.9-.8 13 .7 6.6 2.3 12 7.8 14.2 14.5 1.4 4.1 1.5 8.5.6 12.7 1.1 1.8 2 3.7 2.2 5.7.6 3.9-1 8-4 10.5"/></svg>