<svg xmlns="http://www.w3.org/2000/svg" xml:space="preserve" viewBox="0 0 72 72"><path d="M19.3 43.6c0 3.3-2.7 6-6 6s-6-2.7-6-6 2.7-6 6-6h6zm3.1 0c0-3.3 2.7-6 6-6s6 2.7 6 6v15.1c0 3.3-2.7 6-6 6s-6-2.7-6-6zm6-24.3c-3.3 0-6-2.7-6-6s2.7-6 6-6 6 2.7 6 6v6zm0 3.1c3.3 0 6 2.7 6 6s-2.7 6-6 6H13.2c-3.3 0-6-2.7-6-6s2.7-6 6-6zm24.3 6c0-3.3 2.7-6 6-6s6 2.7 6 6-2.7 6-6 6h-6zm-3.1 0c0 3.3-2.7 6-6 6s-6-2.7-6-6V13.3c0-3.3 2.7-6 6-6s6 2.7 6 6zm-6 24.3c3.3 0 6 2.7 6 6s-2.7 6-6 6-6-2.7-6-6v-6zm0-3c-3.3 0-6-2.7-6-6s2.7-6 6-6h15.2c3.3 0 6 2.7 6 6s-2.7 6-6 6z"/></svg>