<svg xmlns="http://www.w3.org/2000/svg" xml:space="preserve" viewBox="0 0 72 72"><path d="M36.6 10.3c2.2 0 9.6.6 13.1 8.4 1.2 2.6.9 7.3.6 11 0 .6-.1 1.2-.1 1.7v.2l.2.2c.1.1.7.7 2 .7.9 0 1.9-.3 3-.8.2-.1.4-.1.6-.1.3 0 .5 0 .7.1.6.2 1 .6 1 .9 0 .2-.1.9-2.1 1.7-.2.1-.5.2-.8.3-1.3.4-3.3 1-3.9 2.6-.4.9-.3 1.9.3 3.1.2.6 4 8.9 12.3 10.3v.1c-.1.3-1 1.5-6.7 2.4-.9.1-1.1 1.1-1.3 2.3-.1.4-.2.8-.3 1.3 0 .1 0 .1-.2.1h-.1c-.2 0-.6-.1-1.1-.1q-1.2-.3-3.3-.3c-.8 0-1.6.1-2.4.2-1.7.3-3.1 1.3-4.6 2.3-2 1.4-4 2.9-7.2 2.9h-.6c-3.1 0-5.2-1.5-7.2-2.9-1.5-1-2.9-2-4.6-2.3-.8-.1-1.6-.2-2.4-.2-1.4 0-2.5.2-3.3.4-.4.1-.8.2-1.1.2-.2 0-.2 0-.3-.2-.1-.4-.2-.9-.3-1.3-.3-1.1-.5-2.1-1.3-2.3-5.6-.9-6.5-2-6.7-2.4v-.1c8.4-1.4 12.1-9.8 12.3-10.3.6-1.2.7-2.2.3-3.1-.7-1.6-2.6-2.2-3.9-2.6-.3-.1-.6-.2-.8-.3-1.7-.7-2.2-1.3-2.1-1.8s.9-.9 1.6-.9c.2 0 .3 0 .4.1 1.2.5 2.2.8 3.1.8 1.5 0 2.1-.7 2.2-.8l.2-.2v-.2c0-.6-.1-1.1-.1-1.7-.2-3.8-.5-8.4.6-11 3.5-7.8 10.9-8.4 13.1-8.4zm0-1.4h-1.1c-1.3 0-3.8.2-6.6 1.4-1.6.7-3 1.6-4.2 2.8-1.5 1.4-2.6 3.1-3.5 5-1.3 2.9-1 7.7-.7 11.7 0 .4.1.9.1 1.3-.2.1-.5.2-.9.2-.7 0-1.6-.2-2.6-.7-.3-.1-.6-.2-1-.2-.6 0-1.2.2-1.7.5-.7.4-1.1.9-1.2 1.6-.1.4-.1 1.2.8 2 .5.4 1.2.9 2.1 1.2.2.1.5.2.8.3 1.1.3 2.7.9 3.1 1.8.2.5.1 1.2-.3 2v.1c-.1.2-1 2.3-2.9 4.5-1.1 1.2-2.2 2.3-3.5 3.1-1.5 1-3.2 1.6-4.9 1.9-.7.1-1.2.7-1.1 1.4 0 .2.1.4.1.6.3.6.9 1.2 2 1.7 1.3.6 3.2 1.1 5.6 1.5.1.2.3.8.3 1.2.1.4.2.9.3 1.4.2.5.5 1.1 1.5 1.1.4 0 .8-.1 1.3-.2.7-.1 1.8-.3 3-.3.7 0 1.4.1 2.2.2 1.4.2 2.6 1.1 4 2.1 2.1 1.5 4.4 3.1 8 3.1h.7c3.6 0 5.9-1.6 8-3.1 1.4-1 2.6-1.9 4-2.1.7-.1 1.5-.2 2.2-.2 1.2 0 2.2.2 3 .3.6.1 1 .2 1.3.2.7 0 1.3-.4 1.5-1.1.1-.5.2-.9.3-1.3s.2-1 .3-1.2c2.5-.4 4.4-.9 5.6-1.5 1-.5 1.7-1 1.9-1.7.1-.2.1-.4.1-.6 0-.7-.4-1.3-1.1-1.4-7.7-1.3-11.2-9.2-11.3-9.5v-.1c-.4-.8-.5-1.5-.3-2 .4-1 2-1.5 3.1-1.8.3-.1.6-.2.8-.3 1.1-.4 1.8-.9 2.3-1.4.6-.6.7-1.2.7-1.6 0-.9-.7-1.7-1.8-2.1-.4-.2-.8-.2-1.3-.2-.3 0-.7 0-1.2.2-.9.4-1.7.7-2.4.7-.4 0-.6-.1-.8-.2 0-.4 0-.7.1-1.1v-.2c.2-3.9.6-8.8-.7-11.7-.9-2-2.1-3.7-3.5-5.1-1.2-1.2-2.6-2.1-4.2-2.8-2.5-1.2-5.1-1.4-6.3-1.4" style="fill:#020202"/></svg>