<svg xmlns="http://www.w3.org/2000/svg" xml:space="preserve" viewBox="0 0 256 145"><path d="m109.97 81.48-1.49-54.49c0-1.69-1.39-2.99-2.99-2.99-1.69 0-2.99 1.29-2.99 2.99l-1.39 54.49 1.39 26.2c0 1.69 1.39 2.99 2.99 2.99 1.69 0 2.99-1.29 2.99-2.99zm-10.76 0L97.52 24.9c0-1.59-1.29-2.79-2.79-2.79s-2.79 1.2-2.79 2.79l-1.49 56.48 1.49 26.4c0 1.59 1.29 2.79 2.79 2.79s2.79-1.2 2.79-2.79zM76 25.3c-.1-1.29-1.1-2.39-2.39-2.39s-2.29 1-2.39 2.39l-1.69 56.08 1.69 26.8c0 1.29 1.1 2.29 2.39 2.29s2.29-1 2.39-2.39l2-26.8zm10.76-1.89c0-1.39-1.2-2.59-2.59-2.59s-2.59 1.1-2.59 2.59l-1.59 57.97 1.59 26.6c0 1.39 1.2 2.59 2.59 2.59s2.49-1.1 2.59-2.59l1.79-26.6zm-54.29 86.46c.8 0 1.39-.6 1.49-1.49l2.59-26.99-2.59-27.89c-.1-.8-.7-1.49-1.49-1.49-.8 0-1.39.6-1.49 1.49l-2.29 27.89 2.29 26.99c0 .89.7 1.49 1.49 1.49m88.36-28.39-1.39-64.75c0-1.1-.6-2.09-1.49-2.69-.5-.3-1.1-.6-1.79-.6-.6 0-1.2.2-1.79.5-.9.6-1.49 1.59-1.49 2.69v.6l-1.2 64.15 1.2 26v.1c0 .7.3 1.39.8 1.89.6.7 1.49 1.2 2.49 1.2.9 0 1.69-.4 2.29-.9.6-.6 1-1.39 1-2.29l.1-2.59zm-76.5-26c-.1-1-.8-1.69-1.69-1.69-.9 0-1.69.7-1.69 1.69l-2.09 25.9 2.09 27.19c.1 1 .8 1.69 1.69 1.69.9 0 1.69-.7 1.69-1.69l2.39-27.19zm8.56-18.13c-1 0-1.89.8-1.89 1.89l-1.99 42.14 1.99 27.2c.1 1.1.9 1.89 1.89 1.89s1.89-.8 1.89-1.89l2.29-27.19-2.29-42.14c.01-1-.89-1.9-1.89-1.9m12.36 71.23 2.09-27.09-2.09-51.8c-.1-1.2-1-2.09-2.19-2.09-1.2 0-2.09.9-2.19 2.09l-1.89 51.8 1.89 27.09c0 1.2 1 2.09 2.19 2.09 1.19.1 2.09-.9 2.19-2.09M128.7 7.87c-.5-.3-1.1-.5-1.79-.5-.8 0-1.59.3-2.19.8-.8.6-1.29 1.59-1.29 2.69v.4l-1.39 70.33.7 12.95.7 12.65c0 1.89 1.59 3.39 3.49 3.39s3.39-1.59 3.49-3.49l1.49-25.6-1.49-70.62c-.13-1.31-.73-2.4-1.72-3M2.89 96.32c.5 0 .9-.4 1-1l2.19-13.95-2.2-14.13c-.1-.6-.5-1-1-1s-1 .4-1 1L0 81.38l1.89 13.95c0 .6.5.99 1 .99m9.46 8.47c.5 0 1-.4 1.1-1l2.89-22.41-2.89-22.91c-.1-.6-.5-1-1.1-1-.5 0-1 .4-1.1 1L8.77 81.38l2.49 22.41c.1.6.49 1 1.09 1m9.96 4.08c.7 0 1.2-.5 1.29-1.29l2.69-26.2-2.69-27.19c-.1-.7-.6-1.29-1.29-1.29-.7 0-1.2.5-1.29 1.29l-2.39 27.19 2.39 26.2c.1.7.6 1.29 1.29 1.29m201.32-60.86c-4.28 0-8.37.9-12.15 2.39-2.5-28.19-26.2-50.4-55.09-50.4-7.07 0-13.95 1.39-20.02 3.79-2.39.9-2.99 1.89-2.99 3.69v99.51c0 1.89 1.49 3.39 3.39 3.59h86.96c17.33 0 31.38-13.85 31.38-31.18-.11-17.34-14.15-31.39-31.48-31.39M25 129.49c-3.69-.9-4.68-1.29-4.68-2.79 0-1 .8-2.09 3.29-2.09 2.09 0 3.79.9 5.28 2.39l3.39-3.29c-2.19-2.29-4.88-3.69-8.47-3.69-4.58 0-8.27 2.59-8.27 6.77 0 4.58 2.99 5.98 7.27 6.87 4.38 1 5.18 1.69 5.18 3.19 0 1.79-1.29 2.49-4.08 2.49-2.19 0-4.28-.8-5.98-2.69l-3.39 2.99c1.79 2.59 5.18 4.18 8.96 4.18 6.38 0 9.06-2.99 9.06-7.37.21-4.86-3.87-6.16-7.56-6.96m21.42-9.36c-6.38 0-10.06 4.88-10.06 11.95s3.79 11.95 10.06 11.95 10.06-4.88 10.06-11.95-3.79-11.95-10.06-11.95m0 19.23c-3.79 0-5.28-3.19-5.28-7.37s1.59-7.37 5.28-7.37c3.79 0 5.28 3.19 5.28 7.37s-1.6 7.37-5.28 7.37m28.79-5.88c0 3.69-1.79 5.98-4.78 5.98s-4.78-2.39-4.78-6.08v-12.95h-4.68v13.05c0 6.77 3.79 10.56 9.36 10.56 5.88 0 9.36-3.88 9.36-10.56v-12.95h-4.68v12.95zm24.6-3.19c0 1.29.1 4.18.1 5.08-.3-.6-1.1-1.79-1.59-2.59l-8.27-12.25h-4.48v23.21h4.58v-10.26c0-1.29-.1-4.18-.1-5.08.3.6 1.1 1.79 1.59 2.59l8.47 12.65h4.18v-23.21h-4.58v9.86zm17.83-9.86h-7.27v23.21h6.87c5.98 0 11.85-3.49 11.85-11.55.01-8.57-4.88-11.66-11.45-11.66m-.4 18.73h-2.29v-14.14h2.49c4.88 0 6.97 2.39 6.97 7.07 0 4.18-2.29 7.07-7.17 7.07m26.2-14.45c2.09 0 3.39.9 4.28 2.49l4.28-1.99c-1.49-2.99-4.08-5.18-8.47-5.18-6.08 0-10.26 4.88-10.26 11.95 0 7.27 4.08 11.95 10.16 11.95 4.18 0 6.97-1.99 8.57-5.28l-3.88-2.29c-1.2 2.09-2.49 2.99-4.58 2.99-3.49 0-5.48-3.19-5.48-7.37 0-4.28 1.99-7.27 5.38-7.27m17.23-4.28h-4.68v23.21h13.95v-4.58h-9.26v-18.63zm21.52-.3c-6.38 0-10.06 4.88-10.06 11.95s3.79 11.95 10.06 11.95c6.38 0 10.06-4.88 10.06-11.95s-3.69-11.95-10.06-11.95m0 19.23c-3.79 0-5.28-3.19-5.28-7.37s1.59-7.37 5.28-7.37c3.79 0 5.28 3.19 5.28 7.37s-1.5 7.37-5.28 7.37m28.79-5.88c0 3.69-1.79 5.98-4.78 5.98s-4.78-2.39-4.78-6.08v-12.95h-4.68v13.05c0 6.77 3.79 10.56 9.36 10.56 5.88 0 9.36-3.88 9.36-10.56v-12.95h-4.68v12.95zm17.73-13.05h-7.27v23.21h6.87c5.98 0 11.85-3.49 11.85-11.55 0-8.57-4.88-11.66-11.45-11.66m-.4 18.73h-2.19v-14.14h2.49c4.88 0 6.87 2.39 6.87 7.07 0 4.18-2.29 7.07-7.17 7.07"/></svg>