<svg xmlns="http://www.w3.org/2000/svg" xml:space="preserve" viewBox="0 0 72 72"><path d="M36 7.2C20.1 7.2 7.2 20.1 7.2 36S20.1 64.8 36 64.8 64.8 51.9 64.8 36 51.9 7.2 36 7.2m13.2 41.5c-.5.8-1.6 1.1-2.5.6-6.8-4.1-15.3-5.1-25.3-2.8-1 .2-1.9-.4-2.1-1.4s.4-1.9 1.4-2.1c11-2.5 20.4-1.4 28 3.2.8.6 1 1.7.5 2.5m3.5-7.8c-.7 1.1-2 1.4-3.1.7-7.7-4.8-19.5-6.1-28.7-3.4-1.2.4-2.4-.3-2.8-1.5s.3-2.4 1.5-2.8c10.5-3.2 23.5-1.6 32.4 3.8 1 .8 1.4 2.1.7 3.2m.3-8.2c-9.3-5.5-24.6-6-33.5-3.3-1.4.4-2.9-.4-3.4-1.8-.4-1.4.4-2.9 1.8-3.4 10.2-3.1 27.1-2.5 37.8 3.9 1.3.8 1.7 2.4.9 3.7-.6 1.3-2.3 1.7-3.6.9"/></svg>