<svg xmlns="http://www.w3.org/2000/svg" xml:space="preserve" viewBox="0 0 256 256"><path d="M128 0C57.31 0 0 57.31 0 128s57.31 128 128 128 128-57.31 128-128S198.69 0 128 0m-26 195.2c-11.2 0-20.4-9.2-20.4-20.4s9.2-20.4 20.4-20.4 20.4 9.2 20.4 20.4-9.2 20.4-20.4 20.4m20.4-48c-24 0-43.2-19.2-43.2-43.2s19.2-43.2 43.2-43.2zM154 60.8c11.2 0 20.4 9.2 20.4 20.4s-9.2 20.4-20.4 20.4-20.4-9.2-20.4-20.4 9.2-20.4 20.4-20.4m-19.24 134.39-1.16.01v-86.4c24 0 43.2 19.2 43.2 43.2 0 23.61-18.59 42.58-42.04 43.19"/></svg>