<svg xmlns="http://www.w3.org/2000/svg" xml:space="preserve" viewBox="0 0 72 72"><path d="M36 19.2c7.2 0 14.9 1.5 21.1 5.4 4 2.6 7.7 6.4 7.7 11.5 0 5.9-5 10.2-9.9 12.7-5.7 3-12.5 4.1-18.9 4.1-7.2 0-14.9-1.5-21.1-5.4-4-2.6-7.7-6.4-7.7-11.5 0-5.9 5-10.2 9.9-12.7 5.7-3 12.5-4.1 18.9-4.1m-.1 1.8c-6.7 0-13.9 1.3-19.7 4.8C12.5 28 8.9 31.4 8.9 36c0 5.4 4.9 9.1 9.3 11.3C23.6 49.9 30 51 35.9 51c6.7 0 13.9-1.3 19.8-4.8C59.3 44 63 40.6 63 36c0-5.4-4.9-9.2-9.3-11.3C48.3 22 41.9 21 35.9 21M10.6 32.2l11-1.9 3.3-7.2 3.3 7.2 11 1.9-11 1.9-3.2 7.2-3.3-7.2zm24.3 5.5 4.9-.9 1.5-3.3 1.5 3.3 4.9.9-4.9.8-1.5 3.3-1.5-3.3zM45 29l4.9-.8 1.5-3.3 1.5 3.3 4.9.8-4.9.9-1.5 3.3-1.5-3.3zm-5.2 15.4 4.8-.8 1.5-3.3 1.5 3.3 4.9.8-4.9.9-1.5 3.3-1.5-3.3zm-15 1.2 4.9-.8 1.5-3.3 1.5 3.3 4.9.8-4.9.9-1.5 3.3-1.5-3.3zm24.5-8 4.8-.9 1.5-3.3 1.5 3.3 4.9.9-4.9.8-1.5 3.3-1.5-3.3z"/></svg>