<svg xmlns="http://www.w3.org/2000/svg" xml:space="preserve" viewBox="0 0 72 72"><path d="M36 7.2C20.1 7.2 7.2 20.1 7.2 36S20.1 64.8 36 64.8 64.8 51.9 64.8 36 51.9 7.2 36 7.2m15.5 16.6c-1.3 0-2.2-.7-2.3-2 0-.4.1-.8.4-1.3.3-.6.4-.6.4-.9 0-.8-1.2-.8-1.5-.8-4.3.1-5.5 6-6.4 10.7l-.5 2.5c2.5.4 4.3-.1 5.2-.7 1.4-.9-.4-1.8-.2-2.8s1.2-1.5 1.9-1.6c1.1 0 1.8 1.1 1.8 2.2 0 1.8-2.5 4.4-7.3 4.3-.6 0-1.1-.1-1.6-.1l-.9 5.1c-.8 3.8-1.9 9.1-5.8 13.7-3.4 4-6.8 4.6-8.3 4.7-2.9.1-4.8-1.4-4.8-3.5-.1-2 1.7-3 2.8-3.1 1.5 0 2.6 1.1 2.6 2.3 0 1.1-.5 1.4-.9 1.6-.2.2-.6.4-.6.8 0 .2.2.6.8.6 1.2 0 2-.6 2.6-1 2.8-2.3 3.9-6.4 5.3-13.7l.3-1.8c.5-2.4 1-5.1 1.8-7.7-2-1.5-3.1-3.3-5.8-4-1.8-.5-2.9-.1-3.7.9-.9 1.2-.6 2.7.3 3.6l1.5 1.6c1.8 2.1 2.8 3.7 2.4 5.9-.6 3.5-4.7 6.1-9.6 4.6-4.2-1.3-5-4.2-4.5-5.9.4-1.4 1.6-1.7 2.7-1.4 1.2.4 1.7 1.8 1.3 2.9 0 .1-.1.3-.2.6s-.4.6-.5.9c-.3.9.9 1.5 1.8 1.8 1.9.6 3.7-.4 4.2-1.9.4-1.4-.4-2.4-.8-2.7l-1.8-1.9c-.8-.9-2.6-3.4-1.7-6.2.3-1.1 1-2.2 2.1-3 2.2-1.6 4.5-1.9 6.7-1.2 2.9.8 4.3 2.7 6.1 4.2 1-3 2.4-5.9 4.5-8.3 1.9-2.2 4.4-3.8 7.4-3.9 2.9-.1 5.1 1.2 5.2 3.3-.1.8-.7 2.6-2.4 2.6"/></svg>