<svg xmlns="http://www.w3.org/2000/svg" xml:space="preserve" viewBox="0 0 360 180"><path d="m36 92.7 10-.9c.6 3.4 1.8 5.8 3.7 7.4q2.85 2.4 7.5 2.4 4.95 0 7.5-2.1c1.7-1.4 2.5-3.1 2.5-4.9 0-1.2-.4-2.3-1.1-3.1s-1.9-1.6-3.7-2.2c-1.2-.5-4-1.2-8.3-2.3-5.5-1.4-9.4-3.1-11.6-5.1-3.1-2.8-4.7-6.3-4.7-10.4 0-2.6.7-5.1 2.2-7.3 1.5-2.3 3.6-4 6.4-5.2s6.1-1.8 10.1-1.8c6.4 0 11.2 1.4 14.5 4.2q4.8 4.35 5.1 11.4l-10.4.3c-.5-2.6-1.4-4.5-2.8-5.7s-3.6-1.7-6.5-1.7c-3 0-5.4.6-7 1.9-1.1.8-1.7 1.8-1.7 3.2 0 1.2.5 2.3 1.5 3.1 1.3 1.1 4.5 2.3 9.5 3.4 5 1.2 8.7 2.4 11.1 3.7s4.3 3 5.7 5.3c1.3 2.2 2.1 5 2.1 8.2 0 2.9-.8 5.7-2.5 8.3-1.6 2.6-3.9 4.5-6.9 5.8-3 1.2-6.7 1.9-11.2 1.9-6.5 0-11.5-1.5-14.9-4.5-3.4-3.1-5.4-7.5-6.1-13.3"/><path d="M76.4 72.2h10.4l8.9 26.5 8.7-26.5h10.1l-13 35.8-2.4 6.5c-.9 2.2-1.7 3.8-2.5 5s-1.7 2.1-2.7 2.8-2.3 1.3-3.7 1.7c-1.5.4-3.2.6-5 .6-1.9 0-3.7-.2-5.6-.6l-.8-7.7c1.5.3 2.9.5 4.1.5 2.3 0 4-.7 5-2 1.1-1.4 1.9-3.1 2.5-5.2zm72.2 37.3h-9.8v-19q0-6-.6-7.8t-2.1-2.7c-.9-.6-2.1-1-3.4-1-1.7 0-3.2.5-4.6 1.4s-2.3 2.2-2.8 3.7c-.5 1.6-.8 4.4-.8 8.6v16.8h-9.8V72.2h9.1v5.5c3.3-4.1 7.3-6.2 12.3-6.2q3.3 0 6 1.2c1.8.8 3.2 1.8 4.1 3s1.6 2.6 1.9 4.1q.6 2.25.6 6.6zm.1-19c0-3.3.8-6.4 2.4-9.5s3.9-5.4 6.9-7q4.5-2.4 9.9-2.4c5.6 0 10.3 1.8 13.9 5.5s5.4 8.3 5.4 13.9-1.8 10.3-5.5 14c-3.6 3.7-8.2 5.6-13.7 5.6-3.4 0-6.7-.8-9.8-2.3s-5.4-3.8-7.1-6.8c-1.6-3.1-2.4-6.8-2.4-11m10 .5c0 3.7.9 6.6 2.6 8.5 1.8 2 3.9 3 6.5 3s4.7-1 6.5-3c1.7-1.9 2.6-4.8 2.6-8.5s-.9-6.5-2.6-8.4c-1.8-1.9-3.9-3-6.5-3s-4.7 1-6.5 3c-1.7 1.8-2.6 4.7-2.6 8.4"/><path d="M199.1 53.1v48.1c0 2.3.2 3.8.5 4.5.3.8.8 1.3 1.5 1.7s2 .6 3.8.6v1.4h-17.8V108c1.7 0 2.8-.2 3.4-.5.6-.4 1.1-.9 1.4-1.7s.5-2.3.5-4.6V68.4c0-4.1-.1-6.7-.3-7.6s-.5-1.6-.9-1.9q-.6-.6-1.5-.6c-.7 0-1.5.2-2.5.6l-.7-1.4 10.7-4.4zm23.5 19c5.5 0 9.9 2.1 13.3 6.3q4.2 5.4 4.2 12.3c0 3.3-.8 6.5-2.3 9.9-1.6 3.3-3.7 5.8-6.5 7.5-2.7 1.7-5.8 2.5-9.1 2.5-5.5 0-9.9-2.2-13.1-6.5-2.7-3.7-4.1-7.8-4.1-12.4 0-3.3.8-6.6 2.5-9.9s3.8-5.7 6.5-7.3c2.8-1.6 5.6-2.4 8.6-2.4m-1.2 2.7q-2.1 0-4.2 1.2c-1.4.8-2.6 2.3-3.4 4.3-.9 2.1-1.3 4.8-1.3 8 0 5.3 1.1 9.8 3.2 13.6s4.9 5.7 8.3 5.7c2.6 0 4.7-1.1 6.3-3.2 1.7-2.1 2.5-5.7 2.5-10.9 0-6.4-1.4-11.5-4.2-15.2-1.9-2.3-4.3-3.5-7.2-3.5m26.7 21.4q-3.3-1.65-5.1-4.5c-1.2-2-1.8-4.1-1.8-6.4 0-3.6 1.3-6.7 4-9.2 2.7-2.6 6.2-3.9 10.4-3.9 3.4 0 6.4.8 9 2.5h7.7c1.1 0 1.8 0 2 .1s.3.2.4.3c.2.2.2.7.2 1.3 0 .7-.1 1.2-.2 1.4-.1.1-.2.3-.4.3-.2.1-.9.1-2 .1h-4.7c1.5 1.9 2.2 4.4 2.2 7.3q0 5.1-3.9 8.7c-2.6 2.4-6 3.6-10.4 3.6-1.8 0-3.6-.3-5.5-.9-1.1 1-1.9 1.9-2.2 2.7-.4.8-.6 1.4-.6 1.9s.2.9.7 1.3c.4.4 1.3.7 2.6.9.7.1 2.6.2 5.5.3 5.4.2 8.9.4 10.5.7 2.5.3 4.4 1.3 5.9 2.7 1.5 1.5 2.2 3.3 2.2 5.4 0 2.9-1.4 5.7-4.2 8.3-4.1 3.8-9.4 5.7-16 5.7-5.1 0-9.4-1.1-12.9-3.4-2-1.3-3-2.7-3-4.1 0-.6.1-1.3.4-1.9.4-1 1.3-2.3 2.7-4 .2-.2 1.5-1.7 4-4.3-1.4-.9-2.3-1.6-2.9-2.2s-.9-1.4-.9-2.2c0-.9.4-2 1.1-3.3.8-1.2 2.6-3 5.2-5.2m-.3 13.3c-1.2 1.3-2.1 2.6-2.7 3.7s-.9 2.2-.9 3.1c0 1.3.7 2.4 2.3 3.3 2.6 1.6 6.5 2.5 11.4 2.5 4.7 0 8.2-.8 10.5-2.5s3.4-3.4 3.4-5.3c0-1.3-.7-2.3-2-2.9-1.4-.6-4.1-.9-8.2-1-6-.1-10.6-.5-13.8-.9m7.2-35.4c-2 0-3.6.8-4.9 2.4-1.3 1.5-2 3.9-2 7.1q0 6.15 2.7 9.6c1.4 1.7 3.1 2.6 5.2 2.6 2 0 3.6-.8 4.9-2.3s1.9-3.8 1.9-7c0-4.2-.9-7.4-2.7-9.8-1.3-1.7-3-2.6-5.1-2.6m21.1-.9h17v1.5h-.8c-1.2 0-2.1.3-2.7.8s-.9 1.2-.9 1.9c0 1.1.4 2.5 1.3 4.3l8.9 18.4L307 80c.4-1.1.7-2.2.7-3.3 0-.5-.1-.8-.3-1-.2-.3-.5-.5-1-.7q-.6-.3-2.4-.3v-1.5h11.7v1.5c-1 .1-1.7.3-2.3.6-.5.3-1.1.9-1.7 1.8-.2.4-.7 1.4-1.4 3l-14.7 36.2c-1.4 3.5-3.3 6.2-5.6 8s-4.6 2.7-6.7 2.7c-1.6 0-2.8-.4-3.9-1.3-1-.9-1.5-1.9-1.5-3.1 0-1.1.4-2 1.1-2.6.7-.7 1.8-1 3-1 .9 0 2.1.3 3.6.8 1.1.4 1.7.6 2 .6.8 0 1.7-.4 2.6-1.2s1.9-2.4 2.8-4.7l2.6-6.3-13.1-27.3c-.4-.8-1-1.8-1.9-3.1-.7-.9-1.2-1.5-1.6-1.9-.6-.4-1.6-.8-2.9-1.1zm42.4-11.9c-3.1 0-5.5 2.5-5.5 5.5 0 3.1 2.5 5.6 5.5 5.6s5.5-2.5 5.5-5.6c0-3-2.5-5.5-5.5-5.5m3.4 9.2-1.1-1.8c-.2-.4-.5-.7-.8-.9-.1-.1-.3-.2-.6-.4.7-.1 1.2-.3 1.5-.7.3-.3.5-.8.5-1.3 0-.4-.1-.7-.3-1.1-.2-.3-.4-.5-.8-.7-.3-.2-.8-.2-1.5-.2h-3.2v7.3h1v-3.2h1.6c.2 0 .3.1.4.2.2.1.3.3.5.5s.4.6.7 1l1 1.5h.8c-.9.7-2 1.1-3.1 1.1-2.8 0-5-2.3-5-5 0-2.8 2.2-5 5-5s5 2.2 5 5c0 1.5-.6 2.8-1.6 3.7m-3.2-3.8h-2.1v-2.4h2.3q.75 0 1.2.3c.3.2.4.5.4.8 0 .2-.1.5-.2.7s-.3.4-.6.4c-.3.2-.6.2-1 .2"/></svg>