<svg xmlns="http://www.w3.org/2000/svg" xml:space="preserve" viewBox="0 0 72 72"><path d="M23.6 12.7c3.3-1.5 6.8-2.5 10.4-2.7 5.8-.4 11.8 1 16.8 4 5.2 3.1 9.4 7.9 11.7 13.4.5 1.2 1 2.5 1.4 3.8-.7-.4-1.3-.8-2-1-2.3-.8-4.8-.8-7.1-1.7-1-.4-1.9-.9-2.6-1.6-2.4-2.1-4.4-4.7-6.8-6.8-1.6-1.4-3.3-2.8-5.2-3.8-2.9-1.5-6.3-2.2-9.6-1.8-1 .1-2.1.5-3.1.1-.7-.4-1-1.3-1.8-1.7-.7-.4-1.4-.2-2.1-.2m-14 14.5c2-4.7 5.4-8.9 9.6-11.9-.4.6-.9 1.1-.9 1.9-.1.9.8 1.9.2 2.8-.7 1.1-1.6 1.9-2.3 2.9-1.8 2.5-2.8 5.6-3 8.6s.3 6 1 9c.6 2.2 1.1 4.4 1.4 6.7 1.3-1.1 2.6-2.2 4-3.2 2-1.5 4.1-2.8 6.2-4.1 2.2-1.3 4.5-2.6 6.8-3.6.6-.3 1.2-.4 1.8-.5-.7.9-1.8 1.4-2.7 2-3.6 2.1-7 4.4-10.2 7.1-2.6 2.3-5.1 4.8-7 7.8-1.2 1.9-2.3 4.1-1.8 6.4.3 1.6 1.8 2.4 3.2 2.9-2.8 0-5.6.1-8.4-.1-.2-.3-.4-.7-.4-1.1V39.2c0-4 .8-8.2 2.5-12m45.7 9.5c1-.1 2.2-.2 3.1.4.6.3.6 1.1.6 1.7 0 1.1-.4 2-.9 3-1.1 1.9-2.7 3.4-4.3 4.9-2.9 2.5-6.1 4.6-9.3 6.6-4.4 2.6-9.2 4.5-14.2 5.7-2.5.5-5 .9-7.5.7-.7-.1-1.6-.2-2-.8-.4-1 .3-1.9.8-2.7 1.7-2.4 3.9-4.3 6.1-6.1 5.6-4.4 12-7.8 18.6-10.6 2.8-1.4 5.9-2.4 9-2.8M26.2 53.2a7.2 7.2 0 0 0 7.4 1.7c1.9-.7 3.5-2.1 4.2-4 .8-1.9.7-4.1-.1-5.9-4.1 2.3-8.1 4.9-11.5 8.2"/><path d="M55.2 48.5c3.9-3.2 7.6-7 9.5-11.8.1 1.2.1 2.5.1 3.7V61c0 .6-.5 1-1.1.9H27.4c5.9-1.2 11.6-3.5 16.8-6.4 3.9-1.9 7.6-4.2 11-7"/></svg>