<svg xmlns="http://www.w3.org/2000/svg" xml:space="preserve" viewBox="0 0 500 168"><path d="M249.35.29C86.4.29 0 115.91 0 115.91l35.41 23.93s4.28-10.73 14.1-26.07c.04 3.85.57 6.53.57 6.53 6.26 48.58 53.46 47.41 53.46 47.41h292.62s47.83 1.32 54.07-47.24c0 0 .51-2.5.54-6.32 9.61 14.96 13.84 25.36 13.84 25.36L500 115.84S412.3.29 249.35.29m193.64 119.45s-6.38 37.15-47.45 37.15H103.4c-41.06 0-46.85-37.49-46.85-37.49-1.58-9.95.34-16.76 3.42-21.48C89.54 58.99 148.06 6.71 249.22 6.71c102.02 0 161.03 53.04 190.59 91.97 3.42 4.34 4.71 11.43 3.18 21.06"/><path d="m164.03 79.24 4.87-10.45h-62.49l-4.9 10.45h24.21l-25.07 50.97h16.19l25.05-50.97zm241.25 41.77s-3.15 1.47-4.51.05c-1.35-1.4-.15-4.01-.15-4.01l13.2-27.76h-13.46L398.31 93c-7.86-6.92-22.65-3.34-31.81 6.23-5.29 5.52-8.29 12.07-8.69 17.76-1.5.99-4 2.5-7.23 3.77 0 0-3.16 1.48-4.53.05-1.35-1.4-.13-4.02-.13-4.02l23.44-48.24h-13.45L343.6 92.74c-7.86-6.91-22.64-3.34-31.82 6.23a36.7 36.7 0 0 0-4.71 6.13l.01-.05c-.09.17-.18.36-.27.52-.3.5-.58.98-.83 1.47-7.32 12.67-16.41 14.78-16.41 14.78-19.23 5.75-21.42-3.67-21.42-3.67 21.54-7.96 29.63-17.39 28.88-24.61-.73-7.22-10.64-7.6-10.64-7.6-16.29-.98-30.39 10.41-33.81 21.56-1.03 3.4-1.35 6.89-.72 10.06-6.52 3.48-10.28 4.03-10.28 4.03-5.42 1.71-6.09-.86-6.73-2.43-.66-1.61-3.11-15.48-3.11-15.48l22.87-14.96h-13.99L223.44 99.4c-3.87 1.61-2.37-2.46-2.37-2.46l14.03-28.4h-13.47l-22.76 46.11c-2.62 1.57-7.86 4.61-11.68 6.12 0 0-3.15 1.48-4.51.05-1.38-1.4-.15-4.02-.15-4.02l13.22-27.75h-13.47l-2.06 3.71c-7.86-6.91-22.65-3.34-31.81 6.23-9.18 9.58-11.52 22.22-5.24 28.22 5.02 4.8 14.04 3.91 22.14-1.55 0 0 2.04-1.76 3.15.3 1.14 2.14 5.78 6.98 16.47 2.76 3.43-1.34 6.5-2.89 9.14-4.34l-2.79 5.64h13.45l6.75-13.63 5.86-3.73s1.8-1.41 2.5 1.61c0 0 2.91 11.48 4.04 12.96 1.14 1.5 3.38 4.89 12.85 2.17 7.25-2.09 14-4.66 17.58-6.19 3.17 4.37 9.24 7.33 19.24 7.33 14.75 0 25.18-7.04 29.58-10.71.32 2.92 1.44 5.48 3.43 7.38 5.01 4.8 14.03 3.91 22.12-1.55 0 0 2.05-1.76 3.17.3 1.15 2.14 5.77 6.98 16.47 2.76 4.91-1.94 8.19-3.79 10.34-5.23.58 1.52 1.43 2.85 2.59 3.97 5.04 4.78 14.04 3.9 22.14-1.57 0 0 2.06-1.76 3.18.31 1.13 2.14 5.78 6.98 16.45 2.76 10.7-4.21 13.76-8.03 13.76-8.03l-2.7-4.76c-.38.21-3.67 2.82-8.8 4.84m-233.65-7.96c-4.67 6.56-11.24 9.86-14.71 7.39-3.48-2.47-2.54-9.77 2.1-16.33 4.66-6.54 11.25-9.85 14.72-7.39 3.49 2.47 2.52 9.79-2.11 16.33m95.41-4.76s3.03-10.16 12.82-14.22c0 0 2.79-.94 4.28.28 0 0 2.09 2.02-.4 5.75-2.23 3.33-7.6 9.36-13.42 11.39.01-.01-5.27 2.3-3.28-3.2m67.97 4.76c-4.67 6.56-11.25 9.86-14.73 7.39-3.46-2.47-2.53-9.77 2.13-16.33 4.67-6.54 11.26-9.85 14.72-7.39 3.46 2.47 2.53 9.79-2.12 16.33m54.7.25c-4.65 6.54-11.23 9.86-14.71 7.39-3.48-2.48-2.52-9.78 2.13-16.32s11.24-9.87 14.71-7.39c3.49 2.48 2.52 9.78-2.13 16.32"/></svg>