<svg xmlns="http://www.w3.org/2000/svg" xml:space="preserve" viewBox="0 0 360 180"><path d="M311.6 111.2H324l-12.8-42.4h-17.7l-12.8 42.4h12.4l2.3-7.8h13.9zm-13.5-17.3 4.2-14.6h.1l4.2 14.6zm-200 18c12.8 0 18.9-2.3 19.8-13.8.2-2.7.2-5.6.2-8.2s0-5.4-.2-8.2c-.9-11.5-7-13.8-19.8-13.8s-18.9 2.2-19.8 13.8c-.2 2.9-.3 5.7-.3 8.3s0 5.4.3 8.2c.9 11.5 7 13.7 19.8 13.7m-8-21.9c0-2.3.1-3.7.1-4.7.3-6.5 2.9-7.3 7.9-7.3s7.6.8 7.9 7.3c.1 1 .1 2.4.1 4.7s-.1 3.7-.1 4.7c-.3 6.5-2.9 7.3-7.9 7.3s-7.6-.8-7.9-7.3c-.1-1-.1-2.4-.1-4.7M36 68.8v10.6h12.7v31.8h12.7V79.4H74V68.8zm194.3 42.4V68.8h-12v42.4zM182 84.3V68.8h-12v42.4h12V94.8h13.9v16.3h11.9V68.8h-11.9v15.5zm87.9 4.7c5.3-1.4 6.9-4.5 6.9-9.1 0-9.3-5.9-11.1-14.2-11.1H241v42.4h22.7c10.4 0 13.9-4.5 13.9-11.4 0-4.8-1.1-9.1-7.7-10.8M253 93.8h8.3c3.3 0 4 1.5 4 3.9s-1.3 3.9-4 3.9H253zm0-15.3h8.3c2.2 0 3.5 1 3.5 3.5 0 2.1-1.3 3.4-3.5 3.4H253zM125.1 97.3h11.4c0 2.1.3 3.4 1.3 4.2 1.1.9 2.1 1.1 5.5 1.1 3.2 0 6.8 0 6.8-4 0-3.1-2-3.9-5.6-4.1-9.1-.5-12.4-.7-15.7-3.2-2.3-1.7-3.5-5-3.5-9.6 0-7.7 2.7-10.4 6.5-12.2 4-1.9 19.6-1.9 23.8 0 5.3 2.4 5.4 7.7 5.4 12.6h-11.4c0-2.5-.6-3.2-1-3.7-1.2-1-2.9-1.3-5.3-1.3-2.9 0-6.3.1-6.3 3.7 0 2.7 1.2 3.9 4.3 4.1 4.2.3 12.6.5 15.6 2.3 4.2 2.5 5.3 5.8 5.3 11.3 0 7.9-2.8 10.2-6.8 11.9-4.5 2-19.7 2-24.6-.2-5.6-2.3-5.7-7.1-5.7-12.9"/></svg>