<svg xmlns="http://www.w3.org/2000/svg" xml:space="preserve" viewBox="0 0 72 72"><path d="M60.3 7.2H11.7c-2.5 0-4.5 2-4.5 4.5v48.6c0 2.5 2 4.5 4.5 4.5h48.6c2.5 0 4.5-2 4.5-4.5V11.7c0-2.5-2-4.5-4.5-4.5M38.7 36.8h-8v22.8h-6.3V36.8h-8v-5.1h22.3zm20.5 18.9c-.6 1.1-1.4 1.9-2.4 2.6s-2.2 1.1-3.5 1.4-2.8.4-4.2.4c-1.5 0-3-.1-4.4-.4s-2.6-.6-3.6-1.2v-6.2c1.1.9 2.4 1.7 3.7 2.1 1.3.5 2.7.7 4 .7.8 0 1.5-.1 2.1-.2q.9-.15 1.5-.6t.9-.9c.2-.3.3-.7.3-1.1 0-.5-.2-1-.5-1.5-.3-.4-.7-.8-1.3-1.2-.5-.4-1.2-.7-1.9-1s-1.5-.7-2.4-1c-2.2-.9-3.8-2-4.9-3.3S41 41.4 41 39.5c0-1.4.3-2.7.9-3.7s1.4-1.9 2.4-2.6 2.2-1.2 3.5-1.5 2.7-.5 4.2-.5 2.7.1 3.9.3c1.1.2 2.2.4 3.1.8v5.8l-1.5-.9c-.6-.2-1.1-.5-1.7-.6-.6-.2-1.2-.3-1.7-.4-.6-.1-1.1-.1-1.6-.1-.7 0-1.4.1-1.9.2q-.9.15-1.5.6-.6.3-.9.9-.3.45-.3 1.2c0 .5.1.9.4 1.3s.6.7 1.1 1 1 .7 1.7 1c.6.3 1.4.6 2.2 1q1.65.75 3 1.5c.9.5 1.6 1.1 2.3 1.8.6.7 1.1 1.4 1.5 2.3.3.8.5 1.8.5 3-.5 1.4-.8 2.7-1.4 3.8"/></svg>