<svg xmlns="http://www.w3.org/2000/svg" xml:space="preserve" viewBox="0 0 360 180"><path d="M184.9 73.2c-.2 13 11.5 20.2 20.4 24.5 9.1 4.4 12.1 7.2 12.1 11.2-.1 6-7.2 8.7-13.9 8.8-11.7.2-18.5-3.2-23.9-5.7l-4.2 19.7c5.4 2.5 15.5 4.7 25.9 4.8 24.4 0 40.4-12.1 40.5-30.8.1-23.7-32.8-25.1-32.6-35.7.1-3.2 3.1-6.6 9.9-7.5 3.3-.4 12.5-.8 22.9 4l4.1-19.1c-5.6-2-12.8-4-21.8-4-23 .1-39.2 12.3-39.4 29.8m100.4-28.1c-4.5 0-8.2 2.6-9.9 6.6l-34.9 83.4H265l4.9-13.4h29.8l2.8 13.4H324l-18.8-90zm3.5 24.3 7.1 33.8h-19.3zM155.3 45.1l-19.3 90h23.3l19.2-90zm-34.4 0-24.2 61.2-9.8-52.1c-1.1-5.8-5.7-9.2-10.7-9.2H36.6l-.6 2.8c8.1 1.8 17.4 4.6 23 7.7 3.4 1.9 4.4 3.5 5.5 7.9L83 135.1h24.6l37.7-90z"/></svg>