<svg xmlns="http://www.w3.org/2000/svg" xml:space="preserve" viewBox="0 0 72 72"><path d="m63 13.6-14.2 2.6-1.3 4.4 4.7-.9h.4c.7 0 1.4.4 1.8 1s.4 1.4.1 2L38.3 55.1v.2l-.3.5c-.4.6-1 1-1.7 1-.6 0-1.2-.3-1.6-.8s-.5-1.1-.4-1.7l2.4-11.7-2.4.7c-.2.1-.4.1-.6.1-.6 0-1.2-.3-1.6-.8s-.6-1.1-.4-1.7l1.5-7.2-4.6 1.1c-.2 0-.3.1-.5.1-.6 0-1.1-.2-1.5-.7-.4-.4-.6-1-.6-1.6l.9-15.8L9 13.6c-1.2-.2-2.2 1.1-1.5 2.2L35 64.1c.6 1 2 1 2.6 0l27-48.3c.6-1.2-.4-2.5-1.6-2.2"/><path d="M27.1 32.6v.6l.1.1s.1 0 .1.1h.6l5.6-1.3h.4s.1 0 .1.1l.1.1.1.1v.4L32.8 41v.3s0 .1.1.1c0 0 0 .1.1.1l.1.1.1.1h.4l3.4-1h.4s.1 0 .1.1l.1.1.1.1s0 .1.1.1v.3l-2.6 12.7v.4l.1.1s.1 0 .1.1c0 0 .1 0 .1.1h.3s.1 0 .1-.1c0 0 .1 0 .1-.1l.1-.1.3-.5 17-32v-.6h-.5l-6 .6h-.3s-.1 0-.1-.1l-.1-.1-.1-.1-.1-.1v-.5l1.4-4.7L50 8.1c.2-.5-.3-1-.8-.9l-20 3.9c-.3.1-.6.3-.6.7L28 17v.5z"/></svg>