<svg xmlns="http://www.w3.org/2000/svg" xml:space="preserve" viewBox="0 0 72 72"><path d="M35.793 62.029c-14.264 0-26.49-12.226-26.49-26.49 0-3.057 1.019-6.113 2.037-9.17l15.283 30.565s0 1.02 1.019 1.02c0 0 1.019 0 1.019-1.02l7.132-15.282 7.131 15.282s0 1.02 1.02 1.02c0 0 1.018 0 1.018-1.02L60.245 26.37c1.019 3.057 2.037 6.113 2.037 9.17 0 15.282-12.226 26.49-26.49 26.49m0-31.584s0-1.02 0 0l-8.151-18.34c3.056-1.018 5.094-1.018 8.15-1.018s6.114 1.018 8.151 1.018zm-8.151 18.339-13.245-26.49q3.057-6.113 9.17-9.17l9.17 21.396h7.131l9.17-21.396q6.112 3.057 9.17 9.17l-13.246 26.49-5.094-11.208h-7.132zm8.15 16.301c16.302 0 28.528-13.245 28.528-28.527 0-16.302-13.245-28.528-28.527-28.528-16.302 0-28.528 13.245-28.528 28.528S20.51 65.085 35.793 65.085"/></svg>