<svg xmlns="http://www.w3.org/2000/svg" xml:space="preserve" viewBox="0 0 72 72"><path d="M34.1 26.6c1.3 0 2.5-.7 2.6-1.6L38 9.9c0-1.5-1.7-2.7-3.9-2.7s-3.9 1.2-3.9 2.7L31.5 25c.1.9 1.3 1.6 2.6 1.6m-8.2 4.7c.7-1.2.6-2.5-.1-3.1l-12.4-8.7c-1.3-.7-3.2.2-4.3 2.1s-.9 4 .4 4.8l13.7 6.4c.9.3 2.1-.4 2.7-1.5m16.3 0c.7 1.2 1.8 1.8 2.7 1.5l13.7-6.4c1.3-.7 1.5-2.9.4-4.8s-3-2.8-4.3-2.1l-12.4 8.7c-.7.6-.7 1.9-.1 3.1m-8.1 14.1c1.3 0 2.5.7 2.6 1.6L38 62.1c0 1.5-1.7 2.7-3.9 2.7s-3.9-1.2-3.9-2.7L31.5 47c.1-.9 1.3-1.6 2.6-1.6m8.1-4.7c.7-1.2 1.8-1.8 2.7-1.5l13.7 6.4c1.3.7 1.5 2.9.4 4.8s-3 2.8-4.3 2.1l-12.4-8.7c-.7-.6-.7-1.9-.1-3.1m-16.3 0c.7 1.2.6 2.5-.1 3.1l-12.4 8.7c-1.3.7-3.2-.2-4.3-2.1s-.9-4 .4-4.8l13.7-6.4c.9-.3 2.1.3 2.7 1.5m36.2 10.8h.1c.1 0 .2-.1.2-.1 0-.1-.1-.1-.2-.1h-.1zm0 .7h-.4V51h.5c.3 0 .4 0 .5.1s.1.1.1.3q0 .15-.3.3c.1 0 .2.1.2.3s.1.2.1.3h-.4s-.1-.1-.1-.3c0-.1-.1-.2-.2-.2H62zm.1-1.6c-.5 0-.9.4-.9 1 0 .5.4 1 .9 1s.9-.4.9-1c.1-.6-.3-1-.9-1m.1-.3c.7 0 1.3.6 1.3 1.3s-.6 1.3-1.3 1.3-1.3-.6-1.3-1.3c-.1-.7.5-1.3 1.3-1.3"/></svg>