<svg xmlns="http://www.w3.org/2000/svg" xml:space="preserve" viewBox="0 0 72 72"><path d="M11 36c0 9.9 5.8 18.4 14.1 22.5L13.2 25.8C11.7 29 11 32.5 11 36m25 25c2.9 0 5.7-.5 8.3-1.4l-.2-.3-7.7-21L29 60c2.2.6 4.5 1 7 1m3.4-36.7 9 26.9 2.5-8.3c1.1-3.5 1.9-5.9 1.9-8.1 0-3.1-1.1-5.2-2-6.9-1.3-2.1-2.5-3.8-2.5-5.9 0-2.3 1.7-4.4 4.2-4.4h.3C48.3 13.3 42.3 11 36 11c-8.4 0-16.3 4.2-20.9 11.3h1.6c2.6 0 6.6-.3 6.6-.3 1.4-.1 1.5 1.9.2 2.1 0 0-1.4.2-2.9.2l9.1 27.1L35.3 35l-3.9-10.7c-.9 0-1.7-.1-2.6-.2-1.4-.1-1.2-2.1.2-2.1 0 0 4.1.3 6.6.3 2.6 0 6.6-.3 6.6-.3 1.4-.1 1.5 1.9.2 2.1-.1-.1-1.4.1-3 .2m9.2 33.3C56.3 53.1 61 44.9 61 36c0-4.3-1.1-8.4-3.1-12 .4 3.9-.2 7.9-1.7 11.5zM36 64.8C20.1 64.8 7.2 51.9 7.2 36S20.1 7.2 36 7.2 64.8 20.1 64.8 36 51.9 64.8 36 64.8"/></svg>