<svg xmlns="http://www.w3.org/2000/svg" xml:space="preserve" viewBox="0 0 1686 2500"><path d="M774.1.7c-36 .8-73.9 12.7-101.2 36.3-48.6 41.9-97 85.3-95.4 142.3S611 268 611 268s21.8 16.7 0 33.4-279.6 180.9-266.2 519.1c0 0 6.7 88-3.3 181.8-7.2 67.4 16.5 149 30.4 189.9.3.4 6.9 17.2-7.9 7.4-69.9-43.7-127-109.3-174.8-190.9-43.9-79.7-68.9-171.7-68.9-269.6 0-208 112.9-389.2 279.3-482.5C171.4 319.6 3.1 533.4 3.1 787.3c0 19.4.9 38.6 2.9 57.5 1.9 43.8 6.7 113.6 19 141.6 18.4 41.9 16.7 132.2 16.7 147.3s5 510.6 298.1 509c0 0 139.7 3.5 140.6-53.5.8-50.2-13.5-55.5-26.7-84.6-12.6-27.6-21.7-29.3-15-118 0 0 .3-18 7-18.4s88.4 242.8 193.9 370c105.5 127.3 211 140.6 291.4 140.6 0 0 150.6 0 150.6-75.3 0-75.4-68.6-45.3-68.6-284.7s115.5-227.6 128.9-169 25.1 105.5 1.7 262.8c-23.4 157.4 40.2 175.8 98.8 175.8s366.7 10 420.3-870.8c0 0 6.7-142.3-40.2-264.5 0 0 20.1 234.4-125.6 360s-229.4 107.2-229.4 107.2-70.3-5.1-98.7 30.1c-28.5 35.2-23.5 60.3-83.8 41.9s-60.5-33.4-115.8-26.7c-55.2 6.7-88.5 13.3-110.3-31.9s-46.1-74.3-91.3-82.7-243.9-102.9-238.5-369.3c5-247.8 117.2-333.3 117.2-333.3s18.5-20.1 36.9-11.7 48.5 10.1 83.7-21.7 58.6-57 122.2-78.8c0 0 43.6-6.7 41.9-50.3S894 47 848.7 18.6C829 6.1 802.1 0 774.1.7m152 1198.4c10.1-.4 24.7 6.3 40.1 12.2 22.4 8.5 73.7 4.5 93.7 3.1s33.5 7.1 17.4 26.1c-22.1 26.2-48.6 25.3-82 27.6s-69.2-30.4-69.2-30.4c-1.9-3.2-18.2-20.6-10.6-32.8 2.3-3.9 6-5.7 10.6-5.8M755 664.8c38.7-47.5 60.3-53.6 93.8-53.6s80 21.5 93.8 73.7c15.1 56.9 22.7 65.7-31.6 129.2-38.9 45.6-109.1 145.4-179.4 81.8-70.4-63.6-44.3-148.1 23.4-231.1m628.9 88.7c-22.7-56.9-41.4-69.2-73.4-79.2-31.9-10-82.7-3.5-111.5 42.2-31.5 49.8-42.3 54.5-9.6 131.4 23.5 55.2 61.4 172.8 147.6 133.2 86.2-39.8 86.6-128.1 46.9-227.6M1013 1127.2c17.9-28.1 59.7-37.6 83.9-38.3 31.7-1 31.2-28.3 31.2-28.3s2.2-27.9-112.2-39c-114.3-11.1-117.4 18.4-117.4 18.4s-5.4 26.8 25.6 33.5c23.6 5.1 62.7 22.4 75.4 53 2.5 7.3 9.6 7.4 13.5.7m539.6-686.9c-19.2 6.3-49.4 4.6-80.8-30.9s-51.9-63.1-112.8-91.8c0 0-42.5-11.5-36-54.6s52-134 100.1-157.3 129.1-9.2 172.7 37.8 87.1 95.6 79.1 152-43.1 84.5-43.1 84.5l.6.1c-16.7 21.8-79.8 60.2-79.8 60.2M57.1 2045.8h85.2s22.1-4 30.8 18.4c10.2 26.4 52.4 195.7 52.4 195.7l60.4-89.4s-24.6-125.2 18.6-124.7c52.1.7 81.1 0 81.1 0s20.8-2 33.7 32.6c15.3 40.8 52.5 184.2 52.5 184.2l86-196.1s11.8-20.8 30.8-20.8c20.1 0 32.9 14.1 28.4 30.3-6.8 24.6-149.2 399-149.2 399s-9.5 22.5-29.6 22.5-28.4-11.8-39.1-39.1c-10.7-27.2-78.1-209.6-78.1-209.6l-101.8 230.9s-7.7 17.7-23.7 17.7c-18.9 0-26-8.3-35.5-26-9.5-17.8-129.1-359.9-129.1-359.9s-23.5-65.7 26.2-65.7m629.6 0H772s22.1-4 30.8 18.4c10.2 26.4 52.4 195.7 52.4 195.7l60.4-89.4s-24.6-125.2 18.6-124.7c52.1.7 81.1 0 81.1 0s20.8-2 33.7 32.6c15.3 40.8 52.5 184.2 52.5 184.2l86-196.1s11.8-20.8 30.8-20.8c20.1 0 32.9 14.1 28.4 30.3-6.8 24.6-149.2 399-149.2 399s-9.5 22.5-29.6 22.5-28.4-11.8-39.1-39.1c-10.7-27.2-78.1-209.6-78.1-209.6l-101.8 230.9s-7.7 17.7-23.7 17.7c-18.9 0-26-8.3-35.5-26-9.5-17.8-129.1-359.9-129.1-359.9s-23.6-65.7 26.1-65.7m630.1 451.7s-29.3 2.5-29.3-43.6v-380.1s0-28.5 41.9-28.5h286.3s34.7-1.7 34.7 31.8-32.2 30.1-32.2 30.1h-170.8s-20.1 0-20.1 19.2v93.8h131.4s35.5 0 35.5 27.6-29.7 29.3-29.7 29.3h-138.1v182.8s2 37.5-22.2 37.5c-16.7.1-87.4-.8-87.4.1"/></svg>