<svg xmlns="http://www.w3.org/2000/svg" xml:space="preserve" viewBox="0 0 180 180"><path d="M104.09 15.88H75.98c-20.89 0-37.84 16.95-37.84 37.84v31.77c0 20.89 16.95 37.84 37.84 37.84h28.12c20.89 0 37.84-16.95 37.84-37.84V53.73c0-20.9-16.95-37.85-37.85-37.85M81.34 95.91c-3.96 0-7.17-8.08-7.17-18.04s3.21-18.04 7.17-18.04 7.17 8.08 7.17 18.04-3.22 18.04-7.17 18.04m23.95-34.51v29.23H95.14c-.05-8.5.05-17.03-.05-25.53.05-3.94-3.25-7.65-7.14-7.46-6.8-.11-13.56 0-20.36-.03v33.02H57.44V48.6c11.83.03 23.69-.05 35.58.05 6.49-.2 12.75 5.85 12.27 12.75m12.29 37.92c-3.96 0-7.17-13.3-7.17-29.71s3.21-29.71 7.17-29.71 7.17 13.3 7.17 29.71-3.21 29.71-7.17 29.71M52.23 145h-4.82l-4.74 6.48-4.83-6.48h-4.82l7.17 9.41-7.44 9.46h4.85l5.04-6.8 5.01 6.77h4.85l-7.41-9.75zm4.45.11h3.97v18.87h-3.97zm86.7 0h3.97v18.87h-3.97zm-13.14-.24h-.48c-2.51 0-4.32.8-5.44 2.4-1.17-1.6-2.98-2.4-5.46-2.4h-.48c-2.37 0-4.13.59-5.25 1.79-1.15 1.17-1.73 3.06-1.76 5.65v11.67h3.41v-10.79c0-1.68.29-2.85.91-3.54.61-.69 1.6-1.04 2.96-1.04 1.41 0 2.45.37 3.06 1.09.61.75.93 1.97.93 3.7V164h3.38v-10.6c0-1.71.32-2.93.93-3.68s1.63-1.12 3.01-1.12 2.37.35 2.96 1.04c.61.67.91 1.87.91 3.54v10.79h3.41V152.3c0-2.59-.59-4.45-1.71-5.65-1.13-1.19-2.89-1.78-5.29-1.78m-32.43 0h-.64c-2.98 0-5.14.75-6.53 2.24-1.36 1.49-2.05 3.84-2.05 7.06v.75c0 3.2.67 5.57 2.05 7.06 1.39 1.49 3.57 2.24 6.53 2.24h.64c2.98 0 5.14-.75 6.53-2.24 1.36-1.49 2.05-3.84 2.05-7.06v-.75c0-3.22-.67-5.57-2.05-7.06-1.39-1.5-3.58-2.24-6.53-2.24m3.7 14.34c-.72.83-2.08 1.25-4.02 1.25-1.97 0-3.3-.4-4.02-1.25-.72-.83-1.09-2.43-1.09-4.72s.37-3.86 1.09-4.69 2.08-1.25 4.02-1.25c1.97 0 3.3.4 4.02 1.23.72.85 1.09 2.4 1.09 4.72s-.37 3.85-1.09 4.71m-27.32-14.1c-2.24 0-4.32.16-5.86.56v3.12c1.31-.37 3.68-.59 6.18-.59 3.06 0 4.98.43 4.98 2.93v1.79h-4.8c-5.22 0-8.58 1.41-8.58 5.76 0 3.84 2.88 5.52 8.95 5.52 6.4 0 8.9-1.92 8.9-5.54v-7.62c.01-4.6-3.77-5.93-9.77-5.93m5.31 13.35c0 2.35-1.92 2.72-4.5 2.72-2.37 0-4.4-.29-4.4-2.64 0-1.89 1.25-2.66 4.08-2.66h4.82z"/></svg>