<svg xmlns="http://www.w3.org/2000/svg" xml:space="preserve" viewBox="0 0 72 72"><path d="M43.5 7.2h-15c-11.2 0-20.3 9.1-20.3 20.3v17c0 11.2 9.1 20.3 20.3 20.3h15.1c11.2 0 20.3-9.1 20.3-20.3v-17c-.1-11.2-9.2-20.3-20.4-20.3M31.3 50.1c-2.1 0-3.8-4.3-3.8-9.7s1.7-9.7 3.8-9.7 3.8 4.3 3.8 9.7-1.7 9.7-3.8 9.7m12.9-18.5v15.7h-5.4V33.6c0-2.1-1.7-4.1-3.8-4-3.6-.1-7.3 0-10.9 0v17.7h-5.4V24.8h19.1c3.3-.1 6.6 3.1 6.4 6.8m6.6 20.3c-2.1 0-3.8-7.1-3.8-15.9s1.7-15.9 3.8-15.9 3.8 7.1 3.8 15.9-1.7 15.9-3.8 15.9"/></svg>