<svg xmlns="http://www.w3.org/2000/svg" xml:space="preserve" viewBox="0 0 360 180"><path d="M222.3 105.2v-.2zm0-28.2c.2.6.7 1.1.9 1.7l.4 17.6c-.1 3.4.8 6.5 3.6 8.7 1.9 1.6 5.1 1.9 7.5 1 2.9-1.2 4.6-4.3 5.2-7.1.8-7.4-.1-15 1.5-22h-2.7l.1 17.3c0 3.4.1 7-2.7 9.2-1.6 1-3.6 1.3-5.3.6-2.1-.9-3.4-3.1-3.7-5.3l-.5-21.7zm39.1 9.6c-1.2 2.4-3.9 4.1-6.2 5l10.5 12.7-.5-25.7c-.3-.6-.2-1.3-.6-1.9h14.2l.2 2.4c-2.9-1-6.4-1.5-9.8-1.4V90l9.9.1-.1 1.5-9.7-.1-.5 11.5c4.8 2.1 10.4-.2 12.1-.7l-1.6 2.8h-13.1c1.8 2 3.8 4.1 5.8 5.5-3.2-1.1-6.8-2.4-9.1-5.6L251 92.4c2.5-1.3 6.2-2.2 7.2-5.6 1-2.6.5-5.5-1.2-7.5-1.9-2.2-4.8-2.6-7.5-1.8l-1.4 27.5h-3.6l.7-3.1.3-23c0-1-.3-1.5-.7-2.2 5.3-.6 10.9-2.3 15.5 2 2.1 1.7 2.6 4.9 1.1 7.9m24.7-9.8 17.9 23.6V76.8h19.6l.4 1.9c-2.3-.4-5.3-.9-7.7-1l-.1 24.4c0 .7.2 2 .5 3.1h-3.9l.3-3.1-.6-24.5c-1.9-.1-3.9-.1-5.8 0l-.7 1c-.2 9.1-.8 18.7-.8 27.8L284.6 81v24.3h-2.5c.6-8.6.7-17.6.8-26.2-.5-.8-1.2-1.4-1.7-2.2h4.9zm-63.8 0v.2c0-.1-.1-.1 0-.2m0 28.3-.8-1.6-7.2-28.3-2.8 5.5v3l.7-1.6 2.2 8.2c-.9.1-1.9.1-2.9.2V92c1.2 0 2.4 0 3.6.1l3.6 13.2h3.6zm-10.8 9.9v-3.4c1.4-.2 2.7-.5 4.1-.9l-1.7 4.2h-2.4zm0-34.3v3l-2.9 6.7h2.9v1.5h-3.8l-.5 1.1v-3.8zm0 31v3.4h-4.3v-2.7c1.4-.2 2.9-.5 4.3-.7m-78-30.2 1.7-3.4 1.2-2.2.7 2.7 6.4 25.7c.2.3.5.5.5.9h-3.4L137 92.3l-.3-.2h-3.1v-1.7h2.8l-2.1-7.6-.7 1.5v-2.8zm73.7 7.7V93l-5.6 12.2h-2.8l2.6-4.5zm0 23.1c-4.3.6-8.7.9-13.1.9-.4-.1-.9-.6-.7-1.1l10.5-46.2h-5.5c-.2 0 .6 2.6.3 3.7l-1.7 7.2h-21.4l.4 23.9-.2.5-.2-.2-18.1-24.3h-4.7c.4.9 1.2 1.8 1.8 2.7l-.7 23.5-.5 2.2h2.4V81.4l.2-.2 19.5 24.7 1.2 1.2 1.2-28.5.5-.5c1.7-.2 3.6-.4 5.4 0l.5 24.4-.5 2.4c1.1.2 2.6.2 3.7 0l-.2-1c0-8.7.2-17.2.7-25.8l3.6.2c1.7.4 3.8.2 5.1 1.2l-6.5 31.6-1.2 3.9h18.3zm-58.3-8.3.5 1.2h-3.1l-.8-26.2c-.2-.8-.8-1.6-.8-2.3h4.3zm-20.4-35.5c.2 1.3-.3 2.8-.7 4.1-2.2-4.1-6.5-6.8-10.9-6.9-3.6-.1-6.8 1.9-8.5 5.1-2.2 4-.7 8.6 2.2 11.8l11 14.1 1.9 3.9 9.9-19.1v2.8l-2.8 6h2.8V92h-3.7l-8.1 17.3c-2.6 4.3-7 6.5-12.1 6.2-4.4-.3-8.4-2.1-11.8-5.1.2-1.4.7-2.7 1.2-4.1 2.2 4.1 6.5 7.8 11.4 8 2.9 0 5.6-.7 7.6-3.1 2.2-2.4 3.2-6.2 1.9-9.4l-1.2-2.6L104.5 82c-2.4-2.4-5-5.3-8.5-4.8-1.7.2-3.3 1.8-3.8 3.4-.9 6.7 7 8.6 10.8 12.6 1.9 1.9 2.7 4.4 2.1 7.1-.7 2.5-3 4.8-5.5 5.4-3.9.8-7.5-.7-10.7-2.6-.7.6-.3 2-1.2 2.2H73.3l.5-2.1-.2-25.1L60 106.6 53.7 80l-7 10.2c-2.3 7.5-3.7 15.3-5.6 23 .1.7 0 1.4.5 1.9h-4.9l.9-1.7 4.3-21.9c-1.1-8-3.7-15.9-5-23.8l-.9-1.8h4.8c1.9 7.6 3.2 15.2 5.1 22.8l14.6-22.8h3.8c-2.8 3.1-5 6.6-7.5 10 1.4 8.1 2.9 16.2 4.6 24.2l9.7-23.2h16.3v2.4c-1.5-.7-8.6-1.4-10.4-1.2l.1 12.2 10.3.1c.3.4.1.9.2 1.4H77.2l-.6 12.1c2.8.7 9.7-.3 12.1-1.3.5-.8.5-1.8 1-2.5 1.9 2.2 4.3 4.6 7.5 4.6 1.9-.2 4.1-1 5.2-3 .6-1.2.3-2.5 0-3.7-3.8-5.8-13.4-7-12.7-15.2.3-2.4 1.5-4.6 3.7-6 3-1.9 7.1-1 10 .6.5-3.4 1.3-6.7 4-9.2 4.3-4.1 11.4-4.9 16.7-2.5 1.5.9 3 1.6 4.4 2.8"/></svg>