<svg xmlns="http://www.w3.org/2000/svg" xml:space="preserve" viewBox="0 0 750.82 365.99"><path d="M412.13 359.75c-1.08-.32-2.27-1.51-1.94-2.81l27.43-120.53h-14.36c-.43.11 1.51 6.69.86 9.61l-4.43 18.79-55.83.11.97 62.42-.43 1.4-.54-.54-47.09-63.29h-12.31c1.08 2.38 3.24 4.75 4.64 7.02l-1.73 61.24-1.4 5.72 6.37.11v-62.1l.43-.43 50.87 64.37 3.13 3.13 3.13-74.3 1.19-1.19c4.43-.43 9.4-1.08 14.04-.11l1.19 63.72-1.19 6.37c2.92.54 6.7.54 9.72 0l-.43-2.7c0-22.57.54-44.93 1.94-67.39l9.4.43c4.54 1.08 9.94.43 13.39 3.13l-17.06 82.4-3.35 10.15h47.63v-7.02c-11.24 1.53-22.58 2.29-34.24 2.29m-148.39-90.07-1.94-7.02-3.02 5.72-4.54 8.85-25.81 49.68-4.97-10.05-28.73-36.83c-7.56-8.42-11.45-20.52-5.83-30.89 4.32-8.1 12.53-13.5 22.03-13.18 11.34.33 22.57 7.35 28.3 17.93.97-3.35 2.38-7.13 1.84-10.58-3.46-3.13-7.34-5.08-11.23-7.24-13.93-6.16-32.4-4.21-43.63 6.59-6.91 6.48-9.07 15.01-10.37 23.87-7.56-4.21-18.36-6.48-26.14-1.62-5.83 3.56-8.96 9.4-9.72 15.55-1.84 21.49 23.33 24.62 32.83 39.53.86 3.13 1.62 6.59 0 9.61-2.81 5.4-8.42 7.45-13.5 7.89-8.21 0-14.58-6.15-19.55-11.99-1.19 1.94-1.3 4.53-2.48 6.59-6.16 2.49-24.19 5.08-31.54 3.35l1.62-31.54 27.22-.11c-.22-1.4.43-2.7-.43-3.78l-26.89-.33-.32-31.75c4.75-.54 23.22 1.3 27.22 3.24v-6.26H91.69L66.42 325.5c-4.43-20.84-8.53-41.9-12.1-62.96 6.59-8.86 12.31-18.15 19.66-26.14h-9.94l-38.12 59.51c-4.97-19.77-8.32-39.64-13.39-59.51H0l2.16 4.53c3.35 20.63 10.15 41.04 12.96 61.99L4 360.07l-2.27 4.43h12.85c-1.08-1.41-.97-3.13-1.19-4.97 4.75-19.98 8.53-40.39 14.47-59.94l18.36-26.46 16.2 69.34 35.53-74.3.43 65.34-1.19 5.51h37.69c2.38-.54 1.4-4.32 3.24-5.83 8.32 4.97 17.71 8.86 27.86 6.8 6.48-1.72 12.53-7.67 14.26-14.15 1.51-7.02-.43-13.61-5.4-18.47-9.83-10.26-30.56-15.33-28.19-32.72 1.19-4.21 5.29-8.42 9.83-8.85 9.07-1.08 15.88 6.26 22.03 12.64l37.49 44.7 3.13 6.8c3.46 8.32.86 18.14-4.97 24.41-5.08 6.16-12.31 8.21-19.76 8.1-12.74-.33-23.98-10.04-29.81-20.73-1.4 3.67-2.7 7.13-3.24 10.8 8.75 7.99 19.12 12.64 30.67 13.39 13.07.86 24.73-4.75 31.43-16.09l21.17-45.14h9.61v.01h8.1l.76.65 9.5 33.59h8.96c0-.87-.76-1.51-1.19-2.27zm-9.51 30.56-7.24-.11 7.24-15.66 1.83-3.99 5.4 19.87zm40.39-35.53H283.5c0 1.94 1.62 3.99 2.05 6.05l1.84 68.15 8.21.11-1.3-3.24z"/><path d="M424.55 339.01h7.24l14.58-31.86 1.3-2.81c3.13.11 6.48 0 9.83 0v-3.89c-2.59 0-5.19-.11-7.56-.11l7.56-17.5v-7.77l-11.12 22.25-15.12 30.02zm32.94 16.74c-3.67.65-7.45 1.3-11.12 1.73v7.02h17.28l4.53-11.02c-3.56.87-7.13 1.62-10.69 2.27m273.13-88.45c6.26.22 14.15 1.51 20.2 2.59l-1.08-5.08h-51.08l.11 61.45-46.66-61.45h-12.74c1.19 2.27 3.03 3.67 4.43 5.83-.22 22.57-.43 46.01-2.05 68.36h6.59l-.11-63.29 53.57 66.53c0-23.54 1.51-48.71 2.16-72.36l1.84-2.7c4.86-.32 9.94-.32 15.01 0l1.62 63.83-.86 7.99h10.15c-.87-3.02-1.3-6.27-1.41-8.21z"/><path d="m483.52 334.37-18.79-73.65-7.23 14.36v7.77l1.84-4.1 5.83 21.27c-2.38.32-4.97.32-7.67.43v3.89c3.13 0 6.26.11 9.4.32l9.5 34.35h9.29v-.43zm1.94-69.55c0 .22.11.43.21.54v-.54zm121.5 68.69 1.19-30.02 25.38.32.22-3.99-25.92-.22v-32.18c8.85-.22 17.82 1.08 25.49 3.78l-.43-6.37h-37.04c1.19 1.51.76 3.24 1.62 4.86l1.4 66.96-27.43-33.16c6.16-2.16 12.96-6.59 16.2-12.96 4-7.99 2.59-16.2-2.48-20.84-11.99-11.12-26.78-6.7-40.5-5.18 1.08 1.62 1.73 2.92 1.84 5.61l-.86 59.94-1.73 8.1h9.5l3.56-71.6c6.91-2.05 14.47-1.08 19.44 4.75 4.32 5.29 5.83 12.96 3.13 19.66-2.7 8.86-12.31 11.23-18.9 14.69l31 32.94c6.16 8.32 15.45 11.88 23.76 14.69-5.29-3.67-10.59-9.07-15.23-14.26h34.13l4.1-7.35c-4.44 1.39-19.02 7.34-31.44 1.83m-78.52-23.66c-.11 8.96.22 18.36-7.13 24.08-4.1 2.7-9.5 3.35-13.82 1.51-5.51-2.38-8.96-8.1-9.61-13.93l-1.19-56.7h-11.02v.54c.65 1.51 1.73 2.81 2.27 4.32l1.08 45.79c-.32 8.86 2.16 16.85 9.29 22.57 5.08 4.21 13.18 5.08 19.55 2.7 7.45-3.24 12.1-11.12 13.5-18.47 2.05-19.33-.32-38.99 3.89-57.46h-7.02zm-42.76 28.73"/><path d="M485.68 339.01h.21l-.21-.43zM232.53 190.08h40.61l4.54-11.02c-14.58 3.67-29.59 5.51-45.14 6.16-3.57.11-7.24.11-10.91.11-1.08-.33-2.27-1.51-1.94-2.81l7.67-33.7c1.94-.97 3.67-2.16 5.18-3.67v-.41.41c2.7-2.38 4.97-5.18 6.8-8.64 4.32-8.86 5.4-21.82 0-32.4l-1.4-1.94 9.18-40.18h-14.36c-.43.11 1.51 6.59.86 9.61l-1.08 5.29-3.02 14.57-7.45-9.61c1.51-6.26 3.13-12.53 5.08-18.68 1.84-2.48 3.67-5.18 5.4-7.88v-7.13l-7.34 11.34c-2.92-11.45-5.29-23.11-7.78-34.67 2.92-1.19 6.16-1.73 9.4-1.51 1.95.11 3.89.32 5.73.76 4.32.86 8.42 2.7 11.99 5.29l-11.99 18.79v7.13c5.08-7.45 10.26-15.23 15.55-23 2.81 2.48 5.18 5.51 7.02 8.96.86-3.46 2.38-7.13 1.73-10.58-1.51-1.51-3.13-2.7-4.86-3.78C258.8 17.28 265.82 8.1 273.28 0h-9.94l-15.66 24.41c-.65-.43-1.29-.76-2.05-1.08-4-1.73-8.42-2.81-13.07-3.24-5.18-.43-10.58.11-15.77 1.51-1.62-7.13-3.13-14.37-4.97-21.6h-3.46v37.59l6.05 28.94-.86 4.43-2.92-3.56c-.76-.87-1.51-1.84-2.27-2.81v18.14l2.27 2.7-2.27 12.2v30.46h5.51c-1.08-1.4-.97-3.13-1.19-4.97 2.16-9.18 4.1-18.58 6.26-27.97l7.99 9.4-9.07 44.39c-2.48.54-4.97.76-7.67.76h-1.84v3.56c3.02 0 6.05-.11 8.75-.65l-5.51 27.33-3.24 10.04v.11zm-.01-64.15 2.16-9.5.32.86c3.02 7.02 1.62 15.12-2.48 21.27-.65 1.19-1.51 2.16-2.48 3.13a9.8 9.8 0 0 1-1.51 1.51zm-24.19 64.04-.11.11h.11zm0-36.72v-3.57c-11.99-1.19-22.36-10.48-27.97-20.73-1.3 3.67-2.59 7.13-3.24 10.8 8.86 7.99 19.22 12.75 30.67 13.39.22.11.33.11.54.11m0-25.16V97.63l-5.07 26.03-2.27 4.43zM194.4 66.53l13.93 16.2V64.58c-5.94-8.21-8.53-18.79-3.56-28.08.76-1.4 1.62-2.7 2.48-3.78l1.08 4.86V0h-9.07l2.16 4.53 4.54 22.14c-1.4.97-2.7 2.05-4 3.35-6.91 6.49-15.12 17.07-7.56 36.51"/></svg>