<svg xmlns="http://www.w3.org/2000/svg" xml:space="preserve" viewBox="0 0 72 72"><path d="M37.9 28.9c.2-.9-.4-2.9-.3-2.9H42l-2.8 12.2.4.6c1.6 3.2 1.3 7.1 0 9.8-.6 1-1.2 1.9-2.1 2.6v-2c1.2-1.9 1.7-4.3.8-6.4l-.1-.3-.7 2.9V30.5zm-.3 34.4c4.7-.2 9.3-.8 13.7-1.9l-1.4 3.3H37.6zm0-50c1.4.1 2.7.5 4 1l.6.3 4.7-7.4h3c-2.3 2.5-4.4 5.2-6.4 8.1.5.3 1 .7 1.5 1.1.2 1-.3 2.2-.5 3.2-.6-1-1.3-2-2.1-2.7-1.6 2.4-3.2 4.7-4.7 7v-2.2l3.6-5.7c-1.1-.8-2.3-1.3-3.6-1.6zm0 37.9c-.5.5-1 .8-1.6 1.1l-2.3 10.2c-.1.4.3.8.6.9h3.3v1.5h-7.3l1-3 1.7-8.3c-.8.2-1.7.2-2.7.2v-1.1h.6c.8 0 1.6-.1 2.3-.2l2.7-13.4-2.5-3.1c-.7 2.8-1.2 5.7-1.9 8.5.1.6 0 1.1.4 1.5h-1.7v-9.2l.7-3.7-.7-.8v-5.5c.2.3.5.6.7.9l.9 1.1.3-1.3-1.8-8.8V7.2h1c.6 2.2 1 4.4 1.5 6.5 1.6-.4 3.2-.6 4.8-.5v1.2c-.6-.1-1.1-.2-1.7-.2-1-.1-2 .1-2.8.5.8 3.5 1.5 7 2.4 10.5l2.2-3.4V24c-.5.8-1.1 1.6-1.6 2.4q-.9 2.85-1.5 5.7l2.3 2.9.9-4.4v14.9l-1.2 5.2c.2-.1.3-.3.5-.5.3-.3.6-.6.8-.9zm-7.4 2.4H30c-3.5-.2-6.6-1.6-9.3-4.1.2-1.1.6-2.2 1-3.3 1.7 3.1 4.8 5.9 8.5 6.3zm0-7.6H28l.7-1.3 1.5-7.9zm0-13.7L26 27.4c-2.3-5.9.2-9.1 2.3-11.1.4-.4.8-.7 1.2-1l-1.4-6.7-.7-1.4h2.7v11.4l-.3-1.5c-.3.3-.5.7-.8 1.1-1.5 2.8-.7 6 1.1 8.5z"/></svg>