<svg xmlns="http://www.w3.org/2000/svg" xml:space="preserve" viewBox="0 0 2500 870"><path d="M804.4 731.4c9.6 9.6 15 22.6 15 36.2 0 15.6-7 28.2-15 36.2-15.3 15.2-36 31.1-63.2 42.3-23.5 9.7-48.7 14.7-74.1 14.7H193.7c-53.5 0-101.9-21.7-136.9-56.7C21.7 769.2 0 720.8 0 667.3V193.8C0 140.4 21.7 92 56.7 56.9 91.7 21.9 140.2.2 193.6.2H667c25.4 0 50.6 5 74.1 14.7 31.3 13 51.3 29 70.6 49.8 7.7 8.3 15 20.6 15 36.2 0 13.1-5 26.2-15 36.2-9.6 9.6-22.6 15-36.2 15s-26.6-5.4-36.2-15c-13.7-13.7-21.2-20.7-36.8-27.3-11.2-4.8-23.3-7.2-35.4-7.2H193.7c-25.1 0-47.9 10.2-64.4 26.7s-26.7 39.3-26.7 64.4v473.5c0 25.2 10.2 47.9 26.7 64.4s39.3 26.7 64.4 26.7h473.4c12.6 0 24.5-2.5 35.4-7.2 11-4.7 20.9-11.4 29.4-19.9 9.6-9.6 22.7-15 36.2-15 13.6.2 26.7 5.6 36.3 15.2m-138.8-61c-1.8-37.4-27.1-94.9-90.6-102.5H349.2l260.2-249.1c11-10.5 35.6-46 18.1-84.3-14.1-30.7-37.7-43.9-79-43.9H224.4c1.3 43 22.8 94.3 79.8 103.5h185.2L215.6 551.5c-11.1 10.7-29.4 43.4-15 76.7 13 30 34.9 42.2 75.7 42.2zm741.5-234.6v190.9c0 70.6-21.6 132-70.6 181-44 44-99.7 62.2-160.8 62.2-119.8 0-181.5-92.6-181.5-92.6 32.2-32.2 77-51.8 120.9-25.5 7.4 4.4 29.5 16.5 61.1 16.5 110.9 0 128.9-99.1 128.9-128.6-38.4 23.2-81.8 34.8-129.9 34.8h-.1c-62.7 0-117.6-19.8-163.3-58.9l-.6-.5c-44.9-43-67.8-96.1-68.2-157.7-.3-12.7-.3-53.2 0-62.7.1-60.6 23.1-113.5 68.2-156.7 45.5-43.6 100.7-65.7 163.9-65.8h.1c84 0 145.7 41.6 174.2 76.2 7.3 8.8 11.5 20.1 11.5 32.4 0 14.2-5.8 27.1-15.1 36.5-9.7 9.7-22.8 15.1-36.5 15.1-14.1 0-27.6-5.9-36.2-14.8-32-33.3-62.4-43.8-98-43.8-35.5 0-65.1 11.9-90.5 36.2-25.2 23.8-37.1 50.8-37.5 85.2-.6 15.1-.6 47 0 61.5.3 35.2 12.1 62.7 37.3 86.8 26.2 23.9 56 35.7 90.7 35.7 34.8 0 64.5-11.7 91-35.9 13.8-13.2 23.6-27.5 29.6-43.6 4.8-12.9 15-39.9 49.3-53.6 28.9-11.6 62.1-10.3 62.1-10.3m484.2 10.2c-34.3 13.7-44.4 40.6-49.3 53.6-6 16.1-15.8 30.4-29.6 43.6-26.4 24.1-56.2 35.9-91 35.9s-64.5-11.7-90.7-35.7c-25.2-24.1-37-51.5-37.3-86.8-.5-14.5-.5-46.4 0-61.5.3-34.4 12.2-61.4 37.5-85.2 25.4-24.4 55-36.2 90.5-36.2s66 10.5 97.9 43.8c8.6 8.9 22.1 14.8 36.2 14.8 14.3 0 27.2-5.8 36.5-15.1 9.7-9.7 15.1-22.8 15.1-36.5 0-12.3-4.2-23.6-11.5-32.4-28.5-34.6-90.2-76.2-174.2-76.2h-.1c-63.2 0-118.4 22.1-163.9 65.8-45.1 43.2-68 96-68.2 156.7-.3 9.4-.3 50 0 62.7.4 61.7 23.3 114.7 68.2 157.8l.6.5c45.7 39.1 100.7 58.9 163.3 58.9h.1q72.3 0 129.9-34.8c0 29.5-18.1 128.6-128.9 128.6-31.6 0-53.8-12.1-61.1-16.5-43.9-26.3-88.7-6.7-120.9 25.5 0 0 61.7 92.6 181.5 92.6 61.1 0 116.7-18.1 160.8-62.2 49-49 70.6-110.4 70.6-181V435.8s-33.1-1.3-62 10.2m608.5-51c-.1-61-23.1-113.9-68.2-157.1-45.6-43.6-100.7-65.7-163.9-65.8h-.1c-63.2 0-118.3 22.1-163.9 65.8-45.1 43.2-68 96-68.2 156.7-.3 9.4-.3 50 0 62.7.4 61.7 23.3 114.7 68.2 157.8l.6.5c45.7 39.1 100.6 58.9 163.3 58.9h.1c62.6 0 117.6-19.8 163.3-58.9l.6-.5c44.8-43 67.8-96.1 68.2-157.5.3-13 .3-53.6 0-62.6m-232.2 184.1c-34.8 0-64.5-11.7-90.7-35.7-25.2-24.1-37-51.5-37.3-86.8-.6-14.5-.6-46.4 0-61.5.4-34.4 12.2-61.4 37.5-85.2 25.4-24.4 55-36.2 90.5-36.2s65.1 11.9 90.6 36.3c25.2 23.7 37 50.7 37.4 85.4.5 14.1.7 45.9 0 61.6-.3 34.8-12.2 62.3-37.1 86.2-26.3 24.2-56.1 35.9-90.9 35.9M860.8 190.8c-53.7.1-102.5 45.2-102.5 93.5v386.2c53.7-.1 102.5-45.2 102.5-93.5z"/></svg>