<svg xmlns="http://www.w3.org/2000/svg" xml:space="preserve" viewBox="0 0 72 72"><path d="M64.7 20c-3.6 0-6.9 3-6.9 6.3v25.6c0 1.6-.6 3.1-1.6 4.1h-.1c-.6.6-1.2 1-2 1.3-.7.3-1.5.5-2.4.5H20.2c-1.7 0-3.2-.7-4.3-1.8s-1.8-2.6-1.8-4.3V20.1c0-1.7.7-3.2 1.8-4.3s2.6-1.8 4.3-1.8h31.6c.8 0 1.6.2 2.4.5 1 .4 1.5.9 2.5 1.8.6.6 1.5 1 2.4 1s1.8-.4 2.4-1c.7-.7 1-1.5 1-2.4 0-1-.5-1.9-1-2.4-1.3-1.4-2.6-2.5-4.7-3.3-1.6-.6-3.3-1-5-1H20.2c-3.6 0-6.8 1.5-9.2 3.8-2.3 2.3-3.8 5.6-3.8 9.2v31.6c0 3.6 1.5 6.8 3.8 9.2 2.3 2.3 5.6 3.8 9.2 3.8h31.7c3.6 0 6.8-1.5 9.2-3.8 2.3-2.3 3.8-5.6 3.8-9.2v-6.1z"/><path d="M20.6 49.1c.9 2 2.3 2.8 5.1 2.8h26.1c-.1-2.5-1.8-6.3-6.1-6.9H30.6L48 28.4c.7-.7 2.4-3.1 1.2-5.6-.9-2.1-2.5-2.9-5.3-2.9H22.2c.1 2.9 1.5 6.3 5.3 6.9h12.4L21.6 44c-.7.7-1.9 2.9-1 5.1"/></svg>