<svg xmlns="http://www.w3.org/2000/svg" xml:space="preserve" viewBox="0 0 360 180"><path d="M131.69 135.94c2.52.01 3.75-1.74 4.46-3.81l1.83-6.81c3.9-14.67 10.93-41.24 11.43-43.13.51-1.89 1.55-4.49 1.55-4.49.26-.75.7-1.9-.32-2.34l-5.25-.02-2.65-.01c-.64 0-1.16.56-1.16 1.2 0 .29.11.54.27.75 0 0 1.38 1.67 1.26 2.16-.14.5-10.78 40.58-10.78 40.58l-8.13-36.79c-.66-3.24-1.29-7.88-5.45-7.87l-14.17-.02c-.63 0-1.14.51-1.14 1.15 0 .45.26.85.63 1.04l.46.23c3.14 1.84 3.35 5.37 4.12 8.93l1.52 6.37s-6.76 21.46-8.17 25.41c-.65-2.9-7.96-35.3-7.96-35.3-.66-3.24-1.3-7.87-5.45-7.86l-14.17-.01c-.64 0-1.15.51-1.15 1.15 0 .45.27.84.64 1.03l.45.25c3.15 1.84 3.35 5.36 4.12 8.91l9.43 41.38c.66 3.24 1.29 7.89 5.45 7.87l5.95.01h1.34c2.5.01 3.72-1.68 4.44-3.73l2.13-6.97 5.34-17.6c.2-.3.12-.84.61-.94l4.98 21.37c.67 3.24 1.3 7.89 5.46 7.88zm41.15-57.41c0-1.74-1.4-3.2-3.06-3.2H158.8c-1.66 0-2.97 1.45-2.97 3.17l.03 43.37c.02 16.06 9.55 16.32 15.29 14.23 4.59-1.67 5.59-2.71 4.33-4.6-.98-1.5-2.67-2.62-2.65-4.14V78.53zm-8.55-8.48c5.24 0 9.5-3.74 9.5-8.35s-4.26-8.35-9.5-8.35-9.49 3.74-9.49 8.35c0 4.62 4.25 8.35 9.49 8.35m65.51 66.58c6.47-1.06 13.5-5.97 14.92-13.26 2.99-9.9-3.98-17.47-10.56-23.81-2.78-3.11-5.34-5.33-7.76-8.77-6.55-9.25 2.35-11.57 9.57-8.77 2.08.81 3.65 2.15 4.4 2.97.65.71 1.19.4 2.34-1.36 1.18-1.8 1.95-4.85-1.59-6.74l-.61-.29c-2.83-1.36-6-2.27-11.63-2.55-9.65-.48-17.55 2.09-20.02 11.73-2.42 10.71 4.46 18.7 11.8 25.87 4.08 4.41 8.72 9.58 7.73 14.82-1.76 9.28-16.06 2.11-18.58-.5-.68-.7-1.43-.12-2.35 1.36-1.12 1.84-1.94 4.84 1.6 6.73.01 0 6.89 4.81 20.74 2.57"/><path d="M200.65 127.37c-.02 1.51 1.67 2.64 2.66 4.14 1.26 1.91.28 2.93-4.34 4.61-5.74 2.08-15.27 1.82-15.29-14.23l-.02-72.97c0-1.74 1.31-3.13 2.97-3.13h10.96c1.66 0 3.06 1.42 3.06 3.15 0 0-.02 24.87-.02 26.38h6.95c.68 0 1.26.56 1.26 1.26l.02 3.05c0 .68-.56 1.26-1.26 1.26h-6.94zm120.2 0c-.03 1.51 1.65 2.64 2.65 4.14.33.5.5.93.5 1.34v.03c-.03 1.13-1.46 2.01-4.84 3.25-5.74 2.09-15.26 1.83-15.28-14.23l-.05-72.91c0-1.75 1.31-3.19 2.98-3.19h10.96c1.67 0 3.06 1.47 3.06 3.21zm-56.79-45.15c-2.87 1.15-4.18 2.25-4.81 3.05-.59.77-1.13.5-2.42-1.13-1.58-2.03-2.66-5.87 3.71-7.98 13.05-4.31 34.91-3.12 34.94 12.6.01 2.43 0 38.7 0 38.7-.02 1.52 1.65 2.65 2.65 4.14 1.26 1.9.27 2.93-4.34 4.6-5.74 2.08-15.28 1.82-15.29-14.23l.03-19.25c-10.35 1.23-11.9 5.57-11.97 8.23v14.07c-.03 2.15 1.53 6.24 7.66 2.9 1.96-1.15 2.94.88 1.96 2.75-2.58 4.3-7.18 6.05-11.79 6.46-5.81.32-11.12-3.61-13.8-8.89-2.53-6.45-1.87-15.77 2.38-21.19 6.24-8.18 16.4-9.15 24.88-11.81 0 0 .67-.04.66-.79-.02-3.95.01-7.17 0-9.68.01-7.75-11.59-3.69-14.45-2.55m-187.77 54.1c7.74-.01 7.77-4.56 6.85-7.36-.66-2.04-1.16-2.41-2.23-2.09-1.69.52-6.12 1.34-10.04 1.34l-11.89-.08c-5.08 0-4.48-3.1-4.59-4.42-.86-9.03 15.21-50.64 26.26-72.83 3.07-6.2 2.99-8.1-2.51-8.1l-32.2.02c-7.73 0-7.85 4.59-6.85 7.36.82 2.22 1.16 2.4 2.23 2.08 1.69-.51 4.67-1.34 8.58-1.34h10.42c2.31 0 1.49 1.16 1.2 1.73-4.35 8.44-28.24 61.04-25.27 78.56 1.01 5.92 5.42 5.07 9.13 5.11z"/></svg>