<svg xmlns="http://www.w3.org/2000/svg" viewBox="0 0 24 24" role="img" aria-label="Python"><linearGradient id="p1" x1="0%" y1="0%" x2="100%" y2="100%"><stop offset="0%" stop-color="#387EB8"/><stop offset="100%" stop-color="#366994"/></linearGradient><linearGradient id="p2" x1="0%" y1="0%" x2="100%" y2="100%"><stop offset="0%" stop-color="#FFE052"/><stop offset="100%" stop-color="#FFC331"/></linearGradient><path fill="url(#p1)" d="M11.914 0C5.82 0 6.2 2.656 6.2 2.656L6.206 5.49h5.814v.85H3.9S0 5.882 0 12.016c0 6.135 3.403 5.918 3.403 5.918h2.03v-2.965s-.109-3.401 3.344-3.401h5.763s3.237.052 3.237-3.13V3.207S18.44 0 11.914 0zM8.755 1.856a1.06 1.06 0 1 1 0 2.12 1.06 1.06 0 0 1 0-2.12z"/><path fill="url(#p2)" d="M12.086 24c6.094 0 5.714-2.656 5.714-2.656l-.006-2.834h-5.814v-.85h8.12S24 18.118 24 11.984C24 5.85 20.597 6.066 20.597 6.066h-2.03v2.965s.109 3.401-3.344 3.401H9.46s-3.237-.052-3.237 3.13v5.236S5.56 24 12.086 24zm3.159-1.856a1.06 1.06 0 1 1 0-2.12 1.06 1.06 0 0 1 0 2.12z"/></svg>
