<!-- Generator: Adobe Illustrator 28.1.0, SVG Export Plug-In . SVG Version: 6.00 Build 0)  -->
<svg version="1.1" id="Layer_1" xmlns="http://www.w3.org/2000/svg" xmlns:xlink="http://www.w3.org/1999/xlink" x="0px" y="0px"
	 viewBox="0 0 72 72" style="enable-background:new 0 0 72 72;" xml:space="preserve">
<g>
	<path d="M21.6,21.6c0-8,6.4-14.4,14.4-14.4s14.4,6.4,14.4,14.4H21.6z"/>
	<path d="M7.2,36c0-8,6.4-14.4,14.4-14.4C21.6,29.6,28,36,36,36c-8,0-14.4,6.4-14.4,14.4C13.6,50.4,7.2,44,7.2,36"/>
	<path d="M50.4,50.4c0,8-6.4,14.4-14.4,14.4s-14.4-6.4-14.4-14.4H50.4z"/>
	<path d="M50.4,21.6c8,0,14.4,6.4,14.4,14.4s-6.4,14.4-14.4,14.4C50.4,42.4,44,36,36,36C44,36,50.4,29.6,50.4,21.6"/>
</g>
</svg>
