<!-- Generator: Adobe Illustrator 28.1.0, SVG Export Plug-In . SVG Version: 6.00 Build 0)  -->
<svg version="1.1" id="レイヤー_1" xmlns="http://www.w3.org/2000/svg" xmlns:xlink="http://www.w3.org/1999/xlink" x="0px"
	 y="0px" viewBox="0 0 72 72" style="enable-background:new 0 0 72 72;" xml:space="preserve">
<g>
	<path d="M36,19.2c7.2,0,14.9,1.5,21.1,5.4c4,2.6,7.7,6.4,7.7,11.5c0,5.9-5,10.2-9.9,12.7c-5.7,3-12.5,4.1-18.9,4.1
		c-7.2,0-14.9-1.5-21.1-5.4c-4-2.6-7.7-6.4-7.7-11.5c0-5.9,5-10.2,9.9-12.7C22.8,20.3,29.6,19.2,36,19.2L36,19.2z M35.9,21
		c-6.7,0-13.9,1.3-19.7,4.8c-3.7,2.2-7.3,5.6-7.3,10.2c0,5.4,4.9,9.1,9.3,11.3c5.4,2.6,11.8,3.7,17.7,3.7c6.7,0,13.9-1.3,19.8-4.8
		c3.6-2.2,7.3-5.6,7.3-10.2c0-5.4-4.9-9.2-9.3-11.3C48.3,22,41.9,21,35.9,21L35.9,21z M10.6,32.2l11-1.9l3.3-7.2l3.3,7.2l11,1.9
		l-11,1.9L25,41.3l-3.3-7.2L10.6,32.2L10.6,32.2z M34.9,37.7l4.9-0.9l1.5-3.3l1.5,3.3l4.9,0.9l-4.9,0.8l-1.5,3.3l-1.5-3.3L34.9,37.7
		L34.9,37.7z M45,29l4.9-0.8l1.5-3.3l1.5,3.3l4.9,0.8l-4.9,0.9l-1.5,3.3l-1.5-3.3L45,29z M39.8,44.4l4.8-0.8l1.5-3.3l1.5,3.3
		l4.9,0.8l-4.9,0.9l-1.5,3.3l-1.5-3.3L39.8,44.4z M24.8,45.6l4.9-0.8l1.5-3.3l1.5,3.3l4.9,0.8l-4.9,0.9l-1.5,3.3l-1.5-3.3L24.8,45.6
		z M49.3,37.6l4.8-0.9l1.5-3.3l1.5,3.3l4.9,0.9l-4.9,0.8l-1.5,3.3l-1.5-3.3L49.3,37.6z"/>
</g>
</svg>
