<!-- Generator: Adobe Illustrator 28.1.0, SVG Export Plug-In . SVG Version: 6.00 Build 0)  -->
<svg version="1.1" id="Burger_King_Logo_2020" xmlns="http://www.w3.org/2000/svg" xmlns:xlink="http://www.w3.org/1999/xlink"
	 x="0px" y="0px" viewBox="0 0 360 180" style="enable-background:new 0 0 360 180;" xml:space="preserve">
<g>
	<path d="M247.4,154.1c-13.2,6.2-35.9,7.9-67.4,7.9s-54.1-1.8-67.4-7.9c-7.9-3.7-12-8.7-12-12.3c0-2.1,1.3-3.2,4.3-3.2H255
		c3,0,4.3,1.2,4.3,3.2C259.3,145.4,255.3,150.4,247.4,154.1L247.4,154.1 M255,58.6H105c-3,0-4.3-1.3-4.3-3.5
		c0-13.4,24.5-37.1,79.3-37.1c54.3,0,79.3,23.7,79.3,37.1C259.3,57.3,258,58.6,255,58.6L255,58.6"/>
	<path d="M132.6,113.9c-0.5-0.6-0.5-1-0.5-1.1c0-0.5,0.3-0.8,0.9-1.3c1.4-1.1,4.9-3.8,6.9-6.3c1.5-1.9,2.1-3.6,2.1-5
		c0-3.6-4-6.5-8.4-6.5c-2.8,0-5.4,1.3-7.2,3.7c-2.4,3.2-5.2,6.9-7.1,8.3c-0.5,0.4-0.7,0.5-1.1,0.5c-0.6,0-0.9-0.3-0.9-0.9v-4.2
		c0-4.1-3-7.4-8.3-7.4c-5.4,0-8.3,3.3-8.3,7.4v25.8c0,4.1,2.9,7.4,8.3,7.4c5.3,0,8.3-3.3,8.3-7.4V121c0-0.5,0.3-0.9,0.9-0.9
		c0.8,0,1,0.7,1.2,1c1.2,2.3,4.6,7.2,7.7,10.1c2.1,1.9,4.8,3.1,7.6,3.1c4.7,0,8.7-3.4,8.7-7c0-2.3-1.2-3.9-3.4-5.9
		C137.2,118.8,133.9,115.4,132.6,113.9L132.6,113.9 M196.1,91.3c8,0,13-4.2,13-10.3c0-3.9-2.9-6.6-8.6-6.6H199c-3,0-5.3,1.2-5.3,3.8
		c0,2.3,2.5,3.5,4.4,3.5c1,0,1.6,0.3,1.6,0.8c0,0.8-1.1,1.3-2.3,1.3c-3.8,0-6.4-2.2-6.4-6.4c0-4.6,3.6-6.3,6.3-6.3
		c3.4,0,3.9,1.4,6.3,1.4c2.7,0,4.5-1.8,4.5-3.8c0-1.4-0.8-2.5-1.9-3.3c-2.1-1.3-5.1-2.3-9.6-2.3c-7.9,0-15.6,4.3-15.6,14.2
		C180.9,86.9,188.6,91.3,196.1,91.3L196.1,91.3 M106.6,91h7.2c6.8,0,10.9-3.7,10.9-8.4c0-3.7-2.7-5.4-3.3-5.9
		c-0.3-0.2-0.5-0.3-0.5-0.5c0-0.2,0.2-0.3,0.4-0.5c1-0.9,1.9-2.4,1.9-4.5c0-5-4.1-7.7-10.5-7.7h-6.1c-4,0-6,1.9-6,4.5v18.5
		C100.7,89.1,102.6,91,106.6,91L106.6,91 M109.6,70.7c0-0.5,0.4-1,1.3-1h0.7c2.2,0,2.9,1.3,2.9,2.3c0,1-0.7,2.4-2.9,2.4h-0.7
		c-0.9,0-1.3-0.4-1.3-1V70.7L109.6,70.7 M109.6,80.5c0-0.5,0.4-1,1.3-1h0.9c2.4,0,3.2,1.3,3.2,2.6c0,1.1-0.7,2.6-3.2,2.6h-0.9
		c-0.9,0-1.3-0.4-1.3-1L109.6,80.5 M239.6,91.3c3.3,0,5-2,5-4.5v-4.4c0-0.5,0.3-0.8,0.8-0.8c0.6,0,0.8,0.3,0.9,0.8
		c0.5,2.1,1.7,5,3.1,6.5c1.7,1.9,3.4,2.5,5,2.5c2.6,0,4.9-1.7,4.9-3.9c0-1.4-0.7-2.5-1.6-3.4c-1.7-1.8-2.8-3-3.5-4.4
		c-0.2-0.3-0.1-0.6,0.4-0.9c1.6-1,3.4-3.2,3.4-6.7c0-5.3-5.3-8.3-11.8-8.3h-5.8c-4,0-6,1.9-6,4.5v18.7
		C234.5,89.2,236.3,91.3,239.6,91.3L239.6,91.3 M244,71.4c0-0.5,0.4-1,1.3-1h0.7c2.1,0,2.8,1.3,2.8,2.3c0,1-0.7,2.4-2.8,2.4h-0.7
		c-0.9,0-1.3-0.4-1.3-1V71.4L244,71.4 M155.9,93.7c-5.7,0-8.8,3.5-8.8,7.9v24.8c0,4.4,3.1,7.9,8.8,7.9s8.8-3.5,8.8-7.9v-24.8
		C164.7,97.2,161.6,93.7,155.9,93.7 M246.4,109.8h-2.5c-4.5,0-7.9,1.7-7.9,5.5c0,3.4,3.8,5.1,6.6,5.1c1.4,0,2.3,0.3,2.3,1.2
		c0,1.1-1.6,1.8-3.4,1.8c-5.8,0-9.7-3.2-9.7-9.2c0-6.7,5.3-9.1,9.5-9.1c5,0,5.9,2.1,9.4,2.1c4.1,0,6.8-2.7,6.8-5.5
		c0-2.1-1.1-3.6-2.9-4.7c-3.1-1.9-7.8-3.3-14.4-3.3c-11.9,0-23.4,6.2-23.4,20.5c0,13.7,11.6,20.1,23,20.1c12,0,19.5-6.1,19.5-15
		C259.3,113.7,255,109.8,246.4,109.8 M227.1,91c2.9,0,5.1-1.4,5.1-3.9c0-2.5-2.2-3.9-5.1-3.9h-4.6c-0.9,0-1.3-0.4-1.3-1v-0.8
		c0-0.5,0.4-1,1.3-1h3.5c2.4,0,4.4-1.2,4.4-3.4c0-2.1-1.9-3.3-4.4-3.3h-3.5c-0.9,0-1.3-0.4-1.3-1v-0.7c0-0.5,0.4-1,1.3-1h4.6
		c2.9,0,5.1-1.4,5.1-3.9c0-2.5-2.2-3.9-5.1-3.9h-9.6c-4,0-6,1.9-6,4.5v18.5c0,2.6,1.9,4.5,6,4.5L227.1,91L227.1,91L227.1,91
		 M139.7,91.3c8.2,0,12.6-4.1,12.6-9.2V68c0-2.5-1.8-4.5-5-4.5c-3.3,0-5,2-5,4.5v13.7c0,1-0.7,2.2-2.5,2.2c-1.8,0-2.4-1.2-2.4-2.2
		V68c0-2.5-1.8-4.5-5.1-4.5c-3.3,0-5,2-5,4.5v14.1C127.1,87.2,131.4,91.3,139.7,91.3L139.7,91.3 M175.4,91.3c2.6,0,4.9-1.7,4.9-3.9
		c0-1.4-0.7-2.5-1.6-3.4c-1.5-1.6-2.8-3-3.5-4.4c-0.2-0.3-0.1-0.6,0.4-0.9c1.6-1,3.4-3.2,3.4-6.7c0-5.3-5.3-8.3-11.8-8.3h-5.8
		c-4,0-6,1.9-6,4.5v18.7c0,2.5,1.8,4.5,5,4.5c3.3,0,5-2,5-4.5v-4.4c0-0.5,0.3-0.8,0.8-0.8c0.6,0,0.8,0.3,0.9,0.8
		c0.5,2.1,1.7,5,3.1,6.5C172.2,90.7,173.8,91.3,175.4,91.3L175.4,91.3 M167.1,75.3h-0.7c-0.9,0-1.3-0.4-1.3-1v-2.8
		c0-0.5,0.4-1,1.3-1h0.7c2.1,0,2.8,1.3,2.8,2.3C169.9,73.9,169.2,75.3,167.1,75.3L167.1,75.3 M204.7,93.7c-5.2,0-8.1,3.2-8.1,7.3v9
		c0,0.8-0.3,1.1-0.9,1.1c-0.4,0-0.7-0.2-1.1-0.8L187.6,99c-2.7-4.3-5.5-5.3-8.7-5.3c-5.3,0-8.3,3.3-8.3,7.5V127
		c0,4.1,2.9,7.3,8.1,7.3c5.2,0,8.1-3.2,8.1-7.3v-9c0-0.8,0.3-1.1,0.9-1.1c0.4,0,0.7,0.2,1.1,0.8l7.1,11.3c2.7,4.3,5.6,5.3,8.7,5.3
		c5.3,0,8.3-3.3,8.3-7.5V101C212.8,96.9,209.9,93.7,204.7,93.7L204.7,93.7"/>
</g>
</svg>
