<!-- Generator: Adobe Illustrator 28.1.0, SVG Export Plug-In . SVG Version: 6.00 Build 0)  -->
<svg version="1.1" id="Layer_1" xmlns="http://www.w3.org/2000/svg" xmlns:xlink="http://www.w3.org/1999/xlink" x="0px" y="0px"
	 viewBox="0 0 72 72" style="enable-background:new 0 0 72 72;" xml:space="preserve">
<path d="M54.1,36c6.3-2.8,10.4-6.9,10.7-11.6c0,0-1.7-1.3-7-3.3C53,19.4,49.4,19,49.4,19l0,10.3c0,1.5-0.6,3.1-1.8,4.5
	c-3.6-0.9-7.5-1.3-11.7-1.3h0c-4.1,0-8.1,0.5-11.7,1.3c-1.2-1.4-1.8-3-1.8-4.5l0-10.3c0,0-3.6,0.4-8.3,2.1c-5.4,2-7,3.3-7,3.3
	c0.2,4.6,4.3,8.8,10.7,11.6c-6.3,2.8-10.4,6.9-10.7,11.6c0,0,1.7,1.3,7,3.3c4.7,1.7,8.3,2.1,8.3,2.1l0-10.3c0-1.5,0.6-3.1,1.8-4.5
	c3.6,0.9,7.5,1.3,11.7,1.3l0,0c4.1,0,8.1-0.5,11.7-1.3c1.2,1.4,1.8,3,1.8,4.5l0,10.3c0,0,3.6-0.4,8.3-2.1c5.4-2,7-3.3,7-3.3
	C64.6,42.9,60.5,38.8,54.1,36 M36,38.3L36,38.3l-0.1,0c-3.7,0-6.8-0.9-9-2.3c2.2-1.4,5.3-2.3,9-2.3H36h0h0.1c3.7,0,6.8,0.9,9,2.3
	c-2.2,1.4-5.3,2.3-9,2.3"/>
</svg>
