<!-- Generator: Adobe Illustrator 28.1.0, SVG Export Plug-In . SVG Version: 6.00 Build 0)  -->
<svg version="1.1" id="Layer_1" xmlns="http://www.w3.org/2000/svg" xmlns:xlink="http://www.w3.org/1999/xlink" x="0px" y="0px"
	 viewBox="0 0 72 72" style="enable-background:new 0 0 72 72;" xml:space="preserve">
<style type="text/css">
	.st0{fill-rule:evenodd;clip-rule:evenodd;}
</style>
<g>
	<path class="st0" d="M63.9,29c-1.5,1-3.4,2.8-5.4,5c-0.3-2.6-0.6-5.3-0.8-8.3c-0.4-7.2-0.5-13.1,0.7-16.2c0.7-1.8,0-2.2-1.2-1.7
		c-5.1,2.2-12.5,8.5-12.7,18.7c-0.1,3.5,0.8,6.7,2.1,9.3c-1.8,1.6-4,1.3-5.7,1.7c-0.8-2.8-1.6-6-4.4-7.6c-4.7-3.5-10.8,0-15.5,3.2
		c-0.3-2.3-0.5-4.6-0.7-7.3c-0.5-7.2-0.5-13.1,0.7-16.2c0.7-1.8,0-2.2-1.2-1.7c-5.1,2.2-12.5,8.5-12.7,18.7
		C7.1,34.1,11,39.9,15.4,42c-0.1,0.2-0.3,0.4-0.4,0.6c-3.2,5.3-4.1,8.2-4.9,11.4c-1.2,4.7-0.8,9.7,2.2,10.3
		c4.1,0.9,8.3-6.4,9.2-13.3c0.8-5.8,0.4-10.2-0.1-14.8c0.1-0.1,0.1-0.2,0.2-0.2c0.4-0.5,0.8-1.1,1.2-1.6c1.9-1.8,4-2.9,6-3.8
		c2.3-0.6,4.7-0.1,6.5,1.4c0.8,1,2,2.2,1.6,3.5c-1.8-0.5-3.3-1.7-5.4-1.6c-1.9-0.2-3.9,0.1-4.9,1.9c-0.6,1.4,0.5,2.7,1.4,3.7
		c2.6,3,10.3-1.5,10.8,3.8c1.3-0.5,1.2-2.3,1.8-3.5c2.3-0.9,4.4-1.2,7.4-1.8c1.4,1.9,3,3.3,4.8,4.1c-0.1,0.2-0.3,0.4-0.4,0.6
		c-3.2,5.3-4.1,8.2-4.9,11.4c-1.2,4.7-0.8,9.7,2.2,10.3c4.1,0.9,8.3-6.4,9.2-13.3c0.8-5.8,0.4-10.2-0.1-14.8
		c0.1-0.1,0.1-0.2,0.2-0.2c1.8-2.3,4.4-4.6,5.3-5.5C64.9,29.7,65.2,28.2,63.9,29L63.9,29z M18.7,54c-0.7,7-3.9,7.7-5.3,7.1
		c-1.7-0.6-2.1-5.7,0.4-12.1c1.2-3.1,2.8-5.8,4.2-8.1C18.6,45.7,19.1,50.3,18.7,54L18.7,54z M19.6,10.4c-0.9,2.1-2.8,6.1-3,12.9
		c-0.2,4.4,0.6,9.8,1.2,15.1c-0.6,0.8-1.1,1.6-1.6,2.4c-3.1-2.2-4.7-6.8-4.9-13.9c-0.3-10.7,4.9-15.9,7.7-17.2
		C19.6,9.4,20,9.4,19.6,10.4L19.6,10.4z M36.1,38.6c-1.3,0.5-3.5,0.2-4.8-0.6c-0.4-0.4-1.4-1.1-0.7-1.8c2.1-1.2,4,0.1,5.5,1.8V38.6
		L36.1,38.6z M56.1,54c-0.7,7-3.9,7.7-5.3,7.1c-1.7-0.6-2.1-5.7,0.4-12.1c1.2-3.1,2.8-5.8,4.2-8.1C56,45.7,56.4,50.3,56.1,54
		L56.1,54z M56.9,10.4c-0.9,2.1-2.8,6.1-3,12.9c-0.2,4.4,0.6,9.8,1.2,15.1c-0.6,0.8-1.1,1.6-1.6,2.4c-3.1-2.2-4.7-6.8-4.9-13.9
		c-0.3-10.7,4.9-15.9,7.7-17.2C57,9.4,57.4,9.4,56.9,10.4z"/>
</g>
</svg>
