<!-- Generator: Adobe Illustrator 28.1.0, SVG Export Plug-In . SVG Version: 6.00 Build 0)  -->
<svg version="1.1" id="Layer_1" xmlns="http://www.w3.org/2000/svg" xmlns:xlink="http://www.w3.org/1999/xlink" x="0px" y="0px"
	 viewBox="0 0 72 72" style="enable-background:new 0 0 72 72;" xml:space="preserve">
<style type="text/css">
	.st0{fill-rule:evenodd;clip-rule:evenodd;}
</style>
<path class="st0" d="M17.3,26.1c-5.5,0-10.2,4.6-10.1,10.1c0.1,5.4,4.6,9.7,10.1,9.7c2.4,0,4.5-0.8,6.2-2.1c1.7,1.3,3.9,2.1,6.2,2.1
	c2.4,0,4.5-0.8,6.2-2.1c1.7,1.3,3.9,2.1,6.2,2.1c2.4,0,4.5-0.8,6.2-2.1c1.7,1.3,3.9,2.1,6.2,2.1c5.5,0,10-4.3,10.1-9.7
	c0.1-5.5-4.5-10.1-10.1-10.1c-2.3,0-4.5,0.8-6.2,2.2c-1.7-1.4-3.9-2.2-6.2-2.2s-4.5,0.8-6.2,2.2c-1.7-1.4-3.9-2.2-6.2-2.2
	s-4.5,0.8-6.2,2.2C21.8,26.9,19.6,26.1,17.3,26.1z M29.8,43.7c-1.7,0-3.3-0.6-4.6-1.5c1.3-1.6,2.1-3.7,2.2-6c0-2.4-0.8-4.6-2.2-6.3
	c1.3-1,2.9-1.5,4.6-1.5s3.3,0.6,4.6,1.5c-1.4,1.7-2.2,3.9-2.2,6.3c0,2.3,0.9,4.3,2.2,6C33.1,43.1,31.5,43.7,29.8,43.7z M25,36.1
	c0-1.7-0.6-3.3-1.5-4.6c-1,1.3-1.6,2.9-1.5,4.6c0,1.7,0.6,3.2,1.5,4.4C24.4,39.3,25,37.8,25,36.1z M19.7,36.2c0-2.4,0.8-4.6,2.2-6.3
	c-1.3-1-2.9-1.5-4.6-1.5c-4.3,0-7.9,3.5-7.8,7.8c0.1,4.2,3.5,7.5,7.8,7.5c1.7,0,3.3-0.6,4.6-1.5C20.5,40.5,19.7,38.4,19.7,36.2z
	 M39.8,36.2c0-2.4-0.8-4.6-2.2-6.3c1.3-1,2.9-1.5,4.6-1.5c1.7,0,3.3,0.6,4.6,1.5c-1.4,1.7-2.2,3.9-2.2,6.3c0,2.3,0.9,4.3,2.2,6
	c-1.3,0.9-2.9,1.5-4.6,1.5c-1.7,0-3.3-0.6-4.6-1.5C39,40.5,39.8,38.4,39.8,36.2z M47,36.1c0-1.7,0.6-3.3,1.5-4.6
	c1,1.3,1.6,2.9,1.5,4.6c0,1.7-0.6,3.2-1.5,4.4C47.6,39.3,47,37.8,47,36.1z M54.7,43.7c-1.7,0-3.3-0.6-4.6-1.5c1.3-1.6,2.1-3.7,2.2-6
	c0-2.4-0.8-4.6-2.2-6.3c1.3-1,2.9-1.5,4.6-1.5c4.3,0,7.9,3.5,7.8,7.8C62.4,40.3,59,43.7,54.7,43.7z M37.5,36.2
	c0-1.7-0.6-3.3-1.5-4.6c-1,1.3-1.6,2.9-1.5,4.6c0,1.7,0.6,3.2,1.5,4.4C36.9,39.4,37.5,37.8,37.5,36.2z"/>
</svg>
