<!-- Generator: Adobe Illustrator 28.1.0, SVG Export Plug-In . SVG Version: 6.00 Build 0)  -->
<svg version="1.1" id="Layer_1" xmlns="http://www.w3.org/2000/svg" xmlns:xlink="http://www.w3.org/1999/xlink" x="0px" y="0px"
	 viewBox="0 0 72 72" style="enable-background:new 0 0 72 72;" xml:space="preserve">
<g>
	<path d="M36.7,26.6c-6.3,0-11.5,5.1-11.5,11.5s5.1,11.5,11.5,11.5c6.4,0,11.5-5.1,11.5-11.5S43,26.6,36.7,26.6z M44.7,33.8
		l-7.6,3.9c-0.2,0.1-0.5-0.1-0.5-0.3v-8.5c0-0.2,0.2-0.3,0.4-0.3c3.4,0.1,6.3,2,7.9,4.8C45,33.5,44.9,33.7,44.7,33.8z"/>
	<path d="M57.2,7.2H14.8c-4.2,0-7.6,3.4-7.6,7.6v42.5c0,4.2,3.4,7.6,7.6,7.6h42.4c4.2,0,7.6-3.4,7.6-7.6V14.8
		C64.8,10.6,61.4,7.2,57.2,7.2z M31.2,18.1c0-1.4,1.1-2.5,2.5-2.5h5.8c1.4,0,2.5,1.1,2.5,2.5v2c0,0.2-0.2,0.4-0.4,0.3
		c-1.6-0.4-3.2-0.7-4.9-0.7c-1.7,0-3.4,0.2-5.1,0.7c-0.2,0.1-0.4-0.1-0.4-0.3V18.1z M19.6,24.6c0-0.7,0.3-1.3,0.7-1.8l1.2-1.2
		c0.5-0.5,1.1-0.7,1.8-0.7s1.3,0.3,1.8,0.7l1,1c0.1,0.2,0.1,0.4-0.1,0.5c-0.8,0.6-1.6,1.2-2.3,1.9c-0.7,0.7-1.3,1.4-1.9,2.2
		c-0.1,0.2-0.4,0.2-0.5,0l-1-1C19.8,25.9,19.6,25.3,19.6,24.6z M36.7,54.3c-9,0-16.3-7.3-16.3-16.3s7.3-16.3,16.3-16.3
		C45.7,21.8,53,29,53,38S45.7,54.3,36.7,54.3z"/>
</g>
</svg>
