<!-- Generator: Adobe Illustrator 28.1.0, SVG Export Plug-In . SVG Version: 6.00 Build 0)  -->
<svg version="1.1" id="Layer_1" xmlns="http://www.w3.org/2000/svg" xmlns:xlink="http://www.w3.org/1999/xlink" x="0px" y="0px"
	 viewBox="0 0 800 850.58" style="enable-background:new 0 0 800 850.58;" xml:space="preserve">
<g id="Page-1">
	<g id="Dribbble-Light-Preview" transform="translate(-102.000000, -7439.000000)">
		<g id="icons" transform="translate(56.000000, 160.000000)">
			<path id="apple-_x5B__x23_173_x5D_" style="fill-rule:evenodd;clip-rule:evenodd;" d="M568.84,7432.01
				c29.16-33.79,48.82-80.88,43.44-127.71c-42.03,1.6-92.87,26.84-123,60.61c-27.06,29.96-50.68,77.83-44.33,123.75
				C491.82,7492.12,539.67,7465.85,568.84,7432.01 M673.96,7729.29c1.17,121.07,110.83,161.35,112.04,161.88
				c-0.89,2.83-17.51,57.4-57.76,113.79c-34.83,48.73-70.95,97.25-127.86,98.28c-55.9,1-73.9-31.76-137.85-31.76
				c-63.91,0-83.89,30.72-136.79,32.75c-54.93,1.97-96.79-52.71-131.86-101.27c-71.75-99.32-126.56-280.68-52.95-403.07
				c36.56-60.76,101.89-99.3,172.83-100.25c53.92-1,104.84,34.77,137.81,34.77c32.96,0,94.85-43.01,159.89-36.68
				c27.22,1.07,103.67,10.53,152.73,79.36C760.23,7579.45,672.99,7628.08,673.96,7729.29"/>
		</g>
	</g>
</g>
</svg>
