<!-- Generator: Adobe Illustrator 28.1.0, SVG Export Plug-In . SVG Version: 6.00 Build 0)  -->
<svg version="1.1" id="Layer_1" xmlns="http://www.w3.org/2000/svg" xmlns:xlink="http://www.w3.org/1999/xlink" x="0px" y="0px"
	 viewBox="0 0 360 180" style="enable-background:new 0 0 360 180;" xml:space="preserve">
<g>
	<path d="M76.6,64.6c5.6,0,10.2,4.6,10.2,10.2v40.6H46.2c-5.6,0-10.2-4.6-10.2-10.2V93.8c0-5.6,4.6-10.2,10.2-10.2h11v16.1
		c0,1.6,1.3,2.9,2.9,2.9h5.6V80.2c0-1.6-1.3-2.9-2.9-2.9h-26V64.6H76.6z M124.9,102.7V43.4h21.2v72h-40.6c-5.6,0-10.2-4.6-10.2-10.2
		V74.8c0-5.6,4.6-10.2,10.2-10.2h11v35.2c0,1.6,1.3,2.9,2.9,2.9L124.9,102.7L124.9,102.7z M184.2,102.7V64.6h21.2v61.8
		c0,5.6-4.6,10.2-10.2,10.2h-39.9v-14.8h28.9v-6.4h-19.5c-5.6,0-10.2-4.6-10.2-10.2V64.6h21.2v35.2c0,1.6,1.3,2.9,2.9,2.9
		L184.2,102.7L184.2,102.7z M254.5,64.6c5.6,0,10.2,4.6,10.2,10.2v11.4c0,5.6-4.6,10.2-10.2,10.2h-11V80.2c0-1.6-1.3-2.9-2.9-2.9
		h-5.6v22.5c0,1.6,1.3,2.9,2.9,2.9h26v12.7h-39.9c-5.6,0-10.2-4.6-10.2-10.2V64.6H254.5z M313.8,64.6c5.6,0,10.2,4.6,10.2,10.2v40.6
		h-21.2V80.2c0-1.6-1.3-2.9-2.9-2.9h-5.6v38.1h-21.2V64.6H313.8z"/>
</g>
</svg>
