<!-- Generator: Adobe Illustrator 28.1.0, SVG Export Plug-In . SVG Version: 6.00 Build 0)  -->
<svg version="1.1" id="Layer_1" xmlns="http://www.w3.org/2000/svg" xmlns:xlink="http://www.w3.org/1999/xlink" x="0px" y="0px"
	 viewBox="0 0 72 72" style="enable-background:new 0 0 72 72;" xml:space="preserve">
<g>
	<path d="M36,7.2C20.1,7.2,7.2,20.1,7.2,36S20.1,64.8,36,64.8S64.8,51.9,64.8,36S51.9,7.2,36,7.2z M36,61.9
		c-14.3,0-25.9-11.6-25.9-25.9S21.7,10.1,36,10.1S61.9,21.7,61.9,36S50.3,61.9,36,61.9z"/>
	<path d="M46.2,17.5c-0.1-0.1-0.2-0.1-0.3-0.1c-0.4,0-0.6,0.3-0.6,0.6v9c0,0.3-0.2,0.5-0.5,0.5H27.2c-0.3,0-0.5-0.2-0.5-0.5v-9
		c0-0.1,0-0.2-0.1-0.3c-0.2-0.3-0.6-0.4-1-0.2c-6.4,4-10.3,10.9-10.3,18.5s3.9,14.5,10.4,18.5c0.1,0.1,0.2,0.1,0.3,0.1
		c0.4,0,0.6-0.3,0.6-0.6v-9c0-0.3,0.2-0.5,0.5-0.5h17.4c0.3,0,0.5,0.2,0.5,0.5v9c0,0.1,0,0.2,0.1,0.3c0.2,0.3,0.6,0.4,1,0.2
		c6.4-4,10.4-10.9,10.4-18.5S52.8,21.5,46.2,17.5L46.2,17.5z M23.3,47.3l0.1,1.1l-0.8-0.9c-5.4-6.8-5.4-16.2,0-23l0.6-0.8l0.1-0.1
		l-0.1,1.1c-0.1,0.9-0.1,1.8-0.1,2.7v17.1C23.2,45.5,23.3,46.3,23.3,47.3z M45.2,40.3c0,0.3-0.2,0.5-0.5,0.5H27.2
		c-0.3,0-0.5-0.2-0.5-0.5v-8.6c0-0.3,0.2-0.5,0.5-0.5h17.4c0.3,0,0.5,0.2,0.5,0.5v8.6H45.2z M49.1,47.5l-0.8,0.9l0.1-1.1
		c0.1-0.9,0.1-1.8,0.1-2.7V27.4c0-1,0-1.8-0.1-2.7v-0.4v-0.5v-0.1l0.6,0.9c2.6,3.2,4,7.3,4,11.5S51.7,44.3,49.1,47.5z"/>
</g>
</svg>
