<!-- Generator: Adobe Illustrator 28.1.0, SVG Export Plug-In . SVG Version: 6.00 Build 0)  -->
<svg version="1.1" id="Layer_1" xmlns="http://www.w3.org/2000/svg" xmlns:xlink="http://www.w3.org/1999/xlink" x="0px" y="0px"
	 viewBox="0 0 360 180" style="enable-background:new 0 0 360 180;" xml:space="preserve">
<g>
	<path d="M76.1,89.3c-0.3-0.1-0.5-0.2-0.5-0.4c0-0.2,0.1-0.4,0.3-0.4c0.4-0.2,8.4-3,8.4-12.5c0-10.6-7.1-16.9-19.1-16.9H36v62.2
		h31.8c9.2,0,19.3-6.6,19.3-17.2C87,93.9,79.4,90.4,76.1,89.3L76.1,89.3z M50.7,71.7c0-0.3,0.2-0.4,0.4-0.4h11.6
		c3.8,0,6.4,2.6,6.4,6.4c0,3-2.3,6.2-6.7,6.2H51.1c-0.3,0-0.4-0.2-0.4-0.4V71.7z M62.7,108.8H51.1c-0.3,0-0.4-0.2-0.4-0.4V96
		c0-0.3,0.2-0.4,0.4-0.4h11.3c5.5,0,8.7,2.4,8.7,6.6C71.1,106.5,68.2,108.8,62.7,108.8L62.7,108.8z M185.4,83.7l-2.2-0.4
		c-5.1-1.1-10-2.4-10-6.8c0-4.4,4.1-6.3,8.1-6.3c4.7,0,9.3,2.1,12.9,5.8l9.2-9.2c-4-4.4-11-9.4-22.4-9.4c-13.7,0-22.9,7.8-22.9,19.4
		c0,12.3,9.7,16.9,17.8,18.6l2.2,0.4c7.9,1.7,11.6,2.9,11.6,7.4c0,4-3.6,6.7-8.9,6.7c-6.2,0-11.8-2.8-16-7.9l-9.4,9.2
		c5.1,6,11.7,11.4,25.6,11.4c11.9,0,24-6.9,24-20.2C204.9,88.9,195.6,85.8,185.4,83.7L185.4,83.7z M308.3,59v22.8
		c0,0.3-0.2,0.4-0.4,0.4h-19.1c-0.3,0-0.4-0.2-0.4-0.4V59h-15.6v62.2h15.6V96.8c0-0.3,0.2-0.4,0.4-0.4h19.1c0.3,0,0.4,0.2,0.4,0.4
		v24.4H324V58.9L308.3,59L308.3,59z M241.2,108.4c-7,0-14.7-5.9-14.7-18.8c0-11.8,7.1-18,14.1-18c5.2,0,8.7,2.1,11.6,6.9l12-8
		c-6.1-9.1-13.5-13.2-23.6-13.2c-20,0-29,16.2-29,32.2c0,19.5,11.8,33,28.8,33c12.6,0,18.3-4.6,24.4-13.2l-12.1-8.2
		C249.9,105.7,246.9,108.4,241.2,108.4L241.2,108.4z M122.2,57.4c-17.1,0-28.5,13.1-28.5,32.6s11.5,32.6,28.5,32.6
		s28.6-13.1,28.6-32.6S139.4,57.4,122.2,57.4L122.2,57.4z M122.2,108.4c-8.4,0-13.8-7.2-13.8-18.4c0-11.1,5.4-18.3,13.8-18.3
		c8.4,0,13.9,7.2,13.9,18.3C136.1,101.2,130.7,108.4,122.2,108.4z"/>
</g>
</svg>
