<!-- Generator: Adobe Illustrator 28.1.0, SVG Export Plug-In . SVG Version: 6.00 Build 0)  -->
<svg version="1.1" id="Layer_1" xmlns="http://www.w3.org/2000/svg" xmlns:xlink="http://www.w3.org/1999/xlink" x="0px" y="0px"
	 viewBox="0 0 2500 534" style="enable-background:new 0 0 2500 534;" xml:space="preserve">
<path d="M266.9,0.1C119.6,0.1,0,119.7,0,267s119.6,266.9,266.9,266.9S533.9,414.3,533.9,267S414.2,0.1,266.9,0.1z M266.9,507.2
	C134.3,507.2,26.8,399.3,26.8,267S134.3,26.8,266.9,26.8S507.1,134.7,507.1,267S399.5,507.2,266.9,507.2z"/>
<path d="M362.2,95.9c-0.9-0.6-2.1-0.9-3.2-0.9c-3.5,0-6.2,2.6-6.2,6.2v83.5c0,2.9-2.4,5.3-5.3,5.3H185.8c-2.9,0-5-2.4-5.3-5.3v-83.5
	c0-1.2-0.3-2.1-0.9-3.2c-1.8-2.9-5.6-3.8-8.5-2.1C111.4,132.7,75.3,196.4,75.3,267s36.2,134.3,96.4,171.1c0.9,0.6,2.1,0.9,3.2,0.9
	c3.5,0,6.2-2.6,6.2-6.2v-83.5c0-2.9,2.4-5,5.3-5.3h161.7c2.9,0,5.3,2.4,5.3,5.3v83.5c0,1.2,0.3,2.1,0.9,3.2c1.8,2.9,5.6,3.8,8.5,2.1
	c60.3-36.7,96.4-100.5,96.4-171.1S422.4,132.7,362.2,95.9L362.2,95.9z M149.9,371.7l0.9,10l-6.5-7.9c-49.7-62.6-49.7-151.1,0-213.7
	l5.6-7.1l0.9-0.9l-0.9,10.3c-0.9,8.2-1.2,16.8-1.2,25.3v158.5C148.8,354.6,149.3,363.1,149.9,371.7z M352.8,307
	c0,2.9-2.4,5.3-5.3,5.3H185.8c-2.9,0-5-2.4-5.3-5.3v-80c0-2.9,2.4-5.3,5.3-5.3h161.7c2.9,0,5.3,2.4,5.3,5.3V307z M389.2,373.7
	l-6.5,7.9l0.9-10c0.9-8.2,1.2-16.8,1.2-25.3V187.6c0-8.5-0.3-17.1-1.2-25.3l-0.3-4.4l-0.3-4.7v-1.2l6.2,7.9
	c24.1,30,37.3,68.2,37.3,106.7S413.3,343.7,389.2,373.7z"/>
<g>
	<path d="M936.6,262.3c-1.5-0.6-3.2-1.2-3.2-2.9c0-1.2,0.6-2.1,1.8-2.6c2.1-0.9,52.9-19.1,52.9-79.1c0-66.7-45-106.4-120.8-106.4
		H683.5v392.2H884c58.5,0,121.4-41.5,121.4-108.2C1005.4,291.4,957.2,269.1,936.6,262.3L936.6,262.3z M776.1,151.5
		c0-1.5,1.2-2.6,2.6-2.6h72.9c24.1,0,40.6,16.2,40.6,40.3c0,18.8-14.7,39.1-42.3,39.1h-71.1c-1.5,0-2.6-1.2-2.6-2.6L776.1,151.5z
		 M851.7,386.1h-72.9c-1.5,0-2.6-1.2-2.6-2.6v-78.2c0-1.5,1.2-2.6,2.6-2.6h71.1c35,0,55,15,55,41.5
		C904.9,371.4,886.3,386.1,851.7,386.1L851.7,386.1z M1626,227.3l-14.1-2.9c-31.7-6.8-62.6-15.3-62.6-42.6s25.6-39.7,50.9-39.7
		c29.7,0,59.1,13.2,81.4,36.2l58.2-57.6c-25-27.6-69.4-59.4-141.1-59.4c-86.4,0-144.6,49.1-144.6,122.3c0,77.3,60.9,106.4,112,117.3
		l13.8,2.9c49.7,10.6,73.2,18.5,73.2,46.7c0,25.3-22.6,42-56.2,42c-39.4,0-74.4-17.3-100.8-50l-59.7,58.5
		c31.7,37.6,73.8,71.7,161.7,71.7c75,0,151.1-43.5,151.1-127C1748.9,260.2,1690.7,240.8,1626,227.3L1626,227.3z M2400.6,71.2v143.5
		c0,1.5-1.2,2.6-2.6,2.6h-120.5c-1.5,0-2.6-1.2-2.6-2.6V71.2H2176v392.2h98.8v-154c0-1.5,1.2-2.6,2.6-2.6H2398
		c1.5,0,2.6,1.2,2.6,2.6v154h99.4V71.2H2400.6z M1977.3,383.1c-44.4,0-92.3-37-92.3-118.5c0-74.4,45-113.2,89.4-113.2
		c32.3,0,55,13.5,72.9,43.5l75.8-50.3c-38.8-57-85-82.9-149.3-82.9c-126.1,0-182.6,102-182.6,202.8c0,122.6,74.7,208.1,181.4,208.1
		c79.4,0,115.5-29.1,153.5-82.9l-76.4-51.4C2032.6,366.1,2014.1,383.1,1977.3,383.1L1977.3,383.1z M1227.4,61.2
		c-107.9,0-180.2,82.6-180.2,205.8s72.3,205.8,180.2,205.8s180.2-82.6,180.2-205.8S1335.3,61.2,1227.4,61.2L1227.4,61.2z
		 M1227.4,383.1c-52.9,0-87-45.6-87-116.1c0-70.3,34.1-115.5,87-115.5c53.2,0,87.6,45.3,87.6,115.5
		C1315,337.6,1280.6,383.1,1227.4,383.1z"/>
</g>
</svg>
