<!-- Generator: Adobe Illustrator 28.1.0, SVG Export Plug-In . SVG Version: 6.00 Build 0)  -->
<svg version="1.1" id="Layer_1" xmlns="http://www.w3.org/2000/svg" xmlns:xlink="http://www.w3.org/1999/xlink" x="0px" y="0px"
	 viewBox="0 0 256 256" style="enable-background:new 0 0 256 256;" xml:space="preserve">
<g>
	<path d="M254.58,142.03l-31.51-15.22l29.85-13.96c2.32-1.09,3.67-3.95,2.07-6.62l-3.1-3.59c-2-2.19-4.18-3.79-6.82-2.75
		l-22.18,8.36c-0.48,0.18-1.01,0.21-1.51,0.06l-8.58-2.43c-0.64-0.18-1.32-0.01-1.8,0.44l-9.18,8.72
		c-2.06-11.8-6.85-22.66-13.74-31.87l13.43-0.11c0.58,0,1.11-0.32,1.39-0.83l4.75-8.62c0.25-0.45,0.64-0.8,1.11-1l21.97-9.37
		c1.35-0.58,2.18-3.38,1.92-5.2l-0.71-6.56c-0.58-1.88-3.23-3.54-4.49-3.08l-33.04,11.52l11.24-30.98c0.87-2.41-0.2-5.39-3.22-6.15
		l-4.73-0.34c-2.96-0.13-5.63,0.27-6.76,2.88l-9.77,21.59c-0.21,0.47-0.57,0.86-1.02,1.11l-7.79,4.35
		c-0.58,0.32-0.94,0.93-0.96,1.59l-0.33,12.66c-9.4-6.6-20.37-11.11-32.26-12.82l9.43-9.57c0.41-0.41,0.56-1.01,0.4-1.57l-2.74-9.46
		c-0.14-0.49-0.12-1.02,0.08-1.49l8.91-22.16c0.55-1.36-0.85-3.93-2.32-5.03l-5.14-4.13c-1.75-0.92-4.79-0.22-5.35,1l-15.22,31.51
		L112.84,3.08c-1.09-2.32-3.95-3.67-6.62-2.07l-3.59,3.1c-2.19,2-3.79,4.17-2.75,6.82l8.36,22.18c0.18,0.49,0.21,1.01,0.06,1.51
		l-2.43,8.59c-0.18,0.64-0.01,1.32,0.44,1.8l8.72,9.18c-11.8,2.06-22.66,6.85-31.87,13.74l-0.11-13.42c0-0.58-0.32-1.11-0.83-1.39
		l-8.62-4.75c-0.45-0.25-0.8-0.64-1-1.11l-9.37-21.97c-0.57-1.35-3.38-2.18-5.2-1.92l-6.56,0.71c-1.88,0.58-3.54,3.23-3.07,4.49
		l11.52,33.05L28.96,50.39c-2.41-0.87-5.39,0.19-6.15,3.22l-0.35,4.73c-0.13,2.96,0.28,5.63,2.88,6.76l21.59,9.77
		c0.47,0.21,0.86,0.57,1.12,1.03l4.35,7.79c0.32,0.58,0.93,0.94,1.59,0.96l12.66,0.33c-6.6,9.4-11.11,20.37-12.82,32.26l-9.57-9.42
		c-0.41-0.41-1.01-0.56-1.57-0.4l-9.46,2.74c-0.49,0.14-1.02,0.12-1.49-0.07l-22.16-8.91c-1.36-0.55-3.93,0.85-5.03,2.32l-4.13,5.14
		c-0.92,1.75-0.22,4.79,1,5.35l31.51,15.22L3.08,143.15c-2.32,1.09-3.67,3.95-2.07,6.62l3.1,3.59c2,2.19,4.18,3.79,6.82,2.75
		l22.18-8.36c0.48-0.18,1.01-0.2,1.51-0.06l8.58,2.43c0.64,0.18,1.32,0.01,1.8-0.44l9.18-8.72c2.06,11.8,6.85,22.66,13.74,31.87
		l-13.42,0.11c-0.58,0-1.11,0.32-1.39,0.83l-4.75,8.62c-0.25,0.45-0.64,0.8-1.11,1l-21.97,9.37c-1.35,0.57-2.18,3.38-1.92,5.2
		l0.71,6.56c0.59,1.88,3.23,3.54,4.5,3.07l33.04-11.52l-11.24,30.98c-0.87,2.4,0.19,5.39,3.22,6.15l4.73,0.35
		c2.96,0.13,5.63-0.28,6.76-2.88l9.77-21.59c0.21-0.47,0.57-0.86,1.03-1.11l7.79-4.35c0.58-0.32,0.94-0.93,0.96-1.59l0.33-12.66
		c9.4,6.6,20.37,11.11,32.26,12.82l-9.43,9.57c-0.4,0.41-0.56,1.01-0.4,1.57l2.74,9.46c0.14,0.49,0.11,1.02-0.08,1.49l-8.91,22.16
		c-0.55,1.36,0.85,3.93,2.32,5.03l5.14,4.13c1.75,0.92,4.79,0.22,5.35-1l15.22-31.51l13.96,29.85c1.09,2.32,3.95,3.67,6.62,2.07
		l3.59-3.1c2.19-2,3.79-4.18,2.75-6.82l-8.36-22.18c-0.18-0.49-0.21-1.01-0.06-1.51l2.43-8.59c0.18-0.64,0.01-1.32-0.44-1.8
		l-8.72-9.18c11.8-2.06,22.66-6.85,31.87-13.74l0.11,13.43c0,0.58,0.32,1.11,0.83,1.39l8.62,4.75c0.45,0.25,0.8,0.64,1,1.11
		l9.37,21.97c0.57,1.35,3.38,2.18,5.2,1.92l6.56-0.71c1.88-0.59,3.54-3.23,3.08-4.49l-11.52-33.05l30.98,11.24
		c2.41,0.87,5.39-0.2,6.15-3.21l0.35-4.73c0.13-2.96-0.28-5.63-2.88-6.76l-21.59-9.77c-0.47-0.21-0.86-0.57-1.12-1.02l-4.35-7.79
		c-0.32-0.58-0.93-0.94-1.59-0.96l-12.66-0.33c6.6-9.4,11.11-20.37,12.82-32.26l9.57,9.43c0.41,0.41,1.01,0.56,1.57,0.4l9.46-2.74
		c0.49-0.14,1.02-0.12,1.49,0.07l22.16,8.91c1.36,0.55,3.93-0.85,5.03-2.32l4.13-5.14C256.5,145.63,255.8,142.59,254.58,142.03
		L254.58,142.03z M181.73,119.64H165.8c-1.16-5.27-3.39-10.13-6.45-14.35l11.17-11.17C176.29,101.35,180.26,110.08,181.73,119.64
		L181.73,119.64z M148.81,95.36c-4.38-2.8-9.36-4.75-14.71-5.6V73.98c9.65,1.08,18.52,4.68,25.97,10.13L148.81,95.36L148.81,95.36z
		 M146.87,128c0,10.42-8.45,18.88-18.88,18.88c-10.42,0-18.88-8.45-18.88-18.88s8.45-18.88,18.88-18.88
		C138.42,109.12,146.87,117.58,146.87,128L146.87,128z M119.64,74.26V90.2c-5.27,1.16-10.13,3.39-14.35,6.45L94.12,85.48
		C101.35,79.71,110.08,75.74,119.64,74.26L119.64,74.26z M95.36,107.18c-2.8,4.38-4.75,9.36-5.6,14.71H73.98
		c1.08-9.65,4.68-18.52,10.13-25.97L95.36,107.18L95.36,107.18z M74.27,136.36H90.2c1.16,5.27,3.39,10.13,6.45,14.35l-11.17,11.17
		C79.71,154.65,75.74,145.92,74.27,136.36L74.27,136.36z M107.18,160.63c4.38,2.8,9.36,4.75,14.71,5.6v15.79
		c-9.64-1.08-18.52-4.68-25.97-10.13L107.18,160.63L107.18,160.63z M136.36,181.73V165.8c5.27-1.16,10.13-3.39,14.35-6.45
		l11.17,11.17C154.65,176.29,145.92,180.26,136.36,181.73L136.36,181.73z M160.64,148.81c2.8-4.38,4.75-9.36,5.6-14.71h15.79
		c-1.08,9.64-4.68,18.52-10.13,25.97L160.64,148.81L160.64,148.81z"/>
</g>
</svg>
