<!-- Generator: Adobe Illustrator 28.1.0, SVG Export Plug-In . SVG Version: 6.00 Build 0)  -->
<svg version="1.1" id="Layer_1" xmlns="http://www.w3.org/2000/svg" xmlns:xlink="http://www.w3.org/1999/xlink" x="0px" y="0px"
	 viewBox="0 0 360 180" style="enable-background:new 0 0 360 180;" xml:space="preserve">
<g>
	<rect x="36" y="35.7" width="20.8" height="20.8"/>
	<path d="M56.3,144.3V69.2H36.5v75.1L56.3,144.3C56.3,144.2,56.3,144.3,56.3,144.3z M187.5,145v-18.4c-2.9,0-5.3-0.1-7.1-0.4
		c-2.1-0.3-3.6-1-4.7-2.1c-1-1-1.7-2.5-2.1-4.5c-0.3-1.9-0.4-4.3-0.4-7.3V86.1h14.3v-17h-14.3V39.9h-19.8v72.6
		c0,6.2,0.5,11.4,1.6,15.5c1,4.1,2.8,7.4,5.3,9.9c2.4,2.5,5.7,4.3,9.6,5.4c4,1.1,9.1,1.6,15.1,1.6H187.5L187.5,145z M300.9,144.3
		V34.1H281v110.2H300.9z M134.3,76.6c-5.5-5.9-13.2-8.9-23-8.9c-4.7,0-9.1,1-13,2.9c-3.9,1.9-7.2,4.6-9.9,8l-1,1.4v-1.3v-9.6H67.9
		v75.1h19.7v-40v2.7c0-0.4,0-0.9,0-1.3c0.2-7,1.9-12.2,5.2-15.6c3.5-3.6,7.7-5.3,12.5-5.3c5.7,0,10.1,1.8,13,5.2
		c2.8,3.4,4.3,8.2,4.3,14.4l0,0v0.2l0,0l0,0v39.7h20v-42.6C142.6,91,139.8,82.5,134.3,76.6z M270.8,106.6c0-5.4-1-10.5-2.8-15.2
		c-1.9-4.7-4.6-8.8-7.9-12.4c-3.4-3.6-7.5-6.3-12.2-8.3s-10-3-15.7-3c-5.4,0-10.5,1-15.3,3c-4.7,2.1-8.9,4.8-12.4,8.3
		s-6.3,7.6-8.3,12.4c-2.1,4.7-3,9.9-3,15.3s1,10.5,2.9,15.3c1.9,4.7,4.7,8.9,8.1,12.4c3.4,3.5,7.6,6.3,12.5,8.3
		c4.9,2.1,10.3,3.1,16.1,3.1c16.8,0,27.2-7.6,33.4-14.8l-14.2-10.8c-3,3.6-10.1,8.4-19,8.4c-5.6,0-10.2-1.3-13.7-3.9
		c-3.5-2.5-5.9-6.1-7.1-10.5l-0.2-0.7h59L270.8,106.6L270.8,106.6z M212,99.7c0-5.5,6.3-15.1,19.9-15.1c13.6,0,20,9.6,20,15.1
		L212,99.7z M323.4,134.8c-0.4-0.9-0.9-1.6-1.6-2.3c-0.7-0.7-1.4-1.2-2.3-1.6c-0.9-0.4-1.9-0.6-2.8-0.6c-1,0-1.9,0.2-2.8,0.6
		c-0.9,0.4-1.6,0.9-2.3,1.6s-1.2,1.4-1.6,2.3c-0.4,0.9-0.6,1.9-0.6,2.8c0,1,0.2,1.9,0.6,2.8s0.9,1.6,1.6,2.3s1.4,1.2,2.3,1.6
		c0.9,0.4,1.9,0.6,2.8,0.6c1,0,1.9-0.2,2.8-0.6c0.9-0.4,1.6-0.9,2.3-1.6c0.7-0.7,1.2-1.4,1.6-2.3c0.4-0.9,0.6-1.9,0.6-2.8
		C324,136.7,323.8,135.7,323.4,134.8z M322.2,140c-0.3,0.7-0.7,1.4-1.3,1.9c-0.5,0.5-1.2,1-1.9,1.3s-1.5,0.4-2.4,0.4
		c-0.8,0-1.6-0.1-2.4-0.4c-0.7-0.3-1.4-0.7-1.9-1.3s-1-1.2-1.3-1.9s-0.4-1.5-0.4-2.4c0-0.8,0.1-1.6,0.4-2.4c0.3-0.7,0.7-1.4,1.3-1.9
		c0.5-0.5,1.2-1,1.9-1.3c0.7-0.3,1.5-0.4,2.4-0.4c0.8,0,1.6,0.1,2.4,0.4c0.7,0.3,1.4,0.7,1.9,1.3c0.5,0.5,1,1.2,1.3,1.9
		c0.3,0.7,0.4,1.5,0.4,2.4S322.5,139.3,322.2,140z M318.1,138.3c0.6-0.1,1-0.3,1.4-0.7s0.6-0.9,0.6-1.6c0-0.8-0.2-1.4-0.7-1.9
		c-0.4-0.4-1.3-0.7-2.2-0.7h-3.3v8.4h1.6v-3.4h1.1l2.1,3.4h1.6L318.1,138.3z M317.2,137c-0.2,0-0.4,0-0.7,0h-1.1v-2.4h1.1
		c0.2,0,0.4,0,0.7,0c0.2,0,0.4,0.1,0.7,0.1c0.2,0.1,0.4,0.2,0.4,0.4c0.1,0.1,0.1,0.4,0.1,0.7c0,0.3-0.1,0.5-0.1,0.7
		c-0.1,0.1-0.3,0.3-0.4,0.4C317.7,137,317.5,137,317.2,137z"/>
</g>
</svg>
