<!-- Generator: Adobe Illustrator 28.1.0, SVG Export Plug-In . SVG Version: 6.00 Build 0)  -->
<svg version="1.1"
	 id="svg16893" xmlns:svg="http://www.w3.org/2000/svg" xmlns:cc="http://creativecommons.org/ns#" xmlns:dc="http://purl.org/dc/elements/1.1/" xmlns:rdf="http://www.w3.org/1999/02/22-rdf-syntax-ns#"
	 xmlns="http://www.w3.org/2000/svg" xmlns:xlink="http://www.w3.org/1999/xlink" x="0px" y="0px" viewBox="0 0 72 72"
	 style="enable-background:new 0 0 72 72;" xml:space="preserve">
<g id="layer1" transform="translate(52.439903,-476.81564)">
	<g id="g15902" transform="matrix(2.1025538,0,0,-2.1025538,-945.43842,1967.8152)">
		<g>
			<g id="g15904">
				<g id="g15914" transform="translate(471.0004,695.3475)">
					<path id="path15916" d="M-20.3,0c-1.8,2.7-3.4,3.6-3.8,4c-0.5,0.5-0.9,1-1.1,1.3c-0.5,0.6-1.2,1.3-2.3,1.3
						c-1.1,0-1.8-0.7-2-1.3c-0.1-0.2-0.1-0.4-0.2-0.5c-0.1-0.2-0.6-1-0.8-1.3h0.9l-0.4-0.8c0.5,0.1,0.9,0.2,1.4,0.2
						c0.4,0,0.7-0.1,0.9-0.4c0.3-0.5,0.3-2,0.7-3.2c0.4-1.1,1.4-2.1,2.5-2.9c0,0,0,0,0,0c0.1,0,0.1,0,0.1,0.1c0,0,0,0,0,0.1
						c-0.9,0.9-1.6,1.9-2,3c-0.4,1.1-0.3,2.6-0.7,3.3c-0.2,0.4-0.7,0.6-1.2,0.6c-0.4,0-0.7-0.1-0.8-0.1l0.4,0.7h-0.7
						c0.1,0.2,0.3,0.5,0.4,0.6c0.1,0.1,0.1,0.3,0.2,0.5c0.3,0.6,0.8,1,1.5,1c0.9,0,1.4-0.6,2-1.2c0.2-0.3,0.6-0.8,1.1-1.3
						c0.3-0.3,0.9-0.6,1.8-1.6c0.5-0.6,1.2-1.3,1.8-2.2c2.3-3.4,3.9-6.4,4.7-8.8l0,0c-2.5,1.7-4.6,3.2-6.3,5.2c-1.2,1.4-2.3,3-3.2,5
						c-0.1,0.1-0.1,0.3-0.2,0.4c0,0.1,0,0.1-0.1,0.1c0,0-0.1,0-0.1-0.1c0-0.1,0-0.2,0.1-0.4c0.5-2.1,1.8-4,3.3-5.6
						c1.4-1.6,3.1-2.9,4.4-3.9l1-3c0-0.1,0.1-0.2,0.1-0.2c0-0.1,0-0.1,0-0.1c0,0-0.1,0-0.2,0h-0.3c-0.1,0-0.2,0-0.2,0.1
						s-0.1,0.1-0.1,0.2c-0.1,0.3-0.6,1.8-0.7,2.2c0,0.1-0.1,0.1-0.1,0.1c0,0-0.1,0-0.1-0.1c0,0,0-0.1,0-0.2c0.1-0.7,0.3-1.5,0.4-1.8
						c0-0.1,0.1-0.3,0.1-0.4c0-0.1,0-0.1-0.1-0.2l-0.3-0.3c-0.1-0.1-0.1-0.1-0.2-0.1c-0.1,0-0.1,0.1-0.2,0.2
						c-0.4,1.7-0.9,3.8-1.1,4.4c0,0.1-0.1,0.2-0.1,0.2c-0.1,0-0.1,0-0.1-0.1c0,0,0-0.1,0-0.1c0.1-0.6,0.4-2.8,0.8-4.9
						c0.1-0.3,0.2-0.5,0.5-0.5c0.1,0,0.3,0.1,0.4,0.2c0.2,0.2,0.3,0.3,0.5,0.5c0.2,0.2,0.3,0.2,0.6,0.2h0.7c0.2,0,0.3,0,0.3,0.1
						c0.1,0.1,0.1,0.2,0.1,0.3c0,0.1,0,0.3-0.1,0.4c-0.2,0.5-0.8,2.2-0.9,2.6l0,0c0.6-0.5,1.5-1,1.9-1c0.1,0,0.2,0.1,0.2,0.2
						C-15.5-8.7-16.9-5.1-20.3,0"/>
				</g>
				<g id="g15918" transform="translate(437.2935,706.7568)">
					<path id="path15920" d="M-3.2-5.8c0.1,0.2,0.3,0.4,0.6,0.4C-2.2-5.4-2-5.7-2-6.1c0-0.2-0.1-0.4-0.3-0.5c0-0.1,0.1-0.2,0.1-0.3
						c0-0.4-0.2-0.7-0.7-0.8C-2.9-8-3-8.3-3.2-8.4c-0.3-0.3-0.6-0.3-0.6-0.4c0-0.1,0-0.1,0.2-0.1c0.5,0,1.1,0.3,1.1,0.8
						C-2-8-1.7-7.4-1.7-7c0,0.1,0,0.2-0.1,0.3C-1.6-6.6-1.4-6.4-1.4-6c0,0.3-0.1,0.6-0.4,0.8C-2-5-2.3-4.9-2.6-4.9
						c-0.5,0-0.8-0.3-1-0.5c-0.5,0-1.2-0.6-1.2-1.4h-0.1c0,0.3-0.3,0.5-0.6,0.5c-0.2,0.6-0.7,1.1-1.4,1.1c-0.1,0-0.2,0-0.3,0
						C-7.4-5-7.6-4.9-8-4.9c-0.7,0-1.2-0.5-1.2-1.2C-9.1-6.5-9-6.8-8.6-7c0,0,0-0.1,0-0.1c0-0.5,0.6-1.4,1.4-1.4
						c0-0.1,0.2-0.3,0.4-0.4v-0.1h-0.1c-1.2,0-1.7-0.6-1.7-0.9c-0.4-0.1-0.6-0.5-0.6-0.9c0-0.7,0.5-1.2,1.2-1.2
						c0.2,0,0.5,0.1,0.6,0.2c0.1,0,0.3-0.1,0.4-0.1c0.3,0,0.7,0.1,1,0.5c0,0,0.1,0,0.1,0c0.4,0,0.8,0.3,1,0.6c0,0.1,0.1,0.2,0.1,0.2
						s0,0.1-0.1,0.1c-0.1,0-0.1-0.1-0.2-0.2c-0.3-0.2-0.7-0.3-1.1-0.3c-0.2-0.3-0.5-0.5-0.8-0.5c-0.2,0-0.4,0.1-0.6,0.2
						c-0.1-0.2-0.3-0.2-0.5-0.2c-0.4,0-0.6,0.3-0.6,0.7c0,0.3,0.2,0.5,0.4,0.6c0,0.5,0.6,0.8,1.2,0.8c0.1,0,0.2,0,0.3,0
						C-6.6-9.2-6.4-9-6.1-9c0.1,0,0.1,0,0.2,0s0.1,0.1,0.1,0.1c0,0,0,0.1-0.1,0.1c0,0-0.1,0-0.2,0C-6.4-8.6-6.7-8.4-6.9-8
						c-0.7,0-1.3,0.6-1.3,1.2v0c-0.2,0.1-0.4,0.3-0.4,0.6c0,0.4,0.3,0.6,0.6,0.6c0.2,0,0.4-0.1,0.5-0.3c0.1,0,0.2,0,0.3,0
						c0.5,0,1.1-0.3,1.2-1C-5.1-6.8-5-7.3-4.9-7.6c0-0.1,0-0.2,0.1-0.2c0.1,0,0.1,0.1,0.1,0.2C-4.6-7.3-4.5-7.2-4.3-7
						C-4.3-6.4-3.9-5.8-3.2-5.8"/>
				</g>
				<g id="g15922" transform="translate(440.1505,699.0592)">
					<path id="path15924" d="M-4.6-1.9C-4.9-2.2-5-2.4-5.6-3c-0.7-0.8-1-1.5-1.6-2.9c0.1,0,0.2,0,0.4,0c0.1,0,0.1,0,0.2,0l0.1,0.2
						C-6.1-5-5.7-4.1-5.1-3.3l0.2,0.3c0.6,0.8,1,1.2,1.3,2.2c0.1,0.4,0.2,0.7,0.4,0.9c0.2,0.2,0.5,0.3,0.8,0.3
						c0.2,0,0.4-0.1,0.7-0.2c0.2-0.1,0.3-0.1,0.6-0.1c0.1,0,0.1,0,0.2,0l-0.3-0.5l0.5-0.3c-0.6-0.2-0.9-0.7-1-1c0-0.1,0-0.1,0-0.1
						c0,0,0-0.1,0.1-0.1c0.1,0,0.1,0,0.2,0.1C-1.2-1.3-1-1.1,0-0.8l-0.7,0.6l0.6,0.8h-0.5c-0.3,0-0.5,0-0.8,0.1
						C-1.9,0.9-2.1,1-2.4,1c-0.4,0-0.8-0.1-1.1-0.4C-3.9,0.2-4-0.2-4.2-0.7C-4.3-1.1-4.4-1.5-4.6-1.9"/>
				</g>
				<g id="g15926" transform="translate(442.4087,692.3728)">
					<path id="path15928" d="M-5.8,1.5c-0.3-0.4-0.7-0.9-0.9-1.4c0.1,0,0.4-0.2,0.5-0.3C-5.9,0.3-5.4,1-5.1,1.4
						C-4.9,1.9-4.7,2-4.7,2.6c0,0.1,0,0.2,0,0.3c0,0.3,0.1,0.6,0.4,0.9C-4.1,4-3.8,4.1-3.5,4.1C-3.2,4.1-3.1,4-2.8,4
						c0.2,0,0.3,0,0.4,0.1l0.1,0l-0.2-0.5L-2,3.4c-0.3-0.2-1.1-1.1-1.1-2.2c0-0.4,0.1-0.7,0.1-1c0,0,0-0.1,0.1-0.1
						c0,0,0.1,0,0.1,0.1l0,0.1c0,0.3,0,0.8,0.2,1.3c0.2,0.8,0.8,1.5,1.4,1.8L-2,3.8l0.4,0.9l-0.4-0.1c-0.2,0-0.4-0.1-0.6-0.1
						c-0.1,0-0.3,0-0.5,0.1c-0.1,0-0.3,0.1-0.5,0.1c-0.4,0-0.8-0.1-1.1-0.4c-0.5-0.5-0.5-1-0.6-1.5C-5.3,2.1-5.5,1.9-5.8,1.5"/>
				</g>
				<g id="g15930" transform="translate(467.6031,691.774)">
					<path id="path15932" d="M-18.6,1.8c0,0-0.1,0.1-0.1,0.1c-0.1,0-0.1,0-0.1-0.1c0-0.1,0-0.1,0.2-0.4c0.4-0.6,0.8-1.2,1.4-1.8
						c0.6-0.6,1.3-1.2,2.1-1.8l0.2-0.2c0,0,0.1,0,0.1,0c0,0,0.1,0,0.1,0.1c0,0,0,0,0,0.1c-0.7,0.6-1.5,1.4-2.2,2.2
						C-17.5,0.5-18.1,1.2-18.6,1.8"/>
				</g>
				<g id="g15934" transform="translate(436.0071,696.2215)">
					<path id="path15936" d="M-2.5-0.5C-2.5-0.3-2.2-0.1-2.2,0c-0.4,0.8-1,1.5-1.2,1.8l-0.2-0.2C-3.4,1.2-2.9,0.5-2.5-0.5"/>
				</g>
				<g id="g15938" transform="translate(428.8102,705.0874)">
					<path id="path15940" d="M1.1-5C1.1-4.9,1.1-4.9,1.1-5c-0.1,0.1,0,0.2,0,0.2c0,0,0,0,0.1,0C1.6-5,1.9-5.1,2.1-5.3
						C2.4-5.5,2.6-5.7,2.8-6L2.6-6.2C2.3-6,1.5-5.3,1.1-5"/>
				</g>
				<g id="g15942" transform="translate(435.7715,701.7983)">
					<path id="path15944" d="M-2.4-3.3l-0.3,0.2c0.2,0.4,0.4,0.8,0.6,1c0.2,0.2,0.3,0.4,0.5,0.5c0,0,0.1,0.1,0.1,0.1
						c0,0,0.1,0,0.1-0.1c0,0,0,0,0-0.1C-1.7-2.1-2.2-3-2.4-3.3"/>
				</g>
				<g id="g15946" transform="translate(429.1147,697.2427)">
					<path id="path15948" d="M1-1C0.9-1,0.9-1,0.8-1C0.8-1,0.8-1,0.8-0.9c0,0,0,0.1,0,0.1c0.6,0.5,1.1,0.6,1.8,0.8l0.1-0.3L1-1z"/>
				</g>
				<g id="g15950" transform="translate(454.2989,704.8614)">
					<path id="path15952" d="M-11.8-4.9c0,0.2,0.1,0.5,0.4,0.5c0.1,0,0.2,0,0.3-0.1c0.1,0,0.2-0.1,0.2-0.2c0-0.1-0.1-0.2-0.2-0.3
						c-0.1-0.1-0.3-0.2-0.5-0.2C-11.8-5.2-11.8-5-11.8-4.9"/>
				</g>
				<g id="g15954" transform="translate(444.3332,701.9946)">
					<path id="path15956" d="M-6.8-3.4C-6.8-3.2-6.6-3-6.4-3c0.1,0,0.2,0,0.3-0.1C-6-3.1-6-3.2-6-3.3c0-0.1-0.1-0.2-0.2-0.3
						c-0.1-0.1-0.2-0.1-0.3-0.1C-6.7-3.7-6.8-3.6-6.8-3.4"/>
				</g>
				<g id="g15958" transform="translate(446.6406,695.9366)">
					<path id="path15960" d="M-7.9-0.3c0,0,0,0.1,0,0.2c0,0.1,0.1,0.2,0.3,0.2c0.1,0,0.2,0,0.3-0.1c0.1,0,0.1-0.1,0.1-0.2
						c0-0.2-0.3-0.4-0.5-0.4C-7.9-0.6-7.9-0.5-7.9-0.3"/>
				</g>
				<g id="g15962" transform="translate(442.7721,683.546)">
					<path id="path15964" d="M-6,6c-0.6,0-0.9,0.3-0.9,0.7c0,0.7,1.2,1.4,2.3,1.8l0.3-0.4c-0.7-0.3-2-0.8-2-1.3
						c0-0.2,0.1-0.3,0.5-0.3c0.7,0,1.5,0.3,2.2,0.7c0,0,0.1,0,0.2,0c0.1,0,0.1,0,0.2-0.1l0.1-0.2C-4,6.5-5,6-6,6"/>
				</g>
				<g id="g15966" transform="translate(446.4247,683.1725)">
					<path id="path15968" d="M-7.8,6.2c-0.6-0.4-1.3-0.6-1.9-0.6c-0.7,0-1.2,0.3-1.7,1c-0.2,0.3-0.4,0.7-0.6,1
						c-0.2,0.4-0.5,0.6-0.9,0.6c-0.4,0-0.8-0.2-1.2-0.3l0-0.1c0-0.1,0.1-0.3,0.2-0.3c0.1,0,0.1,0,0.2,0c0.2,0.1,0.4,0.1,0.6,0.1
						c0.4,0,0.5-0.2,0.8-0.7l0.1-0.2c-0.3-0.1-0.8-0.1-1.3-0.1h-0.2l0-0.2c0-0.1,0-0.2,0.1-0.2c0.1,0,0.2,0,0.4,0
						c0.6,0,0.9,0.1,1.2,0.1c0.6-0.9,1.4-1.2,2.2-1.2c0.7,0,1.4,0.2,2,0.6L-7.8,6.2z"/>
				</g>
				<g id="g15970" transform="translate(447.7597,682.7307)">
					<path id="path15972" d="M-8.5,6.4l-0.1,0.4c1,0.5,1.9,1,3.4,1.1c0-0.6,0-1.3,0.4-1.3c0.4,0,1.2,1,2.1,2.2
						c0.1-0.1,0.2-0.2,0.4-0.3l-0.2-0.3C-3.5,7.1-4.3,6.1-5,6.1c-0.6,0-0.8,0.7-0.8,1.2C-6.7,7.2-7.6,6.9-8.5,6.4"/>
				</g>
				<g id="g15974" transform="translate(473.7398,702.4365)">
					<path id="path15976" d="M-21.7-3.6c-0.4,0-0.5,0.2-0.5,0.5c0,0.6,0.4,1.5,0.6,2h-0.6c-0.3-0.6-1.5-2.5-2.2-3.3l0.4-0.4
						c0.3,0.4,0.7,1,1.1,1.7h0.1c0,0,0-0.1,0-0.1c0-0.5,0.3-0.9,1-0.9c0.4,0,1.1,0.2,1.7,0.4c0.5,0.2,1,0.4,1.2,0.4v0.6
						c-0.3-0.1-0.8-0.3-1.4-0.5C-20.8-3.4-21.4-3.6-21.7-3.6"/>
				</g>
				<g id="g15978" transform="translate(476.3611,698.8726)">
					<path id="path15980" d="M-23-1.8c0.6,0.2,1.6,0.7,2.2,0.9v0.6c-1.2-0.4-3.3-1.3-4.8-2.1c0,0,0.3-0.4,0.3-0.4
						c0.6,0.3,1.2,0.4,1.6,0.4c0.7,0,1.3,0,2.2,0.2v0.4C-21.9-1.9-22.5-2-22.9-2c-0.2,0-0.3,0-0.3,0.1C-23.2-1.9-23.1-1.8-23-1.8"/>
				</g>
			</g>
		</g>
	</g>
	<g id="g15982" transform="matrix(2.1025538,0,0,-2.1025538,3.2464737,509.99979)">
		<path id="path15984" d="M-10.3,1l-0.2-0.4H-8L-8.2,1H-10.3z"/>
	</g>
	<g id="g15986" transform="matrix(2.1025538,0,0,-2.1025538,-945.43842,1967.8152)">
		<g>
			<g id="g15988">
				<g id="g15994" transform="translate(433.1302,687.9642)">
					<path id="path15996" d="M-1.1,3.7c0.3,0,0.5,0.1,0.7,0.2C-0.2,4,0,4.1,0.2,4.1c0.6,0,1.4-0.3,2.1-0.6c0,0,0.1,0,0.1,0
						c0.1,0,0.2,0,0.2,0.1l0.1,0.2C2,4.2,0.8,4.6,0.2,4.6c-0.3,0-0.5-0.1-0.7-0.1c-0.2-0.1-0.4-0.2-0.6-0.2c-0.5,0-1.7,0.5-1.7,0.9
						c0,0.6,2,0.8,2.2,0.8l0.2,0.4c-1.4,0-3.2-0.5-3.2-1.2c0-0.2,0.1-0.3,0.1-0.5c0-0.2-0.1-0.4-0.1-0.7c0-0.2,0.1-0.4,0.2-0.6
						C-3.2,3.3-3,3.2-3,3c0-0.1-0.1-0.3-0.1-0.6c0-0.6,0.4-1,1.1-1.8l0.1-0.2c-0.6-0.2-1.7-0.7-2-0.8C-4.8-0.7-5-1.2-5-1.9
						c0-0.3,0-0.6,0-0.9h0.2c0.4,0,0.4,0.2,0.4,0.4c0,0.1,0,0.3,0,0.5c0,0.4,0,0.8,0.7,1c0.3,0.1,1.5,0.6,2.5,1
						C-1,0.3-0.7,0.4-0.4,0.4c0.3,0,0.7-0.1,1.2-0.4c0.4-0.2,0.8-0.5,1.1-0.9l0.4,0.3C1.9-0.2,1.5,0.2,1,0.5S0,0.9-0.3,0.9
						c-0.2,0-0.3,0-0.4-0.1c-0.1,0-0.3-0.1-0.4-0.1c-0.2,0-0.3,0-0.5,0.3C-1.8,1.2-2.3,1.8-2.4,2C-2.4,2-2.5,2.2-2.5,2.4
						c0,0.1,0,0.2,0.1,0.3C-2,2.3-1.5,2.1-0.8,2l-0.1,0.5c-1,0.3-2,1.1-2,1.7c0,0.1,0,0.2,0.1,0.3C-2.4,4.1-1.6,3.7-1.1,3.7"/>
				</g>
				<g id="g15998" transform="translate(447.2593,687.7871)">
					<path id="path16000" d="M-8.3,3.8C-7.6,4.2-7,4.3-6.5,4.3c0.3,0,0.7,0,1-0.1c0.3,0,0.6-0.1,0.9-0.1c0.7,0,1.3,0.2,1.6,0.4
						c0.1-0.1,0.2-0.2,0.3-0.3c-0.1-0.1-1-0.6-1.9-0.6c-0.4,0-0.8,0-1.1,0.1c-0.3,0-0.6,0.1-0.9,0.1c-0.3,0-1-0.1-1.4-0.3L-8.3,3.8z
						"/>
				</g>
				<g id="g16002" transform="translate(465.4921,684.282)">
					<path id="path16004" d="M-17.5,5.6c-0.7-1.5-1.8-2.6-3-3.3c-0.5-0.3-1-0.5-2.1-0.5h-2.3c-0.8,0-1.3-0.1-1.7-0.2
						c-0.4-0.1-0.7-0.2-1.1-0.2c-0.6,0-1.2,0.3-1.5,0.6l0.5,0.4l-0.3,0.4c-0.2-0.1-2-1.5-2.4-1.8l0,0c0,0.1,0,0.2,0,0.3
						c0,1.1-0.5,1.3-1.2,1.6l-0.5-0.3c1-0.3,1.3-0.6,1.3-1.4c0-0.6-0.2-0.9-0.5-1c-0.3-0.2-0.7-0.3-1.1-0.3c-0.2,0-0.2,0-0.3-0.1
						c-0.1-0.1-0.1-0.1-0.1-0.3v-0.2h0.1c0.6,0,1.2,0.1,1.9,0.6l2.1,1.7c0.3-0.3,1.1-0.8,2-0.8c0.5,0,0.8,0.1,1.3,0.2
						c0.4,0.1,0.7,0.2,1.5,0.2h2.3c1.2,0,1.7,0.2,2.3,0.6c1.3,0.8,2.5,2,3.1,3.5C-17.2,5.4-17.4,5.5-17.5,5.6"/>
				</g>
				<g id="g16006" transform="translate(458.0988,680.5901)">
					<path id="path16008" d="M-13.8,7.5c0.6,0.9,1.1,1.8,2.4,2.4c-0.1,0.1-0.3,0.2-0.4,0.3c-0.5-0.2-1-0.7-1.4-1.1
						c-1-1-0.9-1.6-1.9-2c-0.3-0.1-0.6-0.2-1-0.3c-0.2,0.7-0.8,1.5-1.5,1.5c-0.4,0-0.9-0.2-1.5-0.5c-0.7-0.3-1.3-0.6-1.5-0.8
						l0.3-0.4c0.2,0.1,0.8,0.4,1.4,0.7c0.5,0.2,1,0.4,1.3,0.4c0.5,0,0.8-0.6,1-1c-0.7-0.2-1.7-0.2-2-0.2c-0.2,0-0.2,0-0.3-0.1
						c0,0-0.1-0.1-0.1-0.2l0-0.2h0.3c1.8,0,3.5,0.3,4.6,0.9c0.2,0,0.3-0.1,0.5-0.1c0.6,0,1.3,0.3,1.7,0.7c0.1,0.1,0.2,0.2,0.2,0.3
						c0,0.1,0,0.1,0,0.1l0,0.2c-0.6-0.5-1.1-0.8-1.7-0.8C-13.6,7.4-13.7,7.5-13.8,7.5"/>
				</g>
				<g id="g16010" transform="translate(430.0615,650.2685)">
				</g>
				<g id="g16014" transform="translate(439.0743,650.1949)">
				</g>
				<g id="g16018" transform="translate(447.4737,650.1949)">
				</g>
				<g id="g16022" transform="translate(458.0938,650.3558)">
				</g>
			</g>
		</g>
	</g>
</g>
</svg>
