<svg xmlns="http://www.w3.org/2000/svg" viewBox="0 0 128 128" role="img" aria-label="Tailwind CSS"><path fill="#06B6D4" d="M64.6 0C37.7 0 19.8 13.4 11 40.3c13.3-13.4 28.8-18.5 46.5-15.1 10.1 1.9 17.4 7.8 25.4 14.2 13.1 10.5 28.3 22.5 61.5 22.5 26.9 0 44.8-13.4 53.6-40.3-13.3 13.4-28.8 18.5-46.5 15.1-10.1-1.9-17.4-7.8-25.4-14.2C113 12 97.8 0 64.6 0zM37.7 60.4C10.8 60.4-7.1 73.8-16 100.7c13.3-13.4 28.8-18.5 46.5-15.1 10.1 1.9 17.4 7.8 25.4 14.2 13.1 10.5 28.3 22.5 61.5 22.5 26.9 0 44.8-13.4 53.6-40.3-13.3 13.4-28.8 18.5-46.5 15.1-10.1-1.9-17.4-7.8-25.4-14.2-13.1-10.5-28.3-22.5-61.5-22.5z" transform="translate(16 0)"/></svg>
