<!-- Generator: Adobe Illustrator 28.1.0, SVG Export Plug-In . SVG Version: 6.00 Build 0)  -->
<svg version="1.1" id="Layer_1" xmlns="http://www.w3.org/2000/svg" xmlns:xlink="http://www.w3.org/1999/xlink" x="0px" y="0px"
	 viewBox="0 0 256 236" style="enable-background:new 0 0 256 236;" xml:space="preserve">
<path d="M255.51,135.16L241.19,91.1L212.82,3.79c-1.46-4.49-7.82-4.49-9.27,0L175.18,91.1h0l0,0H80.97l0,0h0L52.6,3.79
	c-1.46-4.49-7.82-4.49-9.27,0L14.96,91.1h0l0,0l0,0v0L0.64,135.16c-1.31,4.02,0.12,8.42,3.54,10.9l123.89,90.01l0,0l0,0l0,0
	l123.89-90.01C255.38,143.58,256.81,139.18,255.51,135.16z"/>
</svg>
