<!-- Generator: Adobe Illustrator 28.1.0, SVG Export Plug-In . SVG Version: 6.00 Build 0)  -->
<svg version="1.1" id="Layer_1" xmlns="http://www.w3.org/2000/svg" xmlns:xlink="http://www.w3.org/1999/xlink" x="0px" y="0px"
	 viewBox="0 0 72 72" style="enable-background:new 0 0 72 72;" xml:space="preserve">
<style type="text/css">
	.st0{fill:#010202;}
</style>
<g>
	<path class="st0" d="M30.7,19.1c0.4-0.2,1-0.3,1.5-0.3h14.2c1.6,0,3.3,0.1,4.9,0.4c0.4,0.1,0.8,0.1,1.3,0.2
		c0.4,0.1,0.8,0.2,1.2,0.3l0.6,0.2c0.2,0.1,0.4,0.1,0.6,0.2c0.3-3.8-0.8-6.5-2.7-8.6c-2.8-3-7.6-4.3-13.9-4.3H21.4
		c-1.3,0-2.4,0.9-2.6,2.1l-7.5,47.4c-0.1,0.4,0.1,0.9,0.4,1.3c0.3,0.4,0.8,0.6,1.2,0.5h10l5.9-36.7C28.9,20.6,29.6,19.5,30.7,19.1z"
		/>
	<path class="st0" d="M53.6,22.1l-0.5-0.1c-0.3-0.1-0.7-0.2-1.1-0.2c-0.4-0.1-0.8-0.1-1.1-0.2c-1.5-0.2-3-0.3-4.5-0.3H33.1
		c-0.3,0-0.7,0.1-1,0.2c-0.7,0.3-1.1,0.9-1.3,1.7l-2.4,15c0.2-0.1,0.6-0.1,0.8-0.1h5.3c2.6,0.1,5.1-0.3,7.6-0.9
		c5.6-1.6,9.4-5.2,11.3-11c0.4-1.2,0.7-2.4,0.9-3.6C54.3,22.3,53.9,22.2,53.6,22.1z"/>
	<path class="st0" d="M58.5,24.8c-0.5-0.5-1-0.9-1.6-1.3c-1.4,7-5.9,16.9-22.3,16.9h-4.1c-1.3,0-2.4,0.9-2.6,2.1
		c0,0-3.2,19.7-3.3,20.7c-0.1,0.4,0.1,0.8,0.3,1.1c0.2,0.3,0.6,0.4,1,0.4h8.2c1.1,0,2.1-0.8,2.3-1.9l2-12.2c0.2-1.1,1.1-1.9,2.3-1.9
		H42c9.2,0,16.3-3.7,18.4-14.3c0.1-0.3,0.1-0.6,0.2-0.9C61,30,60.4,27,58.5,24.8z"/>
</g>
</svg>
