<!-- Generator: Adobe Illustrator 28.1.0, SVG Export Plug-In . SVG Version: 6.00 Build 0)  -->
<svg version="1.1"
	 id="svg20633" xmlns:svg="http://www.w3.org/2000/svg" xmlns:sodipodi="http://sodipodi.sourceforge.net/DTD/sodipodi-0.dtd" xmlns:inkscape="http://www.inkscape.org/namespaces/inkscape" xmlns:cc="http://creativecommons.org/ns#" xmlns:dc="http://purl.org/dc/elements/1.1/" xmlns:rdf="http://www.w3.org/1999/02/22-rdf-syntax-ns#"
	 xmlns="http://www.w3.org/2000/svg" xmlns:xlink="http://www.w3.org/1999/xlink" x="0px" y="0px" viewBox="0 0 72 72"
	 style="enable-background:new 0 0 72 72;" xml:space="preserve">
<sodipodi:namedview  bordercolor="#666666" borderopacity="1.0" fit-margin-bottom="0.5" fit-margin-left="0.5" fit-margin-right="0.5" fit-margin-top="0.5" id="base" inkscape:current-layer="layer1" inkscape:cx="209.108" inkscape:cy="138.89051" inkscape:document-rotation="0" inkscape:document-units="px" inkscape:pageopacity="0" inkscape:pageshadow="2" inkscape:window-height="872" inkscape:window-maximized="0" inkscape:window-width="1440" inkscape:window-x="0" inkscape:window-y="28" inkscape:zoom="0.61249759" lock-margins="true" pagecolor="#00ffff" showgrid="false" units="px">
	</sodipodi:namedview>
<g>
	<g id="g39844" transform="matrix(0.35277778,0,0,0.35277778,44.837584,10.304191)">
		<path id="path39842" d="M-33.2,6.9h4.6c4.5,0.4,9.1,1.6,12.9,4.2c4.6,3,7.8,7.8,9.1,13.1c1.7,6.6,1,13.6-1.4,19.9
			c-0.8,2.2-1.6,4.4-2.4,6.7c3.7-1,7.3-2.7,9.9-5.5c2.8-2.9,4.3-6.8,5.2-10.7c6.7,0,13.4,0,20.1,0c-3.5,9.2-6,18.9-5.8,28.8
			c0.1,11.4,4.2,22.2,5.4,33.5c0.8,7.6,0.6,15.5-1.6,22.9c-2,6.9-5.7,13.4-10.7,18.5c-5,5.3-11.3,9.2-18,11.8
			c-8.6,3.4-18,4.7-27.3,4.5c-11-0.2-22.2-2.7-31.7-8.6c-8.2-5-14.9-12.5-18.3-21.5c-3.4-9-3.1-19.3,0.9-28
			c3.2-6.8,8.8-12.3,15.5-15.5c8.3-4,17.8-5,26.8-4.1c1.3-3.3,2.5-6.6,3.8-9.9c-7.6-3.3-14.6-8.7-18.6-16.1
			c-6.1-11.1-4.7-26.2,4-35.6C-46.2,10.3-39.8,7.4-33.2,6.9 M-38.3,30.2c-1.5,3.4-1.7,7.4,0,10.8c1.8,3.7,4.6,7.2,8.4,8.9
			c0.8-1.8,1.4-3.6,2.1-5.4c1.1-2.9,2.4-5.7,2.7-8.8c0.4-2.6,0-5.4-1.7-7.4c-1.7-2.1-4.8-2.9-7.3-2C-36,26.8-37.4,28.4-38.3,30.2
			 M-17.4,69.3c-1.5,4.2-3.1,8.3-4.6,12.4c4.6,2.2,9.4,4.4,13,8.1c-2.3,5.8-4.5,11.6-6.9,17.3c-3.6-3.5-7.7-6.5-12.4-8.4
			c-2.6,6.8-5,13.5-7.6,20.3c-6.5,0-13.1,0-19.6,0c2.9-7.8,5.8-15.7,8.7-23.5c-6.4-0.2-12.9,3.1-16.4,8.5c-1.5,2.3-2.4,5-2,7.8
			c0.4,5.8,3.3,11.2,7.8,14.9c6.1,5,14.1,7.1,21.8,7.7c6.4,0.4,12.9,0.1,19.1-2c5.5-1.8,10.6-5.1,14.2-9.7c4.7-5.9,6.5-13.8,6-21.2
			c-0.5-5.7-1.9-11.3-2.9-16.9c-1.2-6.3-2.2-12.8-2.2-19.2C-6.5,67.4-11.9,68.7-17.4,69.3"/>
	</g>
	<path id="path39846" d="M50,19.9c3.6-2.7,5.4-4.2,6.5-6.2c1.6-2.8,0.6-5.2-1.4-6.1c-1.9-0.9-4.2-0.1-5.1,1.8
		c-0.9-1.9-3.2-2.7-5.1-1.8c-2.1,0.9-3,3.3-1.4,6.1C44.7,15.7,46.5,17.2,50,19.9"/>
</g>
</svg>
