<!-- Generator: Adobe Illustrator 28.1.0, SVG Export Plug-In . SVG Version: 6.00 Build 0)  -->
<svg version="1.1"
	 id="svg20633" xmlns:cc="http://creativecommons.org/ns#" xmlns:dc="http://purl.org/dc/elements/1.1/" xmlns:rdf="http://www.w3.org/1999/02/22-rdf-syntax-ns#" xmlns:inkscape="http://www.inkscape.org/namespaces/inkscape" xmlns:sodipodi="http://sodipodi.sourceforge.net/DTD/sodipodi-0.dtd" xmlns:svg="http://www.w3.org/2000/svg"
	 xmlns="http://www.w3.org/2000/svg" xmlns:xlink="http://www.w3.org/1999/xlink" x="0px" y="0px" viewBox="0 0 247.02 144.28"
	 style="enable-background:new 0 0 247.02 144.28;" xml:space="preserve">
<sodipodi:namedview  bordercolor="#666666" borderopacity="1.0" fit-margin-bottom="0.5" fit-margin-left="0.5" fit-margin-right="0.5" fit-margin-top="0.5" id="base" inkscape:current-layer="layer1" inkscape:cx="209.108" inkscape:cy="138.89051" inkscape:document-rotation="0" inkscape:document-units="px" inkscape:pageopacity="0" inkscape:pageshadow="2" inkscape:window-height="872" inkscape:window-maximized="0" inkscape:window-width="1440" inkscape:window-x="0" inkscape:window-y="28" inkscape:zoom="0.61249759" lock-margins="true" pagecolor="#00ffff" showgrid="false" units="px">
	</sodipodi:namedview>
<g id="g39844" transform="matrix(0.35277778,0,0,0.35277778,44.837584,10.304191)">
	<path id="path39842" d="M6.44,11.15h11.34c11.28,0.94,22.56,4.08,32,10.51c11.33,7.45,19.39,19.39,22.76,32.49
		c4.21,16.31,2.44,33.84-3.5,49.48c-1.94,5.53-3.95,11.04-5.91,16.56c9.15-2.4,18.11-6.61,24.63-13.63
		c7.06-7.21,10.65-16.95,12.96-26.59c16.63-0.09,33.26-0.02,49.88-0.04c-8.59,22.84-14.93,46.96-14.49,71.54
		c0.16,28.37,10.5,55.29,13.32,83.34c2.09,18.97,1.49,38.48-3.95,56.88c-4.99,17.2-14.09,33.23-26.55,46.09
		c-12.48,13.06-28.07,22.92-44.85,29.43c-21.51,8.39-44.8,11.58-67.79,11.1c-27.42-0.57-55.22-6.81-78.77-21.27
		c-20.34-12.32-37.13-31.09-45.48-53.55c-8.41-22.29-7.83-48.01,2.3-69.64c7.85-16.92,21.95-30.6,38.66-38.67
		c20.63-9.95,44.2-12.46,66.78-10.13c3.15-8.2,6.25-16.42,9.47-24.6c-19.01-8.14-36.31-21.63-46.26-40.08
		c-15.23-27.7-11.78-65.21,10.06-88.45C-25.87,19.69-9.93,12.38,6.44,11.15 M-6.03,69.25c-3.78,8.39-4.2,18.44-0.12,26.79
		c4.43,9.23,11.45,17.82,20.95,22.03c1.93-4.41,3.53-8.97,5.28-13.45c2.67-7.15,5.93-14.21,6.83-21.87
		c0.92-6.35-0.05-13.36-4.21-18.46c-4.32-5.15-11.89-7.18-18.23-5.06C-0.33,60.77-3.98,64.77-6.03,69.25 M45.95,166.44
		c-3.74,10.34-7.79,20.56-11.41,30.95c11.46,5.39,23.32,10.96,32.33,20.15c-5.66,14.39-11.3,28.79-17.17,43.1
		c-8.89-8.79-19.25-16.26-30.94-20.8C12.41,256.65,6.2,273.5-0.03,290.35c-16.28,0.04-32.57,0.02-48.85,0.01
		c7.27-19.47,14.51-38.97,21.75-58.46c-15.99-0.48-32.05,7.63-40.69,21.2c-3.68,5.67-5.91,12.53-4.98,19.33
		c0.89,14.39,8.32,27.93,19.41,37c15.14,12.54,35.01,17.66,54.26,19.1c15.91,1.09,32.21,0.14,47.41-5
		c13.69-4.43,26.36-12.59,35.26-24.02c11.65-14.73,16.2-34.2,14.87-52.73c-1.3-14.2-4.72-28.1-7.3-42.1
		c-3-15.77-5.5-31.75-5.5-47.85C72.87,161.75,59.52,165,45.95,166.44"/>
</g>
<path id="path39846" d="M89.18,32.11c8.86-6.74,13.36-10.49,16.23-15.47c4.03-7,1.59-12.95-3.52-15.27
	c-4.79-2.18-10.48-0.13-12.7,4.57c-2.22-4.7-7.91-6.75-12.71-4.57c-5.11,2.32-7.56,8.26-3.52,15.27
	C75.82,21.62,80.31,25.38,89.18,32.11"/>
<path id="path39848" d="M112.08,51.27V51.2c0-7.05,5.5-12.83,13.01-12.83c4.47,0,7.16,1.2,9.75,3.4l-3.44,4.15
	c-1.92-1.6-3.62-2.52-6.49-2.52c-3.97,0-7.13,3.51-7.13,7.73v0.07c0,4.54,3.12,7.87,7.51,7.87c1.98,0,3.76-0.5,5.14-1.49v-3.55
	h-5.49v-4.72h10.78V60.1c-2.55,2.16-6.06,3.94-10.6,3.94C117.4,64.03,112.08,58.61,112.08,51.27"/>
<path id="path39850" d="M139.49,54.21v-0.07c0-5.43,3.87-9.89,9.4-9.89c6.35,0,9.26,4.93,9.26,10.32c0,0.43-0.04,0.92-0.07,1.42
	h-13.23c0.53,2.45,2.23,3.72,4.64,3.72c1.81,0,3.12-0.57,4.61-1.95l3.09,2.73c-1.77,2.2-4.33,3.54-7.76,3.54
	C143.71,64.03,139.49,60.02,139.49,54.21 M152.89,52.61c-0.32-2.41-1.74-4.04-4.01-4.04c-2.23,0-3.69,1.6-4.11,4.04H152.89"/>
<path id="path39852" d="M162.14,44.6h5.39v2.69c1.24-1.6,2.84-3.05,5.57-3.05c4.08,0,6.45,2.69,6.45,7.05v12.3h-5.39V53
	c0-2.55-1.2-3.86-3.26-3.86c-2.06,0-3.37,1.31-3.37,3.86v10.6h-5.39V44.6"/>
<path id="path39854" d="M183.31,54.21v-0.07c0-5.43,3.87-9.89,9.4-9.89c6.35,0,9.26,4.93,9.26,10.32c0,0.43-0.04,0.92-0.07,1.42
	h-13.22c0.53,2.45,2.23,3.72,4.65,3.72c1.81,0,3.12-0.57,4.61-1.95l3.08,2.73c-1.77,2.2-4.33,3.54-7.76,3.54
	C187.53,64.03,183.31,60.02,183.31,54.21 M196.71,52.61c-0.32-2.41-1.74-4.04-4.01-4.04c-2.23,0-3.69,1.6-4.11,4.04H196.71"/>
<path id="path39856" d="M205.96,44.6h5.39v3.83c1.1-2.62,2.87-4.33,6.06-4.18v5.64h-0.28c-3.58,0-5.78,2.16-5.78,6.7v7.02h-5.39
	L205.96,44.6"/>
<path id="path39858" d="M218.76,58.15v-0.07c0-4.15,3.15-6.06,7.66-6.06c1.92,0,3.3,0.32,4.65,0.78v-0.32
	c0-2.23-1.38-3.47-4.08-3.47c-2.06,0-3.51,0.39-5.25,1.03l-1.35-4.11c2.09-0.92,4.15-1.53,7.37-1.53c2.94,0,5.07,0.78,6.42,2.13
	c1.42,1.42,2.05,3.51,2.05,6.06v11.03h-5.21v-2.06c-1.31,1.45-3.12,2.41-5.74,2.41C221.7,63.96,218.76,61.9,218.76,58.15
	 M231.13,56.9v-0.96c-0.92-0.43-2.13-0.71-3.44-0.71c-2.3,0-3.72,0.92-3.72,2.62v0.07c0,1.45,1.21,2.3,2.94,2.3
	C229.43,60.24,231.13,58.85,231.13,56.9"/>
<path id="path39860" d="M241.13,63.61h5.39V37.72h-5.39V63.61z"/>
<path id="path39862" d="M113.18,73h5.88l6.53,10.49L132.12,73H138v24.82h-5.42v-16.2l-6.98,10.6h-0.14l-6.91-10.49v16.1h-5.35
	L113.18,73"/>
<path id="path39864" d="M143.5,71.94h5.67v4.79h-5.67V71.94z M143.64,78.81h5.39v19h-5.39V78.81z"/>
<path id="path39866" d="M154.34,97.82h5.39V71.94h-5.39V97.82z"/>
<path id="path39868" d="M165.05,97.82h5.39V71.94h-5.39V97.82z"/>
<path id="path39870" d="M174.02,95.3l2.3-3.54c2.06,1.49,4.22,2.27,5.99,2.27c1.56,0,2.27-0.57,2.27-1.42v-0.07
	c0-1.17-1.84-1.56-3.94-2.2c-2.66-0.78-5.67-2.02-5.67-5.71v-0.07c0-3.86,3.12-6.03,6.95-6.03c2.41,0,5.04,0.82,7.09,2.2l-2.06,3.72
	c-1.88-1.1-3.76-1.77-5.14-1.77c-1.31,0-1.98,0.57-1.98,1.31v0.07c0,1.07,1.81,1.56,3.86,2.27c2.66,0.89,5.74,2.16,5.74,5.64v0.07
	c0,4.22-3.16,6.13-7.27,6.13C179.51,98.17,176.54,97.28,174.02,95.3"/>
</svg>
