<svg xmlns="http://www.w3.org/2000/svg" viewBox="0 0 60 25" role="img" aria-label="Stripe"><path fill="#635BFF" d="M59.64 14.28h-8.06c.19 1.93 1.6 2.55 3.2 2.55 1.64 0 2.96-.37 4.05-.95v3.32a8.33 8.33 0 0 1-4.56 1.1c-4.01 0-6.83-2.5-6.83-7.48 0-4.19 2.39-7.52 6.3-7.52 3.92 0 5.96 3.28 5.96 7.5 0 .4-.04 1.26-.06 1.48zm-5.92-5.62c-1.03 0-2.17.73-2.17 2.58h4.25c0-1.85-.1-2.58-2.08-2.58zM40.95 20.3c-1.44 0-2.32-.6-2.9-1.04l-.02 4.63L34.9 25V5.92h2.84l.06 1.03a4.7 4.7 0 0 1 3.23-1.29c2.9 0 5.62 2.6 5.62 7.4 0 5.23-2.7 7.24-5.7 7.24zm-2.88-8.97v4.32c.55.42 1.16.65 1.86.65 1.56 0 2.62-1.03 2.62-3.42s-.86-3.28-2.43-3.28c-.74 0-1.4.28-2.05.86zM27.7 5.92h3.33v14.08H27.7zM27.7 2.05L31.03 1.34v2.7l-3.33.71zM24.2 12.18c0 4.07-1.97 7.36-5.7 7.36-1.4 0-2.52-.46-3.37-1.15l-.03 5.17-3.22.68V5.92h2.88l.07 1.15a4.85 4.85 0 0 1 3.58-1.52c3.74 0 5.8 3.22 5.8 6.63zm-3.36-.5c0-2.55-.85-4.28-2.72-4.28-1.05 0-1.85.42-2.55 1.2v6.04c.55.65 1.27 1.05 2.35 1.05 1.83 0 2.92-1.55 2.92-4.01zM3.84 5.92h3.22v1.65c.6-1.04 1.67-1.88 3.07-1.88c.35 0 .65.04.95.12v3.02a4.58 4.58 0 0 0-1.2-.17c-1.16 0-2.2.62-2.82 1.72v7.62H3.84z"/></svg>
