<!-- Generator: Adobe Illustrator 28.1.0, SVG Export Plug-In . SVG Version: 6.00 Build 0)  -->
<svg version="1.1" id="svg1936" xmlns:svg="http://www.w3.org/2000/svg"
	 xmlns="http://www.w3.org/2000/svg" xmlns:xlink="http://www.w3.org/1999/xlink" x="0px" y="0px" viewBox="0 0 360 180"
	 style="enable-background:new 0 0 360 180;" xml:space="preserve">
<g>
	<path id="path8" d="M214.7,114.5c-16.7,12.3-41,18.9-61.9,18.9c-29.3,0-55.7-10.8-75.6-28.8c-1.6-1.4-0.2-3.3,1.7-2.2
		c21.5,12.5,48.1,20.1,75.6,20.1c18.5,0,38.9-3.8,57.7-11.8C215.1,109.4,217.4,112.4,214.7,114.5"/>
	<path id="path10" d="M221.6,106.5c-2.1-2.7-14.1-1.3-19.5-0.7c-1.6,0.2-1.9-1.2-0.4-2.3c9.6-6.7,25.3-4.8,27.1-2.5
		c1.8,2.3-0.5,18-9.5,25.5c-1.4,1.2-2.7,0.5-2.1-1C219.2,120.6,223.8,109.3,221.6,106.5"/>
	<path id="path12" d="M202.5,56.1v-6.5c0-1,0.8-1.7,1.7-1.7h29.3c0.9,0,1.7,0.7,1.7,1.7v5.6c0,0.9-0.8,2.2-2.2,4.1l-15.2,21.7
		c5.6-0.1,11.6,0.7,16.7,3.6c1.2,0.7,1.5,1.6,1.6,2.5v7c0,1-1.1,2.1-2.2,1.5c-9-4.7-21-5.2-31,0c-1,0.5-2.1-0.5-2.1-1.5v-6.6
		c0-1.1,0-2.9,1.1-4.5l17.6-25.2h-15.3C203.2,57.7,202.5,57.1,202.5,56.1"/>
	<path id="path14" d="M95.6,96.9h-8.9c-0.9-0.1-1.5-0.7-1.6-1.5V49.7c0-0.9,0.8-1.6,1.7-1.6h8.3c0.9,0,1.6,0.7,1.6,1.5v6h0.2
		c2.2-5.8,6.2-8.5,11.7-8.5c5.6,0,9.1,2.7,11.6,8.5c2.2-5.8,7.1-8.5,12.3-8.5c3.7,0,7.8,1.5,10.3,5c2.8,3.8,2.2,9.4,2.2,14.3l0,28.9
		c0,0.9-0.8,1.7-1.7,1.7h-8.9c-0.9-0.1-1.6-0.8-1.6-1.7V71c0-1.9,0.2-6.7-0.2-8.6c-0.7-3.1-2.7-3.9-5.2-3.9c-2.2,0-4.4,1.4-5.3,3.7
		c-0.9,2.3-0.8,6.2-0.8,8.8v24.2c0,0.9-0.8,1.7-1.7,1.7h-8.9c-0.9-0.1-1.6-0.8-1.6-1.7l0-24.2c0-5.1,0.8-12.6-5.5-12.6
		c-6.4,0-6.2,7.3-6.2,12.6v24.2C97.3,96.2,96.5,96.9,95.6,96.9"/>
	<path id="path16" d="M260.3,47c13.2,0,20.4,11.4,20.4,25.8c0,14-7.9,25-20.4,25c-13,0-20.1-11.4-20.1-25.5
		C240.3,58.1,247.4,47,260.3,47 M260.4,56.4c-6.6,0-7,9-7,14.5c0,5.6-0.1,17.5,6.9,17.5c6.9,0,7.2-9.6,7.2-15.5
		c0-3.9-0.2-8.5-1.3-12.1C265.2,57.6,263.3,56.4,260.4,56.4"/>
	<path id="path18" d="M297.9,96.9H289c-0.9-0.1-1.6-0.8-1.6-1.7l0-45.8c0.1-0.8,0.8-1.5,1.7-1.5h8.3c0.8,0,1.4,0.6,1.6,1.3v7h0.2
		c2.5-6.3,6-9.2,12.1-9.2c4,0,7.9,1.4,10.4,5.4c2.3,3.7,2.3,9.8,2.3,14.2v28.8c-0.1,0.8-0.8,1.4-1.7,1.4h-8.9
		c-0.8-0.1-1.5-0.7-1.6-1.4V70.6c0-5,0.6-12.3-5.6-12.3c-2.2,0-4.2,1.5-5.2,3.7c-1.3,2.8-1.4,5.6-1.4,8.7v24.6
		C299.6,96.2,298.8,96.9,297.9,96.9"/>
	<g id="use28" transform="translate(244.36719)">
		<path id="path30" d="M-66.4,75.1v-1.9c-6.4,0-13.3,1.4-13.3,9c0,3.8,2,6.5,5.4,6.5c2.5,0,4.8-1.5,6.2-4.1
			C-66.4,81.4-66.4,78.5-66.4,75.1 M-57.5,96.8c-0.6,0.5-1.4,0.6-2.1,0.2c-3-2.5-3.5-3.6-5.1-5.9c-4.9,5-8.3,6.5-14.7,6.5
			c-7.5,0-13.3-4.6-13.3-13.9c0-7.2,3.9-12.2,9.5-14.6c4.8-2.1,11.6-2.5,16.8-3.1v-1.2c0-2.1,0.2-4.6-1.1-6.5
			c-1.1-1.6-3.2-2.3-5-2.3c-3.4,0-6.4,1.7-7.2,5.4c-0.1,0.8-0.7,1.6-1.5,1.6l-8.7-0.9c-0.7-0.2-1.5-0.8-1.3-1.9
			c2-10.5,11.5-13.6,19.9-13.6c4.3,0,10,1.2,13.4,4.4c4.3,4.1,3.9,9.5,3.9,15.3v13.9c0,4.2,1.7,6,3.4,8.3c0.6,0.8,0.7,1.8,0,2.4
			C-52.4,92.4-55.7,95.2-57.5,96.8L-57.5,96.8"/>
	</g>
	<path id="path30_00000110434973931085786300000015823003535063859087_" d="M62.3,75.1v-1.9c-6.4,0-13.3,1.4-13.3,9
		c0,3.8,2,6.5,5.4,6.5c2.5,0,4.8-1.5,6.2-4.1C62.3,81.4,62.3,78.5,62.3,75.1 M71.3,96.8c-0.6,0.5-1.4,0.6-2.1,0.2
		c-3-2.5-3.5-3.6-5.1-5.9c-4.9,5-8.3,6.5-14.7,6.5c-7.5,0-13.3-4.6-13.3-13.9c0-7.2,3.9-12.2,9.5-14.6c4.8-2.1,11.6-2.5,16.8-3.1
		v-1.2c0-2.1,0.2-4.6-1.1-6.5c-1.1-1.6-3.2-2.3-5-2.3c-3.4,0-6.4,1.7-7.2,5.4c-0.1,0.8-0.7,1.6-1.5,1.6l-8.7-0.9
		c-0.7-0.2-1.5-0.8-1.3-1.9c2-10.5,11.5-13.6,19.9-13.6c4.3,0,10,1.2,13.4,4.4c4.3,4.1,3.9,9.5,3.9,15.3v13.9c0,4.2,1.7,6,3.4,8.3
		c0.6,0.8,0.7,1.8,0,2.4C76.3,92.4,73.1,95.2,71.3,96.8L71.3,96.8"/>
</g>
</svg>
