<!-- Generator: Adobe Illustrator 28.1.0, SVG Export Plug-In . SVG Version: 6.00 Build 0)  -->
<svg version="1.1" id="Layer_1" xmlns="http://www.w3.org/2000/svg" xmlns:xlink="http://www.w3.org/1999/xlink" x="0px" y="0px"
	 viewBox="0 0 256 256" style="enable-background:new 0 0 256 256;" xml:space="preserve">
<g>
	<path d="M128,206.55V256c83.81,0,149.07-80.97,121.65-168.79c-11.98-38.38-42.48-68.88-80.86-80.86C80.97-21.07,0,44.19,0,128
		h49.56c0.01,0,0.01-0.01,0.01-0.01c0.01-52.6,52.06-93.26,107.36-73.2c20.49,7.43,36.83,23.77,44.27,44.26
		c20.07,55.27-20.53,107.3-73.09,107.37v-49.29c0,0,0,0-0.01,0H78.7c0,0-0.01,0.01-0.01,0.01v49.41H128z M78.68,244.53H40.72
		l-0.01-0.01v-37.97h37.98L78.68,244.53C78.69,244.52,78.68,244.53,78.68,244.53z M40.73,206.55H8.91c-0.01,0-0.02-0.01-0.02-0.01
		v-31.81c0,0,0.01-0.02,0.02-0.02h31.8c0.01,0,0.02,0.01,0.02,0.01V206.55z"/>
</g>
</svg>
