<!-- Generator: Adobe Illustrator 28.1.0, SVG Export Plug-In . SVG Version: 6.00 Build 0)  -->
<svg version="1.1" id="svg9648" xmlns:svg="http://www.w3.org/2000/svg"
	 xmlns="http://www.w3.org/2000/svg" xmlns:xlink="http://www.w3.org/1999/xlink" x="0px" y="0px" viewBox="0 0 1024 224"
	 style="enable-background:new 0 0 1024 224;" xml:space="preserve">
<path id="path8065" d="M340.01,143.74c0,40.42,28.28,72.15,72.94,72.15h41.22v-38.25h-37.51c-24,0-37.22-14.7-37.22-33.9
	c0-19.21,13.22-33.91,37.22-33.91h37.51V71.6h-41.22C368.3,71.6,340.01,103.32,340.01,143.74"/>
<path id="path8069" d="M792.11,69.8c-15.1,0-29.17,3.15-47.41,15.86c-18.25-12.71-32.32-15.86-47.42-15.86
	c-33.58,0-57.04,23.85-57.04,58.22v87.87h39.42v-85.84c0-14.67,8.68-22.01,22.9-22.01c15.04,0,22.48,7.75,22.48,20.17v87.68h39.35
	v-87.68c0-12.41,7.43-20.17,22.47-20.17c14.21,0,22.89,7.33,22.89,22.01v85.84h39.42v-87.87C849.16,93.65,825.71,69.8,792.11,69.8"
	/>
<path id="path8073" d="M943.75,179.42c-21.95,0-33.83-17.66-33.83-35.7c0-18.01,11.88-35.67,33.83-35.67
	c21.96,0,33.84,17.66,33.84,35.67C977.59,161.76,965.7,179.42,943.75,179.42 M943.81,69.8c-46.84,0-73.31,37.71-73.31,73.97
	c0,36.15,26.47,73.89,73.31,73.89c46.74,0,73.2-37.74,73.2-73.89C1017.02,107.51,990.56,69.8,943.81,69.8"/>
<path id="path8077" d="M46.42,143.72c0-18.01,11.88-35.67,33.82-35.67c21.96,0,33.44,16.91,33.82,34.75v1.85
	c-0.38,17.86-11.87,34.77-33.82,34.77C58.31,179.42,46.42,161.76,46.42,143.72 M113.56,6.34V78.9c-9.54-5.72-20.93-9.1-34.15-9.1
	c-47.29,0-72.43,38.03-72.43,73.97c0,35.84,25.14,73.89,72.43,73.89c35.52,0,48.79-17.72,73.57-29.46V6.34H113.56z"/>
<path id="path8081" d="M269.91,6.36l-0.06,9.85H256l0.06,35.84h-10.24V16.21h-13.84V6.36H269.91z"/>
<path id="path8085" d="M315.38,6.36v9.85h-13.87v35.84h-10.23V16.21h-13.85V6.36H315.38z"/>
<path id="path8089" d="M193.38,6.34l20.14,29.32V6.36h9.79v45.69h-10.74l-20.02-29.2v29.2h-9.82V6.34H193.38z"/>
<path id="path8093" d="M248.43,179.42c-21.93,0-33.82-17.66-33.82-35.7c0-18.01,11.89-35.67,33.82-35.67
	c21.98,0,33.85,17.66,33.85,35.67C282.28,161.76,270.4,179.42,248.43,179.42 M248.48,69.8c-46.82,0-73.28,37.71-73.28,73.97
	c0,36.15,26.46,73.89,73.28,73.89c46.73,0,73.2-37.74,73.2-73.89C321.69,107.51,295.22,69.8,248.48,69.8"/>
<path id="path8097" d="M545.62,179.42c-21.94,0-33.83-17.66-33.83-35.7c0-18.01,11.89-35.67,33.83-35.67s33.82,17.66,33.82,35.67
	C579.44,161.76,567.56,179.42,545.62,179.42 M545.67,69.8c-46.83,0-73.31,37.71-73.31,73.97c0,36.15,26.48,73.89,73.31,73.89
	c46.74,0,73.21-37.74,73.21-73.89C618.88,107.51,592.41,69.8,545.67,69.8"/>
</svg>
