<!-- Generator: Adobe Illustrator 28.1.0, SVG Export Plug-In . SVG Version: 6.00 Build 0)  -->
<svg version="1.1"
	 id="svg16" xmlns:svg="http://www.w3.org/2000/svg" xmlns:sodipodi="http://sodipodi.sourceforge.net/DTD/sodipodi-0.dtd" xmlns:inkscape="http://www.inkscape.org/namespaces/inkscape"
	 xmlns="http://www.w3.org/2000/svg" xmlns:xlink="http://www.w3.org/1999/xlink" x="0px" y="0px" viewBox="0 0 360 180"
	 style="enable-background:new 0 0 360 180;" xml:space="preserve">
<sodipodi:namedview  bordercolor="#111111" borderopacity="1" id="namedview18" inkscape:current-layer="svg16" inkscape:cx="462.5" inkscape:cy="180" inkscape:deskcolor="#d1d1d1" inkscape:pagecheckerboard="1" inkscape:pageopacity="0" inkscape:showpageshadow="0" inkscape:window-height="705" inkscape:window-maximized="1" inkscape:window-width="1366" inkscape:window-x="-8" inkscape:window-y="-8" inkscape:zoom="0.6" pagecolor="#ffffff" showgrid="false">
	</sodipodi:namedview>
<g>
	<path d="M238.1,93.9c-0.5-0.2-1-0.3-1.6-0.3c-2.4,0-5.6,2.2-8.4,5.7c-2.9,3.5-4.5,7.1-4.5,10.6c0,1.2,0.5,2.8,1.6,3.3
		c2.5,1.3,5.5-0.6,7.7-2.4c1.4-1.2,2.6-2.4,3.7-3.9c1.1-1.7,2-2.8,2.9-4.7c0.1-0.3,0.1-0.3,0-0.4c-0.3-0.1-0.6-0.4-0.7-0.6
		c-0.1-0.2,0-0.3,0-0.5C239.9,98.2,240.7,95.1,238.1,93.9z"/>
	<path d="M180.7,45.8L180.7,45.8c-73.9,0-133.8,19.5-133.8,43.7s59.9,43.7,133.8,43.7c73.9,0,133.8-19.5,133.8-43.7
		S254.6,45.8,180.7,45.8z M110.9,119.5c-8,0.1-15.1-4.9-15.9-13.4c-0.5-4.7,0.9-8.9,3.6-12.4c2.4-3.1,6.4-5.6,9.9-6.3
		c1.1-0.2,2.6-0.1,3.2,0.7c1,1.1,0.7,2.3-0.3,2.8c-2.6,1.3-5.8,3.6-7.3,6.7c-1.3,2.5-1.5,5.6,0.4,8.4c3.2,4.8,12.2,5,20.6-2.7
		c2.1-1.9,3.9-3.7,5.8-5.8c3.7-4.2,4.9-5.7,9.8-12.4c0.1-0.1,0.1-0.2,0-0.2c0-0.1-0.1-0.1-0.3-0.1c-3.3,0.1-6.1,1.1-8.9,3.1
		c-0.8,0.6-1.9,0.5-2.4-0.3c-0.6-0.9-0.2-2,0.8-2.6c4.5-3.1,9.3-3.6,14.3-4.5c0,0,0.3,0,0.6-0.4c2-2.6,3.6-4.9,5.8-7.5
		c2.2-2.7,5-5.1,7.2-6.9c3-2.6,5-3.4,6.9-4.5c0.5-0.3-0.1-0.6-0.2-0.6c-11-2-22.4-4.7-33.3-0.7c-7.5,2.8-10.9,8.7-9.3,12.7
		c1.1,2.8,4.9,3.3,8.4,1.6c3-1.5,5.6-3.8,7.5-6.6c1.1-1.6,3.3-0.5,2.1,2.4c-3.2,7.4-9.3,13.3-16.7,13.6c-6.3,0.2-10.4-4.4-10.4-10.1
		c0-11.2,12.6-18.6,25.8-19.7c2-0.2,4-0.2,5.9-0.2l0,0l0,0l0,0c13.8,0,27.1,3.4,40.9,5c12.1,1.5,23.7,1.5,35.9-1.3
		c1.4-0.3,2.5,0.6,2.4,2c-0.1,2.1-1.7,4.1-5.8,6.3c-4.6,2.5-9.3,3.2-14.3,3.3c-12.1,0.1-23.3-4.6-34.9-7.1c0,0.5,0.1,1.1-0.3,1.4
		c-6.4,4.7-12.3,9.5-16.2,16.2c-0.1,0.2-0.1,0.3,0.2,0.3c3.4-0.2,6.4-0.3,9.6-0.5c0.6,0,0.6-0.2,0.5-0.6c-0.3-2.3,0.4-4.9,2.5-6.8
		c2.1-1.9,4.7-2.1,6.5-0.7c2,1.5,1.8,4.3,0.7,6.3c-1.1,2.1-2.9,3.2-4.7,3.8c0,0-0.4,0.1-0.3,0.4c0.1,0.5,2.5,1.8,2.7,2.2
		c0.2,0.3,0.1,0.8-0.3,1.2c-0.3,0.3-0.6,0.6-1.2,0.5c-0.4,0-0.7-0.1-1.2-0.4c-1.1-0.6-2.4-1.5-3.3-2.6c-0.3-0.4-0.5-0.4-1.2-0.3
		c-3.4,0.2-8.8,0.7-12.4,1.2c-0.9,0.1-1,0.3-1.2,0.6c-5.8,9.4-11.9,19.5-18.7,26.3C123.3,117.6,117.3,119.5,110.9,119.5z
		 M267.1,73.8L267.1,73.8c-1.1,1.9-22.6,34.4-24,37.7c-0.4,1.1-0.5,1.9,0,2.5c1.1,1.5,3.6,0.6,5.2-0.5c4.7-3.2,7.9-7,11.5-10.4
		c0.2-0.2,0.6-0.2,0.8,0c0.5,0.5,1.3,1.1,1.8,1.7c0.3,0.3,0.2,0.5,0,0.7c-3.5,4.2-7.4,8.2-11.1,11.1c-5.8,4.4-11.5,5.5-14.4,2.7
		c-1.1-1.1-1.6-2.6-1.7-3.8c0-0.7-0.4-0.7-0.7-0.4c-3.4,3.3-9.3,7-14.7,4.4c-4.5-2.2-5.5-7.5-4.7-12c0-0.1-0.1-0.7-0.6-0.4
		c-1.1,0.8-2.4,1.5-3.7,2c-1.9,0.7-2.7,1-4.5,0.9c-2.2,0-4.1-0.9-5.5-3.1c-0.8-1.2-1.1-2.9-1.2-4.2c0-0.1-0.2-0.4-0.4-0.1
		c-3.7,5.5-7.1,10.9-10.7,16.5c-0.2,0.3-0.4,0.4-0.7,0.4c-2.2,0-4.7,0-7.2,0c-0.4,0-0.7-0.3-0.4-0.8c1.3-2.4,8.2-12.5,13-21.1
		c1.3-2.4,1-3.6,0.2-4.1c-1-0.7-3,0.3-4.7,1.6c-4.6,3.5-8.5,8.9-10.5,11.3c-1.2,1.4-2.3,3.5-5.3,6.8c-4.8,5.1-11.1,8.1-17.3,6.1
		c-3.3-1.1-5.8-3.8-6.7-7c-0.2-0.6-0.5-0.8-0.9-0.4c-1,1.2-3,3-4.7,4.2c-0.2,0.1-0.6,0.4-1,0.2c-0.4-0.2-1.6-1.9-1.9-2.4
		c-0.2-0.4,0-0.8,0.2-1c2.4-2.1,3.7-3.3,4.8-4.6c0.8-1,1.4-2.1,2.1-3.8c1.5-3.7,4.8-10.5,11.5-14c2.5-1.4,5.1-2.3,8-2.6
		c1.2-0.1,2.2,0,2.6,1c0.1,0.4,0.5,1.3,0.7,1.9c0.1,0.4,0,0.7-0.4,0.9c-3.9,1.5-7.9,3.8-10.6,7.4c-3.1,4.1-3.9,9.1-1.9,11.9
		c1.5,2.1,4,2.4,6.3,1.7c3.6-1.1,6.6-4.4,8.2-8c1.7-4,2-8.7,0.7-12.8c-0.2-0.7,0-1.3,0.4-1.7c0.9-0.8,2.3-1.4,2.6-1.6
		c0.8-0.4,1.8-0.1,2.2,0.5c1.3,1.9,2,4.6,2.1,7.4c0.1,0.6,0.3,0.6,0.6,0.3c2.3-2.5,4.5-5.1,7-7c2.3-1.8,5.2-3.2,7.9-3.2
		c3.5,0.1,5.2,2.4,5.1,6.6c0,0.5,0.4,0.5,0.6,0.1c1-1.5,1.7-2.2,2.9-3.2c2.4-2,4.9-2.9,7.5-2.7c3.2,0.2,5.7,3.1,5.2,6.4
		c-0.3,2.1-1.5,4-3.5,4.9c-1.7,0.8-3.6,0.7-5-0.5c-1.1-1-1.5-2.5-1.2-3.9c0.1-0.3-0.3-0.6-0.7-0.2c-3.1,3.2-3.3,7.3-1.3,9.2
		c2.2,2.1,5.6,0.7,8.1-0.9c4.5-2.9,8-6.8,12-9.9c2.7-2,5.7-3.8,9.1-4.3c1.9-0.2,3.7-0.1,5.6,0.6c2.4,1,4,3,4.2,4.8
		c0,0.5,0.4,0.6,0.8,0.1c1.9-3,12.3-18.4,13.2-20c0.3-0.5,0.5-0.6,1.1-0.6c2.3,0,5.2,0,7.4,0l0,0C267.1,73.3,267.3,73.5,267.1,73.8z
		"/>
	<path d="M165.8,77.8c0.1,0.5,0.3,0.6,0.5,0.5c1.1-0.2,2.3-1.1,3-2.1c0.6-0.9,1-2.3,0.3-2.8c-0.2-0.2-0.5-0.3-0.8-0.3
		c-0.5,0-1,0.2-1.4,0.5C166.1,74.8,165.6,76.5,165.8,77.8L165.8,77.8z"/>
	<path d="M180,38.2C100.4,38.2,36,61.3,36,90c0,28.7,64.4,51.8,144,51.8c79.6,0,144-23.2,144-51.8C324,61.3,259.6,38.2,180,38.2z
		 M180.7,137.3L180.7,137.3C104.1,137.3,42,115.9,42,89.5c0-26.4,62.1-47.8,138.7-47.8c76.6,0,138.7,21.4,138.7,47.8
		C319.4,115.9,257.3,137.3,180.7,137.3z"/>
</g>
</svg>
