<!-- Generator: Adobe Illustrator 28.1.0, SVG Export Plug-In . SVG Version: 6.00 Build 0)  -->
<svg version="1.1" id="layer" xmlns="http://www.w3.org/2000/svg" xmlns:xlink="http://www.w3.org/1999/xlink" x="0px" y="0px"
	 viewBox="0 0 72 72" style="enable-background:new 0 0 72 72;" xml:space="preserve">
<path id="_x23_0da8ffff_1_" d="M34.1,13.4c5-0.3,10.1,0.7,14.6,2.9c6.6,3.3,11.9,9.1,14.4,16.1c1.1,3.1,1.7,6.3,1.7,9.6V54
	c0,0.5,0,1-0.1,1.5c-0.3,1.2-1.2,2.3-2.3,2.8c-0.8,0.4-1.7,0.4-2.5,0.3c-1.8-0.3-3.3-2.1-3.3-3.9c0-3.8,0-7.5,0-11.3
	c0-1.1,0-2.2-0.5-3.1c-0.9-1.7-3.2-2.5-5-1.8c-1.5,0.5-2.6,2.1-2.7,3.8c0,3.8,0,7.6,0,11.4c0,0.7,0,1.4-0.2,2.1
	c-0.4,1.3-1.5,2.4-2.8,2.8c-1.8,0.5-3.8-0.3-4.7-1.9c-0.6-1-0.6-2.2-0.5-3.3c0-3.8,0-7.6,0-11.4c0-1.9-1.6-3.7-3.5-3.9
	c-1.3-0.2-2.5,0.2-3.5,1.1c-0.8,0.8-1.3,1.9-1.3,3v11c0,0.9,0.1,1.9-0.2,2.7c-0.5,1.6-2.1,2.7-3.8,2.7c-1.7,0.1-3.4-1.1-3.9-2.7
	c-0.3-0.8-0.2-1.6-0.2-2.5c0-3.8,0-7.6,0-11.4c0-1.9-1.5-3.6-3.3-3.9c-1.7-0.3-3.5,0.5-4.4,2c-0.3,0.6-0.5,1.3-0.5,2.1v12.4
	c0,1.2-0.5,2.4-1.4,3.2c-1.4,1.2-3.7,1.3-5.1,0.2c-1.1-0.7-1.7-2-1.7-3.3V42.1c0-4.7,1.2-9.4,3.5-13.6c1.8-3.4,4.4-6.4,7.4-8.8
	C22.5,15.9,28.3,13.7,34.1,13.4L34.1,13.4z"/>
</svg>
