<!-- Generator: Adobe Illustrator 28.1.0, SVG Export Plug-In . SVG Version: 6.00 Build 0)  -->
<svg version="1.1"
	 id="svg3003" xmlns:svg="http://www.w3.org/2000/svg" xmlns:sodipodi="http://sodipodi.sourceforge.net/DTD/sodipodi-0.dtd" xmlns:inkscape="http://www.inkscape.org/namespaces/inkscape" xmlns:cc="http://creativecommons.org/ns#" xmlns:dc="http://purl.org/dc/elements/1.1/" xmlns:rdf="http://www.w3.org/1999/02/22-rdf-syntax-ns#"
	 xmlns="http://www.w3.org/2000/svg" xmlns:xlink="http://www.w3.org/1999/xlink" x="0px" y="0px" viewBox="0 0 72 72"
	 style="enable-background:new 0 0 72 72;" xml:space="preserve">
<sodipodi:namedview  bordercolor="#666666" borderopacity="1" gridtolerance="10" guidetolerance="10" id="namedview3015" inkscape:current-layer="svg3003" inkscape:cx="108.82718" inkscape:cy="219.77498" inkscape:pageopacity="0" inkscape:pageshadow="2" inkscape:window-height="750" inkscape:window-maximized="1" inkscape:window-width="1280" inkscape:window-x="-8" inkscape:window-y="-8" inkscape:zoom="2.3162919" objecttolerance="10" pagecolor="#ffffff" showgrid="false">
	</sodipodi:namedview>
<g id="text3021" transform="matrix(2.7809611,0,0,2.7809611,-616.7962,-1116.1732)">
</g>
<g id="g4387">
	<g id="g4381">
		<path id="inner_artwork" inkscape:connector-curvature="0" d="M35.8,17.3c1,0.6,2.1,1.3,2.9,2.2l-0.3,0.3c-1.6-0.2-3.3,0-4.9,0.1
			c-0.2-0.2-0.5-0.4-0.2-0.7L35.8,17.3L35.8,17.3z M64.7,37.6c0,0.7,0.1,1.4-0.2,2.1c-3,0.8-4.9-2.3-7.8-1.8l0.3,1.6
			c2.7,0.1,4.3,2.7,7.1,2.5c-0.4,0.8,0.2,2.8-1.6,2c-1.8-0.4-3.1-2-5.1-2c-0.2,0.4-0.1,1-0.1,1.6c2.1,0.3,3.6,2.1,5.7,2.4
			c-0.2,0.7-0.4,1.5-1,2c-1.7-0.4-3-1.9-4.8-1.9l-0.3,1.5c1.7,0,2.8,1.6,4.4,2c0,0.6-0.5,1.2-0.9,1.8c-1.4-0.4-2.4-1.6-4-1.5
			c0-0.6,0.3-1.3,0.2-1.9c-1.8,0.5-2.9-1.1-4.2-2.1c0-3.2-3.4-5.3-3.6-8.3c0-0.6,0.1-1.2,0.3-1.9c1.1-2.6,0.8-5.9-0.5-8.3
			c-0.4-0.6-1-1.1-1.6-1.5c0.9,1.9,2,4.1,1.4,6.5c-0.1,1.8-1.1,3.5-1.1,5.3c0,0.6,0.1,1.2,0.5,1.9c1.4,2.5,4,5,3,8.2
			c-0.3,1-1,1.7-1.2,2.7c1.7,1.4,3.2,2.9,5.4,3c0.8-0.5,0.3-2.7,2-1.7l2.3,1.2c-0.2,0.6-0.7,1.2-1.2,1.6c-0.9-0.4-1.8-1-2.9-0.9
			c-0.3,0.3-0.6,0.7-0.6,1.2c0.8,0.1,1.5,0.5,2.2,0.9c-0.3,0.7-0.9,1.1-1.4,1.6l-1.8-0.7c-0.3,0.4-0.9,0.9-0.7,1.4
			c0.4,0.2,0.9,0.4,1.2,0.7c-0.8,0.9-1.8,1.4-2.8,2c-0.8-2.8-3.6-4.7-3.4-7.9l-0.1-0.1c-0.7,0.7-0.4,1.9-0.4,2.9
			c0.8,2,2.7,3.5,2.9,5.7c-0.3,0.6-1.1,0.7-1.6,0.9c0.1-4-5.9-7-2.1-11c1.3-2,3.4-3.8,2.7-6.5c-0.8-2.6-3.5-4.2-3.5-7.1l0-0.2
			c0.6-3,2.5-6.3,1-9.5c-0.4-1.3-1.4-2.8-2.7-3.3c2,2.3,2.8,6,1.6,9c-0.6,1.2-1.4,2.7-1.4,4.1h0c0,0.7,0.1,1.5,0.6,2.2
			c1.5,2.4,4.1,5.1,2.6,8.3c-1.7,2.5-4.7,5.1-3,8.5c1.2,2,3,4,2.5,6.5l-2,0.7c1.3-4.6-5.1-7.3-2.4-11.9c1.7-2.5,4.6-4.8,2.9-8
			c-1-2-3.1-3.2-3-5.7l0.1-0.4c0.7-3.6,3.4-7,1.5-10.8c-0.5-1.1-1.5-2.3-2.6-2.9l-0.1,0.1c2.2,2.2,2.9,5.7,1.7,8.5
			c-0.6,1.7-1.8,3.3-2,5.1c-0.1,0.8,0,1.7,0.5,2.6c1.4,2.2,3.9,4.6,2.3,7.5c-1.6,2.4-4.3,4.7-3.3,7.8c1.2,2.7,3.7,5.3,2.3,8.7
			l-2,0.5c1.6-3.3-0.8-6.5-2.2-9.4c-1.7-4.1,3.7-6,3.8-9.8c0-2.4-2.6-3.8-3.1-6c-1.1-0.9-2.3,0.4-3.6,0.1c-1,0.2-2.5-1.3-3.1,0.3
			c-0.7,2.5-3.9,4.3-2.5,7.2c1.3,2.6,4.5,4.5,3.5,7.8c-1,3.1-4.1,6.1-2.2,9.7c-0.8-0.3-2.3,0.2-2.3-1c-1.2-4.4,4-6.9,2.4-11.3
			c-0.8-2.7-4.2-4.2-3.5-7.4c0.6-2.6,3.5-4.5,3.1-7.4c0-0.2-0.1-0.5-0.2-0.8c-1.1-3.1-3.4-6.3-2-9.9c0.4-1,1.1-1.9,1.8-2.9
			c-2.2,1.2-3.2,3.6-3.2,6.1c-0.1,2.7,1.9,5,2.2,7.5c0.1,1-0.1,2-0.7,3.1c-1.4,1.9-3.3,3.9-2.4,6.5c0.8,2.5,4,4.1,3.8,7
			c0,3.5-4.1,5.7-2.9,9.6l-2-0.7c-0.8-3.5,2.9-5.3,2.9-8.5c0.5-3.7-4.2-5.1-3.9-8.7c0-2.7,2.4-4.5,3.5-6.8c0.2-0.6,0.2-1.1,0.2-1.6
			c-0.1-2.5-2.4-4.5-2-7.4c0.1-2.1,0.8-4,2.2-5.5c-1.9,0.8-2.7,2.9-3.2,4.8c-0.9,2.9,1.3,5.6,1.5,8.2c0.1,1.2-0.2,2.3-1.3,3.5
			c-1.6,1.8-3.2,4.2-2,6.7c1.2,2.7,5,4.9,3.3,8.3c-0.9,2.2-3,3.8-2.9,6.3c-0.6-0.2-1.2-0.5-1.6-0.9c0-3.2,4.6-5.3,2.4-8.7
			c-0.2,0.7-0.2,1.6-0.4,2.3c-0.8,2-2.4,3.6-3,5.6c-1-0.4-2.1-1.2-2.9-2.1l1.2-0.7c-0.1-0.4-0.5-0.8-0.8-1.2
			c-0.8-0.1-1.3,0.4-1.9,0.6c-0.5-0.5-1.1-0.9-1.5-1.5c0.4-1.1,3.4-0.2,1.9-2c-1-0.7-2.1,0.3-3,0.7l-1.2-1.6
			c1.1-0.7,2.1-1.6,3.5-1.3c0.3,0.6,0.3,1.5,1,1.8c2.2,0,3.8-1.7,5.5-3.1c-1.2-1.8-2.2-4.2-1.1-6.4c0.9-2.2,3.1-4,3.2-6.4
			c0-0.5-0.1-1.1-0.3-1.7c-1.2-3-1.6-7.1,0.7-9.8c-1.2,0.3-1.9,1.8-2.3,3c-1.3,3,0.4,5.7,0.4,8.5c0,0.5,0,1-0.2,1.5
			c-1.2,2.3-3,4.4-3.3,7c-1.3,0.8-2.4,2.3-4.3,1.8c-0.1,0.5,0.1,1.3,0.3,1.8c-1.5-0.1-2.5,1-3.8,1.6c-0.7-0.2-0.8-1.1-1.1-1.7
			c1.5-0.5,2.5-2,4.2-2c0.2-0.5-0.1-1-0.2-1.6c-2.1-0.9-5.5,4.6-5.7-0.2c2.1-0.1,3.5-2.1,5.5-2.3l0.1-1.6c-2.4-0.2-3.9,2.2-6.3,2
			L7.9,42c2.7,0.2,4.4-2.3,7-2.4c0.3-0.5,0.4-1.1,0.5-1.8c-2.8-0.4-4.8,2.8-7.8,1.8c0,0-0.1-1.3-0.2-2.1h0c0-0.3,0-0.5,0-0.5
			c2.7,1,5.1-0.9,7.4-1.9c0.6-0.2,1.5,0.1,1.8-0.5c0-0.5,0.9-1.1,0.1-1.4c-3.4-0.5-5.6,3.6-9.1,1.8l-0.3-0.5
			c0.7-9.8,6.3-19.3,15.4-24c3.7-2.1,8.4-3.2,13-3.3c5.6,0,11.3,1.4,15.6,4.4c4.1,2.5,8,6.7,10.2,10.9c2,3.7,3,7.8,3.3,12.3
			c-3.6,2.7-6-2.5-9.6-1.4c0.2,0.6,0.3,1.2,0.7,1.6c3.2,0,5.4,3.3,8.8,2L64.7,37.6L64.7,37.6z M23.7,25.5c-2.3-1.5-5.1-0.1-7.2,0.7
			c-0.2-2-1-3.8-2.7-5.1c-0.2-0.1-0.4-0.3-0.6-0.3c-0.1,0-0.2,0-0.3,0.2c0.8,4.7-2.3,7.9-4.4,11.5c0.7,0.6,1.9,0.5,2.7,0.3
			c2.3-0.9,4.5-2.5,7.2-2c0.8-1.4,2.2-2.7,3.3-3.8C22.3,26.5,23.2,26.1,23.7,25.5L23.7,25.5z M30.6,28.4c0,0.3,0,0.8,0.5,0.6
			c0.7-0.9,1.9-0.2,2.6-0.1v-0.3c-0.4-0.6-1.2-1-2.1-0.9c-0.2,0-0.4,0-0.6,0.1C30.7,27.8,30.5,28.1,30.6,28.4L30.6,28.4z M41.2,25.6
			c-0.6-1.3-2-1.9-3.3-2.2c-0.6-0.1-1.3-0.1-1.9-0.1c-0.1,0-0.2,0-0.4,0c-1.8,0-3.5,0.5-4.5,2c-0.1,0.4-0.8,1-0.2,1.4
			c1.4-0.1,2.9-0.3,3.8,0.9c0,1,0.7,2.4-0.5,2.9c-0.9-0.9-2,0.4-3.1-0.3c-0.5-0.3-0.8,0-1,0.5c-0.3,2.7,1.1,5.7,3.6,7.2
			c1,0.4,2.4,0.7,3.5,0.2c2.6-1.2,3.6-3.9,4.1-6.5c-0.1-0.5,0-1.4-0.7-1.4c-0.8,0.5-1.9,0.2-2.7,0c-0.5,0.2-0.5,0.9-1,1l-0.3-0.3
			c-0.3-1.2-0.5-2.9,0.7-3.7c1.2-0.5,2.7-0.7,4-0.3C41.7,26.3,41.3,26,41.2,25.6L41.2,25.6z M39.9,27.7c-0.1,0-0.2,0-0.3,0
			c-0.5,0.3-1.8,0.1-1.3,1.1c0.8-0.7,2-0.2,2.8,0.1c0.3-0.2,0.2-0.5,0.3-0.7C41.2,27.8,40.5,27.7,39.9,27.7z M49.4,18.5
			c-1.6-0.1-3,0.8-4.4,1.2c-0.1-1.3,0.8-2.6,1-3.9c-2.4,0.2-4.3,1.6-6.3,2.7c-0.5-1.1-0.9-2.2-1.4-3.3l2.6-2.5l0.1-0.3l-3.5-0.2
			C36.9,11.3,36.7,10,36,9c-0.6,1.1-1,2.3-1.6,3.4l-3.5,0.2v0.3l2.7,2.4c-0.3,1.2-0.6,2.6-1.4,3.5c-1.6-0.9-3.1-2-4.8-2.6
			c-0.4-0.1-1-0.3-1.4-0.1c0.5,1.2,1.3,2.5,1.2,3.8c-0.7-0.1-1.3-0.6-2-0.8c-0.8-0.2-1.8-0.7-2.5-0.4c1.3,1.8,2.4,3.7,2.7,5.9
			c4.3-2.1,9.4-3.2,14.6-2.3c2.5,0.4,4.7,1.4,6.9,2.2C46.9,22.2,48.4,20.4,49.4,18.5L49.4,18.5z M56.8,31.1c2.2,0.6,4.4,3,6.8,1.4
			c-2-3.4-5.1-6.5-4.2-11c0.1-0.3-0.1-0.6-0.4-0.7c-1.3,0.5-2.4,1.8-2.9,3.1c-0.2,0.8-0.3,1.6-0.6,2.3c-1.6-0.8-3.3-1.6-5.2-1.4
			c-0.7,0.1-1.7,0.1-1.8,0.8c2.2,1.2,4,3.1,5.3,5.2C54.7,30.8,55.9,30.9,56.8,31.1L56.8,31.1z M33.6,34.1l0.1,0.4
			c0.9,0.6,1.1,1.5,2.3,1.4c1,0.1,1.8-0.9,2.3-1.7C36.9,34.1,35.2,34.4,33.6,34.1L33.6,34.1z M34.8,32.4c0,0.2-0.1,0.4,0.1,0.5
			c0.7-0.2,2,0.4,2.3-0.5C37,32.1,36.5,32,36.1,32C35.6,32,35.1,32.1,34.8,32.4z"/>
		<g id="g4377">
			<path id="path3032-6" inkscape:connector-curvature="0" sodipodi:nodetypes="cccsccc" d="M34.5,32.7c0.6,0.1,0.8,0.4,1.3,0.4
				c0.5,0,0.4-0.1,1.3-0.4c0.1,0,0.1-0.2,0-0.3c-0.6-0.6-0.9-0.2-1.3-0.1c-0.5,0-0.9-0.4-1.4,0.1C34.4,32.5,34.4,32.6,34.5,32.7
				L34.5,32.7z"/>
		</g>
	</g>
	<g id="text4354">
		<path id="path4430" d="M57,64.8V62h-1v-0.6h2.7V62h-1v2.8L57,64.8L57,64.8z"/>
		<path id="path4432" d="M59.1,64.8v-3.4h1l0.6,2.3l0.6-2.3h1v3.4h-0.6v-2.6l-0.7,2.6h-0.7l-0.7-2.6v2.6H59.1z"/>
	</g>
</g>
</svg>
