<!-- Generator: Adobe Illustrator 28.1.0, SVG Export Plug-In . SVG Version: 6.00 Build 0)  -->
<svg version="1.1" id="Layer_1" xmlns="http://www.w3.org/2000/svg" xmlns:xlink="http://www.w3.org/1999/xlink" x="0px" y="0px"
	 viewBox="0 0 242 344.71" style="enable-background:new 0 0 242 344.71;" xml:space="preserve">
<g>
	<path d="M69.24,249.67c2.5-0.72,7.52,8.49,8.89,10.15c3.41,4.14,7.47,7.94,12.6,9.79c8.09,2.93,16.07-2.23,22.23-7.13
		c4.39-3.49,12.33-11.82,2.46-13.11c-8.25-1.08-16.41-2.31-24.63-3.8c-27.15-4.91-53.65-14.56-68.18-39.72
		c-15.45-25.78-16.58-58.48-8.83-86.95c4.62-17,12.23-37.56,26.3-48.87c10.07-8.09,24.4-9.64,34.6-0.87
		c8.42,7.25,11.95,18.34,15.25,28.57c6.74,20.86,13.6,45.12,12.41,67.19c-0.42,7.73-1.89,23.46-11.79,25.01
		c-10.89,1.71-18.18-14.51-21.46-22.35c-4.42-10.56-6.21-21.63-8.44-32.78c-1.13-5.64-1.6-18.35-5.39-22.8
		c-0.55-0.53-8.12,20.29-8.22,20.69c-4.27,16.7-5.15,35.4,1.31,51.69c13.84,34.86,56.81,32.69,86.65,44.17
		c31.37,12.06,8.35,38.03-10.52,49.61c-10.89,6.68-23.55,10.55-35.95,6.01c-7.4-3.29-13.16-9.28-16.69-16.52
		C70.79,265.52,64.93,250.88,69.24,249.67C70.39,249.34,68.18,249.97,69.24,249.67z"/>
	<path d="M145.38,193.09c7.94-0.38,13.08,25.71,14.69,31.13c4.68,15.74,9.14,31.57,15.26,46.83c2.52,6.28,5.24,12.48,8.31,18.51
		c2.81,5.51,9.56,12.67,9.68,18.96c0.86,13.11-15.94,26.44-28.18,20.36c-5.45-3-8.59-10.3-11.37-15.61
		c-6.88-13.31-11.6-27.7-14.5-42.39c-2.79-14.13-3.89-28.64-3.37-43.03C136.12,222.11,136.49,193.51,145.38,193.09
		C148.01,192.96,142.8,193.21,145.38,193.09z"/>
	<path d="M133.86,178.07c-10.13-0.99-9.7-32.46-9.76-37.87c-0.22-18.08,1.55-36.56-0.94-54.53c-1.96-14.16-7.71-25.12-19.93-33.12
		c-7.6-4.98-14.14-8.92-14.22-19.13c-0.07-8.92,6.09-17.6,15.07-19.29c16.28-3.08,35.81,18.43,43.06,30.93
		c7.58,13.07,10.24,28.36,9.81,43.33c-0.52,17.89-4.71,35.74-9.46,52.92C146.42,145.09,139.87,178.67,133.86,178.07
		C132.54,177.94,135.12,178.2,133.86,178.07z"/>
	<path d="M191.49,265.39c-10.65,6.93-21.7-39.22-22.54-44.17c-3.52-20.79-4.68-41.99-2.64-62.99c2.14-22.06,7.35-43.83,15.35-64.51
		c5.49-14.2,13.2-41.19,32.29-41.14c8.6,0.02,15.12,6.84,16.61,14.97c1.5,8.18-2.2,14.67-5.79,21.71
		c-9.54,18.69-17.09,38.39-22.44,58.68c-5.41,20.5-8.01,41.28-9.51,62.39c-0.67,9.43-1.25,18.89-1.2,28.35
		C191.65,243.17,195.52,262.8,191.49,265.39C190.43,266.08,192.61,264.67,191.49,265.39z"/>
</g>
</svg>
