<!-- Generator: Adobe Illustrator 28.1.0, SVG Export Plug-In . SVG Version: 6.00 Build 0)  -->
<svg version="1.1" id="Layer_1" xmlns="http://www.w3.org/2000/svg" xmlns:xlink="http://www.w3.org/1999/xlink" x="0px" y="0px"
	 viewBox="0 0 360 180" style="enable-background:new 0 0 360 180;" xml:space="preserve">
<g>
	<path d="M75.6,77.3c-4.1-2.9-9.1-4.5-14.4-4.5C47.3,72.8,36,84.1,36,98c0,14,11.3,25.2,25.2,25.2c5.3,0,10.3-1.6,14.4-4.5v3.4h12.1
		V73.4H75.6V77.3z M75.7,98c0,7.7-6.2,13.9-13.8,13.9c0,0-0.1,0-0.1,0c-7.7,0-13.9-6.2-13.9-13.8c0,0,0-0.1,0-0.1
		c0-7.7,6.2-13.9,13.9-13.9C69.4,84.1,75.7,90.3,75.7,98C75.7,97.9,75.7,98,75.7,98z"/>
	<path d="M207,77.3c-4.1-2.9-9.1-4.5-14.4-4.5c-13.9,0-25.2,11.3-25.2,25.2c0,14,11.3,25.2,25.2,25.2c5.3,0,10.3-1.6,14.4-4.5v3.4
		h12.1V56.8H207V77.3z M193.2,111.9c-7.7,0-13.9-6.2-13.9-13.8c0,0,0-0.1,0-0.1c0-7.7,6.2-13.9,13.9-13.9c7.7,0,13.9,6.2,13.9,13.9
		C207.1,105.7,200.9,111.9,193.2,111.9z"/>
	<path d="M263.7,77.3c-4.1-2.9-9.1-4.5-14.4-4.5c-13.9,0-25.2,11.3-25.2,25.2c0,14,11.3,25.2,25.2,25.2c5.3,0,10.3-1.6,14.4-4.5v3.4
		h12.1V73.4h-12.1V77.3z M249.9,111.9c-7.7,0-13.9-6.2-13.9-13.8c0,0,0-0.1,0-0.1c0-7.7,6.2-13.9,13.9-13.9
		c7.7,0,13.9,6.2,13.9,13.9C263.8,105.7,257.6,111.9,249.9,111.9z"/>
	<path d="M309.8,93.2l-7.7-1.5c-5-1-8.4-1.9-8.4-4.9c0-3.2,3.3-4.7,7.5-4.7c6.1,0,8.6,3.1,8.8,6.7h12.2c-0.7-9.5-8.3-15.9-20.6-15.9
		c-12.7,0-20.2,7-20.2,16c0,11.1,9,12.9,16.7,14.3l6.4,1.1c4.6,0.9,6.6,2.2,6.6,4.9c0,2.4-2.3,4.8-7.7,4.8c-7.9,0-10.5-4.1-10.6-7.6
		h-12.4c0.4,9.8,8.8,16.8,22.8,16.8c11.5,0,20.9-5,20.9-15.9C324,99.5,319.7,95.1,309.8,93.2z"/>
	<path d="M132.3,77.3c-4.1-2.9-9.1-4.5-14.4-4.5c-13.9,0-25.2,11.3-25.2,25.2c0,14,11.3,25.2,25.2,25.2c5.3,0,10.3-1.6,14.4-4.5v3.4
		h12.1V56.8h-12.1V77.3z M118.5,111.9c-7.7,0-13.9-6.2-13.9-13.8c0,0,0-0.1,0-0.1c0-7.7,6.2-13.9,13.8-13.9c0,0,0.1,0,0.1,0
		c7.7,0,13.9,6.2,13.9,13.9C132.4,105.7,126.2,111.9,118.5,111.9z"/>
	<polygon points="150.3,56.8 150.3,68.9 162.4,68.9 162.4,68.9 162.4,56.8 	"/>
	<rect x="150.3" y="73.4" width="12.1" height="48.8"/>
</g>
</svg>
