<!-- Generator: Adobe Illustrator 28.1.0, SVG Export Plug-In . SVG Version: 6.00 Build 0)  -->
<svg version="1.1" id="Layer_1" xmlns="http://www.w3.org/2000/svg" xmlns:xlink="http://www.w3.org/1999/xlink" x="0px" y="0px"
	 viewBox="0 0 834.52 581.2" style="enable-background:new 0 0 834.52 581.2;" xml:space="preserve">
<path d="M414.74,487.39c0-21.33,17.12-38.46,38.46-38.46c21.33,0,38.45,17.12,38.45,38.46c0,21.33-17.11,38.46-38.45,38.46
	c-21.17,0.07-38.39-17.04-38.46-38.21C414.74,487.56,414.74,487.48,414.74,487.39 M571.19,487.39c0-21.33,17.12-38.46,38.46-38.46
	c21.33,0,38.45,17.12,38.45,38.46c0,21.33-17.12,38.46-38.45,38.46c-21.17,0.07-38.39-17.04-38.46-38.21
	C571.19,487.56,571.19,487.48,571.19,487.39 M208.52,487.39c-0.07-21.17,17.03-38.39,38.2-38.46c0.08,0,0.17,0,0.25,0
	c21.33,0,38.45,17.12,38.45,38.46c0,21.33-17.12,38.46-38.45,38.46c-21.17,0.07-38.39-17.03-38.46-38.2
	C208.52,487.56,208.52,487.48,208.52,487.39 M52.07,487.39c0-21.33,17.11-38.46,38.45-38.46c21.17-0.07,38.39,17.03,38.46,38.2
	c0,0.08,0,0.17,0,0.25c0.07,21.17-17.03,38.39-38.2,38.46c-0.08,0-0.17,0-0.25,0c-21.17,0.07-38.38-17.04-38.45-38.21
	C52.07,487.56,52.07,487.48,52.07,487.39 M368.38,419.44h-33.45v134.59h33.45V419.44z M128.71,554.03h33.45V419.44h-33.45v10.8
	c-11.33-7.9-25.02-12.38-39.77-12.38c-38.46,0-69.54,31.07-69.54,69.53c0,38.72,31.08,69.53,69.54,69.53
	c14.74,0,28.44-4.48,39.77-12.38V554.03z M647.83,554.03h33.45V419.44h-33.45v10.8c-11.33-7.9-25.02-12.38-39.77-12.38
	c-38.46,0-69.53,31.07-69.53,69.53c0,38.72,31.07,69.53,69.53,69.53c14.74,0,28.44-4.48,39.77-12.38V554.03z M693.66,510.3
	c1.05,27.13,24.23,46.36,62.95,46.36c31.6,0,57.68-13.7,57.68-43.98c0-21.07-11.85-33.45-39.24-38.72l-21.33-4.21
	c-13.7-2.63-23.18-5.27-23.18-13.43c0-8.95,9.22-12.9,20.81-12.9c16.86,0,23.7,8.43,24.23,18.43h33.72
	c-1.84-26.34-22.92-43.98-56.89-43.98c-35.03,0-55.84,19.22-55.84,44.24c0,30.55,24.76,35.55,46.09,39.51l17.65,3.16
	c12.64,2.37,18.17,6.06,18.17,13.43c0,6.58-6.32,13.16-21.33,13.16c-21.86,0-28.97-11.32-29.24-21.07H693.66z M285.16,373.62v56.63
	c-11.33-7.9-25.02-12.38-39.77-12.38c-38.46,0-69.54,31.07-69.54,69.53c0,38.72,31.08,69.53,69.54,69.53
	c14.74,0,28.44-4.48,39.77-12.38v9.48h33.45V373.62H285.16z M491.38,373.62v56.63c-11.33-7.9-25.02-12.38-39.77-12.38
	c-38.46,0-69.53,31.07-69.53,69.53c0,38.72,31.07,69.53,69.53,69.53c14.74,0,28.44-4.48,39.77-12.38v9.48h33.45V373.62H491.38z
	 M106.32,333.85l22.65,39.77h156.18l-61.9-106.93L106.32,333.85z M368.38,407.06v-33.45h123L360.22,146.59l-117.2,67.16
	l91.92,159.87v33.45H368.38z M541.16,373.62h156.45L495.33,23.59L378.4,91.01L541.16,373.62z"/>
</svg>
