<!-- Generator: Adobe Illustrator 28.1.0, SVG Export Plug-In . SVG Version: 6.00 Build 0)  -->
<svg version="1.1" id="Layer_1" xmlns="http://www.w3.org/2000/svg" xmlns:xlink="http://www.w3.org/1999/xlink" x="0px" y="0px"
	 viewBox="0 0 72 72" style="enable-background:new 0 0 72 72;" xml:space="preserve">
<path d="M36,8.6C20.1,8.6,7.2,19,7.2,31.9c0,11.6,10.3,21.2,24.1,23.1c0.9,0.2,2.2,0.6,2.5,1.4c0.3,0.7,0.2,1.9,0.1,2.6
	c0,0-0.3,2-0.4,2.5c-0.1,0.7-0.6,2.8,2.5,1.6c3.1-1.3,16.6-9.8,22.6-16.7c4.2-4.6,6.2-9.2,6.2-14.4C64.8,19,51.9,8.6,36,8.6z
	 M25.8,38.8c0,0.3-0.2,0.5-0.5,0.5l0,0h-8.1c-0.3,0-0.5-0.2-0.5-0.5V26.3c0-0.3,0.2-0.5,0.5-0.5h2.1c0.3,0,0.5,0.2,0.5,0.5v10h5.5
	c0.3,0,0.5,0.2,0.5,0.5C25.8,36.8,25.8,38.8,25.8,38.8z M30.7,38.8c0,0.3-0.2,0.6-0.6,0.6h-2c-0.3,0-0.6-0.2-0.6-0.6V26.3
	c0-0.3,0.2-0.6,0.6-0.6h2c0.3,0,0.6,0.2,0.6,0.6V38.8z M44.6,38.8c0,0.3-0.2,0.5-0.5,0.5h-2c0,0-0.1,0-0.1,0h0h0h0l0,0h0l0,0
	c-0.1,0-0.1-0.1-0.1-0.1l-5.8-7.8v7.5c0,0.3-0.2,0.5-0.5,0.5h-2c-0.3,0-0.5-0.2-0.5-0.5V26.3c0-0.3,0.2-0.5,0.5-0.5h2.1h0h0h0h0h0h0
	h0h0l0,0h0l0,0h0l0,0l0,0c0,0,0,0,0,0.1l5.7,7.8v-7.5c0-0.3,0.2-0.5,0.5-0.5h2c0,0,0,0,0,0c0.3,0,0.5,0.3,0.5,0.6L44.6,38.8
	L44.6,38.8z M55.8,28.3c0,0.3-0.2,0.5-0.5,0.5h-5.5V31h5.5c0.3,0,0.5,0.2,0.5,0.5v2.1c0,0.3-0.2,0.5-0.5,0.5h-5.5v2.1h5.5
	c0.3,0,0.5,0.2,0.5,0.5v2c0,0.3-0.2,0.5-0.5,0.6c0,0,0,0,0,0h-8.1c-0.3,0-0.5-0.2-0.5-0.5V26.3c0-0.3,0.2-0.5,0.5-0.5h8.1
	c0.3,0,0.5,0.2,0.5,0.5L55.8,28.3L55.8,28.3z"/>
</svg>
