<!-- Generator: Adobe Illustrator 28.1.0, SVG Export Plug-In . SVG Version: 6.00 Build 0)  -->
<svg version="1.1" id="Layer_1" xmlns="http://www.w3.org/2000/svg" xmlns:xlink="http://www.w3.org/1999/xlink" x="0px" y="0px"
	 viewBox="0 0 559.16 105" style="enable-background:new 0 0 559.16 105;" xml:space="preserve">
<path d="M554.79,99.31c0-6.05-3.4-8.23-8.99-8.23h-42.45c-19.93,0-26.98-12.76-27.87-21.58h58.9c17.18,0,22.28-12.85,22.28-21.07
	c0-8.82-5.51-21.07-22.28-21.07h-31.84c-29,0-38.48,20.4-38.48,37.03c0,18.22,10.86,37.03,38.4,37.03h52.34L554.79,99.31z
	 M503.43,37.68h29.49c10.21,0,12.64,6.55,12.64,10.83c0,3.78-2.27,10.83-12.64,10.83h-57.44C476.21,51.87,482.12,37.68,503.43,37.68
	z M383.28,96.71c-3,4.28-5.1,5.79-7.78,5.79c-3.73,0-5.1-2.1-7.78-5.79c-6.4-9.07-49.02-69.35-49.02-69.35h6.56
	c7.13,0,9.15,2.6,12.07,6.88c1.3,1.85,38.32,56,38.32,56s37.02-54.07,38.48-56.26c2.75-4.03,4.86-6.63,11.99-6.63h5.75
	C431.89,27.35,388.55,89.32,383.28,96.71z M103.93,101.41c-4.46,0-7.29-2.27-8.1-7.22l-1.46-8.06
	c-2.43,4.62-11.34,15.28-30.71,15.28H41.39c-30.3,0-38.89-21.33-38.89-37.03c0-17.72,10.29-37.03,38.89-37.03h22.28
	c21.71,0,33.7,13.1,36.62,29.05c2.43,13.35,8.1,45,8.1,45H103.93z M61.16,37.68H42.12c-21.39,0-28.68,14.11-28.68,26.7
	c0,12.59,7.29,26.7,28.68,26.7h19.04C83.52,91.08,90,76.39,90,64.38C90,53.63,84.16,37.68,61.16,37.68z M446.39,18.87
	c3.16,0,5.59-2.02,5.59-5.88v-2.43c0-3.86-2.51-5.88-5.59-5.88c-3.08,0-5.59,1.93-5.59,5.88V13
	C440.72,16.86,443.23,18.87,446.39,18.87z M440.88,27.35h2.59c5.1,0,8.34,2.35,8.34,9.57v64.48h-2.75c-5.59,0-8.26-3.11-8.26-9.32
	C440.88,91.16,440.88,27.35,440.88,27.35L440.88,27.35z M125.16,37.01c4.7-4.62,13.12-9.66,26.41-9.66h22.28
	c30.3,0,38.89,21.33,38.89,37.03c0,17.72-10.29,37.03-38.89,37.03h-22.28c-21.71,0-37.35-14.53-37.35-37.03V2.5h3.4
	c4.86,0,7.53,2.6,7.53,7.3V37.01z M154,91.08h19.04c21.39,0,28.68-14.11,28.68-26.7c0-12.59-7.29-26.7-28.68-26.7H154
	c-22.36,0-28.84,14.69-28.84,26.7C125.16,75.13,130.91,91.08,154,91.08L154,91.08z M234.69,37.01c4.7-4.62,13.12-9.66,26.41-9.66
	h22.28c30.3,0,38.89,21.33,38.89,37.03c0,17.72-10.29,37.03-38.89,37.03h-22.28c-21.71,0-37.35-14.53-37.35-37.03V2.5h3.4
	c4.86,0,7.53,2.6,7.53,7.3L234.69,37.01z M263.54,91.08h19.04c21.39,0,28.68-14.11,28.68-26.7c0-12.59-7.29-26.7-28.68-26.7h-19.04
	c-22.36,0-28.84,14.69-28.84,26.7C234.69,75.13,240.53,91.08,263.54,91.08z"/>
</svg>
