<!-- Generator: Adobe Illustrator 28.1.0, SVG Export Plug-In . SVG Version: 6.00 Build 0)  -->
<svg version="1.1" id="Layer_1" xmlns="http://www.w3.org/2000/svg" xmlns:xlink="http://www.w3.org/1999/xlink" x="0px" y="0px"
	 viewBox="0 0 72 72" style="enable-background:new 0 0 72 72;" xml:space="preserve">
<g>
	<path d="M23.2,64.8h25.6c8.8,0,16-7.2,16-16V23.2c0-8.8-7.2-16-16-16H23.2c-8.8,0-16,7.2-16,16v25.6C7.2,57.6,14.4,64.8,23.2,64.8z
		 M13.6,23.2c0-5.3,4.3-9.6,9.6-9.6h25.6c5.3,0,9.6,4.3,9.6,9.6v25.6c0,5.3-4.3,9.6-9.6,9.6H23.2c-5.3,0-9.6-4.3-9.6-9.6V23.2z"/>
	<circle cx="52" cy="20" r="3.2"/>
	<path d="M36,52c8.8,0,16-7.2,16-16s-7.2-16-16-16s-16,7.2-16,16S27.2,52,36,52z M36,26.4c5.3,0,9.6,4.3,9.6,9.6s-4.3,9.6-9.6,9.6
		s-9.6-4.3-9.6-9.6S30.7,26.4,36,26.4z"/>
</g>
</svg>
