<!-- Generator: Adobe Illustrator 28.1.0, SVG Export Plug-In . SVG Version: 6.00 Build 0)  -->
<svg version="1.1" id="Layer_1" xmlns="http://www.w3.org/2000/svg" xmlns:xlink="http://www.w3.org/1999/xlink" x="0px" y="0px"
	 viewBox="0 0 180 180" style="enable-background:new 0 0 180 180;" xml:space="preserve">
<g transform="translate(170.24 5.0558)">
	<g id="Layer_1_1_" transform="matrix(.52497 0 0 .52497 -170.24 -5.0558)">
		<g id="Nissan_Badge_1_">
			<path d="M195.18,181.02c-0.23,0.06-1.14,0.06-1.54,0.06h-29.36v6.83h29.87c0.23,0,1.99,0,2.33-0.06
				c6.09-0.57,8.88-5.63,8.88-10.07c0-4.55-2.9-9.44-8.42-9.96c-1.08-0.11-1.99-0.11-2.39-0.11h-19.52c-0.85,0-1.82-0.06-2.16-0.17
				c-1.54-0.4-2.11-1.76-2.11-2.9c0-1.02,0.57-2.39,2.16-2.84c0.46-0.11,0.97-0.17,2.05-0.17h28.16v-6.71h-28.62
				c-1.19,0-2.11,0.06-2.84,0.17c-4.89,0.68-8.31,4.61-8.31,9.62c0,4.1,2.56,8.88,8.19,9.67c1.02,0.11,2.45,0.11,3.07,0.11h19
				c0.34,0,1.19,0,1.37,0.06c2.16,0.28,2.9,1.88,2.9,3.3C197.91,179.2,197.06,180.68,195.18,181.02z"/>
			<path d="M139.54,181.02c-0.23,0.06-1.14,0.06-1.48,0.06h-29.41v6.83h29.87c0.23,0,1.99,0,2.33-0.06
				c6.09-0.57,8.88-5.63,8.88-10.07c0-4.55-2.9-9.44-8.42-9.96c-1.08-0.11-1.99-0.11-2.39-0.11H119.4c-0.85,0-1.82-0.06-2.16-0.17
				c-1.54-0.4-2.11-1.76-2.11-2.9c0-1.02,0.57-2.39,2.16-2.84c0.46-0.11,0.97-0.17,2.05-0.17h28.16v-6.71h-28.62
				c-1.19,0-2.11,0.06-2.84,0.17c-4.89,0.68-8.31,4.61-8.31,9.62c0,4.1,2.56,8.88,8.19,9.67c1.02,0.11,2.45,0.11,3.07,0.11h19
				c0.34,0,1.19,0,1.37,0.06c2.16,0.28,2.9,1.88,2.9,3.3C142.27,179.2,141.47,180.68,139.54,181.02L139.54,181.02z"/>
			<rect x="85.94" y="154.68" width="7.4" height="33.4"/>
			<polygon points="69.61,188.08 69.61,154.68 62.22,154.68 62.22,179.6 37.58,154.68 28.08,154.68 28.08,188.08 35.48,188.08 
				35.48,163.05 60.28,188.08 			"/>
			<polygon points="307.49,154.68 307.49,179.6 282.86,154.68 273.36,154.68 273.36,188.08 280.75,188.08 280.75,163.05 
				305.5,188.08 314.83,188.08 314.83,154.68 			"/>
			<path d="M234.84,154.68l-20.82,33.4H223l3.7-5.97H251l3.7,5.97h8.93l-20.82-33.4H234.84z M247.18,175.79h-16.67l8.36-13.43
				L247.18,175.79z"/>
			<path d="M69.22,135.74c14.91-43.52,55.99-72.77,102.3-72.77s87.45,29.24,102.3,72.77l0.11,0.34h32.6v-3.93l-13.54-1.59
				c-8.36-0.97-10.13-4.67-12.4-9.33l-0.57-1.14c-19.57-41.65-62.19-68.62-108.5-68.62c-46.37,0-88.93,26.97-108.5,68.73l-0.57,1.14
				c-2.28,4.67-4.04,8.36-12.4,9.33l-13.54,1.59v3.93h32.54L69.22,135.74z"/>
			<path d="M273.92,206.74l-0.11,0.34c-14.91,43.52-55.99,72.71-102.3,72.71s-87.45-29.24-102.3-72.77l-0.11-0.34H36.56v3.93
				l13.54,1.59c8.36,0.97,10.13,4.67,12.4,9.33l0.57,1.14c19.57,41.76,62.19,68.73,108.5,68.73s88.93-26.97,108.5-68.67l0.57-1.14
				c2.28-4.67,4.04-8.36,12.4-9.33l13.54-1.59v-3.93L273.92,206.74z"/>
		</g>
	</g>
</g>
</svg>
