<!-- Generator: Adobe Illustrator 28.1.0, SVG Export Plug-In . SVG Version: 6.00 Build 0)  -->
<svg version="1.1" id="Layer_1" xmlns="http://www.w3.org/2000/svg" xmlns:xlink="http://www.w3.org/1999/xlink" x="0px" y="0px"
	 viewBox="0 0 72 72" style="enable-background:new 0 0 72 72;" xml:space="preserve">
<g>
	<path d="M13.4,42.1c0,2.2,0.5,3.9,1.1,4.9c0.8,1.3,2.1,1.9,3.3,1.9c1.6,0,3.1-0.4,6-4.4c2.3-3.2,5-7.6,6.8-10.4l3.1-4.7
		c2.1-3.3,4.6-6.9,7.4-9.4c2.3-2,4.8-3.1,7.3-3.1c4.2,0,8.2,2.4,11.3,7c3.4,5,5,11.4,5,17.9c0,3.9-0.8,6.7-2.1,9
		c-1.3,2.2-3.7,4.4-7.8,4.4v-6.2c3.5,0,4.4-3.2,4.4-7c0-5.3-1.2-11.2-4-15.4c-1.9-3-4.4-4.8-7.2-4.8c-3,0-5.4,2.2-8.1,6.2
		c-1.4,2.1-2.9,4.7-4.5,7.6l-1.8,3.2c-3.6,6.5-4.6,7.9-6.4,10.4c-3.2,4.3-5.9,5.9-9.5,5.9c-4.3,0-7-1.8-8.6-4.6
		c-1.4-2.3-2-5.2-2-8.6L13.4,42.1z"/>
	<path d="M12.1,24.3c2.9-4.4,7-7.5,11.7-7.5c2.7,0,5.5,0.8,8.3,3.1c3.1,2.5,6.4,6.7,10.5,13.6l1.5,2.5c3.6,6,5.6,9,6.8,10.5
		c1.5,1.9,2.6,2.4,4,2.4c3.5,0,4.4-3.2,4.4-7l5.5-0.2c0,3.9-0.8,6.7-2.1,9c-1.3,2.2-3.7,4.4-7.8,4.4c-2.6,0-4.8-0.6-7.3-2.9
		c-1.9-1.8-4.2-5-5.9-8l-5.2-8.6c-2.6-4.3-5-7.6-6.3-9c-1.5-1.6-3.4-3.5-6.4-3.5c-2.5,0-4.5,1.7-6.3,4.4L12.1,24.3z"/>
	<path d="M23.7,23.1c-2.5,0-4.5,1.7-6.3,4.4c-2.5,3.7-4,9.3-4,14.6c0,2.2,0.5,3.9,1.1,4.9l-5.3,3.5c-1.4-2.3-2-5.2-2-8.6
		c0-6.2,1.7-12.6,4.9-17.5c2.9-4.4,7-7.5,11.7-7.5L23.7,23.1z"/>
</g>
</svg>
