<!-- Generator: Adobe Illustrator 28.1.0, SVG Export Plug-In . SVG Version: 6.00 Build 0)  -->
<svg version="1.1" id="Layer_1" xmlns="http://www.w3.org/2000/svg" xmlns:xlink="http://www.w3.org/1999/xlink" x="0px" y="0px"
	 viewBox="0 0 256 256" style="enable-background:new 0 0 256 256;" xml:space="preserve">
<g>
	<path d="M255.65,127.03c-0.11-1.28-0.33-2.53-0.65-3.74c-2.48-10.09-11.83-17.6-22.72-17.6h-33.59
		c-12.73,0-23.05,10.26-23.05,22.91c0,12.65,10.32,22.91,23.05,22.91h8.5c-9.07,29.73-37.87,58.05-78.6,59.18
		c-0.57,0.02-1.14,0.06-1.7,0.12c-40.27,0.53-80.3-31.34-81.97-80.73c0.02-0.56,0.02-1.12,0-1.69
		c-1.58-39.66,30.87-81.44,84.02-83.65c12.31-0.51,21.88-10.94,21.37-23.28C149.8,9.1,139.4-0.49,127.09,0.02
		C52.3,1.26-1.1,63.55,0.02,127.33c0.26,78.14,64.19,129.79,128.83,128.19c0.74-0.02,1.46-0.07,2.18-0.16
		C207.25,252.57,260.23,186.32,255.65,127.03z"/>
	<path d="M128.06,105.69c-12.63,0-22.89,10.27-22.89,22.94c0,12.67,10.25,22.94,22.89,22.94c12.63,0,22.89-10.27,22.89-22.94
		C150.94,115.96,140.69,105.69,128.06,105.69z"/>
</g>
</svg>
