<!-- Generator: Adobe Illustrator 28.1.0, SVG Export Plug-In . SVG Version: 6.00 Build 0)  -->
<svg version="1.1" id="Layer_1" xmlns="http://www.w3.org/2000/svg" xmlns:xlink="http://www.w3.org/1999/xlink" x="0px" y="0px"
	 viewBox="0 0 227 228" style="enable-background:new 0 0 227 228;" xml:space="preserve">
<g>
	<path d="M226.85,0.83v38.55C226.87,26.52,226.85,13.67,226.85,0.83z"/>
	<path d="M226.85,115.24c0.02-21.46,0-42.92,0-64.38V115.24z"/>
	<polygon points="226.85,50.86 226.85,39.38 226.85,39.38 226.85,50.86 	"/>
	<path d="M42.15,221.83c-11.93-11.91-23.84-23.84-35.79-35.74c-0.88-0.83-1.66-1.95-2.92-2.19c-1.05-0.02-1.95,0.57-2.9,0.95
		c-0.02,14.09,0,28.21,0,42.3c14.07,0,28.14,0,42.23,0.02c0-0.01,0.01-0.02,0.01-0.02c0.42-0.89,0.96-1.79,1.01-2.8
		C43.67,223.3,42.81,222.57,42.15,221.83z"/>
	<path d="M216.18,129.24c-0.88-0.02-1.54-1.02-1.24-1.85c0.21-0.71,0.76-1.38,0.66-2.16c-0.29-0.71-0.9-1.19-1.42-1.74
		c-6.2-6.18-12.38-12.36-18.56-18.54c-1.71-1.78-3.54-3.42-5.18-5.27c3.11-2.99,6.13-6.08,9.2-9.15
		c7.72,7.63,15.35,15.35,23.05,23.01c0.71,0.69,1.36,1.5,2.21,2.04c0.64,0.31,1.33-0.12,1.95-0.33V50.86
		c-3.18,3.21-6.42,6.37-9.55,9.6c-1.4-1.16-2.57-2.59-3.95-3.78c0.33-0.57,0.69-1.14,1.07-1.69c1.43-2.26,2.38-4.85,2.71-7.49
		c0.5-3.87-0.24-7.84-1.9-11.36c-0.55-1.23-1.16-2.59-0.81-3.97c0.28-0.69,0.9-1.19,1.54-1.5c0.97-0.45,2.14-0.07,2.85,0.67
		c2.69,2.66,5.32,5.37,8.03,8.03V0.83c-8.01,0.01-16.04,0-24.06,0c-5.14,0-10.27,0-15.41,0.02c2.73,2.78,5.51,5.51,8.27,8.29
		c0.59,0.55,0.93,1.45,0.57,2.21c-0.43,1.09-1.35,2.19-2.59,2.26c-1.26-0.12-2.3-0.88-3.42-1.35c-2.95-1.28-6.18-2.12-9.39-1.78
		c-3.57,0.26-6.84,1.85-9.74,3.85c-1.26-1.31-2.59-2.54-3.85-3.87c3.18-3.21,6.42-6.39,9.58-9.6c-4.51-0.02-9.02-0.02-13.54-0.02
		h-20.73h-142c0,58.77-0.02,117.57,0,176.34c5.23-5.3,10.55-10.53,15.78-15.83c0.76-0.78,1.76-1.43,2.87-1.5
		c1.62-0.12,3.11,1.62,2.66,3.21c-0.36,1.26-1.33,2.38-1.28,3.75c0.29,1.17,1.26,1.95,2.07,2.76
		c12.07,12.07,24.15,24.17,36.24,36.24c0.59,0.57,1.26,1.21,2.14,1.28c1.38,0,2.47-1.05,3.8-1.31c1.59-0.33,3.21,1.26,2.99,2.85
		c-0.14,1.38-1.12,2.42-2.07,3.33l-15.18,15.19l0,0h64.33v0c0.33-0.67,0.74-1.52,0.14-2.19c-1.31-1.52-2.83-2.85-4.23-4.33
		c-5.59-5.58-11.17-11.15-16.73-16.76c-0.47-0.43-1-0.95-1.66-0.9c-0.76,0.17-1.4,0.67-2.16,0.76c-0.85-0.05-1.66-0.88-1.52-1.76
		c0.31-0.9,1.02-1.54,1.66-2.21c3.04-2.97,5.99-6.04,9.05-8.98c9.36,9.38,18.73,18.75,28.11,28.11c-2.76,2.76-5.51,5.49-8.27,8.25
		h107.56V119.61c-2.9,2.9-5.82,5.8-8.72,8.72C217.63,128.86,216.96,129.38,216.18,129.24z M215.51,92.19
		c0.93,0.88,0.26,2.64-0.97,2.83c-1.14,0.17-2.02-0.74-2.9-1.33c-2.35-1.62-5.13-3.14-8.08-2.64c-0.79-0.71-1.54-1.45-2.19-2.28
		c1.83-1.76,3.59-3.57,5.37-5.35C209.69,86.32,212.61,89.24,215.51,92.19z M187.64,18.71c0.48-0.88,1.38-1.69,2.45-1.55
		c1.19,0.1,2.04,1.07,2.83,1.85c4.75,4.77,9.5,9.53,14.26,14.28c0.9,0.88,1.97,1.73,2.19,3.04c0.12,1.35-1.12,2.57-2.42,2.71
		c-1.09,0.02-2.09-0.57-3.04-1.09c-2.02-1.19-4.3-2.14-6.7-2.02c-1.24-0.02-2.42,0.47-3.54,0.97c-1.31-1.4-2.8-2.66-4.04-4.11
		c0.38-1.07,0.88-2.09,0.95-3.23c0.17-2.59-0.88-5.06-2.19-7.22C187.71,21.27,187.19,19.94,187.64,18.71L187.64,18.71z
		 M146.55,31.14c5.75-5.75,11.5-11.5,17.23-17.25c0.21-0.24,0.59-0.45,0.81-0.09c16.57,16.54,33.13,33.1,49.67,49.67
		c-5.81,5.81-11.62,11.62-17.42,17.44c-0.76,0.71-1.69,1.31-2.73,1.38c-1.45,0.12-2.9-1.19-2.78-2.66c0.05-1.45,1.28-2.57,1.31-4.04
		c0.05-0.93-0.66-1.61-1.26-2.26c-12.29-12.26-24.55-24.55-36.84-36.84c-0.69-0.67-1.45-1.5-2.49-1.43
		c-1.54,0.02-2.71,1.45-4.28,1.28c-0.9,0.02-1.64-0.69-2.09-1.43C145.05,33.63,145.62,32.09,146.55,31.14z M139.2,38.48
		c0.64-0.64,1.45-1.12,2.35-1.24c1.59-0.24,3.26,1.31,2.95,2.92c-0.21,1.43-1.4,2.57-1.31,4.07c0.24,1.04,1.09,1.76,1.78,2.49
		c12.15,12.12,24.29,24.22,36.39,36.36c0.67,0.59,1.33,1.38,2.28,1.38c1.43,0,2.52-1.07,3.87-1.31c1.57-0.26,3.11,1.28,2.92,2.85
		c-0.09,1.07-0.74,2-1.47,2.73c-6.11,6.08-12.19,12.22-18.3,18.3c-0.78,0.78-1.78,1.5-2.95,1.5c-1.28,0.07-2.52-1.02-2.69-2.28
		c-0.17-1.66,1.38-2.9,1.33-4.56c-0.07-0.78-0.62-1.42-1.14-2c-10.67-10.65-21.32-21.32-31.99-31.96
		c8.82,16.37,17.71,32.7,26.52,49.08c0.14,0.24,0.26,0.5,0.38,0.78c-0.64,0.59-1.26,1.23-1.88,1.88
		c-17.66-8.7-35.29-17.49-52.93-26.21c-2.78-1.38-5.54-2.99-8.67-3.37c-1.05-0.14-1.76,0.71-2.52,1.26c-0.78,0.62-1.83,1-2.8,0.69
		c-1.17-0.52-1.97-1.9-1.62-3.16c0.24-0.85,0.83-1.57,1.45-2.19c5.7-5.68,11.38-11.38,17.09-17.04c8.89,4.35,17.8,8.6,26.71,12.95
		c0.28,0.21,0.59,0.43,0.85,0.71c0.14-0.17,0.26-0.33,0.4-0.5l-0.33,0.05c-4.68-8.91-9.6-17.7-14.28-26.62
		C127.51,50.19,133.33,44.32,139.2,38.48z M139.65,172.54c-0.28-1.21-1.09-2.21-1.5-3.35c-0.38-0.97,0.52-2.12,1.54-1.95
		c0.48,0.12,0.83,0.43,1.16,0.76c2.49,2.52,5.02,4.99,7.49,7.51c0.81,0.83,1.85,1.55,2.19,2.73c-0.31,0.52-0.64,1.24-1.35,1.31
		c-1.17,0.12-2.02-0.81-3.07-1.19c-1.45-0.72-3.15-0.71-4.59,0.03c-0.76-0.76-1.5-1.52-2.26-2.26
		C139.8,175.01,140.04,173.73,139.65,172.54z M141.84,165.27c-0.62,0.07-1.19-0.31-1.74-0.55c-2.18-1.07-4.71-1.59-7.1-0.97
		c-1.52,0.31-2.85,1.16-4.18,1.95c-0.71-0.74-1.42-1.47-2.16-2.18c2.83-2.78,5.58-5.66,8.46-8.39c2.54,2.57,5.11,5.11,7.65,7.68
		C143.62,163.63,142.72,164.89,141.84,165.27z M114.96,148.27c-11.74-11.76-23.53-23.53-35.27-35.29c-1.07-1.09-2.42-1.97-3.97-2.09
		c-1.26-0.17-2.5,0.28-3.68,0.71c-0.48,0.26-0.78-0.33-1.09-0.57c-0.95-1.02-2-1.95-2.95-2.99c0-0.07-0.02-0.21-0.02-0.29
		c3.16-2.71,6.87-4.82,10.86-6.11c4.73-1.52,9.86-1.69,14.73-0.69c8.27,1.76,15.59,6.61,21.44,12.62
		c5.73,5.8,10.29,13.07,11.83,21.17c0.86,4.44,0.67,9.1-0.62,13.45c-1.26,4.3-3.54,8.27-6.42,11.69c-1.24-1.31-2.59-2.52-3.78-3.85
		c0-0.64,0.4-1.19,0.52-1.81C117.2,152.15,116.55,149.79,114.96,148.27z M136.11,134.75c0.45-1.54,1.07-3.11,0.81-4.73
		c-0.38-2.71-1.93-5.11-3.64-7.18c-6.44-6.46-12.9-12.91-19.37-19.39c-1-1.05-2.09-2-3.04-3.11c1.09,0.36,2.09,0.9,3.11,1.43
		c3.83,1.85,7.63,3.78,11.48,5.66c0.33,0.17,0.64,0.43,0.93,0.69c3.23,3.28,6.49,6.51,9.74,9.77c1.77,1.88,3.95,3.32,6.37,4.23
		c1.69,0.64,3.59,0.64,5.28,0.05c0.86-0.28,1.78-0.62,2.69-0.33c0.92,0.38,1.55,1.24,1.64,2.23c-0.07,1.31-0.9,2.4-1.78,3.3
		c-2.91,2.95-5.84,5.87-8.79,8.77c-0.78,0.71-1.69,1.45-2.78,1.57C137.18,137.93,135.64,136.27,136.11,134.75z M108.33,44.9
		c-0.26-0.76-0.83-1.64-0.33-2.4c0.43-0.78,1.64-0.88,2.21-0.21c2.4,2.42,4.85,4.85,7.27,7.27c-2.71,2.73-5.43,5.45-8.17,8.15
		c-0.62-0.71-1.45-1.28-1.93-2.11c0.78-1.33,1.62-2.69,1.83-4.25C109.61,49.17,109.26,46.89,108.33,44.9z M104.03,43.26
		c0.45,0.5,1.09,0.95,1.14,1.69c0.09,0.74-0.62,1.45-1.38,1.38c-1,0-1.76-0.78-2.66-1.12c-1.33-0.62-2.95-0.66-4.25,0.05
		c-0.69-0.69-1.38-1.4-2.09-2.04c0.31-1.05,0.6-2.16,0.33-3.26c-0.19-1.23-1.05-2.19-1.43-3.33c-0.31-0.78,0.24-1.73,1.07-1.85
		c0.62-0.09,1.12,0.38,1.54,0.78C98.87,38.12,101.44,40.71,104.03,43.26z M90.74,23.36c2.45,2.38,4.82,4.78,7.23,7.18
		c0.78,0.76,0.07,2.04-0.81,2.35c-0.74,0.09-1.38-0.4-2.04-0.64c-2.57-1.26-5.75-1.4-8.32-0.02c-0.67,0.28-1.21,0.85-1.93,0.97
		c-0.71-0.57-1.31-1.28-1.97-1.9C85.47,28.59,88.18,26.05,90.74,23.36z M71.35,43.49c0.05-0.57,0.38-1.07,0.78-1.47
		c3.04-3.07,6.13-6.08,9.15-9.2c3.49,3.38,6.87,6.87,10.31,10.27c5.4,5.37,10.77,10.79,16.18,16.16c-3.09,3.12-6.19,6.23-9.32,9.32
		c-0.64,0.71-1.92,1.02-2.54,0.14c-0.76-0.81,0.07-1.81,0.31-2.64c0.29-0.62-0.21-1.16-0.62-1.59c-6.22-6.2-12.43-12.41-18.63-18.63
		c-0.57-0.52-1.05-1.16-1.73-1.52c-0.95-0.21-1.69,0.64-2.61,0.69C71.92,44.94,71.26,44.23,71.35,43.49z M58.71,55.45
		c3.11-3.16,6.27-6.25,9.39-9.39c0.48-0.5,1-1.02,1.69-1.19c0.69-0.14,1.54,0.29,1.64,1.05c0.17,0.83-0.45,1.52-0.62,2.33
		c-0.1,0.64,0.43,1.09,0.81,1.52c6.35,6.34,12.67,12.69,19.01,19.01c0.43,0.4,0.88,0.9,1.5,1.05c0.76-0.07,1.4-0.57,2.14-0.74
		c0.9-0.1,1.73,0.88,1.45,1.73c-0.12,0.64-0.62,1.12-1.05,1.57c-3.09,3.09-6.18,6.18-9.27,9.24c-0.55,0.55-1.26,1.12-2.07,0.93
		c-0.45-0.19-0.83-0.55-1-1c-0.24-1.05,0.88-1.9,0.62-2.95c-0.24-0.4-0.57-0.71-0.88-1.04c-2.9-2.88-5.77-5.8-8.7-8.67
		c-1.02,1.04-2.05,2.07-3.09,3.09c-0.71-0.69-1.43-1.38-2.09-2.11c1.04-1.02,2.07-2.07,3.11-3.09c-2.57-2.52-5.11-5.09-7.65-7.63
		c-0.55-0.52-1.02-1.09-1.66-1.47c-1.16-0.38-2.28,1.26-3.4,0.36C57.69,57.4,57.97,56.11,58.71,55.45z M45.64,68.52
		c3.09-3.09,6.18-6.18,9.24-9.27c0.33-0.31,0.64-0.62,1.05-0.86c0.71-0.45,1.78-0.17,2.11,0.64c0.33,0.97-0.55,1.81-0.57,2.76
		c-0.02,0.5,0.38,0.85,0.69,1.19c6.58,6.58,13.14,13.17,19.73,19.73c1.19,1.28,2.71-0.93,3.99,0.02c0.83,0.67,0.55,1.97-0.17,2.59
		c-3.09,3.11-6.2,6.18-9.27,9.29c-0.5,0.48-1,1.05-1.69,1.26c-0.76,0.21-1.69-0.26-1.78-1.07c-0.14-0.95,0.71-1.69,0.67-2.61
		c-0.12-0.4-0.38-0.74-0.67-1.04c-6.23-6.21-12.45-12.43-18.66-18.66c-0.59-0.55-1.09-1.24-1.88-1.52c-0.85-0.05-1.57,0.59-2.4,0.69
		c-0.71,0.02-1.33-0.62-1.36-1.31C44.62,69.61,45.14,69.02,45.64,68.52z M38.75,75.39c1.43-1.38,2.8-2.8,4.23-4.21
		c2.5,2.42,4.94,4.94,7.44,7.39c0.43,0.47,0.95,0.9,1.19,1.52c0.29,1.16-1.04,2.45-2.21,1.92c-1.16-0.52-2.09-1.45-3.21-2.07
		c-1.88-1.16-4.06-1.9-6.3-1.64c-0.64-0.67-1.35-1.28-1.92-2C38.15,75.93,38.46,75.67,38.75,75.39z M28.39,85.75
		c2.66-2.61,5.28-5.25,7.91-7.89c4.99,5.02,10,10.03,15.02,15.02c2.76,2.73,5.44,5.51,8.22,8.2c0.78,0.88,1.83,0.14,2.69-0.17
		c0.86-0.38,1.85,0.38,1.83,1.28c0,0.62-0.36,1.14-0.76,1.57c-3.23,3.21-6.42,6.42-9.62,9.62c-0.45,0.45-1.02,0.9-1.69,0.85
		c-0.74,0.07-1.45-0.64-1.38-1.35c0.05-0.76,0.64-1.38,0.64-2.14c0.05-0.64-0.5-1.05-0.88-1.47c-7.58-7.53-15.09-15.14-22.7-22.65
		C27.91,86.32,28.12,86.03,28.39,85.75z M20.92,93.19c1.71-1.62,3.3-3.35,5.04-4.94c0.88,0.33,1.43,1.33,2.14,1.95
		c-0.38,2.76,0.93,5.35,2.47,7.51c0.45,0.69,1,1.33,1.28,2.11c0.31,1.05-0.71,2.14-1.76,2.02c-0.59,0-1-0.5-1.38-0.85
		C26.13,98.37,23.51,95.8,20.92,93.19z M91.65,186.06l-18.42,18.42c-0.81,0.78-1.81,1.47-2.97,1.47c-1.43,0.05-2.76-1.31-2.64-2.76
		c0.14-1.42,1.33-2.57,1.36-4.04c-0.05-0.88-0.74-1.54-1.28-2.16c-5.47-5.49-10.96-10.93-16.4-16.4c-0.21-0.17-0.5-0.64-0.81-0.31
		c-1.9,1.83-3.73,3.76-5.63,5.59c-1.28-1.28-2.57-2.57-3.85-3.87c1.84-1.93,3.73-3.81,5.66-5.66c0-0.1,0.02-0.31,0.02-0.4
		c-5.16-5.06-10.22-10.2-15.35-15.3c-0.78-0.74-1.52-1.66-2.61-1.92c-1.5-0.1-2.66,1.07-4.06,1.33c-1.81,0.31-3.45-1.73-2.83-3.42
		c0.31-1.19,1.26-2.04,2.09-2.85c5.94-5.97,11.91-11.88,17.82-17.85h0c0.71-0.69,1.64-1.21,2.64-1.28c1.64-0.1,3.14,1.61,2.68,3.21
		c-0.36,1.21-1.23,2.28-1.28,3.59c0.1,1.14,1.05,1.95,1.81,2.71l36.6,36.6c0.57,0.55,1.21,1.09,2.02,1.16
		c1.38,0,2.45-1.02,3.75-1.33c1.57-0.31,3.14,1.12,3.07,2.68C92.98,184.33,92.38,185.3,91.65,186.06z M90.74,169.69
		c-8.34-1.83-15.68-6.85-21.55-12.95c-5.42-5.68-9.79-12.64-11.34-20.42c-1.04-5.16-0.71-10.62,1.14-15.57
		c1.31-3.64,3.37-6.96,5.82-9.93c1.21,1.24,2.5,2.42,3.68,3.68c0.24,0.76-0.38,1.47-0.5,2.23c-0.62,2.04,0.19,4.28,1.69,5.75
		c11.55,11.57,23.12,23.12,34.7,34.7c1.12,1.21,2.47,2.35,4.18,2.61c1.52,0.24,3.02-0.29,4.42-0.81c1.28,1.28,2.57,2.54,3.85,3.83
		c-2.8,2.45-6.06,4.37-9.53,5.73C102.08,170.57,96.24,170.9,90.74,169.69z M129.22,217.24c-0.73-0.71-1.45-1.43-2.16-2.16
		c0.43-0.81,0.93-1.66,0.78-2.61c-0.24-1.43-1.21-2.59-2.19-3.57l-16.04-16.04c-1.09-1.07-2.33-2.23-3.94-2.35
		c-0.88-0.09-1.66,0.36-2.4,0.78c-0.69-0.76-1.64-1.33-2.07-2.28c2.61-2.69,6.18-4.56,9.96-4.8c4.23-0.36,8.44,1.16,11.93,3.47
		c2.73,1.83,5.28,3.95,7.22,6.58c2.33,3.11,3.76,6.92,3.78,10.84C134.16,209.57,132.41,214.08,129.22,217.24z M143.5,202.98
		c-0.45,0.5-1.09,0.79-1.69,1.05c-0.59-0.21-1.33-0.43-1.52-1.09c-0.36-1.12,0.81-2,0.67-3.09c-0.48-0.93-1.31-1.59-2.02-2.33
		l-17.33-17.33c-1.02-0.95-1.88-2.09-3.09-2.8c-1.21-0.24-2.3,1.31-3.47,0.47c-1-0.64-0.71-2.07,0.05-2.78h0
		c3.28-3.33,6.61-6.58,9.89-9.89c5.32,5.25,10.58,10.6,15.92,15.85c4.09,4.06,8.13,8.18,12.24,12.22
		C149.97,196.54,146.69,199.73,143.5,202.98z M154.75,191.62c-0.69-0.74-1.43-1.45-2.14-2.19c2.54-3.14,2.9-7.68,1.19-11.29
		c-0.31-0.86-0.97-1.9-0.36-2.76c0.5-0.76,1.71-0.88,2.3-0.17c2.57,2.59,5.18,5.16,7.72,7.77
		C160.54,185.85,157.74,188.84,154.75,191.62z M176.06,170.42c-3.35,3.3-6.65,6.65-10,9.96c-0.74,0.81-2.12,0.4-2.57-0.5
		c-0.66-1.12,1.14-2.31,0.19-3.33c-6.9-6.87-13.78-13.76-20.65-20.65c-0.5-0.45-0.93-1.02-1.52-1.33c-1.02-0.29-1.83,0.57-2.78,0.69
		c-0.74-0.07-1.45-0.71-1.4-1.47c-0.07-0.83,0.55-1.47,1.07-2.02c3.16-3.14,6.32-6.3,9.46-9.43v0c2.85,2.66,5.54,5.51,8.34,8.25
		c5.32,5.35,10.67,10.69,16.02,16.04c0.38,0.31,0.74,0.74,1.23,0.83c1.02,0.1,1.83-0.9,2.85-0.71c0.62,0.21,1.19,0.81,1.12,1.5
		C177.42,169.16,176.63,169.8,176.06,170.42z M189.82,151.34c-3.83,0.17-7.58-1.19-10.77-3.18c-2.31-1.47-4.42-3.26-6.18-5.32
		c0.83,2.78,0.64,5.9-0.67,8.51c-1.28,2.57-3.28,4.66-5.25,6.68c-0.71-0.71-1.45-1.45-2.19-2.16c0.62-1,1.02-2.19,0.64-3.35
		c-0.45-1.19-1.43-2.04-2.28-2.95c-1.77-1.79-3.54-3.57-5.32-5.35c-1.04-0.97-2.16-2.09-3.66-2.19c-0.88-0.09-1.66,0.36-2.4,0.78
		c-0.74-0.71-1.45-1.45-2.19-2.16c2.85-2.88,6.11-5.85,10.29-6.37c3.42-0.57,6.87,0.9,9.29,3.26c-1.52-3.04-2.47-6.46-2.14-9.91v0
		c0.29-3.61,1.88-7.06,4.26-9.77c0.69,0.71,1.43,1.43,2.14,2.14c-0.26,0.86-0.67,1.76-0.43,2.66c0.14,0.81,0.69,1.45,1.26,2.02
		c6.27,6.25,12.5,12.52,18.77,18.77c0.74,0.71,1.45,1.57,2.49,1.85c0.95,0.26,1.93-0.07,2.85-0.36c0.71,0.71,1.45,1.43,2.14,2.19
		C197.5,149.6,193.77,151.34,189.82,151.34z M202.16,145.44c-0.69-0.71-1.5-1.35-2.09-2.16c0.12-0.88,0.55-1.73,0.33-2.61
		c-0.24-1.14-1.12-1.95-1.9-2.73c-6.27-6.25-12.52-12.5-18.77-18.75c-0.62-0.62-1.35-1.19-2.23-1.26c-0.83-0.1-1.66,0.14-2.42,0.4
		c-0.74-0.69-1.47-1.43-2.19-2.14c3.16-2.71,7.27-4.44,11.48-4.23c1.62-0.05,3.18,0.33,4.75,0.69c-1.9-1.97-3.92-3.83-5.75-5.85
		c1.78-1.78,3.59-3.57,5.37-5.37c0.78,0.64,1.47,1.4,2.21,2.11c-0.31,2.38,0.5,4.73,1.73,6.72c0.64,1.14,1.57,2.11,2.14,3.3
		c0.31,0.57,0.1,1.21-0.12,1.78c3,2.03,5.61,4.57,7.72,7.51c2.4,3.4,4.09,7.44,3.99,11.67C206.44,138.55,204.7,142.4,202.16,145.44z
		"/>
	<polygon points="226.85,119.61 226.85,119.61 226.85,115.24 226.85,115.24 	"/>
</g>
</svg>
