<!-- Generator: Adobe Illustrator 28.1.0, SVG Export Plug-In . SVG Version: 6.00 Build 0)  -->
<svg version="1.1" id="Layer_1" xmlns="http://www.w3.org/2000/svg" xmlns:xlink="http://www.w3.org/1999/xlink" x="0px" y="0px"
	 viewBox="0 0 360 180" style="enable-background:new 0 0 360 180;" xml:space="preserve">
<g transform="translate(647.97 -300.06)">
	<path d="M-392.9,367.5v5.6h5.5c2.4,0,4,1.5,4.9,2.5c0.7,0.8,16.6,18.8,16.9,19.2c0.4,0.5,0.4,0.5,0.4,0.8v8.9c0,0.4,0,0.8-0.1,1.2
		c-0.2,0.5-0.7,0.9-1.2,1.1c-0.5,0.1-1,0.1-1.6,0.1h-5.5v5.6h30.9v-5.6h-5.8c-0.5,0-1,0-1.6-0.1c-0.5-0.2-1-0.6-1.2-1.1
		c-0.1-0.4-0.1-0.8-0.1-1.2v-8.9c0-0.3,0-0.6,0.2-0.8l17.1-19.6c1.6-1.7,2.4-2.1,4.5-2.1h5.7v-5.6h-25.5v5.6h3.8
		c0.6,0,1.1,0.4,1.1,1c0,0.3-0.1,0.5-0.2,0.7c-0.1,0.1-10.7,12.5-10.8,12.7c-0.1,0.1-0.2,0.1-0.3,0c-0.1-0.1-10.5-12.6-10.5-12.6
		c-0.7-0.9-0.2-1.7,0.7-1.7h3.7v-5.6L-392.9,367.5z"/>
	<path d="M-468.7,367.5v5.6h4.9c3.6,0,3.8,2,3.8,3.7v26.4c0,1.6,0.1,3.7-2.2,3.7h-6.1v5.6h26V407h-6.3c-2.5,0-2.6-1.2-2.7-3.6v-22.6
		l35.7,31.8h9.1l-0.5-35.9c0.1-2.6,0.2-3.5,2.9-3.5h5.7v-5.6h-26.5v5.6h5.8c2.7,0,3.1,1,3.2,3.5l0.3,18.8l-31-27.9L-468.7,367.5
		L-468.7,367.5z"/>
	<path d="M-585.6,364.7c-5.6,0-11.9,1-17.3,3.5c-5,2.2-9.1,5.8-9.1,11.8c0,3.1,1.2,6.1,3.3,8.4c1.4,1.3,3.8,3.6,9.9,4.9
		c2.7,0.6,8.5,1.5,14.3,2.1c5.8,0.6,11.4,1.2,13.7,1.8c1.8,0.5,4.9,1.1,4.9,4.6s-3.2,4.5-3.8,4.7c-0.6,0.2-4.5,2-11.4,2
		c-4.6-0.1-9.2-0.9-13.6-2.3c-2.6-0.9-5.4-2.2-7.9-5.3c-1-1.5-1.6-3.2-1.6-5h-6.3v17.7h7v-2.4c0-0.6,0.5-1,1-1
		c0.2,0,0.4,0.1,0.5,0.1c3.3,1.4,6.8,2.6,10.3,3.3c3.7,0.8,6.1,1.3,10.7,1.3c4.8,0.1,9.7-0.6,14.3-2c3.1-0.8,6-2.3,8.5-4.2
		c2.9-2.2,4.6-5.7,4.6-9.3c0-3.4-1.3-6.7-3.7-9.2c-1.3-1.3-2.9-2.3-4.5-3.1c-1.8-0.8-3.7-1.5-5.6-1.9c-3.7-0.9-11.9-2-15.8-2.4
		c-4.1-0.4-11.2-1-14.1-1.9c-0.9-0.3-2.6-1.1-2.6-3.2c0-1.5,0.8-2.7,2.4-3.7c2.5-1.6,7.6-2.6,13-2.6c5.2-0.1,10.3,0.9,15,2.9
		c1.3,0.6,2.5,1.3,3.6,2.1c1.8,1.5,3,3.6,3.5,5.9h5.7V367h-6.3v1.8c0,0.6-0.6,1.3-1.7,0.7C-567.7,368-575.8,364.8-585.6,364.7
		L-585.6,364.7z"/>
	<path d="M-509.4,364.7c-10,0-20.6,3.5-26.6,8.9c-4.6,4.2-7.2,10.2-7.2,16.4c-0.1,6.3,2.6,12.3,7.2,16.5c6.5,5.8,16.1,8.9,26.6,8.9
		c10.5,0,20.3-3.1,26.6-8.9c4.5-4.3,7.1-10.2,7.1-16.5c0.1-6.2-2.5-12.2-7.1-16.4C-489.5,367.5-498.3,364.7-509.4,364.7
		L-509.4,364.7z M-509.4,371.3c5.5,0,10.7,2,14.3,5.4c3.4,3.4,5.2,8.1,5.2,13.2c0,5.4-1.6,9.7-5.2,13.2c-3.6,3.6-8.7,5.5-14.3,5.5
		c-5.5,0-10.7-1.9-14.3-5.5c-3.4-3.6-5.3-8.3-5.2-13.2c0-5.1,1.8-9.9,5.2-13.2C-520.1,373.3-514.8,371.3-509.4,371.3L-509.4,371.3z"
		/>
</g>
</svg>
