<!-- Generator: Adobe Illustrator 28.1.0, SVG Export Plug-In . SVG Version: 6.00 Build 0)  -->
<svg version="1.1" id="Layer_1" xmlns="http://www.w3.org/2000/svg" xmlns:xlink="http://www.w3.org/1999/xlink" x="0px" y="0px"
	 viewBox="0 0 72 72" style="enable-background:new 0 0 72 72;" xml:space="preserve">
<g>
	<path d="M38.9,27.9c0.5,0,1-0.3,1.4-0.6l0.1-0.1c0.4-0.3,0.6-1,0.6-1.9c0-0.8-0.2-1.4-0.6-1.8c-0.4-0.3-0.9-0.5-1.4-0.5H28.7v4.8
		h10.1L38.9,27.9z"/>
	<path d="M39.9,33.8H28.7v5.3h11l0.1,0c0.6,0,1.1-0.3,1.6-0.7c0.4-0.4,0.7-1.1,0.7-1.9c0-0.7-0.2-1.4-0.6-1.9
		C41.1,34.1,40.6,33.8,39.9,33.8z"/>
	<path d="M60.5,9.6c0-1.3-0.9-2.4-2.2-2.4l0.1-0.1H14.1l-0.1,0c-1.4,0.1-2.4,1.2-2.4,2.5v44.1l0,0.1c0.1,1.3,1.2,2.1,2.5,2.1h6.5
		v8.8l8.1-8.8h29.6l0.1,0c1.3,0,2.1-0.9,2.1-2.2V9.7L60.5,9.6z M50.8,43l-0.1,0.2c-0.6,0.9-1.4,1.7-2.3,2.3l-0.2,0.1
		c-1,0.6-2.1,1.2-3.4,1.4c-1.4,0.3-2.8,0.6-4.3,0.6H20.5V16.2h22.6l0.2,0c1,0,1.9,0.3,2.8,0.7c0.8,0.5,1.6,1.1,2.3,1.8
		c1.3,1.5,1.9,3.5,1.9,5.4c0,1.5-0.4,2.9-1.1,4.2c-0.8,1.4-1.9,2.4-3.4,3c1.8,0.5,3.2,1.4,4.3,2.7c1,1.3,1.5,3.1,1.5,5.3
		C51.6,40.8,51.3,42,50.8,43L50.8,43L50.8,43z"/>
</g>
</svg>
