<!-- Generator: Adobe Illustrator 28.1.0, SVG Export Plug-In . SVG Version: 6.00 Build 0)  -->
<svg version="1.1" id="Layer_1" xmlns="http://www.w3.org/2000/svg" xmlns:xlink="http://www.w3.org/1999/xlink" x="0px" y="0px"
	 viewBox="0 0 72 72" style="enable-background:new 0 0 72 72;" xml:space="preserve">
<g>
	<path d="M50.7,29.5c-0.1,1.9-1.2,3.8-1.5,4.2c-0.6,1-0.8,1.8-0.9,2.1c-0.1,0.3-0.4,0.2-0.4,0.2c-0.1-0.1-0.1-0.4-0.1-0.4
		c0,0-0.2,0-0.3,0.3c-0.1,0.3-0.4,0.7-0.6,0.9c-0.1,0.1-0.1,0.4-0.1,0.5c0,0.3,0,1.6-0.2,3c-0.4,2.5-1.5,3.9-2.3,4.7
		c-1.8,1.7-3.3,2.4-3.5,2.5c-0.2,0.1-0.6,0.1-0.7,0c-0.1-0.1-0.2-0.2-0.4-0.4c-0.2-0.2-0.3,0.1-0.3,0.2c0,0.1,0.1,0.3,0.1,0.6
		c0.1,0.5-0.3,1-0.6,1.4c-0.2,0.3-0.4,0.5-0.6,0.8c-0.2,0.4-0.4,0.8-0.4,1.2c0,0.1,0,0.1-0.1,0.1c-0.4,0.1-0.8-0.4-1.2-0.7
		c-0.2-0.2-0.5-0.4-0.7-0.6l0,0c-0.2-0.2-0.5-0.5-0.7-0.7c0,0,0,0,0-0.1c-0.1-0.1-0.2-0.2-0.2-0.3c0,0,0-0.1-0.1-0.1
		c-0.1-0.1-0.2-0.2-0.3-0.4c-0.8-1.3-0.6-2.1-0.1-3.5c0.3-1,0.1-2.1,0.1-2.2s0-0.3,0.3-0.1c0.2,0.1,0.4,0.5,0.6,0.8
		c0.2,0.3,0.3,0.1,0.3-0.1c0.1-0.5,0-0.8,0-1c0-0.1-0.1-0.4-0.3-0.5c-0.3-0.1-0.6-0.2-0.8-0.3c-0.1-0.1-0.2-0.2-0.1-0.3
		c0.2-0.1,0.5-0.3,0.7-0.4c0.3-0.1,0.7-0.2,1.1-0.1c2.7,0.4,3.5-0.1,4.6-0.4c0.2-0.1,0.3-0.1,0.5,0s0.6,0.3,0.7,0.5
		c0.1,0.2,0,1.1,0.1,1.7c0.1,0.6,0.6,0.1,0.7-0.2c0.1-0.3,0.2-0.9,0.3-1c0-0.2,0.2-0.8,0.4-1c0.5-0.4,0.7-0.9,0.7-1.1
		c0.1-0.2,0.2-0.8,0.2-1.7c0-0.9-0.2-1-0.4-1.2c-0.2-0.2-0.5-0.2-1.1-0.7c-0.5-0.4-0.9-1.2-1.3-1.6c-0.4-0.5-1-0.9-1.7-1.1
		c-0.7-0.2-0.4,0.5-0.3,0.7c0,0.1,0.1,0.5-0.1,0.7c-0.2,0.2-1.6,1.1-2.7,0.9c-1.8-0.3-2.4-1.5-2.5-2c-0.1-0.5,0.5-1.6,0.6-2.4
		c0-0.4,0.1-1,0.1-1.5c0-0.5,0.4-1.1,0.5-1.2c0.1-0.1,0.5-0.2,0.9-0.3c0.4,0,0.9,0.2,0.9,0.5c0.3,1.2,0.7,1.4,0.8,1.5
		c0.1,0.1,0.4-0.1,0.5-0.2c0.1-0.1,0.4-0.3,0.3-0.5c-0.1-0.2-0.2-0.4-0.2-0.5c-0.1-0.2,0.2-0.2,0.3-0.1c0.8,0.5,1.2,0.6,2,0.7
		c0.8,0.1,2.2-0.3,2.3-0.3c0.1,0,0.4,0.1,0.5,0.3c0.1,0.1,0.2,0.4,0.3,0.4c0.1,0,0.4,0.1,0.6,0.1c0.2,0,0.6,0,0.5,0.4
		c-0.2,1-1.1,1.5-1.1,1.5c0,0,0,0,0,0c0,0,0,0,0,0c-0.1,0.1-0.3,0.1-0.6,0.2c-0.2,0-0.3,0.1-0.4,0.1c-0.1,0.1,0.1,0.3,0.3,0.5
		c0.1,0.1,0.6,0,0.9-0.1l0,0c0,0,0,0,0,0c0.7-0.3,1.1-0.7,1.5-1.3c0.4-0.5,0.8-2.4,0.9-2.8c0.1-0.3,0.2-0.5,0.4-0.6
		c0.2-0.1,1-0.5,1.2-0.5c0.1,0,0.2,0,0.3,0.3c0.1,0.3,0.1,2.1,0.1,2.4c0,0.3,0.2,0.3,0.3,0.2c0.2-0.1,0.3-0.2,0.5-0.5
		c0.2-0.2,0.1-0.6,0-0.8c-0.1-0.2-0.3-0.5-0.2-0.7c0.3-0.6,0.8-0.5,0.9-0.4C50.3,28,50.8,28.2,50.7,29.5 M39.4,39.6
		c-0.3,0.1-1.3,0.3-1.7,0.3c-0.5,0-1.9,0.1-2.1,0.1c-0.3,0-0.7-0.2-1-0.4c-0.1-0.1-0.1-0.3,0.1-0.3c0.5,0,1.3-0.3,4.2,0
		c0.3,0,0.5,0,0.5,0C39.5,39.4,39.7,39.5,39.4,39.6 M32.7,38.1c-1.3,0.3-1.6-0.2-1.7-0.3c-0.1-0.1,0.1-0.2,0.2-0.3
		c0.3-0.1,0.7-0.3,1-0.5c0.2-0.2,0.7-0.8,1-1c0.1-0.1,0.9-0.2,1.4,0.1c0.6,0.4,1.6,0.5,2.2,0.5c0.6,0,0.9-0.4,1.1-0.6
		c0.2-0.2,0.5-0.3,0.7-0.3c0.5-0.1,1.2-0.7,1.3-0.7c0.1-0.1,0.3-0.1,0.6,0.1c0.5,0.4,0.8,0.8,1.2,1.5c0.4,0.6,1,0.8,1.2,0.8
		c0.2,0,0.3,0.3,0.3,0.3c0,0.1-0.2,0.2-0.3,0.3c-0.1,0.1-0.2,0.2-1.2,0.1C36.6,37.6,34.2,37.8,32.7,38.1 M32,44.8
		c-1,0-3.6-1.1-4.7-5.4c-0.3-1.1,0.3-2.1,0.8-2.3c0.3-0.1,0.4-0.1,0.5-0.1c0.1,0,0.6,0,0.5,0.5c0,0.4,0.3,3.7,1.3,5
		c0.2,0.3,0.4,0.3,0.5,0c0.1-0.2,0.3-0.6,0.3-0.7c0-0.1,0.3-0.3,0.4,0c0.2,0.8,0.5,1.8,0.7,2.2C32.5,44.6,32.3,44.8,32,44.8
		 M26.4,32.4c0.1,0.1,0.4,0.3,0.8,0.4c0.2,0.1,0.4,0,0.4-0.2c0.1-0.2,0.3-0.4,0-0.6c-0.3-0.2-1.2-0.6-1.7-1.9
		c-0.1-0.2,0-0.3,0.1-0.4c0.1,0,0.3-0.2,0.5-0.2c0.1-0.1,0.3,0,0.4,0.1c0.1,0.1,0.5,0.4,0.7,0.4c0.3,0,0.3-0.1,0.4-0.1
		c0.2-0.2,0.8-1.1,2.1-0.9c0.5,0.1,1,0.2,1.2,0.2c0.2,0,0.8,0,1.2-0.2c0.4-0.2,0.5,0,0.3,0.2c-0.3,0.2-0.4,0.4-0.2,0.6
		c0.2,0.2,0.2,0.3,0.3,0.3l0,0.1c0,0,0,0.1,0,0.1c-0.1,0.4-0.4,0.8-0.6,1c-0.3,0.3-0.9,0.5-1.1,0.5c-0.3,0.1-0.7,0.1-0.8,0.1
		c0,0-0.1,0-0.2,0l-0.1,0c0,0-0.1,0-0.1,0h0H30c0,0-0.1,0-0.1,0c-0.2,0-0.2,0.2-0.2,0.3c0,0.1,0,0.2,0.1,0.2c0,0.1,0.2,0.3,0.6,0.3
		c0,0,0,0,0.1,0c0.4,0,0.7-0.1,0.9-0.1c0.1,0,0.3-0.1,0.5-0.1c-0.1,0.1-0.1,0.2-0.2,0.3c-0.3,0.5-0.3,0.7-0.4,0.9
		c-0.1,0.2-0.2,0.3-0.4,0.3c-0.2,0.1-0.9,0.3-1.5,0.8c-0.6,0.4-1.2,0.4-1.7-0.1c-0.5-0.5-1.1-1.3-1.4-2.3
		C26.1,32.3,26.3,32.3,26.4,32.4 M25.7,27.6c0.1-0.2,0.4-0.7,0.9-0.8c0.1,0,0.3-0.1,0.5-0.1c0.2,0,0.5,0,0.6-0.1
		c0.4,0,0.4,0.3,0.2,0.4c-0.2,0.1-0.4,0.2-0.6,0.3c-0.3,0.2-0.7,0.4-0.9,0.6C26,28.2,25.6,28,25.7,27.6 M31.3,27.7
		c-0.3-0.1-0.7-0.1-1.3,0c-0.7,0.1-1.1,0.4-1.5,0.5c-0.3,0.1-0.7,0.2-0.8,0.2c-0.1,0-0.5-0.1-0.2-0.4c0.1-0.1,0.3-0.1,0.6-0.3
		c0.2-0.1,0.4-0.2,0.6-0.3c0.4-0.3,1.3-0.6,1.6-0.6c0.3,0,0.7,0.1,0.9,0.4C31.6,27.5,31.6,27.8,31.3,27.7 M33.6,34.1
		c0.1,0.1,0.1,0.4,0.1,0.5c0,0.1-0.5,0.3-0.8-0.2c-0.4-0.5-0.2-1.1,0-1.4c0.3-0.4,0.9-0.1,0.8,0C33.5,33.5,33.6,34,33.6,34.1
		 M44.4,28.8c-0.1,0.1-0.5-0.1-0.7-0.1c-0.3-0.2-0.5-0.3-0.9-0.6c-0.3-0.2-0.7-0.3-1.2-0.3c-0.3,0-0.5,0.1-0.8,0.1
		c-0.3,0.1-0.3-0.2-0.2-0.2c0.1-0.1,0.5-0.5,1.1-0.6c0.1,0,0.3,0,0.4,0c0.3,0,0.7,0.2,1,0.5c0.3,0.3,0.7,0.7,1,0.9
		C44.4,28.6,44.7,28.7,44.4,28.8 M44.1,27.5c-0.2-0.2-0.5-0.4-0.7-0.5c-0.1-0.1-0.1-0.2,0.1-0.2c0.7,0,1.2,0.1,1.5,0.3
		c0.2,0.2,0.4,0.5,0.3,0.8c-0.1,0.3-0.3,0.2-0.4,0.2C44.8,28,44.3,27.6,44.1,27.5 M47.2,26.8c0,0.1,0,0.3,0,0.3
		c0,0.1-0.1,0.1-0.2,0.1c-0.1,0-0.7,0-0.8,0c-0.1,0-0.2-0.1-0.2-0.2c0-0.1,0-0.3,0-0.4s0-0.1,0.1-0.1c0.1,0,0.7,0,1,0
		C47.2,26.7,47.2,26.7,47.2,26.8 M25.5,25c0-0.2,0-0.6,0-0.8c0-0.1,0.1-0.3,0.2-0.4c0.2-0.2,0.4-0.3,0.6-0.4
		c0.3-0.2,0.3-0.7,0.3-0.9c0.2-0.8,0.5-3.4,2.6-5.7c1.1-1.2,2.1-1.1,3.3-1.2c1.1,0,2.3,0.3,2.9,0.6c0.5,0.2,0.7,0.4,0.9,0.2
		c0.2-0.1,0.7-0.5,0.9-0.7c0.2-0.1,0.1-0.4-0.1-0.5c-0.2-0.1-2-1.8-4.8-2.3c-2.7-0.4-5,0.2-5.6,0.3c-0.1,0-0.2,0-0.3,0
		c-0.1,0-0.3-0.1-0.2-0.3c0.1-0.2,0.4-0.4,0.7-0.6c0.3-0.2,1.7-1.2,3-1.6c0.2-0.1,0.3-0.1,0.5-0.1c0.2,0,0.4-0.4,0-0.5
		c-0.4-0.1-0.6,0-0.8,0c-0.2,0-0.3-0.1-0.2-0.3c0.2-0.2,0.5-0.3,1-0.5c1.2-0.4,3.3-0.8,4.3-0.9c1.3-0.1,1.4-0.1,2.3,0
		c0.8,0.1,1.4,0.2,1.7,0.2c2.5,0.4,5.2,1.6,7.2,3.2c1.9,1.7,4.5,4.6,4.3,10.8c0,0.7-0.1,1.1-0.2,1.3c-0.1,0.2-0.3,0.5-0.5,0.1
		c-0.4-1.3-1.2-3.1-2.1-4.8c-0.1-0.3-0.3-0.2-0.3,0.1c0,0.1,0.1,1.8,0.1,2c0,0.2-0.2,0.8,0.5,1.9c0.3,0.5,0.6,0.9,0.7,1.5
		c0.1,0.6,0.1,0.9,0.1,1c0,0.1,0,0.3-0.3,0.2c-0.3,0-1.5-0.3-2-0.3c-0.5-0.1-4.1-0.2-5.4-0.1c-1.3,0.1-2.1,0.3-2.9,0.9
		c-0.2,0.1-0.4,0.3-0.5,0.3c-0.1,0-0.2,0-0.6-0.1c-0.3-0.1-0.9-0.1-1.2,0c-0.3,0.1-0.6,0.2-0.9,0c-0.5-0.3-1.3-1.3-3.6-1.5
		c-2.2-0.2-2.7-0.2-5.2-0.1C25.7,25.3,25.6,25.2,25.5,25 M24.9,19.5c-0.2,0.1-0.6,0.5-0.8,0.9c-0.2,0.5-0.9,2.2-1,5
		c0,0.3,0.1,0.8-0.3,0.9c-0.2,0.1-0.4,0.1-0.5,0.2c-0.2,0-0.3,0-0.4-0.2c-0.2-0.5-0.3-1.4-0.3-2c0-0.6,0.1-2.3,0.3-3.2
		c0.2-0.9,0.1-1.5-0.2-1.9c-0.3-0.5-0.5-0.8-0.5-1c-0.1-0.2,0-0.3,0.2-0.4c0.1-0.1,0.3,0,0.5,0c0.3,0,1.4-0.2,2.2-0.7
		c0.8-0.5,2.2-1.4,3.1-1.8c0.9-0.3,1.3-0.5,2.3-0.5c0.2,0,0.4,0.1,0.1,0.3c-0.3,0.2-1.3,0.4-2.6,1.8c-0.8,0.9-1,1.4-1.3,1.8
		C25.5,19.1,25.3,19.2,24.9,19.5 M25,27.2c0,0-0.5,0-0.8,0c-0.2,0-0.3,0-0.3-0.1c0-0.2,0-0.4,0-0.4c0-0.1,0-0.1,0.1-0.1
		c0.2,0,0.9,0,1,0c0.1,0,0.1,0,0.1,0.2c0,0.1,0,0.3,0,0.3C25.1,27,25.1,27.2,25,27.2 M23.2,30.3c-0.2-0.1-0.7-1.1-0.9-2.1
		c0-0.1,0-0.4,0.2-0.4c0.2,0,0.4-0.1,0.5-0.2c0.1,0,0.4-0.1,0.4,0.3s0,0.8,0.2,1.9c0.1,0.2,0.1,0.3,0.1,0.3
		C23.6,30.3,23.3,30.4,23.2,30.3 M51.6,26c0,0,2.3-8-4.4-14.4c0,0-0.2-0.2-0.4-0.3c-0.3-0.2-0.6-0.5-1-0.8c-0.9-0.6-1.6-1.1-3-1.7
		c-0.4-0.2-1.9-0.9-3.4-1.2C39,7.6,38,7.3,37,7.2c0,0-0.1,0-0.2,0c0,0,0,0,0,0c0,0-0.1,0-0.2,0c0,0-0.1,0-0.1,0c-0.1,0-0.1,0-0.2,0
		c0,0-0.1,0-0.1,0c-0.2,0-0.4,0-0.6,0c-0.1,0-0.2,0-0.3,0c-0.1,0-0.1,0-0.2,0c-0.1,0-0.1,0-0.2,0c-0.1,0-0.2,0-0.2,0
		c-0.2,0-0.5,0-0.9,0.1c-0.5,0.1-1.1,0.2-1.4,0.2c-0.4,0.1-0.9,0.2-1.6,0.4C30.6,8,30.3,8,30.1,8.1c-0.1,0-0.2,0-0.2,0.1
		c-0.3,0.1-0.6,0.2-0.9,0.3c-0.2,0.1-1.1,0.4-1.3,0.5c-0.1,0-0.2,0.1-0.4,0.1c-0.9,0.3-0.8,0.8-0.8,0.8c-1.1,2.5-4.4,2.4-4.4,2.4
		c-0.1,1.1,2.4,2.1,2.4,2.1c-0.5,0.9-1.9,1.5-3.5,1.6c-1.7,0.1-1.8,1.5-1.8,1.5c0.8,1.2,1.8,1.5,0.9,7.5c-0.9,6,4.4,10.4,4.4,10.4
		C24,38.1,25.8,41,25.8,41c-0.6,2.2,1.6,5.4,1.6,5.4c0.2,0.2,1.5,1.8,4,3.3c0.4,0.2,0.7,0.4,0.8,0.5c0,0,0,0,0,0c0,0,0,0,0,0
		c0,0,0,0,0,0c0,0,0,0,0,0c0.1,0.1,0.2,0.3-0.1,0.3c-0.2,0-0.9,0-1.7,0.1c-0.8,0.2-0.7,0.5-0.7,0.9c0,0.4,0,0.7,0,1.2
		c0,0.5-0.1,1,0.1,1.2c0.2,0.2,0.6,0.4,1.5,0.4c0.9-0.1,1.2-0.1,1.3-0.1c0.1,0,2.1-0.1,2.4-0.2c0.3-0.1,0.4,0.1,0.2,0.5
		c-0.4,0.8-2.1,3.9-5.5,6.8c-0.6,0.4,2.3,1.2,2.6,1.1c0.2-0.1,1.9-1.7,2.8-3.2c0.1-0.1,0.5-0.7,0.9-1.7c0.1-0.1,0.2-0.2,0.2,0
		c0,0.2,0.4,4.5,0.1,6.1c-0.1,0.8,0.6,0.7,2.5,1.1c0.5,0.1,0.2-7.4-0.9-10.5l0,0c0,0,0-0.1,0-0.1c0-0.1,0.1-0.2,0.2-0.2
		c0,0,0,0,0.1,0c0.7-0.1,2.2,0,2.4,0c0.3,0,0.9,0.1,1.3,0.2c0.4,0,1.2,0.1,1.2-0.9c0-0.3,0-0.6,0-0.8c0,0,0-0.1,0-0.1
		c0-0.1,0-0.1,0-0.2V52c0,0,0-0.1,0-0.1c0,0,0-0.1,0-0.1c0-0.1,0-0.1,0-0.2c0,0,0,0,0,0c0,0,0-0.1,0-0.1c0,0,0,0,0,0
		c0,0,0-0.1,0-0.1c0,0,0,0,0,0c0,0,0-0.1,0-0.1c0-0.3,0-0.6-0.5-0.8c-0.6-0.1-1.6-0.1-2.5,0.1c-0.1,0-0.2,0-0.2,0c0,0,0-0.1,0.1-0.2
		c0.2-0.1,1.9-0.9,3.4-2.2c1.7-1.4,2.5-2.5,3-3.6c0,0,1.7-3.4,1.3-7l0.3-0.4c0,0,1.1,0.4,1.8-1.3C50.7,34.2,55,27,51.6,26"/>
	<path d="M42.3,54.4L42.3,54.4l-0.2,0.1V55H42v-0.5h-0.2v-0.1H42.3z M42.4,54.4h0.1l0.2,0.5l0.2-0.5H43V55h-0.1v-0.4c0,0,0,0,0-0.1
		c0,0,0-0.1,0-0.1L42.7,55h-0.1L42.4,54.4l0.1,0.1c0,0,0,0,0,0.1s0,0.1,0,0.1V55h-0.1L42.4,54.4z"/>
</g>
</svg>
