<svg xmlns="http://www.w3.org/2000/svg" xml:space="preserve" viewBox="0 0 559.16 105"><path d="M554.79 99.31c0-6.05-3.4-8.23-8.99-8.23h-42.45c-19.93 0-26.98-12.76-27.87-21.58h58.9c17.18 0 22.28-12.85 22.28-21.07 0-8.82-5.51-21.07-22.28-21.07h-31.84c-29 0-38.48 20.4-38.48 37.03 0 18.22 10.86 37.03 38.4 37.03h52.34zm-51.36-61.63h29.49c10.21 0 12.64 6.55 12.64 10.83 0 3.78-2.27 10.83-12.64 10.83h-57.44c.73-7.47 6.64-21.66 27.95-21.66M383.28 96.71c-3 4.28-5.1 5.79-7.78 5.79-3.73 0-5.1-2.1-7.78-5.79-6.4-9.07-49.02-69.35-49.02-69.35h6.56c7.13 0 9.15 2.6 12.07 6.88 1.3 1.85 38.32 56 38.32 56s37.02-54.07 38.48-56.26c2.75-4.03 4.86-6.63 11.99-6.63h5.75c.02 0-43.32 61.97-48.59 69.36m-279.35 4.7c-4.46 0-7.29-2.27-8.1-7.22l-1.46-8.06c-2.43 4.62-11.34 15.28-30.71 15.28H41.39c-30.3 0-38.89-21.33-38.89-37.03 0-17.72 10.29-37.03 38.89-37.03h22.28c21.71 0 33.7 13.1 36.62 29.05 2.43 13.35 8.1 45 8.1 45h-4.46zM61.16 37.68H42.12c-21.39 0-28.68 14.11-28.68 26.7s7.29 26.7 28.68 26.7h19.04C83.52 91.08 90 76.39 90 64.38c0-10.75-5.84-26.7-28.84-26.7m385.23-18.81c3.16 0 5.59-2.02 5.59-5.88v-2.43c0-3.86-2.51-5.88-5.59-5.88s-5.59 1.93-5.59 5.88V13c-.08 3.86 2.43 5.87 5.59 5.87m-5.51 8.48h2.59c5.1 0 8.34 2.35 8.34 9.57v64.48h-2.75c-5.59 0-8.26-3.11-8.26-9.32.08-.92.08-64.73.08-64.73m-315.72 9.66c4.7-4.62 13.12-9.66 26.41-9.66h22.28c30.3 0 38.89 21.33 38.89 37.03 0 17.72-10.29 37.03-38.89 37.03h-22.28c-21.71 0-37.35-14.53-37.35-37.03V2.5h3.4c4.86 0 7.53 2.6 7.53 7.3v27.21zM154 91.08h19.04c21.39 0 28.68-14.11 28.68-26.7s-7.29-26.7-28.68-26.7H154c-22.36 0-28.84 14.69-28.84 26.7 0 10.75 5.75 26.7 28.84 26.7m80.69-54.07c4.7-4.62 13.12-9.66 26.41-9.66h22.28c30.3 0 38.89 21.33 38.89 37.03 0 17.72-10.29 37.03-38.89 37.03H261.1c-21.71 0-37.35-14.53-37.35-37.03V2.5h3.4c4.86 0 7.53 2.6 7.53 7.3zm28.85 54.07h19.04c21.39 0 28.68-14.11 28.68-26.7s-7.29-26.7-28.68-26.7h-19.04c-22.36 0-28.84 14.69-28.84 26.7-.01 10.75 5.83 26.7 28.84 26.7"/></svg>