<svg xmlns="http://www.w3.org/2000/svg" xml:space="preserve" viewBox="0 0 284.3 276.4"><path d="M262.9 128.7c-1.8 3.5-4.9 8.2-7.7 11.1H30c-1.8-2.2-5.8-7.3-7.4-11.1zm-16.8 22.5H39.3c3.3 4 6.8 7.5 10.6 10.1h184.6c4.7-2.6 8.9-6.1 11.6-10.1M220.6 172h-56.8c-1.6 9-1.6 17.4-1.6 23.4 16.6-1.1 38.4-8.6 58.4-23.4M284 55.3c-25.9 1.6-63.1 19-87.2 47.3-4.4 5.1-8.4 10.1-11.5 15.5h83.1c11.4-22.4 17.2-44.7 15.6-62.8M122.8 195.4c.3-5.9.3-14.3-.9-23.4H64.7c20.4 14.8 42.2 22.3 58.1 23.4m19.9 1.8c6-6.2 12.2-14.6 17.7-25.2h-35.6c6 10.6 11.5 19 17.9 25.2M100.3 118c-3.1-5.3-7.3-10.4-11.5-15.5C64.7 74.3 27.3 56.8 2 55.3.2 73.4 5.9 95.7 17 118zm78.5 0c.5-6.4 1.1-12.6 1.1-19.9 0-39.4-17.7-80-37.1-98.1-19.6 18.1-36.9 58.7-36.9 98.1 0 7.3 0 13.5 1.1 19.9zm83.6 158.4c11.7 0 21.6-4.7 21.6-16.6 0-6.6-4.9-11.3-12.4-13-8-2-17.9-1.8-17.9-6.9.5-3.3 3.5-4.2 8.4-4.2 7.3 0 7.6 4 8 6.4H282c-.9-9.3-8.4-15.7-20.5-15.7-12.6 0-19.9 6.9-19.9 15.5 0 5.1 2.6 9.5 6.9 11.7 3 1.6 7.3 2.7 12.4 3.6 5.3.4 9.9.9 10.4 4.7 0 2.6-2.7 5.7-8.2 5.7-8.2 0-10-4.7-10-7.8h-12.6c.2 9.9 8.4 16.6 21.9 16.6m-52-11.3c-7.6 0-14-6.4-14-13.7 0-7.6 6.4-14 14-14 7.3 0 13.4 6.4 13.4 14 .1 7.3-6.1 13.7-13.4 13.7m13.5-38.1v3.6c-4-2.9-8.6-4.3-14.1-4.3-13.7 0-25.2 11.1-25.2 25 0 13.7 11.5 25 25.2 25 5.5 0 10.1-1.6 14.1-4.3v3.1h12.2v-48.2h-12.2zm-69 38.1c-7.3 0-13.7-6.4-13.7-13.7 0-7.6 6.4-14 13.7-14 7.5 0 13.9 6.4 13.9 14 0 7.3-6.4 13.7-13.9 13.7m13.9-54.6v20.1c-4.2-2.9-8.8-4.3-14.1-4.3-14 0-25 11.1-25 25 0 13.7 11.1 25 25 25 5.3 0 10.1-1.6 14.1-4.3v3.1h11.9v-64.7h-11.9zm-56.1 0h12v11.9h-12zm0 16.5h12v48.2h-12zm-31.6 38.1c-8 0-14.4-6.4-14.4-13.7 0-7.6 6.4-14 14.4-14 7.3 0 13.7 6.4 13.7 14 0 7.3-6.4 13.7-13.7 13.7m13.7-54.6v20.1c-4.2-2.9-9-4.3-14.4-4.3-13.7 0-25.2 11.1-25.2 25 0 13.7 11.5 25 25.2 25 5.3 0 10.2-1.6 14.4-4.3v3.1H107v-64.7H94.8zm-69.6 54.6c-7.3 0-13.7-6.4-13.7-13.7 0-7.6 6.4-14 13.7-14 8 0 14.4 6.4 14.4 14 0 7.3-6.5 13.7-14.4 13.7M39.6 227v3.6c-4.2-2.9-9.3-4.3-14.6-4.3-13.7 0-25 11.1-25 25 0 13.7 11.3 25 25 25 5.5 0 10.4-1.6 14.6-4.3v3.1h11.7v-48.2H39.6z" class="st0"/></svg>