<svg xmlns="http://www.w3.org/2000/svg" xml:space="preserve" viewBox="0 0 360 180"><path d="M76.6 64.6c5.6 0 10.2 4.6 10.2 10.2v40.6H46.2c-5.6 0-10.2-4.6-10.2-10.2V93.8c0-5.6 4.6-10.2 10.2-10.2h11v16.1c0 1.6 1.3 2.9 2.9 2.9h5.6V80.2c0-1.6-1.3-2.9-2.9-2.9h-26V64.6zm48.3 38.1V43.4h21.2v72h-40.6c-5.6 0-10.2-4.6-10.2-10.2V74.8c0-5.6 4.6-10.2 10.2-10.2h11v35.2c0 1.6 1.3 2.9 2.9 2.9zm59.3 0V64.6h21.2v61.8c0 5.6-4.6 10.2-10.2 10.2h-39.9v-14.8h28.9v-6.4h-19.5c-5.6 0-10.2-4.6-10.2-10.2V64.6h21.2v35.2c0 1.6 1.3 2.9 2.9 2.9zm70.3-38.1c5.6 0 10.2 4.6 10.2 10.2v11.4c0 5.6-4.6 10.2-10.2 10.2h-11V80.2c0-1.6-1.3-2.9-2.9-2.9H235v22.5c0 1.6 1.3 2.9 2.9 2.9h26v12.7H224c-5.6 0-10.2-4.6-10.2-10.2V64.6zm59.3 0c5.6 0 10.2 4.6 10.2 10.2v40.6h-21.2V80.2c0-1.6-1.3-2.9-2.9-2.9h-5.6v38.1h-21.2V64.6z"/></svg>