<svg xmlns="http://www.w3.org/2000/svg" xml:space="preserve" viewBox="0 0 72 72"><path d="m34.8 17 1.2 1 1.2-1v-5.9h-2.4zm1.2-6.8c.8 0 1.5-.7 1.5-1.5s-.7-1.5-1.6-1.5c-.8 0-1.5.7-1.5 1.5.1.8.7 1.5 1.6 1.5m-11.1 8H28s-.5-.5-2.4-2.5c-1.1-1.2-1.2-2.1.2-2.1h.3l1.6-2.4h-1.9c-3.7 0-4.4 3.6-2.5 5.4zm21.4-4.7c1.4 0 1.3.9.2 2.1l-2.4 2.5h3.1s.3-.3 1.7-1.6c1.8-1.8 1.2-5.4-2.5-5.4-.6 0-1.9.1-1.9.1l1.6 2.4zm8.5 29q.9 4.2-.6 8.4c-1.2 3.4-3.1 5.7-5.5 6.6-.5.1-1.5.5-2.7.5-.8 0-1.8-.3-2.5-.6-.4-.2-1.2-.5-1.2-.5-2.1-1.2-5.1-3.5-5-5.1 0-.5 1.2-1.4 2.3-1.4 1.4 0 2.6-1.2 2.6-2.6v-.1l-.5-2.3v-.1c-.4-1.3-1.3-5.5 2-7.4l2.9-1.4-1-2.2-2.9 1.4h-.1c-3.3 1.9-4.5 5.7-3.1 10.2l.4 1.9c0 .1-.1.1-.2.1-1 0-2.1.4-2.9 1-.2.1-.3.3-.5.4-1-.9-2.4-1.4-3.5-1.3-.1 0-.2-.1-.2-.1L33 46c1.3-4.5.1-8.3-3.2-10.2l-3-1.4-1 2.2 2.9 1.3c3.3 1.9 2.4 6.1 2 7.4l-.7 2.4v.1c0 1.4 1.2 2.6 2.6 2.6 1 0 2.3.8 2.3 1.4 0 1.6-2.9 3.9-5 5.1l-.6.3c-.7.4-1.7.8-2.9.8-.3 0-1.4 0-2.9-.5-2.4-.9-4.3-3.1-5.5-6.5-1.2-3.2-1.3-6.5-.3-9.8.3-1 1-2.5.9-2.5 1.5-3.3 4.1-6.4 7.3-9 .1 0 4.9-3.8 8.9-6.5l-5.5-3.7h-3.8c-3.2.3-6.1 1.5-8.3 3.7-2.3 2.1-3.7 6-3.4 9.8.1 1.6.5 3.1 1.1 4.5.4-.8.9-1.7 1.5-2.9q-.3-.9-.3-1.8c-.2-3 .8-6.2 2.6-7.8 1.9-1.8 4.2-2.8 6.9-3.1h6.7c-3.9 2.6-8 5.9-8.1 5.9q-4.05 3.3-6.6 7.2c-1 1.7-2 4-2 4-1.6 4.3-1.7 8.7-.2 12.8 1.9 5.1 4.8 7.1 6.9 7.9 1 .4 2.2.6 3.3.6 1.7 0 3.2-.6 3.2-.6.5-.2 1.4-.5 1.9-.8.4-.3 3.4-1.9 5-4.2 1.7 2.2 4.5 3.8 5 4.1 0 0 1.3.8 2.3 1.1 1.2.3 2.4.3 2.8.3q1.65 0 3.3-.6c2.1-.8 5-2.9 6.9-8 1.3-3.7 1.4-7.5.3-11.3 0 .8-.6 1.5-1.5 2.2M30.9 18.8l7.6 5.5c.1.1.6.4.6.4 3.5 2.4 6.9 5 6.9 5 2.9 2.2 5.2 4.9 6.8 7.7.7-.9 1-2 1.2-2.6-1.7-2.5-3.9-4.9-6.5-7 0 0-3-2.3-6.3-4.6-1.4-.8-5.5-3.6-5.5-3.6-1.9-1.3-4.7-3.8-4.7-3.8-1-1-1.2-2.1.1-2.1h2.4v-2.4h-2.4c-3.9 0-4.5 3.3-2.4 5.5.8.8 2.2 2 2.2 2m10.8 41.9c-1.4 1.2-3.7 1.7-5.6 1.7s-4.1-.5-5.5-1.6c-.7.2-1.6.6-2.6.8.9 1.1 2.1 1.9 3.7 2.4 1.6.6 3.2.7 4.2.8h.5c1 0 2.6-.2 4.2-.8s2.8-1.4 3.7-2.5c-1-.2-2-.6-2.6-.8m13-37.6q-3.45-3.15-8.1-3.6h-6.2c.6-.4 1.1-.9 1.7-1.3 0 0 .1 0 .3-.3.3-.2.7-.8.7-.8l.4-.4c2.2-2.3 1.5-5.5-2.4-5.5h-2.4v2.4H41c1.3 0 .9 1.1 0 2.3-1.2 1.1-2.5 2.1-4 3 1.7 1.2 3.4 2.3 4.6 3h4.5q4.05.45 6.9 3c1.8 1.6 2.9 4.8 2.7 7.8-.1.9-.3 2-.7 3.1-.4 1.2-1.2 2.7-2.6 3.8-.3.3-.7.6-1.1.9-6.3 4.4-6.8 10.1-7 13.1 0 .3 0 .5-.1.7v.4c0 .4-.1.8-.2 1.3.6.3 1.4.6 2.4.5.1-.6.2-1.2.2-1.6v-.4c0-.3 0-.5.1-.8.3-3 .7-7.5 6-11.3l.1-.1c2.9-2.1 4-4.6 4-4.7s.1-.1.1-.1c.7-1.5 1.1-3.1 1.3-4.8.2-3.7-1.2-7.6-3.5-9.6M28.2 56.3c-.1-.5-.1-1-.2-1.4v-.4c0-.2-.1-.5-.1-.7-.3-3-.8-8.7-7.1-13l-1.2-.9c-.4.9-.6 1.8-.8 2.5.2.1.3.3.5.4 5.4 3.7 5.8 8.3 6.1 11.3 0 .3.1.5.1.8v.4c0 .4.1 1 .2 1.6 1.1 0 1.9-.3 2.5-.6"/></svg>