<svg xmlns="http://www.w3.org/2000/svg" xml:space="preserve" viewBox="0 0 360 180"><path d="M113.7 59.6c0 5-4 9-9.1 9-5 0-9-4-9-9s3.9-9 9-9c5.2.1 9.1 4.1 9.1 9M76.4 77.7v2.2s-4.3-5.5-13.5-5.5C47.8 74.4 36 86 36 101.9c0 15.8 11.6 27.5 26.9 27.5 9.3 0 13.5-5.7 13.5-5.7v2.3c0 1.1.8 2 2 2h11.3V75.7H78.4c-1.2 0-2 1-2 2m0 33.5c-2 3-6.2 5.7-11.3 5.7-8.9 0-15.7-5.5-15.7-15s6.8-15 15.7-15c4.9 0 9.3 2.8 11.3 5.7zM98 75.7h13.3V128H98zm199.2-1.3c-9.2 0-13.5 5.5-13.5 5.5V50.6h-13.3V128h11.3c1.1 0 2-1 2-2v-2.3s4.3 5.7 13.5 5.7c15.1 0 26.9-11.6 26.9-27.5s-11.9-27.5-26.9-27.5m-2.3 42.4c-5.2 0-9.2-2.7-11.3-5.7V92.4c2-2.8 6.5-5.7 11.3-5.7 8.9 0 15.7 5.5 15.7 15s-6.8 15.1-15.7 15.1m-31.5-19.7v31.1H250V98.6c0-8.6-2.8-12.1-10.2-12.1-4 0-8.2 2-10.8 5.2v36.4h-13.3V75.7h10.6c1.1 0 2 1 2 2v2.2c3.9-4 9-5.5 14.1-5.5 5.9 0 10.7 1.7 14.6 5 4.6 3.9 6.4 8.9 6.4 17.7m-80.1-22.7c-9.2 0-13.5 5.5-13.5 5.5V50.6h-13.3V128h11.3c1.1 0 2-1 2-2v-2.3s4.3 5.7 13.5 5.7c15.1 0 26.9-11.6 26.9-27.5s-11.8-27.5-26.9-27.5m-2.2 42.4c-5.2 0-9.2-2.7-11.3-5.7V92.4c2-2.8 6.5-5.7 11.3-5.7 8.9 0 15.7 5.5 15.7 15s-6.8 15.1-15.7 15.1m-36.2-42.4c4 0 6.1.7 6.1.7v12.4s-11.1-3.7-18 4.2v36.5h-13.3V75.7H131c1.1 0 2 1 2 2v2.2c2.4-2.8 7.7-5.5 11.9-5.5"/></svg>