<svg xmlns="http://www.w3.org/2000/svg" xml:space="preserve" viewBox="0 0 827.11 211.13"><path d="M200.48 187.12h-44.37l-13.57-32.74H68.6l-12.37 32.74H12.6L79.26 21.78h47.76zM103.75 61.29l-24.24 64.24h50.91zm257.9-39.51h35.88v165.35h-41.22V83.84l-44.61 51.88h-6.3l-44.6-51.88v103.28h-41.22V21.78h35.88l53.09 61.34zm140.32 0c60.36 0 91.39 37.57 91.39 82.91 0 47.52-30.06 82.44-96 82.44h-68.37V21.78zm-31.76 135.04h26.91c41.46 0 53.82-28.13 53.82-52.38 0-28.37-15.28-52.36-54.31-52.36h-26.42zm205.15-95.84L623.39 9h189.2v189.21l-51.97-51.97V60.98zm-.06 10.42-53.5 53.5v74.9h74.89l53.51-53.51h-74.9z"/></svg>