<svg xmlns="http://www.w3.org/2000/svg" xml:space="preserve" viewBox="0 0 360 180"><path d="M97.5 124.2V56c8.6.6 15.7 4.6 21.6 10.8 6.3 6.7 10.3 15 13.7 23.4 5.7-15.7 16.6-32.7 34.8-34.2v23.7c2.6-7.4 6.4-14.1 12.7-19 6.7-5.3 15-7.5 23.4-7.5 15.2 0 30.5 10.5 33.2 26h-17.6c-3-6.9-9.4-9.7-16.7-9.7-11.6 0-20.5 8.6-20.5 20.4 0 12.2 8.1 21.1 20.4 21.1 5.2 0 10.2-1.6 13.9-5.3 2.1-2.1 3.3-4.7 4.5-7.4h-20.2V81.9h37.5V56h35.1v16.4H255v9.5h18.3v16.3H255v9.6h18.3v16.4h-35.1v-26c-1.2 5.8-3.6 10.7-7.3 15.3-7 8.8-17.4 13.3-28.6 13.3-8.5 0-16.9-2.2-23.4-7.8-5.8-4.9-9.3-11.3-11.2-18.6v23.8h-16.4V87.3c-7.9 10.5-10.5 24-10.8 36.9H125c-.3-13-3.7-26-10.9-36.9v36.9zM307.6 56H324v68.2h-14.8c-2.2-11.3-7.5-25.6-16.8-32.8v32.8h-16.5V56c7.5 1.5 17.2 9.2 22.7 14.4 3.5 3.4 6.9 7.1 9 11.5zM36 124.2l.5-1.7 2.8-9.6c2.3-7.9 5.4-15.7 8.9-23.2 8.6-19.1 23-34 45-34h1.5v68.5H78.1v-16.6h-21l-.5 1.5-1 3-1.4 4.8-1.3 5.3-.5 2zm28.6-32.8h13.6V75.9c-7.2 3.3-10.3 8.7-13.6 15.5"/></svg>