<svg xmlns="http://www.w3.org/2000/svg" xml:space="preserve" viewBox="0 0 72 72"><path d="M36 7.2C19.5 7.4 7.5 20.4 7.2 35.1c-.3 16.7 12.4 29.4 28.1 29.7 17.1.3 29.6-13.3 29.5-28.5C64.7 19.7 52 7.3 36 7.2m9.7 26.5c-3.8 6.4-7.6 12.8-11.5 19.2-.3.5-1.8.9-2.3.6-.3-.2-.2-.4-.1-.7.4-2.6.8-5.1 1.2-7.7.2-1.4.4-2.7.7-4.1.1-.6-.2-.7-.7-.7h-5.8c-1.2 0-1.7-.7-1-1.8.8-1.5 1.8-3 2.6-4.4 2.9-4.9 5.9-9.8 8.8-14.7.5-.7 1.5-1.1 2.4-.8.4.2.3.5.2.7-.3 1.7-.5 3.4-.8 5.1-.4 2.2-.7 4.3-1.1 6.5-.1.7.2.8.8.8h5.4c1.6 0 2 .7 1.2 2"/></svg>