<svg xmlns="http://www.w3.org/2000/svg" xml:space="preserve" viewBox="0 0 360 180"><path d="M210.1 48.3h19.3V56c4.9-6.3 12.5-10 20.5-9.8 8.8-.1 17.1 4.5 21.5 12.2 6.9-9.8 17.3-12.2 24.6-12.2 10 0 18.9 4.7 23.6 13 1.6 2.8 4.3 8.9 4.3 20.9v51.2h-19.3V85.6c0-9.3-1-13-1.8-14.8-1.2-3.2-4.1-7.3-11-7.3-4.6.1-8.8 2.3-11.4 6.1-3.3 4.7-3.7 11.8-3.7 18.9v42.8h-19.3V85.6c0-9.3-1-13-1.8-14.8-1.2-3.2-4.1-7.3-11-7.3-4.6.1-8.8 2.3-11.4 6.1-3.3 4.7-3.8 11.8-3.8 18.9v42.8h-19.3zm-66.8 0h19.3v7.5q3.45-4.05 8.1-6.9c3.6-2 7.7-3 11.8-2.8 5.3-.1 10.6 1.2 15.2 3.9l-7.9 17.5c-2.9-2-6.3-3-9.8-3-4.1 0-8.3.6-12 4.5-5.3 5.7-5.3 13.6-5.3 19.1v43h-19.2zM55.7 90.1c0 14.4 9.1 26.4 23 26.4 12.2 0 23.4-8.9 23.4-26.2 0-18.1-11.2-26.8-23.4-26.8-14 0-23 11.8-23 26.6M101 48.3h19.3v82.9H101v-8.7c-6.2 7.3-15.3 11.4-24.8 11.2-25.6 0-40.2-21.3-40.2-44.1 0-27 18.5-43.5 40.4-43.5C86 46 95.2 50.4 101 58z"/></svg>