<svg xmlns="http://www.w3.org/2000/svg" xml:space="preserve" viewBox="0 0 500 195.7"><path d="M94.84 60.573v129.28c0 4.427 3.68 5.2 6.96 1.627l43-42.16V6.347c0-3.934-3.48-4.694-6.853-1.627L30.44 110.387c-30.64 30.64-31.693 63.906-13.333 79.866 5.346 3.947 9.04 4.147 13.226.4l59.12-57.546c4.387-4.44-1.213-4.854-1.213-4.854H57.147c-11.054-.053-13.334-14.426.76-30.426zM212.867 97.92l22.053-21.653c3.013-3.334 3.44-5.56-.76-9.454-15.44-13.226-37.8-13.386-51.64-.16l-21.8 21.307c-12.373 13.88-7.12 23.173 0 30.293l46.64 46.04c5.293 4.907 2.12 12.867-7.933 18.12-13.48 6.507-18.88 2.934-18.88-9.533v-26.467c-.267-4.186-1.96-4.186-4.387-1.52l-26.96 26.974c-5.307 6.013.347 13.826 8.573 17.053 26.8 8.8 42 2.173 54.734-9.333l17.4-17.52c13.786-16.507.96-27.76.96-27.76-6.6-6.867-45.187-44.227-45.187-44.227-9.533-7.827-6.907-15.387 7.12-23.627 5.347-3.173 10.507-1 10.507 4.134v28.2c.026 5.853 3.213 5.493 9.56-.867m135.186-62.347v150.734c0 8.08 4.28 8.226 8.827 4.04l30.853-30.44-.16-49.107 13.347-13.4v89.667c0 6.866 3.68 7.32 8.813 2.68l29.44-29.12v-99.44c0-5.6-3.693-6.827-7.826-1.92l-43.614 42.613V8.787c0-7.734-4.386-7.28-8.08-3.44zM488.333 3.88l-31.306 30.133V67.44c0 5.24 3.28 5.747 7.493 1.867l30.227-29.934V5.347c-.254-4.147-3.427-4.307-6.414-1.467m-.186 54.36L457.56 88.373v100.16c.093 5 3.267 5.654 7.32 1.627l30.133-29.787V60.667c-.013-4.76-3.346-5.96-6.866-2.427m-219.694 81.587c.147-12.627 5.4-23.534 14.28-32.014l10.707-10.4v56.24l-9.88 8.534c-6.173 4.44-15.107-4.854-15.107-22.36m54.614-80.134-61.48 60.28c-15.387 15.4-32.44 50.227-9.534 69.774 5.907 4.44 8.08 3.68 12.52 0L293.2 162.08v26.333c0 4.76 3.787 5.4 7.813 1.627 5.56-5.293 30.24-28.92 30.24-28.92V61.68c.134-6.467-3.28-6.88-8.186-1.987"/></svg>