<svg xmlns="http://www.w3.org/2000/svg" xml:space="preserve" viewBox="0 0 344.5 113.9"><path d="M39.5 70.6 44.2 58l4.4 12.7h-9.1zm13.7 12.8h4.3L46.3 52.9h-4.2L30.5 83.4h4.3l3.4-9.4h11.6zm20.3-6.5c0 2.5-2 3.8-5.5 3.8-2.8 0-4.6-.8-5.7-2.6l-4.1.7c1.6 3.3 4.9 4.8 9.6 4.8 6.4 0 9.7-3.5 9.7-7.3 0-4.8-4.5-6.1-9.6-7.2-2.5-.5-5.4-1.4-5.4-3.6 0-1.6 1.5-3.4 4.6-3.4s5 2.1 5.3 3l3.6-1.5c-1.7-3.2-5-4.4-8.4-4.4-5.4 0-8.9 2.6-8.9 6.8 0 4.8 4.1 5.7 8.1 6.6 3.4.9 6.7 1.7 6.7 4.3m12.6-24-4 1.7v5.6h-3.7v3.2h3.7v14.9c-.1 3-.1 5.2 4.5 5.2 1.5 0 3.1-.3 3.8-.4V80c-.8.2-1.8.5-2.5.5-1.7 0-1.7-1.2-1.7-3.9V63.4h4.2v-3.2h-4.2v-7.3zm7.7 7.3v23.2h3.9V72.7c0-2-.1-4.3 1-6 1.3-2.1 3.1-2.8 7-2.9v-4c-1.6.1-5.7.1-7.9 4.5v-4.1zm34.8-7.3v3.8H146l-17.3 22.8v4H151v-3.7h-17.7l17.3-23V53h-22zm46.8 7.3v23.2h3.9V70.2c0-1.7 0-3.5 1.7-5.2 1.2-1.2 2.7-1.8 4.4-1.8 2.1 0 4.3 1 5 3.2.2.8.2 1.5.2 3.8v13.1h3.9V69.7c0-2 0-3.4-.4-4.7-1.1-3.8-4.7-5.3-7.6-5.3-1.4 0-5.1.3-7.2 4.1v-3.5h-3.9zm60.4 17.6c-.8 1.6-2.3 3-5.4 3-2.6 0-7-1.6-7-9.3 0-2.1.4-9.3 6.8-9.3 3.2 0 4.7 1.8 5.4 3.3l3.6-1.5c-2.2-3.7-6.3-4.6-9.2-4.6-7.4 0-11 5.9-11 12.5 0 5.7 3.1 12 11.3 12 4.7 0 7.4-2.3 8.8-4.6zm-79.2-8.4h12.3c-.3-6.1-3.8-7.1-6.2-7.1-3.3 0-5.6 2.4-6.1 7.1m15.5 9.6c-1.3 2.3-3.9 4.8-8.9 4.8-6.8 0-10.8-4.6-10.8-12.4 0-8.7 5.7-12 10.6-12 4.3 0 8.3 2.4 9.7 8.2.4 2 .4 3.7.4 4.7h-16.6c-.1 3.9 1.5 8.8 7 8.7 2.2 0 3.8-1.1 4.8-2.6zm28.8-9.6h12.3c-.3-6.1-3.8-7.1-6.2-7.1-3.4 0-5.7 2.4-6.1 7.1m15.4 9.6c-1.3 2.3-3.9 4.8-8.9 4.8-6.8 0-10.8-4.6-10.8-12.4 0-8.7 5.7-12 10.6-12 4.3 0 8.3 2.4 9.7 8.2.4 2 .4 3.7.4 4.7h-16.7c-.1 3.9 1.5 8.8 7 8.7 2.2 0 3.8-1.1 4.8-2.6zm44.3 4.4h-4.1s-.4-1.6-.5-3.4c-1.2 1.2-3.4 3.7-7.8 3.7-4.5 0-7.8-2.7-7.8-6.6 0-1.2.3-2.5 1-3.5 1.3-2 3.8-3.5 10.7-4.1l3.7-.3v-.6c0-2.4 0-6.4-5.2-6.4-3.2 0-4.4 1.6-4.7 3l-3.6-1.5c.1-.1.1-.3.2-.4 1.4-2.5 4.1-4.1 8-4.1 2.1 0 4.9.5 6.7 2 2.6 2 2.5 5.8 2.5 5.8l.2 11.9c0 .1.2 3.5.7 4.5m-5.4-6.4c.6-1.3.6-1.8.6-5.2-1.5.2-3.6.5-6.1 1.1-4.3.9-5 2.6-5 4.2 0 1.9 1.5 3.4 4.4 3.4 2.7 0 5-1.1 6.1-3.5m-129.3 6.4h-4s-.4-1.6-.5-3.4c-1.2 1.2-3.4 3.7-7.8 3.7-4.5 0-7.9-2.7-7.9-6.6 0-1.2.3-2.5 1-3.5 1.3-2 3.8-3.5 10.7-4.1l3.7-.3v-.6c0-2.4 0-6.4-5.2-6.4-3.3 0-4.4 1.6-4.7 3l-3.6-1.5c.1-.1.1-.3.2-.4 1.4-2.5 4.1-4.1 8-4.1 2.1 0 4.9.5 6.7 2 2.6 2 2.5 5.8 2.5 5.8l.1 11.9c.1.1.3 3.5.8 4.5m-5.3-6.4c.6-1.3.6-1.8.6-5.2-1.5.2-3.6.5-6.1 1.1-4.3.9-5 2.6-5 4.2 0 1.9 1.5 3.4 4.4 3.4 2.6 0 4.9-1.1 6.1-3.5m165.3-13.1-1.8 1.2c-7-3.9-22-11.4-23.3-12-1.4-.7-3.8-1.7-3.5-4 .4-3.2 6.1-10.3 8.5-13.3 13-15.8 18.8-20.7 22.6-20.2 4.1.5 6.4 4.8 6.7 24.6q-3.45-1.05-7.5-2.1c-.2-2.9-.8-7.2-1-8.7-.2-1.7-.6-2.3-1.2-2.4-.8-.1-2.7 1.7-4.4 3.5-.8.8-3 3-5.4 5.5-2-.1-3.4.3-4.1 1.3-.6.8-.7 1.9-.4 3.3l-3.2 3.2c-2.7 2.7-5.6 4.9-5.7 6-.1.9 1.2 1.8 3.2 3 4.6 2.5 16.3 8.9 20.5 11.1m18.2-19.8c-4.6-1.6-15.9-5.8-27.8-7.4-4.1-.5-5.7.9-4.1 4.8 1.7 3.9 6 10.3 10.5 15.2 4.5 4.8 9.4 6.1 11-1.3.1-.3.1-.5.2-.8.4-1.9.7-3.8.8-5.4-2-.9-4.3-1.9-6.5-2.8.1 1.7.3 4.7.4 6.9v.8c.1 3.7-1.1 3.7-3.2 2.2-2.4-1.7-9.9-11.6-10.8-16 0-.3.1-.3.2-.2.1 0 .1 0 .2.1 1.7.7 7.3 2.9 13 5.3 2.3 1 4.6 1.9 6.6 2.9 2 .9 3.8 1.8 5.2 2.5 2.5 1.3 3.4 2.2 2.4 3.3-5.1 5.2-23.1 12.6-29.3 21.8l-.1.1c-.1.1-.1.2-.2.3 0 0 0 .1-.1.1-.3.6-.7 1.5-.9 2.7-.3 2 .8 3.8 3.7 4.6.7.2 1.5.4 2.4.5h.5c5.5.3 19.9-2.9 24.2-4.8 4.5-2 3.2-4 1.9-5-1-.8-6-3.6-8.4-4.9-.7.4-1.2.7-1.8 1.2 4.1 2.5 5.8 3.8 6.8 4.5.4.3.2.6-.4.7h-.4c-3.9.3-11.4.8-14.9 1-.5 0-1.1.1-1.4.1.9-.8 1.8-1.5 2.3-1.9 7.5-5.3 20-12.7 23.7-15.9 2.8-2.5 10.2-9.7-5.7-15.2"/></svg>