<svg xmlns="http://www.w3.org/2000/svg" xml:space="preserve" viewBox="0 0 72 72"><path d="M36.2 47.7c-.5.3-1 .7-1.5 1-5.9-3.3-18.4-9.6-19.5-10.1-1.2-.6-3.2-1.4-2.9-3.4.3-2.7 5.1-8.6 7.1-11.1C30.3 10.9 35.1 6.8 38.3 7.2c3.4.4 5.4 4 5.6 20.6q-2.85-.9-6.3-1.8c-.2-2.4-.7-6-.8-7.3-.2-1.4-.5-1.9-1-2-.7-.1-2.3 1.4-3.7 2.9-.7.7-2.5 2.5-4.5 4.6-1.7-.1-2.8.3-3.4 1.1-.5.7-.6 1.6-.3 2.8l-2.7 2.7c-2.3 2.3-4.7 4.1-4.8 5-.1.8 1 1.5 2.7 2.5 3.8 2.2 13.6 7.6 17.1 9.4m15.3-16.6c-3.9-1.3-13.3-4.9-23.3-6.2-3.4-.4-4.8.8-3.4 4 1.4 3.3 5 8.6 8.8 12.7 3.8 4 7.9 5.1 9.2-1.1.1-.3.1-.4.2-.7.3-1.6.6-3.2.7-4.5-1.7-.8-3.6-1.6-5.4-2.3.1 1.4.3 3.9.3 5.8v.7c.1 3.1-.9 3.1-2.7 1.8-2-1.4-8.3-9.7-9-13.4 0-.3.1-.3.2-.2.1 0 .1 0 .2.1 1.4.6 6.1 2.4 10.9 4.4 1.9.8 3.9 1.6 5.5 2.4 1.7.8 3.2 1.5 4.4 2.1 2.1 1.1 2.8 1.8 2 2.8-4.3 4.4-19.4 10.6-24.5 18.3l-.1.1c-.1.1-.1.2-.2.3 0 0 0 .1-.1.1-.3.5-.6 1.3-.8 2.3-.3 1.7.7 3.2 3.1 3.9.6.2 1.3.3 2 .4h.4c4.6.3 16.7-2.4 20.3-4 3.8-1.7 2.7-3.4 1.6-4.2-.8-.7-5-3-7-4.1-.6.3-1 .6-1.5 1 3.4 2.1 4.9 3.2 5.7 3.8q.45.45-.3.6h-.3c-3.3.3-9.6.7-12.5.8-.4 0-.9.1-1.2.1.8-.7 1.5-1.3 1.9-1.6 6.3-4.4 16.8-10.6 19.9-13.3 2.1-2.3 8.3-8.3-5-12.9"/></svg>