<svg xmlns="http://www.w3.org/2000/svg" xml:space="preserve" viewBox="0 0 360 180"><path d="M123.8 59.6c-7.3.5-10.5 4-12.9 6.5-2.6 2.7-4 8.3-4 8.3V59.7H78.3c-2.2 0-4.2.9-5.8 3.1-1.6 2.1-8.1 12.9-8.1 12.9h113.3V59.6zm142.6 0c-7.3.5-10.5 4-12.9 6.5-2.6 2.7-4 8.3-4 8.3v1.3H324V59.6zm-86 .1v16.1h16.1V59.7zm52.9 0v16.1h16.1V59.7zm-169.6 17L36 120.3h18.9l26.7-41.6zm116.9.2v23.4c0-.5-.1-1.2-.1-1.2-.4-2.4-5-13-14.8-13.9-5.9-.6-58.1-4.7-58.1-4.7 1 5.2 3.4 7.9 5 9.4 3.6 3.5 9.4 4.5 9.4 4.5 1.4.1 40.3 3.4 40.3 3.4 1.3.1 3.6.4 3.5 3.5 0 .4-.3 3.1-3.3 3.1h-56.3V80.5l-15.7-1.1c-.1 0-.1 40.9-.1 40.9h75.3c13.1-2.6 14.5-14.6 14.5-14.6.2-1.3.3-2.5.3-3.5v3.3c2.6 13.7 14.9 14.8 14.9 14.8s1.3.1 1.5.1h36.7s15.7-1.3 15.7-16.4l-.1-22.4-15.8-1v18.6s-.1 5.4-5.2 5.4h-27.1s-4.6-.4-4.6-5.3V78.1zm69.9 4.7c1.5 5.4 3.6 7.1 5.2 8.5 3.6 3.5 9.1 4.3 9.1 4.3 1.4.1 40.7 3.4 40.7 3.4 1.3.1 3.8.2 3.8 3.2 0 .9-.5 1.9-1 2.4 0 0-1.4.7-2.7.7h-55.9l-.2 16.1h57.6c14.5-.9 16.5-14.6 16.5-14.6.5-3.6.1-6.6.1-6.6-.4-3.2-5-13.1-14.9-14-5.8-.4-58.3-3.4-58.3-3.4"/></svg>