<svg xmlns="http://www.w3.org/2000/svg" xml:space="preserve" viewBox="0 0 72 72"><path d="M17.3 26.1c-5.5 0-10.2 4.6-10.1 10.1.1 5.4 4.6 9.7 10.1 9.7 2.4 0 4.5-.8 6.2-2.1 1.7 1.3 3.9 2.1 6.2 2.1 2.4 0 4.5-.8 6.2-2.1 1.7 1.3 3.9 2.1 6.2 2.1 2.4 0 4.5-.8 6.2-2.1 1.7 1.3 3.9 2.1 6.2 2.1 5.5 0 10-4.3 10.1-9.7.1-5.5-4.5-10.1-10.1-10.1-2.3 0-4.5.8-6.2 2.2-1.7-1.4-3.9-2.2-6.2-2.2s-4.5.8-6.2 2.2c-1.7-1.4-3.9-2.2-6.2-2.2s-4.5.8-6.2 2.2c-1.7-1.4-3.9-2.2-6.2-2.2m12.5 17.6c-1.7 0-3.3-.6-4.6-1.5 1.3-1.6 2.1-3.7 2.2-6 0-2.4-.8-4.6-2.2-6.3 1.3-1 2.9-1.5 4.6-1.5s3.3.6 4.6 1.5c-1.4 1.7-2.2 3.9-2.2 6.3 0 2.3.9 4.3 2.2 6-1.3.9-2.9 1.5-4.6 1.5M25 36.1c0-1.7-.6-3.3-1.5-4.6-1 1.3-1.6 2.9-1.5 4.6 0 1.7.6 3.2 1.5 4.4.9-1.2 1.5-2.7 1.5-4.4m-5.3.1c0-2.4.8-4.6 2.2-6.3-1.3-1-2.9-1.5-4.6-1.5-4.3 0-7.9 3.5-7.8 7.8.1 4.2 3.5 7.5 7.8 7.5 1.7 0 3.3-.6 4.6-1.5-1.4-1.7-2.2-3.8-2.2-6m20.1 0c0-2.4-.8-4.6-2.2-6.3 1.3-1 2.9-1.5 4.6-1.5s3.3.6 4.6 1.5c-1.4 1.7-2.2 3.9-2.2 6.3 0 2.3.9 4.3 2.2 6-1.3.9-2.9 1.5-4.6 1.5s-3.3-.6-4.6-1.5c1.4-1.7 2.2-3.8 2.2-6m7.2-.1c0-1.7.6-3.3 1.5-4.6 1 1.3 1.6 2.9 1.5 4.6 0 1.7-.6 3.2-1.5 4.4-.9-1.2-1.5-2.7-1.5-4.4m7.7 7.6c-1.7 0-3.3-.6-4.6-1.5 1.3-1.6 2.1-3.7 2.2-6 0-2.4-.8-4.6-2.2-6.3 1.3-1 2.9-1.5 4.6-1.5 4.3 0 7.9 3.5 7.8 7.8-.1 4.1-3.5 7.5-7.8 7.5m-17.2-7.5c0-1.7-.6-3.3-1.5-4.6-1 1.3-1.6 2.9-1.5 4.6 0 1.7.6 3.2 1.5 4.4.9-1.2 1.5-2.8 1.5-4.4" style="fill-rule:evenodd;clip-rule:evenodd"/></svg>