<svg xmlns="http://www.w3.org/2000/svg" xml:space="preserve" viewBox="0 0 72 72"><path d="M63.7 61.1c.7-.4 1.1-1.2 1.1-1.9s-.5-1.5-1.4-3.2c0-.1-.1-.1-.1-.2l-7-11.9-.1-.1c-1-1.7-1.5-2.5-2.1-2.8-.7-.4-1.5-.4-2.2 0-.6.3-1.2 1.2-2.2 3l-6.9 11.9c-1 1.7-1.5 2.6-1.5 3.3.1.8.5 1.5 1.1 1.9s1.6.4 3.7.4H60c2 .1 3.1.1 3.7-.4m-37.6.2c1.1-.3 2.1-.9 3-1.7.8-.7 1.3-1.7 2.4-3.7v-.1l12.6-22.2c1.1-2 1.7-2.9 1.9-4 .3-1.1.3-2.3 0-3.4-.2-1-.8-2-1.9-3.9l-4.9-8.6c-1-1.8-1.5-2.7-2.2-3-.7-.4-1.5-.4-2.2 0-.7.3-1.2 1.2-2.2 3L8.7 55.9c-1 1.8-1.5 2.6-1.5 3.4.1.8.5 1.5 1.1 1.9s1.6.4 3.7.4h9.7c2.2 0 3.4 0 4.4-.3"/></svg>