<svg xmlns="http://www.w3.org/2000/svg" xml:space="preserve" viewBox="0 0 360 180"><path d="M117.2 66.4c0 3.5.4 6.4 1.1 8.5.8 2.1 1.7 4.4 3.1 6.9.5.8.7 1.5.7 2.2 0 1-.6 1.9-1.8 2.9l-6 4c-.9.6-1.7.9-2.5.9-1 0-1.9-.5-2.9-1.3-1.3-1.4-2.5-3-3.4-4.5-1-1.6-1.9-3.4-3-5.6Q91.25 93.6 74.3 93.6c-8 0-14.5-2.3-19.2-6.9S48 76 48 68.3c0-8.1 2.9-14.7 8.7-19.7S70.2 41 80.1 41c3.3 0 6.6.3 10.2.8 3.5.5 7.2 1.2 11 2.1v-7q0-10.95-4.5-15.3c-3.1-3-8.2-4.4-15.6-4.4-3.4 0-6.8.4-10.3 1.2-3.5.9-7 1.9-10.3 3.3-1.5.7-2.7 1.1-3.4 1.2s-1.2.3-1.5.3c-1.3 0-2-1-2-3v-4.7c0-1.5.2-2.7.7-3.4s1.3-1.3 2.7-2C60.3 8.5 64.3 7 69 5.9c4.7-1.2 9.7-1.8 14.9-1.8 11.4 0 19.7 2.6 25.1 7.8 5.3 5.2 8 13 8 23.6v31zM78.3 81c3.2 0 6.4-.6 9.9-1.7 3.4-1.2 6.5-3.3 9.1-6.1 1.5-1.8 2.7-3.8 3.3-6.1s1-5.1 1-8.3v-4c-2.8-.7-5.8-1.2-8.8-1.6-3.1-.4-6-.6-9-.6-6.4 0-11.1 1.2-14.3 3.8s-4.7 6.2-4.7 11c0 4.5 1.2 7.9 3.5 10.2 2.2 2.2 5.6 3.4 10 3.4m76.9 10.3c-1.7 0-2.9-.3-3.6-1-.8-.6-1.4-1.9-2-3.7l-22.5-74c-.6-1.9-.9-3.2-.9-3.8 0-1.5.8-2.4 2.3-2.4h9.4c1.8 0 3.1.3 3.7 1 .8.6 1.3 1.9 1.9 3.7l16.1 63.4 14.9-63.4c.5-1.9 1.1-3.2 1.8-3.7.8-.6 2.1-1 3.8-1h7.7c1.8 0 3.1.3 3.8 1 .8.6 1.4 1.9 1.8 3.7l15.1 64.2 16.6-64.2c.6-1.9 1.2-3.2 1.9-3.7.8-.6 2-1 3.7-1h8.9c1.5 0 2.4.8 2.4 2.4 0 .5-.1 1-.2 1.5s-.3 1.3-.7 2.4l-23.1 74c-.6 1.9-1.2 3.2-2 3.7-.8.6-2 1-3.6 1h-8.2c-1.8 0-3.1-.3-3.8-1-.8-.7-1.4-1.9-1.8-3.8l-14.8-61.8-14.7 61.7c-.5 1.9-1.1 3.2-1.8 3.8s-2.1 1-3.8 1zm123.1 2.6c-5 0-10-.6-14.7-1.7-4.8-1.2-8.5-2.4-11-3.8-1.5-.9-2.6-1.8-3-2.7q-.6-1.35-.6-2.7v-4.9c0-2 .8-3 2.2-3 .6 0 1.2.1 1.7.3s1.4.6 2.4 1c3.3 1.4 6.8 2.6 10.5 3.4q5.7 1.2 11.4 1.2c6 0 10.7-1.1 14-3.2s5-5.2 5-9.1c0-2.7-.9-4.9-2.6-6.7s-5-3.4-9.7-5L270 52.7c-7-2.2-12.2-5.5-15.3-9.8-3.2-4.2-4.8-8.9-4.8-13.9 0-4 .9-7.6 2.6-10.6s4-5.8 6.9-7.9c2.9-2.2 6.1-3.8 10-5s7.9-1.6 12.1-1.6c2.1 0 4.3.1 6.4.4 2.2.3 4.2.7 6.2 1.1 1.9.5 3.7 1 5.5 1.5 1.7.6 3.1 1.2 4 1.7 1.3.8 2.3 1.5 2.9 2.4.6.8.9 1.8.9 3.2v4.5c0 2-.8 3.1-2.2 3.1q-1.2 0-3.6-1.2c-5.5-2.5-11.6-3.7-18.4-3.7-5.5 0-9.8.9-12.7 2.7-3 1.8-4.5 4.6-4.5 8.5 0 2.7 1 5 2.9 6.8s5.5 3.6 10.5 5.3l13.6 4.3c6.9 2.2 11.9 5.3 14.8 9.2s4.4 8.4 4.4 13.4c0 4.1-.9 7.9-2.5 11.1-1.7 3.3-4 6.1-7 8.4-3 2.4-6.5 4.1-10.6 5.4-4.4 1.2-8.9 1.9-13.8 1.9m18.1 46.6c-31.5 23.3-77.3 35.6-116.7 35.6-55.2 0-104.9-20.4-142.4-54.3-3-2.7-.3-6.3 3.3-4.2 40.6 23.6 90.7 37.8 142.5 37.8 35 0 73.4-7.3 108.7-22.2 5.3-2.4 9.8 3.4 4.6 7.3m13.1-15c-4-5.2-26.6-2.5-36.9-1.2-3.1.4-3.5-2.3-.8-4.3 18-12.6 47.6-9 51.1-4.8 3.4 4.3-1 33.9-17.8 48.1-2.6 2.2-5.1 1.1-3.9-1.8 3.8-9.5 12.3-30.9 8.3-36"/></svg>