<svg xmlns="http://www.w3.org/2000/svg" xml:space="preserve" viewBox="0 0 1000 494.8"><path d="M786.5 232c10.2 4.9 10.2 2.3 12.9-1.7s17.8-15.7 17.8-15.7 14.1-8.4 28.6-28.7c13.9-19.4 1.8-32.1-9.7-43.2-11.4-11-37.8 3.9-57.7 34.3-20 30.3-2.1 50 8.1 55m90.5 36.1c2.9-2 6.7.9 4.4 6.8-.8 2.1-17 45.4-64.3 77.6-.1-.1 4.8-47 59.9-84.4M697.2 109.2c8.5-7.9 6.2.8 5.3 3.4 0 0-37.9 105.5-119.4 200-.1 0 43-136.6 114.1-203.4M211.3 382.4S159 313 69.9 394.6l29.5-101.8s31.2 2.9 74.7-17.3c0 0 94.1 3 37.2 106.9m-25.5 36.8s-57.4 56.7-76.7 34.8c-18.3-20.8 14.7-48.8 27.6-55.7 16.7-9 67.3-18.3 49.1 20.9M134 70.2s96.7-46.4 138.4-23 29 65.4-34.5 134.9c0 0-48.6 43.6-77.6 55.9 0 0-36.6 5.7-47 10.9 0 0 8.7-28.7 19.1-61.5 12.9-40.6 29.7-85.6 20.4-97.5C141.5 75.4 134 70.2 134 70.2m865.7 268.4c-.4-2.6-11.8-36.3-21.5-25.5-9.8 10.8-34.8 51.8-115.1 95.6-39.5 21.5-42.6-5.5-44.6-16.5 0 0 54.6-38.3 82.5-89 18.9-34.5 6.7-42.3-1-50.1-7-7.1-24.6-23.1-47.5-6.3-22.9 16.7-77.7 70.7-71.7 129.9-8.9 9-34.8 30.3-51.6 26.5s.9-40 13.5-64.6c12.5-24.6 37-44.3 44.5-55.4 7.5-11.2 3.3-14.7 1.8-16.5s-5-4.2-10.4-14-13.2-3-13.2-3c-36.1 23.7-61.5 86.4-61.5 86.4-7.3 8.1-18.1 4.9-20.2 4.1-3.2-1.3-5.6-9.1-6.2-13.1-.5-3.2-2.7-16.5-4.5-20.1-1.7-3.6-3.6-5.4-13-2.5-10.9 3.3-18.7 10-21.9 13.7s-1.7 4.5-.9 16.2c.4 5.7.9 5.9-3.1 15.9-6.1 15.2-16.6 34.6-19.9 41.1-2.9 5.6-23.6 33.1-31.9 33.8-7.5.6-10.2-11.4-10.2-11.4s-4.3-27.7-1.2-41.4c145-163.7 181.3-279.1 181.3-279.1.7-2 4-8.7-6.3-24.1-13.4-19.9-27.4-19.1-27.4-19.1s-9.8-1.3-31.5 21.2c-138.1 142.9-151.8 293-151.8 293-1.4 2.8-1.9 3.3-7.9 9.9-6.3 6.9-15.4 11.9-15.4 11.9s-8.8 2.3-10.6-5.1c-1.2-4.8-.4-8.5.3-14.9.6-5.9 9.1-25.6 9.1-25.6s12.8-27.7 15.6-36c2.8-8.2 2.2-17.4-.5-23.8-2.6-6.4-14.4-13-18.2-15.6-3.7-2.5-7.6-6.3-7.1-11.8.2-1.8-1.5-3.3 5.6-18.9 7.1-15.7-6-19.5-9.8-20.1-3.8-.7-14.3-3.9-23.9 4.6-17 14.9-17.5 41.1-17.5 41.1-.1 3.4 1.2 6.8-.5 10.7-1 2.2-3.3 6.5-9.4 19-6.2 12.7-19.3 38.1-27.4 52.3-6.8 11.9-16.2 25.6-22.3 32.4-4.1 4.6-9.6 8.3-9.6 8.3s-6.1 4.6-6.2-6.7c-.2-11.8 16.1-47.9 16.1-47.9s11.4-28.2 12.9-31.6c2.1-4.8 3.5-11.2.2-15.1-4.7-5.7-17-8.7-22.3-6-5.4 2.7-15 19-20.8 28.3-7.3 11.8-19 34.8-32.5 57.5-13.1 22-27.7 30-27.7 30s-7.8 4.8-13.9-.8c-3.5-3.2-31.9-28.2 35.8-103.6 27.9-31 42.4-36.2 56.9-26.1 5.6 3.9 11.1 10.7 18.3 10.9 12.2.3 16.2-14.7 16.2-14.7.4-2.6 11.1-31.3-34.5-31.8-74.1-.8-116.5 82.8-116.5 82.8-14.1-53.3-54.2-57.4-54.2-57.4 46.1-32.4 72.4-53.1 105.9-111C353 81.6 304.2 35.9 304.2 35.9c-20.7-25-71.3-51.1-156.7-25.1C58.3 38.1 51 59.8 42.1 86.3c-8.9 26.6 8.5 19.7 19.3 14.5 10.7-5.2 52.7-22.4 52.7-22.4S7.6 406.9 4.5 422.9c-2.8 14.3-16.9 53.3 25.7 58.6 0 0 6.6 1 12.6-1.2s6.2-6.1 6.2-6.1c2.5-9.4 6.5-24.1 7.6-25.6 23.3 70.3 98.8 49.8 145.6 8.6 33.9-29.9 54-70.7 54-70.7 28.8 62.7 63.5 29.6 63.5 29.6 14.1-11.4 32.2-37.4 32.2-37.4 10.9 51.2 48.9 29.8 48.9 29.8 17.9-10.6 35.8-42.8 39.4-48.7 20.3-33.5 39.3-74.1 39.3-74.1s2.6.1 8.3 5.2c5.1 4.5 2.6 11.7.5 18.5-2.1 6.7-10.4 23.9-14.7 38.6-4.4 15-5.3 29.6.7 42.7 5.8 12.8 22.7 23.8 34.3 25.1 14.8 1.7 28.6-10.1 28.6-10.1 2.1 37.3 31.2 50.5 31.2 50.5 38 19.8 73.4-43.1 73.4-43.1 24.2-39.5 22.2-49.5 24.2-55.5 2.8 3.6 9.7 7.5 24.2 10.4-3.9 13.9.2 27.5.2 27.5s11 27.9 36 34.6c26.7 7.2 62-19.8 62-19.8s40 68.8 129.5 9c89.5-59.9 82.2-78.1 81.8-80.7"/></svg>