<svg xmlns="http://www.w3.org/2000/svg" xml:space="preserve" viewBox="0 0 2500 2500"><path d="M1250 210.86C678.8 210.86 210.85 678.8 210.85 1250c0 570.48 467.94 1039.14 1039.15 1039.14 570.48 0 1039.14-468.66 1039.14-1039.14 0-571.2-468.66-1039.14-1039.14-1039.14m722.05 1689.44c-182.35 202.83-448.9 321.48-722.05 321.48-238.73 0-473.07-90.07-650.29-249.72C396.14 1789 278.23 1523.14 278.23 1250c0-238.73 89.34-473.07 248.98-651.02C710.29 396.12 976.84 277.5 1250 277.5c238.73 0 473.09 90.07 650.29 249.71 203.56 183.08 321.48 448.91 321.48 722.79 0 238.75-89.35 473.08-249.72 650.3"/><path d="M1418.44 1498.27v-57.86h-325.89v321.48h333.94v-57.86h-252.65v-77.62h237.26v-57.86h-237.26v-70.28zm15.38 396.15c0-73.94-61.54-95.92-124.51-95.92h-216.76v322.22h81.29v-128.16h92.28l84.94 128.15h95.92l-95.92-128.15c51.27-10.97 82.76-41.75 82.76-98.14m-134.04 39.54h-125.94v-76.88h125.94c26.37 0 52.01 7.32 52.01 38.81 0 30.76-25.64 38.07-52.01 38.07m114.25-1337.9c0-43.95-26.37-74.71-68.09-84.23 30.02-13.18 50.52-31.49 50.52-65.9 0-69.58-65.17-78.36-120.83-78.36h-198.45V689.8h224.08c60.79 0 112.77-24.89 112.77-93.74m-256.3-169.9h117.88c22.72 0 44.68 5.86 43.22 33.68-2.2 24.18-21.23 31.49-43.22 31.49h-117.88zm0 205.04v-83.47h117.88c30.78 0 56.39 3.66 56.39 40.27 0 34.42-25.62 43.2-56.39 43.2zm-197.72 453.31h-86.42l-158.17 321.47h90.8l29.29-63.71h162.58l29.29 63.71h90.81zm-97.4 199.9 53.46-117.16.74.73.73-.73 54.19 117.16zm-222.62-56.38c30.03-12.44 50.53-30.75 50.53-65.9 0-68.83-65.17-77.62-120.83-77.62H371.23v321.48h224.09c60.78 0 112.77-24.9 112.77-93.73.01-43.22-26.36-74.71-68.1-84.23m-188.2-85.67h117.9c22.71 0 44.67 6.59 42.48 33.68-1.47 24.9-20.51 32.22-42.48 32.22h-117.9zm117.89 205.76h-117.9v-84.2h117.9c30.76 0 55.65 3.64 55.65 41.01.01 34.39-25.62 43.19-55.65 43.19m767.48-263.61-94.47 127.41-94.48-127.41h-98.85l153.04 198.43v123.03h80.57v-123.03L1436 1084.51zm196.24 186h214.57v-57.85H1533.4v-70.31h221.9v-57.84h-303.19v321.46h311.99v-57.85h-230.7zm-243.84-544.84h-86.42l-158.18 321.48h90.06l30.04-63.71h162.56l29.29 63.71h90.08zm10.96 199.19h-109.1l54.2-117.17.73 1.47v-1.47zm769.66 352.96c51.26-10.99 83.47-41 83.47-97.39 0-73.95-62.24-95.92-125.21-95.92h-216.02v321.47h80.53v-128.15h93.01l84.23 128.15h95.91zm-50.52-57.84h-126.71v-77.62h126.71c26.37 0 51.98 7.33 51.98 38.82.01 31.48-26.33 38.8-51.98 38.8"/></svg>