<svg xmlns="http://www.w3.org/2000/svg" xml:space="preserve" viewBox="0 0 72 72"><path d="M36 7.2C20.1 7.2 7.2 20.1 7.2 36S20.1 64.8 36 64.8 64.8 51.9 64.8 36 51.9 7.2 36 7.2m16.7 19v4.4L49 32.8v-4.4l-3.8-2.2L49 24zM36 16.3l10.3 6-3.8 2.2-6.5-3.7-6.5 3.8-3.8-2.2zm3.8 9.9L36 28.4l-3.8-2.2L36 24zm-20.5 0 3.8-2.2 3.8 2.2-3.9 2.2v4.4l-3.8-2.2v-4.4zm6.5 11.4 3.8 2.2v4.4L25.8 42zm3.7 14.3-10.3-6V33.8L23 36v7.6l6.5 3.8zm10.3 1.6L36 55.7l-3.8-2.2V49l3.8 2.2 3.8-2.2zm0-7.6L36 48.1l-3.8-2.2v-7.6l-6.5-3.8V30l3.8-2.2 6.5 3.8 6.5-3.8 3.8 2.2v4.5l-6.5 3.8zm2.7-6.1 3.8-2.2V42l-3.8 2.2zm10.2 6.1-10.3 6v-4.5l6.5-3.8V36l3.8-2.2z"/></svg>