<svg xmlns="http://www.w3.org/2000/svg" xml:space="preserve" viewBox="0 0 72 72"><path d="M32.8 63.3c-.4.9-1.4 1.5-2.3 1.5-.4 0-.8-.1-1.1-.3-8.2-4-12.5-10.9-12.5-20.2V33.9c0-1.4 1.2-2.6 2.6-2.6s2.6 1.2 2.6 2.6v10.4c0 7.2 3.2 12.4 9.5 15.5 1.3.7 1.9 2.2 1.2 3.5m-7.7-24.2c0 1.5 1.2 2.7 2.7 2.7s2.7-1.2 2.7-2.7V17.8c0-1.5-1.2-2.7-2.7-2.7s-2.7 1.2-2.7 2.7zm8.3-.6c0 1.5 1.2 2.7 2.7 2.7s2.7-1.2 2.7-2.7V9.9c0-1.5-1.2-2.7-2.7-2.7s-2.7 1.2-2.7 2.7zm8.3 2c0 1.5 1.2 2.7 2.7 2.7s2.7-1.2 2.7-2.7V14.8c0-1.5-1.2-2.7-2.7-2.7s-2.7 1.2-2.7 2.7zm8.2 3.4c0 1.4 1.2 2.6 2.6 2.6s2.6-1.2 2.6-2.6V26.5c0-1.4-1.2-2.6-2.6-2.6s-2.6 1.2-2.6 2.6z"/></svg>