<svg xmlns="http://www.w3.org/2000/svg" xml:space="preserve" viewBox="0 0 360 180"><path d="M94.1 117.6c-.9-1.1-.9-1.8-.9-2 0-.9.5-1.5 1.6-2.4 2.5-2 8.9-6.9 12.5-11.4 2.7-3.4 3.8-6.5 3.8-9.1 0-6.5-7.3-11.8-15.2-11.8-5.1 0-9.8 2.4-13.1 6.7-4.4 5.8-9.4 12.5-12.9 15.1-.9.7-1.3.9-2 .9-1.1 0-1.6-.5-1.6-1.6v-7.6C66.3 87 60.9 81 51.2 81c-9.8 0-15.1 6-15.1 13.4v46.8c0 7.4 5.3 13.4 15.1 13.4 9.6 0 15.1-6 15.1-13.4v-10.7c0-.9.5-1.6 1.6-1.6 1.5 0 1.8 1.3 2.2 1.8 2.2 4.2 8.3 13.1 14 18.3 3.8 3.4 8.7 5.6 13.8 5.6 8.5 0 15.8-6.2 15.8-12.7 0-4.2-2.2-7.1-6.2-10.7-5.1-4.7-11.1-10.9-13.4-13.6m115.2-41c14.5 0 23.6-7.6 23.6-18.7 0-7.1-5.3-12-15.6-12h-2.7c-5.4 0-9.6 2.2-9.6 6.9 0 4.2 4.5 6.4 8 6.4 1.8 0 2.9.5 2.9 1.5 0 1.5-2 2.4-4.2 2.4-6.9 0-11.6-4-11.6-11.6 0-8.3 6.5-11.4 11.4-11.4 6.2 0 7.1 2.5 11.4 2.5 4.9 0 8.2-3.3 8.2-6.9 0-2.5-1.5-4.5-3.4-6-3.8-2.4-9.3-4.2-17.4-4.2-14.3 0-28.3 7.8-28.3 25.8-.3 17.3 13.7 25.3 27.3 25.3M46.9 76H60c12.3 0 19.8-6.7 19.8-15.2 0-6.7-4.9-9.8-6-10.7-.5-.4-.9-.5-.9-.9s.4-.5.7-.9c1.8-1.6 3.4-4.4 3.4-8.2 0-9.1-7.4-14-19.1-14h-11c-7.3 0-10.9 3.4-10.9 8.2v33.6c.2 4.7 3.6 8.1 10.9 8.1m5.4-36.8c0-.9.7-1.8 2.4-1.8H56c4 0 5.3 2.4 5.3 4.2S60 46 56 46h-1.3c-1.6 0-2.4-.7-2.4-1.8zm0 17.8c0-.9.7-1.8 2.4-1.8h1.6c4.4 0 5.8 2.4 5.8 4.7 0 2-1.3 4.7-5.8 4.7h-1.6c-1.6 0-2.4-.7-2.4-1.8zm235.9 19.6c6 0 9.1-3.6 9.1-8.2v-8c0-.9.5-1.5 1.5-1.5 1.1 0 1.5.5 1.6 1.5.9 3.8 3.1 9.1 5.6 11.8 3.1 3.4 6.2 4.5 9.1 4.5 4.7 0 8.9-3.1 8.9-7.1 0-2.5-1.3-4.5-2.9-6.2-3.1-3.3-5.1-5.4-6.4-8-.4-.5-.2-1.1.7-1.6 2.9-1.8 6.2-5.8 6.2-12.2 0-9.6-9.6-15.1-21.4-15.1h-10.5c-7.3 0-10.9 3.4-10.9 8.2v33.9c.2 4.2 3.5 8 9.4 8m8-36.1c0-.9.7-1.8 2.4-1.8h1.3c3.8 0 5.1 2.4 5.1 4.2s-1.3 4.4-5.1 4.4h-1.3c-1.6 0-2.4-.7-2.4-1.8zM136.4 80.9c-10.3 0-16 6.4-16 14.3v45c0 8 5.6 14.3 16 14.3s16-6.4 16-14.3v-45c-.1-7.9-5.7-14.3-16-14.3m164.2 29.2h-4.5c-8.2 0-14.3 3.1-14.3 10 0 6.2 6.9 9.3 12 9.3 2.5 0 4.2.5 4.2 2.2 0 2-2.9 3.3-6.2 3.3-10.5 0-17.6-5.8-17.6-16.7 0-12.2 9.6-16.5 17.2-16.5 9.1 0 10.7 3.8 17.1 3.8 7.4 0 12.3-4.9 12.3-10 0-3.8-2-6.5-5.3-8.5-5.6-3.4-14.2-6-26.1-6-21.6 0-42.5 11.3-42.5 37.2 0 24.9 21.1 36.5 41.7 36.5 21.8 0 35.4-11.1 35.4-27.2 0-10.3-7.8-17.4-23.4-17.4m-35-34.1c5.3 0 9.3-2.5 9.3-7.1 0-4.5-4-7.1-9.3-7.1h-8.3c-1.6 0-2.4-.7-2.4-1.8v-1.5c0-.9.7-1.8 2.4-1.8h6.4c4.4 0 8-2.2 8-6.2 0-3.8-3.4-6-8-6h-6.4c-1.6 0-2.4-.7-2.4-1.8v-1.3c0-.9.7-1.8 2.4-1.8h8.3c5.3 0 9.3-2.5 9.3-7.1s-4-7.1-9.3-7.1h-17.4c-7.3 0-10.9 3.4-10.9 8.2v33.6c0 4.7 3.4 8.2 10.9 8.2zm-158.6.6c14.9 0 22.9-7.4 22.9-16.7V34.3c0-4.5-3.3-8.2-9.1-8.2-6 0-9.1 3.6-9.1 8.2v24.9c0 1.8-1.3 4-4.5 4-3.3 0-4.4-2.2-4.4-4V34.3c0-4.5-3.3-8.2-9.3-8.2s-9.1 3.6-9.1 8.2v25.6c-.3 9.2 7.5 16.7 22.6 16.7m64.7 0c4.7 0 8.9-3.1 8.9-7.1 0-2.5-1.3-4.5-2.9-6.2-2.7-2.9-5.1-5.4-6.4-8-.4-.5-.2-1.1.7-1.6 2.9-1.8 6.2-5.8 6.2-12.2 0-9.6-9.6-15.1-21.4-15.1h-10.5c-7.3 0-10.9 3.4-10.9 8.2v33.9c0 4.5 3.3 8.2 9.1 8.2 6 0 9.1-3.6 9.1-8.2v-8c0-.9.5-1.5 1.5-1.5 1.1 0 1.5.5 1.6 1.5.9 3.8 3.1 9.1 5.6 11.8 3.6 3.2 6.5 4.3 9.4 4.3m-15-29.1h-1.3c-1.6 0-2.4-.7-2.4-1.8v-5.1c0-.9.7-1.8 2.4-1.8h1.3c3.8 0 5.1 2.4 5.1 4.2 0 2-1.3 4.5-5.1 4.5m68.2 33.4c-9.4 0-14.7 5.8-14.7 13.2v16.3c0 1.5-.5 2-1.6 2-.7 0-1.3-.4-2-1.5l-12.7-20.5c-4.9-7.8-10-9.6-15.8-9.6-9.6 0-15.1 6-15.1 13.6v46.8c0 7.4 5.3 13.2 14.7 13.2s14.7-5.8 14.7-13.2V125c0-1.5.5-2 1.6-2 .7 0 1.3.4 2 1.5l12.9 20.5c4.9 7.8 10.2 9.6 15.8 9.6 9.6 0 15.1-6 15.1-13.6V94.2c-.2-7.5-5.4-13.3-14.9-13.3"/></svg>