<svg xmlns="http://www.w3.org/2000/svg" xml:space="preserve" viewBox="0 0 360 180"><path d="M247.4 154.1c-13.2 6.2-35.9 7.9-67.4 7.9s-54.1-1.8-67.4-7.9c-7.9-3.7-12-8.7-12-12.3 0-2.1 1.3-3.2 4.3-3.2H255c3 0 4.3 1.2 4.3 3.2 0 3.6-4 8.6-11.9 12.3m7.6-95.5H105c-3 0-4.3-1.3-4.3-3.5 0-13.4 24.5-37.1 79.3-37.1 54.3 0 79.3 23.7 79.3 37.1 0 2.2-1.3 3.5-4.3 3.5m-122.4 55.3c-.5-.6-.5-1-.5-1.1 0-.5.3-.8.9-1.3 1.4-1.1 4.9-3.8 6.9-6.3 1.5-1.9 2.1-3.6 2.1-5 0-3.6-4-6.5-8.4-6.5-2.8 0-5.4 1.3-7.2 3.7-2.4 3.2-5.2 6.9-7.1 8.3-.5.4-.7.5-1.1.5q-.9 0-.9-.9v-4.2c0-4.1-3-7.4-8.3-7.4-5.4 0-8.3 3.3-8.3 7.4v25.8c0 4.1 2.9 7.4 8.3 7.4 5.3 0 8.3-3.3 8.3-7.4V121c0-.5.3-.9.9-.9.8 0 1 .7 1.2 1 1.2 2.3 4.6 7.2 7.7 10.1 2.1 1.9 4.8 3.1 7.6 3.1 4.7 0 8.7-3.4 8.7-7 0-2.3-1.2-3.9-3.4-5.9-2.8-2.6-6.1-6-7.4-7.5m63.5-22.6c8 0 13-4.2 13-10.3 0-3.9-2.9-6.6-8.6-6.6H199c-3 0-5.3 1.2-5.3 3.8 0 2.3 2.5 3.5 4.4 3.5 1 0 1.6.3 1.6.8 0 .8-1.1 1.3-2.3 1.3-3.8 0-6.4-2.2-6.4-6.4 0-4.6 3.6-6.3 6.3-6.3 3.4 0 3.9 1.4 6.3 1.4 2.7 0 4.5-1.8 4.5-3.8 0-1.4-.8-2.5-1.9-3.3-2.1-1.3-5.1-2.3-9.6-2.3-7.9 0-15.6 4.3-15.6 14.2-.1 9.6 7.6 14 15.1 14m-89.5-.3h7.2c6.8 0 10.9-3.7 10.9-8.4 0-3.7-2.7-5.4-3.3-5.9-.3-.2-.5-.3-.5-.5s.2-.3.4-.5c1-.9 1.9-2.4 1.9-4.5 0-5-4.1-7.7-10.5-7.7h-6.1c-4 0-6 1.9-6 4.5v18.5c.1 2.6 2 4.5 6 4.5m3-20.3c0-.5.4-1 1.3-1h.7c2.2 0 2.9 1.3 2.9 2.3s-.7 2.4-2.9 2.4h-.7c-.9 0-1.3-.4-1.3-1zm0 9.8c0-.5.4-1 1.3-1h.9c2.4 0 3.2 1.3 3.2 2.6 0 1.1-.7 2.6-3.2 2.6h-.9c-.9 0-1.3-.4-1.3-1zm130 10.8c3.3 0 5-2 5-4.5v-4.4c0-.5.3-.8.8-.8.6 0 .8.3.9.8.5 2.1 1.7 5 3.1 6.5 1.7 1.9 3.4 2.5 5 2.5 2.6 0 4.9-1.7 4.9-3.9 0-1.4-.7-2.5-1.6-3.4-1.7-1.8-2.8-3-3.5-4.4-.2-.3-.1-.6.4-.9 1.6-1 3.4-3.2 3.4-6.7 0-5.3-5.3-8.3-11.8-8.3h-5.8c-4 0-6 1.9-6 4.5V87c.1 2.2 1.9 4.3 5.2 4.3m4.4-19.9c0-.5.4-1 1.3-1h.7c2.1 0 2.8 1.3 2.8 2.3s-.7 2.4-2.8 2.4h-.7c-.9 0-1.3-.4-1.3-1zm-88.1 22.3c-5.7 0-8.8 3.5-8.8 7.9v24.8c0 4.4 3.1 7.9 8.8 7.9s8.8-3.5 8.8-7.9v-24.8c0-4.4-3.1-7.9-8.8-7.9m90.5 16.1h-2.5c-4.5 0-7.9 1.7-7.9 5.5 0 3.4 3.8 5.1 6.6 5.1 1.4 0 2.3.3 2.3 1.2 0 1.1-1.6 1.8-3.4 1.8-5.8 0-9.7-3.2-9.7-9.2 0-6.7 5.3-9.1 9.5-9.1 5 0 5.9 2.1 9.4 2.1 4.1 0 6.8-2.7 6.8-5.5 0-2.1-1.1-3.6-2.9-4.7-3.1-1.9-7.8-3.3-14.4-3.3-11.9 0-23.4 6.2-23.4 20.5 0 13.7 11.6 20.1 23 20.1 12 0 19.5-6.1 19.5-15 0-5.6-4.3-9.5-12.9-9.5M227.1 91c2.9 0 5.1-1.4 5.1-3.9s-2.2-3.9-5.1-3.9h-4.6c-.9 0-1.3-.4-1.3-1v-.8c0-.5.4-1 1.3-1h3.5c2.4 0 4.4-1.2 4.4-3.4 0-2.1-1.9-3.3-4.4-3.3h-3.5c-.9 0-1.3-.4-1.3-1V72c0-.5.4-1 1.3-1h4.6c2.9 0 5.1-1.4 5.1-3.9s-2.2-3.9-5.1-3.9h-9.6c-4 0-6 1.9-6 4.5v18.5c0 2.6 1.9 4.5 6 4.5zm-87.4.3c8.2 0 12.6-4.1 12.6-9.2V68c0-2.5-1.8-4.5-5-4.5-3.3 0-5 2-5 4.5v13.7c0 1-.7 2.2-2.5 2.2s-2.4-1.2-2.4-2.2V68c0-2.5-1.8-4.5-5.1-4.5s-5 2-5 4.5v14.1c-.2 5.1 4.1 9.2 12.4 9.2m35.7 0c2.6 0 4.9-1.7 4.9-3.9 0-1.4-.7-2.5-1.6-3.4-1.5-1.6-2.8-3-3.5-4.4-.2-.3-.1-.6.4-.9 1.6-1 3.4-3.2 3.4-6.7 0-5.3-5.3-8.3-11.8-8.3h-5.8c-4 0-6 1.9-6 4.5v18.7c0 2.5 1.8 4.5 5 4.5 3.3 0 5-2 5-4.5v-4.4c0-.5.3-.8.8-.8.6 0 .8.3.9.8.5 2.1 1.7 5 3.1 6.5 2 1.7 3.6 2.3 5.2 2.3m-8.3-16h-.7c-.9 0-1.3-.4-1.3-1v-2.8c0-.5.4-1 1.3-1h.7c2.1 0 2.8 1.3 2.8 2.3 0 1.1-.7 2.5-2.8 2.5m37.6 18.4c-5.2 0-8.1 3.2-8.1 7.3v9c0 .8-.3 1.1-.9 1.1-.4 0-.7-.2-1.1-.8l-7-11.3c-2.7-4.3-5.5-5.3-8.7-5.3-5.3 0-8.3 3.3-8.3 7.5V127c0 4.1 2.9 7.3 8.1 7.3s8.1-3.2 8.1-7.3v-9c0-.8.3-1.1.9-1.1.4 0 .7.2 1.1.8l7.1 11.3c2.7 4.3 5.6 5.3 8.7 5.3 5.3 0 8.3-3.3 8.3-7.5V101c-.1-4.1-3-7.3-8.2-7.3"/></svg>