<svg xmlns="http://www.w3.org/2000/svg" xml:space="preserve" viewBox="0 0 360 180"><path d="M323.8 109.8c-.1-.3-.3-.6-.5-.8s-.5-.4-.7-.5c-.6-.2-1.3-.2-1.9 0-.3.1-.5.3-.8.5-.2.2-.4.5-.5.8-.2.6-.2 1.3 0 1.9.1.3.3.6.5.8s.5.4.8.5c.6.2 1.3.2 1.9 0 .3-.1.5-.3.7-.5s.4-.5.5-.8c.3-.6.3-1.2 0-1.9m-.3 1.8c-.1.2-.2.5-.4.7s-.4.3-.6.4c-.3.1-.5.2-.8.2-.6 0-1.1-.2-1.4-.6-.2-.2-.3-.4-.4-.7s-.1-.5-.1-.8.1-.6.1-.8c.1-.2.2-.5.4-.7.4-.4.9-.6 1.4-.6.3 0 .6.1.8.2s.4.3.6.4c.2.2.3.4.4.7s.1.5.1.8 0 .6-.1.8m-.9-1c.1-.1.2-.3.2-.5s-.1-.4-.2-.6c-.2-.2-.4-.2-.7-.2h-1.2v2.9h.5V111h.5l.7 1.2h.6l-.7-1.2c.1-.1.2-.3.3-.4m-.9 0h-.5v-.9h.6c.1 0 .2 0 .3.1s.2.2.2.3-.1.3-.2.4-.3.1-.4.1M85.9 57.1c0-2.1-.9-3.4-3.3-3.4-7.9 0-17.9 14.3-21.5 20.2-4.9 8-10.5 20.2-10.5 30 0 3.8 1.6 6.6 5.7 6.6 8.6 0 15.3-11.2 15.3-18.6.1-1.6-.3-3.3-1.2-4.7 1-1.3 2.5-2 4.2-2 2.9 0 4.4 1.9 4.4 5.2 0 10.5-11.1 24.2-24.4 24.2-10 0-15.4-5.1-15.4-14.9C39.1 79.7 60 51 83 51c5.4 0 10.8 1.6 10.8 7.5 0 7.8-7.9 13.3-14.7 15.5-3 .9-6.1 1.4-9.2 1.4-1.8 0-3.6-.2-5.3-.5l.2-.8c8.2-.2 21.1-8.4 21.1-17m224.2 11.6-.4-.7c2.3-1.9 4.6-5.5 4.6-8.7.1-2.1-1.2-3.9-3.2-4.5 1.1-1.7 3-2.8 5.1-2.7 2.6-.2 5 1.8 5.2 4.4v.8c0 5.8-6.8 9.8-11.3 11.4M36 57.4c-.2-2.7 1.9-5.1 4.7-5.2h.7c2-.1 3.9 1 4.9 2.7-2 .6-3.3 2.4-3.2 4.5 0 3.1 2.3 6.7 4.6 8.7l-.4.7C42.9 67.1 36 63.1 36 57.4m257.3 47 .7.5c-2.1 4.5-5.3 9.3-10.6 9.3-4.2 0-6.6-2.6-6.6-6.9 0-3.7 2.2-8.6 3.7-12l18.7-42.6h8.5L287.4 100c-.9 1.8-1.5 3.8-1.7 5.8-.1 1 .6 1.9 1.6 2h.4c2.4.1 4-1.5 5.6-3.4m-18.9 0 .7.5c-2.1 4.5-5.3 9.3-10.6 9.3-4.2 0-6.6-2.6-6.6-6.9 0-3.7 2.2-8.6 3.7-12l18.7-42.6h8.5L268.5 100c-.9 1.8-1.5 3.8-1.7 5.8-.1 1 .6 1.9 1.6 2h.4c2.3.1 4-1.5 5.6-3.4m-120.5 9.8c-3.8 0-5.9-2.2-5.9-6.2 0-6.3 8.7-19.2 8.7-23.5.1-1.1-.7-2-1.7-2.1h-.4c-3.6 0-6.2 5.7-7.5 8.6l-9.1 22.1h-8.8l10.2-24.9c.6-1.2.9-2.4 1-3.7.1-1-.7-2-1.7-2.1h-.4c-3.5 0-6.3 5.7-7.5 8.6l-9.1 22.2H113l14.3-34.8h8.2l-1.8 4.5c2.5-2.8 5.6-5.2 9.6-5.2 3-.3 5.7 2 5.9 5v.4c2.8-3 5.9-5.4 10-5.4 3.6 0 6.2 2.1 6.2 5.7 0 6.7-8.4 18.2-8.4 22.7-.1.8.4 1.6 1.2 1.7h.4c1.9 0 3.6-2 4.8-3.4l.7.5c-1.9 4.8-4.8 9.3-10.2 9.3m165.3-36c-.9 1.7-1.3 3.7-1.3 5.7 0 4.2 1.1 9 1.1 15.3 0 9.2-6 15.2-14.9 15.2-5.4 0-8.3-2.2-8.3-4.8 0-1.2.8-2.3 1.9-2.8.7 1.9 2.2 3.1 5.2 3.1 5.7 0 7.6-5.1 7.6-9.9 0-4.2-.3-7.8-.3-11.9 0-.5.1-1.7.1-1.7-2.2 1.8-6.6 7.7-8.3 9.5l-.7-.5c2.6-4.9 5.4-9.6 8.6-14.2 1.7-2.1 4.2-3.4 7-3.3.7 0 1.5.1 2.3.3m-206.4 26.2c-1.3 1.5-3 3.4-4.9 3.4-1.1 0-1.6-.7-1.6-1.7 0-1.6.9-3.7 2.1-6.4 2.3-5.2 7.5-17.3 9.1-21.3H109l-1.1 2.7c-.9-2.3-3.1-3.3-5.7-3.3-7.1 0-12.5 5.1-16 10.7-3 4.7-6.6 12.2-6.6 17.9 0 4.6 2.2 7.8 6.9 7.8 5.2 0 8.9-4.4 11.5-8.6-.1.8-.2 1.6-.2 2.3 0 3.8 1.8 6.3 5.5 6.3 5.4 0 8.3-5 10.2-9.3zm-9.1-14.2c-4 8.3-8.4 17.7-12.5 17.7-1.5 0-2.2-.9-2.2-2.8-.1-5.8 8.6-24.2 14.8-24.2 1.1-.1 2.1.7 2.3 1.8v.5c-.1 2-1.3 4.6-2.4 7m123.8-12.4c-3.5.1-6.8 1.6-9.2 4.2 2.1-4.6 12-27.4 17.5-27.4.9-.1 1.6.6 1.7 1.4v.3c0 3.9-5.5 10.9-10.1 14.2l.4.7c6.2-2.1 15.8-7.5 15.8-14.9 0-2.9-2.2-4.7-5.7-4.7-6.5 0-12.3 5.7-16.8 11.4-8.8 11.3-20.1 30.9-20.1 43 0 4.9 3 8.3 9 8.3 12.1 0 24.1-17.9 24.1-29 .1-4.1-1.9-7.5-6.6-7.5m-15.3 31.6c-1.7 0-2.2-1.1-2.2-2.7.2-2.6.7-5.2 1.5-7.7 2.2-7.5 6.6-16.9 10.8-16.9 1.9 0 2.6 1.5 2.6 3.5 0 6.3-7.2 23.8-12.7 23.8m45.4-24.6c.6-2 .1-4.6-3.2-4.6-3.1-.1-5.6 2.4-5.7 5.4v.4c0 2.9 1.7 4.6 5.3 5.7l-.3 1.1c-6 .8-11.9 4.4-11.9 10.5 0 3.1 1.6 4.9 5.3 4.9 2.9 0 5.6-1 7.9-2.8l.6.5c-2.7 5.1-8.1 8.2-13.8 8.3-5.7 0-9.5-3.1-9.5-8.3 0-6.5 4.5-10.6 12.1-13.1-2.3-1-3.8-3.3-3.9-5.8 0-6.5 7.6-9.3 14.2-9.3 4.5 0 8.3 1.3 8.3 4.2-.1 2.3-3.2 3.2-5.4 2.9m-63.4-7c-3.5.1-6.7 1.7-9 4.3l3.8-9.3h-8.7l-23 56.2h8.7l8.2-20.1c.6 3.3 3.1 5.3 6.7 5.3 11.5 0 19.7-19.3 19.7-29.1.1-4.2-1.9-7.3-6.4-7.3m-8.1 24.4c-1.6 2.9-4.1 6.9-7.2 6.9-1.4.1-2.7-1-2.8-2.4v-.5c.2-1.7.6-3.4 1.3-5l4.5-10.9c1.3-3.2 4.1-7.9 7.3-7.9 1.9 0 2.5 1.4 2.5 3.4-.1 4.2-3.5 12.6-5.6 16.4"/></svg>