<svg xmlns="http://www.w3.org/2000/svg" xml:space="preserve" viewBox="0 0 360 180"><path d="M83.003 114.252c-13.375 0-24.25-10.875-24.25-24.25S69.627 65.75 83.002 65.75c4.75 0 9.126 1.375 12.876 3.625L83.003 90.001l24.126-14c-2.625-4.126-6.375-7.75-11-10.5-5.75-3.501-13.876-5.626-22.751-5.626-12.75 0-23.876 4.625-30.126 11.5-4.625 5.126-7.376 11.626-7.376 18.626s2.75 13.5 7.376 18.626c6.25 6.875 17.25 11.5 29.751 11.5s23.5-4.625 29.751-11.5c.375-.375.625-.75 1-1.125l-1-3.5c-4.25 6.125-11.5 10.25-19.75 10.25m80.253 4.375L153.13 80.751c-1.625-6.125-7.25-10.626-13.875-10.626-1.75 0-3.375.25-4.876.875l-21.875 8h22.5l3.876 14.376c-3.75-3.25-8.626-5.125-13.876-5.125-10.5 0-19.126 7.125-19.126 15.75 0 8.751 8.5 15.751 19.126 15.751 7.625 0 14.376-3.75 18.5-9.375l2.25 8.375zm-31.002-5.875c-4.875 0-8.75-4-8.75-8.875s4-8.75 8.75-8.75c4.876 0 8.876 4 8.876 8.75-.125 5-4 8.875-8.876 8.875m72.378-42.627c-1.375 0-2.625.25-3.75.875l-14 6.5c-.75-4.124-4.376-7.375-8.75-7.375-1.376 0-2.626.25-3.75.875l-17.127 8h12v39.627h17.627V83.376c0-2.375 2-4.375 4.375-4.375s4.375 2 4.375 4.375v35.251h17.626V79.001c.125-4.875-3.75-8.876-8.626-8.876m110.505 0c-1.375 0-2.625.25-3.75.875l-14.001 6.5c-.75-4.124-4.375-7.375-8.75-7.375-1.375 0-2.625.25-3.75.875l-17.126 8h12v39.627h17.751V83.376c0-2.375 2-4.375 4.375-4.375s4.375 2 4.375 4.375v35.251h17.626V79.001c.125-4.875-3.875-8.876-8.75-8.876"/><path d="M270.761 95.126c0 13.75-11.125 25.001-25.001 25.001-13.75 0-25.001-11.125-25.001-25 0-13.751 11.125-25.002 25-25.002 13.752 0 25.002 11.25 25.002 25.001M246.76 77.751c-.75-2.875-3.75-4.626-6.75-3.875-2.875.75-4.625 3.75-3.875 6.75l8.625 31.876c.75 3 3.75 4.625 6.75 3.875 2.875-.75 4.625-3.875 3.875-6.75z"/></svg>