<svg xmlns="http://www.w3.org/2000/svg" xml:space="preserve" viewBox="0 0 360 180"><path d="M96.9 49.9c-2.5 0-5.2.3-8.2 1 0 0-15.3 3.8-32.2 19.5 0 0-8 8.2-13.7 18.6 0 0-5.9 10.9-6.8 20.1 0 0-.9 10.3 4.9 15.5 0 0 6.7 6.1 21.3 4.9 0 0 9.2-1.1 19.1-7.4 0 0 4.8-3.1 7.9-6 0 0-1.5 5.2.7 9 0 0 2 3.6 6.6 4.4 0 0 3.4.7 8.2-1.1 0 0 3-1.3 5-2.3 0 0 4.1-2.2 8.2-5.4 0 0-.8 3.1 1 5.8 0 0 2.1 3 6 3.4 0 0 10.5.8 25.1-17.2l-10.3 16.5 9.4-.1 8.2-14.1s8.5-14.5 10.3-16.3c0 0 4.4-5.8 10.9-7.1l4.4.3s1.8.9 1.8 2.9l-3.2-.6s-1.9.2-2.9 2.2c0 0-.9 1.9-.4 3.8 0 0 .6 1.6 2 2.1l1 .3 3.2-.4s5.7-2.1 13.5-11.9l-1.8 3.2-6.6 11.3-7.7 13.6s-2.2 4.5-1.2 7.1c0 0 1 2.6 4.4 3.2l7.3-.6s4.1-1.2 7.5-4.1l4.8-3.9s5.8-4.9 11.1-10.7l-.3.4s-4.6 8.4-5.4 11.2c0 0-1.8 5.9 2.3 8.3l4.7.4s3.9-.6 7.8-3.4l6.4-5.5s5.5-5.1 8.4-8.8c0 0-1.5 3.4-1.8 5.8 0 0-1.1 7.8 6.1 10.9l6.8.6s2.7-.2 6.8-1.7c0 0 9.6-3.1 23.1-15.5 0 0 6.8-6.3 11.6-11.8l-17 28.5h8.4l6.3-10.5 8-13.1s4.6-7.3 13-11.9c0 0 3.4-2 5.9-2.5 0 0 2.7-.6 3.2.8 0 0-3.8-.8-4.7 3.1 0 0-.9 3.9 2.2 5.1 0 0 2.3.8 4.2-.6 0 0 1.7-1.2 2.2-3.6 0 0 .4-2.3-.7-4 0 0-1.3-2-4.5-2.2 0 0-3.5-.1-10.4 4.5 0 0-5.1 3.4-7.3 5.5l5.7-9.7h-8.5s-8 13.6-22.2 25.3c0 0-13.8 11.3-21.7 11.6 0 0-7.6.6-8.4-5.2 0 0-.4-3.5 1.6-8.4 0 0 4.7.4 10.9-1.6 0 0 5.9-1.9 10.8-5.2 0 0 5.2-3.6 7.1-7.4 0 0 2.2-4.2-.3-7.8 0 0-4.7-4.6-14.9-.3 0 0-10.5 4.4-18.3 14.7l-2 3-.2.3-5.6 6.5-5.7 5.7s-6.9 6.8-10.4 4.8c0 0-1.3-.9-1.3-3 0 0 0-2.1 1.6-4.7l16.2-28.1h-7.3s-4 6.6-8.7 12.8c0 0-9.2 12.2-19.1 19.2 0 0-6.8 5.2-10.6 3.5 0 0-1.7-.8-1.6-2.9 0 0 .1-2.3 2.3-5.6l15.9-27 8.8-.1 1.1-1.1h-8.9l9.5-16.9-8 .1s-5.6 9.5-9.8 15.2c0 0-7.8 10.3-14.3 13.1 0 0 1.1-1.5 1.2-3.7l-.1-1.8s-.4-2.3-2.7-3.5l-2-.6-3.8.3s-4.5 1-8.6 4.6l3.5-5.8h-8s-7.3 13-16.8 24c0 0-12.4 14.3-19.2 12.6 0 0-2-1-2.1-3.5 0 0 0-2.5 2.1-5.9l16.2-27.4-8 .1-2.6 4.5-1.7 3.2s.3-1 0-3.1c0 0-.7-5-5.5-6l-3.8-.3s-9.6-.1-20.5 9.5c0 0-7.5 6.7-13.2 16.9 0 0-11.4 10.6-23.5 13 0 0-10.7 2.2-15.3-2.6 0 0-5-5.1-5-14.1 0 0 .1-10.6 7.7-25 0 0 8-11.8 13-17.2 0 0 12.5-13.7 25.5-17.2 0 0 10.6-2.8 16.5 2 0 0 5 4.1 5.5 12.5l2.9-4.9s3.7-5.8 6.9-9.2c0 0-3 1.3-6.7 1.8 0 0-4.6.6-6.8-.8.2.5-4.8-2.6-12.9-2.7m27.3 39.5c3.3 0 5 1.6 5 1.6 3.9 3.6.8 10.3.8 10.3-6 12.5-14.9 20.1-14.9 20.1l-5.4 3.8c-8.4 4.1-11.9 1.2-11.9 1.2-2.9-2.5-1.7-8-1.7-8 .8-3.8 3.9-9.3 3.9-9.3l6-8.8c5.5-6 11.7-9.2 11.7-9.2 2.7-1.3 4.8-1.7 6.5-1.7m143.7 1h.3s1.8.2 2.6 1.1c0 0 .8 1.1.6 3.4 0 0-.6 5.9-7.1 11.5 0 0-7.5 6.4-16.2 6.1l1.7-3.5s3.8-7.4 9.4-13.1c-.2.1 5.2-5.5 8.7-5.5"/><path d="M233.9 77.9s0 1.5 1.1 2.6c0 0 1 1 2.6 1 0 0 1.5 0 2.5-1 0 0 1-1.1 1-2.6l-1-2.6s-1.1-1-2.5-1c0 0-1.6 0-2.6 1 0 0-1.1 1-1.1 2.6"/></svg>