<svg xmlns="http://www.w3.org/2000/svg" xml:space="preserve" viewBox="0 0 4529 2998.6"><path d="M324 2998.3c-1.9-.2-8.5-.9-14.5-1.5-55.2-5.5-114.2-28.1-160.5-61.5-69.5-50-118.4-122.9-138.9-206.6-10.9-44.5-13-94.3-6.1-140.2 18.6-122.9 99.8-228.2 212.5-275.5 28.1-11.8 56-19.3 88.9-23.8 18.2-2.5 62.6-2.5 81 0 39 5.3 72 15.1 106 31.5 37.4 18.1 63.2 36.7 94.5 68 27.4 27.4 44.3 50.2 63.8 86.2l4.2 7.7-14.8 10.9c-20.3 15-68.1 49.1-83.6 59.7l-12.8 8.7-5.3-11.5c-6.5-14.2-11.2-22.6-18.7-33.8-30.1-44.9-78-77-130.3-87.2-27.7-5.4-61.7-4.8-89 1.6-28.6 6.7-59.7 21.6-83.5 40.2-9.6 7.5-27.2 24.9-35 34.7-41.8 52.4-57.3 119.2-42.9 186 5 23.1 17.8 53.3 31.2 73.3 35.5 53.1 89.9 87 151.6 94.7 10.9 1.3 37.2 1.3 48.1 0 54.6-6.7 105-35.1 139.5-78.5 10.2-12.8 17.2-23.8 25.3-39.5 3.5-6.9 6.7-12.5 7.1-12.5s25.5 17.7 55.9 39.4l55.2 39.4-5.6 10.6c-11.6 22-31.6 49.6-50.2 69.3-31.7 33.7-62.6 56.6-102.7 76.3-34.7 16.9-71.4 27.8-110.5 32.5-8.7 1.1-53.7 2.1-59.9 1.4m472-358.9v-345.5h134v248h350v-248h134v691h-134v-304H930v304H796zm753.3 284.3c14.9-33.7 83.8-189.2 153.1-345.5l126-284.2h188l152.3 341.2c83.8 187.7 153.1 343.2 154.2 345.5l1.9 4.2h-160.5l-31-68.5-31-68.5-179.3.2-179.3.2-30.6 68.2-30.6 68.2h-160.4zm496.5-215.2c-.6-2.4-122.3-274.6-122.8-274.5-.4 0-116 269.8-117.8 275-.2.6 46 .9 120.3.9 102.6 0 120.6-.2 120.3-1.4m387.2-69.1v-345.5h188.4l147.5 207.2 147.5 207.2.3-207.2.3-207.2h135v691l-54.2-.3-54.2-.3-187.1-259.7c-102.9-142.8-187.4-259.7-187.8-259.8-.4 0-.8 117-.8 260v260h-135v-345.4zm863 0v-345.5h483v139h-348v138h322v139h-322v138h398v137h-533zm722 0v-345.5h135v554h376v137h-511zm-2313.5-521.2c-144.2-6.7-304.9-50.5-434.3-118.4-99.4-52.2-178.2-110.6-260.7-193.2-64.6-64.7-112.3-124.4-152.7-191l-17.7-29.1 25.1-13.3c48.9-25.9 271.6-140 273.3-140 1 0 10.2 12.5 20.4 27.8 116.1 173 297.6 285.5 510.1 316.1 37.1 5.4 148.8 4.5 189.3-1.4 45-6.6 99-18.9 133.3-30.3 2.2-.7-2-7.7-11.8-19.2-75.9-89.5-145.2-212.4-184.1-326.8-70.5-206.9-75.5-429-14.4-637.7 37.9-129.6 103.2-255.4 185.9-358.2 12.3-15.3 22.4-28.8 22.4-30 0-4.1-64.5-21.3-106.8-28.4-65.3-11.1-167.6-12.5-226.7-3-99.4 15.8-200.2 53.1-279 102.9-87.8 55.6-161 127.1-219.5 214.2l-25.8 38.5-32.8-17.2c-18.1-9.5-85.2-44.3-149.1-77.3S832.2 542.8 832 542.5c-1-.9 39-64.6 55.5-88.3 50-71.9 138.9-167.2 204.5-219.3 171.7-136.3 362.5-213 577.3-232.2 39.9-3.6 138.7-3.6 177.1-.1 136.4 12.5 253.3 45.6 374.1 105.8l57.7 28.8 19.3-11c31.2-17.8 86.7-43.4 128.9-59.5 118.3-45.2 237.4-66.8 369-66.7 91.9 0 168.5 9.1 251.7 29.6 188 46.5 348.3 135.6 486.4 270.5 74.9 73.1 133.6 147.8 180.9 230.2l7.2 12.5-116.9 60.3c-64.3 33.2-131.5 68-149.4 77.4l-32.6 17.1-24.6-37.1c-121.4-183.1-320-302.4-537.4-322.6-64.4-6-159.9-.5-218 12.6-29.9 6.7-78.4 20.6-78.4 22.4 0 .9 7.9 11.5 17.6 23.4 124.7 152.7 202.5 339 227.6 544.7 6 49.1 6.8 174.5 1.4 223.1-22.7 205.3-100.3 394.8-224.2 547.3-28.1 34.6-26.9 32.2-17.9 35.7 4.3 1.6 24.2 7.2 44.2 12.2 102 25.9 211.9 29.5 315 10.5 187.6-34.6 356.5-145.6 465.2-305.5 10.1-14.9 19.2-28 20.3-29.3 1-1.2 26.1 9.9 55.7 24.7 58.6 29.4 242 124.3 244 126.3 3.3 3.3-55.2 90.1-91.1 135.2-33.9 42.7-122.9 131.6-165.4 165.3-153.6 121.8-326.1 196.2-516 222.8-218.1 30.5-449-10.4-636.9-112.7l-26.6-14.5-32.9 17.4c-163 86.3-350.2 127.4-539.8 118.7m609.2-599.8c90.9-112.6 147.7-249.1 161.7-389.1 4.7-47 1.9-142.6-5.4-185.4-20.1-117.7-63.2-218.5-132.6-310.7-13.1-17.4-32.1-40.6-42.3-51.6l-18.5-20-17.2 18.7c-22.7 24.6-60.5 74.7-79.5 105.5-96.7 156.4-128.3 348.4-87.3 531.3 25.8 115 85 230.9 164.8 322.5l18.4 21.1 8-7.6c4.4-4.3 17.9-19.9 29.9-34.7"/></svg>