<svg xmlns="http://www.w3.org/2000/svg" xml:space="preserve" viewBox="0 0 72 72"><path d="M62.8 27.3c.2-.1.4-.3.5-.4 5.1 15.1-3 31.4-18.1 36.5-1.6.5-3.3.9-5 1.2 5.1-4.8 8.8-13.1 9.3-21.7.5-8.8-3.4-14.4-10.6-15.2-11-1.2-22.4 9.8-27.3 23.8C3.2 38 7.2 20.2 20.7 11.8c4.6-2.9 9.9-4.4 15.3-4.4 1.6 0 3.3.1 4.9.4-2.1 1.4-3.6 3.7-3.9 6.3-1.1 5 .4 10.2 3.6 10.9 3.1.7 6.7-3.5 7.7-8.4.6-2.2.4-4.6-.6-6.7 2.8 1.3 5.4 3 7.7 5.1-.4.3-.9.6-1.3.9-5.2 3.9-8.2 10.1-5.8 13.3 2.4 3.1 9.3 2 14.5-1.9m-37.2 1.3c1.2-1.4.1-4.3-2.1-6.2s-4.5-1.9-5.7-.5-.8 3.7 1.4 5.6 5.2 2.6 6.4 1.1m7-3.3c2.3-1.1 2.6-5.5.9-9.3s-4.7-5.2-7-4.1-3.2 4.3-1.4 8 5.2 6.5 7.5 5.4m17.6 24.9c6.5-4.5 9.6-3.3 9.6-4.9 0-1.8-5-5.3-8.5-5.6v3c-.2 2.5-.5 5-1.1 7.5m-27.6 8c-.1 1.2 0 2.3.2 3.5-2.7-1.4-5.1-3.2-7.2-5.3C19 43.5 28.8 31 38.3 31.9c4 .4 6.7 3.9 6.3 11.4-.5 8.8-6.8 21.5-13.5 21.2-3.1-.2-4.1-3.3-3.8-6.1.5-6 3.6-7.7 3.8-10.1 0-1-.7-1.8-1.7-1.8-.2 0-.5 0-.7.1-2 .5-5.7 5.1-6.1 11.6m17.6-20.1c-1.9.1-4 3.5-3.2 5.3 1.5 2.4 4.7-.7 4.7-3.3.1-.6.1-2-1.5-2M59 60.5h.6l.6 1.4.6-1.4h.6V63h-.6v-1.2l-.4 1H60l-.4-1V63H59zm-2.3 0h1.9v.5H58v1.9h-.6V61h-.6z"/></svg>