<svg xmlns="http://www.w3.org/2000/svg" xml:space="preserve" viewBox="0 0 360 180"><path d="m296 69 11.4 20.7 4.8-20.7 11.8-.5-10.1 43h-18.4l-10.6-19.7-4.6 19.7H266l10.1-43zm-30.5-.5-10.5 43h-17l10.5-43zm-57.8 0-4 15.6L220 68.5h18.3l-20.7 19.9 12 23.1h-18.2l-10-17.2-4.7 17.2h-17.8l11-43zm-27.6 0-10.7 43h-17.5l10.7-43zm-58.6 16.9-7.7 10.2h10.3zM118 68.5h19.5l7.9 42.9h-17.7l-1.1-6.2h-16.9l-4.3 6.2H90.9zM63.8 79.1l-6.1 22.4h2.6c3.5 0 6.6-.9 9.2-2.6 2.3-1.5 5.1-7.1 5.6-9.4.7-2.3.7-6.2-.8-7.8-1.6-1.6-4.2-2.5-7.9-2.5zm5.8-10.6c9.8 0 16.9 2.2 21.4 6.4 4 3.9 5.3 8.7 3.7 14.5-1.6 5.9-4.6 12.1-10.9 16.4-7 4.6-16.3 5.7-25.9 5.7H36l11.8-43z"/></svg>