<svg xmlns="http://www.w3.org/2000/svg" xml:space="preserve" viewBox="0 0 300 300"><path d="M150.01 17.103c-36.686 0-69.891 14.885-93.982 38.976-24.045 23.999-38.93 57.25-38.93 93.98 0 36.686 14.885 69.89 38.93 93.936 24.045 24.044 57.296 38.93 93.981 38.93 36.686 0 69.936-14.931 93.935-38.93 24.045-24.045 38.884-57.25 38.884-93.935s-14.839-69.937-38.884-93.981c-23.999-24.091-57.25-38.976-93.935-38.976m0-16.121c82.302 0 148.986 66.73 148.986 149.032C298.995 232.27 232.265 299 150.01 299S1.023 232.27 1.023 150.014C1.023 67.712 67.753.982 150.009.982"/><path d="M79.539 148.804c0-8.702-5.771-13.602-13.923-13.602h-4.993v27.25h4.855c7.603 0 14.06-4.121 14.06-13.648m88.806 9.801-36.777 28.946-33.617-26.473c-4.855 11.68-16.58 19.786-30.09 19.786H39.098v-64.12H67.86c15.114 0 25.968 9.618 30.09 19.832l33.617-26.427 12.458 9.801-30.824 24.228 5.909 4.626 30.823-24.182 12.457 9.755-30.823 24.228 5.908 4.626 30.823-24.274v-22.213h22.35v45.388h22.305v18.778h-44.655c.046 0 .046-22.305.046-22.305m72.959 3.527h22.304v18.778h-44.654v-64.166h22.396v45.388z"/></svg>