<svg xmlns="http://www.w3.org/2000/svg" xml:space="preserve" viewBox="0 0 72 72"><path d="M36 7.2C20.1 7.2 7.2 20.1 7.2 36S20.1 64.8 36 64.8 64.8 51.9 64.8 36 51.9 7.2 36 7.2m14.9 9.4.4-1.5.2.1c.7.5 1.4 1.1 2.1 1.7l.1.1v.2c-.2.7-1 1.1-1.7.9-.8-.1-1.2-.8-1.1-1.5m-6.4 2.6c.2-.7 1-1.2 1.7-1s1.1.9 1 1.7l-1.5 5.5-.1-.1c-.7-.5-1.5-1-2.2-1.4l-.2.1zm-5-6.1.7-2.6h.2c.8.1 1.6.3 2.3.5h.2l-.7 2.7c-.2.7-1 1.1-1.7.9-.7-.1-1.2-.9-1-1.5M29 17.3l1.8-6.7h.2c.9-.2 1.8-.3 2.7-.4v.6l-2 7.2c-.2.7-1 1.1-1.7.9s-1.1-.9-1-1.6M12.7 32.5c-.2.7-1 1.1-1.7.9-.3-.1-.5-.2-.7-.4.4-3.3 1.4-6.4 2.9-9.3l.1-.1h.3c.7.2 1.2.9 1 1.7zm5.8 3.8-1.9 7.2c-.2.7-1 1.1-1.7.9s-1.2-.9-1-1.6l1.9-7.1c.2-.7 1-1.1 1.7-.9.7 0 1.1.8 1 1.5m.5-9.6c-.7-.2-1.2-.9-1-1.6l1.9-7.1c.2-.7 1-1.1 1.7-.9s1.2.9 1 1.6l-1.9 7.1c-.2.7-1 1.1-1.7.9m3.7 24.2c-.2.7-1 1.2-1.7 1s-1.2-.9-1-1.6l1.9-7.1.1-.2c.7.6 1.5 1.1 2.3 1.6l.1.1zm5.8 4.3-1.4 5.2-.1-.2c-.8-.3-1.5-.6-2.2-1l-.2-.1 1.3-4.7c.2-.7.9-1.1 1.7-1 .6.3 1.1 1.1.9 1.8m7.9-3.6v.2l-1.9 7.1c-.2.7-1 1.1-1.7.9s-1.1-.9-1-1.6l1.9-7.1c.2-.7 1-1.2 1.7-.9.4.1.7.3.9.7v.2l.1.3zm18.7 1.9c-4 4.3-9.4 7.3-15.5 8.2h-.2v-.4l-.1-.7-.1-.6-.1-.7-.1-.9v-.3l-.1-.8-.1-.5-.1-.6-.1-.6-.2-.6-.1-.6-.1-.6-.1-.5-.1-.5-.1-.4V52l-.1-.7-.1-.3-.1-.4-.1-.3v-.8l-.1-.3-.1-.5v-2.2c0-.1-.1-.3-.2-.4v-.2l.2-.7H36c-9.3.2-15.3-3.8-15.3-9.9 0-6.5 6.5-11.8 14.9-11.8 4 0 7.5 1.1 10.2 3.2 2.3 1.8 4 4.3 4.9 7v.4l.1.3.2.6.2.7.9 3.1.8 3.1.9 3.5 1.5 5.7.6 2.1zm1.4-28.2-1.9 7.2c-.2.7-1 1.1-1.7.9s-1.2-.9-1-1.6l1.9-7.1c.2-.7 1-1.1 1.7-.9.7 0 1.2.7 1 1.5m4.9 9.4-1.9 7.1c-.2.7-1 1.2-1.7 1s-1.2-1-1-1.7l1.9-7.1c.2-.7 1-1.1 1.7-.9.7.1 1.1.9 1 1.6"/><circle cx="36.7" cy="30" r="1.8"/></svg>