<svg xmlns="http://www.w3.org/2000/svg" xml:space="preserve" viewBox="0 0 256 256"><path d="M128 206.55V256c83.81 0 149.07-80.97 121.65-168.79-11.98-38.38-42.48-68.88-80.86-80.86C80.97-21.07 0 44.19 0 128h49.56c.01 0 .01-.01.01-.01.01-52.6 52.06-93.26 107.36-73.2 20.49 7.43 36.83 23.77 44.27 44.26 20.07 55.27-20.53 107.3-73.09 107.37v-49.29H78.7l-.01.01v49.41zm-49.32 37.98H40.72l-.01-.01v-37.97h37.98zc.01-.01 0 0 0 0m-37.95-37.98H8.91c-.01 0-.02-.01-.02-.01v-31.81s.01-.02.02-.02h31.8c.01 0 .02.01.02.01z"/></svg>