<svg xmlns="http://www.w3.org/2000/svg" xml:space="preserve" viewBox="0 0 281.17 214.87"><path d="M65.4 75.69v2.1h6.65v45.09h-7.18v8.4h149.57v-8.4h-6.82l-.23-45.09h7.06v-2.33H195.9l-10.79 32.61-10.38-32.61-19.37.06v2.28h6.83l-.19 45.08h-7.06v2.04h16.8v-2.04h-7.12c0-2.22.12-38.85.18-43.05l14.76 45.09h2.16c.47-1.11.7-1.92 1.75-5.48l13.18-39.08.17 42.53h-7.18v2.04h22.75v4.2H67.03v-4.32c6.88-.06 14.23-.06 21.23-.06 5.19 0 10.44.06 15.63.17 2.28 0 2.04-.47 2.22-2.57.23-2.45 1.17-12.02.93-13.3l-2.22-.06c-.64 5.83-1.52 9.51-5.78 11.61-4.08 1.98-10.91 1.46-15.87 1.46l-.23-21.99c8.28 0 9.74.64 10.32 8.87h2.22c-.23-7.76-.06-11.9.18-20.01h-2.1c-1.11 8.05-2.1 8.87-10.62 8.98l.12-18.61c0-1.52.41-1.22 1.81-1.22 9.27.17 16.63-.64 17.68 11.2l2.04-.29-.52-13.59z"/><path d="M148.35 121.89c.7.52 1.34 1.63 2.04 2.33.7 0 1.11-.23 1.75-.47-.06-5.95-.06-11.32.29-17.33h-2.16c-.93 5.78-1.11 8.58-4.2 12.48-5.66 7.23-23.74 8.05-23.92-17.68-.12-9.98 2.28-20.83 9.86-23.51 4.78-1.69 10.03 0 12.72 2.62 3.03 2.92 4.03 6.94 4.32 12.54l1.98-.12.52-16.57-1.69-.35-1.63 2.92c-2.22-.82-4.67-4.02-12.95-4.2-5.48-.12-9.98 1.11-13.77 3.5-6.24 3.97-11.78 11.38-11.9 22.34-.18 15.69 10.03 25.73 25.67 25.55 2.63-.06 5.13-.53 7.29-1.28 2.28-.79 5.14-2.6 5.78-2.77m-66.77 25.25-.78-7.31-3.46 7.31h-.6l-3.63-7.31-.64 7.31h-1.14l.99-9.65h1.81l3.37 6.79 3.22-6.79h1.77l1.07 9.65zm13.19 0-1.12-3.23-3.61.05-1.16 3.19h-1.24l3.8-9.52 1.89-.33 3.54 9.84zm-1.43-4.15-1.44-4.15-1.52 4.15zm15.85 4.19-6.77-6.72h-.03c.01.56.02 1.08.04 1.55.01.2.01.4.02.6 0 .2.01.39.01.56s.01.32.01.45v3.51h-1.15v-9.65h.86l6.78 6.7h.01l-.03-1.45c0-.19 0-.39-.01-.59 0-.2-.01-.38-.01-.56v-4.04h1.15v9.63h-.88zm14.6-3.42c0 .48-.09.93-.28 1.36s-.46.8-.83 1.12c-.36.32-.82.57-1.36.76s-1.17.28-1.89.28c-.59 0-1.13-.06-1.61-.18s-.89-.31-1.22-.58c-.34-.27-.6-.61-.78-1.05-.18-.43-.28-.96-.28-1.58v-6.35h1.96v6.54c0 .48.04.86.13 1.15.09.28.22.5.39.65s.39.25.64.29c.26.04.55.07.89.07.41 0 .77-.04 1.07-.12s.55-.2.75-.33c.2-.14.33-.36.38-.66s.08-.66.08-1.08v-6.5h1.96zm7.45 3.38h-1.95v-9.6h5.66l-.09.97-3.62.05v3.42l3.5.03-.1.89-3.4.07zm14.11 0-1.12-3.23-3.61.05-1.16 3.19h-1.24l3.8-9.52 1.89-.33 3.54 9.84zm-1.43-4.15-1.44-4.15-1.52 4.15zm11.52 4.28q-1.125 0-1.92-.36t-1.29-1.02c-.33-.44-.57-.97-.72-1.58s-.22-1.3-.22-2.04c0-.61.07-1.15.22-1.62.15-.48.35-.89.59-1.25.25-.36.54-.67.88-.91.33-.25.68-.45 1.06-.61.37-.16.75-.27 1.14-.34s.76-.1 1.13-.1c.22 0 .46.01.72.02l.74.06a11 11 0 0 1 1.18.17l-.37 1.36c-.13-.04-.32-.08-.56-.13s-.5-.09-.77-.13-.55-.07-.81-.1a6 6 0 0 0-1.19-.02c-.15.01-.29.04-.41.06-.13.03-.25.07-.36.13-.12.05-.23.12-.35.21-.3.2-.5.58-.6 1.15-.11.57-.16 1.27-.16 2.11 0 1.28.2 2.25.6 2.92s1.05 1 1.94 1q.375 0 .78-.03a10 10 0 0 0 1.58-.22c.26-.05.5-.12.72-.19v.79c-.25.11-.52.21-.81.29q-.435.135-.9.21c-.31.06-.61.11-.92.13-.33.03-.63.04-.92.04m10.45-.13v-8.58l-2.96-.05.1-.97h7.77l-.09.95-2.86.07v8.58zm17.66-3.38c0 .48-.09.93-.28 1.36s-.46.8-.83 1.12c-.36.32-.82.57-1.36.76s-1.17.28-1.89.28c-.59 0-1.13-.06-1.61-.18s-.89-.31-1.22-.58c-.34-.27-.6-.61-.78-1.05-.18-.43-.28-.96-.28-1.58v-6.35h1.96v6.54c0 .48.04.86.13 1.15.09.28.22.5.39.65s.39.25.64.29c.26.04.55.07.89.07.41 0 .77-.04 1.07-.12s.55-.2.75-.33c.2-.14.33-.36.38-.66s.08-.66.08-1.08v-6.5h1.96zm8.12-.57h-.66v3.95h-1.96v-9.57c.2-.01.4-.03.63-.04l.7-.03c.24-.01.49-.02.73-.02.25-.01.48-.01.71-.01 1.16 0 2.04.21 2.64.64s.9 1.08.9 1.98q0 .6-.15 1.05c-.11.3-.24.56-.41.78s-.36.41-.58.56-.45.27-.68.38l.82 1.39c.26.43.51.82.77 1.14.26.33.52.59.79.77.27.19.56.28.86.28h.07v.62c-.16.05-.33.09-.53.12s-.43.05-.67.05-.45-.01-.65-.04c-.2-.02-.38-.07-.55-.14s-.34-.18-.51-.31q-.255-.21-.51-.54c-.17-.22-.36-.5-.56-.83q-.3-.495-.66-1.17zm-.32-.95c.27 0 .54-.03.79-.1.25-.06.45-.15.59-.25.07-.05.15-.11.22-.18s.14-.17.2-.3.11-.29.14-.48c.04-.19.05-.44.05-.73 0-.32-.04-.6-.12-.82s-.19-.41-.35-.54c-.15-.13-.34-.23-.57-.29-.22-.06-.49-.09-.79-.09-.07 0-.15 0-.25.01q-.15.015-.27.03v3.74zm15.55 4.9h-5.78v-9.6h5.56l-.09.97-3.52.05v3.13l3.32.04-.09.88-3.23.08v3.43l3.92.07z"/><path d="M139.66 9.04c36.22 0 69.03 10.89 92.79 28.49 23.92 17.72 38.72 42.26 38.72 69.43s-14.8 51.71-38.72 69.43c-23.76 17.6-56.57 28.49-92.79 28.49s-69.03-10.89-92.79-28.49c-23.92-17.72-38.72-42.26-38.72-69.43s14.8-51.71 38.72-69.43c23.76-17.61 56.57-28.49 92.79-28.49m91.88 30.57c-23.5-17.4-55.98-28.17-91.88-28.17S71.28 22.2 47.78 39.61C24.44 56.9 10 80.71 10 106.95S24.44 157 47.78 174.29c23.5 17.4 55.98 28.17 91.88 28.17s68.38-10.76 91.88-28.17c23.34-17.29 37.78-41.1 37.78-67.34-.01-26.24-14.44-50.05-37.78-67.34"/><path d="M89.17 34.34q.3.885.66 1.56c.25.45.53.81.85 1.09s.69.45 1.09.53c.41.07.87.02 1.39-.15.53-.18.96-.37 1.27-.57.32-.21.57-.43.76-.66.08-.11.13-.28.15-.52.01-.24-.01-.53-.05-.85-.05-.32-.12-.68-.22-1.07s-.21-.79-.35-1.19c-.2-.6-.43-1.12-.7-1.55-.27-.44-.57-.79-.91-1.04a2.4 2.4 0 0 0-1.13-.47c-.42-.05-.87 0-1.38.16q-.645.21-1.17.54c-.34.21-.6.44-.76.68s-.2.65-.12 1.24c.11.55.31 1.32.62 2.27M52.8 53.65c.03-.09.05-.2.06-.31s0-.24-.04-.39-.11-.31-.21-.5c-.1-.18-.25-.4-.46-.64-.22-.27-.44-.47-.66-.61-.22-.13-.44-.21-.66-.22-.22 0-.44.04-.67.15a3.3 3.3 0 0 0-.92.64q-.12.105-.21.21l2.56 3.13.28-.23c.23-.19.43-.4.59-.63.18-.21.29-.42.34-.6m143.35-21.06-3.08 3.63 3 1.1zm-77.45-3.45c.16.49.37.9.64 1.23s.59.57.98.72.85.19 1.39.11c.55-.07 1.01-.18 1.36-.33s.64-.31.87-.51q.15-.135.24-.48c.06-.24.09-.52.11-.85a13.5 13.5 0 0 0-.13-2.32c-.08-.63-.22-1.18-.39-1.66-.18-.48-.41-.88-.7-1.19s-.63-.54-1.03-.68c-.4-.13-.86-.16-1.38-.1-.45.06-.87.16-1.25.31s-.67.32-.87.52-.32.6-.35 1.19.03 1.38.16 2.37c.07.63.19 1.18.35 1.67m-14.55 151.78c-.14-.17-.32-.31-.55-.43s-.5-.21-.81-.29l-.27-.06a1 1 0 0 0-.24-.03l-.81 3.25.68.17c.23.06.47.1.72.11q.375.03.6-.03c.06-.02.14-.05.22-.1s.15-.12.23-.21c.07-.1.15-.23.22-.39s.14-.36.2-.6c.07-.3.09-.57.06-.79-.03-.23-.11-.43-.25-.6m107.13-8.99 2.76-1.6-3.58-3.09zm-25.42 6.74a1.4 1.4 0 0 0-.52-.46c-.2-.09-.42-.14-.67-.13-.25 0-.53.05-.84.14-.07.02-.16.05-.26.09s-.19.07-.27.11l1.13 3.88.35-.1c.28-.08.55-.2.79-.34s.42-.29.54-.43c.06-.08.12-.16.18-.26.05-.1.09-.22.12-.37q.03-.225 0-.54c-.02-.21-.08-.47-.17-.77-.11-.34-.23-.61-.38-.82"/><path d="M139.66 14.21c-69.93 0-126.62 41.52-126.62 92.74s56.69 92.74 126.62 92.74 126.62-41.52 126.62-92.74c-.01-51.22-56.69-92.74-126.62-92.74M248.49 70.9l-.92.51-2.19-3.1-2.78 1.91 1.99 2.98-.84.46-2.04-2.83-3.06 2.1 2.33 3.53-.9.49-3.53-5.14 8.54-5.86zM235.32 55l-.12 10.28.01.01q.585-.6 1.11-1.11c.15-.14.3-.29.45-.44l.43-.43c.14-.14.26-.26.38-.37s.21-.2.28-.27l2.47-2.39.86.89-7.48 7.22-.66-.68.14-10.29-.02-.02c-.43.43-.82.83-1.18 1.19-.15.16-.3.31-.46.47l-.43.43-.34.34-.21.21-2.51 2.42-.86-.89 7.5-7.24zm-4.77-4.06-6.82 7.79-1.59-1.39 6.82-7.79zm-11.97-8.65-2.49 3.79 3.91 2.57 2.49-3.79 1.77 1.16-5.69 8.66-1.77-1.16 2.56-3.89-3.91-2.57-2.56 3.9-1.77-1.16 5.69-8.66zm-16.49-.82c.16-.66.44-1.35.81-2.07.3-.58.65-1.06 1.02-1.44q.57-.57 1.2-.9c.42-.22.85-.36 1.3-.43.44-.07.88-.09 1.31-.05.43.03.85.12 1.26.24.4.13.78.28 1.13.47.21.11.44.24.67.38a20 20 0 0 1 1.27.83c.18.13.33.25.44.34l-1.03 1.12c-.11-.1-.26-.23-.47-.4-.2-.17-.43-.34-.67-.52-.24-.17-.49-.34-.73-.5s-.45-.29-.62-.38q-.285-.15-.51-.24c-.15-.06-.29-.11-.43-.15-.14-.03-.27-.05-.41-.06s-.29 0-.44.03c-.39.04-.77.31-1.15.79-.38.49-.79 1.14-1.21 1.94-.64 1.23-.94 2.26-.89 3.1s.5 1.48 1.36 1.93c.24.13.49.25.76.36.26.12.54.23.81.32.27.1.54.19.81.26q.405.12.78.18l-.4.76c-.29-.02-.6-.06-.92-.13-.32-.06-.64-.15-.96-.24-.32-.1-.64-.21-.95-.33s-.6-.26-.88-.4c-.72-.38-1.27-.81-1.65-1.31-.38-.49-.62-1.04-.72-1.62-.09-.6-.06-1.22.11-1.88m-5.95-10.3 2.04.37-.07 11.29-2.13-.78.07-3.69-3.68-1.29-2.36 2.8-1.25-.46zm-18.92-6.12 1.88.53 1.5 8.05 5.34-6.11 1.84.52-1.73 10.34-2.05-.57 1.34-7.82-5.74 6.58-.62-.18-1.62-8.66-2.82 7.4-1.18-.33zm-14.74-2.68 5.92 1.04-.28 1.01-3.75-.6-.58 3.33 3.52.66-.26.92-3.44-.52-.64 3.65 4.15.81-.27.99-6.14-1.08zm-10.87-1.04 5.98.55-.19 1.03-3.78-.29-.31 3.36 3.56.37-.19.94-3.48-.24-.34 3.69 4.2.46-.19 1.01-6.21-.57zm-10.46-.37 6.11.12-.11 1.04-3.91-.03-.08 3.69 3.77.12-.12.95h-3.67l-.09 4.49-2.11-.04zm-3.93-.01-.08 1.05-3.91.09.03 3.69 3.77.01-.09.96-3.67.11.04 4.49-2.11.02-.1-10.36zm-21.05 4.61c.11-.67.34-1.25.69-1.76s.82-.92 1.42-1.25c.6-.32 1.34-.54 2.21-.66q1.29-.165 2.31.06c.68.16 1.26.43 1.75.83.49.39.89.9 1.19 1.51s.51 1.32.61 2.12c.11.81.1 1.57-.03 2.25q-.195 1.035-.75 1.8c-.37.52-.87.94-1.48 1.28-.62.33-1.35.56-2.22.67-.88.12-1.65.09-2.31-.08s-1.23-.46-1.7-.87-.84-.93-1.12-1.55c-.27-.63-.47-1.34-.57-2.14-.11-.8-.11-1.54 0-2.21m-12.1 2.62c.05-.54.17-1.02.36-1.46.19-.43.43-.82.73-1.16s.63-.63.98-.87c.35-.25.73-.45 1.13-.61a6.5 6.5 0 0 1 1.17-.35c.24-.05.49-.09.76-.13s.54-.07.79-.1q.39-.045.72-.06c.22-.01.41-.02.55-.01l-.09 1.52c-.15-.01-.35-.02-.62-.01-.26 0-.55.01-.85.03s-.59.04-.88.07-.53.06-.72.1c-.21.04-.39.09-.55.13-.16.05-.3.1-.42.16-.13.06-.24.13-.36.22q-.165.12-.33.3-.405.42-.39 1.35c.01.62.11 1.38.29 2.26.28 1.36.7 2.34 1.27 2.96s1.33.83 2.27.63c.27-.05.54-.12.82-.2s.56-.16.83-.26c.27-.09.54-.2.79-.31q.39-.165.72-.36l.17.84c-.24.17-.51.33-.79.48q-.435.225-.9.42c-.31.13-.63.25-.94.34-.32.1-.63.18-.93.25-.79.16-1.49.17-2.1.04-.61-.14-1.14-.41-1.58-.8-.44-.4-.81-.9-1.1-1.51-.29-.62-.52-1.32-.68-2.11-.14-.67-.18-1.26-.12-1.79M87.03 31c.25-.56.64-1.06 1.16-1.49.53-.43 1.21-.78 2.05-1.06.83-.27 1.59-.4 2.28-.37s1.32.19 1.87.49c.56.29 1.04.72 1.45 1.26.41.55.74 1.21 1 1.97.26.78.39 1.52.39 2.21 0 .7-.14 1.34-.4 1.91-.27.58-.68 1.09-1.22 1.53s-1.23.8-2.05 1.07c-.84.28-1.61.4-2.29.35q-1.02-.06-1.83-.54c-.54-.32-1-.76-1.39-1.32s-.71-1.23-.96-2-.39-1.49-.4-2.17c-.02-.66.09-1.28.34-1.84m-10.47 3.65c.19-.38.47-.73.82-1.07.36-.34.82-.62 1.37-.85.44-.18.88-.33 1.3-.45s.83-.22 1.24-.31l.27 1.54c-.2.01-.43.04-.67.07-.25.04-.49.08-.74.13s-.48.11-.71.18-.43.13-.6.2c-.18.07-.37.16-.55.26-.19.1-.33.21-.43.33s-.14.28-.13.47.07.4.16.64c.1.24.25.42.45.53s.43.18.7.21.56.04.89.03c.32-.01.65-.02.99-.02s.68.01 1.02.05c.34.03.67.12.98.25.31.14.59.33.85.59s.48.61.66 1.06c.14.35.19.73.16 1.16-.04.42-.16.84-.38 1.26-.21.41-.52.8-.91 1.16s-.88.66-1.45.89c-.31.13-.6.23-.88.3-.27.08-.54.13-.79.16-.26.03-.51.04-.75.05q-.375 0-.75-.03l-.09-1.62c.18.04.4.06.67.07s.57 0 .87-.02.6-.06.9-.11.56-.12.79-.21c.52-.21.89-.42 1.1-.64.12-.12.18-.31.18-.56 0-.26-.07-.56-.21-.92q-.15-.375-.45-.54c-.2-.11-.44-.19-.71-.22-.27-.04-.57-.05-.89-.03l-.99.03c-.34.01-.67-.01-1.02-.04a3.1 3.1 0 0 1-.97-.24c-.31-.13-.59-.31-.85-.56s-.47-.59-.65-1.02a2.2 2.2 0 0 1-.13-.99c.03-.42.14-.8.33-1.17m-9.69 4.87c.16-.39.4-.77.72-1.15.33-.37.76-.7 1.28-.97.42-.22.84-.41 1.25-.57s.81-.3 1.21-.42l.41 1.51a10 10 0 0 0-1.38.33q-.36.12-.69.24c-.22.09-.41.17-.58.25-.17.09-.35.19-.53.31s-.31.24-.4.37q-.12.195-.09.48c.03.19.1.39.22.62s.29.4.49.48c.21.09.45.14.72.14.27.01.56-.01.88-.06q.48-.06.99-.12c.34-.04.68-.05 1.02-.05s.67.06.99.16q.48.165.9.51c.28.23.54.56.76.99.17.33.26.71.26 1.14 0 .42-.08.85-.26 1.28-.17.43-.44.85-.8 1.24-.36.4-.81.74-1.36 1.02-.3.16-.58.28-.85.38-.26.1-.52.18-.77.23q-.375.075-.75.12c-.24.02-.5.04-.75.04l-.24-1.6c.18.02.4.02.68 0 .27-.02.56-.05.86-.1s.59-.11.88-.19.55-.18.77-.29c.5-.26.84-.5 1.04-.74.11-.13.15-.32.13-.58-.02-.25-.12-.55-.29-.89-.12-.24-.29-.41-.5-.5s-.45-.15-.73-.16c-.27-.01-.57.01-.89.05l-.98.12a9 9 0 0 1-1.02.05 3.3 3.3 0 0 1-.99-.15c-.32-.1-.61-.26-.89-.48s-.52-.54-.74-.96c-.14-.27-.21-.59-.22-.97.02-.34.09-.72.24-1.11m-4.83 1.92.46.94-3.21 2.03 1.76 2.88 3.08-1.84.41.87-2.93 1.89 1.94 3.16 3.64-2.14.45.92-5.32 3.26-5.41-8.83zM47.27 52.09c.18-.16.37-.33.56-.51.2-.17.4-.35.6-.52s.4-.34.58-.49c.97-.79 1.85-1.22 2.64-1.27s1.49.29 2.11 1.04c.27.33.47.66.59.98s.18.63.19.93-.02.59-.1.86-.19.54-.31.79c.57.21 1.12.41 1.63.6s.99.33 1.42.43c.44.1.83.13 1.19.11.35-.03.66-.14.91-.35l.06-.05.42.52c-.1.15-.22.3-.36.47-.14.16-.32.33-.53.5-.2.16-.39.3-.57.41-.18.12-.37.2-.56.26s-.4.08-.64.08c-.23 0-.5-.04-.8-.1-.3-.07-.64-.17-1.03-.31s-.84-.31-1.35-.53l-1.14-.48-.55.45 2.7 3.3-1.64 1.34-6.54-7.99c.17-.15.34-.31.52-.47m-8.44 8.29c.17-.2.35-.4.54-.61.18-.21.37-.41.56-.62s.37-.4.56-.59c.44-.45.87-.8 1.3-1.04.42-.24.84-.38 1.23-.43.4-.05.78 0 1.15.15s.71.38 1.04.69c.35.33.61.7.8 1.11s.28.85.27 1.31-.14.95-.37 1.46c-.24.51-.61 1.03-1.12 1.55l-.06.06-.68-.46.16-.25c.15-.24.27-.48.37-.72s.15-.48.14-.74c-.01-.25-.09-.52-.23-.8s-.39-.58-.72-.91c-.25-.24-.5-.42-.74-.53a1.5 1.5 0 0 0-1.35-.02c-.21.1-.4.25-.59.44-.18.19-.36.41-.53.64l6.71 6.47-1.47 1.52-7.42-7.16c.12-.14.28-.32.45-.52m-6.59 8.63c.11-.49.34-.97.67-1.46.27-.39.55-.76.83-1.09s.57-.65.87-.94l1.08 1.13c-.16.12-.34.27-.52.43-.19.17-.36.34-.54.52-.17.18-.34.36-.5.54s-.28.35-.39.5c-.11.16-.22.34-.32.52q-.15.285-.18.51c-.01.15.04.31.15.46s.28.3.49.44c.22.15.44.21.66.19.23-.02.46-.09.7-.21s.49-.28.75-.47q.39-.285.81-.57c.28-.19.57-.37.88-.53.3-.16.62-.27.95-.33s.68-.05 1.04.02.74.24 1.13.51c.31.21.57.51.77.88s.33.79.38 1.26c.05.46.01.95-.11 1.47-.13.52-.37 1.03-.72 1.54-.19.28-.38.52-.57.73-.18.21-.38.4-.57.57-.2.17-.4.32-.6.46s-.42.27-.64.39l-.97-1.29c.17-.07.37-.17.6-.32s.47-.31.71-.49.47-.38.69-.59.4-.42.54-.61c.32-.46.5-.84.56-1.15.03-.17-.02-.36-.16-.57-.14-.22-.37-.43-.68-.65-.22-.15-.45-.22-.68-.2s-.47.08-.71.2-.5.27-.76.46q-.39.285-.81.57c-.28.19-.57.36-.87.52s-.62.28-.94.34c-.33.07-.66.06-1.02 0s-.72-.23-1.1-.49c-.25-.17-.47-.42-.65-.75-.19-.33-.3-.7-.35-1.12-.04-.4-.01-.85.1-1.33m-6.6 10.84 2.85-5.29.87.58-1.75 3.37 2.97 1.6 1.74-3.14.79.54-1.58 3.11 3.26 1.76 2.07-3.68.85.57-2.96 5.49zm17.94 80.01 3.35-3.24-3.26-3.36-3.35 3.24-1.47-1.52 7.44-7.21 1.47 1.52-3.26 3.16 3.26 3.36 3.26-3.16 1.47 1.52-7.44 7.21zm13.13 4.42-2.82-2.05-2.25 2.95 3.31 2.63-.7.75-4.96-3.78 6.28-8.24 4.78 3.64-.71.77-3.05-2.26-2.05 2.69 2.82 2.21zm1.53 6.95 5.59-8.72 1.78 1.14-5.59 8.72zm17.87 1.18c-.05.68-.27 1.4-.68 2.18-.4.76-.85 1.39-1.36 1.91s-1.09.89-1.73 1.11-1.35.29-2.12.19-1.62-.39-2.54-.87c-.26-.13-.52-.28-.8-.44s-.55-.31-.82-.47-.52-.31-.76-.46-.45-.29-.63-.4l4.71-9.02c.21.08.45.17.72.29s.56.24.86.38l.9.42c.3.15.58.29.85.43a9 9 0 0 1 1.91 1.3c.53.48.92 1 1.18 1.58.25.58.36 1.2.31 1.87m10.53 2.94-3.51-1.44-1.32 3.11 3.28 1.44-.47.84-3.24-1.29-1.45 3.41 3.86 1.73-.49.9-5.74-2.45 4.06-9.53 5.53 2.36zm6.83 12.11-5.63-1.87 3.27-9.83 2.01.67-2.92 8.79 3.72 1.24zm13.02-4.87c-.08.34-.21.63-.37.86-.16.24-.35.43-.57.58-.21.15-.45.26-.7.32-.25.07-.51.1-.76.09l-.01.03c.38.18.7.4.95.64s.44.5.57.77.2.57.21.88-.02.62-.1.94c-.11.45-.28.82-.52 1.13s-.54.55-.91.72q-.555.255-1.32.27c-.51.01-1.1-.07-1.75-.23-.21-.05-.46-.12-.75-.2-.28-.08-.57-.16-.86-.25-.3-.09-.59-.17-.87-.27-.28-.09-.53-.18-.74-.25l2.47-9.94c.21.03.43.07.68.11.24.04.49.09.74.14s.51.11.76.16c.25.06.5.11.72.17.56.14 1.05.31 1.49.52.44.2.79.44 1.07.72a2.07 2.07 0 0 1 .57 2.09m10.58.53-3.75-.59-.57 3.33 3.53.64-.26.93-3.45-.51-.63 3.65 4.15.79-.27.99-6.15-1.05 1.75-10.21 5.92 1.01zm11.9 10.52c-.17.04-.37.06-.59.08-.22.01-.46.01-.73-.02-.25-.02-.49-.06-.69-.11-.21-.04-.4-.12-.58-.21q-.27-.135-.51-.39c-.16-.16-.33-.37-.5-.64-.16-.26-.34-.57-.52-.94s-.38-.82-.59-1.33l-.47-1.14-.7-.07-.39 4.25-2.1-.19.95-10.29c.21.01.44.01.68.02.25.01.5.02.76.04.26.01.52.03.79.05s.52.04.76.06c1.25.12 2.17.43 2.78.95.6.52.86 1.25.77 2.22q-.06.645-.27 1.11a2.83 2.83 0 0 1-1.2 1.34c-.25.14-.51.25-.77.34l.74 1.57c.23.49.47.93.71 1.3.24.38.5.68.77.91q.405.345.9.39l.07.01zm12.7-.32c-.24.1-.53.19-.88.29-.34.09-.72.18-1.13.26-.41.07-.82.14-1.25.18s-.84.06-1.25.06c-.81-.02-1.5-.16-2.06-.43a3.6 3.6 0 0 1-1.36-1.13c-.34-.48-.59-1.06-.74-1.72a9 9 0 0 1-.2-2.21c.02-.81.17-1.54.46-2.17q.435-.96 1.2-1.62c.51-.44 1.12-.78 1.83-1 .7-.22 1.48-.33 2.32-.31.21 0 .44.02.7.03.26.02.51.04.77.07.25.03.49.07.71.1.23.04.41.07.56.12l-.39 1.5q-.255-.09-.66-.18c-.26-.06-.54-.12-.84-.17-.29-.05-.59-.09-.88-.13q-.435-.06-.78-.06c-.38-.01-.73.01-1.06.07-.34.05-.65.18-.93.38-.16.11-.29.29-.39.53s-.18.52-.24.83-.1.65-.13 1.01-.04.71-.05 1.06c-.03 1.38.13 2.44.48 3.19.34.74.91 1.12 1.69 1.13.19 0 .4 0 .62-.01s.44-.03.65-.05.41-.05.6-.07.35-.05.48-.08l.05-2.77-2.3-.16.13-.83 4.35.08zm8.59-3.04-1.46-1.31 1.3-1.46 1.47 1.31zm16.87 1.11c-.33.14-.69.29-1.08.42s-.79.26-1.21.37-.82.19-1.23.24q-1.2.165-2.1-.12c-.6-.18-1.1-.49-1.51-.91q-.615-.645-.99-1.59c-.25-.64-.42-1.35-.53-2.16-.11-.8-.06-1.54.13-2.22s.5-1.27.94-1.78.99-.94 1.65-1.27q.99-.495 2.25-.66c.21-.03.44-.05.7-.07s.51-.03.77-.04c.25-.01.49-.01.72-.01q.345 0 .57.03l-.16 1.54a12 12 0 0 0-1.53-.12c-.3-.01-.59-.01-.89 0s-.55.03-.78.06c-.37.05-.72.12-1.04.22s-.61.27-.87.52c-.14.13-.24.33-.3.58s-.1.54-.11.86 0 .66.02 1.02c.03.36.06.71.11 1.05.18 1.37.5 2.4.95 3.08s1.06.97 1.84.87c.19-.03.4-.06.61-.1s.43-.09.63-.14c.21-.05.4-.11.58-.16s.34-.1.46-.15l-.36-2.75-2.3.18v-.84l4.31-.57.55 4.19c-.2.15-.47.29-.8.43m6.02-.81-2.14-10.13 5.88-1.24.12 1.04-3.7.83.7 3.3 3.51-.7.1.96-3.39.8.77 3.63 4.15-.8.11 1.02zm18.25-4.75c-.2.09-.43.18-.68.25a8 8 0 0 1-.68.16c-.21.04-.42.04-.62.02s-.4-.08-.62-.17a3.8 3.8 0 0 1-.69-.41c-.25-.18-.53-.41-.83-.69-.31-.28-.65-.62-1.03-1.02l-.86-.89-.68.2 1.19 4.1-2.03.59-2.89-9.92c.2-.07.41-.15.64-.23q.345-.12.72-.24l.75-.24c.25-.08.5-.16.73-.22 1.2-.35 2.18-.4 2.93-.14s1.26.85 1.53 1.78c.12.41.17.79.16 1.13-.02.34-.08.65-.19.93-.1.28-.25.53-.43.76-.18.22-.38.42-.59.6.45.42.87.82 1.27 1.19s.78.69 1.14.95.71.45 1.05.56.66.13.98.04l.07-.02.19.64c-.16.1-.33.19-.53.29m14.21-5.83-3.82-6.96-.41 8.72-.6.25-6.65-5.78 2.39 7.55-1.13.47-3.02-10.03 1.81-.75 6.17 5.38.39-8.11 1.77-.73 5.07 9.18zm12.02-6.57-2.8-2.41-3.35 2 .64 3.6-1.16.67-1.6-10.94 1.59-1.33 8.63 7.28zm12.3-8.58-10.21-1.3-.02.02c.38.48.73.91 1.05 1.31.14.17.28.34.41.51.14.17.26.33.38.48.11.14.22.27.3.38.09.11.15.19.19.24l2.12 2.77-.99.76-6.35-8.26.74-.57 10.2 1.28.01-.01c-.35-.44-.68-.84-.98-1.22-.13-.16-.26-.33-.39-.5l-.38-.47q-.18-.225-.33-.42c-.1-.13-.18-.23-.24-.31l-2.09-2.73.99-.76 6.33 8.25zm6.28-5.6-2.71-2.9-6.82-2.36 1.76-1.64 5.33 1.97-1.53-5.52.94-.88 1.87 6.98 2.71 2.9zm-96.55 17.77c-57.4 0-103.94-31.37-103.94-70.06 0-38.7 46.54-70.06 103.94-70.06S243.6 68.27 243.6 106.96s-46.54 70.06-103.94 70.06m112.47-96.79q-.09-.36-.21-.72c-.08-.24-.17-.47-.25-.69-.09-.22-.18-.41-.26-.57-.09-.17-.2-.35-.32-.52s-.25-.31-.37-.39a.7.7 0 0 0-.48-.08c-.19.03-.39.11-.62.23s-.39.29-.47.5c-.09.21-.13.45-.13.72s.02.56.07.88c.05.31.09.64.13.98s.06.68.07 1.02c0 .34-.04.67-.14 1-.1.32-.26.62-.49.91s-.55.54-.98.77c-.33.18-.71.27-1.13.28q-.63.015-1.29-.24c-.43-.17-.85-.43-1.26-.77-.4-.35-.75-.8-1.04-1.34q-.24-.45-.39-.84c-.1-.26-.19-.52-.25-.77s-.1-.5-.13-.75c-.03-.24-.05-.5-.06-.75l1.6-.27c-.02.18-.02.41.01.68.02.27.06.56.11.86s.12.59.21.88c.08.29.18.55.3.76.27.49.52.83.76 1.03.13.11.33.15.58.12.25-.02.55-.13.89-.31.24-.13.4-.3.49-.51s.14-.46.14-.73c.01-.27-.02-.57-.07-.89s-.09-.64-.13-.98c-.04-.33-.06-.67-.07-1.01s.04-.67.13-.99.25-.62.47-.9.53-.53.94-.75c.27-.14.59-.22.97-.24.38-.01.76.05 1.15.2s.78.38 1.16.7.71.74.99 1.27c.23.42.42.84.59 1.24.16.4.31.8.44 1.2l-1.5.44c-.04-.2-.09-.42-.16-.66"/><path d="m101.87 184.52-.64-.16-.96 3.86c.06.02.1.04.14.06s.08.03.12.05c.05.02.1.03.18.05.07.02.17.04.29.07s.26.06.41.09q.225.045.45.06c.15.02.29.02.41.02s.23-.01.31-.03.17-.06.27-.11.19-.14.29-.25q.15-.165.27-.45c.09-.18.17-.42.24-.71.16-.65.09-1.2-.21-1.63-.31-.43-.83-.74-1.57-.92m-28.82-15.29c-.35-.31-.77-.59-1.23-.84-.07-.04-.15-.08-.25-.12-.09-.04-.19-.09-.28-.12-.09-.04-.18-.07-.27-.11-.09-.03-.16-.06-.21-.08l-3.83 7.34c.05.04.12.09.2.14s.16.11.25.16c.08.06.17.11.25.16s.15.08.21.11c.55.29 1.04.5 1.45.63s.8.17 1.17.11c.2-.03.4-.09.61-.19.21-.09.42-.25.66-.46.23-.22.48-.51.74-.87q.39-.54.84-1.41c.37-.71.59-1.34.65-1.89s.01-1.03-.15-1.46c-.19-.42-.45-.79-.81-1.1m52.8 15.79c-.06-.25-.17-.46-.32-.62s-.34-.28-.58-.37c-.23-.09-.51-.14-.84-.17-.08-.01-.17-.01-.27-.01h-.29l-.37 4.02.36.03c.3.03.58.02.86-.03q.42-.06.66-.21c.08-.05.17-.11.26-.17.09-.07.17-.17.25-.3.07-.13.14-.3.2-.5s.1-.46.13-.78c.03-.34.02-.64-.05-.89m13.81-145.08c27.76 0 52.91 7.44 71.13 19.47 18.37 12.13 29.74 28.94 29.74 47.54 0 18.61-11.36 35.41-29.74 47.54-18.22 12.03-43.37 19.47-71.13 19.47s-52.91-7.44-71.13-19.47c-18.37-12.13-29.74-28.94-29.74-47.54 0-18.61 11.36-35.41 29.74-47.54 18.22-12.03 43.37-19.47 71.13-19.47m69.85 21.48c-17.85-11.79-42.55-19.08-69.85-19.08s-51.99 7.29-69.85 19.08C52.1 73.11 41.15 89.21 41.15 106.95s10.95 33.84 28.66 45.53c17.85 11.79 42.55 19.08 69.85 19.08s51.99-7.29 69.85-19.08c17.71-11.69 28.66-27.79 28.66-45.53-.01-17.74-10.96-33.84-28.66-45.53"/></svg>