<svg xmlns="http://www.w3.org/2000/svg" xml:space="preserve" viewBox="0 0 360 180"><path d="M72.094 87.609V72.616H50.822c-1.447.07-3.704 1.2-3.81 3.527-.177-2.293-2.046-3.527-4.163-3.527h-6.632v7.655h3.775c.917 0 1.164.74 1.164 1.411v4.48c.07 1.482-3.246 3.352-3.599 3.775.388.459 3.563 2.01 3.563 3.845v4.798c0 .459-.246 1.129-1.27 1.129h-3.845v7.549h6.809c2.363.177 3.916-1.446 4.198-3.14.247 1.659 1.587 3.211 3.81 3.14h6.985V99.71h-3.634c-.952 0-1.446-.67-1.446-1.129v-4.692h1.446c.247 0 .494.282.53.494v1.94h6.95V83.728h-6.986v1.976a.46.46 0 0 1-.282.423.5.5 0 0 1-.212.07h-1.41v-4.41c0-.67.317-1.446 1.163-1.48h8.467c.917.034 1.2.81 1.2 1.48v5.822zm29.836.039h8.466V72.619H89.017c-1.41.036-3.633 1.306-3.704 3.563-.14-2.257-2.081-3.527-4.198-3.563h-6.773v7.656h3.88c1.094.035 1.165.846 1.2 1.481l-.035 4.375v.176c.07 1.482-3.175 3.316-3.599 3.775.388.388 3.563 1.975 3.563 3.775v4.762c0 .353-.494 1.058-1.481 1.058h-3.6v7.55h6.844c2.329.14 3.88-1.447 4.198-3.14.247 1.658 1.588 3.21 3.81 3.14h21.343V92.55h-8.537v5.997c0 .46-.247 1.13-1.093 1.13h-8.432c-.917 0-1.446-.495-1.446-1.094v-4.727h1.728c.283 0 .494.282.53.493-.036-.211 0 1.976 0 1.976h7.02V83.767h-7.02v1.87c0 .176-.212.388-.424.458-.035 0-.07.036-.106.036h-1.693v-4.339c0-.741.494-1.482 1.446-1.553h8.185c.917.036 1.27.776 1.305 1.482v5.927m52.762 19.614v-7.514h-2.47c-.917 0-1.411-.67-1.411-1.34 0-.424.035-.847.035-1.27.106-3.352.141-6.456-4.762-7.444 2.716-.07 4.691-1.552 5.82-3.528.776-1.305 1.165-2.822 1.2-4.268.035-4.163-2.575-9.42-9.807-9.243h-13.723c-1.447.07-3.987 1.305-4.093 3.563-.106-2.258-1.905-3.528-4.162-3.563h-6.915v7.655h3.845c1.023.035 1.34.847 1.34 1.447v4.55c.071 1.482-3.245 3.316-3.597 3.775.388.388 3.563 1.976 3.563 3.81v4.763c0 .388-.494 1.093-1.482 1.093h-3.598v7.55h6.808c2.364.176 3.88-1.447 4.198-3.14.247 1.658 1.588 3.21 3.775 3.14h7.02v-7.515h-3.563c-.882 0-1.587-.67-1.623-1.27v-4.621h4.199c1.763.035 3.245 1.129 3.316 3.105v.176c.105 1.905.388 3.845.917 5.503.74 2.223 1.94 3.916 3.81 4.34 1.411.317 2.258.317 3.669.317h7.69zm-16.334-21.131c-.247.07-.494.106-.776.106h-6.35V82.18c0-.882.352-1.905 1.658-1.905h4.55c3.634 0 3.916 5.115.918 5.856m59.534 21.094v-4.657h-15.064c.741 2.187 1.94 3.916 3.81 4.34 1.411.317 2.258.317 3.67.317zm-15.064-4.622h15.064v-2.892h-2.47c-.917 0-1.41-.67-1.41-1.341 0-.423.035-.847.035-1.27.105-3.351.14-6.491-4.763-7.444 2.716-.07 4.692-1.552 5.82-3.527.777-1.306 1.165-2.823 1.2-4.269.036-4.163-2.575-9.42-9.807-9.243h-13.723c-1.446.07-3.986 1.305-4.092 3.563-.106-2.258-1.905-3.528-4.163-3.563h-6.914v7.655h3.845c1.023.036 1.34.847 1.34 1.447v4.55c.071 1.482-3.245 3.317-3.598 3.775.388.388 3.563 1.976 3.563 3.81v4.763c0 .388-.494 1.094-1.481 1.094h-3.599v7.549h6.809c2.363.141 3.88-1.446 4.198-3.14.247 1.658 1.587 3.21 3.775 3.14h7.02v-7.549h-3.563c-.882 0-1.588-.67-1.623-1.27V93.82h4.198c1.764.034 3.246 1.128 3.316 3.104v.176c.177 1.905.459 3.845 1.023 5.503m-1.34-16.474c-.212.035-.459.07-.706.07h-6.35v-4.022c0-.881.353-1.905 1.658-1.905h4.551c3.669 0 3.916 5.186.847 5.857m45.742 1.519h8.467V72.619h-21.378c-1.412.036-3.634 1.306-3.705 3.563-.14-2.257-2.081-3.527-4.198-3.563h-6.773v7.656h3.88c1.094.035 1.165.846 1.2 1.481l-.035 4.375v.176c.07 1.482-3.175 3.316-3.599 3.775.388.388 3.563 1.975 3.563 3.775v4.762c0 .353-.493 1.058-1.481 1.058h-3.599v7.55h6.844c2.329.14 3.88-1.447 4.198-3.14.247 1.658 1.588 3.21 3.81 3.14h21.343V92.55h-8.537v5.997c0 .46-.247 1.13-1.093 1.13h-8.396c-.918 0-1.447-.495-1.447-1.094v-4.727h1.729c.282 0 .494.282.529.493-.035-.211 0 1.976 0 1.976h6.985V83.767h-7.02v1.87c0 .176-.212.388-.424.458-.035 0-.07.036-.106.036h-1.693v-4.339c0-.741.494-1.482 1.447-1.553h8.184c.917.036 1.27.776 1.305 1.482zm53.174 19.577v-4.657h-15.064c.74 2.187 1.94 3.916 3.81 4.34 1.411.317 2.258.317 3.669.317zm-15.064-4.622h15.064v-2.892h-2.47c-.917 0-1.411-.67-1.411-1.341 0-.423.035-.847.035-1.27.106-3.351.141-6.491-4.762-7.444 2.716-.07 4.692-1.552 5.82-3.527.777-1.306 1.165-2.823 1.2-4.269.035-4.163-2.575-9.42-9.807-9.243h-13.723c-1.447.07-3.987 1.305-4.092 3.563-.106-2.258-1.905-3.528-4.163-3.563h-6.915v7.655h3.846c1.023.036 1.34.847 1.34 1.447v4.55c.07 1.482-3.245 3.317-3.598 3.775.388.388 3.563 1.976 3.563 3.81v4.763c0 .388-.494 1.094-1.482 1.094h-3.598v7.549h6.809c2.363.141 3.88-1.446 4.198-3.14.247 1.658 1.587 3.21 3.774 3.14h7.02v-7.549h-3.562c-.882 0-1.588-.67-1.623-1.27V93.82h4.198c1.764.034 3.245 1.128 3.316 3.104v.176c.176 1.905.459 3.845 1.023 5.503m-1.34-16.474c-.212.035-.46.07-.706.07h-6.35v-4.022c0-.881.353-1.905 1.658-1.905h4.55c3.67 0 3.917 5.186.847 5.857"/><path d="M324.014 89.965c-1.023-.812-3.351-1.905-3.669-3.422 0-.141 0-.247-.035-.388-.459-6.315-4.269-14.358-19.191-14.217-11.183-.035-18.133 5.292-18.909 14.217 0 .07 0 .141-.035.212-.282 1.481-2.575 2.716-3.634 3.457 1.023.811 3.316 1.905 3.634 3.422.035 1.234.211 2.54.6 3.845.529 1.905 1.481 3.81 2.998 5.468 2.822 3.14 7.655 5.468 15.628 5.503 6.703-.035 11.924-2.01 15.205-5.503a13.8 13.8 0 0 0 3.14-5.503c.352-1.13.564-2.364.635-3.67.282-1.446 2.575-2.68 3.633-3.421m-19.861 0c.317.317 3.104 1.728 3.14 3.528.035.705-.353 2.222-1.2 3.633-.988 1.623-2.575 3.105-4.798 3.07-2.328-.036-3.986-1.412-4.974-3.07-.74-1.2-1.093-2.575-1.058-3.563 0-1.94 2.716-3.175 3.175-3.563-.353-.317-3.14-1.728-3.14-3.563v-.317c.141-1.8 2.082-6.421 5.962-6.315 3.951 0 5.927 3.916 6.033 6.315v.282c0 1.905-2.682 3.21-3.14 3.563"/></svg>