<svg xmlns="http://www.w3.org/2000/svg" xml:space="preserve" viewBox="0 0 360 180"><path d="M186.945 72.216c-8.096.643-13.935 5.656-15.529 13.349-.384 1.805-.451 2.554-.451 4.878 0 2.248.057 2.949.393 4.668.673 3.4 2.545 6.722 4.946 8.825 2.363 2.056 5.225 3.314 8.586 3.755 1.267.164 3.774.164 4.936 0 2.459-.345 4.667-1.229 6.204-2.477.403-.327.73-.557.74-.528 0 .038.067.566.143 1.19l.145 1.124 4.043.029 4.033.019V87.774h-15.903v8.298h2.199c1.498 0 2.199.028 2.199.095 0 .039-.298.384-.663.75a5.73 5.73 0 0 1-2.746 1.536c-.903.211-2.45.134-3.38-.173-2.642-.845-4.005-3.553-4.015-7.971-.01-4.302 1.354-7.539 3.582-8.509.932-.393 2.44-.5 3.496-.22 1.661.422 2.91 1.69 3.419 3.437l.134.5h11.4l-.039-.202c-.029-.105-.125-.624-.23-1.143-.26-1.363-.692-2.602-1.335-3.89-2.2-4.417-6.339-7.211-11.755-7.941-1.2-.154-3.342-.221-4.552-.125m111.516 0c-5.829.403-10.026 2.66-11.889 6.396-1.421 2.814-1.335 7.049.183 9.546.653 1.085 1.901 2.333 3.15 3.16.691.47 2.381 1.286 3.457 1.68.48.173 2.44.72 4.36 1.2 5.07 1.287 6.117 1.681 6.53 2.478.212.404.125 1.047-.192 1.373-.566.596-1.805.942-3.351.942-2.41 0-4.005-1.047-4.37-2.881l-.096-.49h-11.438l.058.874c.269 4.11 2.785 7.567 6.991 9.584 2.603 1.249 4.879 1.729 8.202 1.729 5.666 0 10.074-1.422 12.782-4.14 1.498-1.498 2.343-3.034 2.804-5.08.192-.816.269-3.275.135-4.187a8.6 8.6 0 0 0-2.641-4.994c-1.988-1.853-4.514-2.929-10.103-4.283-4.043-.99-5.676-1.71-5.926-2.631-.182-.673.183-1.114 1.095-1.335 1.69-.413 3.669-.125 4.562.653.47.413.653.73.778 1.364l.105.47 5.666.029 5.676.02v-.25c0-.846-.509-2.814-1.066-4.072-.759-1.758-2.343-3.64-3.947-4.706-1.844-1.239-4.36-2.103-6.866-2.372-1.191-.106-3.42-.154-4.649-.077M35.996 89.983v16.979h11.928V95.476h11.755V86.65H47.924v-4.84h14.77v-8.816H35.996zm31.462 0v16.979h11.927V72.994H67.458zm16.105-16.797c.029.115 2.631 7.75 5.781 16.979l5.733 16.797h11.678l5.84-16.835a5988 5988 0 0 1 5.896-16.98c.057-.134-.26-.144-6.022-.144h-6.088l-2.718 9.94c-1.489 5.465-2.727 9.94-2.756 9.94s-1.191-4.35-2.584-9.661c-1.402-5.311-2.573-9.786-2.621-9.94l-.077-.279h-12.11zm38.952 16.797v16.979h28.522v-8.816h-16.595V94.17h13.56v-8.816h-13.55v-3.535h15.98v-8.816h-27.908v16.98zm88.708-6.128c.029 11.602.019 11.294.46 13.465.337 1.69 1.134 3.649 2.027 4.993.605.913 1.815 2.161 2.737 2.814 1.383.99 3.236 1.767 5.167 2.152 2.113.441 2.775.49 5.964.48 2.689 0 3.16-.02 4.235-.192 3.764-.596 6.252-1.7 8.22-3.679 1.97-1.978 2.997-4.235 3.602-7.96.173-1.096.182-1.413.211-12.044l.038-10.91h-11.927l-.039 10.949c-.028 9.91-.038 11.015-.172 11.543-.404 1.642-1.307 2.612-2.747 2.958-1.172.269-3.044.125-3.9-.307-.527-.27-1.161-.903-1.41-1.412-.529-1.076-.51-.595-.539-12.696l-.038-11.034h-11.928zm35.408-10.813c0 .029 2.843 4.898 6.31 10.833l6.31 10.794v12.302h11.927V94.496l6.31-10.698c3.476-5.878 6.309-10.718 6.309-10.747s-2.977-.038-6.617-.038l-6.627.029-2.602 5.119c-1.421 2.813-2.622 5.128-2.641 5.128-.029 0-1.21-2.305-2.631-5.128l-2.593-5.12-6.713-.028c-3.717-.01-6.742 0-6.742.029m73.314.566c.691 0 1.363.173 1.997.519a3.75 3.75 0 0 1 1.508 1.489 4.04 4.04 0 0 1 .547 2.026c0 .701-.182 1.364-.538 2.007a3.8 3.8 0 0 1-1.498 1.489 4.1 4.1 0 0 1-2.016.537 4.1 4.1 0 0 1-2.017-.537 3.8 3.8 0 0 1-1.498-1.489 4.06 4.06 0 0 1-.538-2.007c0-.701.182-1.373.547-2.026a3.75 3.75 0 0 1 1.508-1.489 4.1 4.1 0 0 1 1.998-.519m.01.788c-.558 0-1.096.134-1.605.413a3.07 3.07 0 0 0-1.21 1.19 3.2 3.2 0 0 0-.441 1.624q0 .85.432 1.613c.288.51.691.912 1.2 1.2a3.3 3.3 0 0 0 1.623.433c.567 0 1.105-.144 1.623-.432a3.07 3.07 0 0 0 1.2-1.2 3.2 3.2 0 0 0 .433-1.614c0-.567-.144-1.114-.442-1.623-.298-.519-.701-.913-1.21-1.191s-1.047-.413-1.604-.413m-1.835 5.388V75.51h.874c.816 0 1.277 0 1.373.01.288.028.51.076.672.172.164.087.298.23.404.413.105.183.163.385.163.615 0 .307-.106.576-.307.787-.202.221-.49.356-.855.404.134.048.23.105.298.163s.163.163.288.327q.043.056.317.518l.509.865h-1.076l-.355-.692c-.24-.46-.442-.759-.605-.883-.164-.125-.356-.183-.605-.183h-.23v1.758zm.864-2.43h.356c.499 0 .816-.02.94-.058q.188-.057.289-.201c.1-.144.105-.202.105-.327a.55.55 0 0 0-.403-.519c-.125-.038-.442-.057-.931-.057h-.356z"/></svg>