<svg xmlns="http://www.w3.org/2000/svg" xml:space="preserve" viewBox="0 0 360 180"><path d="M51.723 102.354h14.459c2.551 0 5.528 2.126 5.528 4.678V95.975H51.723V76.84h19.561c2.977 0 5.529 2.127 5.529 4.678V70.461H35.989c2.552 0 4.678 2.977 4.678 5.953v50.604c0 2.552-2.126 5.529-4.678 5.954h20.837c-2.977-.425-5.103-3.402-5.103-5.954zm42.405 13.492c0 6.379 5.528 11.907 11.907 11.907s12.332-5.103 12.332-11.907V76.298c0-2.551-2.126-5.528-4.678-5.953h20.837c-2.551 0-4.678 2.976-4.678 5.953v38.697c0 12.332-10.206 19.562-22.963 19.562s-22.963-7.23-22.963-19.562V76.298c0-2.551-2.126-5.528-4.678-5.953h20.837c-2.551 0-4.677 2.976-4.677 5.953v39.548zm168.47-35.486c-3.402-5.528-11.056-4.678-11.056-4.678-12.758 0-12.333 9.781-12.333 9.781s-.85 5.103 5.529 8.08l12.757 6.804c12.332 6.803 11.056 16.159 11.056 16.159s.426 17.86-25.514 17.86c0 0-7.655.425-11.907-1.276l-3.827-11.481c3.827 5.528 15.308 6.378 15.308 6.378 14.459-.85 14.884-10.63 14.884-10.63s.85-4.253-5.103-7.23l-12.757-6.804c-13.608-7.229-11.907-16.584-11.907-16.584s-.425-17.435 22.538-17.435c0 0 10.206.425 11.907 1.7zc.425 0 0 0 0 0M162.16 48.76c2.126 2.125 5.527 3.826 8.93 3.826 6.803 0 12.757-5.528 12.757-12.332s-5.528-12.332-12.758-12.332c0 0-9.78-.85-14.033 11.057v-8.93c3.402-4.253 8.505-7.23 14.033-7.23 9.781 0 17.86 7.655 17.86 17.435s-8.079 17.01-17.86 17.01c-5.102 0-9.355-2.126-12.757-5.103l-6.379-6.804q-2.55-2.55-6.378-2.551c-5.103 0-9.356 3.827-9.356 8.93s4.253 8.93 9.356 8.93c0 0 6.804.85 11.056-7.23v7.23c-2.551 2.977-6.804 5.103-11.056 5.103-8.08 0-14.459-6.379-14.459-14.033s6.38-14.033 14.459-14.033c3.827 0 7.654 1.7 10.206 4.252zm3.158 27.554c0-2.551-2.126-5.528-4.678-5.528h20.412c-2.551 0-4.678 2.977-4.678 5.528v50.604c0 2.552 2.127 5.529 4.678 5.954H160.64c2.552 0 4.678-2.977 4.678-5.954zm-13.02.228c0-2.551 2.127-5.528 4.678-5.953h-20.837c2.551 0 4.678 2.976 4.678 5.953v63.362s-.426 11.056-9.356 17.435c1.701-.426 20.412-3.827 20.412-21.688z"/><path d="M180.987 81.476c2.977-4.678 7.23-4.678 7.23-4.678h11.056v50.18c0 2.55-2.126 5.527-4.678 5.953h20.837c-2.976 0-4.677-2.977-4.677-5.954V76.798h9.355c2.977 0 5.103 2.126 5.103 5.103l3.402-11.056h-44.226zm102.988 34.37c0 6.379 5.528 11.907 11.907 11.907 6.804 0 11.907-5.528 11.907-12.332V75.873c0-2.552-2.127-5.528-4.678-5.954h20.837c-2.552 0-4.678 2.977-4.678 5.954v38.697c0 12.332-10.206 19.561-22.963 19.561s-22.963-7.229-22.963-19.56V75.872c0-2.552-2.126-5.528-4.678-5.954h20.837c-2.551 0-4.678 2.977-4.678 5.954v39.973z"/></svg>