<svg xmlns="http://www.w3.org/2000/svg" xml:space="preserve" viewBox="0 0 300 300"><path d="M136.47 160.76h14.61l-7.38-64.72zm85.29-83.27h-6.22v83.06h6.83c5.27.03 8-4.28 8-8.93V87.11c0-4.14-2.73-9.63-8.61-9.62z" style="stroke:#fff;stroke-miterlimit:10"/><path d="M150 0H0v300h300V0zm-48.35 154.51h-5.94v70.73h-2.96c0-2.85-1.66-4.39-3.19-3.72-2.89 1.26-6.28 5.02-13.41 4.95-9.16-.1-18.45-3.71-18.56-23.02V92.28c.03-15.12 10.31-18.59 17.48-18.64 4.4-.03 9.32 2 13.34 4.82 1.12.79 2.51.97 2.51-1.43l.01-2.01h2.95v47.21h-2.96c-.08-15.61-5.55-45.77-15.87-45.85-5.36-.04-5.97 8.02-5.97 11.49v127.49c0 4.81 3.12 8.67 7.18 8.67 4.22-.01 7.57-3.74 7.57-8.67v-60.84h-7.28v-2.38h25.09v2.37zm74.68 70.53H151.5v-2.56h6.61l-6.72-59.07h-15.21l-5.85 52.13c-.52 3.58 1.87 6.95 7.14 6.95v2.56h-18.62v-2.56c7.19-.11 7.66-3.19 8.56-8.19l15.32-139.23h10.57l16.5 147.41h6.54v2.56zm65.9-76.14c0 8.37-6.73 14.6-18.56 14.6h-8.13v59.01h9.43v2.57h-27.9v-2.57h6.54V77.49h-6.54V75.1h24.73c14.62-.01 20.43 7.5 20.43 15.85z" style="stroke:#fff;stroke-miterlimit:10"/></svg>