<svg xmlns="http://www.w3.org/2000/svg" xml:space="preserve" viewBox="0 0 72 72"><path d="M63.7 33.4 38.6 8.3c-1.4-1.4-3.8-1.4-5.2 0l-5.2 5.2 6.6 6.6c1.5-.5 3.3-.2 4.5 1.1 1.2 1.2 1.6 3 1 4.6l6.4 6.4c1.5-.5 3.3-.2 4.6 1 1.7 1.7 1.7 4.5 0 6.2s-4.5 1.7-6.2 0c-1.3-1.3-1.6-3.2-1-4.8l-6-6v15.7c.4.2.8.5 1.2.8 1.7 1.7 1.7 4.5 0 6.2s-4.5 1.7-6.2 0-1.7-4.5 0-6.2c.4-.4.9-.7 1.4-1V28.4c-.5-.2-1-.5-1.4-1-1.3-1.3-1.6-3.2-1-4.8l-6.5-6.5L8.3 33.3c-1.4 1.4-1.4 3.8 0 5.2l25.1 25.1c1.4 1.4 3.8 1.4 5.2 0l25-25c1.6-1.4 1.6-3.7.1-5.2"/></svg>