<svg xmlns="http://www.w3.org/2000/svg" xml:space="preserve" viewBox="0 0 72 72"><path d="M27.5 54.5c0 .2.3.4.6.4s.6-.2.6-.4-.3-.4-.6-.4-.6.2-.6.4"/><path d="M27.1 64.1c.9.2 1.7-.5 1.7-1.5v-5.4c-1.1.2-2.4.3-3 .3-1.6-.1-3.1-.3-3.9-.8-.9-.5-2.1-1.5-2.5-2.3-.5-1.1-.6-1.7-1.2-2.6-.5-.9-1.5-1.8-2.1-2.1s-1.2-.8-1.3-1.1.1-.7.7-.8 1.6.1 2.6.6c.8.4 1.7 1.4 2.3 2.3.7 1.1 1.7 2.1 2.5 2.6s2.5.7 4.1.5c.6-.1 1.3-.3 1.8-.6.2-1.5.9-2.8 1.9-3.9-8.5-1-13.1-5-13.1-13.6 0-3.3 1.1-6.1 3-8.2-.2-.5-.4-1.1-.5-1.9-.2-1.8 0-2.9.3-3.9.2-1.1.5-1.8.5-1.8s1.3-.1 2.5.2c1.1.4 2.1.7 3.5 1.5q1.05.6 1.8 1.2c2.2-.6 4.7-.9 7.3-.9q3.9 0 7.2.9c.5-.3 1.2-.8 1.8-1.2 1.4-.8 2.4-1.1 3.5-1.5s2.5-.2 2.5-.2.3.7.5 1.8.5 2.1.3 3.9c-.1.8-.3 1.4-.5 1.9 1.9 2.2 3 4.9 3 8.2 0 8.7-4.7 12.6-13.1 13.6 1.2 1.3 2 3 2 4.9v8.4c0 .9.8 1.6 1.7 1.5 11.6-3.7 19.9-14.6 19.9-27.4C64.8 20.8 51.9 7.9 36 7.9S7.2 20.8 7.2 36.7c0 12.8 8.3 23.6 19.9 27.4"/><path d="M23 54.4c0 .2.2.4.5.4s.6-.1.6-.3-.2-.4-.5-.4-.6.1-.6.3m2.3.4c0 .2.2.4.6.4.3 0 .6-.1.6-.3s-.2-.4-.6-.4-.6.1-.6.3M21.1 53q-.15.3.3.6c.2.2.5.1.6 0q.15-.3-.3-.6c-.2-.2-.5-.2-.6 0m-2.4-3.3c-.1.1-.1.4.1.5.2.2.4.2.6.1.1-.1.1-.4-.1-.5-.3-.2-.5-.2-.6-.1m-1.3-.9c-.1.1 0 .4.3.5.2.1.5.1.5-.1s0-.4-.3-.5c-.2-.1-.5-.1-.5.1m2.5 2.5c-.1.1-.1.4 0 .6.2.2.4.3.6.2.1-.1.1-.4 0-.6-.2-.2-.5-.3-.6-.2"/></svg>