<svg xmlns="http://www.w3.org/2000/svg" xml:space="preserve" viewBox="0 0 180 180"><path d="M44.15 87.38c6.37 0 9.66-4.33 9.66-10.4 0-6.66-3.82-11.95-10.93-11.95-6.22 0-9.96 4.13-9.96 10.2.01 6.81 3.97 12.15 11.23 12.15m4.48 20.97c-4.66-.18-6.9-.49-9.79-.71-12.57 6.93-1.97 15.95 11.64 14.48 8.76-.93 11.96-5.02 10.87-8.81-.72-2.52-3.6-4.6-12.72-4.96"/><path d="M159.52 28.82c-10.31-7.17-26.59-10.8-48.37-10.8-14.29 0-41.72 1.32-64.91 10.18C19.75 38.33 6.32 55.22 6.32 78.41c0 7.5 1.53 15.51 4.39 23.52 1.73 4.79 3.91 9.56 6.47 14.2.87 1.58 1.79 3.14 2.74 4.68 2.82 4.5 6.03 8.86 9.59 12.99 15.44 17.91 34.87 28.18 53.31 28.18 12 0 23.29-4.01 34.51-12.25 12.98-9.65 27-24.94 37.51-40.91 15.59-23.68 18.86-40.89 18.86-51.16-.02-12.61-4.78-22.31-14.18-28.84m-94.46 91.25c-7.48 9.35-31.51 10.3-38.32 1.32-4.63-6.11 1.58-11.37 8.25-14.28-4.6-1.24-6.95-4.7-6.95-8.03 0-3.41 2.37-6.36 6.82-8.44-5.93-2.22-10.02-7.84-10.02-14.18 0-9.2 7.16-16.31 18.77-16.31 2.51 0 5.46.59 7.97 1.33 2.08.58 4.3 1.03 6.67 1.03 2.81 0 6.07-.15 8.73-.89v5.93c-1.48-.3-6.21-.6-8.73-.6 2.37 2.67 3.7 6.37 3.7 9.93 0 8.29-6.52 15.25-18.07 15.25-.99 0-2.06-.05-3.31-.19-1.21.23-2.3.76-3.14 1.45-1.26 1.02-1.84 2.32-1.84 3.48 0 1.92.96 3.32 5.77 3.7 10.35.81 16.68.96 20.94 2.91 4.64 2.12 8.62 9.26 2.76 16.59m19.64-11.66c-5.18 0-9.77-1.03-14.51-2.96v-6.81c4.88 2.66 10.95 4.28 14.8 4.28 4.15 0 9.33-1.04 9.33-5.91 0-4.89-5.19-7.26-10.81-9.92-6.22-2.96-12.88-6.21-12.88-13.77 0-9.18 8.88-13.18 16.88-13.18 4.3 0 8.59 1.03 12.3 3.1v6.67c-3.56-2.82-7.85-4.45-12.44-4.45-4.45 0-8.74 1.78-8.74 5.79 0 4.72 5.63 7.4 11.55 10.36 6.23 3.12 12.74 6.66 12.74 13.46-.01 9.92-9.92 13.34-18.22 13.34m58.52-.6c-4.58 0-8.44-2.53-13.18-8.14-7.55-9.04-13.62-16.3-13.62-16.3v11.85c0 8.28.44 9.62 1.18 11.55h-10.96c.89-2.37 1.33-3.26 1.33-11.55V54.21c0-6.66-.44-9.62-1.78-11.4l10.22-2.66v39.69l13.47-12.59s2.67-2.37 5.04-5.48h11.7c-.59.15-2.67.59-10.07 7.55l-12.59 11.85s8.24 10 15.35 17.84c5.48 5.93 8.94 6.58 11.46 6.58.44 0 1.04-.14 1.48-.3-2.21 1.63-5.48 2.52-9.03 2.52"/></svg>