<svg xmlns="http://www.w3.org/2000/svg" xml:space="preserve" viewBox="0 0 72 72"><path d="M61.7 17.5c-3.5-3.5-9.1-3.6-12.7-.2q-.3.3-.3.6c0 .2.1.5.3.6l1.1 1.2c.3.3.8.3 1.1.1.9-.7 2-1 3.1-1 2.1 0 4 1.3 4.9 3.2s.4 4.2-1.1 5.7c-7.3 7.3-16.9-13.1-38.9-2.6-.8.4-1.3 1-1.6 1.8s-.2 1.7.3 2.4l3.8 6.5c.8 1.4 2.6 1.9 4 1.1l.1-.1-.1.1 1.7-.9c1.9-1.2 3.6-2.5 5.3-3.9.3-.3.9-.3 1.2 0 .2.2.3.4.3.7s-.1.5-.3.7c-1.7 1.5-3.6 2.9-5.5 4.1h-.1l-1.7.9c-.7.4-1.5.6-2.3.6-1.7 0-3.3-.9-4.1-2.4l-3.6-6.2c-6.8 4.8-11 14.1-8.8 25.9.1.4.4.7.9.7h4.1c.4 0 .8-.3.9-.8.4-3 2.9-5.2 5.9-5.2s5.5 2.2 5.9 5.2c.1.4.4.8.9.8h4c.4 0 .8-.3.9-.8.4-3 2.9-5.2 5.9-5.2s5.5 2.2 5.9 5.2c.1.4.4.8.9.8h3.9c.5 0 .9-.4.9-.9.1-5.5 1.6-11.8 5.8-15 14.3-10.9 10.5-20.3 7.1-23.7m-15 16.6-2.8-1.4c0-.8.6-1.5 1.4-1.7s1.6.2 2 1c.3.7.1 1.6-.6 2.1"/></svg>