<svg xmlns="http://www.w3.org/2000/svg" xml:space="preserve" viewBox="0 0 72 72"><path d="M59 43.4c-.4-.3-.9-.4-1.4-.5V29.2c.5-.1.9-.3 1.4-.5 2.5-1.4 3.3-4.6 1.9-7-1.4-2.5-4.6-3.3-7-1.9l-1.2.9-11.8-6.8c.1-.5.2-1 .2-1.5 0-2.8-2.3-5.1-5.1-5.1s-5.1 2.3-5.1 5.1c0 .5.1 1 .2 1.5l-11.8 6.8q-.45-.6-1.2-.9c-2.5-1.4-5.6-.6-7 1.9s-.6 5.6 1.9 7c.4.3.9.4 1.4.5v13.7c-.5.1-.9.3-1.4.5-2.5 1.4-3.3 4.6-1.9 7 1.4 2.5 4.5 3.3 7 1.9.4-.3.8-.6 1.1-.9L31 58.2c-.1.5-.2.9-.2 1.5 0 2.8 2.3 5.1 5.1 5.1s5.1-2.3 5.1-5.1c0-.6-.1-1.1-.3-1.6l11.8-6.8c.4.4.8.7 1.3 1 2.5 1.4 5.6.6 7-1.9 1.6-2.5.7-5.6-1.8-7m-42.1-.5c-.1 0-.1 0-.2-.1V29.1c1.3-.3 2.5-1.2 3.2-2.4.7-1.3.9-2.7.5-4l11.9-6.9c0 .1.1.1.1.1zm22.9 13.3c-.9-1-2.3-1.7-3.8-1.7s-2.8.6-3.7 1.6l-11.9-6.8c0-.1 0-.1.1-.2h31c0 .1.1.2.1.3zM52 45.3c-.3.4-.4.9-.5 1.4h-31c-.1-.5-.3-.9-.5-1.4-.3-.4-.6-.8-.9-1.1l15.5-26.9c.5.1.9.2 1.4.2s1-.1 1.4-.2l15.5 26.8q-.45.45-.9 1.2m3.3-2.5c-.1 0-.1 0-.2.1L39.6 16l.1-.1 11.9 6.9c-.4 1.3-.2 2.7.5 4s1.9 2.1 3.2 2.4z"/></svg>