<svg xmlns="http://www.w3.org/2000/svg" xml:space="preserve" viewBox="0 0 256 256"><path d="M255.65 127.03c-.11-1.28-.33-2.53-.65-3.74-2.48-10.09-11.83-17.6-22.72-17.6h-33.59c-12.73 0-23.05 10.26-23.05 22.91s10.32 22.91 23.05 22.91h8.5c-9.07 29.73-37.87 58.05-78.6 59.18-.57.02-1.14.06-1.7.12-40.27.53-80.3-31.34-81.97-80.73.02-.56.02-1.12 0-1.69-1.58-39.66 30.87-81.44 84.02-83.65 12.31-.51 21.88-10.94 21.37-23.28C149.8 9.1 139.4-.49 127.09.02 52.3 1.26-1.1 63.55.02 127.33c.26 78.14 64.19 129.79 128.83 128.19.74-.02 1.46-.07 2.18-.16 76.22-2.79 129.2-69.04 124.62-128.33"/><path d="M128.06 105.69c-12.63 0-22.89 10.27-22.89 22.94s10.25 22.94 22.89 22.94c12.63 0 22.89-10.27 22.89-22.94-.01-12.67-10.26-22.94-22.89-22.94"/></svg>