<svg xmlns="http://www.w3.org/2000/svg" xml:space="preserve" viewBox="0 0 72 72"><path d="M44.9 16.1c-3.2 0-6.2.8-8.9 2.1-2.7-1.4-5.7-2.1-8.9-2.1-11 0-19.9 8.9-19.9 19.9s8.9 19.9 19.9 19.9c3.2 0 6.2-.8 8.9-2.1 2.7 1.4 5.7 2.1 8.9 2.1 11 0 19.9-8.9 19.9-19.9s-8.9-19.9-19.9-19.9zm0 36c-1.8 0-3.5-.3-5.1-.8 3.9-3.3 6.6-8.1 7.1-13.5h-9.1v3.8h4.4c-1.2 3.2-3.4 5.9-6.2 7.8-2.8-1.9-5-4.6-6.2-7.8h4.4v-3.8h-9.1c.5 5.4 3.1 10.2 7.1 13.5-1.6.5-3.3.8-5.1.8C18.2 52.1 11 44.9 11 36s7.2-16.1 16.1-16.1c1.8 0 3.5.3 5.1.8-3.1 2.6-5.4 6.1-6.5 10.1h4c1.1-3.4 3.4-6.3 6.3-8.3 2.9 2 5.2 4.9 6.3 8.3h4c-1.1-4-3.4-7.5-6.5-10.1 1.6-.5 3.3-.8 5.1-.8C53.8 19.9 61 27.1 61 36s-7.2 16.1-16.1 16.1z" style="stroke:#000;stroke-width:2"/></svg>