<svg xmlns="http://www.w3.org/2000/svg" xml:space="preserve" viewBox="0 0 72 72"><path d="M9.8 47H7.7v-.6h1.6c0 .2.3.5.5.6m53.3 0c0-.2.2-.4.5-.6h1.1v.6zm-35.1.4c-.9.4-2.1.4-3.1 0h-11c-1.1.4-2.3.4-3.4 0H7.7v1.1h57.1v-1.1zM14.5 47c.2-.1.6-.5.6-.6h8.6c.1.2.4.4.6.6zm12-.3c1.5 0 2.7-1.2 2.7-2.7s-1.2-2.7-2.7-2.7-2.7 1.2-2.7 2.7 1.2 2.7 2.7 2.7v.6c-1.8 0-3.3-1.5-3.3-3.2 0-1.8 1.5-3.3 3.3-3.3s3.2 1.5 3.2 3.3-1.5 3.2-3.2 3.2zm-10.6-3.1c0-2-1.7-3.7-3.7-3.7-2.1 0-3.7 1.7-3.7 3.7 0 2.1 1.6 3.7 3.7 3.7 2 0 3.7-1.7 3.7-3.7h-.6c0 1.7-1.4 3.1-3.1 3.1s-3.1-1.4-3.1-3.1 1.4-3.1 3.1-3.1 3.1 1.4 3.1 3.1z"/><path d="m28.3 45.9-1.1-1.3v-.1c.1-.1.1-.1.1-.2l1.7.4c.1 0 .2.1.2.1 0-.1.1-.3.1-.4-.1.1-.2.1-.3.1l-1.6-.4c-.1 0-.1-.1-.1-.1v-.3l1.6-.6s.2 0 .2.1c0-.1-.1-.3-.1-.4 0 .1-.1.2-.2.2l.1-.1-1.7.6c0 .1 0 0-.1 0 0-.1-.1-.1-.1-.1 0-.1-.1-.1 0-.1l1-1.3c.1-.1.2-.1.2-.1-.1 0-.3-.2-.4-.2.1 0 .1.2 0 .2l-.9 1.4h-.1s-.1-.1-.2-.1c0 0-.1 0-.1-.1l-.1-1.6c0-.1 0-.2.1-.2h-.4c.1 0 .1.2.1.2l.1 1.6c0 .1-.1.1-.1.1s-.1.1-.2.1c0 0-.1 0-.1-.1L25 42v-.3c-.1.1-.3.2-.3.3.1 0 .2.1.2.1l1.1 1.3v.1c-.1 0-.1.1-.1.2l-.1.1-1.6-.4c-.2-.2-.2-.3-.2-.3 0 .1-.1.3-.1.4 0 0 .2-.1.2 0l1.6.4c.1 0 .1.1.1.1v.3l-1.6.7c-.1 0-.2.1-.2 0 0 .1.1.3.1.4 0-.1.1-.2.2-.2l1.5-.7c.1 0 .1.1.1.1.1 0 .1.1.1.1.1 0 .1.1.1.1L25 46c-.1.1-.1.1-.2.1.1.1.3.2.3.2-.1 0 0-.2 0-.2l.9-1.3c0-.1.1-.1.1-.1.1.1.1.1.2.1s.1 0 .1.1l.1 1.7c0 .1-.1.2-.1.2h.4c-.1 0-.1-.1-.1-.2l-.1-1.6c0-.1.1-.1.1-.1.1 0 .2-.1.2-.1s.1 0 .1.1l1.1 1.2c0 .1.1.2.1.2l.3-.3c-.1 0-.2-.1-.2-.1m-16.2-4.4c1.6 0 3.1.2 4 .4.1 0 .1.1 0 .2-.9.2-2.5.4-4 .4-1.5.1-3 0-4-.2-.1 0-.1-.1 0-.1.9-.4 2.4-.7 4-.7v-.3c-1.7.1-3.4.4-4.7.9-.2.1-.2.2 0 .2 1.6.4 3.2.4 4.8.4 1.6-.1 3.2-.2 4.7-.6.2-.1.2-.2.1-.2-1.6-.5-3.2-.7-4.9-.7z"/><path d="M28.7 40.5c-.4.1-1.1.3-1.4.3s-1.7-.1-2.6 0c-1.3.1-1.4.2-1.5.1-.3-.4-.5-1.1-.9-1.5-2.6.4-5.2.1-7.5-.8v-.3c.2.1.3.1.4.1-.4-.6-1.1-.7-1.5-1.3-.2-.2-.3-.5-.5-.7.1.6-.4 1.1-.5 1.6.3.1.8.1.9.1.2-.1.5 0 .6.2.2.1.3.2.5.2v.3l-.6-.2c-.3.1-.5.1-.6-.1-.1-.1-.6-.1-.8-.1-.7 0-1.5.3-1.9.9-.2.3-.1.7.1 1 .1.2.6.9.9 1.1l-.4.1c-.7-.6-1.2-1.2-1.1-1.9.3-1.6 1.8-1.3 2.2-2 .3-.6.4-2.4.1-2.9-.9-.4-2.1-.9-2.3-2-.1-.3.1-.6.3-.7.5-.1.8.2 1.2.3.2-.1-.2-.5.2-.5.5 0 .8 1 1 1.1l-.1.4c-.3-.1-1.6-.8-1.7-.8-.2-.1-.5-.3-.7-.1-.2.3.1.6.2.9 2.6 2.7 7-.2 9.8 1.8.1-.2 0-.2-.1-.3-2-1.8-5.1-.9-7.6-1.5l.1-.4c3.1.8 7.3-.5 8.9 3.1 1.1 1.5 2.2 3.9 4.5 4 1.8.1 3.1-.7 4-2 1.2-2.2 2-4.8 4.1-6.3.2-.1.3 0 .2.1-1.1 1.1-2 2.5-2.5 3.6.8 3.2 2.7 2.5 3.1 2.5-.1-1.2 0-4.6 2.5-5.5 1.5-1.1 3.5-1.4 5.2-.6-2 1.8-3.1 4.5-3.5 6.3l-2.2.6c.2-.3.2-.9.1-1.5-.2.1-.4.3-.9.6-.2.1-.1-.3-.1-.3 0-.1.6-.3 1-.6-.2-1.3-.3-3 .8-4-2.2.7-1.6 5.3-1.3 5.9-.6.3-1.5.3-1.5.3V38c-.9.3-2.6.1-3.3-2.4-.8 1.6-1.5 4.2-3.3 4.9m34-6.9c-.1-.1-.2-.2-.3-.2-.1-.1 0-.1.1-.1.1-.1.2 0 .2.1.1.1.1.2 0 .2"/><path d="m12.7 44.4 1.2 1.3c.1.2.1.3.1.4.2-.1.4-.3.5-.4-.1.1-.3.1-.3-.1L13 44.3v-.1l.1-.1-.1-.1 1.7.6c.2.1.2.2.2.3.1-.1.2-.4.2-.6-.1.1-.2.1-.3.1l-1.7-.6c-.1 0-.1 0-.1-.1v-.1c0-.1.1-.1.1-.1l1.8-.3c.2-.1.3.1.3.1 0-.1-.1-.5-.1-.6q0 .15-.3.3l-1.7.3c-.1 0-.1-.1-.1-.1V43l1.4-1.2c.2-.1.3-.1.4-.1-.1-.1-.3-.4-.4-.5.1.1 0 .2-.1.4L13 42.7c-.1.1-.1.1-.1 0-.1 0-.1 0-.2-.1 0 0-.1-.1 0-.1l.6-1.7c0-.1.2-.2.3-.2-.1-.1-.5-.2-.6-.2.1 0 .2.2.1.4l-.6 1.7c0 .1-.1.1-.1.1h-.2l-.1-.1-.3-1.8c0-.2.1-.3.1-.3-.1 0-.4.1-.6.1q.15 0 .3.3l.3 1.7c0 .1 0 .1-.1.1s-.1.1-.2.1h-.1l-1.2-1.3c-.1-.2-.1-.3-.1-.3-.1.1-.4.3-.4.4.1 0 .2 0 .3.1l1.2 1.3v.1l-.1.1h-.1l-1.7-.6c-.2-.1-.3-.2-.2-.3-.1.2-.2.5-.2.6.1-.1.2-.1.4-.1l1.7.6v.3l-1.7.4c-.2 0-.3-.1-.3-.2 0 .2.1.6.1.7q0-.15.3-.3l1.7-.3s.1 0 .1.1 0 .1.1.1v.1l-1.4 1c-.2.2-.3.1-.3.1 0 .2.3.4.3.5 0-.1 0-.2.1-.3l1.5-1.1c0-.1 0-.1.1 0l.1.1c.1 0 .1 0 .1.1l-.6 1.7c-.1.2-.2.3-.3.2.1.1.4.2.6.2-.1 0-.2-.2-.1-.3l.6-1.7s0-.1.1-.1c.1.1.1.1.2.1 0 0 .1 0 .1.1l.3 1.7c0 .2-.1.3-.2.4.2 0 .5-.1.6-.2-.1.1-.2-.1-.2-.2l-.3-1.8v-.1c.1 0 .1-.1.2-.1zM62 33.9c-.1-.1 0-.1 0-.2.1-.2.1-.2.1-.3-.3-.2-.3-.7-.2-.8.2-.2.7.1.7.1.5-.4.7-.7.9-.8.4 0 1.2.7 1.2 1.2-.1.2-.4.4-.8 1 .2.4.2.7-.1.9-.1 0-.2 0-.3-.1.1.6.7.9.9 1.3 0 .9.9 2-.1 2.7-.2.1-.4.3-.6.5.2.9.5 1.8.7 2.8l-1.1.1c-.1.3-.4.9-.3 1.3 0 0-.1-.1.1 0 .2.2.2 2.1.2 2.2 0 .2.2.2.1.6-.1.1-.6.3-.6.5-.3.3-1.1.3-1.1.2 0-.3.6-.6.7-.9.1-1.3 0-2.7-.7-3.7-.3-.2-.5.3-.7.5.3.8.8 1.7.7 2.7 0 .3.3.7.2 1.1l-1 .2h-3.2c-.1-.2-.3-.3-.3-.6h2.9c0-.1.3-.1.6-.5 0-1.3-1.4-3.3-1.2-4 .3-.8.7-1.5 1.1-2.6l.2-.1c-.5 1.7-1.2 2.5-1.1 3 .1.3.2.5.3.8l.1.3c.1.2.2.6.3.7.2 0 .3-.1.4-.2 0-.2-.2-.5-.3-.7l-.4.2-.1-.3c.3 0 .6-.2.3-.4.8-.4-.2-.3.1-.4.4-.2.7-1.1.7-1.6 0-.1.1-.2.2-.2.3.9.3 2.1.9 2.9v.3c-.1.2 0 .5.1.7.5.1.4-.1.3-.7-.1 0-.3-.1-.4 0v-.3c.1-.1.3 0 .3-.1-.2-.3-.2-.5-.2-.8 0-.2.1-.5.2.2.2.1.4-1.3.5-1.7-1.1.2 0-1-.8-1.1l.4-.7c0-.2-.2-.4-.4-.3l-.2-.3c-.2-.1-.3-.3-.6-.5-.2.2-.4.5-.5.7-.1.1.1.1.2.1.2-.2.3.2.6.1.1-.1.4-.2.3-.4l.2.3c-.2.1-.2.5-.2.8-.4.7-.2-.4-.7-.4-.3.2-.4-.3-.6-.2l-.2.1c0-.4.1-.8 0-1.3.3-1.9.7-1.8.8-2.4 0-.2.8-.7.8-.9.1 0 .2.2.2.2-.1.3-.6.3-.6.9.3-.6 1.3-.6 1.3-1.3-.2-.4.2-.2.2-.6-.1-.1-.4-.4-.5-.6.1.3.3-.1-.5-.1-.1.1-.1.4-.2.6-.1.1-.2.2-.1.2 0 .1.1.1.1.3-.1.2 0 .3.1.4.4.2.8 0 .3.3 0 .1 0 .1-.1.2 0-.1-.2-.3-.2-.3-.1 0-.3-.2-.3-.4.1-.2.1-.3 0-.4m-15.1-2.2c.1.4-.2.7-.2 1.1.4.9 0 1.7.1 2.6-.4-.3-.6-1-.7-1.8-.1-.7.1-.9.1-1.6zm-1.1.3c-.1 1.2-.2 1.7.6 3.6-2.1.9-3.9 1.5-6.4 2.2.3-1.8 2-5.2 3.5-6.1 1.2.3 2.3.3 2.3.3"/><path d="M40.3 45.1c-.6.2-.6.5-.2.8.2.2.4.4.4.5h-3.6c0 .2.2.3.3.6H57c.1-.3-.2-.6-.3-.9-1.4-.5-1.4-1.8-1.5-3.2 0-.1-.1-.2-.1-.5-.2-.2-1.1-2.5-.7-4.4l.3-.6c.3-.4-.1-.6.2-1.1l4.1-.8c.1-.1.1-.2-.1-.3 0-.1.1 0 0 0L55 36c.2-1-.7-1.3-.3-2.2.6.6 2.1 1.7 2.8 1.8l.4-.1c-1-.4-2.8-1.5-3.8-2.9-.1 0-.2-.1-.3-.2 0 .1.3.4.2.5 0 0-.7.4-1.9-.1-.4.8-4.7 2.7-4.7 2.7.2 1.2.7 2 1.3 2.7.1.1-.2-.1 0 0 .9.7 2 1.1 3.1 1.3.2.7 1.1 2.8 1.1 3.2.1.3.3.3.3.3.1.1.5.8.5 1.1l.1 1.2c.1.3.4.1.4.3l-.2.7h1c-.4-.4-.2-1.1-.7-1.3-.1-.7-.1-1.2-.4-1.5-.2-.7-.9-2.5-1.4-4.1l.3-.4c-1.2.3-2.2-.1-3.3-.7-.8-.4-.3-.1-.1-.2 1.3.6 2 .4 3 .3.1.2.3.3.3.6l-.3.4c.3-.3.5-.1.7.7.2.7.4 1.2.6 1.7.2.6.4 1.3.6 1.7 0 0 .2 0 .3.2.4 1.2.5 1.4.4 2 .1.4.7.1.7.6H41c.2-.9-.3-1.7 0-2.5-.6-.9-2-1.6-1.7-2.8.7-.9 2.8-1.9 2.3-3 2-1 3 .7 4.9.5.7 0 1.4-.1 2-.3-.8-.6-1.5-1.6-1.8-2.4-3.9 1.6-7.7 2.9-11.9 3.7l-.3-.1c-.4.1-6.8 1.5-6.5 1.8-2.4.2-5.2 1.2-5.8 1.5-.3.2-.3.3 0 .4 2.6.7 4.7.2 8.7-1.3l-.3-.2c-.2.2-3.5 1.3-4.7 1.5-1.3.2-2.5.1-3.1-.1-.2-.1-.2-.1-.1-.1 2.5-1 7.4-1.9 8-1.1q.6.15.9.6c.2.3.7.2 1 .1.4-.1.5-.5.5-.9l-.5-.1c-.2 0-1.1.1-1.2.2-.3-.3-.7-.6-1.1-.7.9-.4 2.3-.7 3.1-.8-.7.5-.4 1.1-.8 1.2l.5.1c0-.2 0-.4.1-.5.5-1.2 2.6-1.4 3.7-1.7 0 0-.6.7-.9.9-.1 1.7-.7 3.2-.8 5 .5 0 .5.6.6.9-.2.3-.4 0-.6.1-.8-.4.2-1.1-.4-1.6.3-1.4.8-2.8.8-4.2-.2 0-.3.2-.4.4-.2 1.4-.6 2.7-.9 4 .1.1.4.2.4.4-.4.3 0 .8-.2 1.1h-5.1l-.6.7h7.7l.1-.3c-1.1-1.2-.7-3-.2-4.4l1.3-1.8c1.1-.4 1.8-1.8 3-2.2 0 .6-.7.8-1.1 1.2-.4.9-1.7 1.1-1.9 2.1.5.6 1.2.9 1.8 1.5.6.4.4 1.2.9 1.6.1.2 0 .4-.1.4"/><path d="M48.8 25c-.2.3-.7.6-.4 1.2-.6.3-.4.8-.2 1.1-.3.3-.4.8-.1 1.2-.4.5.1.9.3 1.1-.2.5 0 .9 0 .9-.1.3-.7.9-.9 1.1-.3.8-.2 2.6-.2 3.7 1.6-.8 3.1-1.5 4.4-2.6-1.1-.7-1.9-2.5-3.1-2.3-.1-1.2-.6-3.4 1.1-5.6.2-.1.6-.2.7-.3-.7-.1-1.7.3-2.3-.1.1 0 .4.5.7.6"/><path d="M52.6 24.4c0 .1.2.2.2.2l.2-.1c0-.1.1-.2 0-.3-.1 0-.2-.1-.3-.1zl-.1.1-.8-.5.1-.1s.3-.3.5-.3c.2-.1 1.1 0 1.3.2s.3.3.5.7c.6.4 1.6.4 2.2.9-.1.2.2.4-.1.6-.2.1-.6-.1-.6.1l-.1.3-.2-.1s.1-.4 0-.4c-.1-.1-.3-.2-.4-.1s0 .1.1.2c0 .1.3.2.4.1l.2.1.3.1c-.1.3-.2.4-.6.3-.1.3.5.5.6.6-.1.1-.2.2-.6 0 0 0-1.6 1.6-2.6 2s-.1-.2-.1-.2c.4-.2 2.4-1.8 2.4-2-.1-.1-.2-.3-.2-.5-.3-.1-.8.1-1.1.2.1.5 1 3 .3 6.8l-.1-.1c.6-3.7-.4-6.6-.4-6.6-.6.2-.9.1-1.2.1-.1 2.3 1.7 2.6 1.1 5.6-2-.3-3.4-2.7-4.5-2.5-.1-.4-.4-1.1-.1-1.3-.1-.3-.2-.8.3-1.1-.2-.4-.2-.8.3-1.2-.1-.3-.1-.9.6-1 .1-.5.3-.9.7-1.1-.5-.2-.6-.7-.6-.7.4.3.8.4 1.5.3z"/></svg>