<svg xmlns="http://www.w3.org/2000/svg" xml:space="preserve" viewBox="0 0 72 72"><path d="M56.7 7.2c2.8 0 5.1 2.3 5.2 5.1v47.3c0 2.8-2.3 5.1-5.1 5.2H15.3c-2.8 0-5.1-2.3-5.2-5.1V12.4c0-2.8 2.3-5.1 5.1-5.2zm0 2.9H15.3c-1.2 0-2.3 1-2.3 2.2v47.3c0 1.2 1 2.3 2.2 2.3h41.6c1.3 0 2.3-1 2.3-2.2V12.4c-.1-1.3-1.1-2.3-2.4-2.3M23 44.6l6.5 5.8-6.5 5.8zm5.8-28.8v16.4c2.9-.9 6.9-2 10.8-2 3.6 0 5.7 1.4 6.9 2.6 2.5 2.5 2.5 5.6 2.5 6.1v17.3h-5.8V39c0-1.3-.7-3-3.6-3-5.8 0-12.3 2.9-12.5 3L23 40.8v-25zm20.2 0c-.4 3.3-1.7 6.4-4.3 9.4h-5.8c2.3-3 3.7-6.1 4.3-9.4z"/></svg>