<svg xmlns="http://www.w3.org/2000/svg" xml:space="preserve" viewBox="0 0 360 180"><path d="M226.2 67c-11.9-.1-26.5 4.9-26.6 22.9-.1 17.8 14.8 23.4 26.6 23.1 11-.3 23.1-3.4 23.6-16.8h-12.1c-.3 8.4-7.1 10.1-11.5 10.1-4.6 0-13.8-.9-14-16.3-.1-14.5 8.4-16.5 14-16.4s11.2 2.7 11.2 9.3h12c-.1-8.1-7.1-15.8-23.2-15.9M36 67.8v44.3h11.7V92.6h23.7v19.5h11.8V67.8H71.4v17.7H47.7V67.8zm56.9 0v44.3h11.8V67.8zm16.2 0v7.3h17.2V112H138V75.2h17.2v-7.3zm146.4 0v44.3h11.7V92.6H291v19.5h11.7V67.8H291v17.7h-23.7V67.8zm56.7 0v44.3H324V67.8zm-146.2.1-21 44.2h13.2l4.1-9.9h22.2l4.1 9.9h13.2l-20.9-44.2zm7.4 7.5 8.1 19.7h-16.3z"/></svg>