<svg xmlns="http://www.w3.org/2000/svg" xml:space="preserve" viewBox="0 0 227 228"><path d="M226.85.83v38.55c.02-12.86 0-25.71 0-38.55m0 114.41c.02-21.46 0-42.92 0-64.38zm0-64.38V39.38zM42.15 221.83c-11.93-11.91-23.84-23.84-35.79-35.74-.88-.83-1.66-1.95-2.92-2.19-1.05-.02-1.95.57-2.9.95-.02 14.09 0 28.21 0 42.3 14.07 0 28.14 0 42.23.02 0-.01.01-.02.01-.02.42-.89.96-1.79 1.01-2.8-.12-1.05-.98-1.78-1.64-2.52"/><path d="M216.18 129.24c-.88-.02-1.54-1.02-1.24-1.85.21-.71.76-1.38.66-2.16-.29-.71-.9-1.19-1.42-1.74-6.2-6.18-12.38-12.36-18.56-18.54-1.71-1.78-3.54-3.42-5.18-5.27 3.11-2.99 6.13-6.08 9.2-9.15 7.72 7.63 15.35 15.35 23.05 23.01.71.69 1.36 1.5 2.21 2.04.64.31 1.33-.12 1.95-.33V50.86c-3.18 3.21-6.42 6.37-9.55 9.6-1.4-1.16-2.57-2.59-3.95-3.78.33-.57.69-1.14 1.07-1.69 1.43-2.26 2.38-4.85 2.71-7.49.5-3.87-.24-7.84-1.9-11.36-.55-1.23-1.16-2.59-.81-3.97.28-.69.9-1.19 1.54-1.5.97-.45 2.14-.07 2.85.67 2.69 2.66 5.32 5.37 8.03 8.03V.83c-8.01.01-16.04 0-24.06 0-5.14 0-10.27 0-15.41.02 2.73 2.78 5.51 5.51 8.27 8.29.59.55.93 1.45.57 2.21-.43 1.09-1.35 2.19-2.59 2.26-1.26-.12-2.3-.88-3.42-1.35-2.95-1.28-6.18-2.12-9.39-1.78-3.57.26-6.84 1.85-9.74 3.85-1.26-1.31-2.59-2.54-3.85-3.87 3.18-3.21 6.42-6.39 9.58-9.6-4.51-.02-9.02-.02-13.54-.02H.53c0 58.77-.02 117.57 0 176.34 5.23-5.3 10.55-10.53 15.78-15.83.76-.78 1.76-1.43 2.87-1.5 1.62-.12 3.11 1.62 2.66 3.21-.36 1.26-1.33 2.38-1.28 3.75.29 1.17 1.26 1.95 2.07 2.76 12.07 12.07 24.15 24.17 36.24 36.24.59.57 1.26 1.21 2.14 1.28 1.38 0 2.47-1.05 3.8-1.31 1.59-.33 3.21 1.26 2.99 2.85-.14 1.38-1.12 2.42-2.07 3.33l-15.18 15.19h64.33c.33-.67.74-1.52.14-2.19-1.31-1.52-2.83-2.85-4.23-4.33-5.59-5.58-11.17-11.15-16.73-16.76-.47-.43-1-.95-1.66-.9-.76.17-1.4.67-2.16.76-.85-.05-1.66-.88-1.52-1.76.31-.9 1.02-1.54 1.66-2.21 3.04-2.97 5.99-6.04 9.05-8.98q14.04 14.07 28.11 28.11c-2.76 2.76-5.51 5.49-8.27 8.25h107.56V119.61c-2.9 2.9-5.82 5.8-8.72 8.72-.48.53-1.15 1.05-1.93.91m-.67-37.05c.93.88.26 2.64-.97 2.83-1.14.17-2.02-.74-2.9-1.33-2.35-1.62-5.13-3.14-8.08-2.64-.79-.71-1.54-1.45-2.19-2.28 1.83-1.76 3.59-3.57 5.37-5.35 2.95 2.9 5.87 5.82 8.77 8.77m-27.87-73.48c.48-.88 1.38-1.69 2.45-1.55 1.19.1 2.04 1.07 2.83 1.85 4.75 4.77 9.5 9.53 14.26 14.28.9.88 1.97 1.73 2.19 3.04.12 1.35-1.12 2.57-2.42 2.71-1.09.02-2.09-.57-3.04-1.09-2.02-1.19-4.3-2.14-6.7-2.02-1.24-.02-2.42.47-3.54.97-1.31-1.4-2.8-2.66-4.04-4.11.38-1.07.88-2.09.95-3.23.17-2.59-.88-5.06-2.19-7.22-.68-1.07-1.2-2.4-.75-3.63m-41.09 12.43c5.75-5.75 11.5-11.5 17.23-17.25.21-.24.59-.45.81-.09 16.57 16.54 33.13 33.1 49.67 49.67-5.81 5.81-11.62 11.62-17.42 17.44-.76.71-1.69 1.31-2.73 1.38-1.45.12-2.9-1.19-2.78-2.66.05-1.45 1.28-2.57 1.31-4.04.05-.93-.66-1.61-1.26-2.26-12.29-12.26-24.55-24.55-36.84-36.84-.69-.67-1.45-1.5-2.49-1.43-1.54.02-2.71 1.45-4.28 1.28-.9.02-1.64-.69-2.09-1.43-.63-1.28-.06-2.82.87-3.77m-7.35 7.34c.64-.64 1.45-1.12 2.35-1.24 1.59-.24 3.26 1.31 2.95 2.92-.21 1.43-1.4 2.57-1.31 4.07.24 1.04 1.09 1.76 1.78 2.49 12.15 12.12 24.29 24.22 36.39 36.36.67.59 1.33 1.38 2.28 1.38 1.43 0 2.52-1.07 3.87-1.31 1.57-.26 3.11 1.28 2.92 2.85-.09 1.07-.74 2-1.47 2.73-6.11 6.08-12.19 12.22-18.3 18.3-.78.78-1.78 1.5-2.95 1.5-1.28.07-2.52-1.02-2.69-2.28-.17-1.66 1.38-2.9 1.33-4.56-.07-.78-.62-1.42-1.14-2-10.67-10.65-21.32-21.32-31.99-31.96 8.82 16.37 17.71 32.7 26.52 49.08.14.24.26.5.38.78-.64.59-1.26 1.23-1.88 1.88-17.66-8.7-35.29-17.49-52.93-26.21-2.78-1.38-5.54-2.99-8.67-3.37-1.05-.14-1.76.71-2.52 1.26-.78.62-1.83 1-2.8.69-1.17-.52-1.97-1.9-1.62-3.16.24-.85.83-1.57 1.45-2.19 5.7-5.68 11.38-11.38 17.09-17.04 8.89 4.35 17.8 8.6 26.71 12.95.28.21.59.43.85.71.14-.17.26-.33.4-.5l-.33.05c-4.68-8.91-9.6-17.7-14.28-26.62 5.92-5.85 11.74-11.72 17.61-17.56m.45 134.06c-.28-1.21-1.09-2.21-1.5-3.35-.38-.97.52-2.12 1.54-1.95.48.12.83.43 1.16.76 2.49 2.52 5.02 4.99 7.49 7.51.81.83 1.85 1.55 2.19 2.73-.31.52-.64 1.24-1.35 1.31-1.17.12-2.02-.81-3.07-1.19a5.08 5.08 0 0 0-4.59.03c-.76-.76-1.5-1.52-2.26-2.26.54-1.12.78-2.4.39-3.59m2.19-7.27c-.62.07-1.19-.31-1.74-.55-2.18-1.07-4.71-1.59-7.1-.97-1.52.31-2.85 1.16-4.18 1.95-.71-.74-1.42-1.47-2.16-2.18 2.83-2.78 5.58-5.66 8.46-8.39 2.54 2.57 5.11 5.11 7.65 7.68.85.82-.05 2.08-.93 2.46m-26.88-17c-11.74-11.76-23.53-23.53-35.27-35.29-1.07-1.09-2.42-1.97-3.97-2.09-1.26-.17-2.5.28-3.68.71-.48.26-.78-.33-1.09-.57-.95-1.02-2-1.95-2.95-2.99 0-.07-.02-.21-.02-.29a31.8 31.8 0 0 1 10.86-6.11c4.73-1.52 9.86-1.69 14.73-.69 8.27 1.76 15.59 6.61 21.44 12.62 5.73 5.8 10.29 13.07 11.83 21.17.86 4.44.67 9.1-.62 13.45-1.26 4.3-3.54 8.27-6.42 11.69-1.24-1.31-2.59-2.52-3.78-3.85 0-.64.4-1.19.52-1.81.66-2.07.01-4.43-1.58-5.95m21.15-13.52c.45-1.54 1.07-3.11.81-4.73-.38-2.71-1.93-5.11-3.64-7.18-6.44-6.46-12.9-12.91-19.37-19.39-1-1.05-2.09-2-3.04-3.11 1.09.36 2.09.9 3.11 1.43 3.83 1.85 7.63 3.78 11.48 5.66.33.17.64.43.93.69 3.23 3.28 6.49 6.51 9.74 9.77a16.9 16.9 0 0 0 6.37 4.23c1.69.64 3.59.64 5.28.05.86-.28 1.78-.62 2.69-.33.92.38 1.55 1.24 1.64 2.23-.07 1.31-.9 2.4-1.78 3.3-2.91 2.95-5.84 5.87-8.79 8.77-.78.71-1.69 1.45-2.78 1.57-1.58.22-3.12-1.44-2.65-2.96M108.33 44.9c-.26-.76-.83-1.64-.33-2.4.43-.78 1.64-.88 2.21-.21 2.4 2.42 4.85 4.85 7.27 7.27-2.71 2.73-5.43 5.45-8.17 8.15-.62-.71-1.45-1.28-1.93-2.11.78-1.33 1.62-2.69 1.83-4.25.4-2.18.05-4.46-.88-6.45m-4.3-1.64c.45.5 1.09.95 1.14 1.69.09.74-.62 1.45-1.38 1.38-1 0-1.76-.78-2.66-1.12-1.33-.62-2.95-.66-4.25.05-.69-.69-1.38-1.4-2.09-2.04.31-1.05.6-2.16.33-3.26-.19-1.23-1.05-2.19-1.43-3.33-.31-.78.24-1.73 1.07-1.85.62-.09 1.12.38 1.54.78 2.57 2.56 5.14 5.15 7.73 7.7m-13.29-19.9c2.45 2.38 4.82 4.78 7.23 7.18.78.76.07 2.04-.81 2.35-.74.09-1.38-.4-2.04-.64-2.57-1.26-5.75-1.4-8.32-.02-.67.28-1.21.85-1.93.97-.71-.57-1.31-1.28-1.97-1.9 2.57-2.71 5.28-5.25 7.84-7.94M71.35 43.49c.05-.57.38-1.07.78-1.47 3.04-3.07 6.13-6.08 9.15-9.2 3.49 3.38 6.87 6.87 10.31 10.27 5.4 5.37 10.77 10.79 16.18 16.16-3.09 3.12-6.19 6.23-9.32 9.32-.64.71-1.92 1.02-2.54.14-.76-.81.07-1.81.31-2.64.29-.62-.21-1.16-.62-1.59q-9.33-9.3-18.63-18.63c-.57-.52-1.05-1.16-1.73-1.52-.95-.21-1.69.64-2.61.69-.71-.08-1.37-.79-1.28-1.53M58.71 55.45c3.11-3.16 6.27-6.25 9.39-9.39.48-.5 1-1.02 1.69-1.19.69-.14 1.54.29 1.64 1.05.17.83-.45 1.52-.62 2.33-.1.64.43 1.09.81 1.52 6.35 6.34 12.67 12.69 19.01 19.01.43.4.88.9 1.5 1.05.76-.07 1.4-.57 2.14-.74.9-.1 1.73.88 1.45 1.73-.12.64-.62 1.12-1.05 1.57-3.09 3.09-6.18 6.18-9.27 9.24-.55.55-1.26 1.12-2.07.93-.45-.19-.83-.55-1-1-.24-1.05.88-1.9.62-2.95-.24-.4-.57-.71-.88-1.04-2.9-2.88-5.77-5.8-8.7-8.67q-1.53 1.56-3.09 3.09c-.71-.69-1.43-1.38-2.09-2.11 1.04-1.02 2.07-2.07 3.11-3.09-2.57-2.52-5.11-5.09-7.65-7.63-.55-.52-1.02-1.09-1.66-1.47-1.16-.38-2.28 1.26-3.4.36-.9-.65-.62-1.94.12-2.6M45.64 68.52c3.09-3.09 6.18-6.18 9.24-9.27.33-.31.64-.62 1.05-.86.71-.45 1.78-.17 2.11.64.33.97-.55 1.81-.57 2.76-.02.5.38.85.69 1.19 6.58 6.58 13.14 13.17 19.73 19.73 1.19 1.28 2.71-.93 3.99.02.83.67.55 1.97-.17 2.59-3.09 3.11-6.2 6.18-9.27 9.29-.5.48-1 1.05-1.69 1.26-.76.21-1.69-.26-1.78-1.07-.14-.95.71-1.69.67-2.61-.12-.4-.38-.74-.67-1.04q-9.345-9.315-18.66-18.66c-.59-.55-1.09-1.24-1.88-1.52-.85-.05-1.57.59-2.4.69-.71.02-1.33-.62-1.36-1.31-.05-.74.47-1.33.97-1.83m-6.89 6.87c1.43-1.38 2.8-2.8 4.23-4.21 2.5 2.42 4.94 4.94 7.44 7.39.43.47.95.9 1.19 1.52.29 1.16-1.04 2.45-2.21 1.92-1.16-.52-2.09-1.45-3.21-2.07-1.88-1.16-4.06-1.9-6.3-1.64-.64-.67-1.35-1.28-1.92-2 .18-.37.49-.63.78-.91M28.39 85.75c2.66-2.61 5.28-5.25 7.91-7.89 4.99 5.02 10 10.03 15.02 15.02 2.76 2.73 5.44 5.51 8.22 8.2.78.88 1.83.14 2.69-.17.86-.38 1.85.38 1.83 1.28 0 .62-.36 1.14-.76 1.57-3.23 3.21-6.42 6.42-9.62 9.62-.45.45-1.02.9-1.69.85-.74.07-1.45-.64-1.38-1.35.05-.76.64-1.38.64-2.14.05-.64-.5-1.05-.88-1.47-7.58-7.53-15.09-15.14-22.7-22.65.24-.3.45-.59.72-.87m-7.47 7.44c1.71-1.62 3.3-3.35 5.04-4.94.88.33 1.43 1.33 2.14 1.95-.38 2.76.93 5.35 2.47 7.51.45.69 1 1.33 1.28 2.11.31 1.05-.71 2.14-1.76 2.02-.59 0-1-.5-1.38-.85-2.58-2.62-5.2-5.19-7.79-7.8m70.73 92.87-18.42 18.42c-.81.78-1.81 1.47-2.97 1.47-1.43.05-2.76-1.31-2.64-2.76.14-1.42 1.33-2.57 1.36-4.04-.05-.88-.74-1.54-1.28-2.16-5.47-5.49-10.96-10.93-16.4-16.4-.21-.17-.5-.64-.81-.31-1.9 1.83-3.73 3.76-5.63 5.59-1.28-1.28-2.57-2.57-3.85-3.87 1.84-1.93 3.73-3.81 5.66-5.66 0-.1.02-.31.02-.4-5.16-5.06-10.22-10.2-15.35-15.3-.78-.74-1.52-1.66-2.61-1.92-1.5-.1-2.66 1.07-4.06 1.33-1.81.31-3.45-1.73-2.83-3.42.31-1.19 1.26-2.04 2.09-2.85 5.94-5.97 11.91-11.88 17.82-17.85.71-.69 1.64-1.21 2.64-1.28 1.64-.1 3.14 1.61 2.68 3.21-.36 1.21-1.23 2.28-1.28 3.59.1 1.14 1.05 1.95 1.81 2.71l36.6 36.6c.57.55 1.21 1.09 2.02 1.16 1.38 0 2.45-1.02 3.75-1.33 1.57-.31 3.14 1.12 3.07 2.68-.06 1.06-.66 2.03-1.39 2.79m-.91-16.37c-8.34-1.83-15.68-6.85-21.55-12.95-5.42-5.68-9.79-12.64-11.34-20.42-1.04-5.16-.71-10.62 1.14-15.57 1.31-3.64 3.37-6.96 5.82-9.93 1.21 1.24 2.5 2.42 3.68 3.68.24.76-.38 1.47-.5 2.23-.62 2.04.19 4.28 1.69 5.75 11.55 11.57 23.12 23.12 34.7 34.7 1.12 1.21 2.47 2.35 4.18 2.61 1.52.24 3.02-.29 4.42-.81 1.28 1.28 2.57 2.54 3.85 3.83-2.8 2.45-6.06 4.37-9.53 5.73-5.22 2.03-11.06 2.36-16.56 1.15m38.48 47.55q-1.095-1.065-2.16-2.16c.43-.81.93-1.66.78-2.61-.24-1.43-1.21-2.59-2.19-3.57l-16.04-16.04c-1.09-1.07-2.33-2.23-3.94-2.35-.88-.09-1.66.36-2.4.78-.69-.76-1.64-1.33-2.07-2.28 2.61-2.69 6.18-4.56 9.96-4.8 4.23-.36 8.44 1.16 11.93 3.47 2.73 1.83 5.28 3.95 7.22 6.58 2.33 3.11 3.76 6.92 3.78 10.84.07 4.47-1.68 8.98-4.87 12.14m14.28-14.26c-.45.5-1.09.79-1.69 1.05-.59-.21-1.33-.43-1.52-1.09-.36-1.12.81-2 .67-3.09-.48-.93-1.31-1.59-2.02-2.33l-17.33-17.33c-1.02-.95-1.88-2.09-3.09-2.8-1.21-.24-2.3 1.31-3.47.47-1-.64-.71-2.07.05-2.78 3.28-3.33 6.61-6.58 9.89-9.89 5.32 5.25 10.58 10.6 15.92 15.85 4.09 4.06 8.13 8.18 12.24 12.22-3.18 3.28-6.46 6.47-9.65 9.72m11.25-11.36c-.69-.74-1.43-1.45-2.14-2.19 2.54-3.14 2.9-7.68 1.19-11.29-.31-.86-.97-1.9-.36-2.76.5-.76 1.71-.88 2.3-.17 2.57 2.59 5.18 5.16 7.72 7.77-2.92 2.87-5.72 5.86-8.71 8.64m21.31-21.2c-3.35 3.3-6.65 6.65-10 9.96-.74.81-2.12.4-2.57-.5-.66-1.12 1.14-2.31.19-3.33-6.9-6.87-13.78-13.76-20.65-20.65-.5-.45-.93-1.02-1.52-1.33-1.02-.29-1.83.57-2.78.69-.74-.07-1.45-.71-1.4-1.47-.07-.83.55-1.47 1.07-2.02 3.16-3.14 6.32-6.3 9.46-9.43 2.85 2.66 5.54 5.51 8.34 8.25 5.32 5.35 10.67 10.69 16.02 16.04.38.31.74.74 1.23.83 1.02.1 1.83-.9 2.85-.71.62.21 1.19.81 1.12 1.5 0 .91-.79 1.55-1.36 2.17m13.76-19.08c-3.83.17-7.58-1.19-10.77-3.18-2.31-1.47-4.42-3.26-6.18-5.32.83 2.78.64 5.9-.67 8.51-1.28 2.57-3.28 4.66-5.25 6.68-.71-.71-1.45-1.45-2.19-2.16.62-1 1.02-2.19.64-3.35-.45-1.19-1.43-2.04-2.28-2.95-1.77-1.79-3.54-3.57-5.32-5.35-1.04-.97-2.16-2.09-3.66-2.19-.88-.09-1.66.36-2.4.78-.74-.71-1.45-1.45-2.19-2.16 2.85-2.88 6.11-5.85 10.29-6.37 3.42-.57 6.87.9 9.29 3.26-1.52-3.04-2.47-6.46-2.14-9.91.29-3.61 1.88-7.06 4.26-9.77.69.71 1.43 1.43 2.14 2.14-.26.86-.67 1.76-.43 2.66.14.81.69 1.45 1.26 2.02 6.27 6.25 12.5 12.52 18.77 18.77.74.71 1.45 1.57 2.49 1.85.95.26 1.93-.07 2.85-.36.71.71 1.45 1.43 2.14 2.19-2.97 2.47-6.7 4.21-10.65 4.21m12.34-5.9c-.69-.71-1.5-1.35-2.09-2.16.12-.88.55-1.73.33-2.61-.24-1.14-1.12-1.95-1.9-2.73-6.27-6.25-12.52-12.5-18.77-18.75-.62-.62-1.35-1.19-2.23-1.26-.83-.1-1.66.14-2.42.4-.74-.69-1.47-1.43-2.19-2.14 3.16-2.71 7.27-4.44 11.48-4.23 1.62-.05 3.18.33 4.75.69-1.9-1.97-3.92-3.83-5.75-5.85 1.78-1.78 3.59-3.57 5.37-5.37.78.64 1.47 1.4 2.21 2.11-.31 2.38.5 4.73 1.73 6.72.64 1.14 1.57 2.11 2.14 3.3.31.57.1 1.21-.12 1.78 3 2.03 5.61 4.57 7.72 7.51 2.4 3.4 4.09 7.44 3.99 11.67.03 4.03-1.71 7.88-4.25 10.92m24.69-25.83v-4.37z"/></svg>