<svg xmlns="http://www.w3.org/2000/svg" xml:space="preserve" viewBox="0 0 360 180"><path d="M297 103.4h10.9V64.5H297zm27-38.9v38.9h-10.9V64.5zM59.3 79.6h-8.8V64.5H36v38.9h14.5V84.1h8.8v19.3h14.5V64.5H59.3zm68-.6-.9-2.6h-11.9v27h11.9V87.2c0-3.5 2.3-5.5 4.2-5.5 1.6 0 3.7.3 3.7 3.9v17.9h11.9V85.9c0-9.8-11-13.7-18.9-6.9m122.3 13.1L244 76.4h-8.1l-5.6 16.3-5.8-16.3h-15.9l-5.7 13.8-8-13.8h-13.6l16 27.4-2.1 5.1c-.7 1.6-2.5 1.7-2.8.2 0-2.8-2.2-5-5-5s-5 2.2-5 5c0 2.9 2.9 6.7 8.6 6.4 5.7-.2 8.1-5 8.9-7l13.2-32 9.5 26.9h8.7l5.3-15.5 5.5 15.5h8.2l9.3-27h-4.7zM94.3 75c-9.1 0-16.5 6.8-16.5 15.1s7.4 15.1 16.5 15.1 16.5-6.8 16.5-15.1S103.4 75 94.3 75m4.1 22.2c0 2.3-1.8 4.1-4.1 4.1s-4.1-1.8-4.1-4.1V83.1c0-2.3 1.8-4.1 4.1-4.1s4.1 1.8 4.1 4.1z"/><path d="M182.6 92.3c.1-.6.1-1.5.1-2.2 0-8.4-7.4-15.1-16.5-15.1s-16.5 6.8-16.5 15.1 7.4 15.1 16.5 15.1c6.3 0 11.7-3.2 14.5-7.9l-3.6-1.3c-2.2 3.4-6.2 5.6-10.9 5.6-2.3 0-4.1-2.1-4.1-4.4v-4.9zm-20.5-9.2c0-2.3 1.8-4.1 4.1-4.1s4.1 1.8 4.1 4.1v5.4h-8.2zm130.7 9.2c.1-.6.1-1.5.1-2.2 0-8.4-7.4-15.1-16.5-15.1s-16.5 6.8-16.5 15.1 7.4 15.1 16.5 15.1c6.3 0 11.7-3.2 14.5-7.9l-3.6-1.3c-2.2 3.4-6.2 5.6-10.9 5.6-2.3 0-4.1-2.1-4.1-4.4v-4.9zm-20.4-9.2c0-2.3 1.8-4.1 4.1-4.1s4.1 1.8 4.1 4.1v5.4h-8.2z"/></svg>