<svg xmlns="http://www.w3.org/2000/svg" xml:space="preserve" viewBox="0 0 652 652"><path d="M270.1 308.8c-4.4 1-6.9 12.7-7.5 29.2-.5 16.6.7 31.3 6.7 30.1 6-1.3 6.5-16.7 6.9-33.3s-1.9-26.9-6.1-26m247.7-35.9c2.4-2.2 3.6-3.4 5.5-5.8s3.6-6.3 1.4-8.3c-2.4-2-5.9 1.1-8.2 6.9-2.3 5.7-2.1 11.7-2.1 11.7s.9-2.3 3.4-4.5m-29.4-5c2.4-2.9 4.5-7.7 1.8-10.2-2.9-2.5-7.2 1.3-10.1 8.3s-2.7 14.4-2.7 14.4 1.1-2.8 4.2-5.5c3-2.7 4.5-4.1 6.8-7"/><path d="M505.6 238.8c-51.9-5-141.2 16.2-214.9 32.4-59 13-107.1 21.1-139.3 19.9-18.1-1.2-35.9-6.4-50.1-18 2.2 5.6 13.2 21.4 17.9 23.1-18.8 1.5-38.2 3.7-56.9-.3-14.9-3.2-31.4-8.6-43.2-19.6 9.1 16.9 23 32.6 38.3 44.1 27.4 20.6 65.5 20 96.8 9.9.6-.2 6.9-2 10.3-2 8 .3 13.9 5.9 9.3 19-3.9 9.8-11.7 17.5-20.8 17.7-12.1 0-12.9-9.6-26.7-9.1-24.1-.6-39.6 10-72-8.1 6.6 6.5 44.6 48.2 126 56.8 20.8 2.2 44 .4 54.9-.8 70.6-7.4 125.7-31.4 174.3-52.6 41.2-18.6 90.7-37.9 127.7-39.9 31.1-2.5 55.2 7.5 64.5 26.8 4.2 8.6 5.2 18.5 3 28.7 31.2-44.4 17.6-119.1-99.1-128M218.4 396.3s2.6-8.4 3.1-22.6c.5-11.7-1.3-21.5-5.6-20.9-3.2.5-6.8 11.6-7.1 21.4-.3 13 2.5 22.5 2.5 22.5-9.9.3-28 .6-50.8-3.9 3-.4 28.7-15 32-45.2 3.6-33.7-26-42.5-39.5-48.1 19.4.6 32.9-.5 61-4.7 0 0-3.5 5.5-3.5 20.7 0 13.9 3 21.2 5.7 21.2 3.2 0 6.3-7.2 6.8-22 .6-15.1-2-20.9-2-20.9 13-2.3 21.8-3.5 43.9-8.4-14.1 8.9-24.6 31.6-25.9 55.1-.3 4.9-2.4 39.3 23 50.7-16.6 2.6-34.7 4.8-43.6 5.1m50.4-13.3c-16.9 2.8-25.8-23.9-23.6-42 1-25.1 10.3-42.8 24.8-46.8 13.7-3.7 24.6 11.9 24 36.5-.7 24.7-7.3 48.3-25.2 52.3m31.5-7.5c-10.1 3.2-8.8-3.4-7-7.5 6-15.7 6.1-23.4 7-33.4.9-10.4-1.6-41.2-18.5-46.6 16.1-4.4 29.6 4.2 35 16.3.6 1.5 1.4 1.8 2.1 1.8 1.5 0 11.1-1.7 14.4-5.7 0 0 3.3 12.1-10.9 19.3 0 0-2 1-2 3.1 0 2-1 12.4-1.6 15.2-.2 1.3-1.3 4 1.2 4.1 2.1.1 8.3-1.4 12.1-12v-.3.3c-2.9 23.4-17.3 40.7-31.8 45.4m102.5-30.7-14.5 6.5s-4.4-2.6-8.2-12.5c-3.9-10-2.6-15.4-2.6-15.4s-5.1 3.8-8.6 17c-3.3 12.2-.6 19.1-.6 19.1s-9.4 3.8-19 7.4c-8.8 3.4-17.2 6.2-17.2 6.2 3.9-4.9 16.8-23.8 15.4-55.1-1.7-34.2-26.4-42.2-31.9-43.5 5.6-1.2 31.7-6.9 37.8-8.2 2.9 1.6 9.8 6.6 13.1 19.4 3.5 13.9 0 27.6 0 27.6s4.4-3.4 7.8-9.8c4.4-8.2 4.8-15.7 4.8-15.7s3.7 1.3 7.4 6.6c4 5.6 3.4 10.5 3.4 10.5s5.6-9.4 4.4-20.3c-1.8-16-11.4-21.7-15.8-23.6 4.1-.8 22.4-4.3 24.7-4.7 2 2.3 5.8 7.8 8.9 17.3 5.8 18.4-1.3 33.8-7 46.4-6.8 14.9-2.3 24.8-2.3 24.8m40.7-17.3c3.8-9.6 0-30.8-4-29.5-4.6 1.5-7 19.5-3.4 32.5-7.6 3.1-21.2 9-29 12.5 13.2-25.5 24.1-61.1.9-87.5 6.7-1.2 21.9-3.6 27.2-4.4-3 11.8-.6 31.4 3.5 30.4 5-1.2 7-18.8 5.6-31.7 5.4-.7 20.9-2.2 26.7-2.6-24.8 25.3-13.7 64.6-.8 70.4-10.1 3.5-19.7 6.9-26.7 9.9m40.9-29.2c5.7-.4 11.9-11.5 11.9-11.5s.6 24.2-16.2 27.5c-9.6 1.9-14.6-6.2-17.1-14.9-3-10.2-1-31.1 9.4-43.2 9.5-11.1 19.4-11.3 24.8-7.9 5.8 3.6 5.8 9.2 2.9 17.4s-10.7 13.8-17.5 20.2c-5.6 5.2-4.1 12.7 1.8 12.4m33.1 6.7c-8.4 2.2-12.8-3.2-15.2-11.6-2.4-8.3-.6-25.6 7.8-35.5 7.6-9.1 15.8-9.5 20.2-6.7 4.7 2.9 4.8 7.5 2.5 14.1-2.3 6.7-8.6 11.3-14.1 16.5-4.6 4.4-4 10.3 1.7 9.9 6-.5 13.2-9.2 13.2-9.2s-3.4 19.1-16.1 22.5m44.8-1.6c-9.8-1.6-20.2-1.4-31.4-.3 9-10.9 11.9-36.4 7.8-50.8 7.6 1.7 12.2 3.4 16.3 4.8-16.4 46.9 4.2 35.3 7.9 26.2zm27.1-1.2c-.8 3.1-2.9 5.1-6 5.6-1.9.3-4.1.1-6.2-.6-3.6-1.1-6.2-2.1-9.3-3.3l.2-12.4c1.5 3.2 6.2 7 8.8 6.6.7-.1 1.3-.6 1.4-1.3.2-1.1-.3-2.4-1.6-3.8s-3.6-3.7-5.5-5.8c-8.6-9.5-5-16-3-17.7 2.9-2.5 6.4-1.9 7.8-1.6 5.2 1 9.4 5.4 11.3 9.8 1.1 2.5 1.9 5.3 1.4 8.3-1.2-3-8.7-11.5-11.4-8.1-1.8 2.2 2.5 5.5 6.9 9.4 5.9 5.3 6.7 9.3 5.2 14.9m4.6 11.1h-1.1l.9-5h-1.4l.1-.9h3.9l-.1.6-.3.3h-1.1zm7.8-.5-.1.5h-1.1l.4-3.9h-.1l-1.5 3.1h-1l-.4-3.1h-.1l-1 3.9h-1.1l.1-.5 1.5-5.4h1.3l.5 3.3h.1l1.6-3.3h1.3z"/></svg>