<svg xmlns="http://www.w3.org/2000/svg" xml:space="preserve" viewBox="0 0 72 72"><path d="M64.795 35.958c0-15.94-12.903-28.843-28.843-28.843h-1.328l-5.882 16.13h5.123c3.036 0 4.744 2.277 3.605 5.313l-7.21 19.924h-6.072l7.78-21.442h-4.555l-7.78 21.442h-6.072l9.109-25.238 5.502-15.18C16.028 11.48 7.11 22.675 7.11 35.768c0 13.663 9.487 25.048 22.201 28.084l5.313-14.611 9.488-25.997h11.195c3.037 0 4.744 2.278 3.606 5.314L52.65 46.205c-.57 1.328-2.087 2.467-3.416 2.467h-8.16L35.194 64.8h.95c15.749 0 28.652-12.903 28.652-28.843"/><path d="M53.438 27.148h-4.554l-6.451 17.647h4.554z"/></svg>