<svg xmlns="http://www.w3.org/2000/svg" xml:space="preserve" viewBox="0 0 72 72"><path d="M31.83 14.29c-.8.1-2.9.5-2.9.5-4.7 1.2-5.8 5.5-5.8 5.5-.2.7-.3 1.4-.4 2.1v.9c.1 1.5.4 2.5.4 2.5 1.6 6.9 9.3 18.4 10.9 20.7.1.1.2.1.2.1.2-.1.2-.2.2-.2 2.6-25.3-2.6-32.1-2.6-32.1m8.4 0s-5.2 6.8-2.7 32.2c0 .2.1.2.1.2.2.1.3-.1.3-.1 1.7-2.5 9.4-13.8 10.9-20.7 0 0 .8-3.3 0-5.6 0 0-1.2-4.3-5.9-5.5.1.1-1.3-.3-2.7-.5m-24.2 7.7s-4.5 4.2-4.7 8.7v.9c.2 3.6 2.9 5.8 2.9 5.8 4.4 4.3 15 9.7 17.5 10.9 0 0 .2.1.2 0l.1-.1v-.1c-6.8-14.9-16-26.1-16-26.1m40 0s-9.2 11.2-16 25.9c0 0-.1.2.1.3h.3c2.5-1.3 13.1-6.6 17.5-10.9 0 0 2.8-2.2 2.9-5.8.1-5-4.8-9.5-4.8-9.5m8.3 14.6s-15 8.1-22.8 13.3c0 0-.1.1-.1.3 0 0 .1.1.2.1h13.6s1.4-.1 3.1-.7c0 0 3.8-1.2 5.7-5.5 0 0 .9-1.8.9-4.3v-.1c-.1-.9-.3-2-.6-3.1m-56.6.1c-1.4 4.2.5 7.7.5 7.7 1.9 4.1 5.6 5.3 5.6 5.3 1.7.7 3.4.7 3.4.7h13.3c.1 0 .2-.1.2-.1v-.2c0-.1-.1-.1-.1-.1-7.9-5.3-22.9-13.3-22.9-13.3m22.4 15-17.7.6c1.9 3.4 5.2 6.1 8.5 5.3 2.3-.6 7.6-4.3 9.3-5.5.1-.1.1-.2.1-.2 0-.2-.2-.2-.2-.2m11.7 0s-.2 0-.2.1c0 0 0 .2.1.2 1.7 1.2 6.8 4.8 9.3 5.5 0 0 .4.1 1 .1h.4c1.7-.1 4.5-.9 7.2-5.4z"/></svg>