<svg xmlns="http://www.w3.org/2000/svg" xml:space="preserve" viewBox="0 0 360 180"><path d="M222.4 79.6s-.1-1.8-3.3-3.8c-3.2-1.9-5.8-3.7-14.8-3.7s-13.3 2.2-15.7 3.7c-2.4 1.4-8.4 7.4-10 13.8 0 0 4.5 1.8 4.6 4.6.2 5.1-.7 9.7-1.2 12.6-.4 2.2-.9 4.7-.9 4.7 3.7 4.6 8.3 8.3 14 10.3 4.6 1.5 11 1.5 17.9.1 7-1.5 8.6-3.8 10-6.1.7-1.2.9-3.2.8-5.1s-.2-11.3-.2-11.3 0-1.4-.6-2.5c-.8-1.5-1.9-3.5-6.4-3.9-2.4-.2-9.2-.1-10-.1-1.1 0-2.7.6-3.8 1.8s-1.2 2.8-1.2 4.3c.1 1.5.1 4.2 2 5.7 1.2 1.1 2.1 1.1 2.4 1.1.2 0 .8.5.8 1.2 0 .8.1 1.8-1.8 1.8-1.8 0-5.1-.5-6.6-1.8-1.5-1.4-3.2-2.7-3.7-7.4s2.1-10.7 5.2-12.3c3-1.5 6.3-1.4 7.3-.9 1.1.5 2.1 1.1 4.2 2.1 2.4 1.2 4.6.2 5.9-1.2 1.9-1.2 5.5-6.2 5.1-7.7M243 115l-.2-36.7s0-2.4-1.2-3.8-2-1.8-3.9-1.8c-1.8-.1-5.5 0-6.4 0-.9.1-3.1.5-4.2 2.1-.9 1.4-1.2 2.6-1.2 7.4 0 5 .5 32 .5 32s0 2.6.4 3.7 1.9 2.4 2.6 2.8c.7.5 1.9.8 4.6.9 2.6 0 4.9 0 6.3-.9 1.2-.9 2.8-2.4 2.7-5.7m33.5-32.8s.6-4.2-.2-6.8c-.6-1.9-2.7-2.8-9.9-2.7s-13 0-14.6.2c-1.5.1-3.9.9-4.7 2.5-1.1 1.5-1.1 4.2-.8 8.9.1 4.7.4 21.5.4 24s-.1 6.1 0 6.8c0 .6-.4 2.4 1.4 4.5 1.8 2 3 2.1 3.3 2.2.2.1 1.8.2 3.7.2h17.2s3.2.1 4.6-1.8c.9-1.4 1.1-3.5 1.1-4.2s.1-3.4-.6-4.6-1.5-1.8-4.5-1.9c-.6-.1-10-.1-10-.1l-.1-6.3h6.1s1.5 0 2.7-1.1 1.5-2.2 1.5-3.3c0-.9-.1-4.9-.1-4.9s0-3-3.7-3.2c-1.5-.1-6.6-.1-6.6-.1V85H273c-.4-.1 3.4.1 3.5-2.8m19.4 2.7s1.1-2.6 4.9-1.8c3.8.7 5.8 2 6.6 2.7.7.7 1.9 1.8 3.2 1.4 1.2-.5 1.8-1.2 1.9-2.6.2-1.5 0-6 0-6s.1-2.1-1.5-3.5c-1.2-1.1-5.1-3.3-12.6-3.1-7.3.2-13.7 1.2-17.6 9.2 0 0-1.4 2.7-1.4 5.9s-.1 4.9 1.1 7c1.4 2.5 3.3 3.9 3.7 4.3.4.2 3 1.9 3.9 2.5 1 .6 7 3.4 8.5 4.3s3.1 2.2 2.2 4.2c-.6 1.2-2.1 1.9-5.2.8-3.1-1.2-4.9-2.7-5.4-3.1-.6-.4-2-1.2-4.1-.9-2 .5-4.1 5.4-4.5 6.3-.8 1.8-.8 3.1-.4 4.1.4 1.1 3.2 3.1 4.6 3.7s5.8 3.4 14.5 2.7c8.9-.7 13.4-6.8 14.5-9.4 1.2-2.7 1.9-6.3 1.5-9.8-.5-3.5-3.3-7.7-7-9.8-3.7-2-8.1-3.8-9.6-4.6-1-1.2-2.2-2.5-1.8-4.5M75.5 122.4c-1.4 0-2.5-.5-3.7-1.2-2.7-1.9-2.7-4.5-2.7-4.5L69 113v-.7s0-9.2-.1-14.9c-3.2 0-11.2 0-11.7.1 0 1.1.1 19.1.1 19.1 0 3.2-2.6 5.9-5.8 5.9h-8.6c-1.4 0-2.5-.5-3.7-1.2-2.7-1.9-2.7-4.5-2.7-4.5l-.1-3.7-.4-44.5c.2-7.2-1.1-11.6 7.7-11.8 4.2-.1 7.9-.4 9.8.2.6.1 1.5.6 1.9 1.1l.4.4.4.4c.9 1.5.9 2.1.9 3.8 0 0 0 12.4.1 17.6h11.5V68.6c.2-7.2-1.1-11.6 7.7-11.8h7.8c.5 0 1.8-.2 3.4 1.5q1.8 1.65 1.8 4.2v8.3l.1 38.2v7.3c0 3.2-2.6 5.9-5.8 5.9zm57.6-45.7c.1.6.7 5 .6 8.1-.1 3.2 0 21 0 21 0 4.5-1.8 8.4-4.9 11.6-3.9 3.9-9.4 6-15.8 5.9-2.8 0-9.3-.8-14.4-4.5-2.4-1.8-3.8-3.9-4.5-5.3-.7-1.5-1.5-5.9-1.5-7 0-1.2-.4-17-.2-19.6.1-2.6-.7-8.5 1.2-11 1.8-2.4 4.1-2.4 8-2.5s5.5 1.2 5.5 1.2h.1c.1.1.2.1.2.1s.1 0 .1.1c1.2 1.1 1.8 2.6 1.8 4.3l.1 26s.2 4.1 3.9 4.1c3.8 0 3.9-3.5 3.8-4.1l-.2-18.2c.1-2.6-.7-8.5 1.2-11 1.8-2.5 4.1-2.4 7.9-2.5 3.9-.1 5.7 1.2 5.7 1.2-.3-.2 1.2.9 1.4 2.1"/><path d="M180.8 97.8s-1.2 9.3-1.9 13c-.8 3.7-2.8 5.3-5.4 6.3-2.6.9-7.9 2.2-16.1.8-8-1.4-11.5-3.7-15.8-8-4.5-4.5-6.6-10-6.3-18.3.4-8 3.7-14 7.3-17.2 3.5-3.3 10.4-7.3 20.3-7s12 2.6 14.6 4.1c2.2 1.2 4.6 3.8 4.6 6 0 2.1-4.6 6.8-4.9 7.2-.2.5-2 1.9-3.8 1.8-1.8-.2-2.4-.9-2.8-1.5s-2.5-2.4-5.1-3.2c-2.7-.8-6.5.1-8.4 2-1.9 1.8-4.6 6.4-4.5 11.5s3 6.8 3 6.8c1.2 1.2 4.2 2.1 5.7 2.4 1.5.2 1.5-.9 1.8-1.9.1-1.1-.4-1.1-.4-1.1s-1.1-.1-2.4-1.1c-1.8-1.2-1.5-4.3-1.2-5.5.2-1.2.7-4.2 2-5.3 1.5-1.2 2.7-.9 5.4-.5 5.8 1.1 10.3 2.1 10.3 2.1s4.7.8 4 6.6m100.9-31.6v-5.3q0-.6.6-.6h2.1q2.1 0 2.1 1.8c0 .7-.5 1.2-1.2 1.4 1.1.2 1.4.8 1.4 1.5 0 1.2-.8 1.8-2.5 1.8h-2c-.3-.1-.5-.3-.5-.6m2.5-3.1c.8 0 1.2-.5 1.2-1.1 0-.7-.4-1.1-1.2-1.1h-1.5v2h1.5zm0 2.8c1.1 0 1.5-.4 1.5-1.1s-.5-1.1-1.4-1.1h-1.8v2h1.6zm8.5.5c0 .1-.1.5-.6.5-.2 0-.5-.1-.7-.5l-1.8-2.1h-.6v2.1c0 .2-.1.5-.5.5h-.1c-.2 0-.5-.2-.5-.6v-5.4q0-.6.6-.6h1.8c1.5 0 2.4.7 2.4 1.9s-.7 1.8-1.9 1.9zm-2.5-3c.9 0 1.4-.5 1.4-1.2q0-1.2-1.5-1.2h-1.4v2.2zm4.8 1.3-.6 1.5c-.1.4-.4.5-.6.5-.4 0-.6-.2-.6-.4l2.2-6c.1-.2.2-.4.7-.4s.7.1.7.4l2.4 6c0 .1-.2.4-.6.4-.2 0-.5-.1-.6-.5l-.6-1.5zm2.2-.7-1.1-2.7L295 64zm2.8 2.3v-5.6c0-.4.2-.6.5-.6h.1c.4 0 .5.1.7.4l3.2 4.6v-4.5c0-.4.1-.5.5-.5h.1c.2 0 .5.1.5.5V66c0 .4-.2.6-.5.6h-.1c-.4 0-.4-.1-.6-.4l-3.4-4.7v4.6c0 .4-.1.5-.5.5-.4.3-.5 0-.5-.3m7-.1v-5.3q0-.6.6-.6h1.5c2.1 0 3.5 1.2 3.5 3.2s-1.4 3.3-3.7 3.3h-1.5c-.2-.1-.4-.3-.4-.6m2-.4c1.5 0 2.5-.9 2.5-2.4s-.8-2.4-2.5-2.4h-1.2v4.6h1.2zm11.1 13.8c-2.4 0-4.1-1.8-4.1-4.1 0-2.5 1.8-4.1 4.1-4.1 2.1 0 3.9 1.5 3.9 4.1s-1.8 4.1-3.9 4.1m0-7.4c-1.8 0-3.2 1.4-3.2 3.4 0 1.8 1.2 3.4 3.2 3.4 1.8 0 3.2-1.4 3.2-3.4-.2-1.9-1.6-3.4-3.2-3.4m-.8 5.8h-.8v-4.6h1.8q1.8 0 1.8 1.2c0 .8-.5 1.2-1.2 1.2l1.2 2h-.8l-1.2-1.9h-.7v1.9zm.8-2.6c.6 0 1.1 0 1.1-.7 0-.6-.6-.6-1.1-.6h-.9v1.4z"/></svg>