<svg xmlns="http://www.w3.org/2000/svg" xml:space="preserve" id="layer" x="0" y="0" version="1.1" viewBox="0 0 360 180"><style>.st0{stroke:#fff;stroke-miterlimit:10}</style><path d="M273.9 68.3c.7 0 1.1-.4 1.1-.9q0-.9-1.2-.9h-1.1v1.8zm-4.8-.3c.6 0 1-.4 1-.9 0-.6-.3-.9-1-.9h-1.3v1.7h1.3zm0 2.3c.9 0 1.2-.3 1.2-.9s-.4-.9-1.1-.9h-1.4v1.7h1.3zm30.1 7.2c0-.5-.5-.5-.9-.5h-.7v1.1l.7-.1c.6.1.9.1.9-.5z" class="st0"/><path d="M298.4 75.5c-1.5 0-2.6 1.1-2.6 2.8 0 1.5 1 2.8 2.6 2.8 1.4 0 2.6-1.1 2.6-2.8-.2-1.6-1.3-2.8-2.6-2.8zm1 4.7-.9-1.6h-.6v1.6h-.8v-3.7h1.4c.9 0 1.4.3 1.4 1 0 .6-.4.9-.9 1l1 1.7zm-20.6-13.7-.9 2.2h1.8z" class="st0"/><path d="M323.8 58.8c-1.3-18.8-8.1-31.7-17.8-40.6-31.3-27.8-93.7-12.2-107.4-8-16.3 4.9-35.3 14.7-38.9 16.6 4.7-1.5 27.5-9.1 33.5-11.2 0 0 45.2-13.5 67.4 3.8 22.1 17.3-22.9 36.5-101.7 7.7-4.6-1.7-84.6-30.4-114 25.2-25.4 48.2 3.1 106.5 96.8 122.6 93.6 16.2 187.5-36.9 182.1-116.1zm-36.1 7.4c0-.3.2-.5.5-.5h1.3c1.8 0 2.8 1 2.8 2.6 0 1.7-1.1 2.7-3 2.7h-1.2c-.2-.1-.4-.2-.4-.5zM282 66c0-.3.2-.5.4-.5h.1c.3 0 .4.1.6.3l2.6 3.7v-3.7c0-.3.1-.4.4-.4h.1c.2 0 .4.1.4.4v4.5c0 .3-.2.5-.4.5h-.2c-.3 0-.3-.1-.5-.3l-2.8-3.9v3.8c0 .3-.1.4-.4.4-.3.2-.4 0-.4-.3V66zm-3.8-.3c.1-.2.2-.3.6-.3q.6 0 .6.3l2 4.9c0 .1-.2.3-.5.3-.2 0-.4-.1-.5-.4l-.5-1.2h-2l-.5 1.2c-.1.3-.3.4-.5.4-.3 0-.5-.2-.5-.3zm-6.2.5c0-.3.2-.5.5-.5h1.5c1.3 0 2 .6 2 1.6 0 .9-.6 1.5-1.6 1.6l1.5 1.9c0 .1-.1.4-.5.4-.2 0-.4-.1-.6-.4l-1.5-1.8h-.5v1.8c0 .2-.1.4-.4.4h-.1c-.2 0-.4-.2-.4-.5v-4.5zm-5 0c0-.3.2-.5.5-.5h1.8c1.1 0 1.8.5 1.8 1.4 0 .6-.4.9-.9 1.1.9.2 1.1.6 1.1 1.3 0 1-.6 1.5-2.1 1.5h-1.7c-.2-.1-.5-.2-.5-.5zm-157.4 45.3c0 2.6-2.1 4.8-4.7 4.8l-6.8.2c-1.1 0-2.1-.4-3-1-2.2-1.6-2.2-3.7-2.2-3.7l-.1-3v-.6s0-7.5-.1-12.2c-2.6 0-9.2 0-9.6.1 0 .9.1 15.6.1 15.6 0 2.6-2.1 4.8-4.7 4.8h-7c-1.1 0-2.1-.4-3-1-2.2-1.6-2.2-3.7-2.2-3.7l-.1-3-.3-36.3c.2-5.9-.9-9.5 6.3-9.7 3.4-.1 6.5-.3 8 .2.5.1 1.2.5 1.6.9l.3.3.3.3c.7 1.2.7 1.8.7 3.1 0 0 0 10.1.1 14.4h9.4v-9.5c.2-5.9-.9-9.5 6.3-9.7h6.4c.4 0 1.5-.2 2.8 1.2.9.9 1.5 2.1 1.5 3.4v6.8l.1 31.3v6zm36.2-25.7c-.1 2.6 0 17.2 0 17.2 0 3.7-1.4 6.9-4 9.5-3.2 3.2-7.7 4.9-13 4.8-2.3 0-7.6-.6-11.8-3.7-2-1.4-3.1-3.2-3.7-4.4s-1.2-4.8-1.3-5.8c0-1-.3-14-.2-16.1s-.6-7 .9-9 3.3-2 6.6-2.1c3.2-.1 4.5.9 4.5.9h.1c.1.1.2.1.2.1s.1 0 .1.1c1 .9 1.5 2.1 1.5 3.5l.1 21.3s.2 3.3 3.2 3.3c3.1 0 3.2-2.8 3.1-3.3l-.1-14.7c.1-2.1-.6-7 .9-9 1.5-2.1 3.3-2 6.5-2.1s4.7.9 4.7.9c-.2 0 1.1.9 1.2 1.9.1.6.6 4.2.5 6.7zm38.6 10.7s-.9 7.6-1.6 10.6c-.6 3-2.3 4.4-4.4 5.1s-6.5 1.8-13.2.6c-6.6-1.1-9.4-3-13-6.6-3.7-3.7-5.4-8.2-5.1-15 .3-6.6 3-11.5 5.9-14.1 2.8-2.7 8.5-6 16.6-5.7s9.8 2.1 11.9 3.3c1.8 1 3.8 3.1 3.8 4.9s-3.7 5.6-4 5.9c-.2.4-1.7 1.6-3.1 1.4s-2-.7-2.3-1.2-2.1-2-4.2-2.6c-2.2-.6-5.3.1-6.9 1.7-1.6 1.5-3.7 5.2-3.7 9.4.1 4.2 2.5 5.6 2.5 5.6.9.9 3.4 1.8 4.7 2 1.2.2 1.3-.7 1.5-1.6.1-.9-.3-.9-.3-.9s-.9-.1-2-.9c-1.5-1-1.2-3.5-1-4.5s.6-3.4 1.7-4.4c1.2-.9 2.2-.7 4.4-.4 4.7.9 8.4 1.8 8.4 1.8s3.9.8 3.4 5.6zm34.6 14.7c-1.1 1.9-2.5 3.8-8.2 5-5.6 1.1-10.9 1.2-14.7-.1-4.7-1.6-8.5-4.6-11.5-8.4 0 0 .4-2 .7-3.9.4-2.4 1.1-6.1.9-10.3-.1-2.4-3.7-3.8-3.7-3.8 1.3-5.2 6.2-10.2 8.2-11.3 2-1.2 5.4-3 12.8-3s9.5 1.4 12.1 3 2.7 3.1 2.7 3.1c.3 1.2-2.6 5.3-4.1 6.5-1 1.1-2.8 2-4.8.9-1.7-.9-2.5-1.4-3.4-1.8-.8-.4-3.5-.5-5.9.7-2.5 1.3-4.7 6.2-4.3 10.1s1.8 5 3 6.1 3.9 1.5 5.4 1.5 1.4-.9 1.4-1.5-.5-1-.6-1c-.2 0-.9 0-2-.9-1.6-1.3-1.6-3.5-1.7-4.7 0-1.3.1-2.5.9-3.5.9-1 2.2-1.5 3.1-1.5.7 0 6.3-.1 8.2.1 3.7.3 4.6 2 5.2 3.2.5.9.5 2.1.5 2.1s.1 7.7.2 9.3c.3 1.5.1 3.2-.4 4.1zm14.1 4.1c-1.2.7-3 .7-5.1.7-2.2-.1-3.2-.3-3.8-.7-.6-.3-1.8-1.4-2.1-2.3s-.3-3-.3-3-.4-22.1-.4-26.2c0-3.9.2-5 .9-6.1.9-1.4 2.7-1.7 3.4-1.8.7 0 3.7-.1 5.2 0 1.5 0 2.1.3 3.2 1.4 1 1.1 1 3.1 1 3.1l.2 30.1c.1 2.7-1.2 3.9-2.2 4.8zm30.8-3.9c0 .6-.2 2.3-.9 3.4-1.1 1.5-3.7 1.4-3.7 1.4h-14.1c-1.5 0-2.8-.1-3-.2s-1.3-.2-2.7-1.8c-1.4-1.7-1.1-3.2-1.1-3.7-.1-.6 0-3.5 0-5.6s-.2-15.8-.3-19.6c-.2-3.9-.2-6.1.6-7.3.7-1.4 2.6-2 3.9-2.1 1.3-.2 6.1-.1 11.9-.2 5.9-.1 7.6.6 8.1 2.2.7 2.1.2 5.6.2 5.6-.1 2.4-3.2 2.3-2.8 2.4h-8.4v4.7s4.2 0 5.4.1c3 .1 3 2.6 3 2.6s.1 3.3.1 4c0 .9-.2 1.8-1.2 2.7-.9.9-2.2.9-2.2.9h-5l.1 5.1s7.7 0 8.2.1c2.4.1 3.1.6 3.7 1.6.3.9.2 3.1.2 3.7zm28.6-2.2c-.9 2.1-4.6 7.1-11.9 7.7-7.1.6-10.8-1.7-11.9-2.2s-3.4-2.1-3.7-3c-.3-.8-.3-1.8.3-3.3.3-.7 2-4.7 3.7-5.1 1.7-.3 2.8.4 3.3.7s1.9 1.6 4.4 2.5 3.8.4 4.3-.6c.7-1.6-.6-2.7-1.8-3.4-1.2-.8-6.2-3.1-7-3.5-.8-.5-2.9-1.9-3.2-2.1-.3-.3-1.9-1.5-3-3.5-.9-1.7-.9-3.1-.9-5.7s1.1-4.8 1.1-4.8c3.2-6.6 8.4-7.3 14.4-7.5 6.1-.2 9.3 1.7 10.3 2.5 1.3 1.1 1.2 2.8 1.2 2.8s.2 3.7 0 4.9c-.1 1.2-.6 1.8-1.6 2.1-1 .4-2-.6-2.6-1.1-.6-.6-2.3-1.7-5.4-2.2-3.1-.6-4 1.5-4 1.5-.3 1.7.6 2.8 1.5 3.7 1.2.6 4.8 2.1 7.8 3.7 3 1.7 5.3 5.2 5.7 8 .5 2.8-.1 5.7-1 7.9zm5.9-27.7c-2 0-3.3-1.5-3.3-3.3 0-2.1 1.5-3.3 3.3-3.3s3.2 1.3 3.2 3.3c0 2.1-1.5 3.3-3.2 3.3z" class="st0"/><path d="M289.3 70.2c1.3 0 2.1-.7 2.1-2s-.7-2-2.1-2h-.9V70h.9z" class="st0"/></svg>