<svg xmlns="http://www.w3.org/2000/svg" xml:space="preserve" viewBox="0 0 72 72"><path d="m63.8 36-.6-1.5c-1.2-2.5-2.9-5.3-5.5-6.9-1.5-.9-2.8-2.3-3.6-3.8-.4-.4-.8-.9-1.4-1 .1.2.3.5.3.7-.6 0-1.1-.3-1.5-.7l.4-.4c-.2-.1-.3-.1-.5-.2-1.8-.2-3.2.6-4.8 1 1 .4 1.2 1.5 1.7 2.2.1-.2.4 0 .6-.1.3 0 .5.2.8.1 0-.2-.1-.4-.2-.6v-.1c.2-.1.4 0 .6 0 .5.3 1.3-.1 1.6.6v.1c-.6 0-1.1.2-1.6.3.1.2.2.4.2.6v.1c-.5-.2-1-.3-1.5-.4.7.8 1.5 1.2 2.5 1.5 1.3.3 2.5-.3 3.8-.1 3.1 1.4 5.8 4.7 7 7.8.1.1.1.3.2.5.5 1.4.8 3 .8 4.6q0 1.8-.3 3.6l-.3 1.2c-.5 1.2-1.1 2.4-2 3.4-.3.4-.7.8-1.1 1.1-1.3 1-2.9 1.5-4.6 1-.1-.1-.3-.1-.3-.3v-.1c.1-.2.1-.5.1-.7.3-1.4.4-2.9.3-4.4v-.2c-.1-2.2-.5-4.1-1.3-6-.5-1.1-1.1-2.2-1.9-3.3-.9-1.3-2-2.3-3.5-2.9-.9-.2-2-.3-2.7.5q-.45.45-.6.9v.7c-.8.5-1.6.7-2.5.8-.2 0-.5.1-.7.1H41c-1.1-.1-2.2-.7-3.1-1.4 0-.5 0-.9-.1-1.4-.5-.3-.9-.7-.9-1.3.3.1.5.2.8.4-.1-.7-.2-1.3-.6-1.9-.3-.1-.6-.2-.9-.4s-.6-.6-.6-1v-.1c.3.3.8.2 1 .5-.4-1.2-.4-2.5-1.1-3.6-.3-.8-1.2-1.2-1.8-1.8-.2-.3-.3-.7-.8-.7-.3-.1-.4-.5-.4-.7v-.1c.2 0 .4.1.5.2-.5-1.3-1-2.8-2.3-3.6l-.2.1c-.5.1-1.1.1-1.6.1l.1-.1c.2-.3.6-.5.9-.6-.4-.3-.7-.3-1.1-.4-.3.3-.8.4-1.1.5v-.5c0-.1.1-.3.3-.3-.5-.2-1.1-.1-1.6 0-.1.3-.4.5-.5.9v.2c-.3.3-.5.7-.7.9 0-.2 0-.4.1-.6.1-.5.2-.9.3-1.3-.4.1-.8.4-1.2.5-.6-.4-1.3-.7-1.9-1h-.2c.4.3.4.7.4 1.1v.8l-.5-.1c-.2-.4-.7-.8-.8-1.3-.6.1-1 .3-1.5.5.4 0 .7.3.9.6h-.1v.1c-.6 0-1.2-.2-1.8-.3-.1-.1-.1-.1-.2-.1-.3.1-.6.3-.8.5-.6.6-1.2 1.2-1.5 2 .2 0 .4 0 .6.1h-.1c-.3.2-.6.5-.9.7-.1.4-.1.9-.1 1.4-.3.4-.6.7-.8 1.2-.1.4-.2.9-.3 1.3q-.3 1.65-.3 3.6v.7c-.2.2-.4.3-.6.4v1.7c.1-.4.5-.6.8-.8h.3c0 .4-.1.8-.1 1.2v.1l-.5.4c-.1.1-.2.2-.2.4v.2c0 .3.1.7.1 1v.1c0 .1.1.4.2.4.1-.2.3-.4.4-.6l.6-.3v.1c-.1.4-.3.9-.4 1.3-.1.1-.2.1-.3.2s-.1.2-.2.3c.4 2.1 1 4.1 1.7 6-.5.8-.8 1.8-1.1 2.6-.1.1-.1.2-.2.4-.4 1-.5 2.1-1 3.1l-.6-.3c-.9-.3-2-.1-2.7.6-.6-.1-1.2 0-1.7.3-.3.3-.6.6-.8.9 0 .1-.1.2-.1.3v.5c-.4.3-.6.7-.7 1.1 0 .2-.1.4 0 .7 0 .7.3 1.4.7 1.9h15.4c-.2-.3-.4-.6-.6-1-.3-.5-.1-1.2-.1-1.8.3-.6.6-1.3 1-1.9.1-.1.1-.2.2-.4l.7-.3c.4 0 .7-.3 1-.2.5.5.5-.5.9-.5 1.1-.1 2.2 0 2.8.9 0 .1.2.1.1.2h-.4c-.7-.2-1.4-.6-2.1-.2 0 .2-.1.3-.1.5s-.1.3-.1.5c.4.1.8.4 1.1.8.2-.4.7-.6 1.1-.8.4.1.8.1 1 .3.6.5.3 1.4.2 2 .5.3 1 .4 1.6.7-.2.2-.5.3-.8.4l-.8-.2c-.1-.1-.3-.1-.3-.2-.3.3-.6.7-.8 1.1h12c-.2-.4-.3-.6-.6-1-.2-.5-.1-1.2-.2-1.8l1.1-1.7c.6 0 1.3-.2 2-.1h.1c.3-.2.4-.6.8-.6.7-.2 1.3.1 1.8.5 0 0 0 .1-.1.1-.2.4-.7 0-1 .1-.1.1.1.3.1.5.1.2-.1.1-.2.2-.2 0-.4 0-.5-.2 0 0 0-.1-.1-.1-.2.3-.4.5-.4.8.2.2.5.4.6.6.2.3-.2.5-.2.8h-.1c-.2-.1-.3-.4-.5-.3-.2.8.1 1.6 0 2.3h1.1l.1-1.6c.2-1.1.8-2 1.5-2.8.8-.5 1.3.5 1.9.9.1 0 .1.1.1.2 0 .2-.2.2-.3.3-.4.1-.6-.3-.9-.5-.2.2-.3.5-.6.7h.1c.3.3.6.6.6 1 0 .3-.2.7-.5.9-.2-.4-.4-.8-.6-1.3-.5.1-.6.7-.7 1.1 0 .4-.3.6-.2 1h6.2c.7-.1 1.4-.1 2-.6 2.3.4 4.7-.2 6.5-1.5 1-.8 1.8-1.7 2.5-2.7.6-.9 1.1-1.7 1.4-2.7l.3-.9c.1-.3.2-.6.2-.9 0-.2.1-.3.1-.5.6-2.4.2-5.6-.7-8.3M51.2 24.1c-.4 0-.8.2-1.1 0-.2-.1-.5 0-.6.1-.3 0-.5-.1-.7-.2h.1-.1c.5-.1.9-.5 1.4-.6.3.1.6.3 1 .7q-.15-.15 0 0-.15-.15 0 0m3 2.1c-.2-.3-.5-.6-.9-.6-.3-.3-.6-.8-1.1-.8h.1-.1c.4-.2.8-.2 1.2-.2.3.4.6.7.7 1.2zv-.1zM9.8 52q0 .15 0 0c-.2-.1-.5-.2-.7-.3 0 .2-.1.3-.1.4-.1.4.1.9 0 1.4v.5c-.2 0-.5-.3-.6-.5 0-.7-.1-1.3 0-2l1-1.1c.4.4.6 1.1.4 1.6m2.4 0c-.2-.4-.5-.8-.9-.9-.2.2-.3.5-.3.8-.1.5 0 1 0 1.5-.2.2-.5.4-.7.5-.3-.8-.2-1.7 0-2.6.1-.3.1-.6.2-.9.1-.4.4-.8.7-1.2l1-.1s-.1 0-.1.1h.1c-.2.1-.3.3-.3.5 0 .1 0 .2-.1.3.2.2.6.1.6.5.1.3.1.5 0 .8 0 .3-.1.5-.2.7m24.3-13q-.15.15 0 0c0 .2-.2.2-.3.2-.8.1-1.6-.2-2.2-.6 0-.1-.1-.1-.1-.3v-.1c.4 0 .7-.5 1-.1.5.2 1.1.7 1.6.9m-1.9 7.2c-.4-.1-.9-.1-1.1-.5-.1-.1-.3-.3-.5-.2-.5.4-.9-.2-1.5-.1-.4.1-.7.3-1.1.5l-.2-.1v-.1c.1-.4.4-.7.6-.9.7.3 1.2-1 1.8-.3.2.1.5.1.8.3.8.1 1 .8 1.2 1.4q0-.15 0 0 0-.15 0 0m-3.1-6.8c.3-.3.8-.3 1.2-.3.2.2.2.4.3.5.3.4.7.7 1 1h-.1l.1.1c-.4.1-.9 0-1.2-.1-.4-.3-1-.6-1.3-1.2q0 .15 0 0m3.9-4.1c-.3.2-.4-.1-.7 0-.3 0-.6 0-.9-.1l-.3-.6c.4-.1.7-.3 1.1 0 .3.1.5.5.8.7M33.5 31s0-.1 0 0c.2.1.2.4.5.6.3-.2.4.3.5.5s.2.4.3.7v.1c-.6.2-.9-.4-1.3-.8 0-.4-.1-.8 0-1.1m-.8 4.8.9.7v.2c-.6 0-1.2.2-1.6-.3.2-.3.5-.5.7-.6m-.7-8.7c.2.5.6.9.4 1.5l-.1.3v.1l-.7.2zm-14.6-4.9c.2-.5.5-1 .8-1.5.2-.1.4-.1.6-.2.4-.3.9-.7 1.4-.4.4.1.7.3 1.1.3 0 .2 0 .4.2.5.6.1.6.8 1 1.1.2.2.6.1.9.1.4.1.9.2 1.2.4.7-.5 1.6-.6 2.5-.5.1-.4.2-.7.4-1 .2 0 .1-.3.3-.3.5-.3 1-.7 1.6-.5.5.2 1.1.2 1.5.6.5.4.6 1 .9 1.5v.1c0 .1 0 .1-.1.2 0 .3-.1.5-.1.8v.2c-.1.3-.2.5-.4.7l-.5.4c-.2.1-.4.1-.6.2q.3.75 0 1.5c-.1.3-.2.6-.3.8q.3 0 .6-.3v1c-.1.4-.5.8-.7 1.1-.2.6-.7 1.3-1.3 1.5 0 .1 0 .1.1.2 1.4 0 2.8.4 4 1.1v.7c-1.1-.7-2.5-1.1-3.8-1.2 0 .2-.1.4-.1.7 1.2.5 2.3 1.1 3.3 2v.8c-1.1-.9-2.2-1.9-3.5-2.3-.2.3-.4.5-.6.8-.7-.5-1.5-.9-2.3-1.1-.4.1-.4-.3-.4-.5l-.1-.5v-.1c.5-.1.7-.6.9-1 .2.1.4.2.6.1.1-.1.1-.1.1-.2v-.2c-.2-.6-1-.6-1.5-.7-.7-.1-1.4 0-2 .3l-.1.1v.4c.1.1.2.2.3.2.2 0 .3 0 .5-.1 0 .5.2.9.6 1.1h.1v.2l-.1.6v.1c-.2.4-.7.2-1 .4-.6.2-1.2.4-1.7.7-.3-.2-.6-.5-.8-.7-.9.3-1.7.8-2.5 1.4l-.8.6c-.1-.2 0-.5 0-.8.9-.9 2-1.2 3-1.7v-.7c-.4-.1-.8 0-1.2 0-.9.2-1.7.5-2.5 1v-.6c0-.1.1-.2.2-.3 1.1-.6 2.3-1 3.7-.9 0-.1 0-.2-.1-.3-.1-.2 0-.4-.3-.5-.6-.6-1-1.4-1.1-2.2v-.1h.2c-.5-.6-.5-1.5-.3-2.3 0-.1 0-.2.1-.3-.5-.2-1.2-.7-1.4-1.2-.2-.4-.4-.8-.5-1.3m13.9 15.7c-.6.1-1.1-.2-1.4-.7s-.3-1-.4-1.6v-.1c.4.4 1.3.5 1.2 1.2 0 .5.3.8.6 1.2q0-.15 0 0c0-.1 0 0 0 0m-3.7 1.7c-.4-.2-1.3-.4-1.2-1 .2-.3.5-.5.8-.8 0 .5.1 1.2.4 1.8 0-.1-.1-.1 0 0-.1-.1-.1 0 0 0M20.4 36l.9.6-.1 1.3v.1c-.4-.6-.7-1.2-.8-2q0 .15 0 0m-.1 4.7-.5 1.6c-.5.3-1.1.2-1.7.2 0 0 .1 0 .1-.1h-.1c.7-.4 1.4-1.1 1.7-1.8.2 0 .4 0 .5.1m-.3-2.4c-.7-.2-1.3-.8-1.7-1.4-.1-.4-.2-.8-.1-1.2v-.1c.3.1.6.3.8.5v.2c.3.7 1 1.2 1 2q0-.15 0 0c0-.1 0 0 0 0m-1 1.1v.2c-.1.5-.4.9-.8 1.2l-.4.4c0-.6.2-1.2.3-1.7v-.1c.3-.1.7-.2.9 0m-2.7-14.7c.2-.3.4-.6.7-.8v1l-.7.4zm0 2.1.8-.2v.1l-.4.5c.1.9-.3 1.6-.3 2.5v.1l-.5-1.6v-.4c.1-.4.3-.7.4-1m0 11.6q0-.15 0 0 0-.15 0 0c.1-.3.4-.5.6-.7.3 0 .6.1.8.3-.4.4-.9.7-1.2 1.2-.1-.2-.2-.6-.2-.8m-.4 13.5c-.4.6-.7 1.1-1.1 1.6h-.1c0-.3 0-.6.1-.9 0-.1.1-.3.1-.5 0-.1 0-.2.1-.4l.1-.1c-.3 0-.6-.3-.9-.3-.3.2-.2.5-.4.7-.3.6-.9 1.1-1 1.9-.1 0 0-.2-.1-.2 0-.7.1-1.4.2-2.1.1-.4.2-.8.4-1.2.4-.5 1-.7 1.6-.8l.5.2v.1l-.4.3c.4.2 1 .6 1 1.2zm2.9-1.5-.4 1.1-.7-1.8c-.6-.7-1.4-1-2.2-1.3-.2-.1-.4.1-.6 0v-.3c.1-.3.2-.5.4-.7h.2v.1q.15-.15.3 0l.1.1c.3 0 .7-.1.7.3.3.2 1 .2.9.8v.1c0 .1-.1.2-.1.3s0 .1.1.2c.4 0 .9 0 1.1.4zm1.5-1.4-.6.8c-.2-.3-.1-.9-.5-1.1.1-.1.2-.2.2-.4v-.1c-.1-.2-.3-.2-.4-.2h-.2c-.7-.3-1.3-.8-1.9-1.3-.5-.2-.8.1-1.2.2-.1-.1-.2-.2-.2-.3.4-.3.4-1 1-.9.3.1.6.1.9.3.4.1.6.5.9.7.4.3.8.5 1.2.8 0 .2.1.4.3.5.5-.1.4.5.5 1q0-.15 0 0m.5-2v.4c-.2-.6-.6-1.3-1.3-1.4-.3-.2-.6-.6-.8-.9-.3-.1-.7-.1-1-.3-.4 0-.8.2-1.3.2l-.1-.2.7-.9c.7.2 1.6 0 2.1.7.3.2.7.4 1 .7v.3c.2.2.4.3.6.4.1.2.2.6.1 1m-.4-4.5q.15 0 0 0 .15 0 0 0c.3-.3.6-.6 1-.7l.8-.8h.8v.1c-.2.5-.5 1.2-1.2 1.4-.4 0-.9.1-1.4 0m1.7-4.8c.3.2.6.2.9.3 0 .4.2 1 .2 1.4v.1c-.5-.5-1-1-1.1-1.8 0 .1.1.1 0 0 .1.1 0 0 0 0m.3 6.2s.1 0 0 0c.1-.1 0-.1 0 0 .2-.3.5-.5.6-.8.4-.3.6-.8.8-1.2.4-.2.7-.1 1.1-.2v.2c-.1.5-.6.9-.9 1.3-.5.3-1 .5-1.6.7m2.6 1.8c-.3.2-.7.2-1.1.1l-.6-.8h.1l-.1-.1q.75.15 1.5 0zm-.4-5.7-.3-1.2c.4-.2.6-.4 1-.8 0 .3 0 .6-.1.9 0 .3-.2.8-.6 1.1m1.2-5.3s-.1 0 0 0c-.1.1-.1.2-.1.2v.3c0 .1 0 .1-.1.2 0 .1-.1.3 0 .4v.1c-.3.1-.6.2-1 .2 0-.1 0-.3-.1-.4-.1-.3-.1-.6-.2-.9l-.1-.1c-.1.1-.1.1-.1.2v.2c0 .1 0 .1-.1.2-.1.2-.3.4-.3.7q-.45 0-.9-.3v-1h-.1l-.5.5c-.4-.5-.5-1.1-.4-1.7v-.1c1.4-.7 3.3-.6 4.8-.2.2.1.4.1.6.3 0 .1 0 .2-.1.3-.1.6-.3 1.2-.8 1.7-.1-.2-.4-.5-.5-.8m2 10.8c0 .1-.1 0 0 0-.5 0-.9-.2-1.2-.5-.1-.2-.1-.4-.1-.6v-.1h.8zm1.1-3c-.4.2-.8.4-1.2.2-.6-.3-.7-1.1-1.4-1.4-.1-.1-.1-.3-.1-.5v-.1l1.6.4c0 .2.2.3.4.4.1.4.4.6.7 1 0-.1-.1-.1 0 0-.1-.1-.1 0 0 0m-.3-3.5c-.3-.4-.3-.9-.2-1.3s.2-.8.4-1.2c.2.5.3 1.1.4 1.7.1.3.7.5.9.8-.5.3-1.2.4-1.5 0m.6 1.8 1.5-.3h.2l.4.6c.4.2.8.4 1.1.6v.1c0 .1-.2.1-.3.2-1.2.2-2.1-.5-2.9-1.2m0 7.1c.1-.4.2-.8.4-1.1.4-.1.7-.3 1.1-.3.3-.1.6-.2.9-.2v.1c1.2 0 2.4 0 3.2 1l.1.6v.1c-.4-.3-.9-.2-1.2-.6-.4-.2-.8-.2-1.2-.2-.4.1-.8.1-1.2.3-.1-.1 0-.3-.2-.3-.7.1-1.3.2-1.9.6m3.2 3.8-.4.3c-.3-.4-.1-1.1-.6-1.3-.4.1-.7-.3-1-.6h.1l.3-.1c.2 0 .3-.1.5 0 .2.2.4.3.4.6.2.1.4 0 .6.1.1.2.2.7.1 1m3.5-1.4c-.1.3-.2.7-.4 1.1-.3-.5-.4-1.3-1.2-1.5-.1-.3-.2-.7-.5-.9h-.9c.1.3.6.5.5.8v.1c.2.3.7.3.8.7.2.3 0 .7.1 1l-.7.4c0-.6.2-1.5-.6-1.9-.6.2-.7-.6-1.1-.9-.2-.1-.2-.4-.4-.3-.5.3-1.1.1-1.6.4h-.1v-.1c.1-.3.1-.8.6-.9.3-.3.7-.2 1.1-.3l.7-.2c.9 0 1.6.4 2.4.6.4.3.6.7.6 1.1.3.5.7.5.7.8m1-.2c-.2-.2-.3-.5-.5-.7v-.1c0-.1.1-.2.1-.3.1-.8-.4-1.6-.5-2.4l-.1-.3.1.1-.1-.1c.4.4 1.1.8 1 1.4.1.7.2 1.4.1 2.1 0 .1-.1.2-.1.3m.8-12.5c-.5.2-1.2.1-1.7-.2h.1l.7-.4c.2.2.6.4.9.6-.1 0 0 0 0 0m.5 2c0-.1.1-.2.1-.4.3.3.6.6.6 1v.2c0 .2-.2.4-.2.5-.3-.2-.5-.5-.5-.9-.1-.1 0-.2 0-.4m1.4 5.5c-.1.5-.3 1.1-.4 1.6 0-.6-.2-1.1-.5-1.5v-.1c0-.1.1-.2.1-.3v-.1c-.2-.2-.6-.3-.6-.7v-.2c0-.4.4-.6.5-.9.1 0 .1.1.2.1.1.4.3.7.2 1.1v.2c-.1.5.5.4.5.8m.7-2.6c-.2.1-.3.3-.5.4l-.4-.9.1-1.2v-.1c.1 0 .3.1.4.1.1.2.1.5.1.7.1.3.4.5.3.8zm1.7 3.6v.1c0 .1-.2.2-.2.3-.2.4-.5.7-.7 1.1.1-.4.3-1 0-1.4-.1-.2-.6 0-.5-.3 0-.5.2-1.1-.3-1.6V44c.1-.4.7-.5.9-.9.2.3 0 .8.1 1.2s.2.8.1 1.2c0 .1 0 .1-.1.2 0 .1.1.2.2.2.3.1.6 0 .5.2m.8-.9c-.1 0-.1.1 0 0-.3.1-.2-.2-.3-.4-.2-.6-.3-1.1-.4-1.7-.4-.9-.8-1.7-1.2-2.6-.2-.4-.6-.7-1-.9h.1s-.1 0-.1-.1c.4 0 .9.1 1.3.4 0 .2.1.5.3.6.7.1.7.9 1.1 1.4v.1c0 .1-.2.2-.2.3q-.3 0-.3.3c.3.2.6.3.8.6.1.7-.1 1.4-.1 2m-1.6-7s0-.1 0 0c.7-.2 1 .6 1.6.7.2.2.4.3.5.6 0 .3.1.6 0 1v.1c-.8-.8-1.3-1.6-2.1-2.4m3 6s0 .1 0 0c-.2-.5-.6-1.1-.9-1.7 0-.1-.1-.1-.1-.2l.3-.1c.2 0 .4-.1.5.1.6.5.1 1.3.2 1.9m6.9-2.5c-.4.2-.8-.2-1.3-.3-.2-.1-.4-.2-.3-.5v-.2c-.4-.3-.7.1-1.1.1-.3.1-.5-.1-.8.2 0 .1.2.2.2.3v.1l-.8.3c-.3 0-.6 0-.8-.2-.1-.3-.1-.6-.1-.9v-.1c.3-.1.8 0 1-.3.7-.4 1.5 0 2.2.1.2 0 .4-.1.5-.2.3.1.6.4.9.5.3.4.3.7.4 1.1m-.8 2.3c-.3-.2-.7-.3-1-.5 0-.1 0-.4-.1-.4-.6-.2-1.3-.1-1.8.1-.2 0-.3-.4-.5-.6v-.3c.2 0 .5 0 .7-.2.6-.1 1.3-.1 1.9.1 0 .6.8.6.8 1.2zq0-.15 0 0m-1-5.6c.2-.2.4-.3.7-.2.5.3 1 .8 1 1.3v.1c-.8-.5-1.8-.7-2.7-.8-.6 0-.9.6-1.5.6-.2.1-.4.3-.6.4-.1 0 0-.2-.1-.3v.1q-.15-.45 0-.9v-.1c.4 0 .6-.3 1-.4.6.1 1.1-.1 1.7-.3.2 0-.1.9.5.5M46 36.9c.5-.3.9-.9 1.4-.5.3 0 .5.1.8.2.2.2.3.4.5.7h-.1v.1c-.7 0-1.5-.3-2.1.2-.2.2-.4.2-.6.3-.1-.1-.1-.3 0-.5 0-.3 0-.4.1-.5m-.3-1.9c.2-.3.4-.5.6-.7.3 0 .6-.2.9 0 .1.6.7.3 1.1.4.2.3.3.6.5.9h-.1v.1c-.7-.2-1.5-.4-2.2-.3-.3.1-.6.1-.8.3-.1-.1-.1-.2 0-.4v-.2c-.1 0 0-.1 0-.1m2.7 14.6-.1.1q-.75-.45-1.5-.6v-.4c-.2-.1-.3-.2-.6-.2-.2.1-.5.3-.8.2h.1-.1c.4-.2.4-.6.9-.9.1-.2.3 0 .4 0 .2.1.4.2.7.2v.5c.1.2.4.1.6.2.1.1.4.4.4.9 0-.1 0 0 0 0m.8-1.2-.7-.6c0-.1.1-.4-.1-.5-.4-.4-1.2-.1-1.7-.2-.2 0-.2-.2-.1-.3 0-.1.1-.2.1-.2.1-.1.2-.3.3-.4.3 0 .5-.2.8-.2.5-.1.8.5 1.3.5.2.2.4.5.4.7s0 .4-.1.6-.1.4-.2.6m.6-2.4s-.1.1 0 0c-.3.1-.2-.3-.5-.4-.3-.5-.8-.7-1.4-.7-.4 0-.6.4-.9.5v-.1c0-.1.1-.2.1-.3 0-.2 0-.4.1-.6 0-.2.1-.4.4-.4h.6c.3.7 1.2.2 1.6.9 0 .3-.1.7 0 1.1m1.7 4.2c-.1.2-.2.4-.3.5-.1-.6-.7-1-.9-1.6l.4-.7c.3.2.6.5.7.8v.1c0 .1 0 .2-.1.3v.3c-.1.1.2.1.2.3 0 0-.1 0 0 0-.1 0 0 0 0 0m.4-1.5-.6-.9c.2-.3.2-.7.5-.9.2-.1.3.1.3.2.1.3.1.7 0 1.1 0 .1-.1.3-.2.5"/><path d="m25.3 50.2-1.1.4c-.1.2-.2.5-.2.7l.4-.1c.2 0 .3.2.4.3-.1.5-.6.6-1 .8-.3 1 .6 1.6.7 2.4h1.2c-.5-.7-.6-1.7-.7-2.6.1-.7.1-1.4.3-1.9m2 1.7-.8-.8h-.1c-.2.2-.3.5-.5.7 0 .9.3 1.8.5 2.7h.9c0-.9.1-1.8.1-2.7zm2.2-.4c-.2-.2-.4-.2-.6-.2-.3 0-.4.4-.6.6l-.3 2.6h.9c.2-.5.4-1.2.5-1.7.1-.4.4-.9.1-1.3m13.5-.8c-.3.1-.7.1-1 .2l.3.3c.1.4.1 1-.2 1.3-.3-.2-.3-.5-.5-.8-.1.1-.2.3-.3.5 0 .9.3 1.6.7 2.4h1c-.1-.8-.2-1.6-.2-2.4-.2-.6.1-1 .2-1.5M19.8 23.6c.5-.6 1.2-.9 1.9-1.2-.1-.9-1.2-1.1-1.8-1.4h-.3c-.8.2-1.1 1-1.2 1.7.1.7.9.5 1.4.9m2.8 1.7c-.8.1-1.6 0-2.4 0h-.1c.1.2.4.4.6.5.1.3.3.4.5.6.2.1.5.1.8.1.1 0 .2-.4.3-.1 0 .3.2.7 0 1.1 0 .1 0 .1-.1.2v.2c-.1.5-.8.5-1.1.9-.1.2-.1.4-.1.5 0 .2 0 .4.1.5.3-.1.6-.3.9-.4.1-.4.4-.7.8-.8.1-.9.3-1.8.4-2.8-.2-.2-.4-.4-.6-.5m-1.4 5.8c0 .2-.1.4.1.5l.6-.3m.1-6.9h1.2c.2-.3.4-.7.7-1m2.4 1.1c.3-.1.7 0 .9-.1 0-.1-.1-.2-.2-.3-.5 0-.4-.7-.9-.6h-.6s0 .1.1.1c.6 0 .3.7.7.9m.4.9c-.3.1-.6.1-.9.4h-.1c.1.8.1 1.7.2 2.5.3.2.8.5.8 1 .4.1.8.3 1.1.7.2-.2.4-.5.5-.7-.4-.4-1.3-.2-1.4-1l-.5-.4c-.1-.5-.1-1-.2-1.5l.1-.1c.1.1.2.3.3.4.4 0 .8.2 1.2-.1.2-.1.2-.5.5-.5.1-.1.3-.2.5-.3 0-.1.1-.1.1-.2zm-.1 5.8 1 .4.1-.5m2.1-6.8c.2-.4.7-.2 1-.4.1-.7.2-1.4-.1-2-.4-.3-.8-.6-1.3-.8l-.8.2c-.4.2-.5.6-.7 1 .8.4 1.6 1.1 1.9 2"/></svg>