<svg xmlns="http://www.w3.org/2000/svg" xml:space="preserve" viewBox="0 0 72 72"><path d="M23.2 64.8h25.6c8.8 0 16-7.2 16-16V23.2c0-8.8-7.2-16-16-16H23.2c-8.8 0-16 7.2-16 16v25.6c0 8.8 7.2 16 16 16m-9.6-41.6c0-5.3 4.3-9.6 9.6-9.6h25.6c5.3 0 9.6 4.3 9.6 9.6v25.6c0 5.3-4.3 9.6-9.6 9.6H23.2c-5.3 0-9.6-4.3-9.6-9.6z"/><circle cx="52" cy="20" r="3.2"/><path d="M36 52c8.8 0 16-7.2 16-16s-7.2-16-16-16-16 7.2-16 16 7.2 16 16 16m0-25.6c5.3 0 9.6 4.3 9.6 9.6s-4.3 9.6-9.6 9.6-9.6-4.3-9.6-9.6 4.3-9.6 9.6-9.6"/></svg>