<svg xmlns="http://www.w3.org/2000/svg" xml:space="preserve" viewBox="0 0 360 180"><path d="M36 35.7h20.8v20.8H36zm20.3 108.6V69.2H36.5v75.1zc0-.1 0 0 0 0m131.2.7v-18.4c-2.9 0-5.3-.1-7.1-.4-2.1-.3-3.6-1-4.7-2.1q-1.5-1.5-2.1-4.5c-.3-1.9-.4-4.3-.4-7.3V86.1h14.3v-17h-14.3V39.9h-19.8v72.6c0 6.2.5 11.4 1.6 15.5 1 4.1 2.8 7.4 5.3 9.9 2.4 2.5 5.7 4.3 9.6 5.4 4 1.1 9.1 1.6 15.1 1.6h2.5zm113.4-.7V34.1H281v110.2zM134.3 76.6c-5.5-5.9-13.2-8.9-23-8.9-4.7 0-9.1 1-13 2.9s-7.2 4.6-9.9 8l-1 1.4V69.1H67.9v75.1h19.7v-40 2.7-1.3c.2-7 1.9-12.2 5.2-15.6 3.5-3.6 7.7-5.3 12.5-5.3 5.7 0 10.1 1.8 13 5.2 2.8 3.4 4.3 8.2 4.3 14.4v39.9h20v-42.6c0-10.6-2.8-19.1-8.3-25m136.5 30c0-5.4-1-10.5-2.8-15.2-1.9-4.7-4.6-8.8-7.9-12.4-3.4-3.6-7.5-6.3-12.2-8.3s-10-3-15.7-3q-8.1 0-15.3 3c-4.7 2.1-8.9 4.8-12.4 8.3s-6.3 7.6-8.3 12.4c-2.1 4.7-3 9.9-3 15.3s1 10.5 2.9 15.3c1.9 4.7 4.7 8.9 8.1 12.4s7.6 6.3 12.5 8.3c4.9 2.1 10.3 3.1 16.1 3.1 16.8 0 27.2-7.6 33.4-14.8L252 120.2c-3 3.6-10.1 8.4-19 8.4-5.6 0-10.2-1.3-13.7-3.9-3.5-2.5-5.9-6.1-7.1-10.5l-.2-.7h59zM212 99.7c0-5.5 6.3-15.1 19.9-15.1s20 9.6 20 15.1zm111.4 35.1c-.4-.9-.9-1.6-1.6-2.3s-1.4-1.2-2.3-1.6-1.9-.6-2.8-.6c-1 0-1.9.2-2.8.6s-1.6.9-2.3 1.6-1.2 1.4-1.6 2.3-.6 1.9-.6 2.8c0 1 .2 1.9.6 2.8s.9 1.6 1.6 2.3 1.4 1.2 2.3 1.6 1.9.6 2.8.6c1 0 1.9-.2 2.8-.6s1.6-.9 2.3-1.6 1.2-1.4 1.6-2.3.6-1.9.6-2.8-.2-1.9-.6-2.8m-1.2 5.2c-.3.7-.7 1.4-1.3 1.9-.5.5-1.2 1-1.9 1.3s-1.5.4-2.4.4c-.8 0-1.6-.1-2.4-.4-.7-.3-1.4-.7-1.9-1.3s-1-1.2-1.3-1.9-.4-1.5-.4-2.4c0-.8.1-1.6.4-2.4.3-.7.7-1.4 1.3-1.9.5-.5 1.2-1 1.9-1.3s1.5-.4 2.4-.4c.8 0 1.6.1 2.4.4.7.3 1.4.7 1.9 1.3.5.5 1 1.2 1.3 1.9s.4 1.5.4 2.4-.1 1.7-.4 2.4m-4.1-1.7c.6-.1 1-.3 1.4-.7s.6-.9.6-1.6c0-.8-.2-1.4-.7-1.9-.4-.4-1.3-.7-2.2-.7h-3.3v8.4h1.6v-3.4h1.1l2.1 3.4h1.6zm-.9-1.3h-1.8v-2.4h1.8c.2 0 .4.1.7.1.2.1.4.2.4.4.1.1.1.4.1.7s-.1.5-.1.7l-.4.4c-.2.1-.4.1-.7.1"/></svg>