<svg xmlns="http://www.w3.org/2000/svg" xml:space="preserve" viewBox="0 0 72 72"><path d="M36 7.2c4.7 0 9.1 1.1 13.2 3.2l.5.3-.5.4c-1.2.9-2.1 2.1-2.7 3.5l-.2.4-.3-.2c-3.2-1.5-6.6-2.3-10.1-2.3-13 0-23.5 10.6-23.5 23.5S23 59.6 36 59.6 59.6 49 59.6 36q0-4.65-1.8-9l-.2-.4.4-.2c1.4-.5 2.6-1.4 3.6-2.5l.4-.5.2.5c1.7 3.8 2.6 7.8 2.6 11.9 0 15.9-12.9 28.8-28.8 28.8S7.2 51.8 7.2 36 20.1 7.2 36 7.2m0 15.7c7.2 0 13.1 5.9 13.1 13.1 0 7.3-5.9 13.1-13.1 13.1S22.9 43.2 22.9 36 28.8 22.9 36 22.9m18.8-10.8c3.3 0 6 2.7 6 6s-2.7 6-6 6-6-2.7-6-6 2.7-6 6-6"/></svg>