<svg xmlns="http://www.w3.org/2000/svg" xml:space="preserve" viewBox="0 0 72 72"><path d="M61.5 17.2c-10.3-11.8-30.8-5.3-41.8 4-13.4 12.5-15.6 27.1-8.6 35 6 5.6 14.3 5.3 21.5 4.5 5.8-1.1 12.2-3.6 18-8.2 4.7-3.7 9-8.8 12.2-15.7 4.7-9.9-.3-18.5-1.3-19.6M49.8 51c-2.9 2.6-21.7 14.3-34 2.3-10.3-10-1.1-25.6 4.4-30.3 1-.5 6.8-7.2 17.6-8.6 8-1 14.8 1.2 18.8 5.7 2.1 2.4 3.5 5.4 3.9 8.9 1.3 10.4-7.8 19.4-10.7 22"/><path d="M24.1 23.5V49h10.7V36.6c0-1.7-.3-3.1-2.3-4.9zm24.2 0V49H37.6V36.6c0-1.7.3-3.1 2.3-4.9z"/></svg>