<svg xmlns="http://www.w3.org/2000/svg" xml:space="preserve" viewBox="0 0 2658.88 1329.44"><path d="M2435.35 651.49c-79.5 0-143.91 64.16-143.9 143.27 0 79.12 64.41 143.26 143.9 143.26s143.91-64.14 143.91-143.26c-.01-79.13-64.42-143.27-143.91-143.27m-1160.1-138.66c.04-1.3.06-2.6.06-3.91 0-72.27-57.66-130.83-128.8-130.83s-128.82 58.57-128.82 130.83c0 1.01.02 2.01.04 3.01h-1.41l-.28 648.69h1.67c.9 71.45 58.23 129.1 128.8 129.1s127.87-57.64 128.78-129.09h1.54l-.03-647.79zM840.8 1085.78 604.15 766.76l169.33-166.74-1.33-1.24c22.29-23.43 35.97-55.17 35.97-90.11 0-72.09-58.23-130.51-130.07-130.51-38.25 0-72.65 16.58-96.45 42.96l-.07-.06-240.64 235.33-1.29-478.84-1.57-.02c.13-2.4.2-4.81.2-7.24 0-72.12-57.25-130.57-127.87-130.57-70.61 0-127.88 58.45-127.88 130.57 0 1.52.03 3.03.08 4.53l-2.92-.03-.02 982.98 2.84.11c-.02.86-.03 1.72-.03 2.59 0 71.31 57.01 129.14 127.36 129.14 67.92 0 123.39-53.9 127.15-121.79l1.68.07.01-169.45 65.66-60.9 214.21 286.33c22.33 39.3 64.17 65.76 112.11 65.76 71.41 0 129.28-58.72 129.28-131.11 0-26.36-7.67-50.89-20.87-71.45zm1379.44 0-236.65-319.02 169.31-166.74-1.33-1.24c22.29-23.43 35.98-55.17 35.98-90.12 0-72.09-58.23-130.51-130.07-130.51-38.25 0-72.64 16.58-96.44 42.96l-.07-.06-240.67 235.34-1.29-478.84-1.56-.02c.13-2.4.2-4.81.2-7.24 0-72.12-57.26-130.57-127.87-130.57s-127.87 58.45-127.87 130.57c0 1.52.03 3.03.08 4.53l-2.94-.03-.02 982.98 2.85.11q-.03 1.29-.03 2.58c0 71.31 57 129.14 127.37 129.14 67.91 0 123.39-53.9 127.14-121.79l1.68.07.01-169.45 65.66-60.9 214.24 286.39c22.34 39.27 64.17 65.71 112.08 65.71 71.41 0 129.27-58.72 129.27-131.11 0-26.36-7.67-50.89-20.86-71.45z"/></svg>