<svg xmlns="http://www.w3.org/2000/svg" xml:space="preserve" viewBox="0 0 72 72"><path d="M13.7 52.3q-.15-3.9 0-7.8h44.7v7.7c-14.9.1-29.8.1-44.7.1m20.2-32.6h3.7v3.8h3.7v3.7h-3.7v3.7c-1.2.1-2.5.1-3.7.1v-3.7h-3.7v-3.7H34c-.1-1.4 0-2.7-.1-3.9m30.9 16.8c0 3.6-2.9 6.5-6.5 6.5s-6.5-2.9-6.5-6.5 2.9-6.5 6.5-6.5 6.5 2.9 6.5 6.5m-14.9 0c0 3.6-2.9 6.5-6.5 6.5s-6.5-2.9-6.5-6.5 2.9-6.5 6.5-6.5 6.5 2.9 6.5 6.5m-14.9 0c0 3.6-2.9 6.5-6.5 6.5S22 40.1 22 36.5s2.9-6.5 6.5-6.5 6.5 2.9 6.5 6.5m-14.8 0c0 3.6-2.9 6.5-6.5 6.5s-6.5-2.9-6.5-6.5 2.9-6.5 6.5-6.5 6.5 2.9 6.5 6.5"/></svg>