<svg xmlns="http://www.w3.org/2000/svg" xml:space="preserve" viewBox="0 0 256 256"><path d="m254.58 142.03-31.51-15.22 29.85-13.96c2.32-1.09 3.67-3.95 2.07-6.62l-3.1-3.59c-2-2.19-4.18-3.79-6.82-2.75l-22.18 8.36c-.48.18-1.01.21-1.51.06l-8.58-2.43c-.64-.18-1.32-.01-1.8.44l-9.18 8.72a74.54 74.54 0 0 0-13.74-31.87l13.43-.11c.58 0 1.11-.32 1.39-.83l4.75-8.62c.25-.45.64-.8 1.11-1l21.97-9.37c1.35-.58 2.18-3.38 1.92-5.2l-.71-6.56c-.58-1.88-3.23-3.54-4.49-3.08l-33.04 11.52 11.24-30.98c.87-2.41-.2-5.39-3.22-6.15l-4.73-.34c-2.96-.13-5.63.27-6.76 2.88l-9.77 21.59c-.21.47-.57.86-1.02 1.11l-7.79 4.35c-.58.32-.94.93-.96 1.59l-.33 12.66c-9.4-6.6-20.37-11.11-32.26-12.82l9.43-9.57c.41-.41.56-1.01.4-1.57l-2.74-9.46c-.14-.49-.12-1.02.08-1.49l8.91-22.16c.55-1.36-.85-3.93-2.32-5.03L147.43.4c-1.75-.92-4.79-.22-5.35 1l-15.22 31.51-14.02-29.83c-1.09-2.32-3.95-3.67-6.62-2.07l-3.59 3.1c-2.19 2-3.79 4.17-2.75 6.82l8.36 22.18c.18.49.21 1.01.06 1.51l-2.43 8.59c-.18.64-.01 1.32.44 1.8l8.72 9.18a74.54 74.54 0 0 0-31.87 13.74l-.11-13.42c0-.58-.32-1.11-.83-1.39l-8.62-4.75c-.45-.25-.8-.64-1-1.11l-9.37-21.97c-.57-1.35-3.38-2.18-5.2-1.92l-6.56.71c-1.88.58-3.54 3.23-3.07 4.49l11.52 33.05-30.96-11.23c-2.41-.87-5.39.19-6.15 3.22l-.35 4.73c-.13 2.96.28 5.63 2.88 6.76l21.59 9.77c.47.21.86.57 1.12 1.03l4.35 7.79c.32.58.93.94 1.59.96l12.66.33c-6.6 9.4-11.11 20.37-12.82 32.26l-9.57-9.42c-.41-.41-1.01-.56-1.57-.4l-9.46 2.74c-.49.14-1.02.12-1.49-.07l-22.16-8.91c-1.36-.55-3.93.85-5.03 2.32l-4.13 5.14c-.92 1.75-.22 4.79 1 5.35l31.51 15.22-29.85 13.94c-2.32 1.09-3.67 3.95-2.07 6.62l3.1 3.59c2 2.19 4.18 3.79 6.82 2.75l22.18-8.36c.48-.18 1.01-.2 1.51-.06l8.58 2.43c.64.18 1.32.01 1.8-.44l9.18-8.72a74.54 74.54 0 0 0 13.74 31.87l-13.42.11c-.58 0-1.11.32-1.39.83l-4.75 8.62c-.25.45-.64.8-1.11 1l-21.97 9.37c-1.35.57-2.18 3.38-1.92 5.2l.71 6.56c.59 1.88 3.23 3.54 4.5 3.07l33.04-11.52-11.24 30.98c-.87 2.4.19 5.39 3.22 6.15l4.73.35c2.96.13 5.63-.28 6.76-2.88l9.77-21.59c.21-.47.57-.86 1.03-1.11l7.79-4.35c.58-.32.94-.93.96-1.59l.33-12.66c9.4 6.6 20.37 11.11 32.26 12.82l-9.43 9.57c-.4.41-.56 1.01-.4 1.57l2.74 9.46c.14.49.11 1.02-.08 1.49l-8.91 22.16c-.55 1.36.85 3.93 2.32 5.03l5.14 4.13c1.75.92 4.79.22 5.35-1l15.22-31.51 13.96 29.85c1.09 2.32 3.95 3.67 6.62 2.07l3.59-3.1c2.19-2 3.79-4.18 2.75-6.82l-8.36-22.18c-.18-.49-.21-1.01-.06-1.51l2.43-8.59c.18-.64.01-1.32-.44-1.8l-8.72-9.18a74.54 74.54 0 0 0 31.87-13.74l.11 13.43c0 .58.32 1.11.83 1.39l8.62 4.75c.45.25.8.64 1 1.11l9.37 21.97c.57 1.35 3.38 2.18 5.2 1.92l6.56-.71c1.88-.59 3.54-3.23 3.08-4.49l-11.52-33.05 30.98 11.24c2.41.87 5.39-.2 6.15-3.21l.35-4.73c.13-2.96-.28-5.63-2.88-6.76l-21.59-9.77c-.47-.21-.86-.57-1.12-1.02l-4.35-7.79c-.32-.58-.93-.94-1.59-.96l-12.66-.33c6.6-9.4 11.11-20.37 12.82-32.26l9.57 9.43c.41.41 1.01.56 1.57.4l9.46-2.74c.49-.14 1.02-.12 1.49.07l22.16 8.91c1.36.55 3.93-.85 5.03-2.32l4.13-5.14c.92-1.8.22-4.84-1-5.4m-72.85-22.39H165.8a38.5 38.5 0 0 0-6.45-14.35l11.17-11.17c5.77 7.23 9.74 15.96 11.21 25.52m-32.92-24.28c-4.38-2.8-9.36-4.75-14.71-5.6V73.98a54.1 54.1 0 0 1 25.97 10.13zM146.87 128c0 10.42-8.45 18.88-18.88 18.88-10.42 0-18.88-8.45-18.88-18.88s8.45-18.88 18.88-18.88 18.88 8.46 18.88 18.88m-27.23-53.74V90.2a38.5 38.5 0 0 0-14.35 6.45L94.12 85.48a54.16 54.16 0 0 1 25.52-11.22m-24.28 32.92c-2.8 4.38-4.75 9.36-5.6 14.71H73.98a54.1 54.1 0 0 1 10.13-25.97zm-21.09 29.18H90.2a38.5 38.5 0 0 0 6.45 14.35l-11.17 11.17c-5.77-7.23-9.74-15.96-11.21-25.52m32.91 24.27c4.38 2.8 9.36 4.75 14.71 5.6v15.79a54.1 54.1 0 0 1-25.97-10.13zm29.18 21.1V165.8a38.5 38.5 0 0 0 14.35-6.45l11.17 11.17c-7.23 5.77-15.96 9.74-25.52 11.21m24.28-32.92c2.8-4.38 4.75-9.36 5.6-14.71h15.79a54.1 54.1 0 0 1-10.13 25.97z"/></svg>