<svg xmlns="http://www.w3.org/2000/svg" xml:space="preserve" viewBox="0 0 217.3 36.85"><path d="M96.61 17.224v-6.093a352 352 0 0 0-5.239 0c0-2.212-.013-4.437.014-6.65-2.307.014-4.628.014-6.935 0v6.637h-2.877v6.106h2.877c.014 1.86 0 3.719 0 5.578v.814c0 1.086 0 2.171.014 3.243.054 2.932 1.126 6.066 3.583 7.776 2.17 1.547 4.871 1.846 7.463 1.805-2.13-2.225-3.42-5.469-3.922-8.074l-.013-.082-.014-.081a19 19 0 0 1-.149-2.456l-.04-.611c-.014-.53-.014-1.059-.014-1.588-.014-2.117.013-4.22 0-6.324zM80.275 6.384a458 458 0 0 1 0-6.107c-3.42-.57-7.355-.353-10.096 2.022-2.456 2.198-2.931 5.713-2.85 8.834H64.33v6.107h3.026v3.338h-.013c0 4.994.013 10.002 0 14.996h7.029V17.24h4.696v-6.108h-4.723c.068-1.37-.095-3.012 1.031-4.03 1.371-1.167 3.27-.8 4.9-.72M54.76 35.56h6.88c-.04-5.238.04-10.477-.04-15.701-.055-3.067-1.222-6.487-4.153-7.926-4.193-2.09-9.092-1.614-13.57-.895-.014 2.225 0 4.45-.014 6.676 2.877-.624 6.011-1.275 8.861-.203 1.33.461 1.819 1.846 2.022 3.108-1.995-.245-4.017-.72-6.025-.313-2.375.299-4.736 1.466-6.08 3.502-2.171 3.243-1.547 8.156 1.67 10.503 3.012 2.307 7.409 2.05 10.476-.027 0 .312-.014.95-.027 1.276m-.285-5.293c-1.778.543-3.963 1.154-5.591-.081-1.493-1.059-1.303-3.583.312-4.424 1.656-.869 3.583-.57 5.333-.217.163 1.574.15 3.162-.054 4.722M18.784 2.417c2.81.014 5.605 0 8.414 0-4.112 5.524-8.129 11.115-12.254 16.624 3.678 5.497 7.3 11.033 11.006 16.516-2.904.027-5.822-.014-8.726.013a5519 5519 0 0 1-9.717-14.75c-.013 4.912-.013 9.838 0 14.75-2.51-.013-5.007 0-7.518 0Q.01 19-.01 2.431c2.51-.014 5.008 0 7.518-.014 0 5.212-.013 10.423 0 15.647C11.253 12.826 15.04 7.63 18.784 2.417m8.914 8.779c2.362-.014 4.723 0 7.084-.014-.013 1.561-.013 3.122-.04 4.669 1.14-2.579 3.623-4.261 6.378-4.71 0 2.308.027 4.628-.027 6.949-3.013.366-6.107 2.605-6.216 5.862-.081 3.868-.013 7.736-.027 11.603h-7.152zm125.837 19.409c-.99.394-1.18.597-2.375.991a6.13 6.13 0 0 1-3.759 0c-3.759-1.574-1.384-7.315-1.384-7.315 15.416-3.759 13.245-12.064 9.092-12.457-2.565 0-11.86.393-16.217 11.073-.597 1.588-4.75 12.852 4.546 13.639 1.982 0 4.153-.204 6.134-1.181 1.778-.99 3.162-2.171 4.343-3.759 1.004-1.778-.38-.99-.38-.99m-2.185-15.81c1.18.393-1.778 6.324-1.778 6.324-1.18.393-2.374.787-3.162.787.394-.787 2.579-8.306 4.94-7.111m38.169 17.984c-.204-.203-.597-.203-.787-.393-1.181-.787-.204-2.972 0-4.152l3.555-12.648c.204-.787 1.588-4.94-3.949-4.153-4.75.787-8.102 3.76-8.102 3.76.394-1.181.788-2.959 0-3.366-.99-.394-6.717 1.384-8.101 2.565-.394 0-.99.597-.394 1.18.597.787.787 1.385.394 2.769-.787 2.375-3.162 10.68-3.76 12.254-.596 1.588-1.383 4.546 0 5.537.991.787 5.144-.99 5.741-1.384.597-.204 1.18-.598 1.384-.788.787-.787-.393-1.18.787-5.333 0-.203 1.385-4.342 2.375-7.911.787-2.972 3.556-4.357 4.546-4.547 1.588-.203 1.181 1.181.991 2.172-1.384 4.356-2.972 10.87-3.555 12.458-.598 1.587-1.588 4.75 0 5.333 1.384.99 7.708-1.778 8.305-2.172 1.153-.787 1.153-1.18.57-1.18"/><path d="M165.392 32.78c-.393-.203-.597-.203-.787-.393-1.18-.787-.394-2.972 0-4.152l3.76-12.648c.203-1.384.99-3.162 0-3.76-1.182-.393-6.922 1.385-8.306 2.566-.204 0-.787.597-.204 1.18.597.787.597 1.385.204 2.769-.597 2.375-3.366 10.87-3.95 12.458-.596 1.587-1.383 4.75.394 5.333 1.385.99 7.315-1.588 8.102-2.172 1.384-.583 1.384-1.18.787-1.18M164.208 8.86c.393.788 3.949-.786 5.74-1.777.204-.204.99-.787 1.18-1.384.394-1.384.598-1.982.788-2.972.203-.394.203-.99-.394-1.18-.787-.204-5.537.393-6.717 2.374-.394.787-1.778 4.546-.597 4.94m52.99 13.839c-.597-2.17-4.152-2.768-5.536-1.587-.787.787-1.181 2.375-.991 2.768 3.366-.99 3.95 1.982 3.366 3.162-1.181 1.778-1.588 2.375-3.162 2.375h-10.477c-.203-.203-.393-.393 0-.787.597-.787 10.87-14.833 11.264-15.416.203-.394.787-1.384-.597-1.384h-11.468c-1.18 0-1.777.393-2.768 1.384-.787.99-1.778 3.949-2.375 5.93 0 0 0 .787 1.18-.203.204-.204.598-.991 1.181-.991h6.921c2.172 0-9.295 10.87-12.85 16.61-.598.991.393.991.99.991h15.022c3.76 0 3.162.597 5.144-2.171.013 0 6.147-7.912 5.156-10.68m-82.653 6.719 4.153-16.012c2.768-9.69 4.342-10.083 5.333-11.074h-6.528c-2.374 0-4.152 3.366-4.546 5.537l-2.768 10.083h-5.93s3.555-12.852 3.949-14.236c.203-.597.203-1.384-.991-1.384-.204 0-12.648-.394-16.61.99-1.778.598-4.343 2.172-5.144 4.547-.597 1.384-1.384 3.949.394 8.699.203.597.597.99.787 1.18.597.394 5.727-.393 5.537-.393.393 0 .597-.204.203-.991-.393-.99-1.574-2.768-1.777-4.546-.788-6.921 4.152-7.912 4.94-8.102a9.4 9.4 0 0 1 3.365 0c.393 0 1.384.204 1.587.597.394.787-.203 2.172-.597 3.76-.393 1.18-3.759 13.448-4.75 16.8-.596 2.565-3.161 8.101-5.726 8.902-.597.204-1.384.204-2.171 0a7.4 7.4 0 0 1-2.172-.99c-1.587-1.588-2.565-4.75-2.768-7.112-.204-2.972.393-5.143-.204-5.143-1.031 0-4.478 1.357-5.876 2.361-.57.408-.597.489-.597.489-.027.027-.054.054-.068.081-.366.625-.339 2.837-.176 4.18.597 2.972 2.171 6.324 4.546 7.912 6.324 4.342 17.398-3.556 18.592-4.356 1.777-1.588 2.972-3.76 3.365-5.334.597-1.98 1.588-5.333 1.588-5.333h5.93s-2.375 8.902-2.972 11.074c-.597 1.777-.99 4.75.597 4.546 5.93 0 8.306-2.171 8.51-2.375.203-.204.203-.597 0-.787-.408-.204-1.792-1.588-1.005-3.57"/></svg>