<svg xmlns="http://www.w3.org/2000/svg" xml:space="preserve" viewBox="0 0 72 72"><path d="M34.1 13.4c5-.3 10.1.7 14.6 2.9 6.6 3.3 11.9 9.1 14.4 16.1 1.1 3.1 1.7 6.3 1.7 9.6v12c0 .5 0 1-.1 1.5-.3 1.2-1.2 2.3-2.3 2.8-.8.4-1.7.4-2.5.3-1.8-.3-3.3-2.1-3.3-3.9V43.4c0-1.1 0-2.2-.5-3.1-.9-1.7-3.2-2.5-5-1.8-1.5.5-2.6 2.1-2.7 3.8v11.4c0 .7 0 1.4-.2 2.1-.4 1.3-1.5 2.4-2.8 2.8-1.8.5-3.8-.3-4.7-1.9-.6-1-.6-2.2-.5-3.3V42c0-1.9-1.6-3.7-3.5-3.9-1.3-.2-2.5.2-3.5 1.1-.8.8-1.3 1.9-1.3 3v11c0 .9.1 1.9-.2 2.7-.5 1.6-2.1 2.7-3.8 2.7-1.7.1-3.4-1.1-3.9-2.7-.3-.8-.2-1.6-.2-2.5V42c0-1.9-1.5-3.6-3.3-3.9-1.7-.3-3.5.5-4.4 2-.3.6-.5 1.3-.5 2.1v12.4c0 1.2-.5 2.4-1.4 3.2-1.4 1.2-3.7 1.3-5.1.2-1.1-.7-1.7-2-1.7-3.3V42.1c0-4.7 1.2-9.4 3.5-13.6 1.8-3.4 4.4-6.4 7.4-8.8 4.2-3.8 10-6 15.8-6.3"/></svg>