<svg xmlns="http://www.w3.org/2000/svg" xml:space="preserve" viewBox="0 0 360 180"><path d="M57.2 52.1v62h34.4V128H36V52zm83.2 45.1-9.9-27.6-9.9 27.6zm3.5-45.1 28.8 75.8h-22.1l-6.3-17.9h-27.8l-6.3 17.9H92.5L121 52.1zm52.4 61.9h9.5c5.7 0 13.2-1 18.1-7.5s5-14.2 5-17.2c0-4-.5-12-6.2-17.7-5.3-5.1-12.2-5.5-17.3-5.5h-9.1zm-21.2-61.9h31.1c9 0 22.6.9 33.1 9.8 8.5 7.2 12.4 18.9 12.4 28 0 6.6-2.1 20.2-13.8 29.4-9.3 7.3-19.7 8.6-29.5 8.6h-33.3zm116.5 45.1-9.9-27.6-9.9 27.6zm3.6-45.1 28.8 75.8h-22.1l-6.3-17.9h-27.8l-6.4 17.9h-17.7l28.6-75.8z"/></svg>