<svg xmlns="http://www.w3.org/2000/svg" xml:space="preserve" viewBox="0 0 2500 1786"><path d="M109.8 453.8c0-242.5 491.5-439.1 1097.8-439.1s1097.8 196.6 1097.8 439.1-491.5 439.1-1097.8 439.1S109.8 696.3 109.8 453.8m1342.6 38.4c-.3-1.5-1.5-2.6-3-2.9-31.6-4.6-63.3-8.2-95.2-10.9-1.9-.3-3.2-2.1-2-6.2 101.5-106.8 140-242.6 88.7-348.9.2-2 2.1-3.5 4.1-3.3 349.1 42.4 604.1 175.7 604.1 333.6 0 192-376.8 347.7-841.7 347.7S365.9 645.8 365.9 453.8c0-166.4 283.2-305.6 661.5-339.7 1.8.1 3.4 1.5 3.5 4.4l-82.1 452.2c-5.8 29.8 13.7 58.6 43.5 64.3 3.4.7 6.9 1 10.4 1l2.9.2c73.3-3.8 152-26.7 226.3-69.6 21.1-12.2 41.3-25.6 60.7-40.4 1.1-.9 2.7-1.1 4-.4 24.8 16.5 39 35.8 39 56.4 0 28-26.3 53.6-69.6 73-50.3 22.6-123.4 36.7-204.9 36.7-69 0-132.1-10.2-181.1-27.2-2-.4-3.9 1-4.2 3l-7 38.3c-.2 1.9 1 3.7 2.9 4.1 99.5 23.2 214 36.3 335.8 36.3 151.6 0 274.5-49.2 274.5-109.8 0-23.6-18.6-45.4-50.2-63.3-27.7-13.6-45.1-31.2-40.8-43 4.4-12.2 30.9-14.2 62.4-5.7 1.8.2 3.5-.8 4.2-4zm-244.8-276.8c0 2.4-.1 4.7-.2 7.1 4 80.6-45.8 188.4-136.9 279.4-18.1 18.1-37.3 35-57.6 50.6-.8.5-1.8.7-2.7.5-1.9-.4-3.1-2.2-2.8-4.4l89.2-491.2c-.1-1.9-1.6-3.4-3.5-3.5C601.4 77 219.5 247.2 219.5 453.8c0 222.3 442.4 402.5 988 402.5 545.7 0 988-180.2 988-402.5s-442.3-402.5-988-402.5c-17.3 0-34.5.2-51.7.5-1.7 0-3.1 1.2-3.6 2.8l-10.4 57.3c-.2 1.5.5 3 1.8 3.8 39 17.9 64 56.8 64 99.7M184.4 1112.5v537.8H483v121H0v-658.9h184.4zm721.5 391.9-86.1-239.9-86.1 239.9zm31-391.6 250.4 658.4H995.5l-55.1-155.5H699.2l-55.1 155.5h-154l248.1-658.4zm454.6 537.1h82.7c49.4 0 114.9-8.6 157.3-65.3 42.5-56.6 43.6-122.9 43.6-149.7 0-34.6-4.6-104.6-54-153.6-46-44.1-105.7-48-150.5-48h-79.2zm-183.7-537.4h269.9c78.1 0 196.4 7.7 287.1 85.4 73.5 62.4 107.9 164.1 107.9 242.8 0 57.6-18.3 175.6-119.4 255.3-80.4 63.3-171.1 74.9-256.1 74.9h-289.4zm1010.8 391.6-86.1-239.9-86.1 239.9zm31-391.6 250.4 658.4h-191.8l-55.1-155.5h-241.2l-55.2 155.5h-153.9l248.1-658.4z"/></svg>