<svg xmlns="http://www.w3.org/2000/svg" xml:space="preserve" viewBox="0 0 360 180"><path d="M44.151 41.428h-8.19v75.209h42.444v-7.074H44.151zm60.317 19.732c-15.638 0-26.807 11.543-26.807 28.297v1.862c.372 14.52 12.659 26.435 27.18 26.435h1.116c7.447 0 14.52-2.606 20.106-7.447v-.372l-3.724-5.957-.372.372c-4.095 4.468-10.053 6.702-16.01 6.702h-.372c-10.798 0-19.733-8.936-19.733-19.733v-.745h40.583V86.48c.372-15.638-8.191-25.318-21.967-25.318M86.224 83.873c1.117-8.935 8.563-15.637 17.872-15.637 6.701 0 14.148 4.095 14.893 15.637zM173.72 67.49v2.979c-3.35-5.585-9.68-9.308-16.382-9.308h-1.117c-14.52 0-24.573 11.542-24.573 28.296s9.68 28.297 23.828 28.297c7.447.372 14.149-3.351 17.872-9.68v8.19h7.446V41.429h-7.818zm-16.382 43.19c-10.053 0-16.382-8.564-16.382-21.223s7.074-20.85 16.754-20.85c8.191 0 16.382 6.702 16.382 20.85-.372 15.638-8.935 21.223-16.754 21.223-.372 0 0 0 0 0m70.742-42.073v.373c-1.49-2.607-5.958-8.192-17.127-8.192-14.149 0-23.457 10.798-23.457 27.552s9.68 27.925 24.201 27.925c6.702.372 13.404-2.979 16.755-8.564v7.447c0 10.425-6.702 16.382-18.244 16.382q-7.82 0-14.52-3.351l-.373-.372-2.979 6.702.373.372a48.6 48.6 0 0 0 17.499 4.468c12.659 0 26.063-6.33 26.063-23.829V63.767h-7.82zm-15.638 40.583c-10.425 0-17.127-8.19-17.127-20.477s5.957-20.106 16.01-20.106c11.17 0 16.382 6.702 16.382 20.106s-5.212 20.477-15.265 20.477m55.476-48.03c-15.637 0-26.435 11.543-26.435 28.297v1.862c.372 14.893 12.66 26.807 27.552 26.807h1.117c7.447 0 14.52-2.606 19.733-7.446l-3.723-6.33h-.372c-4.468 4.096-10.053 6.33-16.01 6.33h-.373c-10.797 0-20.105-8.936-20.105-20.106v-.744h40.956v-4.096c.372-14.893-8.564-24.573-22.34-24.573m-17.871 22.712c1.117-8.935 8.935-15.637 17.871-15.637 6.702 0 14.148 4.095 14.893 15.637zm73.72-21.595c-1.117 0-1.862 0-2.979-.373-7.819.373-14.52 5.213-16.754 12.66V62.65h-7.82v53.987h8.192V93.925c0-3.35.745-7.074 1.861-10.425 2.607-8.191 8.192-13.404 14.893-13.404h2.979z"/></svg>