<svg xmlns="http://www.w3.org/2000/svg" xml:space="preserve" viewBox="0 0 360 180"><path d="M76.73 51.182H47.018v40.1h40.137V61.57c0-5.696-4.691-10.388-10.388-10.388zm-38.983 0H32.61c-5.696 0-10.387 4.692-10.387 10.388v5.138H37.71V51.182zm-15.525 24.76H37.71v15.489H22.222zm49.556 40.174h5.138c5.696 0 10.388-4.692 10.388-10.388v-4.989H71.815v15.377zm-24.797-15.414H62.47v15.488H46.98zm-24.759 0v5.138c0 5.696 4.69 10.387 10.387 10.387h5.138V100.74c-.037-.037-15.525-.037-15.525-.037M126.77 55.352h-6.069v56.743h32.132v-5.4H126.77zm45.535 15.042c-11.802 0-20.142 8.787-20.142 21.409v1.415c.41 11.02 9.531 19.92 20.59 19.956h.781c5.51 0 10.872-2.01 15.08-5.584v-.15l-2.756-4.467-.298.149c-3.276 3.053-7.558 4.728-12.026 4.803h-.335c-8.228 0-15.005-6.777-15.005-15.005v-.484h30.68v-3.202c.372-11.505-6.293-18.84-16.569-18.84m-13.701 16.941c.819-6.739 6.59-11.877 13.403-11.84 5.139 0 10.723 3.09 11.17 11.84zm65.938-12.175v2.122c-2.569-4.319-7.26-6.962-12.324-7h-.744c-10.872 0-18.393 8.639-18.393 21.223s7.186 21.446 17.909 21.446c5.547.26 10.797-2.57 13.59-7.372v6.218h5.733V55.315h-5.808zm-12.435 32.467c-7.521 0-12.473-6.516-12.473-15.973s5.25-15.824 12.622-15.824c6.106 0 12.324 4.952 12.324 15.824 0 11.765-6.516 15.973-12.585 15.973zm53.391-31.685v.335c-1.117-1.899-4.617-6.069-13.031-6.069-10.686 0-17.76 8.154-17.76 20.627s7.372 20.925 18.244 20.925a13.62 13.62 0 0 0 12.621-6.516v5.622c0 7.856-4.951 12.324-13.776 12.324a23.8 23.8 0 0 1-10.946-2.57l-.298-.148-2.27 4.952.334.149a30.3 30.3 0 0 0 13.255 3.276c9.42 0 19.584-4.803 19.584-18.095V71.623h-5.994zm-11.84 30.717c-7.856 0-13.031-6.07-13.031-15.489s4.468-15.042 12.138-15.042c8.451 0 12.472 4.952 12.472 15.042s-3.909 15.489-11.579 15.489m41.924-36.265c-11.84 0-19.994 8.787-19.994 21.223v1.415c.335 11.17 9.606 20.142 20.776 20.142h.819c5.51-.037 10.834-2.01 15.004-5.622l-2.792-4.765h-.335c-3.277 3.053-7.521 4.728-11.952 4.803h-.335c-8.228 0-15.042-6.777-15.042-15.042V92.1h30.94v-3.202c0-11.17-6.739-18.505-17.09-18.505m-13.627 16.941c.819-6.776 6.627-11.877 13.44-11.84 5.101 0 10.686 3.09 11.17 11.84zm55.663-16.158c-.819 0-1.415 0-2.271-.335-5.771.15-10.835 3.947-12.622 9.42v-9.122h-5.883v40.77h6.07V94.781a26.3 26.3 0 0 1 1.265-7.745c1.9-6.218 6.218-10.201 11.356-10.201a16 16 0 0 1 1.899 0h.335v-5.697h-.149z"/></svg>