<svg xmlns="http://www.w3.org/2000/svg" xml:space="preserve" viewBox="0 0 180 180"><path d="M148.5 50.2c-7.4 0-14 2-19.3 6.4-4.5-4.5-11-6.5-19.8-6.5-6.9 0-12.6 1.6-17.6 4.6-3.6-2.9-7.9-4.7-14.7-4.7-6.2 0-14.8.3-21.3 5.9-1.5-3.1-4.6-5.5-13-5.5-7.8 0-14.2 3.7-18.3 10.5C18.8 69.7 7 95.4 7.3 109.5c.2 10.6 8.1 17.8 19.6 18.1 6.9.2 12.8-1.3 17.2-4.3 4.1 2.9 9.2 4.5 15 4.5 6.9 0 13.1-1.8 17.7-5.1 4.2 3.3 9.6 5.1 15.8 5.1 8 0 15.5-2.8 21.5-8.1 4.1 5.2 11.2 8 19.7 8 16 0 24.3-9.9 30.6-22.7 2.3-4.8 6.7-16.8 7.5-23.2v-.1c1-7.9 1.9-15.4-3.4-22.8-3.7-5.2-10.1-8.7-20-8.7m19.7 24.9c-.3 6-2.2 13.1-3.7 17.4-6.4 18.9-14 30.9-31.4 30.9-7.9 0-15.2-3.1-18.1-10.9-5.2 6.6-13.2 10.9-22.3 11-7 0-12.4-2.4-15.8-6.7-4.1 4.5-11 6.6-17.9 6.6-6.2 0-11.3-2.2-14.7-5.8-3.8 3.8-9.7 5.8-17.3 5.6-9.7-.2-15.1-6-15.3-14.1-.3-12.5 11.6-38.2 16.5-46 3.4-5.5 8.1-8.3 14.3-8.3 3.4 0 6.9.6 9.1 2.9 1.8 1.9 2.1 3.6 2.2 6.8 5.5-8.8 14.7-10 23.2-10 6.5 0 11.9 2.4 14.1 6.1 4.3-3.7 10.6-6 18.1-6 7.7 0 13.4 1.9 17 5.9.8.9 1.3 1.6 2.1 3.1 4.3-5.2 10.8-8.8 20.1-8.8 16.2-.2 20.4 10.3 19.8 20.3"/><path d="M26.9 127.6c6.9.2 12.8-1.3 17.2-4.3 4.1 2.9 9.2 4.5 15 4.5 6.9 0 13.1-1.8 17.7-5.1 4.2 3.3 9.6 5.1 15.8 5.1 8 0 15.5-2.8 21.5-8.1 4.1 5.2 11.2 8 19.7 8 16 0 24.3-9.9 30.6-22.7 2.3-4.8 6.7-16.8 7.5-23.2v-.1c1-7.9 1.9-15.4-3.4-22.8-3.8-5.3-10.2-8.8-20.1-8.8-7.4 0-14 2-19.3 6.4-4.5-4.5-11-6.5-19.8-6.5-6.9 0-12.6 1.6-17.6 4.6-3.6-2.9-7.9-4.7-14.7-4.7-6.2 0-14.8.3-21.3 5.9-1.5-3.1-4.6-5.5-13-5.5-7.8 0-14.2 3.7-18.3 10.5C18.8 69.7 7 95.4 7.3 109.5c.2 10.5 8.1 17.8 19.6 18.1m2.4-63.9c3.2-5.2 7.5-7.7 13.3-7.7 3.9 0 6.6.8 8.2 2.5 1.5 1.5 1.7 2.8 1.9 6l.2 4 2.1-3.4c5.1-8.3 13.7-9.4 22.1-9.4 5.9 0 11 2.2 13.1 5.5l.8 1.2 1.1-.9c4.4-3.7 10.5-5.7 17.3-5.7 7.4 0 12.8 1.8 16 5.5.7.8 1.2 1.4 1.9 2.8l.8 1.7 1.2-1.5c4.7-5.6 11.1-8.4 19.1-8.4 6.3 0 11.1 1.7 14.3 5 3.9 4.2 4.5 10 4.3 14.2-.3 5.5-2.1 12.4-3.6 17-6.2 18.6-13.5 30.1-30.2 30.1-4.9 0-13.7-1.3-16.9-10.1l-.8-2.1-1.4 1.7c-5.2 6.6-13 10.5-21.4 10.5-6.4 0-11.5-2.1-14.9-6.2l-.9-1.1-1 1.1c-3.6 3.9-9.7 6.2-17 6.2-5.7 0-10.6-1.9-13.8-5.4l-.9-1-.9.9c-3.6 3.6-9.2 5.4-16.3 5.3-8.6-.2-13.9-5-14-12.9-.3-12.2 11.5-37.7 16.3-45.4"/><path d="M109.2 83.7c-5.1.2-8.2 1.3-9.9 6.6-1.7 5.4 4.4 5.5 4.4 5.5-1.2 5.6-4.8 9-8 9-2 0-3.8-.9-3.2-5.1.9-6.2 6.7-21.2 9.4-24.9 1.2-1.7 2.8-3.3 5.3-3.3 3.1 0 2.8 1.6 2 3.7-2.1 5.9 4.2 6 5.7 5.9 5.4-.4 8.4-3.9 9.2-9.9 1-8.1-5.8-11.3-14.5-11.3-14.5 0-20.2 8.9-25.6 21.5-2.5 5.9-5.8 16.1-5.8 22.6 0 9.1 5.5 14 14.4 14 13 0 22.2-10.4 24.8-23.3.9-3.9 1.9-11.4-8.2-11M149.1 60c-14.8-.2-19.4 9.6-24 21.6-2.6 6.6-5.7 16.7-5.7 23.9.1 10 7.3 12.4 13.8 12.4 6.5.1 13.9-1.5 20-12.4 3.7-6.7 7.2-15.7 8.7-23.4 1.4-6.6 4.4-21.9-12.8-22.1m.5 14.7c-.2 4.6-6.9 23-9.3 27-1 1.8-2.2 3.2-4.3 3.2-1.8 0-2.7-1.3-2.7-2.8-.1-4.2 7.5-25 10.1-28.3 1.2-1.8 2.4-2.1 3.9-2.1 2.2.1 2.4 1.6 2.3 3m-117 27.5c.9-2 2.2-4.8 3.7-7.9 4.8-10 11.5-23.8 11.7-29.2.1-2.7-1-4.9-5.3-4.9-4.6 0-7.4 1.9-9.8 5.8-5.1 8.1-15.9 32.6-15.7 43.2.1 6.1 4.8 8.4 10 8.6 7.2.2 15.5-1.9 16.3-10.9.4-3-1.9-6.3-10.9-4.7"/><path d="M66.4 81.5c1.8-4.5 3.4-7 3.4-7 2 .1 5.2 0 7.3-.1 5-.3 10-2.5 10-8.5 0-4.3-5.2-6.2-9.7-6.2-10.3 0-16.3 1.5-22.1 13.2-4.8 9.5-9.8 23.7-9.8 33 0 8 6.4 12.1 13.7 12.1 6.6 0 16.2-2.5 16.2-11.2 0-3.6-2.8-5.4-7.1-5.5-3.8-.1-6 .4-9 1.2.9-3.6 2-7 2.6-8.6 7.6 1.4 13.9.9 16-6.3 1.6-5.3-2.3-7.4-11.5-6.1M171.9 50c-2.4 0-4.3 1.9-4.3 4.3s1.9 4.3 4.3 4.3 4.3-1.9 4.3-4.3-1.9-4.3-4.3-4.3m0 7.8c-1.9 0-3.5-1.6-3.5-3.5s1.5-3.5 3.4-3.5 3.5 1.5 3.5 3.5c.1 1.9-1.5 3.5-3.4 3.5"/><path d="M172.6 54.6c.8-.1 1.2-.6 1.2-1.3s-.5-1.2-1.4-1.2h-2.2v4.5h.9v-1.8h.2c.4 0 .6 0 .7.2l.6.9.4.7h1.1l-.5-.9c-.4-.8-.6-1-1-1.1m-1.5-.6v-1.2h.8q.9 0 .9.6c0 .3-.2.6-.8.6z"/></svg>