<svg xmlns="http://www.w3.org/2000/svg" xml:space="preserve" viewBox="0 0 320 320"><path d="M247.86 0H72.14C32.3 0 0 32.3 0 72.14v175.72C0 287.7 32.3 320 72.14 320h175.72c39.84 0 72.14-32.3 72.14-72.14V72.14C320 32.3 287.7 0 247.86 0m-4.07 198.19c-22.38 25.77-72.43 57.16-83.82 61.95s-9.71-3.06-9.24-5.76c.27-1.6 1.52-9.13 1.52-9.13.36-2.72.73-6.95-.35-9.65-1.19-2.97-5.92-4.51-9.4-5.26-51.22-6.77-89.22-42.62-89.22-85.42 0-47.74 47.86-86.58 106.69-86.58s106.69 38.84 106.69 86.58c0 19.08-7.41 36.32-22.87 53.27"/><path d="M231.16 121.94h-30c-1.1 0-2 .9-2 2v46.55c0 1.1.9 2 2 2h30.07a2 2 0 0 0 1.93-2.07v-7.56c0-1.1-.9-2-2-2h-20.37V153h20.37c1.1 0 2-.9 2-2v-7.64c0-1.1-.9-2-2-2h-20.37v-7.85h20.37c1.1 0 2-.9 2-2v-7.57c0-1.1-.9-2-2-2m-110.87 38.99H99.92v-37c0-1.1-.9-2-2-2h-7.6c-1.1 0-2 .9-2 2v46.53c0 1.1.9 2 2 2h30l-.03.03c1.1 0 2-.9 2-2v-7.56c0-1.1-.9-2-2-2m18.04-39.08h-7.56c-1.13 0-2.04.91-2.04 2.04v46.56c0 1.13.91 2.04 2.04 2.04h7.56c1.13 0 2.04-.91 2.04-2.04v-46.56c0-1.13-.91-2.04-2.04-2.04m51.55 0h-7.6c-1.1 0-2 .9-2 2v27.66l-21.3-28.77c-.05-.08-.11-.15-.17-.21l-.12-.12-.11-.09h-.06l-.11-.08h-.06l-.11-.06h-8.47c-1.1 0-2 .9-2 2v46.56c0 1.1.9 2 2 2h7.57c1.1 0 2-.9 2-2v-27.93l21.33 28.8c.14.2.32.38.52.52l.12.08h.06l.1.05h.31c.18.04.36.07.54.07h7.52c1.1 0 2-.9 2-2v-46.44c.02-1.1-.86-2.02-1.96-2.04"/></svg>