<svg xmlns="http://www.w3.org/2000/svg" xml:space="preserve" viewBox="0 0 360 180"><path d="M35.966 125.975h45.338v-14.874H52.369V54.35H35.966zm68.363 0v-49.31H87.926v49.31zM96.077 69.94c5.705 0 9.27-3.77 9.27-8.558-.101-4.89-3.565-8.558-9.169-8.558s-9.27 3.667-9.27 8.558c0 4.788 3.565 8.558 9.067 8.558zm15.791 56.035h16.403V98.467c0-1.426.102-2.955.51-3.973 1.222-2.955 3.871-6.011 8.456-6.011 5.91 0 8.355 4.482 8.355 11.207v26.387h16.403V97.652c0-15.18-8.05-22.21-18.849-22.21-8.863 0-12.735 4.992-14.875 8.354h.102v-7.132H111.97c.102 4.585-.102 49.311-.102 49.311m73.254-71.623h-16.403v71.623h16.403V109.98l4.075-5.196 12.838 21.191h20.172L200.71 95.411l18.848-20.886h-19.765s-13.448 18.644-14.671 20.886z"/><path d="M266.119 105.395a41.4 41.4 0 0 0 .51-6.419c0-12.735-6.521-25.674-23.536-25.674-18.237 0-26.693 14.467-26.693 27.508 0 16.2 10.29 26.286 28.221 26.286 7.132 0 13.653-1.019 19.154-3.26l-2.14-10.8c-4.38 1.427-8.965 2.242-14.568 2.242-7.642 0-14.366-3.159-14.875-9.883zM231.988 94.29c.408-4.177 3.26-10.392 10.29-10.392 7.438 0 9.17 6.622 9.17 10.392zm75.189-39.938v24.757h-.203c-2.344-3.464-7.336-5.807-13.958-5.807-12.634 0-23.739 10.086-23.637 27.406 0 15.996 9.984 26.388 22.516 26.388 6.826 0 13.245-2.954 16.505-8.66h.306l.611 7.438h14.57c-.205-3.465-.408-9.476-.408-15.385V54.15zm0 48.802c0 1.222-.101 2.547-.305 3.566-.917 4.482-4.89 7.64-9.577 7.64-6.826 0-11.207-5.5-11.207-14.059 0-8.15 3.77-14.671 11.309-14.671 5.094 0 8.66 3.464 9.577 7.743.203.917.203 2.038.203 2.955z"/></svg>