<svg xmlns="http://www.w3.org/2000/svg" xml:space="preserve" viewBox="0 0 360 180"><path d="M36 122.7h11.3V93.3c0-5.8 3.8-10 9.2-10 5.3 0 8.6 3.3 8.6 8.7v30.7h11V93c0-5.7 3.7-9.7 9.2-9.7s8.6 3.4 8.6 9.2v30.1h11.3V89.8c0-9.6-6.2-16-15.7-16-6.9 0-12.7 3.7-15 9.6h-.3c-1.8-6.1-6.6-9.6-13.4-9.6-6.5 0-11.6 3.7-13.7 9.2h-.2v-8.3H36zm93.8-7.8c-4.9 0-8.2-2.5-8.2-6.4 0-3.8 3.2-6.2 8.5-6.6l11.1-.7v3.7c.2 5.8-5 10-11.4 10m-3.3 8.6c6.2 0 12.2-3.2 15-8.4h.2v7.7h10.9V89.6c0-9.6-7.8-15.9-19.7-15.9-12.3 0-19.9 6.4-20.4 15.4H123c.7-4 4.1-6.6 9.5-6.6 5.6 0 9 2.9 9 7.9v3.4l-12.7.7c-11.7.7-18.3 5.8-18.3 14.3-.1 8.8 6.6 14.7 16 14.7m75.6-31.7c-.8-10.1-8.6-18.1-21.3-18.1-13.9 0-23.1 9.6-23.1 25 0 15.6 9.1 24.9 23.1 24.9 12 0 20.4-7.1 21.3-17.8h-10.6c-1.1 5.5-4.8 8.7-10.5 8.7-7.1 0-11.8-5.8-11.8-15.9 0-9.8 4.6-15.9 11.7-15.9 6 0 9.6 3.8 10.5 8.9zM237 56.2c-19.1 0-31.1 13-31.1 33.8s12 33.8 31.1 33.8 31-12.9 31-33.8-12-33.8-31-33.8m0 10c11.6 0 19.1 9.2 19.1 23.8 0 14.5-7.4 23.8-19.1 23.8s-19.1-9.2-19.1-23.8c0-14.5 7.4-23.8 19.1-23.8m35.8 38.1c.5 12 10.4 19.5 25.4 19.5 15.8 0 25.8-7.8 25.8-20.2 0-9.7-5.6-15.2-18.9-18.2l-7.5-1.7c-8-1.9-11.4-4.4-11.4-8.8 0-5.5 5-9.1 12.4-9.1 7.5 0 12.6 3.7 13.2 9.8h11.1c-.2-11.5-9.8-19.3-24.2-19.3-14.2 0-24.4 7.8-24.4 19.4 0 9.3 5.7 15.1 17.8 17.9l8.5 2c8.3 2 11.6 4.7 11.6 9.4 0 5.5-5.5 9.3-13.4 9.3-8 0-14-3.9-14.7-10z"/></svg>