<svg xmlns="http://www.w3.org/2000/svg" xml:space="preserve" id="Layer_1" x="0" y="0" version="1.1" viewBox="0 0 360 180"><style>.st0{fill:#0b0b0a}.st1{fill:#0b0c0a}</style><path d="m302.5 99.2-.1-.4v-.1c2.7-5.7 5.9-8.9 8.6-8.9 3.1 0 5.2 2.8 5.2 6.8 0 2.6-1.2 4.2-2.2 5-1.1.9-2.6 1.5-4.1 1.5-3.4-.1-5.9-2.2-7.4-3.9m-.7 21.3c-.4.6-1.1.9-1.8.9-.9 0-1.5-.3-2-.9-1.3-1.7-.9-5.7 1.2-12.9.2-.9.5-1.7.8-2.6l.2-.7.2.7c2.4 8.4 2.9 13.6 1.4 15.5m-88.5-38.4c.1-1.8.2-3.6.4-5.2 1.4-10.7 4.3-18.1 7.1-18.1 1.3 0 2 1 2 3 0 4.8-3.1 11.7-9.1 20.5l-.5.7zm97.1 24.4c5.9 0 10-4 10.1-9.8 0-2.9-.8-5.5-2.3-7.4-1.6-2-3.9-3.1-6.5-3.1h-.1c-3.6 0-6.9 2.7-10.2 8.3l-.3.4-.2-.5c-.8-2.4-1.6-4.4-2-5.6-.3-.8-.4-1.2-.5-1.3-.2-.6-.7-1-1.4-1-.4 0-.9.1-1.3.4s-.6.6-.7 1v.1c-3.3 10.2-6 15.1-8.2 15.1-.3 0-.6-.1-.8-.3-.6-.7-.5-2.2-.2-4.4.1-1.6.3-3.4.2-5.3-.1-3.7-2.2-5.9-5.4-5.9-4.1 0-6.8 4.4-8 7l-.4.8-.1-.9c-.3-3.2-1.4-7.1-4.8-7.1-4 0-7.1 4.7-8.9 8.6l-.5 1.1.1-1.2c.2-5.3.4-8.4.5-9.2.1-.9.1-1.4-.2-1.8-.3-.3-.8-.4-1.5-.4-1.3.1-1.9.9-2.9 3.5-1.6 4.3-5.7 14.3-9 14.3-.7 0-1.2-.2-1.5-.7-1.4-1.6-.8-5.9-.1-11.8l.1-.5c.4-2.8-.3-3.4-1.8-3.7h-.5c-1.2 0-1.8 1.2-2.9 4.4-2 5.8-4.6 11.8-7.7 11.8h-.3c-1.6-.3-1.6-2.7-1.5-5.7 0-1.6.1-3.5-.2-5.2-.5-3-2.2-4.9-4.6-4.9-4.8 0-8 6.1-9.5 9.8l-.3.8-.1-.9c-.2-1.6-.5-4.1-.6-7.1v-.1l.1-.1c9-11.3 13-19.4 13-26.4 0-4.5-2-7.1-5.5-7.2-2.5 0-8.6 2.1-10.7 21.7-.4 3.6-.6 7.4-.6 11.1v.2c-4.1 5.9-12.8 16.1-21.4 16.1-7.7 0-13.9-6.3-13.9-17.3 0-14.8 10.5-23.9 18.4-23.9h.1c1.7 0 3.2.5 4.3 1.4s1.7 2.2 1.7 3.8c0 2-.7 3.1-1.3 4.1-.2.3-.3.5-.5.8s-.3.7-.1 1c.2.4.7.6 1.4.6 1.9 0 4.7-2.7 4.7-6.8 0-4.3-3.6-8.7-10-8.7-9.8 0-22.9 10.7-22.9 28.1 0 12.3 7.7 20.8 18.1 20.8 7.4 0 14.7-5.3 21.2-14.2l.4-.5v.7c.1 3.2.4 5.8.5 7.7.1 1.2.2 2.1.2 2.5 0 1 .2 1.8.5 2.2.4.4.9.7 1.8.7 1.5 0 1.7-1 2.3-3.4l.2-.7c.7-3 3.4-12.7 7.3-12.7q1.05 0 1.5.6c.9.9.8 2.8.7 5.1q-.15 2.1 0 4.2c.4 3.8 2 5.6 5 5.6s6.2-3.3 7.9-6.3l.3-.6-.1.7c.3 1.6 1.7 7 6 7 3.9 0 7.3-4.1 11-12.6l.5-1.1v1.2c-.1 3.2-.3 7.2-.3 10.2 0 2.4.2 3.3 1.3 3.3h.2c1 0 1.7-.6 2.1-1.9 2.8-9.7 5.2-14.2 7.6-14.2 2.3 0 2.5 4.3 2.7 11.8v.5c.1 2.6.2 3.8 1.8 3.8 1.2 0 1.5-1 2.2-3.4.1-.5.3-1 .4-1.5 2.2-7.8 4.1-10.9 6.4-10.9 2 0 2.1 2.1 2.1 2.7.1 1.4-.1 2.9-.2 4.4-.1 1.4-.3 2.7-.2 4 .1 3 1.8 4.7 4.7 4.7 3.8 0 7.2-4.4 10.2-13.1l.2-.6.3.7c.5 1.4 1.2 3.2 1.9 5.4v.2C296 106 294 113.1 294 117c0 5 2.2 8.3 5.8 8.3h.1c1.9 0 6.4-.8 6.5-8 0-2.9-.7-7.1-2.1-12.4l-.2-.6.5.3c1.7 1.3 3.8 1.9 5.8 1.9M120.6 91.8c-1.3 5.1-3.7 11.3-8.1 11.6h-.4c-1.8 0-2.8-1.2-3-3.5-.2-2.9 1-6.4 3.2-8.8 1.4-1.5 3-2.4 4.5-2.4 1.9 0 3.2 1.5 3.8 2.9zm40.2-28.6c.5 0 .8.2 1.1.6 1.4 1.9 1.5 9-1 17.1-1.4 4.6-3.3 9-5.5 12.6l-.3.6-.1-.7c-.3-2-.4-4-.5-5.7-.6-12.1 3.1-24.3 6.3-24.5m-33.4 42.4c4.2-.3 7.6-6.1 8.9-8.6l.3-.6.1.7c.6 3.5 2.5 9.3 8.4 9.3h.1c2.5 0 5.4-1.6 8.4-4.5l.2-.2.2.3c2 3.3 4.6 5 7.4 4.9 4.1-.2 6.7-3.1 6.9-5.2.1-.5-.1-1-.4-1.3-.4-.4-.9-.5-1.3-.1l-.2.2c-1 .9-2.8 2.7-4.7 2.8-2.4.1-4.2-1.3-5.3-4.3v-.1l.1-.1c6.6-8.6 11.2-21.8 10.7-30.6-.2-4.1-1.4-8.9-5.9-8.9h-.3c-1.7.1-3.3.9-4.6 2.4-4.1 4.6-6.3 16-5.5 29 .2 2.7.6 5.2 1.4 7.5v.1l-.1.1c-2.4 2.9-4.9 4.4-6.8 4.4-4.7 0-4.5-7.8-4.1-14.3.1-1.4.2-2.3-.2-2.8-.3-.4-.8-.5-1.5-.5h-.1c-1.7 0-2 .3-2.8 2.8-1.8 5.1-5.2 13.7-8.7 13.7-1 0-1.7-.3-2.2-1-1.7-2.2-.4-7.6.6-11.9.2-.8.4-1.5.5-2.2.2-1 .2-1.8-.2-2.2-.4-.5-1.1-.6-2.1-.6-1.5.1-2.5.7-2.9 3.6l-.1.6-.3-.4c-.7-1-1.9-2.1-4.3-2.1h-.6c-2.5.2-5.4 2-7.5 4.6-2.5 3.1-3.6 7-3.3 10.9 0 .2.1.4.1.6v.1l-.1.1q-2.25 2.4-4.5 2.4c-2.3 0-3.6-1.7-3.6-4.6 0-4.8 3.2-19.2 3.2-24.4 0-5.5-2.5-8.6-6.8-8.6h-.1c-6.3 0-11.2 7.1-15.8 21.8-.4 1.3-.9 2.9-1.3 4.2l-.7 2.2.2-2.3c.4-5.1.7-10.1.9-14.7.2-7.1-.7-11.6-2.9-13.9-1.2-1.2-2.8-1.8-4.8-1.9h-.1c-7.7 0-11.3 12.9-14 22.1-.8 2.8-2.4 9-3.5 13.2l.6-1c.5-5.4 1.8-18.8 1.7-26C54 62.5 51.4 59 45.7 59h-.1c-3.1 0-5.2 1.5-6.4 2.8-2 2.1-3.2 5-3.2 7.6 0 1.6 1 3 1.7 3 .5 0 .7-.6.9-1 1.8-5.9 4.1-8.7 7-8.7 1.2 0 2.1.4 2.8 1.1 2.3 2.5 1.9 9.1 1.1 21.2-.2 3.9-.5 8.3-.8 13.3 0 .9-.1 1.7-.1 2.5-.2 3.5-.4 6.3.9 6.5 1.7.3 2.8-.4 3.4-2.1.8-2.5 2.8-9.4 6.4-22.1 3.5-12.1 6.2-16.5 9.6-16.5 4 0 4.2 6.8 3.5 21.1-.2 3-.4 6.5-.5 10.2 0 .5 0 1-.1 1.5-.2 3.1-.3 5.5.6 6.5.3.3.7.4 1.1.4 1.7 0 2.2-1.5 3.1-4 .2-.4.3-.9.5-1.4C83 84.7 87.3 70.6 93.2 70.6c1.7 0 3.1 1.4 3.1 4.2 0 6.4-3.1 18.8-3.1 25 0 2.2.6 4.3 1.9 5.7 1.3 1.5 3 2.2 5.1 2.2 2 0 4-.9 6-2.8l.2-.2.2.2c1.4 1.8 3.5 2.8 5.9 2.6 3.6-.3 6.7-3.5 7.8-6.6l.2-.6.2.6c1 2.3 2.9 5 6.7 4.7" class="st0"/><path d="M141 73.1c-1.6 0-2.9 1.3-2.9 2.8 0 1.6 1.3 2.9 2.9 2.9v.2-.2c1.6 0 2.9-1.3 2.9-2.8 0-1.6-1.3-2.9-2.9-2.9m101.7 0c-1.6 0-2.9 1.3-2.9 2.8 0 1.6 1.3 2.9 2.9 2.9v.2-.2c1.6 0 2.9-1.3 2.9-2.8.1-1.6-1.2-2.9-2.9-2.9" class="st0"/><path d="M322 107c-.9 0-1.7-.8-1.7-1.7s.8-1.7 1.7-1.7 1.7.8 1.7 1.7-.7 1.7-1.7 1.7m0-3.7c-1.1 0-2 .9-2 2s.9 2 2 2 2-.9 2-2-.9-2-2-2" class="st1"/><path d="M321.9 105.1h-.4v-.8h.5c.2 0 .5.1.5.4.1.4-.2.4-.6.4m1-.4c0-.4-.2-.6-.7-.6h-.9v2.3h.3v-1h.4l.7 1h.3l-.7-1c.3-.1.6-.2.6-.7" class="st1"/></svg>