<svg xmlns="http://www.w3.org/2000/svg" xml:space="preserve" viewBox="0 0 239.04 98.41"><path d="M126.06 39.31c-3.16.54-7.15 3.35-10.07 7.58-1.65 2.4-2.83 4.82-3.16 7.58.89-.23 2.48-.54 4.97-2.21 5.44-3.65 9.65-9.33 10.25-11.89.12-.45.12-.82.15-1.01-.7-.16-1.26-.2-2.14-.05m101.7-7.04q-1.125-.03-1.92.78c-.53.53-.79 1.18-.78 1.93 0 .76.26 1.41.79 1.95.53.55 1.18.81 1.93.83.76 0 1.4-.26 1.93-.79.52-.53.79-1.18.78-1.95 0-.75-.27-1.4-.81-1.93a2.57 2.57 0 0 0-1.92-.82m.87 4.47v-.03c-.01-.02-.01-.02-.01-.04l-.02-.12v-.28c.01-.41-.12-.67-.33-.81-.12-.07-.36-.11-.67-.11h-.49v1.38l-.61-.01-.01-3.49 1.22.01c.42 0 .74.05.95.14.36.15.54.45.54.88 0 .31-.11.54-.34.69-.12.07-.28.13-.5.17.27.04.46.15.6.34.13.18.19.36.19.54l.01.25c0 .09 0 .18.02.26q0 .135.03.18l.02.04z"/><path d="M235.31 30.51c1.69-1.73 3.09-5.14 2-9.55-1.14-4.6-6.04-9.34-11.31-10.9-4.12-1.22-8.27-1.01-12.14.56-23.2-10.3-62.59-13.45-104.08-7.93-15.24 2.03-29.85 5.07-43.2 8.94-1.69-1.19-3.67-2.1-5.67-2.47-3.34-.61-6.02-.44-8.68.55-3.29 1.22-5.18 3.1-7.98 6.06-1.76 1.86-3.54 3.84-5.33 5.93-2.52 1.14-4.95 2.31-7.27 3.53C8.97 37.05-2.15 51.11.34 64.85c.6 3.32 1.98 6.45 4.07 9.37-.63 1.35-1.12 2.54-1.43 3.48-1.22 3.7-1.1 6.85.39 9.64 1.77 3.34 5.61 6.26 8.9 7.2 5.06 1.44 9.17-.97 11.03-6.46 5.94 2.59 12.94 4.75 20.93 6.4 22.99 4.79 52.28 5.21 82.46 1.2 30.17-4 57.91-12.02 78.14-22.54 20.56-10.71 31.63-23.3 31.63-35.8 0-1.28-.12-2.54-.35-3.8-.2-1.04-.47-2.04-.8-3.03M97.55 73.18c-.51 2.32-2.42 4.04-5.19 4.9-2.68.83-5.9.74-8.41-.24-4.52-1.76-7-6.66-7.76-12.6-.28-2.18-.4-5.02-.4-8.23 0-3.72.16-7.22.48-10.89-5.86 7.14-14.08 18.45-22.23 33.97-1.26 2.39-2.59 3.45-4.47 3.84-2.11.43-4.68-.12-7.03-1.53-2.94-1.76-4.24-4.72-4.36-8.83l-.07-1.82c0-3.86.82-10.37 2.44-19.33.45-2.49.79-4.1 1.33-6.69-9.82 13.63-18.08 29.4-21.77 40.42-.41 1.22-.93 2.25-1.56 3.1l-.01.01c-.14.18-.28.36-.43.52-.01.01-.02.02-.02.03-.14.16-.29.31-.44.45-.02.01-.03.03-.05.04-.15.13-.3.26-.45.38-.02.02-.05.03-.07.05-.15.11-.3.21-.46.31-.03.02-.07.04-.1.05-.15.09-.31.17-.47.24-.04.02-.09.03-.13.05-.15.07-.31.13-.47.18-.05.02-.11.03-.16.05-.15.04-.31.09-.46.12l-.2.03c-.15.03-.3.05-.46.07-.07.01-.15.01-.23.01-.15.01-.31.02-.46.02-.08 0-.17-.01-.25-.01-.16-.01-.31-.01-.47-.03-.08-.01-.16-.02-.23-.04-.17-.02-.34-.05-.52-.08-.25-.05-.51-.11-.77-.19-2.62-.75-4.82-2.26-6.28-5.01-.96-1.81-1.22-3.78-.84-5.98.12-.73.32-1.49.58-2.28 0-.01.01-.01.01-.02.11-.33.24-.69.4-1.08.01-.02.01-.03.02-.05.16-.4.34-.83.55-1.29v-.01c3.2-7.22 11.5-21.04 16.86-29.13 7.23-10.92 14.08-19.76 20.25-26.64.04-.05.09-.1.13-.15.14-.15.27-.3.41-.45.77-.85 1.52-1.67 2.27-2.45 2.88-3.04 4.47-4.56 7.32-5.62 2.54-.95 4.93-.98 7.74-.47q.54.105 1.05.24c.21.06.42.13.62.2.12.04.24.07.35.11q.45.165.87.36c.01.01.03.01.05.02.29.14.56.28.83.44.01 0 .02.01.03.01 1.2.71 2.19 1.63 2.86 2.73 1.26 2.05 1.26 4.72.27 7.42-1.46 3.99-3.91 10.4-6.24 19.05 5.52-7.13 11.93-14.49 16.97-19.1 2.02-1.85 3.4-2.97 4.95-3.63 2.43-1.03 5.67-1.01 8.76.21 4.4 1.73 6.32 5.1 5.07 9.7-1.66 6.09-2.65 11.97-3.22 18.65-.51 5.96-.36 11.18.24 14.64.31 1.78.72 3.35 1.87 5.35.7 1.39 2.12 3.38 1.56 5.9M152.5 57.7c-2.99 3.91-7.91 7.66-12.23 9.04-4.54 1.46-9 .87-11.45-3.19-.41-.69-.58-1.16-.9-2.07-9.91 10.6-21.16 13.45-27.47 7.87-2.93-2.59-4.49-6.05-4.58-11.09-.12-6.81 3.01-14.34 8.13-20.7 6.81-8.46 16.08-13.6 23.52-13.07 3.41.24 6.4 1.85 8.51 4.48 2.2-1.08 4.29-1.3 5.98-1.06 1.97.28 3.51 1.35 4.35 2.67.55.86.85 2.03.85 2.97 0 1.35-.36 2.79-1.12 4.8-.79 2.08-1.81 5.09-2.73 9.01.2-.16.53-.46.64-.55 2.8-2.41 6.44-2.76 8.92-.24 2.12 2.18 3.27 6.31-.42 11.13m26.1-13.33a66.5 66.5 0 0 0-4.31 8.38s-1.09 2.61-1.11 2.64c0 0-.18.37-.18.36-.91 2.26-1.91 4.65-4.36 6.25-3.73 2.43-9.49 2.32-12.04-1.57-.68-1.03-1.02-2.22-.96-3.58.07-1.43.52-2.84 1.38-4.45 1.18-2.32 1.69-3.92 2.28-5.77-2.31.58-5.19-.35-6.84-2.34-2.5-3-2.23-6.86-.34-9.83 1.64-2.58 4.8-5.83 8.48-8.6 2-1.5 4.17-2.82 6.66-3.41 3.16-.76 6.42.09 8.2 2.88 1.01-1.11 2.08-2.28 3.12-3.21 4.11-3.66 7.6-5.54 12.19-5.98 4.39-.42 7.74 1.21 9.71 3.65 1.32 1.64 2.09 3.91 2.21 6.24.11 1.97-.34 3.92-1.37 5.39-.9 1.31-2.23 2.08-3.52 2.18-.84.06-1.28-.03-1.89-.29-.79-.34-.87-.58-1.89-.94-.9-.33-1.98-.31-3.08-.04-3.95.97-7.49 4.03-12.34 12.04m51.43-7.1c-.61.63-1.37.92-2.23.92-.89-.01-1.62-.33-2.23-.95a3.1 3.1 0 0 1-.93-2.27c-.01-.87.31-1.62.92-2.23s1.34-.92 2.22-.91a3.1 3.1 0 0 1 2.24.95c.62.62.94 1.37.94 2.25-.01.88-.31 1.63-.93 2.24m4.3-13.63c-.01.08-.03.16-.04.25-.03.24-.07.47-.11.69l-.09.38c-.04.17-.09.34-.15.5-.04.12-.08.25-.12.36-.08.22-.17.42-.27.62-.29.6-.65 1.12-1.05 1.53-1.11 1.13-2.57 1.74-4.35 1.43-1.65-.28-2.67-1.43-3.9-2.93-.91-1.12-2.13-1.76-3.33-1.15-1.43.73-1.73 2.49-.38 5.95 2.92 7.43 3.6 14.22-.75 20.47-3.52 5.05-9.58 8.33-15.67 8.85-8.25.7-14.42-2.47-17.41-8.21-1.21-2.32-1.61-5.14-1.17-7.29.51-2.53 2.3-4.71 4.46-5.47 2.23-.78 4.18-.2 5.89 1.69 1.2 1.33 1.86 2.68 3.32 3.47 1.24.67 2.62.78 3.95.25 1.93-.77 3.05-2.39 3.08-4.91 0-1.96-.62-3.95-1.17-5.66-.78-2.4-1.14-4.66-1.14-6.78.01-2 .35-3.94.97-5.59 1.47-3.94 4.24-7.02 7.63-8.91 1.17-.65 2.39-1.14 3.64-1.5.02-.01.04-.01.06-.02.71-.2 1.44-.36 2.17-.46.02 0 .04-.01.06-.01.31-.04.62-.07.93-.1l.53-.03c.27-.01.54-.03.8-.03.43 0 .86.02 1.29.05.16.01.33.04.5.06.35.04.71.09 1.06.15.15.03.3.05.45.08.49.1.99.22 1.48.36 1.57.46 3.03 1.21 4.3 2.17 2.11 1.59 3.67 3.75 4.26 6.15 0 .02.01.03.01.05.09.37.15.73.2 1.08.02.12.03.24.04.35.03.26.05.52.05.77 0 .11.01.23.01.34.01.36 0 .68-.04 1"/><path d="M228.6 34.32c0-.25-.07-.42-.23-.51-.15-.09-.4-.13-.73-.13h-.52v1.26l.54.01c.26 0 .46-.02.58-.07.24-.11.37-.29.36-.56m1.69-13.47c-.54-2.4-2.64-4.58-5.88-5.57-6.31-1.94-13.54 1.36-16.07 8.13-1.05 2.8-.97 6.31.23 9.9.8 2.41 1.66 5.34 1.26 8.41-.51 3.93-3.25 6.42-6.68 7.13-3.77.78-6.98-.68-9.35-4.24-.91-1.36-1.52-1.87-2.58-1.5-.9.32-1.8 1.44-2.06 2.72-.27 1.34.09 3.11.83 4.37 2.58 4.43 8.04 6.58 13.79 5.98 5.35-.55 9.95-3.25 12.67-7 3.13-4.32 3.42-9.96.88-16.63-2.07-5.42-1.47-9.1 1.6-10.82 2.41-1.29 5.47-.54 7.29 2.12.8 1.17 1.22 1.5 1.86 1.6 1.28.2 2.82-1.3 2.27-4.36zm-35.51 8.28c.76.57 1.25.78 1.91.68.57-.09.97-.4 1.31-.88 1.26-1.8 1.1-5.03-.33-6.75-1.54-1.84-3.59-2.67-6.54-2.38-3.32.32-6.38 1.68-10.06 5.05-2.59 2.37-4.93 5.32-6.29 7.37-.41.62-.77 1.14-1.19 1.09-.44-.05-.38-.78-.35-1.23.1-2.01-.12-3.89-1.12-5.1-.98-1.19-2.62-1.27-3.99-.94-1.86.45-3.47 1.4-5.29 2.77-3.27 2.45-6.1 5.27-7.6 7.63-1.32 2.07-1.03 3.95 0 4.93 1.09 1.03 2.67.73 4.49-1.1.73-.74 1.9-1.79 2.62-2.25.42-.27 1.2-.81 1.76-.6.62.23.53 1.43.51 1.95-.11 2.61-1.67 9.54-4.27 14.65-1.12 2.11-1.17 3.15-.57 3.98.89 1.24 4.03 1.39 6.4-.15 1.75-1.14 2.5-2.86 3.28-4.4 1.16-2.31 2.66-6.28 5.64-11.2 4.71-7.77 9.49-13.01 15.25-13.87 2.12-.31 3.46.01 4.43.75m-48.37 20.48c-.99.81-2.85 2.59-3.84 3.11-1.75.92-2.78.92-3.48.28-.6-.54-.65-1.81-.3-3.89.58-3.43 2.48-9.68 3.55-12.36 1.17-2.92 1.14-3.55.76-4.23-.28-.51-.91-.85-1.58-.94-1.18-.17-2.69.1-3.72.66-.77.42-1.48.95-2.11 1.75-.24.3-.44.42-.66.39-.23-.04-.35-.34-.46-.61-1.24-3.21-3.91-5.33-7.39-5.58-5.81-.42-13.98 3.83-20.3 11.67-6.82 8.48-10.31 20.61-4.3 25.66 3.82 3.2 10.86 2.58 19.19-4.02 2.22-1.76 5.34-4.82 7.19-6.87.42-.47 1.12-1.37 1.55-1.01.22.18.14.68.12.92-.24 2.78.13 5.21 1.24 6.72 1.57 2.11 4.15 2.17 7.07 1.23 3.85-1.24 7.7-4.1 10.39-7.36 1.82-2.2 2.34-4.53.83-6.06-.9-.93-2.36-.61-3.75.54m-26.55 5.73c-4.43 2.96-7.9 3.7-9.64 2.18-2.13-1.87-1.52-7.38 2.33-12.96 3.81-5.53 9.68-9.35 13.48-9.36 1.7-.01 3.02.55 4.14 1.69.92.93 1.48 1.96 1.6 3.08.36 2.81-4.89 10.66-11.91 15.37m-29.7 7.24c-.86-4.16-.95-9.64-.47-15.55.49-6 1.49-12.42 3.07-18.4.93-3.5.61-5.14-2.15-6.23-2.04-.8-4.32-.94-5.98-.24-1.03.43-2.16 1.35-3.89 2.95-6.96 6.39-17.34 18.83-24.11 29.25a98 98 0 0 0-1.93 2.77c-.31.48-.58.76-.76.73-.24-.04-.24-.49-.16-1.09.13-.99.18-1.47.35-2.46 1.97-11.61 6.75-26.75 9.65-33.54.55-1.29.8-2.45.28-3.68-.47-1.11-1.91-2.13-4.14-2.56-4.45-.86-7.23.6-9.33 2.62-6.04 5.79-15.63 17.36-25.03 31.57-6.39 9.66-15.62 25.37-17.38 30.7-.56 1.68-.26 2.99.25 3.9.79 1.4 2.35 2.63 3.97 3.14 1.69.53 3.43-.05 4.17-2.36 5.07-15.65 18-37 29.71-50.93.51-.61.75-.89 1.15-1.3.45-.44.87-.75 1.21-.58.27.13.24.56.1 1.12-.21.82-.2.74-.43 1.62-1.34 5.06-2.92 12.34-4.13 19.06-1.55 8.59-2.6 16.22-2.34 19.89.15 2.07.89 3.88 2.92 5.09 3.22 1.92 5.09 1.1 6.48-1.5 9.65-18.05 19.64-31.18 27.34-39.42.75-.84 1.15-1.2 1.49-1.47.41-.28.7-.33.9-.2.25.16.25.58.2.95-.08.6-.09.73-.2 1.44-1.61 10.46-1.96 20.38-1.12 26.9.55 4.23 1.92 7.15 4.9 8.32 1.71.67 4.06.75 5.96.15 1.42-.44 2.43-1.21 2.69-2.26.3-1.19-.61-2.38-1.59-3.97-.63-1.06-1.27-2.62-1.65-4.43"/></svg>