<svg xmlns="http://www.w3.org/2000/svg" xml:space="preserve" viewBox="0 0 72 72"><path d="M36 38.1c-.1 0-.3-.1-.5-.6-1.2-2.2-2.8-4.1-4.7-5.6-1.5-1.2-3.2-2.2-5-2.9-.3-.1-.6-.2-.8-.3-2.4-1-4.9-2-7.3-3.3-.3-.1-.5-.3-.8-.5.5-.8 1-1.6 1.6-2.3.9-1 1.9-2 3-2.7 1.2-.8 2.5-1.5 3.9-1.9 2.9-1 6.4-1.6 10.7-1.6s7.8.5 10.7 1.6c1.4.5 2.7 1.1 3.9 1.9q1.65 1.2 3 2.7c.6.7 1.1 1.5 1.6 2.3-.2.2-.5.3-.8.5-2.3 1.4-4.9 2.3-7.3 3.3l-.9.3c-1.8.7-3.5 1.7-5 2.9-2 1.5-3.6 3.5-4.7 5.6-.3.5-.5.6-.6.6m0 17c-3.7 0-6.7-.3-9.2-.9-2.4-.6-4.5-1.5-6.2-2.9-1.3-1-2.5-2.3-3.3-3.7-.8-1.3-1.5-2.8-1.9-4.2-.7-2.3-1.1-4.7-1.1-7.2 0-1.6.1-3.2.3-4.6 2.7 1.4 5.2 2.1 7.4 2.8l.5.1q4.65 1.35 7.5 3.6 1.65 1.35 3 3c.9 1.2 1.6 2.6 2.1 4.1.2.7.5 1.1 1 1.1s.7-.4 1-1.1c.9-2.8 2.7-5.4 5.1-7.2 2-1.5 4.4-2.7 7.5-3.6l.5-.1c2.2-.6 4.7-1.4 7.4-2.8.2 1.4.3 2.9.3 4.6 0 1.1-.1 4-1.1 7.2-.5 1.5-1.1 2.9-1.9 4.2-.9 1.4-2 2.7-3.4 3.7-1.7 1.3-3.8 2.2-6.2 2.9-2.6.7-5.6 1-9.3 1m23.3-35C54.7 15.2 47.3 13 36 13s-18.7 2.3-23.3 7.2c-3.4 3.7-5.5 8.7-5.5 15.6 0 3.8.9 13.4 8.6 18.4 4.6 3 10.4 4.9 20.2 4.9s15.7-1.9 20.2-4.9c7.6-5 8.6-14.6 8.6-18.4 0-6.9-2.2-12-5.5-15.7"/></svg>