<svg xmlns="http://www.w3.org/2000/svg" xml:space="preserve" viewBox="0 0 72 72"><path d="M49.4 10.4c-4-2.1-8.6-3.2-13.4-3.2s-9.4 1.2-13.4 3.2C13.5 15.3 7.2 24.9 7.2 36s6.3 20.7 15.5 25.6c4 2 8.5 3.2 13.3 3.2s9.3-1.2 13.3-3.3c9.2-4.8 15.5-14.4 15.5-25.5s-6.3-20.7-15.4-25.6M10.1 36c0-9.4 5-17.6 12.6-22.2 3.7-2.2 7.9-3.5 12.6-3.7L32 33.6l-9.4 7.3-9.5 7.4c-1.9-3.7-3-7.8-3-12.3m39.3 22.2c-4 2.4-8.5 3.7-13.4 3.7s-9.5-1.4-13.4-3.7c-3.5-2.1-6.4-5-8.6-8.4l8.6-3.5L36 40.8l13.4 5.4 8.6 3.5c-2.1 3.5-5.2 6.4-8.6 8.5m0-17.3-9.3-7.2-3.3-23.6c4.5.1 8.9 1.4 12.5 3.7 7.6 4.5 12.6 12.8 12.6 22.2 0 4.5-1.1 8.6-3.1 12.3z"/></svg>