<svg xmlns="http://www.w3.org/2000/svg" xml:space="preserve" viewBox="0 0 72 72"><path d="M64.8 17.5 62 8.8h-.1s-.1 0-.1-.1h-.1l-17.5 6.9H28.6L11.1 8.4h-.5c-.1 0-.1 0-.1.1h-.1l-2.8 8.7c0 .1-.1.3 0 .4L9.5 27l-1.1-.2c-.4 0-.8.2-.9.7-.1.4.2.8.6.9l1.6.3-.1 1.2-1.3-.2c-.4-.1-.8.2-.8.7-.1.4.2.8.7.8l1.4.2-.1 1.8c0 .2 0 .3.1.5l1.5 2.2-3.3 11.7v.4L11 60.9c.1.2.2.4.4.5s.4.1.6.1l12.5-3.9 6.6 6c.1.1.3.2.5.2h8.8c.2 0 .4-.1.5-.2l6.6-6L60 61.5c.2.1.4 0 .6-.1s.3-.3.4-.5L64.3 48v-.4l-3.4-11.8 1.5-2.2c.1-.1.1-.3.1-.5l-.1-1.8 1.4-.2c.4-.1.7-.4.7-.8-.1-.4-.4-.7-.8-.7l-1.3.2-.1-1.2 1.6-.3c.4-.1.7-.5.6-.9s-.5-.7-.9-.6l-1.1.2 2.3-9.1zm-17.7 15 3.2 4.4-9.8.2.2-10.4zM35.4 57.1h-3l.8-3.7h5.5l.8 3.7zM24.9 32.5l6.4-5.8.2 10.4-9.8-.2zm5.4-9.7-14.5-11 12.1 4.8zm1.3 15.8.3 12.6-5.2-3.6-5-9.2zm-5 10.8 4.6 3.2-5.5 2.7zm-2.5 5.3-4.3-6 5.3.1zm21.3-5.3 1 5.9-5.5-2.7zm1.5-.6 5.3-.1-4.3 6zm-1.5-1.2-5.2 3.6.3-12.6 10-.2zm-1.2-30.9 12.1-4.8-14.5 11zm-8.2.1h6.4l-3.2 8v.3L38.6 52h-5.2l-.6-27v-.2l-3.2-8zM11.1 32.9l.2-4.9v-.2l-2.5-10 2.4-7.5 19.6 14.8-6.8 6.2-11.7 3.4zm1.5 3.3 9.8-2.9-2.8 3.8v.8l5.1 9.3L9.5 47zM9.4 48.6l8.5.2 5.4 7.5-11.2 3.5zm30.8 13.6h-8.3L26 56.9l5.6-2.8-.8 3.7c0 .2 0 .5.2.6.1.2.4.3.6.3h9q.3 0 .6-.3c.1-.2.2-.4.2-.6l-.8-3.7 5.6 2.8zm19.6-2.5-11.2-3.5 5.4-7.5 8.5-.2zM62.5 47l-15.2.3 5.1-9.3v-.7l-2.8-3.8 9.8 2.9zm-1.8-19.2v.2l.2 4.9-1.2 1.8L48 31.3l-6.9-6.2 19.6-14.8 2.4 7.5z"/><path d="M46.4 42.1 43 40.3q-.3-.15-.6 0c-.3.15-.4.2-.4.4l-1.4 3.6c-.1.3 0 .6.2.8.1.1.3.2.5.2h.3l4.8-1.8c.3-.1.5-.4.5-.7-.1-.3-.2-.5-.5-.7m-3.9 1.2.5-1.2 1.2.6zm-12 2h.3c.2 0 .4-.1.5-.2.2-.2.3-.5.2-.8l-1.4-3.6c-.1-.2-.2-.4-.4-.4s-.4-.1-.6 0l-3.4 1.8c-.3.1-.4.4-.4.7s.2.6.5.7zM29 42.1l.5 1.2-1.7-.6z"/></svg>