<svg xmlns="http://www.w3.org/2000/svg" xml:space="preserve" viewBox="0 0 360 180"><path d="m66.1 97.8-2.4 6.7h-.2c-.4-1.5-1.1-3.8-2.3-6.6l-12.7-32H36v51h8.2V85.4c0-2 0-4.2-.1-7-.1-1.4-.2-2.4-.3-3.2h.2c.4 2 .9 3.4 1.2 4.4l15.3 37.2h5.8l15.2-37.6c.3-.9.7-2.6 1-4h.2c-.2 3.8-.3 7.1-.4 9.2v32.3h8.8V65.8h-12zm33.4-17.7h8.6v36.6h-8.6zm4.4-15.3c-1.5 0-2.6.5-3.6 1.5q-1.5 1.35-1.5 3.6c0 1.4.5 2.6 1.5 3.5s2.2 1.4 3.6 1.4c1.5 0 2.7-.5 3.6-1.4 1-.9 1.5-2.1 1.5-3.5s-.5-2.6-1.5-3.6c-.9-1.1-2.1-1.5-3.6-1.5m34.6 15c-1.6-.3-3.2-.5-4.8-.5-3.9 0-7.5.9-10.4 2.6-3 1.7-5.3 4.1-6.9 7.1s-2.4 6.5-2.4 10.6c0 3.5.8 6.6 2.3 9.4s3.6 5 6.5 6.5c2.7 1.5 5.9 2.3 9.4 2.3 4.1 0 7.6-.9 10.4-2.4l.1-.1v-7.9l-.3.3c-1.3.9-2.7 1.7-4.2 2.2s-2.9.8-4.1.8c-3.4 0-6.1-1-8.1-3.2-2-2.1-3-5-3-8.6 0-3.8 1-6.7 3-8.9s4.8-3.3 8.1-3.3c2.8 0 5.6.9 8.2 2.8l.3.3v-8.4l-.1-.1c-1-.5-2.3-1.2-4-1.5m28.3-.2c-2.1 0-4.1.7-5.8 2-1.5 1.2-2.4 2.9-3.3 4.9h-.1v-6.4H149v36.6h8.6V98c0-3.2.7-5.8 2.1-7.7 1.5-2 3.3-3 5.5-3 .8 0 1.6.2 2.6.3.9.3 1.6.5 2 .9l.3.3v-8.6l-.2-.1c-.4-.3-1.6-.5-3.1-.5m23.4-.2c-6 0-10.8 1.8-14.2 5.3s-5.1 8.3-5.1 14.4c0 5.7 1.7 10.3 5 13.7 3.3 3.3 7.8 5 13.4 5 5.9 0 10.6-1.8 13.9-5.3 3.4-3.6 5.1-8.3 5.1-14.2q0-8.7-4.8-13.8c-3.1-3.5-7.6-5.1-13.3-5.1m6.9 28.1c-1.6 2-4.1 3-7.2 3s-5.6-1-7.4-3.2c-1.8-2-2.6-5-2.6-8.8 0-3.9.9-6.9 2.6-9 1.8-2.1 4.2-3.2 7.3-3.2 3 0 5.4 1 7.1 3s2.6 5 2.6 8.9c-.1 4.1-.8 7.2-2.4 9.3m30.4-12.2c-2.7-1.1-4.4-2-5.2-2.7-.7-.7-1-1.6-1-2.8 0-1 .4-2 1.4-2.6 1-.7 2.1-1 3.8-1 1.5 0 3 .3 4.4.7 1.5.4 2.8 1 3.8 1.8l.3.2v-8l-.2-.1c-1-.4-2.3-.8-3.9-1.1s-3-.4-4.2-.4c-4.1 0-7.5 1-10.1 3.2-2.6 2-3.9 4.8-3.9 8.1q0 2.55.9 4.5c.6 1.3 1.5 2.4 2.6 3.4 1.2.9 2.9 2 5.3 3 2 .9 3.5 1.5 4.4 2s1.5 1.1 2 1.6c.3.5.5 1.2.5 2 0 2.4-1.8 3.6-5.6 3.6-1.5 0-3-.3-4.8-.9s-3.4-1.5-4.8-2.4l-.3-.3v8.4l.2.1c1.3.6 2.8 1 4.6 1.5 1.8.3 3.5.6 4.9.6 4.4 0 8.1-1 10.6-3.2 2.6-2.1 4-4.8 4-8.3 0-2.4-.7-4.6-2.1-6.3-1.8-1.6-4.2-3.1-7.6-4.6M260 79.4c-6 0-10.8 1.8-14.2 5.3s-5.1 8.3-5.1 14.4c0 5.7 1.7 10.3 5 13.7 3.3 3.3 7.8 5 13.4 5 5.9 0 10.6-1.8 13.9-5.3 3.4-3.6 5.1-8.3 5.1-14.2q0-8.7-4.8-13.8c-3.1-3.5-7.7-5.1-13.3-5.1m6.8 28.1c-1.6 2-4.1 3-7.2 3-3.2 0-5.6-1-7.4-3.2-1.8-2-2.6-5-2.6-8.8 0-3.9.9-6.9 2.6-9 1.8-2.1 4.2-3.2 7.3-3.2 3 0 5.4 1 7.1 3s2.6 5 2.6 8.9c.1 4.1-.8 7.2-2.4 9.3M324 87.2v-7.1h-8.6V69.3l-.3.1-8.2 2.4-.2.1v8.3h-12.9v-4.6c0-2.1.5-3.8 1.5-4.8.9-1.1 2.3-1.6 4-1.6 1.2 0 2.4.3 3.8.9l.3.2v-7.4l-.2-.1c-1.2-.4-2.8-.7-4.8-.7-2.6 0-4.8.6-6.9 1.6-2 1.1-3.6 2.6-4.7 4.7-1.1 2-1.7 4.2-1.7 6.8v5.1h-6v7h6v29.6h8.6V87.2h12.9V106c0 7.7 3.6 11.6 10.9 11.6 1.2 0 2.4-.2 3.6-.4q1.95-.45 2.7-.9l.1-.1v-7.1l-.3.3c-.5.3-1 .6-1.8.8-.7.2-1.3.3-1.7.3-1.7 0-2.9-.4-3.8-1.4-.8-.9-1.2-2.4-1.2-4.7V87.2z"/></svg>