<svg xmlns="http://www.w3.org/2000/svg" xml:space="preserve" viewBox="0 0 256 214"><path d="M240.86 162.89c.66 1.72.12 3.16-1.35 4.34-13.75 11.07-28.19 21.11-43.91 29.24l-13.12 6.78c2.71 2.16 5.76 2.77 9 2.65 3.55-.13 6.52-1.76 9.27-3.86 3.28-2.5 6.39-5.27 9.83-7.52 8.35-5.44 17.35-4.94 25.25 1.18 3.35 2.6 6.44 5.58 9.92 7.99 1.68 1.17 3.84 1.8 5.9 2.26l.46.1c2.51.53 4.03 1.79 3.86 3.96-.17 2.15-1.87 3.4-4.44 3.24-5.45-.35-9.71-3.16-13.71-6.56-2.5-2.12-4.91-4.38-7.61-6.22-5-3.41-10.3-3.51-15.4-.24-3 1.93-5.73 4.29-8.54 6.51-4.53 3.58-9.41 6.21-15.37 6.3-6.54.1-11.8-2.83-16.62-6.87-1.72-1.44-3.43-2.9-5.19-4.31-6.59-5.25-13.33-5.25-19.94 0-.77.61-1.53 1.23-2.29 1.86l-1.52 1.25a126 126 0 0 1-3.85 3.06c-8.09 6.11-17.36 6.41-25.74.68-3.05-2.08-5.83-4.56-8.74-6.85-6.61-5.21-12.1-5.19-18.82-.02l-.55.42-1.65 1.28c-2.2 1.7-4.42 3.38-6.74 4.9-8.76 5.7-17.68 5.46-26.38-.05-3.6-2.28-6.89-5.05-10.31-7.63l-.51-.39c-1.36-1.02-2.71-2.06-4.11-3.02-1.95-1.35-4.05-1.72-6.16-.44-3.73 2.27-7.42 4.6-11.12 6.93-3.49 2.2-6.87 4.61-10.5 6.54-1.97 1.05-4.33 1.53-6.58 1.82-2.09.27-3.52-1.28-3.6-3.24-.08-1.93 1.18-3.14 3.13-3.69l.11-.03c2.08-.56 4.22-1.26 6.02-2.4 5.09-3.2 10.02-6.65 15-10.01.14-.1.22-.28.39-.49l-3.1-5.85c-1.03-1.95-2.07-3.91-3.09-5.87-1.8-3.44-.63-5.74 3.24-6.02 10.42-.74 20.85-1.38 31.28-2.05l60.02-3.85c14.19-.91 28.37-1.83 42.56-2.75l60.02-3.87 15.96-1.02 5.32-.35c1.87-.13 3.34.42 4.02 2.18m-15.22 6.08-.18-.44-198.61 12.79.49.92c1.29 2.41 2.43 4.59 3.67 6.71.11.19.52.23.94.25l.43.01h.13l.12.01c1.73.13 3.61-.18 5.15.43 2.45.97 4.78 2.35 6.94 3.88 3.86 2.73 7.43 5.88 11.34 8.54 6.95 4.72 13.49 4.58 20.32-.21 2.88-2.02 5.62-4.25 8.48-6.31 8.93-6.44 17.39-6.3 26.11.42 2.55 1.96 4.98 4.08 7.52 6.05 6.38 4.94 12.85 4.96 19.19.05 2.11-1.63 4.13-3.4 6.2-5.08 9.41-7.64 18.94-8.38 28.19-1.56l.28.21c2.96 2.23 5.16 2.12 8.11.65l1.44-.72c13.16-6.6 26.06-13.61 37.98-22.32 1.93-1.42 3.84-2.86 5.76-4.28M41.22.68c21.5 9.7 40.8 22.74 58.34 38.42 21.83 19.51 39.04 42.55 51.74 68.9 6.69 13.87 11.89 28.28 14.28 43.57l.11.75.17 1.2c0 2.96-2.37 4.7-4.84 3.7-12.27-4.96-24.94-8.4-38.04-10.36-17.31-2.6-34.39-1.95-51.22 3.12-11.16 3.36-21.77 7.94-31.63 14.19-1.82 1.15-3.75.95-4.94-.46-1.23-1.47-1.23-3.24.19-4.79 10.3-11.19 16.3-24.62 20.27-39.07 3.88-14.11 5.3-28.54 4.43-43.13-.65-10.97-3.28-21.58-6.73-32C48.9 31.24 43.12 18.36 36.15 6c-1.14-2.02-1.12-3.59.03-4.88 1.23-1.33 2.76-1.47 5.04-.44m66.27 25.19c1.99.58 4.68 1.15 7.2 2.14 10.08 3.92 18.77 10.15 27.05 16.95 13.45 11.06 25.77 23.28 36.78 36.77 7.67 9.39 13.95 19.71 19.69 30.37 6.5 12.09 12.1 24.58 16.85 37.45l.33.9c.13.34.25.68.37 1.03.5 1.49.44 2.93-.73 4.07-1.19 1.16-2.62 1.24-4.12.65l-.11-.04c-2.16-.89-4.35-1.71-6.51-2.6l-.92-.39c-6.07-2.6-12.3-3.12-18.72-1.67-.59.13-1.19.24-1.79.33-2.38.37-3.87-.56-4.52-2.87-6.25-22.19-15.07-43.31-26.23-63.47l-.56-1c-7.2-12.86-15.43-24.95-26.14-35.22-6.32-6.07-12.97-11.72-20.32-16.52-1.7-1.11-2.34-2.66-1.78-4.34.55-1.67 1.84-2.33 4.18-2.54M47.65 11.79c.02.56.17 1 .37 1.41 4.67 9.42 8.73 19.1 12.03 29.09 3.13 9.47 5.53 19.13 6.68 29.06 1.29 11.11.76 22.2-.77 33.25-2.01 14.56-6.04 28.48-13.01 41.49l-.81 1.52c-.41.76-.81 1.53-1.23 2.3.26.07.39.15.47.12.73-.29 1.46-.59 2.19-.91 14.78-6.49 30.18-10.41 46.36-10.81 18.47-.46 36.36 2.87 53.83 8.67l1.19.4c.86.28 1.79.58 2.98.96-7.08-30.98-21.75-57.6-41.52-81.56-19.06-23.09-42.24-41.13-68.76-54.99m87.76 37.56.23.26.46.52c.18.2.34.39.5.59 1.08 1.4 2.19 2.79 3.31 4.18l1.82 2.26c2.73 3.4 5.43 6.83 7.8 10.47 15 23.01 26.04 47.9 34.08 74.12l.24.8c.42 1.37.99 1.76 2.33 1.56l.09-.01c6.02-1 11.9-.48 17.6 1.71l.29.12c.54.22 1.13.34 2.18.64-7.73-19.27-16.86-37.22-28.41-53.94-9.97-14.47-36.72-40.14-42.52-43.28"/></svg>