<svg xmlns="http://www.w3.org/2000/svg" xml:space="preserve" viewBox="0 0 360 180"><path d="M66.726 107.773c-1.3 1.2-3.3 1.6-4.5 1.8-2.5.3-5-.5-6.6-2.5-1.3-1.6-2-3.7-3.3-5.3-2.1-2.6-5.3-4.3-8.7-3.7-6.7 1.2-9.7 9-5.9 14.4 5.4 7.7 17.6 6.4 23.8 1 1.9-1.6 3.7-3.5 5.2-5.7m226.6 0c1.3 1.2 3.3 1.6 4.5 1.8 2.5.3 5-.5 6.6-2.5 1.3-1.6 2-3.7 3.3-5.3 2.1-2.6 5.3-4.3 8.7-3.7 6.7 1.2 9.7 9 5.9 14.4-5.4 7.7-17.6 6.4-23.8 1-1.9-1.6-3.7-3.5-5.2-5.7m-22.3-41.2h-16.3c-1.7.1-3.2 1.7-3.3 3.3-.1 1.8 1.4 3.5 3.3 3.6h16.3c1.7-.1 3.2-1.7 3.3-3.3.1-1.7-1.5-3.5-3.3-3.6m-101.6 34.7c-.2-.9-.3-1.8-.4-2.7v-4.9c.2-5.9 1.3-16.3-6.7-16.3-5.4 0-8.6 4.6-9.5 6-.1-4.1-3.4-7.2-8.4-7.2-3.2 0-5.1 2.5-5.1 2.5s3.1 1.1 3.1 5.3v17.6c.1 2.6 1.9 5 5.2 5s5.2-2.5 5.2-5v-12.9c.5-2.1 1.6-4.3 3.4-4.3 2.3 0 2.5 2.6 2.5 2.6v12.5c0 .4.1.8.1 1.2q.15 1.05.6 1.8c1.2 2.5 4 4.2 7.7 4.2 3.2 0 5.1-2.5 5.1-2.5s-2-.7-2.8-2.9m76.9 0c-.2-.9-.3-1.8-.4-2.7v-31c0-3-2.4-5.5-5.5-5.5s-5.5 2.4-5.5 5.5v27.4c0 2.5-.2 5 .9 7.3 1.2 2.5 4.3 4.5 8 4.5 3.2 0 5.1-2.5 5.1-2.5s-1.7-.8-2.6-3m-121.9-24.2c-8.2 0-14.8 6.6-14.8 14.8s6.6 14.8 14.8 14.8 14.8-6.6 14.8-14.8c.1-8.2-6.6-14.8-14.8-14.8m.2 23.3q-.15 0 0 0-.15 0 0 0c-2.9-.1-4.3-3.3-4.3-8.5s1.8-8.5 4.2-8.5c2.4.1 4.2 3.3 4.2 8.5.1 5.3-1.3 8.5-4.1 8.5"/><path d="M202.726 101.273c-.2-.9-.3-1.8-.4-2.7v-31c0-3-2.4-5.5-5.5-5.5-3 0-5.5 2.4-5.5 5.5v14.7c-1.3-1.8-4.2-4.9-8.8-4.9-12.5 0-13.3 22.3-4.7 27.8 2.4 1.6 6.1 2 8.8 1.2 1.9-.5 4.9-2.4 5.4-4.6.1.2.1.3.2.5 1.2 2.5 4.3 4.5 8 4.5 3.2 0 5.1-2.5 5.1-2.5s-1.8-.8-2.6-3m-16.3-1.8c-2.9 0-4.3-2.8-4.3-7.4s1.8-7.4 4.2-7.4c2.4.1 4.2 2.9 4.2 7.4s-1.3 7.3-4.1 7.4m44.7-1.9s-1.6 2.2-7.8 2.2-7.5-4.8-7.5-4.8c9 0 16.6-.6 16.6-7.9s-8.3-9.7-13.2-9.7c-8.1 0-14 6.5-14 15 0 9.6 7.7 14.5 14.1 14.5 11.2-.2 11.8-9.3 11.8-9.3m-16-7.4c.3-2.3.9-5.3 3-6.6 1.7-1.1 4.2.2 4.2 2.3 0 2.3-1.4 3.9-3.5 4.3-.2.1-3.7.3-3.7 0m59.6 7.4s-1.6 2.2-7.8 2.2-7.5-4.8-7.5-4.8c9 0 16.6-.6 16.6-7.9s-8.3-9.7-13.2-9.7c-8.1 0-14 6.5-14 15 0 9.6 7.7 14.5 14.1 14.5 11.3-.2 11.8-9.3 11.8-9.3m-15.9-7.4c.3-2.3.9-5.3 3-6.6 1.7-1.1 4.2.2 4.2 2.3 0 2.3-1.4 3.9-3.5 4.3-.3.1-3.8.3-3.7 0m36.4 8.2h-6.2c.5 0 5.1-3.9 6.6-5.2 4-3.4 11.2-8.3 9.1-14.6-.4-1.5-1.5-2.4-1.5-2.4s-.4 1.2-1.9 1.8c-.6.1-1.2.3-1.8.3h-17.4c-2.3 0-4.2 1.8-4.2 4s1.8 3.9 4.1 4l9.8.1c-4.6 2.5-10 5.6-12.8 10.2-1.6 2.6-3.3 6.7-2.6 9.8 2.2-1.9 7.9-3.8 12.3-2.9 1.6.3 3.4 1.2 4.8 2.1 8.2 5.1 13.1-4.9 9.2-9.3-.1-.1-2.4 2.1-7.5 2.1m-184.8 6.2c-5-5.5-6.6-14.7-6.9-20.8-.3-5.3 0-14.4 4.2-17-1.4-1.7-4.1-2.4-6.2-2.4-4.7 0-6.9 3.1-8.5 5.4-.5.7-8.4 11.6-8.4 11.6s-6.6-10.2-7.4-11.5c-1.1-1.7-3.2-4.8-6.9-5.4-1.6-.2-5.7-.4-8 2.6 3.9 3.1 3.8 11 2.9 16.4-2.5 16.2-9.4 17.7-9.4 17.7 3.5 9.5 12.6 5.8 15.2-1.8 1.7-4.9 2.7-11.2 3-16.4l10 15.3 11.3-15.2c-1.9 27 7.4 34.6 15.5 34.6s10.9-7.4 10.9-7.4c-4.6-.4-8.4-2.6-11.3-5.7"/></svg>