<svg xmlns="http://www.w3.org/2000/svg" xml:space="preserve" viewBox="0 0 72 72"><path d="m25.868 40.368-2.122 3.941-12.733-.606 1.213-2.122zm9.397-12.732 1.213 4.244-18.19-1.213 1.214-2.122zM23.14 22.179h10.61l.91 3.032-12.732-.91zm-.91 24.555-1.818 3.032H7.376l1.212-2.122zm23.04-8.488-3.031 5.457h3.031c1.516 0 3.941-.606 4.85-2.728.607-1.82-.606-2.729-1.515-2.729zm3.032-5.456h2.728c1.819 0 3.638-.91 4.244-2.426.607-1.515-.303-2.728-1.212-2.728h-2.426c-.303 0-3.334 5.154-3.334 5.154m-11.823-.91 2.728-4.547 9.095-.606.303-.607-8.488-.606 1.819-3.335h15.46c4.85 0 8.185 1.82 6.973 6.67-.303 1.515-2.425 5.456-8.185 6.972 1.212 0 4.244 1.516 3.637 4.85-.909 6.063-8.79 9.095-13.338 9.095h-18.19l-.909-3.638 9.701-.606.303-.606-10.307-.607-1.212-4.244 14.854-.91.303-.606-26.677-1.819 1.213-2.122L44.36 32.79l.303-.607z"/></svg>