<svg xmlns="http://www.w3.org/2000/svg" xml:space="preserve" viewBox="0 0 360 180"><path d="M286.4 54.5H73.6C51.1 54.5 36 70.7 36 90.1s15.1 35.4 37.7 35.4h212.7c22.6 0 37.7-16 37.7-35.4-.1-19.4-15.2-35.6-37.7-35.6m-.1 62.3H73.7c-17.9.1-28.9-12-28.9-26.8s11-26.7 28.9-26.8h212.5c17.9 0 28.9 12 28.9 26.8s-10.9 26.8-28.8 26.8"/><path d="M139 83.4c-3 .1-5.8 1.3-8 3.3v-2.3h-10v22.2h10V92c0-1.9 2-4.1 4.8-4.1 2.7 0 4.6 2.2 4.6 4.1v14.6h10V94.5c0-8.7-7.7-11.2-11.4-11.1m-33.6-10.2h10.1V80h-10.1zm65.9 11.3v-3.3h-5.4v-4.5h-10.1v4.5h-5.4v3.3h5.4v22.1h10.1V84.5zm-81.9 12L75 73.2H64.6v33.4h10.3V83.4l14.5 23.2h10.3V73.2H89.4zm16-12.1h10v22.2h-10zm94.2 11.2c0-6.9-6.6-12.6-14.8-12.6S170 88.6 170 95.5s6.6 12.5 14.8 12.5c6.8 0 12.5-3.9 14.3-9.1h-10v1.3c0 4.1-2.7 5-4.2 5s-4.2-.9-4.2-5v-4.6zm-18.9-3.4c0-1.9 0-3.2.7-4.4.8-1.4 2.2-2 3.5-2s2.7.7 3.5 2c.6 1.1.7 2.4.7 4.4zm100.7-9.3c-8.1 0-14.7 5.6-14.7 12.5s6.6 12.5 14.7 12.5 14.7-5.6 14.7-12.5-6.5-12.5-14.7-12.5m0 22.2c-2 0-4.1-1.5-4.1-5v-9.4c0-3.5 2.1-5 4.1-5s4.1 1.5 4.1 5v9.4c0 3.5-2.1 5-4.1 5m-27.8-19.6c-1.6-.9-3.3-1.8-5.7-2-7.2-.6-12.8 5.8-12.8 11.6 0 7.7 6 10.6 6.9 11 3.4 1.6 7.7 1.6 11.6-.8v1.3h9.9V73.2h-9.9zm.1 9.9v3.9c0 3.4-2.4 4.3-3.9 4.3-1.6 0-3.9-.9-3.9-4.3v-7.9c0-3.4 2.3-4.3 3.9-4.3s3.9.9 3.9 4.3zm47.6-19.7c0-1.5-.9-2.2-2.7-2.2h-2.9v7.6h1.2v-3.3h1.3l2 3.3h1.3l-2.2-3.3c1.1-.1 2-.7 2-2.1m-4.5 1.2v-2.4h1.6c.8 0 1.6.2 1.6 1.1 0 1.2-.9 1.2-1.8 1.2zm-76.2 6.5c-3 .1-5.8 1.3-8 3.3v-2.3h-10v22.2h10V92c0-1.9 2-4.1 4.8-4.1s4.6 2.2 4.6 4.1v14.6h10V94.5c0-8.7-7.6-11.2-11.4-11.1"/><path d="M298.2 70.8c-3.6 0-6.7 2.8-6.7 6.6s3.1 6.6 6.7 6.6 6.7-2.8 6.7-6.6-3.1-6.6-6.7-6.6m0 12.1c-3 0-5.4-2.3-5.4-5.5 0-3.1 2.4-5.5 5.4-5.5s5.3 2.4 5.3 5.5-2.3 5.5-5.3 5.5"/></svg>