<svg xmlns="http://www.w3.org/2000/svg" xml:space="preserve" viewBox="0 0 180 180"><path d="M102.464 95.03c-.121.032-.599.032-.809.032H86.242v3.585h15.68c.122 0 1.046 0 1.224-.031 3.197-.3 4.662-2.956 4.662-5.287 0-2.388-1.523-4.956-4.42-5.229-.567-.057-1.045-.057-1.255-.057H91.885c-.446 0-.955-.032-1.133-.09-.809-.21-1.108-.923-1.108-1.522 0-.535.3-1.255 1.134-1.49.241-.059.509-.09 1.076-.09h14.783v-3.523H91.613c-.625 0-1.108.032-1.491.09-2.568.357-4.363 2.42-4.363 5.05 0 2.152 1.344 4.662 4.3 5.076.535.058 1.286.058 1.611.058h9.975c.178 0 .624 0 .719.032 1.134.147 1.522.986 1.522 1.732.01.709-.435 1.486-1.422 1.664m-29.21 0c-.12.032-.598.032-.777.032H57.038v3.585h15.68c.122 0 1.046 0 1.224-.031 3.197-.3 4.662-2.956 4.662-5.287 0-2.388-1.523-4.956-4.42-5.229-.567-.057-1.045-.057-1.255-.057H62.68c-.446 0-.955-.032-1.134-.09-.808-.21-1.107-.923-1.107-1.522 0-.535.299-1.255 1.134-1.49.241-.059.509-.09 1.076-.09h14.783v-3.523H62.408c-.624 0-1.107.032-1.49.09-2.568.357-4.363 2.42-4.363 5.05 0 2.152 1.344 4.662 4.3 5.076.535.058 1.286.058 1.611.058h9.975c.178 0 .624 0 .719.032 1.134.147 1.522.986 1.522 1.732.005.709-.414 1.486-1.428 1.664M45.116 81.202H49v17.534h-3.885zm-8.573 17.534V81.202h-3.88v13.083L19.729 81.202h-4.987v17.534h3.885v-13.14l13.02 13.14zm124.88-17.534v13.083l-12.93-13.083h-4.987v17.534h3.88v-13.14l12.992 13.14h4.898V81.202zm-38.139 0-10.93 17.534h4.714l1.943-3.134h12.756l1.943 3.134h4.688l-10.93-17.534zm6.478 11.082h-8.751l4.389-7.05zM36.338 71.26c7.828-22.847 29.393-38.203 53.705-38.203s45.908 15.35 53.704 38.202l.058.179h17.114v-2.063l-7.108-.835c-4.389-.51-5.318-2.452-6.51-4.898l-.299-.598c-10.274-21.865-32.648-36.024-56.96-36.024-24.342 0-46.685 14.159-56.958 36.081l-.3.599c-1.197 2.451-2.12 4.389-6.51 4.898l-7.107.835v2.063h17.082zM143.8 108.532l-.058.179c-7.827 22.846-29.393 38.17-53.704 38.17s-45.909-15.35-53.705-38.202l-.058-.178H19.193v2.063l7.108.835c4.389.509 5.318 2.451 6.51 4.898l.299.598c10.274 21.923 32.648 36.081 56.96 36.081s46.685-14.158 56.958-36.05l.3-.598c1.197-2.452 2.12-4.389 6.51-4.898l7.107-.835v-2.063z"/></svg>