<svg xmlns="http://www.w3.org/2000/svg" xml:space="preserve" viewBox="0 0 72 72"><path d="M36 64.8c-.8 0-1.5-.2-2.2-.6l-7-4.2c-1.1-.6-.5-.8-.2-.9 1.4-.5 1.7-.6 3.2-1.4.2-.1.4-.1.5.1l5.4 3.2c.2.1.5.1.6 0l21.1-12.2q.3-.15.3-.6V23.8q0-.45-.3-.6L36.3 11c-.2-.1-.5-.1-.6 0L14.5 23.2c-.2.1-.3.4-.3.6v24.4c0 .2.1.5.3.6l5.8 3.3c3.1 1.6 5.1-.3 5.1-2.1V25.9c0-.3.3-.6.6-.6h2.7c.3 0 .6.3.6.6V50c0 4.2-2.3 6.6-6.2 6.6-1.2 0-2.2 0-4.9-1.3l-5.6-3.2c-1.4-.8-2.2-2.3-2.2-3.9V23.8c0-1.6.8-3.1 2.2-3.9L33.8 7.8c1.3-.7 3.1-.7 4.4 0L59.3 20c1.4.8 2.2 2.3 2.2 3.9v24.4c0 1.6-.8 3.1-2.2 3.9L38.2 64.3c-.7.3-1.5.5-2.2.5M42.5 48c-9.3 0-11.2-4.2-11.2-7.8 0-.3.3-.6.6-.6h2.8c.3 0 .6.2.6.5.4 2.8 1.6 4.2 7.3 4.2 4.4 0 6.3-1 6.3-3.4 0-1.4-.5-2.4-7.5-3.1-5.8-.6-9.4-1.9-9.4-6.5 0-4.3 3.6-6.8 9.6-6.8 6.8 0 10.1 2.3 10.5 7.4 0 .2-.1.3-.2.5-.1.1-.3.2-.4.2h-2.8c-.3 0-.5-.2-.6-.5-.6-2.9-2.3-3.9-6.6-3.9-4.9 0-5.5 1.7-5.5 3 0 1.5.7 2 7.3 2.9 6.5.8 9.6 2.1 9.6 6.6.1 4.7-3.7 7.3-10.4 7.3"/></svg>