<svg xmlns="http://www.w3.org/2000/svg" xml:space="preserve" viewBox="0 0 1024 224"><path d="M340.01 143.74c0 40.42 28.28 72.15 72.94 72.15h41.22v-38.25h-37.51c-24 0-37.22-14.7-37.22-33.9 0-19.21 13.22-33.91 37.22-33.91h37.51V71.6h-41.22c-44.65 0-72.94 31.72-72.94 72.14m452.1-73.94c-15.1 0-29.17 3.15-47.41 15.86-18.25-12.71-32.32-15.86-47.42-15.86-33.58 0-57.04 23.85-57.04 58.22v87.87h39.42v-85.84c0-14.67 8.68-22.01 22.9-22.01 15.04 0 22.48 7.75 22.48 20.17v87.68h39.35v-87.68c0-12.41 7.43-20.17 22.47-20.17 14.21 0 22.89 7.33 22.89 22.01v85.84h39.42v-87.87c-.01-34.37-23.46-58.22-57.06-58.22m151.64 109.62c-21.95 0-33.83-17.66-33.83-35.7 0-18.01 11.88-35.67 33.83-35.67 21.96 0 33.84 17.66 33.84 35.67 0 18.04-11.89 35.7-33.84 35.7m.06-109.62c-46.84 0-73.31 37.71-73.31 73.97 0 36.15 26.47 73.89 73.31 73.89 46.74 0 73.2-37.74 73.2-73.89.01-36.26-26.45-73.97-73.2-73.97M46.42 143.72c0-18.01 11.88-35.67 33.82-35.67 21.96 0 33.44 16.91 33.82 34.75v1.85c-.38 17.86-11.87 34.77-33.82 34.77-21.93 0-33.82-17.66-33.82-35.7M113.56 6.34V78.9c-9.54-5.72-20.93-9.1-34.15-9.1-47.29 0-72.43 38.03-72.43 73.97 0 35.84 25.14 73.89 72.43 73.89 35.52 0 48.79-17.72 73.57-29.46V6.34zm156.35.02-.06 9.85H256l.06 35.84h-10.24V16.21h-13.84V6.36zm45.47 0v9.85h-13.87v35.84h-10.23V16.21h-13.85V6.36zm-122-.02 20.14 29.32V6.36h9.79v45.69h-10.74l-20.02-29.2v29.2h-9.82V6.34zm55.05 173.08c-21.93 0-33.82-17.66-33.82-35.7 0-18.01 11.89-35.67 33.82-35.67 21.98 0 33.85 17.66 33.85 35.67 0 18.04-11.88 35.7-33.85 35.7m.05-109.62c-46.82 0-73.28 37.71-73.28 73.97 0 36.15 26.46 73.89 73.28 73.89 46.73 0 73.2-37.74 73.2-73.89.01-36.26-26.46-73.97-73.2-73.97m297.14 109.62c-21.94 0-33.83-17.66-33.83-35.7 0-18.01 11.89-35.67 33.83-35.67s33.82 17.66 33.82 35.67c0 18.04-11.88 35.7-33.82 35.7m.05-109.62c-46.83 0-73.31 37.71-73.31 73.97 0 36.15 26.48 73.89 73.31 73.89 46.74 0 73.21-37.74 73.21-73.89 0-36.26-26.47-73.97-73.21-73.97"/></svg>