<svg xmlns="http://www.w3.org/2000/svg" xml:space="preserve" viewBox="0 0 360 180"><path d="M109.2 91.2v-33h10.4v4.4s.7-.4 1.4-.9c9.1-5.7 22.4-7.4 34.2-4.4 10.7 2.7 18.5 9.1 21.2 17.4 1.6 4.9 1.5 10.3-.2 15.1-2.2 5.9-6.7 10.6-13.2 13.9-5.7 2.8-12.2 4.3-19.5 4.3-6.1 0-11.7-1-16.7-3-2-.8-4.5-2.1-6-3.1l-1.2-.8v23.2h-10.4zm39.2 7.9c5.8-.8 10.3-2.7 13.7-5.6 2.6-2.2 4.3-5.3 5-8.7.3-1.4.3-4.6 0-6-.8-4-3.1-7.4-6.5-9.9-1.4-1-4.2-2.4-5.9-3-5-1.7-11.1-2.2-16.7-1.4-9.7 1.4-16.2 6.2-18 13.2-.8 3.1-.6 6.4.4 9.3 2.3 6.6 9.2 11 18.9 12.1 1.9.3 7.3.3 9.1 0m34.2-7.9v-33H193v4.4s.6-.4 1.3-.8c1.5-1 4.6-2.5 6.5-3.2 8.4-3.1 18.7-3.6 27.7-1.4 14.7 3.7 23.3 13.8 22.5 26.2-.6 9.5-7 17.4-17.4 21.5-3.4 1.3-6.9 2.2-11.3 2.7-2.3.3-8.5.3-10.9 0-6.8-.8-12.8-2.8-17.4-5.9l-1-.6v23.2h-10.4zm39.4 7.9c8-1.2 13.7-4.4 16.7-9.5 1.7-3 2.4-6.9 1.7-10.5-1.3-7.6-8-12.8-18.2-14.3-6.7-1-14.3 0-19.5 2.5-5.3 2.6-8.5 6.4-9.5 11.6-.3 1.4-.3 4.8 0 6.1q1.2 5.4 5.1 8.7c3.6 3 8.4 4.9 14.5 5.6 2 .1 7.2.1 9.2-.2m-155.3 8.7c-5.5-.5-10.1-1.6-14.1-3.3-9-3.9-14.7-10.4-16.3-18.6-.3-1.6-.4-5.1-.2-6.8 1.1-9.8 8.4-17.6 19.8-21.3 6.1-2 13.6-2.6 20.3-1.7C88.6 57.7 98 63.5 102.1 72c3.3 6.9 2.9 15.3-1.1 21.8-1.8 2.9-4.8 5.9-7.9 7.9-4.8 3.1-10.5 5.1-17.4 5.9-1.4.2-7.7.3-9 .2m7.3-8.6c5.4-.6 9.9-2.1 13.3-4.5 2.8-2 5-4.9 6-7.9.6-1.8.7-2.6.7-5s-.1-3.2-.7-5C91.4 71 85.9 66.7 78.2 65c-6.8-1.5-14.6-1-20.5 1.3-4.2 1.7-7.5 4.4-9.5 7.7-2.1 3.5-2.5 8.4-1.2 12.5 1.4 4.5 5.2 8.2 10.3 10.4 2.8 1.1 6.3 1.9 9.7 2.2 1.4.3 5.6.3 7 .1m212.5 8.6c-.2 0-1-.1-1.7-.2-5.7-.5-11.7-2.3-16-4.8-5.9-3.4-10.1-8.1-11.9-13.8-1.3-3.8-1.5-8.2-.6-12.1 1.3-6 5-11.1 10.7-14.9 7.5-5 18.5-7.2 29.1-5.8 8.8 1.1 16.1 4.3 21.2 9.4 3.9 3.9 6.1 8.4 6.7 13.7.2 1.4.1 4.2-.1 5.6-1.4 10.5-9.7 18.6-22.5 21.7-3.9 1-6.3 1.2-10.9 1.3-2-.1-3.8-.1-4-.1m6.8-8.5c6.8-.6 12.3-2.9 15.9-6.4 2.4-2.4 3.8-5.1 4.4-8.3.2-1.3.2-4.1 0-5.5-1.2-7.4-7.8-12.7-17.4-14.3-2.3-.4-3.9-.5-6.3-.5-10.8 0-19.2 4.1-22.4 10.9-1 2-1.4 4.1-1.4 6.7 0 3.3.8 6 2.5 8.6 3.2 4.8 9.3 7.9 17.3 8.8 1.6.1 5.7.1 7.4 0"/></svg>