<svg xmlns="http://www.w3.org/2000/svg" xml:space="preserve" viewBox="0 0 72 72"><path d="M41.7 58.9c-6.3 0-24.2-15.6-24.2-24.5 0-4.2 2.9-5.4 5.4-5.4 2.8 0 9.3 3.7 9.3 3.7s1 16.8 7.6 16.8c2.4 0 6.8-3.8 6.8-6.9 0-5-4-9-8.6-12.8.2-1.9 1.5-5.4 3.6-8 1.9-2.4 4.6-4.3 8-4.3 3.3-.1 5.5 3.4 5.6 9 .2 13.2-7.8 32.3-13.5 32.4m1-16.2c0 .5-.2.9-.7.9-4 0-4.5-7.8-4.5-7.8 3.2 1.8 5.2 4.2 5.2 6.9m7.8-35.1c-5.4.1-10.8 4.7-14.2 10.4-1.6 2.6-2.7 5.5-3.2 8.3-5.1-3.1-10.7-5.1-14.3-5.1-9.9 0-11.6 7.4-11.6 11.5 0 15 28.8 31.7 37.5 31.7C51.8 64.3 65 43 64.8 25.3 64.7 18 60.6 7.5 50.5 7.6"/><path d="M37.5 35.9c2.4 1.3 4.1 3 4.8 5 .2.6.3 1.2.3 1.9 0 .2 0 .3-.1.4-.1.3-.3.5-.6.5-3.9 0-4.4-7.8-4.4-7.8m4.2 23c-6.3 0-24.2-15.6-24.2-24.5 0-4.2 2.9-5.4 5.4-5.4 2.8 0 9.3 3.7 9.3 3.7s1 16.8 7.6 16.8c2.4 0 6.8-3.8 6.8-6.9 0-5-4-9-8.6-12.8.2-1.9 1.5-5.4 3.6-8 1.9-2.4 4.6-4.3 8-4.3 3.3-.1 5.5 3.4 5.6 9 .2 13.2-7.8 32.3-13.5 32.4m23.1-33.6C64.7 18 60.6 7.5 50.5 7.6c-5.4.1-10.8 4.7-14.2 10.4-1.6 2.6-2.7 5.5-3.2 8.3-5.1-3.1-10.7-5.1-14.3-5.1-9.9 0-11.6 7.4-11.6 11.5 0 15 28.8 31.7 37.5 31.7 7.1-.1 20.4-21.4 20.1-39.1"/></svg>