<svg xmlns="http://www.w3.org/2000/svg" xml:space="preserve" viewBox="0 0 360 180"><path d="M232.2 104.9c-5.1.7-5.9 8.3-5.9 10.5l11.4-3.8c-.1-1.7-1.1-6.7-5.5-6.7m-17.7 18c0-25.8 14.7-27.9 18.1-27.9 11 0 16 10.6 16 17.9 0 3.1-.8 4.5-5.6 6.5l-16.4 5.7c0 5.1 2 5.8 4.4 5.8 5.6 0 11.1-7.1 14.2-7.1 1.7 0 3.4 2.8 3.4 4.5 0 5.8-9.7 13.1-19.4 13.1-8.3-.1-14.7-7-14.7-18.5m96.3 10c0-12.9-17.6-18.3-17.6-24.9 0-1.5 1-3.3 3.5-3.3 5.9 0 4.3 7.1 8.9 7.1 2.5 0 6.7-1.2 6.7-3.8 0-8.4-9-13.6-15.9-13.6-5.8 0-14.2 2.7-14.5 12.7-.5 14.8 16.9 19.2 16.9 25.1 0 2.9-2.4 3.3-4.6 3.3-7 0-10.2-7.6-13.4-7.6-2.2 0-4.7 3.3-4.7 6.7 0 4.8 8.8 11.6 18.8 11.6 8.3-.1 15.9-4.9 15.9-13.3M124 141.5c0 1.8-.8 2.6-3.3 2.5-6.7-.2-9.7-5.3-9.7-11v-30.8c0-4.8 5-7.1 8-7.2 2.7 0 3.5 1.8 3.5 5.2v2.5c3.2-4.1 8.1-5.5 11.1-5.5 6.8 0 10.8 3.7 11.8 6.1 3.9-5 7.8-6.1 11.6-6.1 13.9 0 14.3 12.7 14.3 16.1v26.5c0 2.1-1.2 2.5-4.3 2.5-7.1 0-8.7-4.3-8.7-10.6v-16.8c0-3-.9-5.8-4.3-5.8-3.3 0-6.4 1.5-6.4 6.2V137c0 2.5-2.2 3.4-4.2 3.4-7.4 0-8.5-5.7-8.5-9.2v-16.1c0-4-1.4-6-4.8-6-3.6 0-6.1 2.7-6.1 6.6zm-39.5-8.7c-2.7 0-3.6-2.2-3.6-4.6 0-7.3 9.6-8.9 13.6-8.9h.3c.1 10.8-6.8 13.5-10.3 13.5M91.2 95c-7.1 0-7.9 3.5-8 5.3s1.2 5 3.5 4.8h1.4c3.4 0 7 .7 7 4.2 0 .6-.1 1.9-.1 1.9s-26.7-.6-26.7 17.4c0 6.8 5.1 14.1 13.4 14.1 5.6 0 11-3.8 13.2-9-.3.8-.4 2.3-.4 2.9 0 5.5 3.8 6.5 9.2 6.5 2.1 0 2.6-1.2 2.6-3.6V111c-.6-13.5-8.9-16-15.1-16m95.6 19.6c0-5.7 1.2-8.9 6.1-9.3 4-.3 7.6 2.5 7.6 7.1 0 10.1-4.5 16.6-13.7 17.2zm5.3-20.5c-9.8 0-16.3 4.9-16.3 20.7v36.5c0 4.4 1.1 7.1 6.6 7.1 3.1 0 4.3-.4 4.3-2.3V140c3.8-.6 24.6-3.4 24.6-28.4.1-6-3.6-17.5-19.2-17.5"/><path d="M60.3 73.6c4.4 0 9.6 2.9 9.6 11.9 0 10.2-6.4 17.4-19.7 20.1-.6-4.2-.9-8.4-.9-12.7 0-13.1 4-19.3 11-19.3M36 91.8c0 16.9 2.9 40.3 4.1 47.1 1.1 6.1 2.2 9.4 9.2 9.4 3.9 0 5.5-.4 5.5-2.9l-3.6-28.2c4.8-.8 31.4-4.3 31.4-34.1 0-8.8-4.9-22.1-21.3-22.1-13 .1-25.3 8-25.3 30.8m228.7 10.4v-3.7c0-2-1.4-3.1-3.7-3.1-3.2.1-7.7 2.1-7.7 6.8v32c0 6.4 2.3 8.8 9.2 8.8 0 0 3.5-.3 3.5-2.2s-.1-25.5-.1-25.6c0-4.3 6.6-7.3 11.2-8.9 1.5-.5 2.1-1.9 2.1-3.2 0-2.9-.8-6.9-4.1-6.9-1.9 0-5.3.8-10.4 6m-53.1-13.8c-8.2 0-31.5-20.4-31.5-31.9 0-5.5 3.8-7.1 7-7.1 3.6 0 12.2 4.9 12.2 4.9s1.3 21.8 9.9 21.8c3.1 0 8.8-5 8.8-8.9 0-6.6-5.2-11.7-11.2-16.7.3-2.5 2-7 4.8-10.5 2.5-3.1 6-5.6 10.4-5.7 4.3-.1 7.2 4.4 7.3 11.7.2 17.3-10.3 42.3-17.7 42.4m1.2-21c0 .7-.3 1.2-.9 1.2-5.2 0-5.8-10.1-5.8-10.1 4.2 2.2 6.7 5.3 6.7 8.9M223 21.6c-7 .1-14.1 6.1-18.5 13.5-2 3.5-3.5 7.2-4.1 10.8-6.7-4.1-13.9-6.6-18.7-6.6-12.9 0-15.1 9.7-15.1 14.9 0 19.6 37.5 41.3 48.9 41.3 9.2-.1 26.5-27.9 26.1-50.9-.1-9.4-5.4-23.2-18.6-23"/><path d="M206.1 58.5c3.2 1.7 5.4 3.9 6.3 6.5.3.8.4 1.6.4 2.4 0 .2 0 .4-.1.6-.1.4-.4.7-.8.7-5.2-.1-5.8-10.2-5.8-10.2m5.5 29.9c-8.2 0-31.5-20.4-31.5-31.9 0-5.5 3.8-7.1 7-7.1 3.6 0 12.2 4.9 12.2 4.9s1.3 21.8 9.9 21.8c3.1 0 8.8-5 8.8-8.9 0-6.6-5.2-11.7-11.2-16.7.3-2.5 2-7 4.8-10.5 2.5-3.1 6-5.6 10.4-5.7 4.3-.1 7.2 4.4 7.3 11.7.2 17.3-10.3 42.3-17.7 42.4m30.1-43.8c-.1-9.5-5.5-23.2-18.6-23-7 .1-14.1 6.1-18.5 13.5-2 3.5-3.5 7.2-4.1 10.8-6.7-4.1-13.9-6.6-18.7-6.6-12.9 0-15.1 9.7-15.1 14.9 0 19.6 37.5 41.3 48.9 41.3 9.2-.1 26.4-27.8 26.1-50.9m78.042 96.898c.5 0 .8-.3.8-.6 0-.4-.3-.6-.8-.6h-1v1.3zm-2.2-1.6c0-.3.3-.6.6-.6h1.7c1.1 0 1.9.5 1.9 1.5 0 .6-.4 1.2-.9 1.4l.7.8c.1.1.2.3.2.4 0 .3-.2.5-.6.5-.2 0-.3-.1-.5-.2l-1.1-1.3h-.8v1c0 .3-.3.6-.6.5-.3 0-.5-.2-.5-.5v-3.5zm5.6 1.8c0-2-1.6-3.6-3.7-3.6s-3.7 1.7-3.7 3.6c0 2 1.6 3.6 3.7 3.6s3.6-1.6 3.7-3.6m-8.3 0c0-2.5 2-4.5 4.6-4.5s4.6 2 4.6 4.5c0 2.4-2 4.5-4.6 4.5-2.5 0-4.5-2-4.6-4.5"/></svg>