<svg xmlns="http://www.w3.org/2000/svg" xml:space="preserve" id="Layer_1" x="0" y="0" version="1.1" viewBox="0 0 72 72"><style>.st0{fill:#010202}</style><path d="M30.7 19.1c.4-.2 1-.3 1.5-.3h14.2c1.6 0 3.3.1 4.9.4.4.1.8.1 1.3.2l1.2.3.6.2c.2.1.4.1.6.2.3-3.8-.8-6.5-2.7-8.6-2.8-3-7.6-4.3-13.9-4.3h-17c-1.3 0-2.4.9-2.6 2.1l-7.5 47.4c-.1.4.1.9.4 1.3s.8.6 1.2.5h10l5.9-36.7c.1-1.2.8-2.3 1.9-2.7" class="st0"/><path d="m53.6 22.1-.5-.1c-.3-.1-.7-.2-1.1-.2-.4-.1-.8-.1-1.1-.2q-2.25-.3-4.5-.3H33.1c-.3 0-.7.1-1 .2-.7.3-1.1.9-1.3 1.7l-2.4 15c.2-.1.6-.1.8-.1h5.3c2.6.1 5.1-.3 7.6-.9 5.6-1.6 9.4-5.2 11.3-11q.6-1.8.9-3.6c0-.3-.4-.4-.7-.5" class="st0"/><path d="M58.5 24.8c-.5-.5-1-.9-1.6-1.3-1.4 7-5.9 16.9-22.3 16.9h-4.1c-1.3 0-2.4.9-2.6 2.1 0 0-3.2 19.7-3.3 20.7-.1.4.1.8.3 1.1s.6.4 1 .4h8.2c1.1 0 2.1-.8 2.3-1.9l2-12.2c.2-1.1 1.1-1.9 2.3-1.9H42c9.2 0 16.3-3.7 18.4-14.3.1-.3.1-.6.2-.9.4-3.5-.2-6.5-2.1-8.7" class="st0"/></svg>