<svg xmlns="http://www.w3.org/2000/svg" xml:space="preserve" viewBox="0 0 72 72"><path d="M61.8 48.8C62.5 33 48.9 15.2 30.3 13v-.2c18.3 0 32.3 16.9 32.3 30.3 0 2.8-.2 4.5-.6 5.8zm-1.1 2c-1.2 1.5-2.8 3-4.5 4.4-3.3-19-17.2-35.6-27.1-40.4l-.2.1c9.9 8.1 21.7 23.9 26.3 41-2.3 1.7-4.9 3.2-7.6 4.3C38.2 49.6 29.5 29 26.7 15.9l-.3.1c.1 12.7 9.1 34.2 20 44.7-2.5 1-5.1 1.7-7.8 2.2-10.5-4.2-18-17.5-18-31.2 0-8.9 2.7-14.5 3.2-15.6l-.2-.1C23 17 19 22.5 19 32.1c0 15.5 7.6 27.3 17.7 31-3.6.4-7.3.2-10.8-.5l-.1.2c1.1.4 4.8 1.9 10.4 1.9 12.7 0 21.2-7.9 24.7-13.9z"/><path d="M34.9 7.2C25.3 7.2 14 14.1 14 20.5c0 2.5 2.2 4.5 6.9 4.5 10.8 0 20.8-7.4 20.8-13.2 0-3-2.9-4.6-6.8-4.6m3.9 4.5c0 4.9-9.3 10.8-17.1 10.8-3.4 0-5.3-1.4-5.3-3.6 0-4.9 9.4-10.8 16.7-10.8 4.8 0 5.7 2.4 5.7 3.6"/><path d="M10.2 23.4c-.2.5-1.3 2.6-1.3 4.8 0 4 4.1 7.8 11.5 7.8 14.4 0 31-10.6 31-20.4 0-4.4-4.2-6.8-7.1-7.3l-.1.2c.9.3 4.2 1.8 4.2 5.8 0 7.8-14.7 18.5-29.3 18.5-5.6 0-9.1-2.8-9.1-6.8 0-1.3.3-2.1.3-2.4z"/><path d="M57.4 16.2c.4.3 2.8 2.3 2.8 6 0 12.7-20 25.3-37.6 25.3-10.5 0-15.3-5.2-15.1-9.8h.2c.4 2.4 3.8 6.7 13 6.7 17.7 0 37.4-13 37.4-24.3 0-1.9-.5-3.2-.8-3.7z"/><path d="M64.1 28.1c.1.3.5 1.5.5 3.4 0 14.2-20.2 26.3-37.8 26.3-9 0-13.8-4.4-14.8-6.2l.2-.1c2.5 2.2 7.4 3.9 13.2 3.9 15.5 0 38.7-11.8 38.5-27.2z"/></svg>