<svg xmlns="http://www.w3.org/2000/svg" xml:space="preserve" viewBox="0 0 72 72"><path d="M7.2 36c0 11.8 7.1 21.9 17.2 26.4-.1-2 0-4.4.5-6.6.6-2.3 3.7-15.7 3.7-15.7s-.9-1.8-.9-4.6c0-4.3 2.5-7.5 5.6-7.5 2.6 0 3.9 2 3.9 4.3 0 2.6-1.7 6.6-2.5 10.2-.7 3.1 1.5 5.5 4.5 5.5 5.5 0 9.1-7 9.1-15.3 0-6.3-4.3-11-12-11-8.7 0-14.2 6.5-14.2 13.8 0 2.5.7 4.3 1.9 5.6.5.6.6.9.4 1.6-.1.5-.5 1.8-.6 2.3-.2.7-.8 1-1.4.7-4-1.6-5.9-6-5.9-11 0-8.2 6.9-18 20.6-18 11 0 18.2 8 18.2 16.5 0 11.3-6.3 19.7-15.5 19.7-3.1 0-6-1.7-7-3.6 0 0-1.7 6.6-2 7.9-.6 2.2-1.8 4.4-2.9 6.2 2.6.8 5.3 1.2 8.2 1.2 15.9 0 28.8-12.9 28.8-28.8S51.9 7.2 36 7.2 7.2 20.1 7.2 36"/></svg>