<svg xmlns="http://www.w3.org/2000/svg" xml:space="preserve" viewBox="0 0 180 180"><path d="M172.8 82.97c-.15-4.14-.41-8.2-.6-9.03s-.68-3.2-1.13-5.27c-2.52-11.86-8.58-24.5-16.03-33.5-9.9-11.93-22.51-18.71-41.59-22.28-3.99-.72-18.74-.94-23.52-.34-2.07.26-4.59.68-5.65.9-1.88.38-5.08 1.05-10.16 2.11-3.39.68-10.65 2.9-13.55 4.1-1.24.49-2.67 1.05-3.2 1.2-2.86.9-11.74 5.38-15.24 7.68-5.65 3.76-6.47 4.37-8.84 6.4-10.76 9.22-18.14 20.44-21.72 32.97-1.66 5.83-2.03 8.81-1.99 16.37 0 7.72.38 10.54 1.66 12.23 2.26 2.94 3.99 1.81 3.99-2.6 0-8.2 1.81-18.22 4.74-26.19 5.42-14.75 16.26-26.95 30.33-34.17 5.83-2.97 7.56-3.61 14.23-5.34 2.11-.56 3.46-.49 3.31.19-.08.38-2.94 1.84-7.34 3.73-12.16 5.27-15.84 7.56-22.05 13.66-8.66 8.47-13.62 16.75-16.86 28.11-1.54 5.38-1.99 11.55-1.73 23.37.3 12.5.72 16.41 2.18 20.89 1.28 3.88 4.52 10.69 6.44 13.51 2.26 3.24 10.35 11.29 13.7 13.59.45.3 2.15 1.51 3.76 2.63 6.17 4.29 12.08 7.34 16.9 8.62 3.54.98 10.05 2.3 11.29 2.3 1.2 0 1.96.94 1.32 1.69-.53.64-3.91.75-6.77.23-8.36-1.54-14.49-3.54-21.26-6.85-7.49-3.69-15.66-10.84-22.32-19.61-4.7-6.17-5.91-7.26-7-6.32-2.11 1.73-.04 8.47 4.63 15.05 4.18 5.87 12.72 13.51 18.67 16.67 12.42 6.62 27.78 9.33 42.91 7.6 12.04-1.43 22.62-4.63 33.5-10.24 2.37-1.2 3.31-1.81 7.08-4.33.6-.41 1.81-1.24 2.75-1.88 2.6-1.77 9.97-9 12.46-12.23 9.45-12.38 14.53-23.45 16.33-35.49 1.02-6.7.38-22.81-1.2-31.43-1.69-9-3.2-13.1-7.23-19.65-2.71-4.37-3.24-5.04-7.08-8.88-8.47-8.47-21.75-16.03-30.11-17.2-7.3-1.02-8.17-1.2-8.96-1.92-1.77-1.66-.6-2.75 2.67-2.48 8.28.68 14.9 2.79 23.45 7.53 9.37 5.16 16.67 10.8 21.11 16.33 6.59 8.17 11.63 22.02 12.98 35.49.68 6.66.23 21.42-.75 26.16-2.11 10.01-3.5 14.3-6.85 21.04-6.29 12.61-15.58 22.02-31.88 32.18-2.11 1.35-2.9 2.37-2.56 3.31.19.49.64.56 2.22.38 3.8-.41 8.99-3.19 15.24-7.75 4.19-3.05 4.2-3.21 6.77-5.38 2.05-1.73 11.33-10.69 14.08-14.23 5.53-7.19 8.54-12.87 10.8-20.4 2.84-9.7 4.05-20.47 3.67-33.23M51.88 101.42c-.53-.34-1.02-.56-1.05-.49-.08.08-.45 1.05-.9 2.18C44.51 117 43 119.59 41.12 117.9c-.68-.6-.75-.98-.56-3.5.41-5.61 4.25-16.52 8.2-23.26 1.02-1.69 1.84-3.16 1.84-3.2 0-.08-.56-.04-1.28.04-1.02.11-1.39 0-1.73-.64-.56-1.05-.26-1.92 1.17-3.27 2.63-2.52 8.96-3.54 12.83-1.99 2.3.9 4.29 2.63 5.04 4.37.3.68.53 2.22.53 3.42 0 4.37-3.35 8.47-8.62 10.54-3.99 1.57-5.46 1.8-6.66 1.01m36.47-1.1c2.33 0 6.44.11 9.11.19 3.46.11 5.42 0 6.7-.38 3.31-.94 3.27 1.09-.04 2.71-2.6 1.32-5.42 1.73-13.44 1.92-4.7.15-8.05.41-9.79.83-5.53 1.32-6.59 1.13-6.59-1.17 0-1.58 1.54-3.46 7.3-8.84 5.27-4.89 5.65-5.38 3.88-4.86-1.69.49-5.31.41-6.47-.11-.53-.23-1.05-.87-1.2-1.35-.41-1.66.79-2.18 5.61-2.52 2.33-.15 5.01-.41 5.95-.56 2.79-.45 3.35-.41 4.18.41.98.98.75 2.15-.9 4.44-1.32 1.81-1.84 2.41-5.8 6.47l-2.71 2.79zm-6.59-22.5c-.53.75-1.43 2.15-2.03 3.09-1.58 2.41-3.8 4.52-4.74 4.52-1.09 0-2.18-1.05-2.18-2.15 0-2.37 2.6-5.42 6.21-7.23 2.45-1.28 3.31-1.32 3.5-.3.07.37-.27 1.32-.76 2.07m-8.02 9.78c.72-.53 1.35-.3 1.69.68.87 2.26.11 5.46-2.79 11.55-1.17 2.45-2.11 4.7-2.11 5.08 0 1.73-2.03 2.11-3.42.6-.79-.83-.9-1.32-.9-3.65 0-2.45.15-2.97 1.47-5.34 1.58-2.86 5.39-8.46 6.06-8.92m11.11 31.96c-2.3 1.54-2.56 1.92-2.82 3.76a65 65 0 0 1-.75 3.88c-.26 1.13-.6 2.52-.72 3.09-.41 1.77-1.99 3.31-3.46 3.31-2.15 0-2.9-2.45-2.03-6.77.15-.94.26-1.73.19-1.81-.04-.04-1.77.45-3.8 1.17l-3.73 1.24-1.17 4.7c-1.32 5.27-1.96 6.7-3.39 7.83-1.28 1.02-2.48 1.02-3.39 0-.9-1.02-.9-5.31 0-7.98 1.02-2.97.87-3.5-.98-3.76-2.03-.26-3.54-1.77-2.94-2.9.53-1.02 2.03-1.73 4.82-2.3 2.03-.41 2.41-.64 2.6-1.47.3-1.28 3.95-8.28 5.38-10.35 2.15-3.12 3.8-4.06 4.33-2.48.3.94-.98 6.21-2.22 9.41-.56 1.35-.98 2.6-.98 2.79 0 .38 1.81.11 4.97-.75 2.11-.56 2.11-.56 2.97-2.9 1.39-3.73 3.54-7.87 4.67-9 1.17-1.13 2.33-1.32 2.71-.41.11.34-.23 2.41-.79 4.63-1.2 4.78-1.24 5.49-.3 5.12.34-.15 1.05-.38 1.51-.49 1.39-.31.93 1.38-.68 2.44m18.93-2.68c-.3 2.26-.45 5.16-.34 6.44.15 1.88.08 2.33-.41 2.52-.98.38-2.82-.98-3.76-2.75-.49-.94-.94-1.73-1.02-1.81-.08-.11-.98.72-1.96 1.77-3.2 3.42-6.81 4.63-8.81 2.97-.79-.68-.94-1.09-.9-2.94 0-1.24.38-3.09.9-4.52l.9-2.41-.87-.68c-1.05-.87-.64-1.62 1.13-1.99 1.73-.34 2.94.11 3.54 1.32.64 1.2.75 3.99.19 5.38-.49 1.35-.08 1.24 2.37-.68 2.3-1.77 4.29-3.99 5.83-6.44 1.09-1.73 1.47-2.07 2.56-2.07.56 0 .87.26.98.87.12.51-.07 2.77-.33 5.02m12.87-5.41c-1.35.53-1.54.79-2.26 2.97-.45 1.32-1.09 3.09-1.47 3.91-.38.83-1.09 2.82-1.58 4.44-1.99 6.25-2.94 7.49-3.91 5.16-.68-1.62-.26-6.47.87-10.91.98-3.76.9-4.14-.79-4.14-1.17 0-2.79-1.66-2.45-2.52.49-1.43.94-1.62 3.65-1.62h2.75l1.77-2.79c2.18-3.5 3.73-4.89 4.78-4.37.45.26.72.79.72 1.51 0 .6-.3 1.69-.64 2.45-.34.72-.53 1.43-.38 1.54.11.15 1.66-.11 3.39-.53 4.1-1.05 7.23-1.43 7.56-.9.48.79-2.38 2.14-12.01 5.8m16.18-20.06c-.49.79-3.27 1.92-4.82 1.92-.83 0-2.03-.26-2.75-.6-1.17-.56-1.32-.56-2.37.19-2.45 1.77-5.83 3.09-7.64 2.97-.94-.04-1.96.11-2.26.34-2.37 1.92-5.68 2.75-11.37 2.79-2.11 0-4.59.15-5.57.3-3.05.49-3.73-.72-1.96-3.5.83-1.28 5.65-5.72 9.18-8.47.53-.41.87-.79.75-.9-.11-.11-1.35 0-2.82.19-1.43.19-3.16.26-3.88.11-1.47-.26-2.71-1.39-2.71-2.41 0-1.35 1.02-1.92 3.5-1.92 1.28 0 3.5-.26 4.97-.56 1.43-.3 3.65-.56 4.86-.56 2.71 0 3.61.64 3.61 2.52 0 1.17-.53 1.84-4.55 5.95-2.48 2.56-4.4 4.7-4.22 4.82.64.34 6.36.6 7.6.34l1.32-.3-.11-2.07c-.08-1.81.08-2.3 1.2-3.91 1.66-2.45 5.12-5.23 7.79-6.29 1.13-.45 3.35-.94 4.89-1.05 1.54-.15 3.01-.26 3.24-.3.19-.04.56.11.83.38.64.64.56 2.11-.3 4.59-.75 2.07-.75 2.22-.15 2.9.34.41 1.02.72 1.47.72 1.14-.04 2.65 1.2 2.27 1.81m-25.55-48.22c.75.49 1.24 1.77 1.69 4.44.23 1.43.75 3.42 1.09 4.48l.64 1.88 7.87 2.67c8.13 2.75 9.26 3.2 15.05 6.02 4.22 2.03 5.23 3.01 4.86 4.63-.3 1.35-2.07 2.48-3.31 2.15-.41-.11-7.41-.04-15.47.19-13.7.34-29.62 1.32-35.79 2.22-1.43.23-4.59.64-6.96.94-4.55.56-9 1.17-18.07 2.45-3.01.41-6.74.94-8.28 1.13-1.54.23-4.4.64-6.32.98-3.2.53-3.61.53-4.44-.04-1.02-.64-.98-.64-.68-1.47.72-1.88 14.3-9.6 23.86-13.59 2.37-1.02 4.55-1.96 4.82-2.18.26-.19 2.11-2.79 4.06-5.76 2.45-3.69 3.88-5.46 4.4-5.57.45-.08 3.88-.79 7.6-1.54 3.73-.75 7.3-1.43 7.9-1.54.64-.11 3.35-.68 6.02-1.28 6.63-1.47 8.7-1.73 9.46-1.21"/><path d="M121.92 86.14c-1.47.64-4.33 3.42-4.33 4.18 0 .6.68.45 3.24-.75 1.88-.87 2.45-1.32 2.63-2.15.15-.56.41-1.28.64-1.54.53-.68-.38-.57-2.18.26m-60.45 6.62c.3-1.17.26-1.66-.34-2.79-.38-.79-1.17-1.62-1.77-1.92-1.2-.56-4.14-1.09-4.44-.83-.11.11-.19.72-.19 1.32s-.75 3.35-1.69 6.13c-1.92 5.65-1.96 5.95-1.02 5.46.34-.19 1.73-.79 3.05-1.39 2.98-1.35 5.84-4.02 6.4-5.98m-45.72 17.88c-.41-3.95-1.66-5.61-4.44-5.91-1.54-.19-1.81-.11-2.79.94-1.28 1.35-1.66 3.58-1.2 6.81.72 5.04 1.88 7.26 4.52 8.58 2.03 1.05 3.42 1.09 4.33.11.6-.64.6-1.05.23-4.59-.24-2.14-.54-4.81-.65-5.94m132.6 40.39h1.19v3.08h.47v-3.08h1.19v-.41h-2.85zm5.25 2.02c-.09.25-.15.43-.19.56-.04-.11-.09-.29-.17-.52l-.85-2.48h-.71v3.5h.46v-2.98l1.04 2.98h.43l1.04-2.93v2.93h.46v-3.5h-.64z"/></svg>