<svg xmlns="http://www.w3.org/2000/svg" xml:space="preserve" viewBox="0 0 1024 407"><path d="m816 1.1-22 15.2c-5.6 8.5-9.6 16.6-15.2 23.7-2.4.8-5 1.2-7.9 1.7-9.9 1.7-14.6-4.4-23.7-7.3-16-5.4-25.2-9-38.3-16.9l-21.4 15.2c-8.4 8.2-3.6 15.8-4.5 24.8-21.3-10.7-36.5-18.8-64.8-20.3l-22 14.7c-2 12.5-6.5 22-14.7 31-12.2-.4-25.3-17.7-42.8-20.8-6.2-1.1-11-.3-14.7 2.3l-21.4 15.2c-3.6 2.5-6.8 6.2-9.6 10.1-.7 1-1.5 1.8-2.3 2.8-.1 0 1.4 8 11.8-3.9 4.6-3.1 8.1-7.5 11.3-11.8 1 .1 1.7-.2 2.8 0 21.3 3.8 36.3 28.5 50.7 18.6l22-15.2c.3-.2.8-.3 1.1-.6 11.2-8.8 18.2-16.2 22.5-25.4 21 3.8 34.9 12 55.2 22l22-15.2c5.3-5.4 11.4-7.7 13.5-14.1.6-1.7 1-3.4 1.1-5.1 6 2.6 12.1 5.1 20.3 7.9 9 2.9 14.3 9 24.2 7.3 8.5-1.5 14.6-4.4 19.7-7.9l22-14.7c4.5-3.1 11.6-12.2 14.7-16.3 8.8 3.5 23.9 7.9 32.1 7.9 0 0 4.6-11.8 3.4-12.4-5-4-19.6-7.7-25.1-12.5m13.5 53c-3 1.3-4.4 8.5-2.8 21.4 13.1 29.5 23.3 90.6-7.9 136.4-32.7 38.7-70.8 55.2-124.5 62-130.4 16.4-188.3-95.5-193.8-142-1.2 3.1-14.9 13.8-14.1 18.6 10.8 89.4 106.6 152.9 193.3 142 57.8-7.3 98.2-25.2 132.4-70.4l14.1-19.2c2.4-3.2 2.5-6.5 4.5-10.1 26.2-48.8 24.3-90.9 5.6-134.7-2.6-3.3-5-4.8-6.8-4M745 87.9c-1.9-.1-3.7.2-5.6.6-15.4 2.7-25.8 17.3-23.1 32.7 2.8 15.4 17.3 25.8 32.7 23.1s25.9-17.3 23.1-32.7c-2.5-13.5-14-23.3-27.1-23.7m-151 26.5c-1.9-.1-4.3.2-6.2.6-15.4 2.7-25.3 17.3-22.5 32.7 2.7 15.4 17.3 25.2 32.7 22.5s25.8-17.3 23.1-32.7c-2.5-13.5-14-22.7-27.1-23.1m114.9 61.4c-1 .2-1.7 1.6-2.3 2.3-6.9 7.5-16.5 12.7-27.6 14.7-10.7 1.6-21-.5-29.9-5.1-.8-.4-1.9-.7-2.8-.6-2.2.4-3.8 2.3-3.4 4.5 6.1 18.3 23.3 30.7 41.1 27.6 17.9-3.1 29.9-20.7 29.3-40-.3-2.2-2.2-3.8-4.4-3.4m-274.2 62h-23.9c-7.1 0-12.9 5.8-12.9 12.9v55.5c0 4.7-3.8 8.5-8.5 8.5s-8.5-3.8-8.5-8.5V251c0-7.1-5.8-13.2-12.9-13.2h-23.9c-7.1 0-12.9 4.8-12.9 11.9v63.7c0 18.9 14.2 39.4 39.7 39.4h.7c14 0 19.3-4.7 24.8-9.1 2-2.5 3-2 3-.5 0 14.3-15.2 26.7-27.5 26.6l-17.3-.2c-5.1-.1-8.1 6-8.1 9.3 0 5.1.1 7.4 0 13-.2 12.6 11.2 15.1 26 15.1h17.4c18.9 0 57.7-22.8 57.7-61.7v-94.6c0-7.1-5.8-12.9-12.9-12.9"/><path d="M578.7 231.8c-12.4 0-23.9 3.9-33.3 10.5-9.4-6.6-20.9-10.5-33.3-10.5-32.2 0-58.2 26.1-58.2 58.7v53.7c0 6.6 6.3 12.9 12.9 12.9h23.9c6.6 0 12.9-6.3 12.9-12.9V290c0-4.7 3.8-8.5 8.5-8.5s8.5 3.8 8.5 9v53.7c0 6.6 6.3 12.9 12.9 12.9h23.9c6.6 0 12.9-6.3 12.9-12.9V290c0-4.7 3.8-8.5 8.5-8.5s8.5 3.8 8.5 8.5v54.2c0 6.6 6.3 12.9 12.9 12.9H624c6.6 0 12.9-6.3 12.9-12.9V290c0-32.1-26.1-58.2-58.2-58.2m-513 0C29.4 231.8 0 261.2 0 297.5v96.6c0 7.1 5.8 12.9 13 12.9h23.9c7.1 0 12.9-5.8 12.9-12.9v-96.6c0-8.8 7.1-15.9 15.9-15.9s15.9 7.1 15.9 15.9-4.3 14-11.9 15.2c-5 .8-11.9 4.4-11.9 11.7v26.9c0 11.9 11.9 11.9 11.9 11.9 31.9 0 61.7-29.4 61.7-65.7s-29.4-65.7-65.7-65.7m642.6 0c-36.3 0-65.7 29.4-65.7 65.7s29.4 65.7 65.7 65.7 65.7-29.4 65.7-65.7-29.4-65.7-65.7-65.7m0 82.8c-8.8 0-15.9-7.1-15.9-15.9s7.1-15.9 15.9-15.9 15.9 7.1 15.9 15.9-7.1 15.9-15.9 15.9M259 231.8c-36.3 0-65.7 29.4-65.7 65.7s29.9 65.7 61.7 65.7c0 0 11.9 0 11.9-11.9v-26.9c0-7.3-6.9-10.9-11.9-11.7-7.7-1.2-11.9-6.4-11.9-15.2s7.1-15.9 15.9-15.9 15.9 7.1 15.9 15.9v46.6c0 7.1 5.8 12.9 12.9 12.9h23.9c7.1 0 12.9-5.8 12.9-12.9v-46.6c.1-36.3-29.4-65.7-65.6-65.7M174.2 188h-23.9c-7.1 0-12.9 5.8-12.9 12.9v143.3c0 7.1 5.8 12.9 12.9 12.9h23.9c7.1 0 12.9-5.8 12.9-12.9V201c.1-7.2-5.7-13-12.9-13m831.1 139.6c0-1.9-1.6-3.8-3.6-3.8h-7.3v7.4h7.2c1.9 0 3.7-1.7 3.7-3.6"/><path d="M999.1 312.4c-11.3 0-20.4 9.2-20.4 20.5s9.1 20.5 20.4 20.5 20.4-9.2 20.4-20.5c.1-11.3-9.1-20.5-20.4-20.5m5.9 32.8-6.7-10.7h-4v10.9h-3.7v-24.9h10.7c3.9 0 7.3 2.8 7.3 6.7s-2.2 6.9-6.2 6.9l7.1 11.1z"/><path d="M1011 188.6h-23.9c-7.1 0-12.9 5.8-12.9 12.9v143.3c0 7.1 5.8 12.9 12.9 12.9h23.9c7.1 0 12.9-5.8 12.9-12.9V201.5c.1-7.1-5.7-12.9-12.9-12.9m-11.9 167.2c-12.6 0-22.8-10.2-22.8-22.8s10.2-22.8 22.8-22.8 22.8 10.2 22.8 22.8-10.2 22.8-22.8 22.8M849.7 232.2s-11.9 0-11.9 11.9V271c0 7.3 6.9 10.9 11.9 11.7 7.7 1.2 11.9 6.4 11.9 15.2s-7.1 15.9-15.9 15.9-15.9-7.1-15.9-15.9v-96.5c0-7.1-5.8-12.9-12.9-12.9H793c-7.1 0-12.9 5.8-12.9 12.9v96.5c0 36.3 29.4 65.7 65.7 65.7s65.7-29.4 65.7-65.7-29.9-65.7-61.8-65.7m98.5-6c12.8-8.6 16-25.1 7.4-37.8h-66.4l20.2 30.3c8.7 12.8 26 16.1 38.8 7.5m5.9 12.1h-23.9c-7.1 0-12.9 5.8-12.9 12.9v93.6c0 7.1 5.8 12.9 12.9 12.9h23.9c7.1 0 12.9-5.8 12.9-12.9v-93.6c.1-7.1-5.7-12.9-12.9-12.9"/></svg>