<svg xmlns="http://www.w3.org/2000/svg" xml:space="preserve" viewBox="0 0 72 72"><path d="m59.4 12.9-3.5 2.4c-.9 1.3-1.5 2.6-2.4 3.7l-1.2.3c-1.6.3-2.3-.7-3.7-1.2-2.5-.8-4-1.4-6.1-2.7l-3.4 2.4c-1.3 1.3-.6 2.5-.7 3.9-3.4-1.7-5.8-3-10.2-3.2l-3.5 2.3c-.3 2-1 3.5-2.3 4.9-1.9-.1-4-2.8-6.8-3.3-1-.2-1.7 0-2.3.4l-3.4 2.4c-.6.4-1.1 1-1.5 1.6-.1.2-.2.3-.4.4 0 0 .2 1.3 1.8-.6.7-.5 1.3-1.2 1.8-1.8h.4c3.4.6 5.7 4.5 8 2.9l3.5-2.4s.1 0 .2-.1c1.8-1.4 2.9-2.6 3.6-4 3.3.6 5.5 1.9 8.7 3.5l3.5-2.4c.8-.8 1.8-1.2 2.1-2.2.1-.3.2-.5.2-.8 1 .4 1.9.8 3.2 1.2 1.4.4 2.2 1.4 3.8 1.2 1.3-.2 2.3-.7 3.1-1.2l3.5-2.3c.7-.5 1.8-1.9 2.3-2.6 1.4.6 3.8 1.2 5.1 1.2 0 0 .7-1.8.5-2-.8-.5-3.1-1.1-3.9-1.9m2.1 8.4c-.5.2-.7 1.3-.4 3.4 2.1 4.7 3.7 14.3-1.2 21.5-5.2 6.1-11.2 8.7-19.7 9.8-20.7 2.6-29.9-15.1-30.7-22.4-.2.5-2.4 2.2-2.2 2.9C9 50.6 24.2 60.7 37.9 58.9c9.1-1.2 15.5-4 20.9-11.1l2.2-3c.4-.5.4-1 .7-1.6 4.1-7.7 3.9-14.4.9-21.3-.5-.5-.8-.7-1.1-.6m-13.4 5.3c-.3 0-.6 0-.9.1-2.4.4-4.1 2.7-3.7 5.2.4 2.4 2.7 4.1 5.2 3.7 2.4-.4 4.1-2.7 3.7-5.2-.4-2.2-2.2-3.7-4.3-3.8m-23.8 4.2c-.3 0-.7 0-1 .1-2.4.4-4 2.7-3.6 5.2s2.7 4 5.2 3.6c2.4-.4 4.1-2.7 3.7-5.2-.5-2.2-2.3-3.6-4.3-3.7m18.1 9.7c-.2 0-.3.2-.4.4-1.1 1.2-2.6 2-4.4 2.3-1.7.2-3.3-.1-4.7-.8-.1-.1-.3-.1-.4-.1-.4.1-.6.4-.5.7 1 2.9 3.7 4.9 6.5 4.4s4.7-3.3 4.6-6.3c0-.4-.3-.6-.7-.6"/></svg>