<svg xmlns="http://www.w3.org/2000/svg" xml:space="preserve" viewBox="0 0 72 72"><path d="M43.7 37.4c-.7-1.1-.8-2.4-1.9-3.4-.8-.7-1.6-1.1-1.9-1.5-.5-.8-1-2.8-1.3-3.2 0 0 .8-1.6.8-2.8s.1-1.5-.2-2.3-.8-.8-.8-1.3c0-.6.3-1.2.3-1.4.1-1.1.7-2.7.7-2.7s.3.8.5 1.5c.1.5.6 1.1.7 1.5.1.3.3.8.8 1.8.5 1.1.7 1.3.7 2.2 0 1.2-.3 1.5-.3 2.3 0 .4.1 1.5.5 1.5.5 0 1.1-1.2 1.1-1.6s-.2-.4-.3-.9c-.1-.4-.2-.4-.3-1.3-.2-1-.4-3.1-.5-3.8-.1-.6-.6-1.9-.7-2.2s-.3-1.9-.5-2.3c-.1-.4-.4-.8-.5-1.3s0-.9-.1-1.2-.5-1.3-1.2-1.3c-1.8 0-2.1-.8-2.1-1.1 0-1.2.9-1.9.9-2.5 0-1-.2-1.3-.5-1.8-.2-.5-.4-1-.9-1-1.2 0-1.5 1.2-1.5 1.8s.1.7.1 1.3 0 2.1.1 2.3c.2.3.6.2.6.8 0 .7-.5 1-1.1 1.3-.7.4-1.4.6-1.6 1.1-.3.4-.9 3.7-1.3 5-.2.8-.7 1.2-.9 2.1-.3 1.6-.4 2.6-.8 4-.1.3-.1.6-.1.9s-.1.7-.1 1.1c0 .8.2 1.2.7 1.2.6 0 .5-.3.4-.7 0 0 .2-.2.2-.5 0-.2-.5-.9-.5-1.7 0-.6.8-2 1-2.5.1-.5.3-1.1.6-1.6.5-.6 1.1-1.3 1.7-2.9 0 0 .2 1 .2 2.4 0 1.1-.1 2.2-.1 2.6 0 .7.4 2.7.4 2.7s.1.7.3 1.5c.2.9.7 1.3.7 1.3s-.5 2.8-.5 3.4.2 1 .3 1.3c0 .3.1.9.1.9-11.6.1-20.9 5.9-20.9 13 0 9.9 9.6 15.3 21.3 15.3s21.3-6.3 21.3-15.3c0-5.4-5.6-10.2-13.6-12m13.4 11.8-.5-.1v-.6l.4.1zm-.3-1.9-.4-.1-.2-.5h.4zm-.2-.8h-.4L56 46h.4zm-.3-.7h-.4l-.2-.5h.4zm-.3-.6h-.4l-.3-.5h.3zm-.5-.6-.3.1-.3-.4.3-.1zm-.3-.6-.4.1-.3-.4.3-.1zm-.5-.5-.3.1-.4-.5.3-.1zm-.5-.6-.3.1-.4-.4.2-.1zm-.6-.5-.3.1-.4-.4.2-.1zm-.6-.5-.2.1-.5-.4.2-.1zm-.6-.5-.2.1-.5-.3.2-.1zm-.6-.5-.2.1-.6-.3.2-.1zm-.7-.4-.2.1-.6-.3.2-.1zm-1.3-.8.5.3-.2.1-.5-.3zm-.7-.4.6.3-.2.1-.5-.3zm-.8-.3.6.3-.2.1-.6-.3zm-.8-.3.5.3-.5-.2zm-.8-.3.7.3-.1.1-.6-.2zm-.8-.3.6.2-.1.1-.7-.2zm-.8-.3.6.2-.1.1-.6-.2zm-.9-.2.6.2-.1.1-.6-.2zm-.2 0-.1.1-.1-.2zm-.3 5c-.1.2-.7.4-.7.8 0 .2.1.2.3.2s.3-.1.5-.1c.3.1.9.3 1.2.6.4.7.8 1.7.9 2.4l-6-.6 3.8-3.6c0 .1.1.2 0 .3m1.2-1c0-.5.2-.8.2-.8 3.6 1.7 5.9 4.3 5.9 7.1 0 .4-.1.8-.2 1.2-.4-.1-1.4-.6-1.6-1.2-.1-.5-.1-.6-.1-.7s-.2-.8-.4-1.4c-.3-.8-1.6-1.6-1.6-1.9-.1-.3 0-.7 0-.9s-.3-.4-.7-.4-.6.2-1 .2-.6-.1-.6-.1c.2-.4.1-.4.1-1.1m-.7 13.7C41.8 56.3 39 57 36 57c-8.3 0-15-3.6-15-9 0-4.9 6.5-8.8 14.5-9-.1 1 0 2.1 0 2.1l-1.3 3.4-6.5-2.5-.1.1 4 3.9-8.1 1v.2l8 1-5.2 4.7.1.1 7.7-3.3 1.7 5.8h.2l1.6-5.9 7.7 3.3.1-.1-4.7-4.2s2.4.6 2.9.9 1.8 1.1 2.5 1.4.8.2 1.1.3c.2.1 1.8 1.3 1.8 1.3-.8.8-1.8 1.5-2.9 2.2 0 0-.8-.5-1.5-.1-.8.2-.4.7-.4.7m-11.5-8.8h-2.4v.1h2.5c.2.3 1.1.3 1.1.3l.1.2s-.2.4-.2.6.2.3.3.3.5-.1.5-.1c.8.6 2.3.4 2.9-.2.5.1 1.3.3 1.3.3l-.9.1-2 6.9-2-6.9L24 47l9.8-1.2 1.7-4.4s0 .8-.1 1.3-.1.8-.3 1.2c-.1.4-.3 1.1-.3 1.1s-.8.9-1.1 1-.9 0-.9.4c-.1 0-.1.1-.1.1m5.1 2.3.1-.4 5.8 3.6h.2L38 48.2l.9-.2 1.2.3 4.6 4.1-7.2-3 .2-.5 2.6 1.5.1-.1zm-7.5 1 2.5-1.6h.6l-5.8 3.7.1.1 6-3.7.3 1.1-7.3 3.1 5.1-4.5.8.1-2.4 1.6zm3.5-4.5-.1.3-4.9-2.9h-.1l4.9 3-1.7.2-3.9-3.7 6.1 2.4-.2.5-2.2-1.3h-.1zm9.5 2.2 2.6-.4c0 .4.1.7 0 1.3-1.5-.2-2.6-.9-2.6-.9m-2.4-3.2-2.3 1.4-.6-.1 4.7-2.9-.1-.1-4.8 2.9-.3-.9 6.1-2.5-3.9 3.7-.8-.1zm2.2-4.4c-1.7-.6-3.6-.9-5.5-1 0 0 .2-.8 0-2 1.2.1 2.3.2 3.4.3.2.3 1.7 1.5 2.1 2.7m-5.5-3.3h.7l-.1.2h-.6zm.8.2.1-.2.7.1-.1.2zm.8.1.1-.1.7.1-.1.1zm1.7.2-.8-.1.1-.1.6.1zm-3.4-3.5c.3.2.4.7.8 1.1.4.3 1.1.7 1.5 1.1s.9 1.1.9 1.1c-1-.1-2-.2-3.1-.3 0 0-.3-1.7-.3-2s.1-.7.2-1m-.3 6.9c.3-.7.4-1.5.4-1.5 2 .1 3.9.5 5.6 1.1 0 0 .2.6.2.8.2.4.2 1 .2 1l-6.3 2.6-.8-2.2c.1.1.4-1.1.7-1.8m-.6 2.2 1.1 3.1 8.2.8v.4l-2.8.4s-.7-.5-2.1-.6h4.1l.1-.2h-7l-.4-.1s-.1-.8-1.3-1.1l-.1-.4s-.1-.5-.1-1.1c.1-.5.3-1.2.3-1.2m.8 3.7-.8-.4v-.3c.6.3.8.7.8.7m-.5 1.2c-.3.2-.6.3-1 .3s-.7 0-1-.2c.7-.4 2-.1 2-.1m-1.4-9.4-.3-.3.3-.3zm.1-1.6v.2h-.5v-.2zm-.7 0v.2h-.6l-.1-.2zm-.8 0 .1.1h-.6l-.1-.2zm-.8.1.1.1-.6.1-.1-.2zm-.8.1.1.1-.6.1-.1-.1zm-.8 0 .1.1-.6.1-.2-.1zm-.8.2.1.1-.6.1-.1-.1zm-.8.1.1.1-.6.1-.1-.1zm-.8.1.1.1-.6.1-.1-.1zm-.8.2.1.1-.6.2-.1-.1zm-.8.2.1.1-.6.2-.1-.1zm-.8.2.1.1-.6.2-.1-.1zm-.8.3.1.1-.6.2-.1-.1zm-.8.3.1.1-.6.2-.1-.1zm-.9.3.1.1-.5.3-.1-.1zm-.7.3.1.1-.6.3-.2-.1zm-.8.4.2.1-.5.3-.2-.1zm-.7.4.2.1-.5.3-.3-.2zm-.8.3.2.1-.6.3-.2-.1zm-.7.5.2.1-.5.3-.2-.1zm-.6.5.2.1-.5.3-.2-.1zm-.7.4.2.1-.4.4-.2-.1zm-.6.5.2.1-.4.4-.3-.1zm-.5.5.2.1-.4.4-.3-.1zm-.6.5.3.1-.4.4-.3-.1zm-.5.6.3.1-.3.4-.3-.1zm-.4.6.3.1-.3.4-.3-.1zm-.5.6h.3l-.3.5h-.4zm-.3.6h.4l-.2.5h-.4zm-.3.6h.4l-.2.5h-.4zm-.3.7h.4l-.1.5h-.4zm-.2.6h.4l-.1.5h-.4zm-.2.7h.4l-.1.5H15zm-.1.7h.4v.5l-.5.1zm0 .6.5-.1v.5l-.5.1zm0 .7.5-.1v.6l-.4.1zm.1.7.5-.1.1.5-.5.1zm.1.7.5-.1.2.5-.5.2zm.2.7.5-.1.2.5-.5.2zm.3.7.4-.2.3.5-.5.2zm.3.7.4-.2.3.5-.4.2zm.4.7.4-.2.4.5-.4.3zm.4.6.4-.2.4.5-.5.3zm.5.7.4-.2.5.5-.4.2zm1.1 1.1-.5-.5.4-.3.5.5zm.2.2.4-.3.6.5-.4.3zm.7.6.3-.3.7.4-.4.3zm.9.6.3-.3.7.4-.3.3zm.8.5.3-.3.7.4-.3.4zm.9.5.2-.3.8.4-.2.4zm1 .5.2-.3.8.3-.2.4zm1.8.8-.8-.3.2-.4.8.4zm1.2.4-.9-.3.2-.4.9.3zm1.1.4-.9-.3.2-.4.9.3zm1.2.2-.9-.2.1-.4 1 .2zm1.2.3-1-.2.1-.4 1 .2zm1.3.2-.9-.2.1-.5 1 .1zm1.3.2-1-.1.1-.4 1 .1zm1.3.1-1-.1v-.4l1 .1zm1.3.1h-1v-.4h1zm1.3 0h-1v-.4h1zm-20.2-13c0-6.7 8.9-12.2 20-12.4v.6l-.4.4-.4-.4h-.5l.3.1.4.5-.4.4-.2.1h.5l-.1-.1.4-.3.4.4-.1.4c-8.2.2-14.9 4.3-14.9 9.3 0 5.6 6.9 9.3 15.3 9.3 3.1 0 6.1-.7 8.6-1.7.5.4 1.8.7 2.2.7.4.1 1.6.5 1.6.5l.6.1c.4.1 1.3.6 2 .7-3.7 2.4-9 3.9-14.8 3.9-11.4-.2-20.5-5.1-20.5-12.5m21.5 13h-1v-.5h1zm.3 0v-.4h1v.4zm1.3 0v-.4l1-.1v.4zm1.4-.2-.1-.4 1-.1.1.4zm1.3-.1-.1-.5 1-.1.1.4zm1.2-.2-.2-.5 1-.2.1.4zm1.2-.3-.1-.4.9-.3.1.4zm1.3-.4-.2-.4.9-.3.2.4zm1.2-.4-.2-.4.9-.3.2.4zm1-.4-.2-.3.8-.3.2.3zm1.1-.4-.2-.4.8-.3.2.3zm1-.5-.3-.3.8-.4.2.3zm1-.5-.3-.4.7-.4.3.3zm.9-.5L51 58l.2-.2.4.3zm-4.9-3.6c1.1-.6 2-1.3 2.8-2.1.5.2 1 .8 2.3 1.4.9.5 2.2.8 2.6 1l-.9.9c-1.1-.4-5 0-6.8-1.2m7.7 1.3-.6-.1.4-.4.3.3zm.2-.3-.3-.4.3-.4.4.1zm2.1-5.3-2.7-.6-2.5-.5c.1-.4.1-.8.1-1.2 0-3-2.4-5.7-6.2-7.4.1-.2.6-.6.6-1.1 0-.3-.7-.5-1.1-.9-.3-.3-.6-.9-.6-.9 6.4 1.7 11.1 5.2 12.2 9.4 0 0-1.3-.4-1.8-.4L54 46v.2h-1.9l-.2-.2.2.5.1-.2h1.9l.2.1v.2c-.3 0-.5.1-.5.1h-1.4l-.2-.1.1.5.1-.2h1c-.2.1 0 .3 0 .3h-.9l-.1-.1.1.5.1-.2h1c.7.8 3 .9 3 .9v.7c-.1.6-.2 1-.2 1.4m.7.2-.5-.1.1-.5.5.1zm-.4-.8v-.5l.4.1v.5z"/><path d="m26.2 47.1 7 .1v-.1l-6.9-.2zm8.9 1.3H35l-.1 3h.1zm.7.1h-.1v5.6h.1zm9.4 7.9.5 1.8-.2.3.7-.3-.3-.1s-.3-.8-.4-1.2l1.4.8-.1.3.9-.4h-.4zm5.3-14.7-.4-.3-.1.2-1.2.4-.3-.1.4.4v-.2l1.4-.4zm.1.3-1.3.5-.3-.1.4.3v-.1l1.3-.5.4.1-.5-.4zm-21.2-2.8-.1.1.5-.2h-.2l-.6-.7v-.1l-.4.2h.2zm-1.5 0-.1.4-.2.2.5-.2h-.2l.2-.4.5.2-.1.1.6-.2h-.3l-.7-.2.1-.6-.3.1.2.1-.1.4-.6-.2v-.1l-.5.2h.3zm-5.8 3.1.2.5v.2l.4-.3h-.3l-.2-.4h.8v.2l.4-.5-.4.1-1 .1-.3-.5.1-.2-.4.3h.3l.2.4h-.7l-.1-.2-.5.5.5-.2zM19.6 48l.2-1-.2.1-.6-.3.7-.3.1.1.1-.5-.2.2-1 .3-.7-.1-.2-.3-.1.5.2-.1.6.3s-.5.2-.7.3l-.2-.2-.2 1.1.2-.2h1.9zm-2-.4-.1-.1.3-.2.9-.3.8.3.1.2-.2.2h-1.8zm2.4 3.7.2.1-.2-.6-.2.3-1.7.6-.4-.1s.1.3.2.5l.1-.3zm.3.5.2.1-.3-.5-.1.3-1.7.7-.4-.1s.1.3.3.5l.1-.3zm.3.6.2.1-.3-.5v.2l-1.8.7h-.3s.2.2.3.4l.1-.2zm-1.6 1h-.3l.3.3v-.2l1.8-.2-1.2.9h-.3l.4.4v-.2l1.7-1.3zm6.4 4.7h-.3l-.3-.2 1.2-1.4h.3l-.7-.3.1.2-1.3 1.3h-.3l-.1-.2 1.2-1.4h.3l-.6-.3.1.2-1.3 1.3-.3.1s1 .6 2.3 1l-.2-.2 1.7-1-.5 1.3h-.3l.9.3-.3-.1.6-1.8zm11.1 0h-.1l-1 1.8-.3.1-.3-.1v-1.6l.3-.1h-.9l.2.1V60H34s1.1.1 1.9 0l-.3-.1.7-1.3.7 1.2-.4.2h1l-.2-.1z"/></svg>