<svg xmlns="http://www.w3.org/2000/svg" xml:space="preserve" viewBox="0 0 72 72"><path d="M42 46.1c-1.3 1.3-4.1 1.8-6 1.8-2 0-4.7-.4-6-1.8-.3-.3-.8-.3-1.1 0s-.3.8 0 1.1c2 2 5.9 2.2 7.1 2.2 1.1 0 5-.1 7.1-2.2.3-.3.3-.8 0-1.1s-.8-.3-1.1 0m-9.6-6.8c0-1.6-1.3-3-3-3s-3 1.3-3 3 1.3 3 3 3c1.6-.1 3-1.4 3-3m10.2-3c-1.6 0-3 1.3-3 3 0 1.6 1.3 3 3 3s3-1.4 3-3c-.1-1.7-1.4-3-3-3"/><path d="M36 7.2C20.1 7.2 7.2 20.1 7.2 36S20.1 64.8 36 64.8 64.8 51.9 64.8 36 51.9 7.2 36 7.2m16.7 32.9c.1.4.1.9.1 1.3 0 6.5-7.5 11.7-16.8 11.7s-16.8-5.3-16.8-11.7c0-.4 0-.9.1-1.3-1.4-.7-2.5-2.1-2.5-3.8 0-2.3 1.9-4.2 4.2-4.2 1.1 0 2.2.4 2.9 1.2 2.9-2.1 6.9-3.4 11.4-3.6l2.1-10c0-.2.1-.4.3-.5.1-.1.3-.1.5-.1l7 1.5c.5-1 1.5-1.7 2.7-1.7 1.6 0 3 1.3 3 3s-1.3 3-3 3c-1.6 0-2.9-1.3-3-2.9l-6.2-1.3-1.9 9c4.4.2 8.3 1.5 11.2 3.6.8-.7 1.8-1.2 2.9-1.2 2.3 0 4.2 1.9 4.2 4.2.1 1.7-1 3.2-2.4 3.8"/></svg>