<svg xmlns="http://www.w3.org/2000/svg" xml:space="preserve" viewBox="0 0 72 72"><path d="M47.9 29.4c5.6-.6 11.3-1.1 16.9-1.4-3.1.8-6.1 1.5-9.1 2.4-4.2 1.2-8.4 2.8-12.5 4.4-2.1-1.3-4.3-2.5-6.4-3.8 3.6-.7 7.4-1.2 11.1-1.6M7.2 28.3h21.1c1.5.8 3 1.7 4.5 2.5 5.8 3.3 11.6 6.7 17.3 10.2 1.4.8 2.8 1.7 4.1 2.5l.9.6c-6.2-2.6-12.4-5.4-18.7-7.8-5.4-2.1-10.9-3.8-16.4-5.2q-4.65-1.2-9.3-2.1c-1.1-.3-2.3-.5-3.5-.7m7.7 10.3c2.9-1.9 6.2-3.3 9.4-4.5 2 .5 3.9 1.2 5.8 1.8-2.6 1-5 2.3-7.3 4-1.4 1.1-2.8 2.2-3.9 3.7H9.3c1.7-2 3.6-3.7 5.6-5"/><path d="M24.7 41.3c2.2-2 4.8-3.6 7.5-4.8 1.5.5 3.1 1.1 4.6 1.7-1.3.9-2.6 1.9-3.7 3.1-.6.7-1.2 1.4-1.7 2.2h-8.6c.4-.8 1.1-1.5 1.9-2.2"/></svg>