<svg xmlns="http://www.w3.org/2000/svg" xml:space="preserve" viewBox="0 0 360 180"><path d="M205.8 82.5c-.6 2.2-1 4.5-1 7s.3 4.9 1 7c.7 2.2 1.6 4.1 3 5.7 1.3 1.6 3 2.9 5 3.8s4.4 1.4 7 1.4 5-.5 7-1.4 3.7-2.2 5-3.8q1.95-2.4 3-5.7c.6-2.2 1-4.5 1-7s-.3-4.9-1-7q-.9-3.3-3-5.7c-1.3-1.6-3-2.9-5-3.8s-4.4-1.4-7-1.4c-2.7 0-5 .5-7 1.4s-3.7 2.2-5 3.8q-1.95 2.4-3 5.7m8.7-1.8c1.3-2.1 3.4-3.1 6.3-3.1s5 1 6.4 3.1 2.1 5.1 2.1 8.9-.7 6.8-2.1 8.9-3.5 3.1-6.4 3.1-5-1-6.3-3.1c-1.4-2.1-2.1-5.1-2.1-8.9s.7-6.8 2.1-8.9m-61.2 24.2c3.9 2.1 7.6 2.7 11.4 2.7 7.8 0 12.7-4.2 12.7-10.9v-.1c0-6.2-5.5-8.5-10.7-10.1l-.7-.2c-3.9-1.3-7.2-2.4-7.2-4.9v-.1c0-2.2 2-3.8 5-3.8 3.4 0 7.4 1.1 10 2.5 0 0 .8.5 1-.2.2-.4 1.5-3.9 1.6-4.3s-.1-.7-.4-.9c-3-1.8-7-3-11.2-3h-.8c-7.2 0-12.2 4.3-12.2 10.6v.1c0 6.5 5.5 8.7 10.7 10.2l.8.3c3.8 1.2 7 2.2 7 4.8v.1c0 2.4-2.1 4.2-5.5 4.2-1.3 0-5.5 0-10.1-2.9-.5-.3-.9-.5-1.3-.8-.1-.1-.8-.3-1 .4l-1.5 4.3c-.2.6.1.8.2.9.7.3 1.4.7 2.2 1.1m128.4 2.5c3.3 0 6.8-.7 9.3-1.7 0 0 .5-.2.3-.7l-1.6-4.4c-.2-.6-.8-.4-.8-.4q-1.5.6-3 .9-1.65.3-3.6.3c-3.2 0-5.7-.9-7.5-2.8s-2.8-4.9-2.8-9c0-3.7.9-6.5 2.5-8.6s4-3.2 7.3-3.2c2.7 0 4.8.3 6.9 1 0 0 .5.2.8-.5.6-1.6 1-2.7 1.6-4.5.2-.5-.3-.7-.4-.8-.9-.3-2.9-.9-4.4-1.1-1.4-.2-3.1-.3-4.9-.3-2.7 0-5.2.5-7.3 1.4s-3.9 2.2-5.3 3.8-2.5 3.5-3.2 5.7-1.1 4.5-1.1 7c0 5.4 1.5 9.8 4.4 13 2.8 3.3 7.1 4.9 12.8 4.9m-38.2-.7h5.8c.4 0 .7-.3.7-.7V89.5c0-2.2.2-4.4.7-5.8s1.1-2.5 1.9-3.3 1.7-1.3 2.7-1.6 2.2-.4 3-.4c1.2 0 2.4.3 2.4.3.4 0 .7-.2.8-.6.4-1 1.5-4.1 1.7-4.7.2-.5-.2-.8-.3-.8-.4-.2-2.3-.6-3.7-.6-2.8-.2-4.3.3-5.7.9s-2.9 1.6-3.8 2.8V73c0-.4-.3-.7-.6-.7h-5.7c-.4 0-.6.3-.6.7v33.1c0 .3.3.6.7.6m54.1-4.2c1.5 1.6 3.3 2.8 5.6 3.7 2.2.9 4.9 1.3 8 1.3 6.4 0 9.8-1.5 11.2-2.2.2-.1.5-.4.2-1.1l-1.5-4.1c-.2-.6-.8-.4-.8-.4-1.6.6-3.8 1.6-9.1 1.6-3.4 0-6-1-7.6-2.6s-2.5-4-2.6-7.4h22.2s.6 0 .6-.6c0-.2.8-4.5-.6-9.5-.6-2.1-1.9-4.2-2.8-5.2-1.4-1.5-2.8-2.6-4.2-3.2-1.8-.8-4-1.3-6.4-1.3-2.8 0-5.3.5-7.3 1.4-2 1-3.8 2.3-5.1 3.9s-2.4 3.6-3 5.8-1 4.6-1 7.1c0 2.6.3 4.9 1 7.1.6 2.2 1.7 4.1 3.2 5.7m5.3-21.8c1.4-2.1 3.4-3.2 6.3-3.2s4.8 1.1 6.2 3.2c.9 1.4 1.3 3.2 1.5 5.2h-15.8c.3-2.1.9-3.8 1.8-5.2"/><path d="M174.1 116.4c-.5-.1-.8-.2-1.2-.4 0 0-.6-.2-.8.4-.2.5-1.5 4.1-1.6 4.5-.2.4.1.8.3.9.7.2 1.2.4 2 .6 1.2.3 2.3.3 3.2.3 2 0 3.9-.3 5.4-.8 1.6-.6 2.9-1.5 4.1-2.9 1.3-1.4 2.1-2.9 2.9-5 .8-2 1.4-4.5 1.9-7.5l5-28.3h7.3s.6 0 .8-.6l.8-4.6c.1-.5-.1-.7-.7-.7h-7.1c0-.2.4-2.6 1.2-5 .3-1 1-1.8 1.6-2.4.5-.5 1.2-.9 1.9-1.2q1.05-.3 2.4-.3c.7 0 1.3.1 1.8.2.7.2 1 .2 1.1.3.7.2.8 0 1-.3l1.7-4.7c.2-.5-.3-.7-.4-.8-.7-.2-1.3-.4-2.2-.5-.8-.2-1.9-.2-3-.2-4 0-7.2 1.1-9.4 3.4-2.2 2.2-3.7 5.6-4.5 10.1l-.3 1.5h-5s-.6 0-.8.6l-.8 4.6c-.1.4.1.7.7.7h4.9l-5 27.7c-.4 2.2-.8 4.1-1.3 5.5s-1 2.4-1.5 3.2c-.6.7-1.1 1.3-2 1.6-.8.3-1.7.4-2.6.4-.6-.1-1.3-.2-1.8-.3M70.5 104.9c1.2.9 2.7 1.6 4.5 2 1.7.4 3.7.6 5.9.6 2.3 0 4.5-.2 6.7-.6s4.8-.9 5.6-1.1c.7-.2 1.6-.4 1.6-.4.6-.1.5-.7.5-.7V84.4c0-4.4-1.2-7.7-3.5-9.8-2.3-2-5.8-3.1-10.2-3.1-1.7 0-4.3.2-5.9.6 0 0-4.8.9-6.8 2.5 0 0-.4.3-.2.9l1.6 4.2c.2.5.7.4.7.4l.4-.2c4.3-2.3 9.7-2.2 9.7-2.2 2.4 0 4.2.5 5.5 1.4 1.2.9 1.8 2.3 1.8 5.3v.9c-1.9-.3-3.6-.4-3.6-.4-.9-.1-2.1-.1-3.5-.1-1.9 0-3.7.2-5.5.7-1.7.5-3.3 1.2-4.6 2.2s-2.4 2.2-3.2 3.6q-1.2 2.25-1.2 5.1c0 2 .3 3.7 1 5.1.4 1.3 1.4 2.5 2.7 3.4M75.7 92s1.9-1.7 6.4-1.6c3.2 0 6 .5 6 .5V101s-2.8.6-6 .8c-4.5.3-6.5-1.3-6.5-1.3-.9-.7-1-.9-1.3-1.3-.4-.7-.7-1.7-.7-2.9.1-2 .8-3.4 2.1-4.3m27.4 14.7h5.9c.4 0 .6-.3.6-.7V58.7c0-.4-.3-.7-.6-.7h-5.9c-.4 0-.6.3-.6.7V106c-.1.4.2.7.6.7m-64.7-1.8c3.9 2.1 7.6 2.7 11.4 2.7 7.8 0 12.7-4.2 12.7-10.9v-.1c0-6.2-5.5-8.5-10.7-10.1l-.7-.2c-3.7-1.3-7.1-2.4-7.1-5v-.1c0-2.2 2-3.8 5-3.8 3.4 0 7.4 1.1 10 2.5 0 0 .8.5 1-.2.2-.4 1.5-3.9 1.6-4.3s-.1-.7-.4-.9c-3-1.8-7-3-11.2-3h-.8C42 71.5 37 75.8 37 82v.1c0 6.5 5.5 8.7 10.7 10.2l.8.3c3.8 1.2 7 2.2 7 4.8v.1c0 2.4-2.1 4.2-5.5 4.2-1.3 0-5.5 0-10.1-2.9-.6-.3-.9-.6-1.3-.8-.2-.1-.8-.4-1 .4l-1.5 4.3c-.2.6.1.8.2.9.7.5 1.4.9 2.1 1.3m81.7-2.4c1.5 1.6 3.3 2.8 5.6 3.7 2.2.9 4.9 1.3 8 1.3 6.4 0 9.8-1.5 11.2-2.2.2-.1.5-.4.2-1.1l-1.5-4.1c-.2-.6-.8-.4-.8-.4-1.6.6-3.8 1.6-9.1 1.6-3.4 0-6-1-7.6-2.6s-2.5-4-2.6-7.4h22.2s.6 0 .6-.6c0-.2.8-4.5-.6-9.5-.6-2.1-1.9-4.2-2.8-5.2-1.4-1.5-2.8-2.6-4.2-3.2-1.8-.8-4-1.3-6.4-1.3-2.7 0-5.3.5-7.3 1.4-2 1-3.8 2.3-5.1 3.9s-2.4 3.6-3 5.8-1 4.6-1 7.1c0 2.6.3 4.9 1 7.1.6 2.2 1.7 4.1 3.2 5.7m5.3-21.8c1.4-2.1 3.4-3.2 6.3-3.2s4.8 1.1 6.2 3.2c.9 1.4 1.3 3.2 1.5 5.2h-15.8c.3-2.1.9-3.8 1.8-5.2"/></svg>