<svg xmlns="http://www.w3.org/2000/svg" xml:space="preserve" viewBox="0 0 1000 332.03"><path d="M791.34 193.63c-.3-3.45-.34-4.88-.37-6.81l.02-43.54c0-1.83.23-5.09.43-6.81 2.3-19.32 17.96-25.54 36.32-25.54 18.34 0 34.39 6.19 36.29 25.54.34 3.3.23 6.81.23 6.81v3.45h-26.07v-5.79c.02.01-.03-2.46-.34-3.93-.44-2.29-2.43-7.54-10.3-7.54-7.54 0-9.74 4.97-10.29 7.54-.32 1.36-.44 3.21-.44 4.88v47.28c-.02 1.31.05 2.75.26 3.93.45 2.77 3.05 7.49 10.54 7.49s10.11-4.73 10.59-7.49c.19-1.19.24-2.63.23-3.93v-15.01h-10.61v-15.09h36.66v27.75c-.02 1.93-.07 3.36-.37 6.81-.78 8.49-4.54 14.51-10.11 18.57 96.02-43.37 152.63-91.67 145.39-133.15C985.8.96 751.22-23.41 475.41 24.65 355.05 45.61 246.73 76.89 164 111.97c4.38-1.02 9.2-1.49 14.27-1.49 14.64 0 34.86 3.52 34.86 26.04v7.26h-25.78v-6.38c0-5.65-3.57-9.38-9.61-9.38-6.47 0-8.73 3.64-9.45 6.93-.24 1.18-.38 3.37.11 5.45 2.92 12.11 42.16 18.57 46.53 40.21.43 2.21 1.36 8.05.11 16.98-2.45 17.23-17.85 23.62-36.55 23.62-19.45 0-37.59-6.95-37.59-30l.02-8.01h27.73v10.01c0 5.68 3.93 9.39 10.41 9.39 6.88 0 9.21-3.5 10.07-6.94.47-1.94.78-5.16-.23-7.67-5.32-13.38-42.04-19.5-46.56-40.63-1.09-5.19-.98-9.33-.23-13.97 1.18-7.24 4.64-12.48 9.65-16.11C52.27 161.29-6.75 210.66.62 252.96c13.6 78.1 248.23 102.48 524.03 54.44 123.16-21.45 233.69-53.7 317.11-89.79-4.37 1.06-9.12 1.55-14.02 1.55-18.36-.01-34.65-6.72-36.4-25.53m-502.47 23.53-13.78-93.81h-.58l-14.16 93.81h-27.92l19.17-103.39h45.99l19.08 103.39zm137.55 0-.68-92.95h-.54l-17.28 92.95h-26.23l-17.29-92.95h-.56l-.65 92.95H337.3l2.29-103.39h42.19l12.77 79.03h.55l12.78-79.03h42.16l2.24 103.39zm124.51-19.88c-2.41 17.07-17.67 23.38-36.17 23.38-19.25 0-37.23-6.89-37.23-29.71l.03-7.9H505l.02 9.92c0 5.55 3.9 9.26 10.29 9.26 6.83 0 9.14-3.45 9.99-6.88.46-1.94.79-5.08-.23-7.56-5.26-13.25-41.63-19.32-46.07-40.23-1.07-5.16-.99-9.23-.24-13.81 2.69-16.71 17.6-22.71 35.78-22.71 14.5 0 34.55 3.49 34.55 25.77v7.18H523.5v-6.32c0-5.6-3.49-9.25-9.48-9.25-6.4 0-8.62 3.55-9.36 6.87-.25 1.11-.4 3.28.1 5.35 2.89 11.99 41.74 18.38 46.07 39.82.47 2.19 1.36 7.96.1 16.82m97.08-2.6c-1.83 19.3-17.09 25.56-36.09 25.56-19.02 0-34.29-6.26-36.1-25.56-.09-.98-.27-4.89-.22-6.79v-74.17h26.12v76.51c0 1.34.04 2.85.24 3.95.56 2.54 2.74 7.5 9.96 7.5 7.17 0 9.41-4.97 9.91-7.5.21-1.12.26-2.61.24-3.95v-76.51h26.15v74.17c.06 1.9-.13 5.81-.21 6.79m115.96 21.4h-36.8l-25.54-83.97h-.55l1.42 83.97h-25.43V113.77h38.4l23.76 81.17h.57l-1.42-81.17h25.6v102.31z"/><path d="M151.75 117.28c4.02-1.78 8.1-3.55 12.24-5.3-4.65 1.08-8.81 2.81-12.24 5.3m690.01 100.33c4.6-1.12 8.77-2.88 12.23-5.41a966 966 0 0 1-12.23 5.41"/></svg>