<svg xmlns="http://www.w3.org/2000/svg" xml:space="preserve" viewBox="0 0 72 72"><path d="M52.8 63.7h-4.9q-2.4 0-1.8-2.4c.3-1.2.6-2.4.6-3.6.1-3.2-1.2-5.6-3.8-7.4-1.9-1.3-3.9-2.2-6.1-2.9-3.6-1.1-7.2-2.2-10.7-3.3-2.9-.9-5.7-2.1-8.2-3.8-4.2-2.9-6.4-6.9-6.6-12.1C11 18.8 16.2 12 24.7 9c3.9-1.4 8-1.9 12.1-1.8 6.6.2 12.8 1.5 18.8 4.3.8.4 1.7.8 2.5 1.3 1.7 1 2.1 2.1 1.4 4-.3.7-.6 1.3-.9 2-.8 1.7-1.6 3.5-2.5 5.2-1 2-2.5 2.5-4.4 1.5-3.2-1.7-6.5-3.2-10-4.1-3.5-.8-7-1.2-10.5-.4-1.1.2-2.1.6-3.1 1.3-2.7 1.9-2.8 5.2-.2 7.2 1.1.9 2.5 1.5 3.8 2 3.3 1.2 6.8 2 10.1 3.1 3.1 1 6.2 2 9.1 3.6 2 1.1 3.8 2.4 5.4 4 3.4 3.4 4.8 7.6 5 12.4.1 2.1-.1 4.2-.7 6.3-.1.3-.2.7-.3 1-.5 1.4-1.2 1.9-2.7 1.9-1.5-.1-3.1-.1-4.8-.1m-26.9-6.6c-.1.8-.1 1.6-.3 2.3-.8 2.9-2.7 4.6-5.5 5.1-1.5.3-3.1.2-4.5-.3-2.4-.8-4-2.3-4.6-4.7-.5-1.8-.5-3.6.1-5.4.8-2.3 2.4-3.8 4.7-4.4 1.6-.4 3.3-.4 4.9.1 2.9.7 4.8 3.1 5.1 6 .1.6.1 1 .1 1.3"/></svg>