<svg xmlns="http://www.w3.org/2000/svg" xml:space="preserve" viewBox="0 0 72 72"><path d="M48.037 26.29c-.75 0-1.125.125-1.375.5-.125.125-.125.25-.25.5l-3.875 14.875c-.875 5.25-7.375 10.5-15.75 10.5h-11.75l2-7.625h7.5c.75 0 1.375-.25 1.875-.875.125-.25.375-.5.5-.875l3.125-13c.875-5.25 6.5-11 14.875-11h11.875l-1.5 7zm2.75 9.125 1.375-4.875h12.125c1.5-7 .375-13.5-3.875-17.75-8.625-8.625-26.625-5.625-40 7.125-2.125 2-3.875 4.125-5.5 6.375h7.25l-1.75 4.875h-8.75c-.875 1.5-1.625 3-2.25 4.625h10.375l-1.625 4.875H8.037c-1.75 7.375-.625 14.25 3.75 18.625 8.5 8.5 26.375 5.5 39.875-7.375 2.375-2.25 4.25-4.625 6-7.125h-9.375l1.375-4.875h11c.75-1.5 1.5-3 2.125-4.625z"/></svg>