<svg xmlns="http://www.w3.org/2000/svg" xml:space="preserve" viewBox="0 0 360 180"><path d="M134.333 85.553h-25.5V70.68h-13.28v38.78h13.28V94.053h25.5v15.406h13.28v-38.78h-13.28zm35.221 8.372 9.03-14.874 9.031 14.874zm3.718-23.374-23.374 38.78h10.093l4.781-7.968h27.093l4.781 7.968h15.937l-23.374-38.78zm91.303 16.691c3.188-4.25 2.656-10.093-3.187-13.28-5.844-3.188-16.468-4.25-22.843-4.25-10.625 0-17.53.531-23.374 1.593v38.25h13.28V77.148c4.781-1.062 9.563-1.062 11.156-1.062 5.313 0 7.969 1.062 10.625 2.656 2.656 1.593 3.187 5.312 0 7.968-2.125 2.125-6.906 3.719-17.53 2.125l-1.595 2.656 20.187 18.062h18.062l-18.062-15.406c3.719-1.062 10.094-2.656 13.281-6.906M67.45 84.22c-7.437-1.594-13.811-2.656-13.811-4.781 0-2.657 5.312-3.188 12.75-2.657 6.905.532 13.811 2.657 19.655 5.313l4.25-7.969c-5.313-2.125-15.406-4.25-24.437-4.78-10.094-.532-27.093.53-28.155 11.155-.532 9.562 12.75 11.687 21.78 13.812 7.969 1.594 16.468 2.656 16.468 5.312 0 2.125-2.656 3.72-10.093 3.188-9.031-.531-16.468-3.188-24.437-6.906l-5.312 8.5c8.5 3.187 19.655 5.843 29.749 6.374 11.687 0 25.5-1.593 25.5-11.687 0-9.03-8.5-12.218-23.906-14.874m239.379 2.959c-2.126 1.593-5.313 2.656-10.625 2.656-3.719 0-7.969-.531-11.156-1.594V77.085c4.78-1.062 9.562-1.062 11.156-1.062 5.312 0 8.5 1.062 10.624 2.656 2.657 1.594 3.188 5.844 0 8.5m11.688-13.281c-5.313-3.188-15.406-4.25-22.843-4.25-10.625 0-17.531.531-23.375 1.594v38.248h13.281V95.147c4.25.531 9.031 1.063 13.28 1.063 10.626 0 18.594-2.657 22.313-6.375 4.78-5.844 3.187-12.218-2.656-15.937"/></svg>