<svg xmlns="http://www.w3.org/2000/svg" xml:space="preserve" viewBox="0 0 72 72"><path d="m54.1 61.2 1.3-10.6 8.8-6.5c1.8-9.2-.7-16.9-5.2-23-4.8-6.6-13.1-11.5-22.9-11.6-9.8 0-18 4.8-23.1 11.3-4.1 5.7-6.9 11.8-5.4 22.9 3.2 2.3 5.9 4.4 9.3 6.8l1.3 10.6h13.9c.9.7 2.1 1.3 3.9 1.4 1.9-.1 3.1-.7 3.9-1.4zm-18-3.7c-1.3-.1-1.5-.5-2.3-1.4L23.2 56l-1-8-9.7-7.2c-.3-1.1-.6-3-.5-4.6.2-1.6.5-2.4.9-3.4 4.9 4.8 11.1 11 16.1 15.8C24.3 43 18.6 36 13.8 30.2c.2-1.3.5-2.7 1.2-3.8.8-1.4 1.5-2 2.3-2.7 4.4 7.1 9.6 16.6 13.9 23.8-3.7-7.9-8.2-18-11.9-26 .8-1.3 1.4-1.8 2.3-2.5s2.1-1.4 3.3-1.7c2.6 9 6 20.4 8.6 29.4-1.9-9.3-4.1-21.3-6.1-30.6 1.1-.6 1.9-.9 3.2-1.3 1.2-.2 2.7-.3 3.8 0 .6 9.8.8 21.9 1.6 31.8.7-9.8.8-22 1.5-31.8 1.1-.2 2.4-.1 3.8.1 1.2.4 2.1.7 3 1.4-1.8 9.4-4.1 21.2-5.9 30.5 2.6-9 5.9-20.4 8.6-29.4 1.2.3 2.4 1 3.4 1.7.8.7 1.4 1.3 2.2 2.6-3.8 7.8-8.1 18-12 25.9 4.3-7.1 9.7-16.7 14-23.8.8.8 1.3 1.3 2.2 2.7.8 1.2 1.1 2.5 1.3 3.8-4.8 5.9-10.5 12.9-15.3 18.6C48 44 54.2 37.8 59.2 33c.4.9.7 1.7.9 3.4.1 1.6-.1 3.4-.5 4.6L50 48.1l-1.1 8H38.3c-.3.6-1 1.4-2.2 1.4"/></svg>