<svg xmlns="http://www.w3.org/2000/svg" xml:space="preserve" viewBox="0 0 2500 2500"><path d="m1830.4 1837 41.8-338.4 282.7-208.1c56.5-292.5-21.3-539.9-166.3-736.6-154.9-207.3-417.8-365.4-731.7-368.7-313.8 0-576 154.8-739 362.1-131.1 183.5-220.4 376.9-172 733.3 102.4 74.6 187.6 139.3 298.2 217.9l41.8 338.4h444.9c30.3 22.1 67.2 42.6 126.2 44.3 59.8-1.6 97.5-22.1 125.4-44.3h448zM1257 1721.5c-40.2-2.5-48.3-17.2-72.9-45.9l-340-2.5-32.8-254.8L502.4 1189c-10.6-36.1-20.5-95.9-14.7-145.8 4.9-51.6 14.7-77.8 30.3-109 158.1 154 354.8 352.3 514.5 506.3-153.2-185.1-335.1-408-487.5-594 4.9-41.8 16.4-85.2 39.3-122.1 27-45.9 47.5-63.1 74.6-86.8 139.3 227.8 307.2 530.1 445.7 759.5-119.6-252.3-262.2-576-381-829.9 27-41 44.3-58.2 73.7-81.1 27.8-22.9 66.4-45.1 105.7-53.3 81.9 288.4 192.5 650.5 275.3 939.7-60.6-297.4-131.9-679.2-193.4-979.1 33.6-18.8 62.3-29.5 101.6-41.8 39.3-6.5 86.8-9 120.4-.8 19.7 312.1 26.2 701.3 50 1016.7 23.7-313.8 24.6-702.1 47.5-1016.7 34.4-5.7 77.8-4.1 122.1 4.1 38.5 11.5 67.2 22.1 96.7 43.4-58.2 299-131.1 677.5-189.3 975 83.6-286.7 189.3-652.2 275.3-939.7 37.7 9 76.2 31.1 107.3 54.9 26.2 21.3 45.1 41.8 71.3 81.9-120.5 250.7-259.7 574.3-382.6 827.5 138.5-227.7 308.9-532.5 449-759.5 26.2 24.6 42.6 41.8 71.3 87.7 24.6 36.9 34.4 79.5 42.6 121.3-154 187.6-334.3 411.3-488.3 594.8 158.1-154 355.6-352.3 514.5-505.5 13.1 28.7 22.9 55.7 27.9 109.8 4.1 50-3.3 108.2-14.7 145.8L1701 1420l-34.4 255.6h-339.2c-9.8 19.7-31.9 43.4-70.4 45.9m-577.6 381c-59-4.1-119.6-4.9-179.4-7.3-19.7-2.5-27-9.9-27-39.3 0-31.1 17.2-37.7 30.3-37.7q53.25-3.75 106.5 0c17.2 1.6 23.8 14.7 23.8 49.2h145.8c0-69.6-25.4-101.6-108.1-101.6q-121.65-3.75-243.3 0c-77.8 2.5-104.9 24.6-109.8 100.8 4.1 54.9 14.7 72.9 84.4 88.5 69.6 6.6 137.6-.8 207.3 4.9 19.7 4.1 23.8 23 23.8 40.2 0 40.2-12.3 45.1-25.4 47.5-32.8 5.7-99.1 2.5-108.1-.8-8.2-5.7-25.4-13.9-23-49.2H318c0 41.8 4.1 90.1 40.2 99.9 38.5 11.5 82.7 15.6 118 15.6h157.3c15.6 0 95-9 111.4-16.4 17.2-10.7 41-33.6 39.3-99.2-3.2-46-6.5-89.4-104.8-95.1m545.6-23.8c-27.9-18-68-15.6-105.7-15.6-39.3 0-83.6 4.9-117.2 21.3v-117.2h-136v347.4h136v-147.5c3.3-20.5 8.2-36.9 58.2-36.9 47.5-.8 60.6 12.3 60.6 36.9v147.5h136v-147.5c.1-48.2-.8-74.5-31.9-88.4m819.3-111.4h137.6v347.4h-137.6zm-313.8 165.5c-2.5-10.9-5.8-21.5-9.9-31.9-23.8-38.5-105.7-38.5-185.1-40.2-59.8 0-149.1 1.6-175.3 27-10.7 11.5-16.4 27.9-19.7 45.1-4.1 20.5-3.3 41.8-3.3 51.6 0 18 1.6 87.6 35.2 105.7 31.1 20.5 125.3 23 161.4 23 38.5 0 145-4.1 160.6-22.1 27.8-9.8 34.4-44.2 40.1-71.3h-136.8c0 27-21.3 43.4-63.9 40.9-38.5 2.5-60.6-6.5-60.6-54.9l261.3.8c.1-23.7.9-49.1-4-73.7m-132.7 23.7h-124.5c0-9.8 1.6-18 4.1-23.8 9-22.1 31.9-22.9 56.5-24.6 37.7 0 54.1 9 60.6 24.6 3.3 6.6 4.1 14.8 3.3 23.8m213.8-189.2h139.3v347.4h-139.3z"/></svg>