<svg xmlns="http://www.w3.org/2000/svg" xml:space="preserve" viewBox="0 0 360 180"><path d="M320.6 68.7v8.6c-4.4-1.7-8.4-2.5-11.9-2.5-2.1 0-3.7.4-4.9 1.1s-1.9 1.7-1.9 2.7c0 1.4 1.4 2.7 4.2 3.8l8.1 3.9c6.5 3.1 9.8 7.2 9.8 12.4 0 4.3-1.7 7.8-5.2 10.3-3.4 2.6-8.1 3.8-13.8 3.8-2.7 0-5-.1-7.2-.4-2.1-.2-4.6-.7-7.3-1.4v-9c5 1.7 9.5 2.5 13.5 2.5 4.8 0 7.3-1.4 7.3-4.2 0-1.4-1-2.5-3-3.4l-9-3.8c-3.3-1.5-5.8-3.3-7.4-5.5s-2.4-4.6-2.4-7.5c0-4 1.7-7.2 5-9.6s7.8-3.6 13.2-3.6c1.8 0 3.8.2 6.1.5 2.5.4 4.7.8 6.8 1.3m-253.7 0v8.6c-4.4-1.7-8.4-2.5-11.9-2.5-2.1 0-3.7.4-4.9 1.1s-1.9 1.7-1.9 2.7c0 1.4 1.4 2.7 4.2 3.8l8.1 3.9c6.5 3.1 9.7 7.2 9.7 12.4 0 4.3-1.7 7.8-5.2 10.3-3.5 2.6-8.1 3.8-13.8 3.8-2.7 0-5.1-.1-7.2-.4-2.1-.2-4.5-.7-7.3-1.4v-9c5 1.7 9.5 2.5 13.5 2.5 4.8 0 7.3-1.4 7.3-4.2 0-1.4-1-2.5-3-3.4l-9-3.8c-3.3-1.5-5.8-3.3-7.4-5.5s-2.4-4.6-2.4-7.5c0-4 1.7-7.2 5-9.6q4.95-3.6 13.2-3.6c1.8 0 3.8.2 6.1.5 2.6.4 4.8.8 6.9 1.3m9.3-.8h13.1v44.2H76.2zm55.4 0v8.2h-19.5v9.8h17v7.3h-17v10.3H132v8.6H99.5V67.9zm61.4 0v44.2h-12.3V82.9L168 112.5h-7.6l-12.2-29.6v29.2h-8.9V67.9h16l11 27.1 11.4-27.1zm42.3 0v8.2h-19.5v9.8h17v7.3h-17v10.3h19.9v8.6h-32.6V67.9zm46 0v44.2h-13.9l-15.6-28.4v28.4h-8.9V67.9h14.4l15.2 27.9V67.9z"/></svg>