<svg xmlns="http://www.w3.org/2000/svg" xml:space="preserve" viewBox="0 0 360 180"><path d="M255.07 67.44v5.6h5.5c2.4 0 4 1.5 4.9 2.5.7.8 16.6 18.8 16.9 19.2.4.5.4.5.4.8v8.9c0 .4 0 .8-.1 1.2-.2.5-.7.9-1.2 1.1-.5.1-1 .1-1.6.1h-5.5v5.6h30.9v-5.6h-5.8c-.5 0-1 0-1.6-.1-.5-.2-1-.6-1.2-1.1-.1-.4-.1-.8-.1-1.2v-8.9c0-.3 0-.6.2-.8l17.1-19.6c1.6-1.7 2.4-2.1 4.5-2.1h5.7v-5.6h-25.5v5.6h3.8c.6 0 1.1.4 1.1 1 0 .3-.1.5-.2.7-.1.1-10.7 12.5-10.8 12.7q-.15.15-.3 0c-.1-.1-10.5-12.6-10.5-12.6-.7-.9-.2-1.7.7-1.7h3.7v-5.6zm-75.8 0v5.6h4.9c3.6 0 3.8 2 3.8 3.7v26.4c0 1.6.1 3.7-2.2 3.7h-6.1v5.6h26v-5.5h-6.3c-2.5 0-2.6-1.2-2.7-3.6v-22.6l35.7 31.8h9.1l-.5-35.9c.1-2.6.2-3.5 2.9-3.5h5.7v-5.6h-26.5v5.6h5.8c2.7 0 3.1 1 3.2 3.5l.3 18.8-31-27.9zm-116.9-2.8c-5.6 0-11.9 1-17.3 3.5-5 2.2-9.1 5.8-9.1 11.8 0 3.1 1.2 6.1 3.3 8.4 1.4 1.3 3.8 3.6 9.9 4.9 2.7.6 8.5 1.5 14.3 2.1s11.4 1.2 13.7 1.8c1.8.5 4.9 1.1 4.9 4.6s-3.2 4.5-3.8 4.7-4.5 2-11.4 2c-4.6-.1-9.2-.9-13.6-2.3-2.6-.9-5.4-2.2-7.9-5.3-1-1.5-1.6-3.2-1.6-5h-6.3v17.7h7v-2.4c0-.6.5-1 1-1 .2 0 .4.1.5.1 3.3 1.4 6.8 2.6 10.3 3.3 3.7.8 6.1 1.3 10.7 1.3 4.8.1 9.7-.6 14.3-2 3.1-.8 6-2.3 8.5-4.2 2.9-2.2 4.6-5.7 4.6-9.3 0-3.4-1.3-6.7-3.7-9.2-1.3-1.3-2.9-2.3-4.5-3.1-1.8-.8-3.7-1.5-5.6-1.9-3.7-.9-11.9-2-15.8-2.4-4.1-.4-11.2-1-14.1-1.9-.9-.3-2.6-1.1-2.6-3.2 0-1.5.8-2.7 2.4-3.7 2.5-1.6 7.6-2.6 13-2.6 5.2-.1 10.3.9 15 2.9q1.95.9 3.6 2.1c1.8 1.5 3 3.6 3.5 5.9h5.7v-15.3h-6.3v1.8c0 .6-.6 1.3-1.7.7-3-1.5-11.1-4.7-20.9-4.8m76.2 0c-10 0-20.6 3.5-26.6 8.9-4.6 4.2-7.2 10.2-7.2 16.4-.1 6.3 2.6 12.3 7.2 16.5 6.5 5.8 16.1 8.9 26.6 8.9s20.3-3.1 26.6-8.9c4.5-4.3 7.1-10.2 7.1-16.5.1-6.2-2.5-12.2-7.1-16.4-6.7-6.1-15.5-8.9-26.6-8.9m0 6.6c5.5 0 10.7 2 14.3 5.4 3.4 3.4 5.2 8.1 5.2 13.2 0 5.4-1.6 9.7-5.2 13.2-3.6 3.6-8.7 5.5-14.3 5.5-5.5 0-10.7-1.9-14.3-5.5-3.4-3.6-5.3-8.3-5.2-13.2 0-5.1 1.8-9.9 5.2-13.2 3.6-3.4 8.9-5.4 14.3-5.4"/></svg>