<svg xmlns="http://www.w3.org/2000/svg" xml:space="preserve" viewBox="0 0 72 72"><path d="m32 41.9-.3-12.3c0-.4-.3-.7-.7-.7s-.7.3-.7.7L30 41.9l.3 5.9c0 .4.3.7.7.7s.7-.3.7-.7zm-2.4 0-.4-12.8c0-.4-.3-.6-.6-.6s-.6.3-.6.6l-.3 12.8.3 6c0 .4.3.6.6.6s.6-.3.6-.6zm-5.2-12.7c0-.3-.2-.5-.5-.5s-.5.2-.5.5L23 41.9l.4 6.1c0 .3.2.5.5.5s.5-.2.5-.5l.5-6.1zm2.4-.4c0-.3-.3-.6-.6-.6s-.6.2-.6.6l-.4 13.1.4 6c0 .3.3.6.6.6s.6-.2.6-.6l.4-6zM14.5 48.3q.3 0 .3-.3l.6-6.1-.6-6.3c0-.2-.2-.3-.3-.3q-.3 0-.3.3l-.5 6.3.5 6.1c0 .2.2.3.3.3m20-6.4-.3-14.6c0-.2-.1-.5-.3-.6-.1-.1-.2-.1-.4-.1-.1 0-.3 0-.4.1-.2.1-.3.4-.3.6v.1l-.3 14.5.3 5.9c0 .2.1.3.2.4q.15.3.6.3c.2 0 .4-.1.5-.2s.2-.3.2-.5v-.6zM17.2 36c0-.2-.2-.4-.4-.4s-.4.2-.4.4l-.4 5.9.5 6.1c0 .2.2.4.4.4s.4-.2.4-.4l.5-6.1zm1.9-4.1c-.2 0-.4.2-.4.4l-.4 9.5.4 6.1c0 .2.2.4.4.4s.4-.2.4-.4l.5-6.1-.5-9.5c.1-.2-.1-.4-.4-.4M21.9 48l.5-6.1-.5-11.7c0-.3-.2-.5-.5-.5s-.5.2-.5.5l-.4 11.7.4 6.1c0 .3.2.5.5.5s.5-.2.5-.5m14.4-22.7c-.1-.1-.2-.1-.4-.1s-.4.1-.5.2c-.2.1-.3.4-.3.6l-.3 15.9.2 2.9.2 2.9c0 .4.4.8.8.8s.8-.4.8-.8l.3-5.8-.4-15.9c-.1-.3-.2-.6-.4-.7m-28.5 20c.1 0 .2-.1.2-.2l.5-3.1-.5-3.2c0-.1-.1-.2-.2-.2s-.2.1-.2.2L7.2 42l.4 3c0 .2.1.3.2.3m2.2 1.9c.1 0 .2-.1.2-.2l.7-5.1-.7-5.2c0-.1-.1-.2-.2-.2s-.2.1-.2.2l-.6 5.2.6 5.1c0 .1.1.2.2.2m2.2.9q.3 0 .3-.3l.6-5.9-.6-6.1q0-.3-.3-.3t-.3.3l-.5 6.1.5 5.9q.15.3.3.3m45.5-13.8c-1 0-1.9.2-2.7.5-.6-6.4-5.9-11.4-12.4-11.4q-2.4 0-4.5.9c-.5.2-.7.4-.7.8v22.5c0 .4.3.8.8.8h19.6c3.9 0 7.1-3.1 7.1-7-.1-3.9-3.3-7.1-7.2-7.1"/></svg>