<svg xmlns="http://www.w3.org/2000/svg" xml:space="preserve" viewBox="0 0 360 180"><path d="M49.3 86.8c-4.7-1.2-6-1.6-6-3.6 0-1.3 1-2.7 4.2-2.7 2.7 0 4.8 1.2 6.7 3l4.3-4.2c-2.8-2.9-6.2-4.7-10.8-4.7-5.8 0-10.6 3.3-10.6 8.6 0 5.8 3.8 7.6 9.3 8.8 5.6 1.3 6.6 2.2 6.6 4.1 0 2.3-1.6 3.2-5.2 3.2-2.8 0-5.5-1-7.6-3.4L36 99.7c2.3 3.3 6.6 5.3 11.4 5.3 8.1 0 11.6-3.8 11.6-9.4.3-6.2-4.9-7.8-9.7-8.8m27.4-12c-8.1 0-12.8 6.2-12.8 15.3s4.8 15.3 12.8 15.3 12.8-6.2 12.8-15.3-4.8-15.3-12.8-15.3m0 24.6c-4.8 0-6.7-4.1-6.7-9.4s2-9.4 6.7-9.4c4.8 0 6.7 4.1 6.7 9.4s-2 9.4-6.7 9.4m36.7-7.5c0 4.7-2.3 7.6-6.1 7.6s-6.1-3-6.1-7.8V75.2h-6v16.7c0 8.6 4.8 13.5 12 13.5 7.5 0 12-5 12-13.5V75.3h-6v16.5h.2zm31.4-4.1c0 1.6.1 5.3.1 6.5-.4-.8-1.4-2.3-2-3.3l-10.6-15.6h-5.7V105h5.8V91.9c0-1.6-.1-5.3-.1-6.5.4.8 1.4 2.3 2 3.3l10.8 16.1h5.3V75.2h-5.8v12.6zm22.8-12.6h-9.3v29.6h8.8c7.6 0 15.1-4.5 15.1-14.7 0-11-6.2-14.9-14.6-14.9m-.5 23.9h-2.9v-18h3.2c6.2 0 8.9 3 8.9 9-.1 5.3-3 9-9.2 9m33.4-18.4c2.7 0 4.3 1.2 5.5 3.2l5.5-2.5c-1.9-3.8-5.2-6.6-10.8-6.6-7.8 0-13.1 6.2-13.1 15.3 0 9.3 5.2 15.3 13 15.3 5.3 0 8.9-2.5 10.9-6.7l-5-2.9c-1.5 2.7-3.2 3.8-5.8 3.8-4.5 0-7-4.1-7-9.4 0-5.7 2.5-9.5 6.8-9.5m22-5.5h-6v29.6h17.8V99h-11.8zm27.5-.4c-8.1 0-12.8 6.2-12.8 15.3s4.8 15.3 12.8 15.3c8.1 0 12.8-6.2 12.8-15.3s-4.7-15.3-12.8-15.3m0 24.6c-4.8 0-6.7-4.1-6.7-9.4s2-9.4 6.7-9.4c4.8 0 6.7 4.1 6.7 9.4s-1.9 9.4-6.7 9.4m36.8-7.5c0 4.7-2.3 7.6-6.1 7.6s-6.1-3-6.1-7.8V75.2h-6v16.7c0 8.6 4.8 13.5 12 13.5 7.5 0 12-5 12-13.5V75.3h-6v16.5h.2zm22.6-16.7h-9.3v29.6h8.8c7.6 0 15.1-4.5 15.1-14.7 0-11-6.2-14.9-14.6-14.9m-.5 23.9h-2.8v-18h3.2c6.2 0 8.8 3 8.8 9-.1 5.3-3 9-9.2 9"/></svg>