<svg xmlns="http://www.w3.org/2000/svg" xml:space="preserve" viewBox="0 0 72 72"><path d="M38.9 27.9c.5 0 1-.3 1.4-.6l.1-.1c.4-.3.6-1 .6-1.9q0-1.2-.6-1.8c-.4-.3-.9-.5-1.4-.5H28.7v4.8h10.1zm1 5.9H28.7v5.3h11.1c.6 0 1.1-.3 1.6-.7.4-.4.7-1.1.7-1.9 0-.7-.2-1.4-.6-1.9s-.9-.8-1.6-.8"/><path d="M60.5 9.6c0-1.3-.9-2.4-2.2-2.4l.1-.1H14c-1.4.1-2.4 1.2-2.4 2.5v44.2c.1 1.3 1.2 2.1 2.5 2.1h6.5v8.8l8.1-8.8h29.7c1.3 0 2.1-.9 2.1-2.2zM50.8 43l-.1.2c-.6.9-1.4 1.7-2.3 2.3l-.2.1c-1 .6-2.1 1.2-3.4 1.4-1.4.3-2.8.6-4.3.6h-20V16.2h22.8c1 0 1.9.3 2.8.7.8.5 1.6 1.1 2.3 1.8 1.3 1.5 1.9 3.5 1.9 5.4 0 1.5-.4 2.9-1.1 4.2-.8 1.4-1.9 2.4-3.4 3 1.8.5 3.2 1.4 4.3 2.7 1 1.3 1.5 3.1 1.5 5.3 0 1.5-.3 2.7-.8 3.7"/></svg>