<svg xmlns="http://www.w3.org/2000/svg" xml:space="preserve" viewBox="0 0 360 180"><path d="M83 99.7c0 7.1-4.1 11.4-10.6 12.7-1.8.4-4.8.4-6.8.4l-15.7-.1v6L36 107.3l13.9-11.4v6l17.6.1c1.7 0 2.4-1 2.4-1.9 0-1.8-1.7-2.4-6.7-4.8-8-3.8-14.3-6.6-14.3-15.4 0-6.8 4.9-11.5 12.1-12.5 1.4-.2 4.2-.2 5.9-.2 3.6 0 13.7.2 13.7.2v10.9L64 78.1c-1.4 0-2.2 1-2.2 1.9 0 1.4 1.2 2 5.9 4.2C77.6 88.8 83 91.3 83 99.7m26.1-.8c0 2-1.8 3.7-5 3.7-3.5 0-5-1.7-5-3.7V67.3H85.4V100c0 7.2 6 14 18.5 14 11.9 0 18.5-6.7 18.5-14V67.3h-13.3zm54.9.2c0 9-6.1 13.9-15 13.9h-22.4V67.3h21.6c9.7 0 14.6 5.4 14.6 12.5 0 3.6-1.7 6.7-5 9 4 2.2 6.2 5.5 6.2 10.3m-24.1-13.7h6.2c2.4 0 3.5-1.7 3.5-4.1 0-2.5-1.1-4.1-3.5-4.1h-6.2zm10.6 13.1c0-2.8-1.3-4.3-3.7-4.3H140v8.6h6.8c2.5 0 3.7-1.6 3.7-4.3m58.4-31.2h13.3v32.2c0 7.4-5.3 14.2-16.4 14.2-4.8 0-8.5-1.4-11.2-3.6-2.6 2.2-6.2 3.6-10.7 3.6-11.9 0-16.8-6.7-16.8-14.2V67.3h13.3v31.9c0 1.3.7 3 3.7 3s3.8-1.6 3.8-3V67.3h13.3v31.9c0 1.3.7 3 3.7 3s3.8-1.6 3.8-3V67.3zm70.7 18v-18h-13.2v19.2c0 6.4 4.3 11.2 11.6 13.2v13.2h13.6V99.7c7.4-2 11.5-6.8 11.5-13.2v-7.1c0-.7.4-1.1 1.1-1.1h5.9v5.8L324 72.7l-13.9-11.4v5.8h-9.2c-7.8 0-11 4.6-11 11v7.2c0 1.7-1.2 3.7-5.2 3.7-3.9 0-5.1-2-5.1-3.7M263 80.4V113h-13.3V99.7h-10.1v13.2h-13.3V80.4c0-8.2 6.7-14.4 18.4-14.4 11.5 0 18.3 6.1 18.3 14.4m-13.3 8.9v-8.2c0-2.2-1.6-3.7-5-3.7-3.6 0-5 1.6-5 3.7v8.2z"/></svg>