<svg xmlns="http://www.w3.org/2000/svg" xml:space="preserve" viewBox="0 0 72 72"><path d="M56.9 14.8c-5.3-7.6-15.9-9.9-23.5-5L20 18.4c-3.7 2.3-6.2 6-7 10.3-.6 3.5-.1 7.2 1.6 10.4-1.1 1.7-1.9 3.7-2.3 5.8-.8 4.3.2 8.8 2.8 12.4 5.3 7.7 15.9 9.9 23.6 5.1l13.4-8.5c3.7-2.3 6.2-6 7-10.3.6-3.5.1-7.2-1.6-10.4 1.1-1.7 1.9-3.7 2.3-5.8.7-4.5-.3-9-2.9-12.6m-3.8 11c-.1.4-.2.8-.3 1.3l-.3.8-.7-.5c-1.6-1.2-3.4-2.1-5.2-2.6l-.5-.2v-.5c.1-.7-.1-1.4-.5-2-.8-1.1-2.1-1.6-3.4-1.3-.3.1-.6.2-.8.4L28 29.8c-.7.4-1.1 1.1-1.3 1.9-.1.8 0 1.6.5 2.2.8 1.1 2.1 1.6 3.4 1.3.3-.1.6-.2.8-.4l5.1-3.3c.8-.5 1.8-.9 2.7-1.2 4.3-1.1 8.9.6 11.4 4.2 1.5 2.2 2.1 4.8 1.7 7.5-.5 2.6-2 4.8-4.2 6.2l-13.4 8.6c-.8.5-1.8.9-2.7 1.2-4.3 1.1-8.9-.6-11.4-4.2-1.5-2.2-2.1-4.8-1.7-7.5.1-.4.2-.8.3-1.3l.3-.8.7.5c1.6 1.2 3.4 2.1 5.2 2.6l.5.2v.5c-.1.7.1 1.4.5 2 .8 1.1 2.1 1.6 3.4 1.3.3-.1.6-.2.8-.4L44 42.3c.7-.4 1.1-1.1 1.3-1.9.1-.8 0-1.6-.5-2.2-.8-1.1-2.1-1.6-3.4-1.3-.3.1-.6.2-.8.4l-5.1 3.3c-.8.5-1.8.9-2.7 1.2-4.3 1.1-8.9-.6-11.4-4.2-1.5-2.2-2.1-4.8-1.7-7.5.5-2.6 2-4.8 4.2-6.2l13.4-8.6c.8-.5 1.8-.9 2.7-1.2 4.3-1.1 8.9.6 11.4 4.2 1.5 2.2 2.1 4.9 1.7 7.5"/></svg>