<svg xmlns="http://www.w3.org/2000/svg" xml:space="preserve" viewBox="0 0 72 72"><path d="M58.2 20.7c-2.9-.6-5.4-2.1-7.3-4.2-2-2.2-3.3-5-3.6-8V7.2h-9.9v39.4c0 4.6-3.7 8.3-8.3 8.3-2.7 0-5.1-1.3-6.6-3.3-2.7-1.4-4.6-4.2-4.6-7.4 0-2.6 1.2-4.9 3-6.4-1.9 1.5-3 3.8-3 6.4 0 3.3 1.9 6.1 4.6 7.4-1.1-1.4-1.7-3.2-1.7-5 0-4.6 3.7-8.3 8.3-8.3.9 0 1.7.1 2.5.4V28.5c-1-.1-1.9-.2-2.9-.2v7.8-7.8c-9.9.2-17.8 8.3-17.8 18.2 0 5 2 9.5 5.2 12.7 3.3 3.4 7.9 5.5 13 5.5 10.1 0 18.2-8.2 18.2-18.2v-20c3.9 2.8 8.6 4.4 13.7 4.4V21c-.9 0-1.8-.1-2.8-.3m0 7.8c-5.1 0-9.9-1.6-13.7-4.4 3.8 2.7 8.6 4.4 13.7 4.4"/></svg>