<svg xmlns="http://www.w3.org/2000/svg" xml:space="preserve" viewBox="0 0 72 72"><path d="m62.579 27.855-.2-13.5s-.2-2.1-3-2.1-2.9 2.5-2.9 2.5l-.2 8.5s-3.8-13.1-4.2-14.2c-.4-.7-1.4-2.1-3.7-1.8-2.4.7-2 3.6-2 3.6l3.6 13.1s-8.4-13.1-9-14.2-2.5-1.4-4.2-.4c-1.7 1.4-.8 3.9-.8 3.9l8.6 13.9s-9-7.8-10.6-8.9c-1.7-1.1-2.6-.4-4 1.1s.1 3.9.1 3.9 4.1 3.6 5 4.3c-1.7 0-2.3 2.5-2.3 2.5l-2.9 13.9-1.4-16.7s-.7-2.5-3.1-2.5c-2.5 0-2.8 3.2-2.8 3.2l1.1 16.7-5-12.8s-1.9-2.1-3.9-.7c-2 1.1-1.5 3.6-1.5 3.6l5.1 13.9s-4.4-6-5.4-7.1-2.7-1.1-4.1.4c-1.4 1.8-.5 3.6-.5 3.6l7.5 11s-.2 8.5 8.5 8.5 10.8-6.4 10.8-6.4 8.1-3.9 10.5-5.3 1-3.9 1-3.9c-1.6-3.2-4.4-1.4-4.4-1.4l-6.9 3.6-.7-1.8 1.1-4.6s1 .4 1.6.4c.7.4 11.3-2.8 11.3-2.8s4.9 3.6 11.6-1.8c6.8-5.4 2.3-13.2 2.3-13.2m-25.4 11 1.5-8.2 5.4 4.6.2 1.4z"/></svg>