<svg xmlns="http://www.w3.org/2000/svg" xml:space="preserve" viewBox="0 0 828.2 828.2"><path d="M414.1 155.3c-220.9 0-400 115.87-400 258.73 0 142.97 179.1 258.87 400 258.87s400-115.87 400-258.87S635 155.3 414.1 155.3m0 406.53c-32.87 0-59.67-64.73-61.33-146.17 40.81 3.57 81.86 3.57 122.67 0-1.67 81.41-28.47 146.17-61.34 146.17m-57.3-210.8c8.93-57.57 31.23-98.43 57.3-98.43s48.33 40.87 57.3 98.43a647 647 0 0 1-114.6 0m57.3-158.33c-42.9 0-79.5 64.27-93 153.97C239.77 334 183 305.07 183 271.47c0-45.33 103.47-82.03 231.1-82.03 127.67 0 231.1 36.73 231.1 82.03 0 33.6-56.77 62.53-138.1 75.2-13.5-89.67-50.1-153.93-93-153.93zM71.43 404.37c0-43.83 16.9-85 46.27-120.33-.3 2.47-.5 5-.5 7.53 0 55.23 82.83 102.33 198.43 119.67-.1 4-.1 8.07-.1 12.13 0 103 28.87 190.17 68.77 219.77C208.97 632.57 71.47 529.7 71.47 404.37zM443.9 643.13c39.9-29.6 68.77-116.8 68.77-219.77 0-4.1-.07-8.1-.1-12.1C628.1 393.93 711 346.87 711 291.57c0-2.53-.2-5.07-.5-7.53 29.37 35.43 46.23 76.5 46.23 120.33 0 125.33-137.5 228.2-312.83 238.76"/></svg>