<svg xmlns="http://www.w3.org/2000/svg" xml:space="preserve" viewBox="0 0 360 180"><path d="M315.7 103.4c-4.6 0-8.3 3.7-8.3 8.2s3.7 8.2 8.3 8.2 8.3-3.7 8.3-8.2c0-4.6-3.7-8.2-8.3-8.2M270 108V60.1h-5s-8.4 3-14.4 3.7v9h3.8c1.2 0 1.7.5 1.8 1.7V108c0 1.2-.7 1.8-1.8 1.9-1 .1-3.1.2-3.1.2v9H275v-9s-2.2-.1-3.1-.2c-1.2-.1-1.9-.7-1.9-1.9m48-23.7c-.5-10.1-14.1-10.5-21.3-3.7l-1.3-3.9h-16.5v9.2h3.5c1.2 0 1.7.5 1.7 1.7V108c0 1.2-.7 1.8-1.8 1.9-1 .1-2.9.2-2.9.2v9h23.2v-9s-1.9-.1-2.9-.2c-1.1-.1-1.8-.7-1.8-1.9V94.1c0-2.6.6-7 5.2-8.1.6 4.3 4.8 5.6 6.8 5.6 5.2.1 8.1-3.8 8.1-7.3m-87.6-8.2c-3.5.2-7.2 1.5-9.9 3.8V60.2h-5s-8.1 2.9-14.5 3.7l-.2 9h4c1.2 0 1.8.5 1.8 1.7v44.6H218l1.6-3.7c.3.2 5.6 5.1 13.9 4.1 10.5-1.2 16-9.6 16-22.2.1-6.6-2-22.1-19.1-21.3m-2.1 33.2c-1.9.1-5.5-.2-7.8-4.2V92.4c0-3 2.7-5.6 7-5.7 4.3-.2 8.1 2.8 8.1 11-.1 11.1-5 11.4-7.3 11.6m-30.7-1.2V95.2c0-4.6-.1-9.4-3.1-13.2-2.8-3.6-7.4-6.2-14.4-5.8-4.7.2-9.6 2.4-12.4 6.1l-.4.5-.3-.3c-2.8-4.1-7.3-6.7-14.4-6.3-4.7.2-9.6 2.4-12.4 6.1l-.4-5.5h-17.2V86l4 .1c1.2 0 1.7.5 1.8 1.7v20.4c0 1.2-.7 1.8-1.8 1.9-1 .1-2.9.2-2.9.2v9H147v-9.1s-1.8-.1-2.9-.2-1.8-.7-1.8-1.9V94.2c0-2.3 1.9-7 8-7 4.9 0 5.9 3 5.9 6.5v14.5c0 1.2-.7 1.8-1.8 1.9-1 .1-2.9.2-2.9.2v9h23.2v-9s-1.8-.1-2.9-.2-1.8-.7-1.8-1.9V94.3c0-2.3 1.7-7 7.8-7 4.9 0 6.1 3 6.1 6.5v14.4c0 1.2-.7 1.8-1.8 1.9-1 .1-2.9.2-2.9.2v9h23.3v-9s-1.8-.1-2.9-.2c-1.3-.2-2-.9-2-2m-82.6 0V76.7H95.7v9.2h3.7c1.2 0 1.7.5 1.8 1.7V102c0 1.4-1 6.7-8.1 6.8-4.8.1-5.8-2.7-5.8-6.5V76.7H73.1V103c0 6.7 3 17.2 17.3 16.8 4.7-.1 10-2.5 12.8-5.9l.1 5.3h15.9v-9s-1.3-.1-2.2-.2c-1.3-.1-2-.7-2-1.9m-52.7 1.1c-4.7.1-5.6-3.3-5.7-5.7v-17h11v-9.8h-11V62H48c-.1 0-.4.1-.4.4C47.1 67 45 74.9 36 78v8.5h6.8v17.9c0 6.5 4 15.6 16.9 15.4 4.3-.1 9.2-1.9 10.2-3.4l-2.8-8.2c-1.1.5-3.2 1-4.8 1"/></svg>