<svg xmlns="http://www.w3.org/2000/svg" xml:space="preserve" viewBox="0 0 72 72"><path d="M63.2 13.5c-2.3 1.4-4.8 2.3-7.5 2.9-2.2-2.3-5.2-3.7-8.6-3.7-6.5 0-11.8 5.3-11.8 11.8q0 1.35.3 2.7c-9.8-.5-18.5-5.2-24.4-12.4-1 1.8-1.6 3.8-1.6 5.9 0 4.1 2.1 7.7 5.3 9.8-1.9-.1-3.8-.6-5.4-1.5v.1c0 5.7 4.1 10.5 9.5 11.6-1 .3-2 .4-3.1.4-.8 0-1.5-.1-2.2-.2 1.5 4.7 5.9 8.1 11 8.2-4 3.2-9.1 5.1-14.7 5.1-1 0-1.9-.1-2.8-.2 5.2 3.4 11.4 5.3 18.1 5.3 21.7 0 33.6-18 33.6-33.6v-1.5c2.3-1.7 4.3-3.7 5.9-6.1-2.1.9-4.4 1.6-6.8 1.9 2.4-1.5 4.3-3.8 5.2-6.5"/></svg>