<svg xmlns="http://www.w3.org/2000/svg" xml:space="preserve" viewBox="0 0 72 72"><path d="M54.1 36c6.3-2.8 10.4-6.9 10.7-11.6 0 0-1.7-1.3-7-3.3-4.8-1.7-8.4-2.1-8.4-2.1v10.3c0 1.5-.6 3.1-1.8 4.5-3.6-.9-7.5-1.3-11.7-1.3-4.1 0-8.1.5-11.7 1.3-1.2-1.4-1.8-3-1.8-4.5V19s-3.6.4-8.3 2.1c-5.4 2-7 3.3-7 3.3.2 4.6 4.3 8.8 10.7 11.6-6.3 2.8-10.4 6.9-10.7 11.6 0 0 1.7 1.3 7 3.3 4.7 1.7 8.3 2.1 8.3 2.1V42.7c0-1.5.6-3.1 1.8-4.5 3.6.9 7.5 1.3 11.7 1.3 4.1 0 8.1-.5 11.7-1.3 1.2 1.4 1.8 3 1.8 4.5V53s3.6-.4 8.3-2.1c5.4-2 7-3.3 7-3.3-.1-4.7-4.2-8.8-10.6-11.6M36 38.3h-.1c-3.7 0-6.8-.9-9-2.3 2.2-1.4 5.3-2.3 9-2.3h.2c3.7 0 6.8.9 9 2.3-2.2 1.4-5.3 2.3-9 2.3"/></svg>