<svg xmlns="http://www.w3.org/2000/svg" xml:space="preserve" viewBox="0 0 360 180"><path d="M73.1 82.3c-.5-1.5-1.9-4.9-2.2-7.4-.8-5.5 2.1-9.2 4.7-10 3-.8 4.1.7 5.3 4.1 1.5 5.3 1.7 12.2 1.2 22.1-.6 13.5-7.4 29.9-24.3 29.6-14.5-.3-21-9.7-21.7-24.1-.3-6.8.2-13.5 3-23.1 1.5-5.1 2.8-7 7.4-7.9 3.6-.7 3.3 3.1 2.5 7.6-1.8 9.9-2.7 14.7-2 25.9.6 11.9 6.1 16.5 12.1 16.5 8.9.2 12.9-7.3 14.5-18 1.3-8.5.4-12.6-.5-15.3m190.3 11.8c3.5 0 4.5 4.1 3.6 6.6-.8 2.5-3.8 5.3-8.4 6.1-1-2.5-1.5-12.7 4.8-12.7m-64.6 5.6c0-2.8-1.5-5.1-3.3-5.1-1.5 0-5 1.6-5 6.9 0 4.2 1.5 6.1 2.1 7 4.8-1.6 6.2-5.6 6.2-8.8m-51.4-33.8c-.2-2.7-2.3-4.4-5.1-4.4-3.1 0-6.1 3.3-5.8 7.4.2 2.7 1.8 5 5 5 3.6 0 6.2-4.1 5.9-8m26.9 9.8c-.3-4.6-1.4-6.7-3.9-6.5-3.3.2-4.8 10.6-4.2 21.4.4 7.1 1.5 8.2 2.5 8.1 1.8-.1 6.2-12.8 5.6-23M283.9 93c-2 8.5-8.2 21-17.5 21-2.1 0-5.9-.8-5.9-3 0-2.3 14.5-2.6 14.5-13.7 0-4.1-3.8-9.9-9.4-9.9-7.4 0-14.7 8.1-14.7 19.3 0 10.1 6.3 13.4 12.5 13.4 10.9 0 17.5-8.9 21-16.4 1.7 5 2.6 16.4 6.8 16.4 1.6 0 2.8-.8 4.8-5.3 5-11.1 9.7-23.8 16.4-23.8 2.5 0 1 4.5 6.9 4.5 2.8 0 4.8-2.3 4.8-5 0-3.8-3.5-6.8-8.8-6.8-15.5 0-18.8 23.3-21.3 23.3-4.1 0-2.8-18.7-5.8-18.7-2.7.1-4 3.3-4.3 4.7m-132.2 19.9c2.5 0 6.7-.8 10.1-6.2-1.9-4.3-3.3-12.9-3.5-16-1-16 5.2-31.1 11.9-31.5 5-.3 8.9 4.4 9.4 12 1.2 20-5.4 28.3-8.8 35.5.6 2.8 5.3 7.5 9.7 7.5 1.7 0 3.6-.8 4.2-1.5-.3-1.2-.7-2.6-.7-4.8 0-11.6 7.4-21.3 13.9-21.3 5.1 0 8.1 6.8 8.1 11.2 0 5.3-4.5 9.6-11.1 13.7 1.2 1.2 3.3 2 5.1 2 9.4 0 14.3-11.4 18-21.8.7-2 1.8-4.8 4.1-4.8 4 0 5.6 26.1 12.2 26.1 2.8 0 5.1-5.8 5.1-10.2 0-3.3-1.2-3.6-1.2-8.4 0-5.3 2.8-9.7 6.6-9.7 2.3 0 3.2 2.3 3.2 5.1 0 10.6-7.6 30.3-18.8 30.3-8.4 0-7.8-14.5-10.8-14.5-3.3 0-7.9 14.7-24.3 14.7-2.7 0-5.5-1.3-7.8-4-4 2.7-7.3 3.8-11.1 3.8-6.1 0-8.8-6.3-11.2-6.3-3 0-6.3 6.4-16.2 6.4-7.9 0-9.3-10.6-12.1-10.6-2.5 0-6.3 10.6-10.4 10.6-7 0-8.4-18.3-14.5-18.3-4.8 0-19.9 18.6-24 18.2-1.7-.2-2.4-1.4-2.2-3.1.2-2.3 2.2-8.4 3-11.3 1.3-5 2.6-10.5 3.2-12.3.7-1.8 2.5-3 4-2.9.8.1 1 1.4 1.2 2.6.8 4.1 2 8.2 3.3 8.2 2.3 0 10-14.7 14.5-14.7 5.5 0 6.1 23.1 13.5 23.1 2.5 0 4.3-3 5.9-6.6.2-6.1 1.8-14.9 6.8-14.9 3.5 0 5.1 7.8 2.7 14.5.2 8.2 5.5 10.2 9 10.2"/></svg>