<svg xmlns="http://www.w3.org/2000/svg" xml:space="preserve" viewBox="0 0 107.57 119"><path d="M13.85 104.62c-.18-.56-.69-1.82-.83-2.75-.31-2.06.77-3.42 1.76-3.73 1.11-.31 1.54.25 1.97 1.54.56 1.97.62 4.56.43 8.27-.24 5.06-2.77 11.17-9.07 11.05-5.43-.12-7.84-3.64-8.09-9.01-.12-2.53.06-5.06 1.11-8.64.56-1.92 1.05-2.6 2.78-2.96 1.36-.25 1.23 1.17.93 2.84-.68 3.7-.99 5.49-.74 9.69.24 4.44 2.28 6.17 4.51 6.17 3.33.06 4.81-2.71 5.43-6.73.49-3.21.13-4.75-.19-5.74m71.07 4.39c1.3 0 1.67 1.54 1.36 2.46s-1.42 1.98-3.15 2.29c-.37-.93-.56-4.75 1.79-4.75m-24.13 2.09c0-1.04-.56-1.91-1.23-1.91-.56 0-1.85.61-1.85 2.59 0 1.55.55 2.28.8 2.6 1.78-.56 2.28-2.05 2.28-3.28m-19.2-12.59c-.09-.99-.86-1.66-1.91-1.66-1.17 0-2.27 1.23-2.16 2.77.08 1.02.67 1.86 1.85 1.86 1.36 0 2.35-1.55 2.22-2.97m10.04 3.63c-.11-1.73-.53-2.5-1.45-2.44-1.23.07-1.8 3.94-1.55 8.01.16 2.65.56 3.06.92 3.04.69-.06 2.32-4.79 2.08-8.61m40.94 6.49c-.76 3.17-3.08 7.84-6.54 7.84-.8 0-2.22-.31-2.22-1.11 0-.86 5.43-.98 5.43-5.12 0-1.54-1.42-3.7-3.52-3.7-2.78 0-5.49 3.03-5.49 7.22 0 3.76 2.34 5 4.68 5 4.07 0 6.54-3.33 7.84-6.11.62 1.85.98 6.11 2.53 6.11.61 0 1.05-.31 1.79-1.97 1.85-4.14 3.64-8.89 6.11-8.89.92 0 .37 1.67 2.59 1.67 1.05 0 1.79-.86 1.79-1.86 0-1.42-1.29-2.53-3.27-2.53-5.8 0-7.03 8.7-7.96 8.7-1.54 0-1.05-6.97-2.16-6.97-.98-.01-1.47 1.17-1.6 1.72m-49.37 7.41c.92 0 2.52-.3 3.77-2.31-.72-1.59-1.23-4.8-1.3-5.97-.37-5.98 1.94-11.61 4.46-11.77 1.85-.11 3.33 1.64 3.5 4.48.46 7.46-2.03 10.57-3.27 13.25.21 1.04 1.98 2.81 3.64 2.81.62 0 1.36-.31 1.55-.56-.12-.43-.25-.98-.25-1.79 0-4.32 2.78-7.96 5.19-7.96 1.91 0 3.02 2.53 3.02 4.2 0 1.97-1.67 3.58-4.13 5.12.43.43 1.23.74 1.91.74 3.52 0 5.36-4.26 6.73-8.15.25-.74.68-1.79 1.54-1.79 1.48 0 2.1 9.75 4.56 9.75 1.05 0 1.92-2.16 1.92-3.82 0-1.24-.43-1.36-.43-3.15 0-1.97 1.05-3.64 2.47-3.64.86 0 1.18.86 1.18 1.91 0 3.95-2.84 11.3-7.03 11.3-3.15 0-2.91-5.43-4.02-5.43-1.24 0-2.97 5.49-9.07 5.49-.99 0-2.04-.49-2.9-1.48-1.48.99-2.72 1.42-4.14 1.42-2.28 0-3.27-2.35-4.19-2.35-1.11 0-2.34 2.41-6.05 2.41-2.96 0-3.46-3.95-4.5-3.95-.93 0-2.35 3.95-3.89 3.95-2.6 0-3.15-6.85-5.43-6.85-1.79 0-7.44 6.96-8.98 6.8-.62-.06-.88-.53-.81-1.14.09-.85.82-3.14 1.12-4.22.5-1.88.96-3.93 1.21-4.59s.94-1.13 1.49-1.08c.28.03.36.54.45.97.31 1.53.75 3.08 1.24 3.08.87 0 3.73-5.49 5.4-5.49 2.04 0 2.28 8.64 5.06 8.64.93 0 1.61-1.11 2.22-2.47.06-2.29.68-5.55 2.53-5.55 1.3 0 1.92 2.9.99 5.43-.03 3.02 1.94 3.76 3.24 3.76m42.99-96.79c-.46 0-1.11 0-1.47-.72-.3-.59-.2-1.54-.75-1.97.56.16 1.15.16 1.6.16 1.48 0 2.89-1.02 3.97-1.02.71 0 .94.46.94.92 0 1.46-2.91 2.63-4.29 2.63m.72 3.7c3.4 0 6.52-2.72 6.52-5.11 0-1.11-.53-2.03-1.87-2.19.23.3.33.52.33 1.05 0 1.8-2.75 3.8-5.73 3.8-1.08 0-1.41.75-1.41 1.15 0 .91.88 1.3 2.16 1.3m-.26 1.38c.43 3.11 5.14 7.3 6.42 7.2.85-.07 1.18-4.06 1.18-7.2 0-1.8.1-3.21-.85-3.54-1.52 3.05-5.47 3.67-6.75 3.54m-73.72 20.6c1.11 0 .88-6.81 2.68-6.81.43 0 .56.43.56.95 0 1.54-.75 3.8-.75 5.04 0 .62.16.82.46.82.79 0 2.16-7.5 3.5-7.5.43 0 .62.43.62.85 0 1.57-2 6.09-2 7.37 0 .2.06.36.23.36.82 0 2.46-3.54 2.98-5.3.3-.92.69-1.41 1.05-1.41.33 0 .62.36.62 1.12 0 1.77-1.64 5.93-3.08 8.71-1.11 2.16-2.85 5.27-2.85 7.01 0 .88.16 1.8 1.44 2.92-2.1-.13-2.95-.33-3.73-1.96-3.51 6.97 6.45 6.29 3.05 12.47-.62-1.11-5.53-2.26-5.53-8.74 0-5.6 4.91-8.88 4.91-11.2 0-.46-.16-.85-.59-1.21-1.08-.92-1.11-1.67-1.97-1.67-.62 0-1.38 1.44-.59 2.72.26.43.49.69.49 1.08 0 .92-1.44 3.37-2.46 3.37s-1.8-2.52-1.8-6.58c0-3.6.82-7.24 1.83-7.24.29 0 .39.2.39.46 0 .43-.13 1.28-.13 2.72.02 1.52.38 1.65.67 1.65"/><path d="M21.28 54.52c1.38 0 2.52-1.02 2.52-3.27v-3.34c0-1.28.1-2.72.95-3.73-.1.43-.1.88-.1 1.31 0 2.82 1.57 4.75 1.57 7.47 0 1.01-.3 1.57-1.08 1.57-.75 0-.69-.69-.85-.69-.13 0-.33.42-.33.88 0 .69.49 1.77 1.87 1.77 1.18 0 2.13-1.08 2.13-2.29 0-2.94-2.29-6.22-2.29-9.36 0-1.38.36-2.29.66-3.01 0 6.52 5.53 11.27 5.53 13.98 0 .62-.46 1.12-1.15 1.12-.75 0-1.11-.59-1.11-1.05 0-.23-.03-.29-.13-.29-.19 0-.78.65-.78 1.51 0 1.08.88 2.39 2.52 2.39 1.86 0 2.88-1.57 2.88-2.98 0-3.44-6.71-8.65-6.71-14.21 0-.95.16-2.49.85-3.67-4.32 2.78-5.67 6.48-5.67 9.73 0 2.82-.1 4.22-1.54 4.22-.75 0-.95-.69-1.21-.69-.2 0-.3.59-.3.75 0 1.2.89 1.88 1.77 1.88M70.9 17.65c.42-.28 2.26.16 4.65-1.02.29-.16.59-.23.85-.23 1.15 0 .85 1.31 1.9 1.31.82 0 1.87-.69 2.49-.69.98 0 2.39 3.08 2.39 4.52 0 1.67-2.52 2.69-5.5 2.69-4.35 0-6.98-3.8-6.98-6.26 0-.19.1-.25.2-.32m7.14 4.16c1.44 0 2.52-.66 2.52-1.05 0-.13-.2-.23-.62-.23-.43 0-1.28-.03-2.88-.3-1.38-.23-2.43-.75-2.82-.75-.13 0-.2.07-.2.16 0 .86 1.57 2.17 4 2.17M21.97 66.87c-1.08.26-2.82 1.96-2.82 4.65 0 3.21 3.44 8.15 9.1 8.15 4.78 0 5.96-3.31 5.96-5.54 0-4.94-3.04-8.42-7.01-8.42-2.16 0-4.09 1.57-4.09 3.9 0 2.16 1.64 5.4 5.53 5.4 1.83 0 2.91-1.31 2.91-2.81 0-1.47-1.34-3.5-3.31-3.5-.59 0-1.01.39-1.01 1.01 0 .78 1.08 1.57 2.42 1.57.33 0 .59-.07.72-.13.06.1.1.26.1.39 0 .75-.72 1.21-1.83 1.21-1.67 0-3.27-1.24-3.27-3.21 0-1.18 1.02-2.03 2.49-2.03 2.91 0 4.65 2.59 4.65 5.18 0 2.32-1.27 3.67-3.9 3.67-5.23.01-7.78-4.71-6.64-9.49m37.38 19.19c1.57 0 1.49-.13 1.98-.13s.52.29.52.49c0 .72-1.61 1.61-4.45 1.61-1.67 0-2.69-.89-2.98-1.87-1.64 1.05-4.12 2-6.58 2-6.71 0-8.42-2.92-10.51-3.86-1.6-.72-4.06.69-7.5-3.14.46.1 1.08.13 1.57.13 3.01 0 4.62-1.47 4.62-3.83 0-.3-.03-.62-.07-.91.92.36 3.01 1.93 3.51 4.71.06.33 1.41.62 2.26.62 1.18 0 2.69-.49 2.92-2.42 3.93-.33 6.58-2.65 7.14-5.6 1.41.46 3.01 1.74 3.4 2.39.56-.2 1.21-.29 1.96-.29 1.05 0 2.23.2 3.63.62.07-.43.13-.95.79-.95.98 0 .72 1.08 1.05 1.7.16.33.98.52.98 1.18 0 .62-.53.85-.85.85-.13 0-.29-.03-.39-.07-.65.23-.69 4.94-3.44 4.94-2.03 0-3.9-1.67-4.72-3.76-.23-.62-.72-1.02-1.18-1.02-.52 0-.82.1-1.44.79-1.77 1.93-4.72 3.6-8.35 3.6-1.11 0-2-.1-2.23-.1-.13 0-.13.03-.13.07 0 .23 1.11 1.11 3.54 1.11 5.76 0 7.17-3.24 8.09-3.24.13 0 .52 0 .75.53 1.35 3.13 4.28 3.85 6.11 3.85m-2.54-6.55c0 .72.59 1.31 1.31 1.31s1.31-.59 1.31-1.31-.59-1.31-1.31-1.31-1.31.59-1.31 1.31m25.94-16.34c-.46 0-.95.36-.95 1.25 0 .98.75 1.6 1.18 1.8.23.13.59.26.95.26.95 0 1.71-.26 1.71-1.05-.01-1.01-1.48-2.26-2.89-2.26m-3.53 2.03c-.69 0-4.49 5.08-6.94 5.08-.59 0-1.08-1.11-1.08-1.96 0-.46.29-.79 1.35-1.02 5.63-1.28 4.39-5.5 9.19-5.5 2.65 0 5.6 1.8 5.6 5.86 0 4.32-6.15 9.69-7.07 9.69-.75 0-1.57-1.08-1.57-1.8 0-.23.1-.52.75-.79 3.14-1.25 4.94-4.13 4.94-5.6 0-.33-.16-.65-.59-.65-.56 0-2.94 5.43-5.6 5.43-1.84 0-3.71-1.67-3.71-2.45 0-1.31 5.31-3.73 5.31-5.57.01-.69-.32-.72-.58-.72M14.41 22.27s-.95.72-2.13.72c-1.41 0-2.52-1.05-2.52-2.52 0-1.02.52-2.06 1.73-2.59-.03.2-.03.36-.03.56 0 1.86 1.05 3.27 2.95 3.83m7 6.29c-.72.85-1.47 2.29-1.47 3.76 0 1.77 1.08 3.24 2.75 3.24 1.6 0 2.36-1.38 2.36-2.78 0-2.19-2-3.73-3.64-4.22m-10.87 1.3c-.06.1-.1.23-.1.36 0 .3.33.62.62.62.26 0 .43-.07.56-.07.78 0 1.67.56 2.95.56.75 0 1.64-.23 2.75-.78 2.36-1.18 3.28-4.09 3.28-4.59 0-.62-.5-.54-.92-1.11s-.26-1.08-.52-1.34c-.15-.15-.62-.16-1.21-.23-.2-.02-.46-.03-.72-.03-1.08 0-2.36.13-3.8 1.05-2.85 1.81-2.43 4.81-2.89 5.56m7.7-4.06c.23.31.85.69.85.92 0 .46-.26 1.05-.79 1.05-1.15 0-2.06-1.74-2.06-2.72 0-.62.36-.69.85-.69.23 0 .33.03.49.13.3.17.3.82.66 1.31m-3.02 4c-1.08 0-2.26-1.34-2.26-2.56 0-.65.49-1.47.85-1.47.13 0 .2.1.23.33.2 1.6 1.24 2.52 2.23 2.98.1.07.16.1.16.16.01.23-.62.56-1.21.56m2.79-8.25c.16-.52.29-1.18.29-1.9 0-1.57-.72-3.96-2.95-3.96-1.28 0-2.19 1.01-2.19 2.23 0 2.58 2.59 3.63 4.85 3.63m-8.48 13.1c0 2.49.75 3.67 2.1 3.67 1.05 0 2.46-.75 4.12-2.19-1.28.29-2.26.49-3.14.49-1.18-.01-2.1-.47-3.08-1.97m1.14-2.92c-.03.17-.03.33-.03.49 0 1.54.82 2.39 1.9 2.39.82 0 1.77-.49 2.62-1.57-.36.06-.78.1-1.18.1-1.21 0-2.52-.33-3.31-1.41m8.03-.46c-.75.2-2.33 1.11-2.33 2.75 0 1.18.92 1.93 2.06 1.93.59 0 1.01-.13 1.28-.33-.92-.88-1.24-1.87-1.24-2.85 0-.68.1-1.1.23-1.5m1.18-8.97c0 .72.59 1.31 1.31 1.31s1.31-.59 1.31-1.31-.59-1.31-1.31-1.31c-.73 0-1.31.59-1.31 1.31m1.7 2.95c0 .72.59 1.31 1.31 1.31s1.31-.59 1.31-1.31-.59-1.31-1.31-1.31-1.31.59-1.31 1.31m51.09 16.08c0-.65.59-1.21 1.24-1.21.72 0 1.28.56 1.28 1.21 0 .75-.56 1.28-1.28 1.28-.65-.01-1.24-.53-1.24-1.28m-11.5-10.09c0 .72.59 1.31 1.31 1.31s1.31-.59 1.31-1.31-.59-1.31-1.31-1.31-1.31.59-1.31 1.31m-1.11 4.62c0 1.02.85 1.87 1.87 1.87 1.01 0 1.87-.85 1.87-1.87 0-1.01-.85-1.87-1.87-1.87s-1.87.85-1.87 1.87m4.12-2.1c0 1.12.89 2 1.99 2 1.11 0 2-.88 2-2 0-1.11-.89-2-2-2-1.1 0-1.99.89-1.99 2m.17-4.26c0 .69.56 1.25 1.24 1.25.69 0 1.25-.56 1.25-1.25s-.56-1.24-1.25-1.24c-.68 0-1.24.56-1.24 1.24m5.93-3.14c0 .69.56 1.24 1.25 1.24s1.25-.56 1.25-1.24a1.25 1.25 0 0 0-2.5 0m-2.46 4.03c0 1.15.95 2.09 2.1 2.09s2.1-.95 2.1-2.09c0-1.15-.95-2.1-2.1-2.1s-2.1.95-2.1 2.1m-3.37 7.66c0 .72.59 1.31 1.31 1.31s1.31-.59 1.31-1.31-.59-1.31-1.31-1.31-1.31.59-1.31 1.31m4.29-2.62c0 .72.59 1.31 1.31 1.31s1.31-.59 1.31-1.31-.59-1.31-1.31-1.31c-.73 0-1.31.59-1.31 1.31m-1.22 4.62c0 1.24 1.01 2.26 2.26 2.26s2.26-1.02 2.26-2.26-1.02-2.26-2.26-2.26a2.27 2.27 0 0 0-2.26 2.26m4.72-2.79a1.54 1.54 0 1 0 1.54-1.54c-.85.01-1.54.69-1.54 1.54m-.1-4.12c0 .76.62 1.38 1.37 1.38s1.38-.62 1.38-1.38c0-.75-.62-1.37-1.38-1.37-.74-.01-1.37.62-1.37 1.37m3.34 42.97c-.85.66-2.84 2.13-6.15 2.13-1.77 0-2.56-.56-2.82-.56-.33 0-.69.33-1.05.75-.78.92-1.79 2.62-1.79 4.49 0 1.31 1.02 2.62 2.91 2.62 6.13 0 10.71-3.83 10.71-6.94-.01-1.77-1.06-2.49-1.81-2.49m-1.7-.36c.26-.23.33-.59.33-.95v-.75c0-.95-1.43-1.5-3.4-1.5-2.39 0-3.67 1.08-3.67 1.54v1.51c0 .62 1.44 1.25 3.21 1.25 1.4-.02 2.68-.38 3.53-1.1m-.27 3.24c.17 0 .36.1.36.69 0 .72-.33 1.67-1.5 2.42-.82.56-1.93 1.02-3.57 1.05.26-.78.46-1.6.46-2.39 0-.26-.03-.46-.07-.75h.43c2.59-.01 3.7-1.02 3.89-1.02m-12.5-40.02c.36 2.78 4.1 1.37 4.1 4.75 0 .49-.13 1.21-.13 1.83 0 .72.06 1.34.62 1.34s.69-.39.69-.92-.13-1.18-.13-1.54c0-1.15.82-1.41 1.31-1.41 1.25 0 2.19 1.28 4.06 1.28-.43 2.1-4.75 1.54-4.75 3.83 0 1.15 1.15 1.41 1.9 1.41.69 0 .92-.1.92-.69 0-.33-.07-.69-.07-.92 0-.13.1-.26.26-.26.72 0 4.25 2.69 4.25 3.51 0 .75-3.73 1.51-4.81 1.51-.33 0-.39-.23-.39-.36 0-.23.56-.92.56-1.31 0-.29-.49-.49-1.8-.49-.62 0-1.08.07-1.08.56 0 .88 1.44 1.96 1.44 2.78 0 .66-.39 1.05-1.44 1.05-.89 0-2.22-.69-2.22-1.83 0-.92.94-1.83.94-2.39 0-.16-.12-.43-.52-.43-1.21 0-1.54 3.21-5.83 3.57.69-.62 1.28-1.31 1.28-2.72 0-.69-.16-1.25-.16-2 0-.98.46-1.47 1.11-1.47 1.21 0 1.8 1.7 2.59 1.7.43 0 .89-.39.89-.98 0-2.49-4.78-2.13-4.78-5.63-.03-.96.3-2.13 1.19-3.77m15.62 9.59c0 .82.26 1.77 1.08 1.77.69 0 1.28-1.05 1.28-2.19 0-1.31-.23-2.33-.23-2.85 0-.23.1-.33.23-.33.49.03.95 1.38 1.48 1.38.59 0 1.47-1.08 1.83-1.08.1 0 .13.13.13.16 0 .49-.75 1.57-.75 2 0 .36 1.9.42 1.9.75 0 .49-1.99.49-2.94.92-.92.39-1.48.88-1.48 1.54 0 .65.66.78 1.57.78 2.19 0 3.73-1.18 4.22-1.18.1 0 .16.06.16.16 0 .33-1.11 1.41-1.11 1.9 0 .56 2.03 1.21 2 1.54-.03.1-.16.13-.39.13-.36 0-.92-.1-1.35-.1-.26 0-.49.03-.59.16-.23.26.07 2-.39 2-.43 0-1.54-3.86-4.06-3.86-.36 0-.62.29-.62.79 0 1.31 1.28 2.81 2.49 3.54.55.36 1.47.72 1.47.92 0 .39-2.09.03-2.09.69 0 .59.26 1.48.26 2 0 .16-.03.36-.23.36-.39 0-1.35-1.8-1.8-1.8-.39 0-1.25 1.08-1.61 1.08-.1 0-.16-.1-.16-.19 0-.75 1.21-2.46 1.21-4.13 0-.79-.1-2.49-1.05-2.49-.79 0-1.67 1.24-2.07 2.49-.23.72-.07 3.5-.59 3.5-.49 0-.36-1.87-1.02-1.87-.48 0-1.53.88-1.89.88-.07 0-.13-.03-.13-.1 0-.39.95-1.67.95-1.93 0-.49-2.16-.56-2.16-.95 0-.23.85-.39 1.64-.53 1.67-.29 4.12-1.51 4.12-3.21 0-1.9-1.83-2.72-3.04-3.51-.62-.39-1.31-.72-1.31-.98s.79-.26 1.11-.26c.49 0 .98-.03.98-.42 0-.3-.07-.88-.07-1.34 0-.33.03-.59.17-.59.49 0 1.18 1.6 1.51 1.6.52 0 1.24-1.31 1.74-1.31.16 0 .23.1.23.39-.01 1.22-.63 2.59-.63 3.77m-14.67 9.07c1.51.2 1.87.72 1.87 1.15 0 .72-.66.95-1.28.95-.46 0-.98-.1-1.54-.1-.72 0-1.44.16-2.03.85.42.06 1.05.36 1.05 1.02 0 1.9-5.27.33-5.27 5.21 0 2.59 2.69 5.4 6.74 5.4 2.1 0 3.44-.69 3.44-1.48 0-.62-1.11-.2-1.11-.72 0-.23.39-.66.39-1.02 0-.16-.13-.46-.39-.46-.59 0-1.71.95-3.97.95-1.77 0-3.51-1.01-3.51-2.39 0-.29.13-.46.33-.46s.46.13.69.13c.2 0 .23-.13.23-.49s0-1.38.62-1.38 1.8 2.29 6.33 2.29c1.5 0 4.42-.29 5.5-1.28-.03 3.6-2.85 8.35-8.74 8.35-6.12 0-9.4-4.91-9.4-9.43 0-5.01 4.09-9.56 9.69-9.56 1.44 0 2.65.49 2.65 1.11 0 .88-2.13.35-2.29 1.36m10.05 1.74c.23.36.33.72.33 1.05 0 .92-.62 1.77-.62 2.72 0 1.08.82 1.96 2.06 1.96 1.34 0 2.26-1.08 2.26-2.36 0-1.73-1.58-3.21-4.03-3.37m-10.84 2.1c.33.33.43.65.43.98 0 .49-.23 1.02-.23 1.57 0 .78.59 1.47 1.44 1.47.92 0 1.54-.72 1.54-1.57 0-1.24-1.28-2.45-3.18-2.45m4.35-5.57c3.44.65 5.31 3.24 5.31 5.67 0 1.67-1.05 3.21-2.88 3.21-1.67 0-2.88-1.15-2.88-2.98 0-1.38 1.07-2.82 1.07-4.22 0-.57-.16-1.12-.62-1.68m1.71 4.36c0 .46.33.82.79.82.52 0 .85-.46.85-.98 0-.69-.62-1.64-1.21-1.64-.26 0-.16.39-.23.82-.04.32-.2.71-.2.98m-36.15-33.7c1.11 0 2.39-6.03 2.39-7.04 0-.26-.1-.46-.33-.46-1.02 0-2.42 5.73-2.42 7.01 0 .23.06.49.36.49m8.02 1.8c.82 0 1.73-3.15 1.73-5.11 0-.43-.06-.88-.26-.88-.69 0-1.83 3.24-1.83 5.01 0 .68.16.98.36.98m-5.34-2.92c.36 0 .82-.4 1.67-1.34.06-.43.06-.82.06-1.31 0-.65-.26-1.38-.65-1.38-.98 0-1.47 2.62-1.47 3.31 0 .4.19.72.39.72m4.49-1.34c0-.56-.13-.69-.26-.69-.33 0-.69.39-1.21 1.28.06 1.18.26 1.7.59 1.7.35 0 .88-1.14.88-2.29m2.52-3.86c2.16 0 3.14 1.87 3.14 3.96 0 .92-.26 2.26-.69 2.26s-.36-.75-.43-1.44c-.06-.88-.23-1.08-.53-1.08-.56 0-.92 1.31-.92 2.52 0 .75.13 1.6.72 1.6.33 0 .62-.16.82-.36-.13 1.5-1.25 2.82-2.82 2.82-2.88 0-3.96-3.37-4.29-5.34-1.74 1.83-3.34 3.18-6.22 3.18-2.68 0-3.9-1.97-3.9-3.83 0-.56.2-2 .89-2 .82 0 .1 2.68 1.7 2.68.39 0 1.11-.33 1.51-1.41.23-.66.36-1.34.36-1.93 0-.89-.2-1.44-.85-1.44-.56 0-1.25.42-1.48.65.79-2.36 2.69-3.57 4.78-3.57 2.59 0 3.96 2.29 3.96 4.85 0 .36-.03.75-.1 1.11 1.14-1.82 2.68-3.23 4.35-3.23"/><path d="M34.64 29.05c-1.41 0-1.47 1.71-1.47 5.14-1.05-2.26-2.78-4.68-4.81-4.68-1.38 0-1.9.92-1.9 2.52 0 .33.03.82.1 1.11.16-.56.69-.78 1.34-.78 1.41 0 3.11 1.08 4.22 2.56-1.28-.23-2.52-.46-3.57-.46-.66 0-1.25.07-1.74.29-.95.42-2.23 1.83-2.23 3.96 0 .33.03.69.1 1.08 1.15-2.56 4.19-3.7 6.16-3.7.39 0 .69.03.92.07-1.02.92-1.24 2.52-1.31 3.6-.03.52-.23.56-.59.56 0 1.08.85 2.69.85 3.5 0 .29-.16.56-.33.62 0 1.44 1.44 2.49 1.44 3.4 0 .23-.06.43-.16.53.1.59 1.68 1.58 1.89 2.08.25.6.53.71.7.71.56 0 1.44-.66 1.44-1.25 0-.2-.16-.42-.29-.52-.62-.46-.95-1.44-1.21-2.09-.23 0-.53-.1-.63-.48-.18-.68-.19-1.94-.45-2.69-.43-.1-.62-.26-.62-1.15 0-.43.26-2.1.26-2.69-.2 0-.46-.13-.46-.52 0-1.05 1.05-1.87 1.34-3.21 1.87 1.37 2.32 2.78 2.32 4.03 0 .65-.1 1.28-.23 1.87 1.38-.69 3.44-1.7 3.44-3.77 0-1.21-.56-2.56-4.26-3.08 1.15-.43 2.59-.65 3.8-.65 2.1 0 3.31.65 3.57 2.13.43-.65.75-1.41.75-2.1 0-1.61-1.34-2.65-3.05-2.65-2 0-3.77 1.05-5.67 2.33.85-1.77 1.44-2.82 2.49-2.82.16 0 .33.03.49.07-.38-1.47-1.85-2.87-2.64-2.87m55.18 23.61c1.64 0 2.95 2.13 2.95 4.62 0 2.65-1.25 5.53-3.47 7.5-.03-4.42-5.44-3.01-5.44-6.22 0-1.38.99-2.29 2.17-2.29 1.05 0 1.87.29 2.46.89-.59-.56-.89-1.35-.89-2.1 0-1.26.79-2.4 2.22-2.4M60.58 21.55c.85.82 1.6 1.18 2.52 1.18.36 0 .79-.1 1.02-.1.29 0 .49.13.49.36 0 .36-.33.95-.72 1.28.39.16.82.23 1.28.23 1.86 0 3.99-1.18 3.99-4.13.39.52.62 1.6.62 2.1 0 3.57-2.62 4.94-5.04 4.94-1.57 0-2.36-.52-2.56-.52-.62 0-.59 1.25-1.01 1.21-.75-.13-1.44-1.8-1.44-3.57 0-1.05.26-2.16.85-2.98m4.94-2.39c-.26-.43-1.24-.65-1.7-.65-1.44 0-2.43 1.01-2.62 1.93-.13-.33-.23-.72-.23-1.11 0-1.44.98-3.21 3.38-3.21 2.09 0 2.91 1.11 3.21 1.11.33 0 .65-.33.92-.33.36 0 .36.56.36.95 0 1.31-.59 3.57-2.07 4.39-.26-.56-.79-1.18-1.63-1.57a.52.52 0 0 1-.33-.49c0-.37.33-.83.71-1.02m-27.7-7.14c0 1.15 4.09 6.75 4.88 6.75.66 0 1.15-1.15 1.15-2.13 0-.26-.07-.52-.19-.72-.59-.82-4.75-4.09-5.67-4.09-.11-.01-.17.09-.17.19M13.75 8.64c0 .66-2.49 2.85-3.37 2.85-.33 0-.43-.39-.43-.75 0-.65.3-1.57.66-1.87.42-.39 1.41-.59 2.16-.59.46.01.98.1.98.36m29.9 1.9c0-1.97-5.31-5.53-5.37-7.07-.01-.14.07-.28.19-.41.91-.96 4.69-1.66 4.69-2.48 0-.42-.79-.42-1.18-.42-3.04 0-7.5 1.11-7.5 2.19 0 1.12 3.99 3.83 3.99 5.18 0 .36-.23.49-.59.49-1.11 0-3.54-1.34-4.68-1.34-.52 0-.72.36-.72.89 0 1.57 1.87 4.55 1.87 5.43 0 .1-.03.23-.16.23-.59 0-3.37-3.27-4.35-3.27-.36 0-.39.49-.39 1.21v1.11c0 .75-.03 1.21-.39 1.21-.85 0-1.25-2.39-2.06-2.39-.85 0-1.02 4.26-1.83 4.26-.95 0-.13-4.68-1.05-4.68-1.01 0-2.16 3.11-2.88 3.11-.26 0-.33-.26-.33-.49 0-.95.56-2.49.56-3.4 0-.46-.13-.72-.52-.72-1.02 0-3.24 1.64-4.09 1.64-.13 0-.3-.06-.3-.2 0-.78 3.57-3.27 3.57-4.39 0-1.08-4.91-.36-4.91-1.61 0-1.05 3.51-2.13 3.51-3.21 0-.95-4.16-1.37-5.76-1.37-1.93 0-2.98.23-2.98.78 0 .85 4.39 1.12 4.39 1.87 0 .72-4.55 2.65-4.55 3.77 0 .98 6.42.07 6.42 1.08 0 1.11-5.6 5.93-5.6 7.53 0 .36.26.52.62.52 1.7 0 6.12-3.24 7.34-3.24.43 0 .46.52.46.98 0 .85-.29 2.16-.29 3.11 0 .75.2 1.28.85 1.28 1.21 0 2.33-2.06 3.15-2.06 1.05 0 .42 6.06 2 6.06 1.34 0 1.9-6.55 2.75-6.55s1.54 1.9 2.33 1.9c.98 0 .52-3.31 1.57-3.31 1.15 0 4.42 3.93 5.89 3.93.46 0 .62-.36.62-.82 0-1.74-2.42-5.66-2.42-6.91 0-.33.1-.43.46-.43 1.28 0 5.01 1.77 6.78 1.77.53 0 .89-.33.89-.76m-3.41-6.48c0 .59 2.06 1.87 3.01 1.87.56 0 .72-.75.72-1.54 0-.98-.42-1.01-1.28-1.01-1.07-.01-2.45.29-2.45.68M32.55.72c0-.2-.98-.39-2.32-.39-2.13 0-1.83 1.77-3.47 1.77-1.7 0-1.28-1.84-3.44-1.84-1.31 0-2.52.23-2.52.52 0 .39 1.54.23 1.54 1.31 0 1.14-3.31 1.47-3.31 2.16 0 .23.26.33.59.33.72 0 1.87-.33 2.69-.33.46 0 .89.1.89.52 0 .82-1.77 2.29-1.77 2.95 0 .2.16.26.33.26.66 0 1.77-1.67 2.82-1.67 1.74 0 .59 3.7 1.54 3.7.98 0 .56-3.64 1.97-3.64 1.15 0 2 2.52 2.78 2.52.2 0 .36-.16.36-.39 0-.69-.98-2.1-.98-3.01 0-.56.39-.82.92-.82.75 0 1.77.46 2.32.46.2 0 .39-.07.39-.29 0-.79-2.91-1.64-2.91-2.65-.03-1.01 1.58-1.01 1.58-1.47m58.06 5.31c0 2.91-2.12 5.14-5.96 5.76.43.03.82.03 1.21.03 4.48 0 6.12-2.03 6.12-3.73 0-.95-.52-1.8-1.37-2.06m-5.54 3.3c0-2.32-5.56-2.91-5.56-3.44 0-.43 3.11-1.15 4.71-1.18-2.46-3.14-5.96-2.82-5.96-3.37 0-.33 2.62-.98 5.04-.98 2.03 0 3.93.46 3.93 2 0 .85-.69 1.74-.69 3.05 0 .72.36 1.34 1.31 1.34 1.02 0 1.25-1.08 1.25-2.23 0-.95-.16-1.67-.16-2.13 0-1.38.94-2.29 2.29-2.29 1.11 0 1.38.49 3.02.49-.89.53-1.21 1.48-1.21 1.93 0 1.38.89 2.33.89 5.14 0 5.17-4.85 7.01-10.78 7.01-1.63 0-3.37-.13-5.07-.39-.26-.03-.33-.1-.33-.26 0-.43 2.33-.66 2.33-2.75 0-.82-.26-1.61-.26-1.9 0-.16.13-.26.26-.26.49 0 1.48 1.9 3.3 1.9.48-.01 1.69-.17 1.69-1.68m5.34-7.23c0 .46.36.82.82.82s.82-.36.82-.82-.36-.82-.82-.82-.82.36-.82.82M87.5 32.35c0-.69-1.74-.75-1.9-2.68-.03-.29-.13-.82-.49-.82-.59 0-.13 1.8-.79 1.8-1.51 0-2-2.95-2.55-2.95-.13 0-.29.1-.29.49 0 .36.07.59.07 1.01 0 .43-.1.72-.49.72-.89 0-1.67-2.06-2.43-2.06-.16 0-.33.1-.33.26 0 .39.65 1.11.65 1.47 0 .79-2.13.36-2.13 1.02 0 .3.29.39.69.39.69 0 1.77-.29 2.33-.29.33 0 .82.07.82.49 0 .46-1.18 1.05-1.18 1.47 0 .2.2.29.36.29.89 0 2.45-1.54 3.57-1.54.2 0 .69.1.69.39 0 .42-1.11 1.18-1.11 1.8 0 .16.1.36.3.36.59 0 1.37-1.54 2.49-1.54.43 0 1.05.16 1.38.16.24.03.34-.14.34-.24m.85 15.89c.53-1.64 1.18-2.78 2.25-4.55-1.07-.56-3.93-1.74-3.93-3.67 0-2.26 2.82-4.03 3.4-4.03.26 0 .33.23.33.66 0 1.18-.56 3.08-.56 4.09 0 .92.59 1.8 1.11 1.8.56 0 2.1-1.97 2.1-3.9 0-3.47-3.05-4.52-3.99-4.52-.89 0-2.49 1.44-6.26 1.44-7.04 0-8.64-6.97-8.64-10.02 0-.13.03-.16.06-.16.16 0 .85.85 3.08.85 1.15 0 2.2-.3 3.87-.3 3.92 0 5.66 2.72 8.09 6.19 1.47.92 4.97 2.39 4.97 6.55 0 3.67-3.9 5.7-4.84 9.63 1.5-.16 2.39-2.85 3.93-2.85.79 0 1.15.62 1.15 1.61 0 1.44-.82 3.6-2.39 4.94.03-.13.03-.3.03-.49 0-.92-.36-2.22-1.41-2.22-1.63 0-2.15 1.77-3.07 3.24-.95-3.34-2.23-6.35-4.52-8.19-2.32-1.87-6.32-.85-6.32-4.26 0-.92.59-2.23.59-3.28 0-.36-.07-.69-.26-.95 3.15 1.18 2.03 3.27 3.97 5.44 1.21 1.38 4.55 2.69 6.48 8.35.03-.16.07-.59.07-.88 0-4.85-6.42-9.6-6.97-11.56 3.73.43 4.38 1.34 6.15 6.26.35 1.01 1.53 3.53 1.53 4.78"/><path d="M70.44 13.59c-2.29 0-3.8-1.14-3.8-1.74 0-.3.2-.49.46-.49.72 0 2.29 1.11 2.82 1.11.13 0 .23-.06.23-.26 0-.59-.56-1.57-.56-2.06 0-.13.1-.23.29-.23.88 0 2.19.36 2.89.36.23 0 .29-.13.29-.26 0-.72-2.13-2.13-2.13-2.55 0-.39 2.65-.98 2.65-1.6 0-.66-3.6-.2-3.6-.82 0-.46.69-1.24.69-1.6 0-.16-.13-.23-.36-.23-.29 0-1.87.62-2.52.62-.33 0-.72-.07-.72-.52 0-.75 1.28-1.57 3.28-1.57 3.24 0 5.17 2.23 5.17 5.96-.01 4.7-3.31 5.88-5.08 5.88m-6.38-6.22c0-.36-1.28-1.05-1.28-1.44 0-.07.06-.1.16-.1.36 0 .99.13 1.48.13.43 0 .49-1.83.81-1.83.23 0 .62 1.74.98 1.74.43 0 1.21-.49 1.54-.49.07 0 .13.03.13.1 0 .23-.82 1.11-.82 1.37 0 .3 1.84.66 1.84.92 0 .33-1.87.3-1.87.59 0 .23.69 1.15.69 1.44 0 .07-.03.1-.1.1-.26 0-1.28-.46-1.57-.46-.36 0-.94 1.34-1.24 1.34-.1 0-.16-.13-.16-.3l-.07-1.31c0-.13-.06-.26-.23-.26-.39 0-1.15-.03-1.38-.03-.16 0-.23-.03-.23-.1 0-.27 1.32-1.18 1.32-1.41m-.96 5.37c.53 0 .62 1.28.72 2.03.06.39.13.43.3.43.39 0 1.01-1.51 1.44-1.51.62 0 2.29 1.74 5.08 1.74 3.96 0 7.7-2.78 7.7-7.7 0-4.75-3.35-7.53-7.96-7.53-2.19 0-3.8 1.08-4.65 1.08C65.2 1.31 64.42 0 64.02 0c-.16 0-.33.32-.33.88 0 .36 0 1.51-.39 1.51-.79 0-3.83-2.26-3.83-1.44 0 .75 2.03 3.05 2.03 3.64s-2 1.15-2 1.54c0 .72 2.13.85 2.13 1.77s-2.23 1.64-2.23 2.32c0 .56 2.23.16 2.23.85s-1.64 2.98-1.64 3.63c0 .16.03.16.16.16.63.01 2.49-2.12 2.95-2.12m-14.83 57.5c0 .29-.1.62-.36.95-.36-.65-1.38-.98-1.83-.98-3.37 0-2.1 4.88-5.7 4.88-1.51 0-1.64-.2-2.19-.2-.23 0-.36.1-.36.29 0 .85 1.21 2.95 4.58 2.95s6.62-2.06 6.62-4.62c0-.43-.1-.88-.29-1.34.13-.2.46-.33.75-.33.52 0 .82.59 1.31.59.53 0 .92-.39.92-.92 0-.43-.23-.72-.62-.92.26-.19.46-.52.46-.88 0-.56-.39-1.08-1.05-1.08-.29 0-.49.1-.72.32-.06-.59-.39-1.14-1.02-1.14-.49 0-.85.36-.85.92-.01.53.35.96.35 1.51"/><path d="M30.32 64.15c2.62.65 3.93 2.06 4.19 3.73.26 1.6.59 2.92 1.21 3.57.82.92 2.42 1.73 3.83 1.73 1.18 0 2.13-.39 2.13-1.47 0-1.18-1.6-3.83-3.96-3.83-.23 0-.52.03-.85.03-.29 0-.72-.07-.98-.29-.52-.46-.69-2.92-1.67-4.39-1.08-1.64-2.26-2.1-3.86-2.1-1.15 0-2.42.62-2.42 1.54-.01.57.29.96 2.38 1.48m9.14 7.34c-.98 0-2.46-1.05-2.46-1.64 0-.49.46-.75.82-.75.82 0 2.29 1.02 2.29 1.87 0 .22-.16.52-.65.52"/><path d="M36.44 45.98c0-2.1 4.98-3.21 4.98-5.8 0-.43-.16-1.18-.46-1.74 1.73.95 3.01 2.56 3.01 3.86 0 2.26-2.36 3.31-2.36 4.72 0 1.64 2.52 1.9 2.52 3.93 0 1.67-2.39 3.6-2.39 5.76 0 1.67 1.18 3.04 2.98 3.27-.59.13-1.11.23-1.67.23-3.31 0-6.71-2.72-6.71-5.96 0-1.6.69-3.01 1.73-4.03.92.79 1.83 1.31 2.42 1.31.52 0 .75-.26.75-.65.02-1.2-4.8-2.32-4.8-4.9m10.45 16.53c-1.12.51-1.57.43-1.57 1.57 0 .43-.1.98-.1 1.28 0 .39.06.62.52.62 1.18 0 3.05-2 3.05-3.7 0-.46-.26-.65-.56-.65-.26 0-.55.52-1.34.88m-.13-2.35c0-1.47-3.05-1.51-3.05-3.73 0-.56.36-1.51 1.08-2.52.3 1.7.98 2.59 2.46 3.15 2.91 1.08 3.31 2.72 3.31 4.45 0 2.95-2.06 6.62-7.37 6.62-4.26 0-7.3-3.8-7.3-7.01 0-.88.23-1.87.79-1.87.49 0 .65.39 1.05.78 1.47 1.48 3.08 1.87 5.4 1.87 2.09-.01 3.63-.86 3.63-1.74m-23.19.71c.08.68-.41 1.3-1.09 1.38s-1.3-.41-1.38-1.09c-.08-.69.41-1.3 1.09-1.38s1.3.4 1.38 1.09m-6.12 1.28a2.126 2.126 0 0 0 2.36 1.83c.42-.05.82-.16 1.08-.33.26 1.05 1.14 1.72 2.33 1.56 1.21-.16 2.03-1.11 1.9-2.32-.03-.33-.1-.53-.2-.75 0 0 .16-.02.28-.04 1.18-.22 1.98-1.17 1.88-2.32-.13-1.18-1.19-2.05-2.29-1.92-.43.05-.82.22-1.08.44-.3-.98-1.22-1.83-2.48-1.63-1.14.19-1.89 1.15-1.78 2.38.02.2.07.43.16.65 0 0-.19.03-.33.05-.95.17-1.98 1.13-1.83 2.4"/></svg>