<svg xmlns="http://www.w3.org/2000/svg" xml:space="preserve" viewBox="0 0 203.68 203.15"><path d="M156.45 123.89c-4.8 0-8.69 3.85-8.69 8.65v21.76c0 4.22 3.9 8.15 8.69 8.15 4.77 0 8.69-3.93 8.69-8.15v-21.76c0-4.8-3.92-8.65-8.69-8.65m-109.2 0a8.63 8.63 0 0 0-8.66 8.65v21.76c0 4.22 3.87 8.15 8.66 8.15 4.84 0 8.67-3.93 8.67-8.15v-21.76c0-4.8-3.84-8.65-8.67-8.65"/><path d="M0 0v203.15h203.68V0zm149.95 27.71h13.04v64.18h-13.04zM68.44 154.29c0 5.54-2.46 10.94-5.93 14.91l5.93 19.28H55.92l-4.47-13.39c-1.34.25-2.75.4-4.2.4-11.97 0-21.38-9.74-21.38-21.2v-21.76c0-11.61 9.41-21.2 21.38-21.2 12.02 0 21.2 9.59 21.2 21.2v21.76zm.01-83.72c0 12.04-9.18 21.33-21.19 21.33-11.98 0-21.39-9.29-21.39-21.33V27.72h12.72v42.85c0 4.87 3.87 8.79 8.67 8.79 4.83 0 8.66-3.92 8.66-8.79V27.72h12.53zm60.25 104.91H85.84v-64.15h12.99v51.1h29.87zm0-83.6h-13.02L98.84 55.12v36.77h-13V27.71h12.99l16.84 36.71V27.71h13.02v64.17zm48.94 62.41c0 11.46-9.22 21.2-21.2 21.2-12 0-21.21-9.74-21.21-21.2v-21.76c0-11.61 9.21-21.2 21.21-21.2 11.98 0 21.2 9.59 21.2 21.2z"/></svg>