<svg xmlns="http://www.w3.org/2000/svg" xml:space="preserve" viewBox="0 0 72 72"><path d="M30.6 20.3c-.6-.1-.6-.1-.4-.2.6-.1 1.9 0 2.8.2 2.1.5 4.1 1.8 6.1 4.1l.5.6.8-.1c3.3-.5 6.7-.1 9.5 1.2.8.4 2 1.1 2.1 1.3 0 .1.1.4.2.8.2 1.4.1 2.5-.3 3.2-.2.4-.2.6-.1.9s.5.5.8.5c.7 0 1.5-1.1 1.8-2.7l.1-.6.5.5c1.5 1.7 2.7 4 2.9 5.7l.1.4-.3-.4c-.4-.7-.9-1.1-1.4-1.5-1-.7-2.1-.9-4.9-1-2.6-.1-4-.4-5.4-.8-2.4-.8-3.7-1.9-6.6-5.7-1.4-1.7-2.2-2.7-2.9-3.4-1.9-1.7-3.6-2.6-5.9-3"/><path d="M52.8 24.1c.1-1.1.2-1.9.5-2.6.1-.3.2-.5.3-.5 0 0 0 .2-.1.4-.2.7-.3 1.6-.1 2.6.2 1.3.3 1.5 1.7 3 .7.7 1.4 1.5 1.7 1.9l.5.7-.5-.5c-.6-.6-2.1-1.7-2.4-1.9-.2-.1-.2-.1-.4 0-.1.1-.1.3-.2 1.2 0 1.3-.2 2.2-.6 3-.2.5-.3.4-.1-.2.2-.4.2-.6.2-1.8 0-2.6-.3-3.2-2.1-4.3-.5-.3-1.2-.7-1.7-.9s-.8-.2-.8-.2c.1-.1 1.8.5 2.5.7 1 .4 1.2.5 1.3.4.2 0 .2-.3.3-1m-21 4.4c-1.3-1.7-2-4.4-1.9-6.4l.1-.6.3.1c.5.1 1.5.4 1.9.7 1.2.7 1.7 1.7 2.2 4.1.2.7.4 1.5.5 1.8.1.4.7 1.5 1.2 2.2q.45.75-.6.6c-1.2-.1-2.7-1.2-3.7-2.5m19.4 12.9c-5.9-2.4-8-4.4-8-7.9v-.9s.2.2.5.4c1.2 1 2.5 1.4 6.2 1.9 2.2.3 3.4.6 4.5 1 3.6 1.2 5.8 3.6 6.4 6.9.2 1 .1 2.8-.2 3.7-.2.7-.8 2.1-1 2.1 0 0-.1-.2-.1-.4.1-1.2-.5-2.4-1.5-3.4-1.2-1-2.9-1.8-6.8-3.4m-4.1 1c-.1-.4-.2-1-.3-1.2l-.2-.4.3.3c.4.4.7 1 1 1.7.2.6.2.7.2 1.7 0 .9 0 1.1-.2 1.6-.3.8-.6 1.4-1.2 2-1.1 1.1-2.5 1.7-4.5 2-.3 0-1.4.1-2.2.2-2.2.1-3.7.4-5 .8-.3-.1-.5-.1-.5-.1-.1-.1.8-.6 1.6-1 1.1-.5 2.1-.8 4.4-1.2 1.2-.2 2.4-.4 2.7-.5 2.9-.8 4.4-3.1 3.9-5.9"/><path d="M49.8 47.2c-.8-1.7-1-3.3-.5-4.8 0-.2.1-.3.2-.3l.4.2c.4.2 1.1.7 3 1.7 2.4 1.3 3.8 2.3 4.7 3.5.8 1 1.3 2.2 1.6 3.6.1.8.1 2.7-.1 3.5-.6 2.5-2.2 4.5-4.3 5.7-.3.2-.6.3-.6.3s.1-.3.3-.6c.7-1.5.8-3 .3-4.6-.3-1-1-2.2-2.4-4.3-1.8-2.4-2.2-3-2.6-3.9m-22.2 9.1c2.2-1.8 4.9-3.2 7.4-3.6 1.1-.2 2.8-.1 3.8.1 1.6.4 3 1.3 3.7 2.4s1 2 1.4 4c.1.8.3 1.6.3 1.8.2 1.1.7 1.9 1.3 2.3.9.7 2.5.7 4.1.1.3-.1.5-.2.5-.2.1.1-.7.6-1.3.9-.8.4-1.3.5-2.1.5-1.4 0-2.6-.7-3.6-2.2-.2-.3-.6-1.2-1-2-1.1-2.4-1.6-3.1-2.8-3.9-1.1-.7-2.4-.8-3.5-.3-1.4.7-1.7 2.4-.8 3.5.4.4 1.1.8 1.7.9 1.1.1 2-.7 2-1.8 0-.7-.3-1.1-1-1.4-1-.4-2 .1-2 1 0 .4.2.6.6.8.2.1.3.1.1.1-.9-.2-1.1-1.2-.4-1.9.8-.8 2.6-.5 3.2.7.3.5.3 1.4.1 2-.5 1.3-1.9 2-3.4 1.6-1-.3-1.4-.5-2.6-1.8-2.1-2.1-2.9-2.5-5.9-3H27zm4.2-26.2C30.4 28.5 11.1 7.2 11 7.2c0 0 .4.6 1 1.3 6.9 8.4 17.6 21.5 18.1 22.2.4.6.3 1.1-.5 1.6-.4.2-1.3.5-1.7.5-.5 0-1-.2-1.4-.6-.3-.3-1.4-2-4-6-2-3.1-3.7-5.7-3.7-5.7-.1-.1-.1-.1 3.5 6.4 2.3 4.1 3 5.5 3 5.7 0 .4-.1.6-.6 1.1-.8.9-1.2 1.9-1.4 4-.3 2.3-1.1 4-3.4 6.8-1.3 1.7-1.5 2-1.9 2.6-.4.8-.5 1.3-.6 2.4s0 1.9.4 2.9c.3.9.6 1.6 1.4 2.8.7 1.1 1.1 1.9 1.1 2.2 0 .2 0 .2 1.1 0 2.6-.6 4.7-1.6 5.8-2.9.7-.8.9-1.2.9-2.3 0-.7 0-.8-.2-1.2-.3-.6-.9-1.2-2.1-2-1.6-1.1-2.3-2-2.5-3.2-.2-1 0-1.7.9-3.6s1.1-2.7 1.3-4.7c.1-1.3.2-1.7.6-2.1s.7-.6 1.6-.7c1.5-.2 2.5-.6 3.3-1.3.7-.6 1-1.2 1-2.2v-.7zM21.1 50.7c-.3.5-.9.7-1.3.4-.3-.2-.3-.5 0-.8.2-.3.2-.5-.1-.6-.2-.1-.2-.2-.2-.3 0-.4.8-.6 1.3-.3.5.4.7 1.1.3 1.6M35 35.3c-.4-.2-1.4-.3-1.8-.2-.7.2-1.4 1-1.6 1.8-.1.5-.1 1.3.1 1.6.3.4.6.5 1.5.5 1.6 0 3-.7 3.2-1.6.1-.7-.5-1.7-1.4-2.1m.1 1.3c-.2.2-.7.5-1.1.5-.6 0-1.2-.4-1.2-.8 0-.8 1.2-1.2 2-.7.4.2.5.6.3 1"/></svg>