<svg xmlns="http://www.w3.org/2000/svg" xml:space="preserve" viewBox="0 0 72 72"><path d="M57.1 12.8c-1.4-1.3-7.2-5.5-20.1-5.6 0 0-15.2-.9-22.6 5.9-4.1 4.1-5.6 10.2-5.7 17.6s-.3 21.6 13.2 25.4v5.8s-.1 2.3 1.5 2.8c1.9.6 3-1.2 4.8-3.1 1-1.1 2.3-2.6 3.4-3.8 9.2.8 16.3-1 17.2-1.3 1.9-.6 12.4-2 14.1-16 1.6-14.4-1-23.6-5.8-27.7m1.6 26.7c-1.4 11.7-10 12.4-11.6 13-.7.2-6.9 1.8-14.8 1.3 0 0-5.8 7.1-7.7 8.9-.3.3-.6.4-.8.3-.3-.1-.4-.4-.4-1 0-.8.1-9.6.1-9.6C12.1 49.2 12.7 37.3 12.9 31s1.3-11.4 4.8-14.8c6.3-5.7 19.2-4.8 19.2-4.8 10.9 0 16.1 3.3 17.3 4.4 4 3.4 6 11.6 4.5 23.7"/><path d="M42.3 31.2c-.4 0-.7-.3-.7-.7-.1-2.5-1.3-3.7-3.7-3.8-.4 0-.7-.4-.7-.8s.4-.7.8-.7c3.1.2 4.9 2 5 5.2.1.4-.2.7-.7.8q.15 0 0 0"/><path d="M46.1 32.4c-.4 0-.7-.3-.7-.7.1-2.5-.7-4.5-2.2-6.2s-3.6-2.6-6.3-2.8c-.4 0-.7-.4-.7-.8s.4-.7.8-.7c3.1.2 5.6 1.3 7.3 3.2 1.8 1.9 2.6 4.3 2.6 7.2-.1.5-.4.8-.8.8"/><path d="M49.9 33.9c-.4 0-.7-.3-.7-.7 0-4.4-1.4-7.9-3.9-10.4-2.6-2.5-5.8-3.8-9.7-3.8-.4 0-.7-.3-.7-.7s.3-.7.7-.7c4.2 0 7.8 1.5 10.7 4.2 2.9 2.8 4.3 6.6 4.4 11.4-.1.4-.4.7-.8.7"/></svg>