<svg xmlns="http://www.w3.org/2000/svg" xml:space="preserve" viewBox="0 0 360 180"><path d="M134.99 50.68c-1.06.42-7.12 7.01-7.12 7.72 0 .46 1.31 2.09 3.43 4.25 4.53 4.64 4.46 4.64 9.06 0 2.12-2.16 3.43-3.79 3.43-4.21 0-.92-6.44-7.58-7.54-7.79-.41-.11-.98-.08-1.26.03M258.51 71.6c-.89.28-2.09.74-2.73 1.03-.6.25-1.31.46-1.59.46-.25 0-1.17.5-2.05 1.06-.89.57-1.73 1.06-1.91 1.06-.39 0-2.34 1.59-4.57 3.79-1.73 1.66-5.56 6.87-5.56 7.54 0 .14-.42 1.2-.92 2.34-2.51 5.63-2.48 16.6 0 22.2.5 1.13.92 2.19.92 2.37 0 .6 3.47 5.42 5.17 7.15 1.59 1.63 5.59 4.89 5.98 4.89.11 0 1.17.46 2.41 1.03 5.27 2.41 4.32 2.34 26.98 2.34 18.66 0 20.68-.07 22.13-.6.89-.35 1.84-.64 2.12-.64.74 0 4.74-2.05 7.12-3.61 1.1-.74 2.83-2.19 3.89-3.29 1.98-2.02 5.28-6.73 5.28-7.54 0-.25.18-.81.42-1.24 1.31-2.34 2.37-7.54 2.41-11.72 0-2.87-.71-8.32-1.24-9.59-.25-.6-.71-1.66-1.03-2.41s-.57-1.49-.57-1.63c0-1.13-6.48-9.24-7.36-9.24-.18 0-.53-.25-.78-.53-.64-.78-5.35-3.58-6.37-3.79-1.03-.25-2.87-.89-4.53-1.56-1.81-.79-41.36-.65-43.62.13m42.73 9.91c.99.35 2.02.81 2.3 1.03.25.21.81.5 1.27.64 1.13.32 5.74 4.71 6.34 6.02.28.57.89 1.7 1.35 2.48.5.78.89 1.88.89 2.48 0 .57.25 2.12.57 3.43.5 2.02.53 2.73.18 4.25a61 61 0 0 0-.74 3.72c-.35 2.3-2.09 5.42-4.21 7.65-1.84 1.95-5.45 4.5-6.34 4.5-.35 0-.92.21-1.31.46-1.59 1.06-5.35 1.31-21.1 1.31-12.32 0-16.25-.11-18.16-.5-1.35-.28-2.62-.71-2.8-.89-.21-.21-.74-.39-1.13-.39-.42 0-1.45-.5-2.23-1.06-.81-.6-1.63-1.06-1.81-1.06s-1.2-.96-2.27-2.12c-2.02-2.23-4.14-5.81-4.14-6.94 0-.39-.25-1.31-.53-2.09-.28-.81-.5-2.69-.5-4.43 0-1.73.21-3.61.5-4.43.28-.78.53-1.73.53-2.09 0-.81 1.81-4.11 3.26-5.98.99-1.24 4.07-3.75 5.91-4.78.46-.28 1.73-.78 2.83-1.13 1.84-.6 3.47-.67 20.75-.67 17.22-.04 18.92-.01 20.59.59M38.19 72.7C36.53 73.8 36 74.82 36 77.16c0 1.91.18 2.34 1.42 4.18.78 1.13 1.59 2.34 1.77 2.66.21.32.78 1.17 1.35 1.88.53.71.96 1.42.96 1.56s.5.85 1.06 1.59c.6.74 1.06 1.45 1.06 1.59s.5.85 1.06 1.59c.6.74 1.06 1.45 1.06 1.59s.42.78.99 1.42c.92 1.1 1.66 2.23 2.97 4.53.32.6.74 1.17.92 1.27.25.18 2.16 2.9 3.61 5.17.28.46 1.49 2.23 2.66 3.89 1.17 1.7 2.37 3.43 2.66 3.89 7.65 11.72 10.34 14.02 18.2 15.36 2.05.35 6.3-.5 8.71-1.77 1.73-.92 7.43-6.48 7.43-7.26 0-.25.46-1.03 1.06-1.66.57-.67 1.06-1.35 1.06-1.49 0-.18.42-.85.96-1.56.57-.71 3.26-4.71 6.05-8.89 2.8-4.18 5.24-7.68 5.42-7.72.18-.07.32-.28.32-.42 0-.18.74-1.38 1.66-2.73 2.62-3.79 5.2-7.58 5.77-8.46.28-.46 1.59-2.37 2.9-4.28 2.76-4.04 3.19-5.59 2.27-8.07-.42-1.06-.99-1.77-1.84-2.27-1.59-.96-4.21-.99-5.56-.07-.99.64-3.19 3.43-4.35 5.52-.32.57-.71 1.13-.81 1.24-.11.11-.35.42-.57.78-.18.32-1.31 1.95-2.48 3.65-1.17 1.66-2.27 3.33-2.48 3.65-.18.32-.78 1.17-1.31 1.88-.57.71-.99 1.42-.99 1.56s-.42.85-.96 1.56c-.57.71-1.13 1.52-1.35 1.84-1.49 2.37-3.04 4.5-3.5 4.89-.32.25-.57.64-.57.81 0 .21-.5.96-1.06 1.7-.6.74-1.06 1.45-1.06 1.59s-.46.85-1.06 1.59c-.57.74-1.06 1.45-1.06 1.56s-.67 1.17-1.49 2.3c-.85 1.17-2.09 2.94-2.76 3.93-2.62 3.93-5.13 6.02-7.19 6.02-1.91 0-3.97-1.45-6.12-4.39-1.98-2.66-6.58-9.38-7.4-10.76-.18-.35-.74-1.17-1.24-1.84s-1.03-1.49-1.24-1.84c-.18-.32-1.31-1.98-2.48-3.65s-2.37-3.4-2.66-3.86c-.28-.5-1.31-2.02-2.3-3.47-.96-1.42-1.84-2.73-1.91-2.94-.07-.18-.96-1.45-1.98-2.83-2.12-2.94-5.88-8.43-6.34-9.31-.88-1.69-5.17-2.44-7.05-1.16m94.85 0c-.53.35-1.31 1.13-1.66 1.66-.64.99-.67 2.12-.67 26.23 0 23.33.04 25.28.64 26.27.64 1.2 3.04 2.51 4.5 2.51 1.31 0 3.04-.81 4.07-1.95l.89-.96.11-25.35c.11-28.22.21-26.87-2.23-28.39-1.51-.91-4.27-.94-5.65-.02m19.15 0c-2.58 1.7-3.15 5.2-1.31 7.75.6.81 1.06 1.59 1.06 1.7s.5.81 1.06 1.56c.6.74 1.06 1.45 1.06 1.56 0 .18 2.62 3.93 3.5 5.03.14.18.5.74.74 1.24.25.46.57.92.71 1.03.18.14 2.37 3.29 3.36 4.85.21.32 1.17 1.77 2.19 3.26.99 1.49 3.72 5.45 6.02 8.82 2.3 3.4 4.43 6.51 4.71 6.97 5.7 8.74 8.67 11.26 14.87 12.57 2.44.53 2.9.53 5.49 0 1.56-.32 3.58-.92 4.5-1.38 1.88-.92 7.36-6.05 7.36-6.9 0-.11.5-.89 1.06-1.7.6-.85 2.48-3.61 4.18-6.12 1.73-2.55 4.43-6.51 6.02-8.85s3.12-4.53 3.36-4.92c.21-.35 1.1-1.59 1.95-2.73.81-1.17 1.49-2.16 1.49-2.27 0-.18 2.16-3.4 2.48-3.72.21-.21 4.25-6.12 4.78-7.01.21-.32.78-1.17 1.31-1.88 2.34-3.08 2.09-7.05-.46-8.67-1.81-1.13-4.32-1.17-5.88-.07-.64.46-2.69 3.12-4.57 5.95s-4.25 6.3-5.24 7.75-2.05 2.97-2.34 3.43c-2.55 3.86-7.65 11.19-8.04 11.51-.25.21-.46.53-.46.67 0 .18-.85 1.49-1.84 2.97-1.03 1.49-2.02 3.01-2.23 3.33-.18.35-.74 1.17-1.24 1.84s-1.03 1.49-1.24 1.81c-2.51 4.11-5.49 6.69-7.75 6.69-1.31 0-3.86-1.42-5.03-2.83-.6-.67-1.88-2.44-2.83-3.89-.99-1.45-2.55-3.75-3.43-5.06-.92-1.35-1.66-2.51-1.66-2.62s-.46-.78-1.03-1.49c-.53-.71-2.66-3.75-4.71-6.76-3.54-5.28-6.41-9.45-10.44-15.29-1.03-1.52-1.88-2.83-1.88-2.94 0-.46-3.36-4.67-4.18-5.2-1.29-.88-4.16-.88-5.47.01"/></svg>