<svg xmlns="http://www.w3.org/2000/svg" xml:space="preserve" viewBox="0 0 72 72"><path d="M47.2 27.5c-5.3.3-10 1.9-13.8 5.6s-5.6 8.2-5.1 13.9c-2.1-.3-4-.5-5.9-.7-.7-.1-1.4 0-2 .3-1.9 1-3.6 2.2-5.8 3.6.4-1.8.6-3.3 1.1-4.8.3-1.1.2-1.7-.8-2.4-6.4-4.5-9.1-11.3-7.1-18.3 1.9-6.5 6.5-10.4 12.7-12.4 8.5-2.8 18.1.1 23.3 6.8 2 2.4 3.1 5.2 3.4 8.4m-24.6-2.2c.1-1.3-1.1-2.4-2.4-2.5-1.3 0-2.5 1-2.5 2.3s1 2.4 2.3 2.5c1.4.1 2.6-1 2.6-2.3m12.8-2.4c-1.3 0-2.4 1.1-2.4 2.4s1.1 2.4 2.5 2.4 2.4-1.1 2.4-2.4c0-1.4-1.1-2.5-2.5-2.4"/><path d="M59.2 60.8c-1.7-.8-3.2-1.9-4.9-2.1-1.6-.2-3.4.8-5.1 1-5.2.5-10-.9-13.8-4.5-7.4-6.8-6.3-17.3 2.2-22.9 7.6-5 18.7-3.3 24.1 3.6 4.7 6 4.1 14-1.6 19.1-1.6 1.5-2.2 2.7-1.2 4.6.2.3.2.8.3 1.2M40 42.2c1.1 0 2-.8 2-1.9s-.9-2.1-2-2.1-2.1 1-2 2.1c0 1 .9 1.9 2 1.9m12.4-4c-1 0-1.9.8-2 1.9 0 1.1.8 2.1 2 2.1 1.1 0 1.9-.8 2-1.9 0-1.2-.9-2.1-2-2.1"/></svg>