<svg xmlns="http://www.w3.org/2000/svg" xml:space="preserve" viewBox="0 0 1230 526"><path d="M829.89 25.9c7.37-7.3 17.76-11.8 28.23-10.82 6.93.24 14.25 4.48 16.1 11.49 1.91 7.4.39 15.12-1.34 22.4-2.83 11.55-6.69 22.82-9.48 34.38-6 22.65-11.88 45.37-15.86 68.48-.54 3.32-1.4 6.65-1.33 10.04 3.76 4.21 9.32 6.56 12.59 11.32 7.21 9.44 5.73 22.63 1.36 32.96-3.84 9.3-14.02 14.39-23.73 14.48-.6 4.44-1.07 8.9-1.44 13.37-1.32 15.33-3.68 30.56-4.61 45.92-1.09 13-1.41 26.05-1.31 39.09.14 13.12 2.11 26.65 8.75 38.18 2.29 4.29 5.83 8.09 6.64 13.04.94 6.43-.37 13.14-3.38 18.88-5.48 9.81-16.01 16.37-27.12 17.58-7.12.61-14.54-1.1-20.35-5.33-4.1-2.93-7.03-7.14-9.65-11.37-5.63-9.13-8.88-19.56-10.54-30.11-1.41-9.21-.81-18.55-.6-27.81-8.48 9.43-17.51 18.47-27.89 25.81-16.31 11.77-34.39 22.35-54.63 25.18-8.88 1.22-18.62 1.99-26.73-2.55-5.52-2.95-9.29-8.13-12.53-13.32-7.34 14.03-23.04 23.72-39.02 22.47-8.54-.68-15.57-6.6-20.61-13.13-7.31-9.78-10.72-21.78-13.37-33.52-4.29-18.76-3.43-38.18-2.19-57.23.55-8.32 2.31-16.51 2.46-24.86-4.22 1.2-8.37 2.83-11.92 5.46-10.65 7.58-18.01 18.81-23.7 30.37-9.17 18.31-14.47 38.21-19 58.08-1.73 8-3.97 15.88-6.3 23.73-2.28 7.94-7.53 14.76-13.87 19.93-4.77 3.91-10.89 5.53-16.87 6.43-3.97.56-8.16.73-11.94-.77-4.03-1.59-7.22-4.85-9.19-8.65-3.76-7.24-5.27-15.42-5.69-23.5-.68-12.56-.13-25.16.92-37.68 1.11-9.18 1.38-18.46 3.14-27.56 4.32-25.66 9.44-51.23 16.7-76.24 3.79-12.13 7.45-24.57 14.71-35.17 5.04-7.8 11.89-14.41 19.92-19.09 6.83-3.96 15-5.36 22.81-4.48 5.5.62 10.56 4.23 12.97 9.2 2.29 5.35 1.59 11.44.06 16.89-3.86 13.12-10.1 25.35-14.89 38.12 4.07-4.9 7.65-10.21 11.9-14.97 13.76-15.4 30.07-29.54 50.08-35.91 8.36-2.72 18.14-3.83 26.07.75 8.69 5.27 13.5 15.39 14.25 25.29.77 10.93.07 21.94-1.88 32.71-1.27 6.9-1.89 13.9-3.13 20.81-2.43 12.29-3.36 24.93-2.29 37.43 1.31 11.59 4.5 24.01 13.59 32.01 1.21-20 5.57-39.8 12.96-58.42 16.24-39.02 44.69-73.03 80.73-95.2 11.36-6.81 23.39-12.48 35.78-17.17 5.97-2.3 12.23-3.72 18.33-5.65 2.38-11.32 3.44-22.85 5.68-34.19 2.04-10.32 3.45-20.78 6.12-30.97 3.1-12.33 5.25-24.91 9.2-37.02 3.17-10.87 8.02-21.66 16.33-29.59m-58.68 198.3c-19.26 9.16-35.2 24.34-47.27 41.77-9.53 13.8-17.3 29.35-19.45 46.16-.24 3.34-.88 6.95.47 10.13 3.05 2.6 7.42.72 10.59-.74 12.1-6.64 22.62-15.96 31.41-26.56 11.87-13.86 21-29.86 28.4-46.47 3.43-9.23 6.8-18.62 7.95-28.44-4.16.98-8.26 2.26-12.1 4.15M305.86 73.86c6.87-5.26 16.43-7.45 24.65-4.29 8.94 3.74 14.3 13.09 15.55 22.39 1.26 9.01-1.82 17.82-5.03 26.08-3.98 10.18-7.11 20.66-10.91 30.91-6.36 17.48-11.2 35.46-16.61 53.25-3.48 13.01-7.34 25.92-10.63 38.98-3.85 14.19-7.24 28.51-10.95 42.74-1.73 8.27-4.4 16.33-5.85 24.67 7.24 1.34 14.45 3.01 21.82 3.48 5.19-16.51 10.67-33.03 18.48-48.52 6.55-13.8 14.85-26.79 24.77-38.41 12.01-13.29 25.97-25.39 42.6-32.48 10.91-4.24 22.54-7.26 34.34-6.58 9.09 0 18.1 3.92 24.18 10.68 5.48 6.13 9.02 14.01 9.79 22.2 1.07 10.65.03 21.44-2.38 31.85-2.67 11.61-6.71 22.96-12.49 33.41-10.22 18.55-24.09 35.11-40.77 48.18-12.2 9.8-26.27 17.33-41.26 21.81-1.22.56-2.86.68-3.58 1.94-.25 3.76.77 7.53 2.36 10.92 2.26 5.01 7.8 7.71 13.06 8.18 5.76.38 11.76-.55 16.84-3.41 6.74-3.74 12.34-9.23 19.17-12.85 4.86-2.65 10.39-4.36 15.98-3.93 6.13.51 11.02 6.05 11.81 11.98 1.21 7.63-1.63 15.13-5.03 21.81-6.84 12.86-17.48 23.46-29.73 31.21-6.94 4.56-14.67 7.83-22.64 10.11-10.01 3.03-20.67 3.06-30.99 2.08-14.93-1.67-27.95-11.23-36.27-23.42-9.82-13.49-13.18-30.25-15.41-46.46-8.87-.99-17.64-2.68-26.51-3.65-6.88 30.29-14.35 60.43-21.98 90.53-1.74 6.67-3.96 13.37-7.94 19.07-3.45 4.94-8.42 8.72-13.95 11.03-11.92 5.05-25.86 6.19-38.04 1.41-4.97-1.89-9.48-5.1-12.57-9.44-4.94-6.83-7.08-15.14-8.84-23.24-4.94-20.28-8.36-40.91-10.63-61.65-2.29-16.06-3.31-32.26-4.75-48.4-.84-10.65-1.26-21.33-1.37-32-.03-4.89-.1-9.82-1.24-14.6-4.22 1.07-5.23 5.6-6.41 9.18-3.48 11.76-7.01 23.51-10.37 35.31-6.01 22.83-12.27 45.58-18.02 68.47-3.4 11.38-5.4 23.1-8.44 34.58-3.61 13.13-6.56 26.43-10.1 39.59-2.09 7.39-2.95 15.33-7.06 21.98-5.68 9.29-14.94 16.05-25.09 19.72-9.46 3.22-19.77 4.77-29.66 2.73-7.23-1.45-12.93-6.89-16.68-13-5.58-9.27-8.11-19.92-10.59-30.34-3.29-13.78-4.99-27.87-5.79-42-1.81-21.5-2.31-43.09-2.49-64.65.38-27.69 1.08-55.38 3.23-82.99.77-19.38 2.2-38.72 3.58-58.07.49-7.64 1.57-15.24 1.68-22.9.31-13.36 1.4-26.72.9-40.09-.41-7.55-1.36-15.46-5.59-21.93-1.78-3.02-4.38-5.67-5.29-9.13.16-4.67 3.97-8.1 7.24-10.99 8.92-7.19 19.82-11.7 31.01-13.92 6.23-1.25 12.67-1.98 18.99-1 6.39.98 12.58 4.53 15.88 10.2 2.55 4.14 3.4 9.05 3.59 13.83.56 12.04-1.1 24.02-1.84 36.02-2.84 28-6.97 55.86-9.33 83.91-1.03 9.5-1.39 19.05-2.45 28.54-.92 8.25-.89 16.58-1.71 24.84-.91 8.87-.91 17.8-1.31 26.71-.25 12.27-.6 24.54-.35 36.81.2 6.79-.23 13.74 1.93 20.29 1.82-.53 4.17-.61 5.02-2.64 3.45-6.41 4.61-13.71 6.49-20.67 5.58-20.53 11.69-40.92 17.6-61.37 2.73-8.64 4.82-17.46 7.76-26.03 6.05-18.13 11.67-36.4 17.78-54.51 4.43-13.41 9.29-26.67 14.07-39.96 4.25-11.18 7.91-22.67 13.71-33.19 3.11-5.59 7.14-10.9 12.66-14.28 6.75-4.03 14.87-5.2 22.61-4.61 9.07.67 18.26 4.96 23.38 12.68 4.29 6.63 4.59 14.81 4.58 22.46-.16 20.65-.97 41.3-.68 61.95.3 10.01.12 20.03.72 30.03.57 9.11.5 18.26 1.22 27.37.88 22.19.9 44.48 4.05 66.51.57 3.13.94 6.53 3.03 9.09 1.23.37 2.83.36 3.67-.8 1.63-2.1 2.1-4.8 2.73-7.32 1.26-6.04 2.54-12.08 3.69-18.14 3.36-18.54 7.63-36.9 11.04-55.44 5.38-24.92 10.66-49.87 17.12-74.54 7-27.35 14.48-54.57 22.73-81.57 3.64-11.52 7.86-22.88 13.15-33.75 3.88-7.63 8.48-15.25 15.36-20.54m103.67 161.48c-4.12 1.03-7.62 3.64-10.8 6.36-8.44 7.41-14.9 16.71-21.03 26.04-4.5 6.77-8.11 14.08-11.5 21.46-3.26 7.29-5.91 14.95-6.73 22.94 4.77-1.35 9.21-3.61 13.31-6.36 9.26-5.78 17.69-12.94 24.56-21.45 5.11-6.4 10.03-13.07 13.46-20.56 2.88-6.23 5.4-12.85 5.47-19.81-.02-2.33-.13-4.87-1.5-6.85-1.17-1.63-3.33-2.35-5.24-1.77m672.91-135.66c7.16-1.19 15.04-.44 21.16 3.75 6.06 4.33 10.39 11.15 11.28 18.6 1.76 13.2.09 27.03-5.8 39.06-3.54 8.15-9.31 15.55-17.18 19.88-5.02 2.72-11.08 2.82-16.53 1.51-6.12-1.45-11.27-7.01-11.62-13.39-.6-5.88 1.68-11.45 3.54-16.89 2.43-6.99 3.44-14.59 2.1-21.91-1.11-5.93-2.3-12.07-.93-18.06 1.52-6.53 7.55-11.33 13.98-12.55m-192.02 77.73c6.18-7.44 14.34-13.6 23.82-16.01 5.97-1.28 12.32-1.46 18.26.14 7.9 2.31 13.21 10.3 13.38 18.37.57 9.15-3.21 17.77-7.32 25.71-6.79 13.14-11.65 27.2-15.43 41.48-4.1 13.92-6.54 28.36-7.05 42.88-.31 6.87-.45 13.8.56 20.63.47 2.79 1.07 5.67 2.66 8.07 1.66 2.48 4.94 2.95 7.71 2.81 3.49-.14 6.65-1.96 9.19-4.26 6.59-5.92 11.61-13.32 16.27-20.79 6.4-10.3 11.46-21.42 15.11-32.99 4.22-12.83 8.7-25.59 12.52-38.55 5.28-15.65 9.52-32.02 18.97-45.82 5.82-8.25 14.18-15.36 24.29-17.4 6.86-1.19 14.63-.8 20.34 3.62 5.62 4.37 7.91 11.73 8.26 18.6.88 16.89-4.69 33.09-8.5 49.31-3.42 15.19-7.5 30.23-10.43 45.53-2.72 15.37-5.81 30.69-7.45 46.23-2.24 16.42-3.97 32.9-5.35 49.41-1.99 17.54-3.39 35.31-8.57 52.27-3.87 12.21-7.56 24.68-14.38 35.64-8.85 14.31-20.61 26.98-34.73 36.2-15.09 9.13-32.05 15.02-49.45 17.78-12.53 2.11-25.48 2.83-38.01.38-10.61-2.31-21.13-7.08-28.38-15.37-7.37-8.33-9.95-20.29-7.34-31.02 1.38-5.42 5.6-9.86 10.67-12.04 4.81-1.97 10.13-1.09 15.1-.32 11.5 2.05 23.27 2.29 34.88 1.33 10.46-.84 20.79-3.92 29.77-9.4 7.75-4.77 14.01-11.74 18.44-19.66 6.29-10.48 10.63-22.14 12.48-34.23 2.53-16.27 3.4-32.73 5.74-49.03-4.69 5.79-9.32 11.68-14.9 16.65-10.87 9.99-22.88 19.69-37.39 23.61-10.36 2.97-22.17 1.03-30.67-5.7-5.96-4.66-9.92-11.29-13.16-18-6.79-13.47-9.53-28.56-10.9-43.45-1.39-23.22-.35-46.61 3.33-69.58 2.9-16.47 6.41-33.01 13.15-48.4 3.72-8.79 8.43-17.24 14.51-24.63m269.05-10.69c9.96-.99 20.29-.58 29.77 2.92 9.37 3.3 17.64 10.19 21.86 19.28 2.51 5.35 4.19 11.13 4.51 17.05.57 10.72-.24 21.88-5.01 31.68-2.65 5.32-6.12 10.57-11.35 13.64-5.44 3.26-12.12 3.7-18.24 2.62-4.63-.83-9.3-3.08-11.89-7.15-3.17-5-4.07-10.95-5.38-16.6-.48-1.64-.81-3.7-2.57-4.44-3.51-1.51-7.47-.54-10.96.49-8.96 3.08-17.69 7.82-23.75 15.27-2.31 2.82-3.72 6.74-2.6 10.34 1.1 2.51 3.39 4.19 5.44 5.9 7.51 5.84 15.82 10.56 24.31 14.81 7.62 3.88 15.42 7.48 22.47 12.36 9.92 6.54 18.99 14.94 24.45 25.63 3.27 6.31 3.92 13.6 3.3 20.58-1.26 12.72-6.59 25.09-15.02 34.69-12.95 14.04-30.28 23.59-48.57 28.69-13.95 4.5-28.72 5.85-43.31 5.42-9.06-.28-18.04-2.19-26.51-5.37-7.64-2.93-14.75-7.79-19.31-14.67-3.6-5.46-6.78-11.41-7.77-17.95-1.63-10.23.81-21.7 8.58-28.97 5.01-4.37 11.45-7.25 18.1-7.76 7.52-.45 14.25 3.54 20.29 7.54 8.12 5.42 18.15 6.77 27.71 6.78 5.78-.05 12.06-1 16.54-4.97 1.44-1.12 1.74-3.27.87-4.83-1.57-2.76-4.26-4.62-6.78-6.42-10.08-6.81-21.57-11-32.37-16.42-10.33-5.15-20.33-11.47-27.97-20.23-5.08-5.74-8.96-12.86-9.64-20.6-1.32-12.47 2.58-24.9 8.66-35.67 15.04-26.19 39.6-46.53 67.67-57.44 7.83-3.13 16.09-5.2 24.47-6.2m49.96 215.9c4.96-1.48 10.9-.53 14.45 3.48 3.42 3.53 4.38 9.01 2.97 13.64-1.72 5.37-7.23 9.19-12.85 9.07-3.89.07-7.74-1.61-10.33-4.5-3.51-3.7-4.46-9.53-2.53-14.21 1.57-3.48 4.61-6.36 8.29-7.48m.11 2.94c-6.42 2.8-7.89 12.17-3.16 17.13 3.48 4 10.3 4.53 14.22.89 4.74-4 4.75-12.2.13-16.28-2.94-2.74-7.56-3.37-11.19-1.74"/><path d="M1208.88 388.79c3.7-.41 7.5-.29 10.92 1.35-1.18 3.9-1.11 7.99.01 11.9-.62.02-1.87.05-2.49.06-.89-1.66-1.75-3.33-2.63-4.98l-2.5-.08c-.25 1.9-.48 3.79-.7 5.7-.6-.01-1.8-.03-2.4-.03-.57-4.63-.59-9.29-.21-13.92m3.14 2.04c.09 1.46.19 2.92.31 4.4a74 74 0 0 1 4.93-1.82c-.4-.57-1.21-1.7-1.61-2.27-1.23-.1-2.44-.21-3.63-.31"/></svg>