<svg xmlns="http://www.w3.org/2000/svg" xml:space="preserve" viewBox="0 0 256 258"><path d="M128.53 0c34.1.02 66.1 13.29 90.17 37.38s37.31 56.12 37.3 90.17c-.03 69.58-56.08 126.32-125.36 127.45l-2.1.02h-.05c-21.01-.01-41.65-5.19-60.05-15.05l-.86-.47L0 257.23l18.08-66.05C6.93 171.85 1.06 149.92 1.07 127.46 1.1 57.18 58.28 0 128.53 0m.05 21.53c-58.44 0-105.96 47.52-105.99 105.94-.01 19.71 5.42 38.92 15.72 55.61l.48.77 2.52 4.01-10.7 39.09 40.1-10.52 3.87 2.29c16.01 9.5 34.32 14.6 53.02 14.76h.94c58.39 0 105.92-47.53 105.94-105.94.01-28.31-11-54.93-31-74.95s-46.6-31.05-74.9-31.06M83.41 68.59c2.12 0 4.25.02 6.1.11 1.96.1 4.58-.74 7.16 5.47.99 2.38 2.5 6.06 4.04 9.81l.33.81c2.48 6.04 4.97 12.07 5.45 13.03.8 1.59 1.33 3.46.26 5.58-1.06 2.13-1.59 3.45-3.18 5.32-1.59 1.86-3.34 4.15-4.78 5.58l-.23.23-.23.24c-1.42 1.47-2.61 3.15-.93 6.03 1.86 3.19 8.25 13.62 17.72 22.07 12.17 10.85 22.43 14.21 25.61 15.81 3.18 1.59 5.04 1.33 6.9-.8 1.86-2.12 7.96-9.3 10.08-12.49s4.25-2.66 7.17-1.59c1.39.51 5.65 2.51 10.09 4.65l1.38.67c4.44 2.15 8.78 4.29 10.29 5.05 3.19 1.6 5.31 2.39 6.1 3.72.8 1.33.8 7.71-1.86 15.15-2.65 7.44-15.38 14.23-21.5 15.15-5.49.82-12.43 1.16-20.06-1.26-4.62-1.47-10.56-3.43-18.16-6.71-31.95-13.79-52.81-45.97-54.41-48.09l-.11-.14c-1.94-2.59-12.9-17.44-12.9-32.8 0-15.67 8.23-23.38 11.15-26.57 2.94-3.23 6.4-4.03 8.52-4.03"/></svg>