<svg xmlns="http://www.w3.org/2000/svg" xml:space="preserve" viewBox="0 0 72 72"><path d="M34 7.2c-1.1 0-2.3.4-3.1 1.1-1.5 1.3-3 2.6-2.9 4.4.1 1.7 1 2.7 1 2.7s.7.5 0 1-8.6 5.5-8.2 15.9c0 0 .2 2.7-.1 5.6-.2 2.1.5 4.6.9 5.8 0 0 .2.5-.2.2-2.1-1.3-3.9-3.4-5.4-5.9-1.3-2.4-2.1-5.3-2.1-8.3 0-6.4 3.5-11.9 8.6-14.8-7 1.9-12.2 8.5-12.2 16.3 0 .6 0 1.2.1 1.8.1 1.3.2 3.5.6 4.3.6 1.3.5 4.1.5 4.5 0 .5.2 15.7 9.1 15.6 0 0 4.3.1 4.3-1.6 0-1.5-.4-1.7-.8-2.6-.4-.8-.7-.9-.5-3.6 0 0 0-.6.2-.6s2.7 7.4 5.9 11.3 6.5 4.3 8.9 4.3c0 0 4.6 0 4.6-2.3s-2.1-1.4-2.1-8.7 3.5-7 4-5.2c.4 1.8.8 3.2.1 8.1-.7 4.8 1.2 5.4 3 5.4s11.2.3 12.9-26.7c0 0 .2-4.4-1.2-8.1 0 0 .6 7.2-3.9 11s-7 3.3-7 3.3-2.2-.2-3 .9c-.9 1.1-.7 1.8-2.6 1.3-1.8-.6-1.9-1-3.6-.8s-2.7.4-3.4-1-1.4-2.3-2.8-2.5c-1.4-.3-7.5-3.2-7.3-11.3.2-7.6 3.6-10.2 3.6-10.2s.6-.6 1.1-.4c.6.3 1.5.3 2.6-.7s1.8-1.7 3.7-2.4c0 0 1.3-.2 1.3-1.5s-1.1-4.3-2.5-5.1c-.4-.3-1.2-.5-2.1-.5M38.7 44c.3 0 .8.2 1.2.4.7.3 2.3.1 2.9.1s1 .2.5.8c-.7.8-1.5.8-2.5.8-1 .1-2.1-.9-2.1-.9-.1-.1-.6-.6-.3-1 0-.2.1-.2.3-.2m-5.3-16.4c1.2-1.5 1.8-1.6 2.9-1.6 1 0 2.5.7 2.9 2.3.5 1.7.7 2-1 4-1.2 1.4-3.3 4.5-5.5 2.5-2.2-2.1-1.4-4.7.7-7.2m19.3 2.7c-.7-1.7-1.3-2.1-2.3-2.4a3 3 0 0 0-3.4 1.3c-1 1.5-1.3 1.7-.3 4 .7 1.7 1.9 5.3 4.5 4.1 2.7-1.2 2.7-4 1.5-7M41.3 41.8c.5-.9 1.8-1.2 2.6-1.2 1 0 1-.9 1-.9s.1-.9-3.4-1.2-3.6.6-3.6.6-.2.8.8 1c.7.2 1.9.7 2.3 1.6 0 .3.2.3.3.1m16.6-21.1c-.6.2-1.5.1-2.5-.9-1-1.1-1.6-1.9-3.5-2.8 0 0-1.3-.4-1.1-1.7s1.6-4.1 3.1-4.8 4-.3 5.3 1.2c1.3 1.4 2.7 2.9 2.4 4.7-.2 1.7-1.3 2.6-1.3 2.6-.5.5-2.4 1.7-2.4 1.7"/></svg>