<svg xmlns="http://www.w3.org/2000/svg" xml:space="preserve" viewBox="0 0 360 180"><path d="M41.6 50h15.1s3.9-.7 5.5 3.3C64 58 71.5 88 71.5 88l10.7-15.8S77.8 50 85.5 50.1c9.2.1 14.4 0 14.4 0s3.7-.4 6 5.8c2.7 7.2 9.3 32.6 9.3 32.6l15.2-34.8s2.1-3.7 5.5-3.7c3.6 0 5.8 2.5 5 5.4-1.2 4.4-26.4 70.7-26.4 70.7s-1.7 4-5.2 4-5-2.1-6.9-6.9c-2.1-4.9-14-37.2-14-37.2l-18 40.9S69 130 66.2 130c-3.3 0-4.6-1.5-6.3-4.6S37 61.7 37 61.7 32.8 50 41.6 50m111.6 0h15.1s3.9-.7 5.5 3.3c1.8 4.7 9.3 34.7 9.3 34.7l10.7-15.8s-4.4-22.2 3.3-22.1c9.2.1 14.4 0 14.4 0s3.7-.4 6 5.8c2.7 7.2 9.3 32.6 9.3 32.6L242 53.7s2.1-3.7 5.5-3.7c3.6 0 5.8 2.5 5 5.4-1.2 4.4-26.4 70.7-26.4 70.7s-1.7 4-5.2 4-5-2.1-6.9-6.9c-2.1-4.9-14-37.2-14-37.2l-18 40.9s-1.4 3.1-4.2 3.1c-3.3 0-4.6-1.5-6.3-4.6-1.7-3.2-22.9-63.8-22.9-63.8S144.4 50 153.2 50M265 130.1s-5.2.4-5.2-7.7V55s0-5.1 7.4-5.1h50.7s6.1-.3 6.1 5.6-5.7 5.3-5.7 5.3h-30.2s-3.6 0-3.6 3.4v16.6h23.3s6.3 0 6.3 4.9-5.3 5.2-5.3 5.2h-24.5v32.4s.4 6.6-3.9 6.6c-2.9.2-15.4 0-15.4.2"/></svg>