<svg xmlns="http://www.w3.org/2000/svg" xml:space="preserve" viewBox="0 0 360 180"><path d="M85 66H72.8L60.9 82.3 48.8 66H36.7l18 23.7L36 113.4h12.2l12.7-17 12.5 17h12.2L67 88.8zm11.1.3h10v47.4h-10zm217.9 0h10v47.4h-10zm-33-.6h-1.2c-6.3 0-10.9 2-13.7 6-2.9-4-7.5-6-13.7-6h-1.2q-9 0-13.2 4.5c-2.9 2.9-4.3 7.7-4.4 14.2v29.3h8.6V86.6c0-4.2.7-7.2 2.3-8.9 1.5-1.7 4-2.6 7.4-2.6 3.5 0 6.2.9 7.7 2.7 1.5 1.9 2.3 5 2.3 9.3v26.6h8.5V87.1c0-4.3.8-7.4 2.3-9.2 1.5-1.9 4.1-2.8 7.6-2.8s6 .9 7.4 2.6c1.5 1.7 2.3 4.7 2.3 8.9v27.1h8.6V84.4c0-6.5-1.5-11.2-4.3-14.2s-7.3-4.5-13.3-4.5m-81.5 0h-1.6c-7.5 0-12.9 1.9-16.4 5.6-3.4 3.7-5.1 9.7-5.1 17.7v1.9c0 8 1.7 14 5.1 17.7 3.5 3.7 9 5.6 16.4 5.6h1.6c7.5 0 12.9-1.9 16.4-5.6 3.4-3.7 5.1-9.7 5.1-17.7V89q0-12.15-5.1-17.7c-3.5-3.7-9-5.6-16.4-5.6m9.3 36c-1.8 2.1-5.2 3.1-10.1 3.1-5 0-8.3-1-10.1-3.1s-2.7-6.1-2.7-11.9.9-9.7 2.7-11.8 5.2-3.1 10.1-3.1c5 0 8.3 1 10.1 3.1s2.7 6 2.7 11.9c0 5.8-.9 9.7-2.7 11.8m-68.7-35.4c-5.6 0-10.9.4-14.7 1.4v7.8c3.3-.9 9.2-1.5 15.5-1.5 7.7 0 12.5 1.1 12.5 7.4v4.5h-12.1c-13.1 0-21.6 3.5-21.6 14.5 0 9.7 7.2 13.9 22.5 13.9 16.1 0 22.4-4.8 22.4-13.9V81.2c.1-11.6-9.4-14.9-24.5-14.9m13.4 33.5c0 5.9-4.8 6.8-11.3 6.8-6 0-11.1-.7-11.1-6.6 0-4.8 3.1-6.7 10.3-6.7h12.1z"/></svg>