<svg xmlns="http://www.w3.org/2000/svg" xml:space="preserve" viewBox="0 0 72 72"><path d="M36 7.224c-15.9 0-28.8 12.9-28.8 28.8s12.9 28.8 28.8 28.8 28.8-12.9 28.8-28.8-12.9-28.8-28.8-28.8m0 54.3c-14.1 0-25.6-11.4-25.6-25.5s11.4-25.6 25.6-25.6 25.6 11.4 25.6 25.6c-.1 14.1-11.5 25.5-25.6 25.5"/><path d="m56.9 47.624-4.2-4.9-.2-.2c-.2-.1-.5-.1-.7 0-.6.3-1.4.3-2.1-.1-.6-.3-1-.9-1.1-1.5-.3-1.6-1.2-3-2.7-3.9l-1.9-1.1 10.6-6.1-1.3-2.3-12 6.9-1.4-.8v-1.7l12-6.9-1.3-2.3-10.6 6.1v-2.2c0-1.7-.8-3.3-2-4.3-.5-.4-.8-1-.8-1.7 0-.8.4-1.4 1-1.8q.3-.15.3-.6v-.2l-2.1-6.1c-.1-.2-.2-.3-.4-.3s-.4.1-.4.3l-2.1 6.1v.2c0 .2.1.5.3.6.6.4 1 1.1 1 1.8s-.3 1.3-.8 1.7c-1.2 1-2 2.6-2 4.3v2.2l-10.6-6.1-1.3 2.3 12 6.9v1.7l-1.4.8-12-6.9-1.3 2.3 10.6 6.1-1.9 1.1c-1.5.9-2.4 2.3-2.7 3.9-.1.6-.5 1.2-1.1 1.5-.7.4-1.4.4-2.1.1-.2-.1-.5-.1-.7 0-.1 0-.1.1-.2.2l-4.2 4.9c-.1.1-.1.3-.1.5.1.2.3.2.5.2l6.3-1.2c.1 0 .2 0 .2-.1.2-.1.3-.3.4-.6.1-.7.4-1.4 1.1-1.7.6-.3 1.3-.4 1.9-.2 1.5.5 3.2.4 4.7-.4l1.9-1.1v12.3h2.6v-13.8l1.4-.8 1.4.8v13.8H40v-12.3l1.9 1.1c1.5.9 3.2 1 4.7.4.6-.2 1.3-.2 1.9.2.7.4 1 1 1.1 1.7 0 .2.1.4.4.6.1 0 .1.1.2.1l6.3 1.2c.2 0 .4 0 .5-.2s.1-.4-.1-.5m-25-7.6-3.5 2c-.7.4-1.6.2-2-.5s-.2-1.6.5-2l3.5-2 1.4.8v1.7zm2.7-13.6c0-.8.6-1.4 1.4-1.4s1.4.6 1.4 1.4v4.1l-1.4.8-1.4-.8zm3.1 10.5-1.7 1-1.7-1v-1.9l1.7-1 1.7 1zm7.8 4.6c-.4.7-1.3.9-2 .5l-3.5-2v-1.7l1.4-.8 3.5 2c.8.4 1 1.3.6 2"/></svg>