<svg xmlns="http://www.w3.org/2000/svg" xml:space="preserve" viewBox="0 0 360 180"><path d="M309.2 147 266.6 29.5v-.1h-.8L257 53.5l-16 43.9c-5.5-4.9-13.4-7.9-23.2-9.1l-3-.3 3-.4C234 84.7 245 74.4 245 62.1c0-17-15.9-28.8-38.8-28.8h-47.5v.9h13.8v87.6L139 29.5v-.1h-.8l-8.8 24.1-33.9 93.1h-.2c-.6.1-1.2.1-1.7.2-.9.1-1.7.1-2.5.1H56.5l65.1-112.7.5-.8H42.5v34.9h.8c.2-17 10-34 31.9-34h26.4L36 147.8h88.4v-33.4h-.8c-.1 14.8-8.5 28.9-26.8 32l-.6.1 13.9-38.2H149l14 38.6h-13.8v.8h54.3v-.7h-13.9V88.7h16c16.3 0 25.7 7.3 25.7 20V119c0 1.1.1 2.8.2 4.2v.1l-8.6 23.7h-11.3v.8h23.3v-.8h-11.1l7.9-21.6v.3l.2 1.9.2 1.3c1.3 8 4.4 13.8 9 17.4l.7.5c3.6 2.5 8 3.7 13.2 3.7 6.9 0 11.4-1.7 15.2-5.7l-.5-.5c-3.5 3.2-6.4 4.5-10 4.5-6.2 0-9.5-7.6-9.5-15v-14.5c0-3.6-.5-7.2-1.7-10.6l-.2-.4h28.5l14 38.6H277v.8h47v-.7zm-198.8-39.5 19.2-52.7 19.1 52.7zm79.2-19.6V34.2h12.2c16.4 0 25 9.7 25 28.1 0 19.6-5 25.5-21.2 25.5zm58.4 19.6-.1-.2c-1.3-3.1-3.1-5.9-5.4-8.3l-.8-.8-.1-.1 15.8-43.3 19.1 52.7z"/></svg>