<svg xmlns="http://www.w3.org/2000/svg" xml:space="preserve" viewBox="0 0 360 180"><path d="M128.7 124.1c1.1 1.1 1.7 2.6 1.7 4.2 0 1.8-.8 3.2-1.7 4.2-1.8 1.8-4.1 3.6-7.3 4.9-2.7 1.1-5.6 1.7-8.5 1.7H58.3c-6.2 0-11.7-2.5-15.8-6.5-4-4-6.5-9.6-6.5-15.8V62.2c0-6.2 2.5-11.7 6.5-15.8 4-4 9.6-6.5 15.8-6.5h54.5c2.9 0 5.8.6 8.5 1.7 3.6 1.5 5.9 3.3 8.1 5.7.9 1 1.7 2.4 1.7 4.2 0 1.5-.6 3-1.7 4.2-1.1 1.1-2.6 1.7-4.2 1.7s-3.1-.6-4.2-1.7c-1.6-1.6-2.4-2.4-4.2-3.1-1.3-.6-2.7-.8-4.1-.8H58.3c-2.9 0-5.5 1.2-7.4 3.1s-3.1 4.5-3.1 7.4v54.5c0 2.9 1.2 5.5 3.1 7.4s4.5 3.1 7.4 3.1h54.5c1.5 0 2.8-.3 4.1-.8s2.4-1.3 3.4-2.3c1.1-1.1 2.6-1.7 4.2-1.7 1.6-.1 3.1.4 4.2 1.6m-16-7c-.2-4.3-3.1-10.9-10.4-11.8h-26l30-28.7c1.3-1.2 4.1-5.3 2.1-9.7-1.6-3.5-4.3-5.1-9.1-5.1H61.9c.1 5 2.6 10.9 9.2 11.9h21.3l-31.5 29.7c-1.3 1.2-3.4 5-1.7 8.8 1.5 3.5 4 4.9 8.7 4.9zm85.4-27v22c0 8.1-2.5 15.2-8.1 20.9-5.1 5.1-11.5 7.2-18.5 7.2-13.8 0-20.9-10.7-20.9-10.7 3.7-3.7 8.9-6 13.9-2.9.9.5 3.4 1.9 7 1.9 12.8 0 14.8-11.4 14.8-14.8-4.4 2.7-9.4 4-15 4-7.2 0-13.5-2.3-18.8-6.8l-.1-.1c-5.2-5-7.8-11.1-7.9-18.2v-7.2c0-7 2.7-13.1 7.9-18.1s11.6-7.6 18.9-7.6c9.7 0 16.8 4.8 20.1 8.8.8 1 1.3 2.3 1.3 3.7 0 1.6-.7 3.1-1.7 4.2-1.1 1.1-2.6 1.7-4.2 1.7s-3.2-.7-4.2-1.7c-3.7-3.8-7.2-5-11.3-5s-7.5 1.4-10.4 4.2c-2.9 2.7-4.3 5.9-4.3 9.8-.1 1.7-.1 5.4 0 7.1 0 4.1 1.4 7.2 4.3 10 3 2.8 6.5 4.1 10.4 4.1 4 0 7.4-1.3 10.5-4.1 1.6-1.5 2.7-3.2 3.4-5 .6-1.5 1.7-4.6 5.7-6.2 3.4-1.4 7.2-1.2 7.2-1.2m55.8 1.1c-4 1.6-5.1 4.7-5.7 6.2-.7 1.9-1.8 3.5-3.4 5-3 2.8-6.5 4.1-10.5 4.1s-7.4-1.3-10.4-4.1c-2.9-2.8-4.3-5.9-4.3-10-.1-1.7-.1-5.3 0-7.1 0-4 1.4-7.1 4.3-9.8 2.9-2.8 6.3-4.2 10.4-4.2s7.6 1.2 11.3 5c1 1 2.5 1.7 4.2 1.7 1.6 0 3.1-.7 4.2-1.7 1.1-1.1 1.7-2.6 1.7-4.2 0-1.4-.5-2.7-1.3-3.7-3.3-4-10.4-8.8-20.1-8.8-7.3 0-13.6 2.5-18.9 7.6-5.2 5-7.8 11.1-7.9 18.1v7.2c0 7.1 2.7 13.2 7.9 18.2l.1.1c5.3 4.5 11.6 6.8 18.8 6.8 5.6 0 10.5-1.3 15-4 0 3.4-2.1 14.8-14.8 14.8-3.6 0-6.2-1.4-7-1.9-5.1-3-10.2-.8-13.9 2.9 0 0 7.1 10.7 20.9 10.7 7 0 13.4-2.1 18.5-7.2 5.6-5.6 8.1-12.7 8.1-20.9V90c-.1.1-3.9-.1-7.2 1.2m70.1-5.8c0-7-2.7-13.1-7.9-18.1-5.3-5-11.6-7.6-18.9-7.6s-13.6 2.5-18.9 7.6c-5.2 5-7.8 11.1-7.9 18.1v7.2c0 7.1 2.7 13.2 7.9 18.2l.1.1c5.3 4.5 11.6 6.8 18.8 6.8s13.5-2.3 18.8-6.8l.1-.1c5.2-5 7.8-11.1 7.9-18.1zm-26.8 21.2c-4 0-7.4-1.3-10.4-4.1-2.9-2.8-4.3-5.9-4.3-10-.1-1.7-.1-5.3 0-7.1 0-4 1.4-7.1 4.3-9.8 2.9-2.8 6.3-4.2 10.4-4.2s7.5 1.4 10.4 4.2c2.9 2.7 4.3 5.8 4.3 9.8.1 1.6.1 5.3 0 7.1 0 4-1.4 7.2-4.3 9.9s-6.4 4.2-10.4 4.2m-162-44.7c-6.2 0-11.8 5.2-11.8 10.8v44.5c6.2 0 11.8-5.2 11.8-10.8z"/></svg>