<svg xmlns="http://www.w3.org/2000/svg" xml:space="preserve" viewBox="0 0 391 402.7"><path d="M133.09 323.25c2.47.01 3.67-1.7 4.37-3.73l1.79-6.67c3.82-14.37 10.71-40.4 11.2-42.25.5-1.85 1.52-4.4 1.52-4.4.25-.73.69-1.86-.31-2.29l-5.14-.02-2.6-.01c-.63 0-1.14.55-1.14 1.18 0 .28.11.53.26.73 0 0 1.35 1.64 1.23 2.12-.14.49-10.56 39.75-10.56 39.75l-7.96-36.04c-.65-3.17-1.26-7.72-5.34-7.71l-13.88-.02c-.62 0-1.12.5-1.12 1.13 0 .44.25.83.62 1.02l.45.23c3.08 1.8 3.28 5.26 4.04 8.75l1.49 6.24s-6.62 21.02-8 24.89l-7.8-34.58c-.65-3.17-1.27-7.71-5.34-7.7l-13.88-.01c-.63 0-1.13.5-1.13 1.13 0 .44.26.82.63 1.01l.44.24c3.09 1.8 3.28 5.25 4.04 8.73l9.24 40.53c.65 3.17 1.26 7.73 5.34 7.71l5.83.01h1.31c2.45.01 3.64-1.65 4.35-3.65l2.09-6.83 5.23-17.24c.2-.29.12-.82.6-.92l4.88 20.93c.66 3.17 1.27 7.73 5.35 7.72zm40.31-56.24c0-1.7-1.37-3.13-3-3.13h-10.75c-1.63 0-2.91 1.42-2.91 3.11l.03 42.48c.02 15.73 9.35 15.99 14.98 13.94 4.5-1.64 5.48-2.65 4.24-4.51-.96-1.47-2.62-2.57-2.6-4.06v-47.83zm-8.37-8.3c5.13 0 9.31-3.66 9.31-8.18s-4.17-8.18-9.31-8.18-9.3 3.66-9.3 8.18 4.16 8.18 9.3 8.18m64.17 65.21c6.34-1.04 13.22-5.85 14.61-12.99 2.93-9.7-3.9-17.11-10.34-23.32-2.72-3.05-5.23-5.22-7.6-8.59-6.42-9.06 2.3-11.33 9.37-8.59 2.04.79 3.58 2.11 4.31 2.91.64.7 1.17.39 2.29-1.33 1.16-1.76 1.91-4.75-1.56-6.6l-.6-.28c-2.77-1.33-5.88-2.22-11.39-2.5-9.45-.47-17.19 2.05-19.61 11.49-2.37 10.49 4.37 18.32 11.56 25.34 4 4.32 8.54 9.38 7.57 14.52-1.72 9.09-15.73 2.07-18.2-.49-.67-.69-1.4-.12-2.3 1.33-1.1 1.8-1.9 4.74 1.57 6.59.01 0 6.75 4.71 20.32 2.51"/><path d="M200.64 314.85c-.02 1.48 1.64 2.59 2.61 4.06 1.23 1.87.27 2.87-4.25 4.52-5.62 2.04-14.96 1.78-14.98-13.94l-.02-71.48c0-1.7 1.28-3.07 2.91-3.07h10.74c1.63 0 3 1.39 3 3.09 0 0-.02 24.36-.02 25.84h6.81c.67 0 1.23.55 1.23 1.23l.02 2.99c0 .67-.55 1.23-1.23 1.23h-6.8zm117.74 0c-.03 1.48 1.62 2.59 2.6 4.06.32.49.49.91.49 1.31v.03c-.03 1.11-1.43 1.97-4.74 3.18-5.62 2.05-14.95 1.79-14.97-13.94l-.05-71.42c0-1.71 1.28-3.12 2.92-3.12h10.74c1.64 0 3 1.44 3 3.14zm-55.62-44.22c-2.81 1.13-4.09 2.2-4.71 2.99-.58.75-1.11.49-2.37-1.11-1.55-1.99-2.61-5.75 3.63-7.82 12.78-4.22 34.2-3.06 34.23 12.34.01 2.38 0 37.91 0 37.91-.02 1.49 1.62 2.6 2.6 4.06 1.23 1.86.26 2.87-4.25 4.51-5.62 2.04-14.97 1.78-14.98-13.94l.03-18.86c-10.14 1.2-11.66 5.46-11.73 8.06v13.78c-.03 2.11 1.5 6.11 7.5 2.84 1.92-1.13 2.88.86 1.92 2.69-2.53 4.21-7.03 5.93-11.55 6.33-5.69.31-10.89-3.54-13.52-8.71-2.48-6.32-1.83-15.45 2.33-20.76 6.11-8.01 16.06-8.96 24.37-11.57 0 0 .66-.04.65-.77-.02-3.87.01-7.02 0-9.48.01-7.59-11.35-3.61-14.15-2.49M78.83 323.62c7.58-.01 7.61-4.47 6.71-7.21-.65-2-1.14-2.36-2.18-2.05-1.66.51-5.99 1.31-9.83 1.31l-11.65-.08c-4.98 0-4.39-3.04-4.5-4.33-.84-8.85 14.9-49.6 25.72-71.34 3.01-6.07 2.93-7.93-2.46-7.93l-31.54.02c-7.57 0-7.69 4.5-6.71 7.21.8 2.17 1.14 2.35 2.18 2.04 1.66-.5 4.57-1.31 8.4-1.31h10.21c2.26 0 1.46 1.14 1.18 1.69-4.26 8.27-27.66 59.79-24.75 76.95.99 5.8 5.31 4.97 8.94 5.01zm249.44-193.73c21.2-7.49 21.9 19.07 6.6 31.8 6.45 36.4-26.88 72.06-65.03 75.3-1.06.09-2.11.16-3.16.2h-6.46a72.8 72.8 0 0 1-32.26-9.1c-22.29 8.47-37.94-9.83-23.91-21.27-7.44-10.33-12.29-22.75-13.48-36.35-1.77-20.24 4.87-39.27 17.04-53.64 12.03-14.22 15.9-17.76 12.55-25.65-1.83-4.29-6.12-6.86-13.99-7.75 0 0 3.4-4.17 10.11-5.13 10.81-1.54 20.43 10.98 13.11 23.6-5.44 8.75-13.8 17.12-17.23 22.8-23.25 38.55 9.42 80.55 14.18 82.53 0 0-4.47.3-5.82.59-18.58 3.89-2.76 23.9 16.95 11.73 35.56 26.12 104.31-2.67 83.08-62.92 0 0 2.51-2.34 10.71 1.19 0 0 3.02-1.8 4.29-6.42 3.76-13.63-8.17-22.36-17.12 1.21 0 0-.88 0-2.77-.42-1.88-25.71-34.04-75.55-87.12-38.22-.79-10.42 60.36-48.31 99.73 15.92"/><path d="M253.31 195.71c4.24-.37 7.37-4.1 7-8.34a7.694 7.694 0 0 0-8.34-7c-4.23.36-7.37 4.1-7 8.33.37 4.26 4.11 7.39 8.34 7.01m42.72-22.39a7.7 7.7 0 0 0 7-8.34c-.37-4.24-4.1-7.38-8.34-7-4.24.37-7.37 4.11-7 8.34s4.1 7.36 8.34 7m3.44 15.6c-3.66 6.04-7.14 10.61-12.19 13.28-4.92 2.59-10.37 3.82-17.67 3.97l-.32 2.31c10.85 3.38 18.46 4.02 22.59 1.91l.1-.06c3.96-2.56 7.11-9.28 9.64-20.53z"/></svg>