<svg xmlns="http://www.w3.org/2000/svg" xml:space="preserve" viewBox="0 0 72 72"><path d="M57.89 25.93c7.68-2.71 7.93 6.91 2.39 11.52 2.34 13.18-9.74 26.1-23.56 27.28-.38.03-.76.06-1.14.07h-2.34c-4.2-.18-8.18-1.35-11.69-3.3-8.07 3.07-13.74-3.56-8.66-7.7a26.43 26.43 0 0 1-4.88-13.17 26.4 26.4 0 0 1 6.17-19.43c4.36-5.15 5.76-6.43 4.55-9.29-.66-1.55-2.22-2.48-5.07-2.81 0 0 1.23-1.51 3.66-1.86 3.92-.56 7.4 3.98 4.75 8.55-1.97 3.17-5 6.2-6.24 8.26-8.42 13.96 3.41 29.18 5.14 29.89 0 0-1.62.11-2.11.21-6.73 1.41-1 8.66 6.14 4.25 12.88 9.46 37.78-.97 30.09-22.79 0 0 .91-.85 3.88.43 0 0 1.09-.65 1.55-2.33 1.36-4.94-2.96-8.1-6.2.44 0 0-.32 0-1-.15-.68-9.3-12.33-27.35-31.56-13.83-.28-3.78 21.87-17.5 36.13 5.76"/><path d="M30.74 49.78a2.79 2.79 0 0 0-.48-5.56 2.797 2.797 0 0 0-2.54 3.02 2.785 2.785 0 0 0 3.02 2.54m15.47-8.12a2.79 2.79 0 1 0-3.02-2.54 2.78 2.78 0 0 0 3.02 2.54m1.25 5.66c-1.33 2.19-2.59 3.84-4.42 4.81-1.78.94-3.76 1.38-6.4 1.44l-.12.84c3.93 1.22 6.69 1.46 8.18.69l.04-.02c1.43-.93 2.58-3.36 3.49-7.44z"/></svg>