<!-- Generator: Adobe Illustrator 28.1.0, SVG Export Plug-In . SVG Version: 6.00 Build 0)  -->
<svg version="1.1" id="svg352" xmlns:svg="http://www.w3.org/2000/svg"
	 xmlns="http://www.w3.org/2000/svg" xmlns:xlink="http://www.w3.org/1999/xlink" x="0px" y="0px" viewBox="0 0 72 72"
	 style="enable-background:new 0 0 72 72;" xml:space="preserve">
<g>
	<path d="M12.2,37.9c3.2-1.8,7.5-2.3,11.6-2.5C29.5,35.2,36,36,36,36l3-11.1c0,0-6.5-0.8-12.3-0.6c-7.1,0.2-14.7,1.8-16.5,8.5
		l-3,11.1c0.1-0.2,0.1-0.4,0.2-0.6c-0.7,9,21.6,19.6,43.8,21.3l3-11.1C37.3,52.6,18.2,45.3,12.2,37.9z"/>
	<path d="M64.6,28.6c0.7-9-21.6-19.6-43.8-21.3l-3,11.1c16.9,1.1,36,8.3,42.1,15.8c-3.2,1.8-7.5,2.3-11.6,2.5C42.5,36.8,36,36,36,36
		l-3,11.1c0,0,6.5,0.8,12.3,0.6c7.1-0.2,14.7-1.8,16.5-8.5l3-11.1C64.7,28.3,64.7,28.5,64.6,28.6z"/>
</g>
</svg>
