<!-- Generator: Adobe Illustrator 28.1.0, SVG Export Plug-In . SVG Version: 6.00 Build 0)  -->
<svg version="1.1" id="katman_1" xmlns="http://www.w3.org/2000/svg" xmlns:xlink="http://www.w3.org/1999/xlink" x="0px" y="0px"
	 viewBox="0 0 180 180" style="enable-background:new 0 0 180 180;" xml:space="preserve">
<g>
	<path d="M104.09,15.88H75.98c-20.89,0-37.84,16.95-37.84,37.84v31.77c0,20.89,16.95,37.84,37.84,37.84h28.12
		c20.89,0,37.84-16.95,37.84-37.84V53.73C141.94,32.83,124.99,15.88,104.09,15.88z M81.34,95.91c-3.96,0-7.17-8.08-7.17-18.04
		s3.21-18.04,7.17-18.04c3.96,0,7.17,8.08,7.17,18.04S85.29,95.91,81.34,95.91z M105.29,61.4c0,9.73,0,19.48,0,29.23
		c-3.38,0-6.77,0-10.15,0c-0.05-8.5,0.05-17.03-0.05-25.53c0.05-3.94-3.25-7.65-7.14-7.46c-6.8-0.11-13.56,0-20.36-0.03
		c0,11.01,0,22.01,0,33.02c-3.38,0-6.77,0-10.15,0c0-14.02,0-28.01,0-42.03c11.83,0.03,23.69-0.05,35.58,0.05
		C99.51,48.45,105.77,54.5,105.29,61.4z M117.58,99.32c-3.96,0-7.17-13.3-7.17-29.71c0-16.41,3.21-29.71,7.17-29.71
		s7.17,13.3,7.17,29.71C124.75,86.02,121.54,99.32,117.58,99.32z"/>
	<polygon points="52.23,145 47.41,145 42.67,151.48 37.84,145 33.02,145 40.19,154.41 32.75,163.87 37.6,163.87 42.64,157.07 
		47.65,163.84 52.5,163.84 45.09,154.09 	"/>
	<rect x="56.68" y="145.11" width="3.97" height="18.87"/>
	<rect x="143.38" y="145.11" width="3.97" height="18.87"/>
	<path d="M130.24,144.87h-0.48c-2.51,0-4.32,0.8-5.44,2.4c-1.17-1.6-2.98-2.4-5.46-2.4h-0.48c-2.37,0-4.13,0.59-5.25,1.79
		c-1.15,1.17-1.73,3.06-1.76,5.65v11.67h3.41v-10.79c0-1.68,0.29-2.85,0.91-3.54c0.61-0.69,1.6-1.04,2.96-1.04
		c1.41,0,2.45,0.37,3.06,1.09c0.61,0.75,0.93,1.97,0.93,3.7V164h3.38V153.4c0-1.71,0.32-2.93,0.93-3.68
		c0.61-0.75,1.63-1.12,3.01-1.12s2.37,0.35,2.96,1.04c0.61,0.67,0.91,1.87,0.91,3.54v10.79h3.41V152.3c0-2.59-0.59-4.45-1.71-5.65
		C134.4,145.46,132.64,144.87,130.24,144.87z"/>
	<path d="M97.81,144.87h-0.64c-2.98,0-5.14,0.75-6.53,2.24c-1.36,1.49-2.05,3.84-2.05,7.06v0.75c0,3.2,0.67,5.57,2.05,7.06
		c1.39,1.49,3.57,2.24,6.53,2.24h0.64c2.98,0,5.14-0.75,6.53-2.24c1.36-1.49,2.05-3.84,2.05-7.06v-0.75c0-3.22-0.67-5.57-2.05-7.06
		C102.95,145.61,100.76,144.87,97.81,144.87z M101.51,159.21c-0.72,0.83-2.08,1.25-4.02,1.25c-1.97,0-3.3-0.4-4.02-1.25
		c-0.72-0.83-1.09-2.43-1.09-4.72c0-2.29,0.37-3.86,1.09-4.69c0.72-0.83,2.08-1.25,4.02-1.25c1.97,0,3.3,0.4,4.02,1.23
		c0.72,0.85,1.09,2.4,1.09,4.72S102.23,158.35,101.51,159.21z"/>
	<path d="M74.19,145.11c-2.24,0-4.32,0.16-5.86,0.56v3.12c1.31-0.37,3.68-0.59,6.18-0.59c3.06,0,4.98,0.43,4.98,2.93v1.79h-4.8
		c-5.22,0-8.58,1.41-8.58,5.76c0,3.84,2.88,5.52,8.95,5.52c6.4,0,8.9-1.92,8.9-5.54v-7.62C83.97,146.44,80.19,145.11,74.19,145.11z
		 M79.5,158.46c0,2.35-1.92,2.72-4.5,2.72c-2.37,0-4.4-0.29-4.4-2.64c0-1.89,1.25-2.66,4.08-2.66h4.82V158.46z"/>
</g>
</svg>
