<!-- Generator: Adobe Illustrator 28.1.0, SVG Export Plug-In . SVG Version: 6.00 Build 0)  -->
<svg version="1.1" id="katman_1" xmlns="http://www.w3.org/2000/svg" xmlns:xlink="http://www.w3.org/1999/xlink" x="0px" y="0px"
	 viewBox="0 0 72 72" style="enable-background:new 0 0 72 72;" xml:space="preserve">
<g>
	<path d="M43.5,7.2H28.5c-11.2,0-20.3,9.1-20.3,20.3v17c0,11.2,9.1,20.3,20.3,20.3h15.1c11.2,0,20.3-9.1,20.3-20.3v-17
		C63.8,16.3,54.7,7.2,43.5,7.2z M31.3,50.1c-2.1,0-3.8-4.3-3.8-9.7s1.7-9.7,3.8-9.7s3.8,4.3,3.8,9.7S33.4,50.1,31.3,50.1z
		 M44.2,31.6c0,5.2,0,10.4,0,15.7c-1.8,0-3.6,0-5.4,0c0-4.6,0-9.1,0-13.7c0-2.1-1.7-4.1-3.8-4c-3.6-0.1-7.3,0-10.9,0
		c0,5.9,0,11.8,0,17.7c-1.8,0-3.6,0-5.4,0c0-7.5,0-15,0-22.5c6.3,0,12.7,0,19.1,0C41.1,24.7,44.4,27.9,44.2,31.6z M50.8,51.9
		c-2.1,0-3.8-7.1-3.8-15.9s1.7-15.9,3.8-15.9s3.8,7.1,3.8,15.9S52.9,51.9,50.8,51.9z"/>
</g>
</svg>
