<!-- Generator: Adobe Illustrator 28.1.0, SVG Export Plug-In . SVG Version: 6.00 Build 0)  -->
<svg version="1.1" id="Layer_1" xmlns="http://www.w3.org/2000/svg" xmlns:xlink="http://www.w3.org/1999/xlink" x="0px" y="0px"
	 viewBox="0 0 72 72" style="enable-background:new 0 0 72 72;" xml:space="preserve">
<path d="M36,7.2C20.1,7.2,7.2,20.1,7.2,36S20.1,64.8,36,64.8S64.8,51.9,64.8,36S51.9,7.2,36,7.2L36,7.2z M49.2,48.7
	c-0.5,0.8-1.6,1.1-2.5,0.6c-6.8-4.1-15.3-5.1-25.3-2.8c-1,0.2-1.9-0.4-2.1-1.4s0.4-1.9,1.4-2.1c11-2.5,20.4-1.4,28,3.2
	C49.5,46.8,49.7,47.9,49.2,48.7z M52.7,40.9c-0.7,1.1-2,1.4-3.1,0.7c-7.7-4.8-19.5-6.1-28.7-3.4c-1.2,0.4-2.4-0.3-2.8-1.5
	c-0.4-1.2,0.3-2.4,1.5-2.8c10.5-3.2,23.5-1.6,32.4,3.8C53,38.5,53.4,39.8,52.7,40.9L52.7,40.9z M53,32.7c-9.3-5.5-24.6-6-33.5-3.3
	c-1.4,0.4-2.9-0.4-3.4-1.8c-0.4-1.4,0.4-2.9,1.8-3.4c10.2-3.1,27.1-2.5,37.8,3.9c1.3,0.8,1.7,2.4,0.9,3.7C56,33.1,54.3,33.5,53,32.7
	L53,32.7z"/>
</svg>
