<svg xmlns="http://www.w3.org/2000/svg" viewBox="0 0 24 24" role="img" aria-label="Spotify"><circle cx="12" cy="12" r="12" fill="#1DB954"/><path fill="#191414" d="M15.563 9.868c-2.39-1.408-5.755-1.564-8.359-.866a.668.668 0 1 0 .357 1.285c2.238-.617 5.263-.488 7.32.813a.668.668 0 0 0 .682-1.146zm-.103 2.298c-1.953-1.155-4.443-1.395-7.186-.708a.668.668 0 1 0 .31 1.3c2.45-.614 4.66-.406 6.37.605a.668.668 0 0 0 .706-1.135zm-1.129 2.197c-.03 0-.06-.004-.09-.013-1.642-.496-3.218-.502-4.762-.02a.668.668 0 1 1-.372-1.283c1.76-.55 3.56-.543 5.41.016a.668.668 0 0 1-.186 1.3z"/></svg>
