<svg xmlns="http://www.w3.org/2000/svg" viewBox="0 0 24 24" role="img" aria-label="Notion"><path fill="#000000" d="M4.459 4.208c.746.606 1.026.56 2.428.466l13.215-.793c.28 0 .047-.28-.046-.326L17.86 1.968c-.42-.326-.981-.7-2.055-.607L3.01 2.295c-.466.046-.56.28-.374.466zm.793 3.08v13.904c0 .747.373 1.027 1.214.98l14.523-.84c.841-.046.935-.56.935-1.167V6.354c0-.606-.233-.933-.748-.886l-15.177.887c-.56.047-.747.327-.747.933zm14.337.745c.093.42 0 .84-.42.888l-.7.14v10.264c-.608.327-1.168.514-1.635.514-.748 0-.935-.234-1.495-.933l-4.577-7.186v6.952L12.21 19l.001.008c.388.069.464.487.416.708l-1.635.932-4.298-.232v-.513c0-.327.186-.55.42-.605l.79-.14V9.57l-1.12-.093c-.094-.42.14-.981.793-1.028l3.59-.227 4.72 7.278v-6.44l-1.354-.155c-.093-.514.28-.887.747-.933zM1.936.96l13.31-.98c1.634-.14 2.055-.047 3.082.7l4.249 2.986c.7.513.934.653.934 1.213v16.44c0 1.026-.373 1.634-1.68 1.726l-15.458.934c-.98.047-1.448-.093-1.962-.747l-3.154-4.11c-.56-.747-.793-1.306-.793-1.96V2.667C1.469 1.827 1.842 1.054 1.936.96z"/></svg>
