<!-- Generator: Adobe Illustrator 28.1.0, SVG Export Plug-In . SVG Version: 6.00 Build 0)  -->
<svg version="1.1" id="Layer_1" xmlns="http://www.w3.org/2000/svg" xmlns:xlink="http://www.w3.org/1999/xlink" x="0px" y="0px"
	 viewBox="0 0 360 180" style="enable-background:new 0 0 360 180;" xml:space="preserve">
<g>
	<path d="M49.3,86.8c-4.7-1.2-6-1.6-6-3.6c0-1.3,1-2.7,4.2-2.7c2.7,0,4.8,1.2,6.7,3l4.3-4.2c-2.8-2.9-6.2-4.7-10.8-4.7
		c-5.8,0-10.6,3.3-10.6,8.6c0,5.8,3.8,7.6,9.3,8.8c5.6,1.3,6.6,2.2,6.6,4.1c0,2.3-1.6,3.2-5.2,3.2c-2.8,0-5.5-1-7.6-3.4L36,99.7
		c2.3,3.3,6.6,5.3,11.4,5.3c8.1,0,11.6-3.8,11.6-9.4C59.3,89.4,54.1,87.8,49.3,86.8z M76.7,74.8c-8.1,0-12.8,6.2-12.8,15.3
		s4.8,15.3,12.8,15.3s12.8-6.2,12.8-15.3S84.7,74.8,76.7,74.8z M76.7,99.4c-4.8,0-6.7-4.1-6.7-9.4s2-9.4,6.7-9.4
		c4.8,0,6.7,4.1,6.7,9.4S81.4,99.4,76.7,99.4z M113.4,91.9c0,4.7-2.3,7.6-6.1,7.6c-3.8,0-6.1-3-6.1-7.8V75.2h-6v16.7
		c0,8.6,4.8,13.5,12,13.5c7.5,0,12-5,12-13.5V75.3h-6v16.5H113.4z M144.8,87.8c0,1.6,0.1,5.3,0.1,6.5c-0.4-0.8-1.4-2.3-2-3.3
		l-10.6-15.6h-5.7V105h5.8V91.9c0-1.6-0.1-5.3-0.1-6.5c0.4,0.8,1.4,2.3,2,3.3l10.8,16.1h5.3V75.2h-5.8v12.6H144.8L144.8,87.8z
		 M167.6,75.2h-9.3v29.6h8.8c7.6,0,15.1-4.5,15.1-14.7C182.2,79.1,176,75.2,167.6,75.2z M167.1,99.1h-2.9v-18h3.2c6.2,0,8.9,3,8.9,9
		C176.2,95.4,173.3,99.1,167.1,99.1z M200.5,80.7c2.7,0,4.3,1.2,5.5,3.2l5.5-2.5c-1.9-3.8-5.2-6.6-10.8-6.6
		c-7.8,0-13.1,6.2-13.1,15.3c0,9.3,5.2,15.3,13,15.3c5.3,0,8.9-2.5,10.9-6.7l-5-2.9c-1.5,2.7-3.2,3.8-5.8,3.8c-4.5,0-7-4.1-7-9.4
		C193.7,84.5,196.2,80.7,200.5,80.7z M222.5,75.2h-6v29.6h17.8V99h-11.8L222.5,75.2L222.5,75.2z M250,74.8
		c-8.1,0-12.8,6.2-12.8,15.3s4.8,15.3,12.8,15.3c8.1,0,12.8-6.2,12.8-15.3S258.1,74.8,250,74.8z M250,99.4c-4.8,0-6.7-4.1-6.7-9.4
		s2-9.4,6.7-9.4c4.8,0,6.7,4.1,6.7,9.4S254.8,99.4,250,99.4z M286.8,91.9c0,4.7-2.3,7.6-6.1,7.6c-3.8,0-6.1-3-6.1-7.8V75.2h-6v16.7
		c0,8.6,4.8,13.5,12,13.5c7.5,0,12-5,12-13.5V75.3h-6v16.5H286.8z M309.4,75.2h-9.3v29.6h8.8c7.6,0,15.1-4.5,15.1-14.7
		C324,79.1,317.8,75.2,309.4,75.2z M308.9,99.1h-2.8v-18h3.2c6.2,0,8.8,3,8.8,9C318,95.4,315.1,99.1,308.9,99.1z"/>
</g>
</svg>
