<!-- Generator: Adobe Illustrator 28.1.0, SVG Export Plug-In . SVG Version: 6.00 Build 0)  -->
<svg version="1.1" id="Layer_1" xmlns="http://www.w3.org/2000/svg" xmlns:xlink="http://www.w3.org/1999/xlink" x="0px" y="0px"
	 viewBox="0 0 360 180" style="enable-background:new 0 0 360 180;" xml:space="preserve">
<style type="text/css">
	.st0{fill:#0A0B09;}
</style>
<g>
	<path class="st0" d="M59.8,106.8c1.1,0,2.2-0.1,3.2-0.3c1-0.2,1.9-0.6,2.7-1.1c0.8-0.5,1.4-1.2,1.9-2.1c0.5-0.9,0.7-2,0.7-3.4
		c0-2.7-0.8-4.6-2.3-5.8c-1.5-1.1-3.5-1.7-6-1.7H47.5v14.4L59.8,106.8L59.8,106.8z M59.2,84.5c2,0,3.7-0.5,5.1-1.5
		c1.3-1,2-2.6,2-4.8c0-1.2-0.2-2.2-0.6-3c-0.4-0.8-1-1.4-1.8-1.8c-0.7-0.4-1.6-0.8-2.5-0.9c-1-0.2-1.9-0.3-3-0.3H47.5v12.2H59.2
		L59.2,84.5z M60.7,63.4c2.5,0,4.8,0.2,6.8,0.7c2.1,0.4,3.8,1.2,5.3,2.2c1.5,1,2.6,2.3,3.4,4c0.8,1.6,1.2,3.7,1.2,6.1
		c0,2.6-0.6,4.8-1.8,6.6c-1.2,1.8-3,3.2-5.3,4.3c3.2,0.9,5.6,2.6,7.2,4.9c1.6,2.3,2.4,5.1,2.4,8.4c0,2.7-0.5,4.9-1.5,6.9
		c-1,1.9-2.4,3.5-4.1,4.7c-1.7,1.2-3.7,2.1-6,2.7c-2.2,0.6-4.5,0.9-6.8,0.9H36V63.4H60.7L60.7,63.4z"/>
	<path class="st0" d="M108.2,86.7c-1.2-1.4-3.3-2.1-5.9-2.1c-1.7,0-3,0.3-4.1,0.8c-1.1,0.6-2,1.3-2.6,2.1c-0.7,0.8-1.1,1.7-1.4,2.7
		c-0.3,0.9-0.4,1.8-0.5,2.5h16.9C110.3,90,109.4,88.1,108.2,86.7L108.2,86.7z M96.2,106.6c1.6,1.5,3.8,2.3,6.7,2.3
		c2.1,0,3.9-0.5,5.4-1.6c1.5-1.1,2.4-2.2,2.8-3.4h9.2c-1.5,4.6-3.7,7.8-6.8,9.8c-3,2-6.7,2.9-11,2.9c-3,0-5.7-0.5-8.1-1.4
		c-2.4-1-4.4-2.3-6.1-4.1c-1.6-1.8-2.9-3.9-3.8-6.3c-0.9-2.4-1.4-5.1-1.4-8.1c0-2.8,0.5-5.5,1.4-7.9c0.9-2.5,2.3-4.6,4-6.3
		c1.7-1.8,3.8-3.2,6.1-4.2c2.4-1,5-1.5,7.9-1.5c3.2,0,6,0.6,8.4,1.9c2.4,1.2,4.4,2.9,5.9,5c1.5,2.1,2.6,4.5,3.3,7.2
		c0.7,2.7,0.9,5.5,0.7,8.4H93.6C93.6,102.2,94.7,105.1,96.2,106.6L96.2,106.6z"/>
	<path class="st0" d="M135.8,63.4v19.7h0.2c1.3-2.2,3-3.8,5-4.8c2-1,4.1-1.5,6-1.5c2.8,0,5.1,0.4,6.8,1.1c1.8,0.8,3.2,1.8,4.2,3.2
		c1,1.3,1.7,3,2.1,4.9c0.4,1.9,0.6,4.1,0.6,6.4v23.3h-10.5V94.3c0-3.1-0.5-5.5-1.5-7c-1-1.5-2.7-2.3-5.2-2.3c-2.8,0-4.8,0.8-6.1,2.5
		c-1.3,1.7-1.9,4.4-1.9,8.3v19.9h-10.5V63.4H135.8"/>
	<path class="st0" d="M188.8,98.1c-0.6,0.2-1.4,0.4-2.1,0.6c-0.8,0.1-1.6,0.3-2.4,0.4c-0.8,0.1-1.7,0.2-2.5,0.4
		c-0.8,0.2-1.6,0.3-2.3,0.6c-0.8,0.2-1.4,0.6-2,1c-0.6,0.4-1,0.9-1.4,1.6c-0.3,0.6-0.5,1.5-0.5,2.4c0,0.9,0.2,1.7,0.5,2.3
		c0.3,0.6,0.8,1.1,1.4,1.5c0.6,0.4,1.3,0.6,2,0.8c0.8,0.2,1.6,0.2,2.4,0.2c2,0,3.6-0.3,4.7-1c1.1-0.7,2-1.5,2.5-2.5
		c0.5-1,0.9-1.9,1-2.9c0.1-1,0.2-1.8,0.2-2.4v-3.9C190,97.5,189.4,97.9,188.8,98.1L188.8,98.1z M168.3,83.3c1.1-1.6,2.4-2.9,4.1-3.9
		c1.7-1,3.5-1.7,5.6-2.1c2.1-0.4,4.2-0.6,6.3-0.6c1.9,0,3.8,0.1,5.8,0.4c1.9,0.3,3.7,0.8,5.3,1.6c1.6,0.8,2.9,1.9,3.9,3.3
		c1,1.4,1.6,3.2,1.6,5.5v19.7c0,1.7,0.1,3.3,0.3,4.9c0.2,1.6,0.7,2.8,1.2,3.5l-10.6,0c-0.3-0.5-0.6-1.2-0.7-1.8
		c-0.1-0.6-0.2-1.2-0.3-1.9c-1.7,1.7-3.6,2.9-5.9,3.6c-2.2,0.7-4.5,1-6.9,1c-1.8,0-3.5-0.2-5-0.7c-1.5-0.4-2.9-1.1-4.1-2
		c-1.2-0.9-2.1-2.1-2.7-3.5c-0.7-1.4-1-3.1-1-5.1c0-2.2,0.4-3.9,1.2-5.3c0.7-1.4,1.7-2.5,2.9-3.3c1.2-0.8,2.6-1.5,4.1-1.9
		c1.5-0.4,3.1-0.8,4.6-1c1.6-0.2,3.1-0.4,4.6-0.6c1.5-0.1,2.9-0.4,4-0.7c1.2-0.3,2.1-0.7,2.8-1.3c0.7-0.6,1-1.4,1-2.5
		c0-1.1-0.2-2-0.6-2.7c-0.4-0.7-0.8-1.2-1.4-1.5c-0.6-0.4-1.3-0.6-2.1-0.7c-0.8-0.1-1.7-0.2-2.6-0.2c-2,0-3.6,0.5-4.8,1.3
		c-1.2,0.9-1.9,2.4-2.1,4.4h-10.4C166.6,87,167.2,84.9,168.3,83.3L168.3,83.3z"/>
	<path class="st0" d="M216.5,77.8v5.3h0.2c1.3-2.2,3-3.8,5.1-4.8c2.1-1,4.3-1.5,6.5-1.5c2.8,0,5.1,0.4,6.9,1.1
		c1.8,0.8,3.2,1.8,4.2,3.2c1,1.3,1.8,3,2.2,4.9c0.4,1.9,0.6,4.1,0.6,6.4v23.3h-10.5V94.3c0-3.1-0.5-5.5-1.5-7
		c-1-1.5-2.7-2.5-5.2-2.5c-2.8,0-4.9,1.1-6.2,2.8c-1.3,1.7-1.9,4.4-1.9,8.3v19.9h-10.3V77.8H216.5"/>
	<path class="st0" d="M265.3,84.6c-1.7,0-3.1,0.4-4.2,1.1c-1.1,0.8-2.1,1.7-2.8,2.9c-0.7,1.2-1.2,2.5-1.5,4
		c-0.3,1.4-0.4,2.9-0.4,4.3c0,1.4,0.2,2.8,0.4,4.2c0.3,1.4,0.8,2.7,1.4,3.9c0.7,1.1,1.6,2.1,2.7,2.8c1.1,0.7,2.5,1.1,4.1,1.1
		c2.5,0,4.4-0.7,5.8-2.1c1.3-1.4,2.2-3.3,2.5-5.6h10c-0.7,5-2.6,8.9-5.9,11.5c-3.2,2.6-7.4,4-12.4,4c-2.8,0-5.4-0.5-7.8-1.4
		c-2.4-1-4.4-2.3-6.1-4s-3-3.8-3.9-6.1c-0.9-2.4-1.4-5-1.4-7.8c0-2.9,0.4-5.7,1.3-8.2c0.8-2.5,2.1-4.7,3.8-6.5
		c1.7-1.8,3.7-3.3,6.1-4.3c2.4-1,5.1-1.5,8.2-1.5c2.3,0,4.4,0.3,6.5,0.9c2.1,0.6,3.9,1.5,5.6,2.7c1.6,1.2,3,2.7,4,4.5
		c1,1.8,1.6,3.9,1.8,6.3H273C272.3,86.7,269.7,84.6,265.3,84.6"/>
	<path class="st0" d="M91.5,66.9h21.2V72H91.5V66.9z"/>
	<path class="st0" d="M311.1,86.7c-1.3-1.4-3.4-2.1-5.9-2.1c-1.7,0-3,0.3-4.2,0.8c-1.1,0.6-2.1,1.3-2.7,2.1
		c-0.7,0.8-1.1,1.7-1.4,2.7c-0.2,0.9-0.4,1.8-0.5,2.5h17.1C313.3,90,312.4,88.1,311.1,86.7L311.1,86.7z M299,106.6
		c1.6,1.5,3.9,2.3,6.9,2.3c2.1,0,3.9-0.5,5.4-1.6c1.5-1.1,2.4-2.2,2.8-3.4h9.2c-1.5,4.6-3.7,7.8-6.7,9.8c-3,2-6.7,2.9-11,2.9
		c-3,0-5.7-0.5-8.1-1.4c-2.4-1-4.4-2.3-6.1-4.1c-1.7-1.8-2.9-3.9-3.9-6.3c-0.9-2.4-1.4-5.1-1.4-8.1c0-2.8,0.5-5.5,1.4-7.9
		c0.9-2.5,2.3-4.6,4-6.3c1.7-1.8,3.8-3.2,6.1-4.2c2.4-1,5-1.5,7.9-1.5c3.2,0,6,0.6,8.4,1.9c2.4,1.2,4.4,2.9,5.9,5
		c1.5,2.1,2.7,4.5,3.3,7.2c0.7,2.7,0.9,5.5,0.7,8.4h-27.5C296.5,102.2,297.5,105.1,299,106.6L299,106.6z"/>
</g>
</svg>
