<!-- Generator: Adobe Illustrator 28.1.0, SVG Export Plug-In . SVG Version: 6.00 Build 0)  -->
<svg version="1.1" id="Layer_1" xmlns="http://www.w3.org/2000/svg" xmlns:xlink="http://www.w3.org/1999/xlink" x="0px" y="0px"
	 viewBox="0 0 72 72" style="enable-background:new 0 0 72 72;" xml:space="preserve">
<path d="M56.9,14.8L56.9,14.8C51.6,7.2,41,4.9,33.4,9.8l-13.4,8.6c-3.7,2.3-6.2,6-7,10.3c-0.6,3.5-0.1,7.2,1.6,10.4
	c-1.1,1.7-1.9,3.7-2.3,5.8c-0.8,4.3,0.2,8.8,2.8,12.4c5.3,7.7,15.9,9.9,23.6,5.1l13.4-8.5c3.7-2.3,6.2-6,7-10.3
	c0.6-3.5,0.1-7.2-1.6-10.4c1.1-1.7,1.9-3.7,2.3-5.8C60.5,22.9,59.5,18.4,56.9,14.8z M53.1,25.8c-0.1,0.4-0.2,0.8-0.3,1.3l-0.3,0.8
	l-0.7-0.5c-1.6-1.2-3.4-2.1-5.2-2.6l-0.5-0.2l0-0.5c0.1-0.7-0.1-1.4-0.5-2c-0.8-1.1-2.1-1.6-3.4-1.3c-0.3,0.1-0.6,0.2-0.8,0.4
	l-13.4,8.6c-0.7,0.4-1.1,1.1-1.3,1.9c-0.1,0.8,0,1.6,0.5,2.2c0.8,1.1,2.1,1.6,3.4,1.3c0.3-0.1,0.6-0.2,0.8-0.4l5.1-3.3
	c0.8-0.5,1.8-0.9,2.7-1.2c4.3-1.1,8.9,0.6,11.4,4.2c1.5,2.2,2.1,4.8,1.7,7.5c-0.5,2.6-2,4.8-4.2,6.2l-13.4,8.6
	c-0.8,0.5-1.8,0.9-2.7,1.2l0,0c-4.3,1.1-8.9-0.6-11.4-4.2c-1.5-2.2-2.1-4.8-1.7-7.5c0.1-0.4,0.2-0.8,0.3-1.3l0.3-0.8l0.7,0.5
	c1.6,1.2,3.4,2.1,5.2,2.6l0.5,0.2l0,0.5c-0.1,0.7,0.1,1.4,0.5,2c0.8,1.1,2.1,1.6,3.4,1.3c0.3-0.1,0.6-0.2,0.8-0.4l13.4-8.6
	c0.7-0.4,1.1-1.1,1.3-1.9c0.1-0.8,0-1.6-0.5-2.2c-0.8-1.1-2.1-1.6-3.4-1.3c-0.3,0.1-0.6,0.2-0.8,0.4l-5.1,3.3
	c-0.8,0.5-1.8,0.9-2.7,1.2c-4.3,1.1-8.9-0.6-11.4-4.2c-1.5-2.2-2.1-4.8-1.7-7.5c0.5-2.6,2-4.8,4.2-6.2l13.4-8.6
	c0.8-0.5,1.8-0.9,2.7-1.2c4.3-1.1,8.9,0.6,11.4,4.2C52.9,20.5,53.5,23.2,53.1,25.8z"/>
</svg>
