<!-- Generator: Adobe Illustrator 28.1.0, SVG Export Plug-In . SVG Version: 6.00 Build 0)  -->
<svg version="1.1" id="Layer_1" xmlns="http://www.w3.org/2000/svg" xmlns:xlink="http://www.w3.org/1999/xlink" x="0px" y="0px"
	 viewBox="0 0 72 72" style="enable-background:new 0 0 72 72;" xml:space="preserve">
<g>
	<path d="M30.2,13v20.2c0,3.2,2.6,5.8,5.8,5.8c3.2,0,5.8-2.6,5.8-5.8V19.7c7.3,2.6,12,9.6,11.5,17.3s-5.9,14.1-13.4,15.9
		c-7.5,1.7-15.2-1.8-19-8.5s-2.5-15.1,2.9-20.6c2.2-2.3,2.2-5.9,0-8.1s-5.9-2.3-8.1,0C5.9,25.4,4.4,40.6,12.1,52s22.3,15.9,35,10.6
		s19.9-18.8,17.2-32.2C61.6,16.9,49.7,7.2,36,7.2C32.8,7.2,30.2,9.8,30.2,13z"/>
</g>
</svg>
