<!-- Generator: Adobe Illustrator 28.1.0, SVG Export Plug-In . SVG Version: 6.00 Build 0)  -->
<svg version="1.1" id="Layer_1" xmlns="http://www.w3.org/2000/svg" xmlns:xlink="http://www.w3.org/1999/xlink" x="0px" y="0px"
	 viewBox="0 0 72 72" style="enable-background:new 0 0 72 72;" xml:space="preserve">
<g>
	<path d="M45.7,33l-0.1,0.4c2.4,1,7.7,5.2,7.7,13.6c0,7.9-6.6,15.8-17.1,15.8c-13,0-17.5-7.6-17.5-14.6c0-8.9,6.3-14.9,6.3-23
		c-0.1-5.9-4.2-11-10-12.3l-0.2,0.4c2.1,2,3.2,4.8,3.2,7.6c0,8.8-7.4,15.1-7.4,25.1c0,9.3,6.5,18.8,25.3,18.8
		c16.8,0,25.6-8.2,25.6-17C61.5,40.3,56.1,34,45.7,33z"/>
	<path d="M36.2,52.2l4.8-45h-9.9l4.8,45H36.2z"/>
</g>
</svg>
