<!-- Generator: Adobe Illustrator 28.1.0, SVG Export Plug-In . SVG Version: 6.00 Build 0)  -->
<svg version="1.1"
	 id="svg2528" xmlns:svg="http://www.w3.org/2000/svg" xmlns:sodipodi="http://sodipodi.sourceforge.net/DTD/sodipodi-0.dtd" xmlns:inkscape="http://www.inkscape.org/namespaces/inkscape" xmlns:cc="http://creativecommons.org/ns#" xmlns:dc="http://purl.org/dc/elements/1.1/" xmlns:rdf="http://www.w3.org/1999/02/22-rdf-syntax-ns#"
	 xmlns="http://www.w3.org/2000/svg" xmlns:xlink="http://www.w3.org/1999/xlink" x="0px" y="0px" viewBox="0 0 360 180"
	 style="enable-background:new 0 0 360 180;" xml:space="preserve">
<defs>
	
		<inkscape:perspective  id="perspective2536" inkscape:persp3d-origin="372.04724 : 350.78739 : 1" inkscape:vp_x="0 : 526.18109 : 1" inkscape:vp_y="0 : 1000 : 0" inkscape:vp_z="744.09448 : 526.18109 : 1" sodipodi:type="inkscape:persp3d">
		</inkscape:perspective>
</defs>
<sodipodi:namedview  bordercolor="#666666" borderopacity="1.0" gridtolerance="10000" guidetolerance="10" id="base" inkscape:current-layer="layer1" inkscape:cx="202.64228" inkscape:cy="177.14286" inkscape:document-units="px" inkscape:pageopacity="0.0" inkscape:pageshadow="2" inkscape:window-height="776" inkscape:window-width="1259" inkscape:window-x="0" inkscape:window-y="0" inkscape:zoom="1" objecttolerance="10" pagecolor="#ffffff" showgrid="false">
	</sodipodi:namedview>
<g id="layer1" inkscape:groupmode="layer" inkscape:label="Layer 1">
	<g>
		<g id="g2491" transform="matrix(2.5120719,0,0,2.5120719,-8.3916897,-9.7350259)">
			<g>
				<g id="g2493">
					<path id="path2495" d="M114.2,44.8c0-0.2,0-0.4,1-0.7c1.1-0.3,3.7-1.2,5.3-2.1c1.6-0.9,1.8-1,2.2-0.8c0.4,0.2,0.3,0.8,0.3,1.3
						v4.3c0.6-1,2.5-4.1,4-5c1.2-0.7,1.6-0.8,2.3-0.8c0.9,0,3,0.5,3.1,2.7c0.1,1.7-1.2,2.4-2,2.3c-0.6-0.1-1.1-0.7-1.5-1.3
						c-0.4-0.6-1-1-1.6-0.8s-4.1,2.4-4.3,5.6c-0.1,2.3,0,9.6,0,9.6c0,1.1,0.4,1.5,0.9,1.8c0.5,0.3,2.3,0.3,2.8,0.4
						c0.5,0.1,0.5,0.2,0.5,0.3c0,0.2,0,0.2-0.5,0.2h-12.1c-0.4,0-0.5-0.1-0.5-0.3c0-0.3,0.5-0.3,0.9-0.3c0.4-0.1,2.4,0.1,3-0.9
						c0.4-0.7,0.4-1.8,0.4-1.8l-0.1-12.8c0-1-0.3-1.2-0.6-1.3c-0.3-0.2-0.8-0.3-1.8,0.1C115,44.9,114.3,45.2,114.2,44.8"/>
					<path id="path2497" d="M71.8,44.8c-0.2-0.3,0.1-0.5,1-0.8c1-0.3,3.2-0.9,4.9-1.9c1.7-1,2-1.1,2.4-1c0.4,0.1,0.3,0.8,0.3,1.3V59
						c0,0.9,0.1,1.3,0.5,1.7c0.4,0.4,1.5,0.6,2.9,0.6c0.6,0,0.8,0.1,0.8,0.3s-0.2,0.3-0.4,0.3h-12c-0.4,0-0.5-0.2-0.5-0.3
						c0-0.2,0.2-0.3,0.7-0.3c0.5,0,2.6,0.2,3.1-1c0.2-0.4,0.3-1,0.3-1.6V45.6c0-1-0.8-1.4-1.7-1.2C73.2,44.6,72,45.2,71.8,44.8"/>
					<path id="path2499" d="M77.9,33.3c1.6,0,3-1.3,3-3c0-1.6-1.3-3-3-3c-1.6,0-3,1.3-3,3C75,32,76.3,33.3,77.9,33.3"/>
					<path id="path2501" d="M92.4,52.1c0.6,5.4,3.8,9.6,7.8,8.9c4-0.7,6-4.5,5.5-10.6c-0.5-6.2-3.5-9.3-7.7-8.9
						C93.7,41.9,91.8,46.7,92.4,52.1 M96.3,40.6c5.1-1,12.4,0.2,14.1,8.2s-3.9,12.3-8.6,13.3c-4.7,1-12.6,0.3-14.1-8.3
						C86.4,46,92,41.4,96.3,40.6"/>
					<path id="path2503" d="M35.7,60.6h3c11,0,14-1,17.9-6.2s4.4-12.6,4.4-15.1c0-2.5-0.7-8.8-4.6-14.1c-3.9-5.3-10.4-6.7-16.1-6.7
						h-4.6c-1.1,0-1.2,0.5-1.2,1.3v39.9C34.5,60.5,34.8,60.6,35.7,60.6 M17.7,61.6c0-0.4,0.5-0.5,1-0.5c5.6-0.2,6.7-0.4,7.3-1
						c0.3-0.4,0.9-0.7,0.9-3.3V20.9c0-3.2-3.9-2.7-6.7-3c-1-0.1-1.1-0.2-1.1-0.5c0-0.3,0.2-0.4,0.7-0.4h22.7
						c24.9,0,26.2,18.2,26.2,23.1c0,10.4-6.9,21.9-21.3,21.9h-29C18,62,17.7,61.9,17.7,61.6"/>
				</g>
			</g>
		</g>
	</g>
</g>
</svg>
