<!-- Generator: Adobe Illustrator 28.1.0, SVG Export Plug-In . SVG Version: 6.00 Build 0)  -->
<svg version="1.1" id="Layer_1" xmlns="http://www.w3.org/2000/svg" xmlns:xlink="http://www.w3.org/1999/xlink" x="0px" y="0px"
	 viewBox="0 0 72 72" style="enable-background:new 0 0 72 72;" xml:space="preserve">
<g>
	<path d="M11,36c0,9.9,5.8,18.4,14.1,22.5L13.2,25.8C11.7,29,11,32.5,11,36L11,36z M36,61c2.9,0,5.7-0.5,8.3-1.4l-0.2-0.3l-7.7-21
		L29,60C31.2,60.6,33.5,61,36,61z M39.4,24.3l9,26.9l2.5-8.3c1.1-3.5,1.9-5.9,1.9-8.1c0-3.1-1.1-5.2-2-6.9c-1.3-2.1-2.5-3.8-2.5-5.9
		c0-2.3,1.7-4.4,4.2-4.4h0.3C48.3,13.3,42.3,11,36,11c-8.4,0-16.3,4.2-20.9,11.3l1.6,0c2.6,0,6.6-0.3,6.6-0.3
		c1.4-0.1,1.5,1.9,0.2,2.1c0,0-1.4,0.2-2.9,0.2l9.1,27.1L35.3,35l-3.9-10.7c-0.9,0-1.7-0.1-2.6-0.2c-1.4-0.1-1.2-2.1,0.2-2.1
		c0,0,4.1,0.3,6.6,0.3c2.6,0,6.6-0.3,6.6-0.3c1.4-0.1,1.5,1.9,0.2,2.1C42.3,24,41,24.2,39.4,24.3z M48.6,57.6
		C56.3,53.1,61,44.9,61,36c0-4.3-1.1-8.4-3.1-12c0.4,3.9-0.2,7.9-1.7,11.5L48.6,57.6L48.6,57.6z M36,64.8C20.1,64.8,7.2,51.9,7.2,36
		S20.1,7.2,36,7.2S64.8,20.1,64.8,36S51.9,64.8,36,64.8z"/>
</g>
</svg>
