<!-- Generator: Adobe Illustrator 28.1.0, SVG Export Plug-In . SVG Version: 6.00 Build 0)  -->
<svg version="1.1" id="Layer_1" xmlns="http://www.w3.org/2000/svg" xmlns:xlink="http://www.w3.org/1999/xlink" x="0px" y="0px"
	 viewBox="0 0 72 72" style="enable-background:new 0 0 72 72;" xml:space="preserve">
<g>
	<path d="M23.6,12.7c3.3-1.5,6.8-2.5,10.4-2.7c5.8-0.4,11.8,1,16.8,4c5.2,3.1,9.4,7.9,11.7,13.4c0.5,1.2,1,2.5,1.4,3.8
		c-0.7-0.4-1.3-0.8-2-1c-2.3-0.8-4.8-0.8-7.1-1.7c-1-0.4-1.9-0.9-2.6-1.6c-2.4-2.1-4.4-4.7-6.8-6.8c-1.6-1.4-3.3-2.8-5.2-3.8
		c-2.9-1.5-6.3-2.2-9.6-1.8c-1,0.1-2.1,0.5-3.1,0.1c-0.7-0.4-1-1.3-1.8-1.7C25,12.5,24.3,12.7,23.6,12.7"/>
	<g>
		<path d="M9.6,27.2c2-4.7,5.4-8.9,9.6-11.9c-0.4,0.6-0.9,1.1-0.9,1.9c-0.1,0.9,0.8,1.9,0.2,2.8c-0.7,1.1-1.6,1.9-2.3,2.9
			c-1.8,2.5-2.8,5.6-3,8.6c-0.2,3,0.3,6,1,9c0.6,2.2,1.1,4.4,1.4,6.7c1.3-1.1,2.6-2.2,4-3.2c2-1.5,4.1-2.8,6.2-4.1
			c2.2-1.3,4.5-2.6,6.8-3.6c0.6-0.3,1.2-0.4,1.8-0.5c-0.7,0.9-1.8,1.4-2.7,2c-3.6,2.1-7,4.4-10.2,7.1c-2.6,2.3-5.1,4.8-7,7.8
			c-1.2,1.9-2.3,4.1-1.8,6.4c0.3,1.6,1.8,2.4,3.2,2.9c-2.8,0-5.6,0.1-8.4-0.1c-0.2-0.3-0.4-0.7-0.4-1.1c0-7.2,0-14.4,0-21.6
			C7.1,35.2,7.9,31,9.6,27.2"/>
		<path d="M55.3,36.7c1-0.1,2.2-0.2,3.1,0.4c0.6,0.3,0.6,1.1,0.6,1.7c0,1.1-0.4,2-0.9,3c-1.1,1.9-2.7,3.4-4.3,4.9
			c-2.9,2.5-6.1,4.6-9.3,6.6c-4.4,2.6-9.2,4.5-14.2,5.7c-2.5,0.5-5,0.9-7.5,0.7c-0.7-0.1-1.6-0.2-2-0.8c-0.4-1,0.3-1.9,0.8-2.7
			c1.7-2.4,3.9-4.3,6.1-6.1c5.6-4.4,12-7.8,18.6-10.6C49.1,38.1,52.2,37.1,55.3,36.7 M26.2,53.2c1.9,1.9,4.8,2.6,7.4,1.7
			c1.9-0.7,3.5-2.1,4.2-4c0.8-1.9,0.7-4.1-0.1-5.9C33.6,47.3,29.6,49.9,26.2,53.2"/>
		<path d="M55.2,48.5c3.9-3.2,7.6-7,9.5-11.8c0.1,1.2,0.1,2.5,0.1,3.7c0,6.9,0,13.7,0,20.6c0,0.6-0.5,1-1.1,0.9
			c-12.1,0-24.2,0-36.3,0c5.9-1.2,11.6-3.5,16.8-6.4C48.1,53.6,51.8,51.3,55.2,48.5"/>
	</g>
</g>
</svg>
