<!-- Generator: Adobe Illustrator 28.1.0, SVG Export Plug-In . SVG Version: 6.00 Build 0)  -->
<svg version="1.1" id="Layer_1" xmlns="http://www.w3.org/2000/svg" xmlns:xlink="http://www.w3.org/1999/xlink" x="0px" y="0px"
	 viewBox="0 0 72 72" style="enable-background:new 0 0 72 72;" xml:space="preserve">
<g>
	<path d="M39.5,54.8h21.4c0.7,0,1.3-0.2,1.9-0.5c0.6-0.3,1.1-0.8,1.4-1.4c0.3-0.6,0.5-1.2,0.5-1.9c0-0.7-0.2-1.3-0.5-1.9L49.9,25
		c-0.3-0.6-0.8-1-1.4-1.4c-0.6-0.3-1.3-0.5-1.9-0.5s-1.3,0.2-1.9,0.5C44,24,43.5,24.4,43.2,25l-3.7,6.2l-7.2-12.1
		c-0.3-0.6-0.8-1-1.4-1.4c-0.6-0.3-1.3-0.5-1.9-0.5c-0.7,0-1.3,0.2-1.9,0.5s-1.1,0.8-1.4,1.4L7.7,49.2c-0.3,0.6-0.5,1.2-0.5,1.9
		c0,0.7,0.2,1.3,0.5,1.9c0.3,0.6,0.8,1,1.4,1.4c0.6,0.3,1.3,0.5,1.9,0.5h13.4c5.3,0,9.3-2.3,12-6.7l6.6-11l3.5-5.9l10.5,17.7H43
		L39.5,54.8z M24.3,48.9l-9.4,0L29,25.3l7,11.8L31.3,45C29.5,47.8,27.5,48.9,24.3,48.9z"/>
</g>
</svg>
