<!-- Generator: Adobe Illustrator 28.1.0, SVG Export Plug-In . SVG Version: 6.00 Build 0)  -->
<svg version="1.1" id="Layer_1" xmlns="http://www.w3.org/2000/svg" xmlns:xlink="http://www.w3.org/1999/xlink" x="0px" y="0px"
	 viewBox="0 0 2500 2500" style="enable-background:new 0 0 2500 2500;" xml:space="preserve">
<g>
	<path d="M1250,210.86L1250,210.86C678.8,210.86,210.85,678.8,210.85,1250c0,570.48,467.94,1039.14,1039.15,1039.14
		c570.48,0,1039.14-468.66,1039.14-1039.14C2289.14,678.8,1820.48,210.86,1250,210.86z M1972.05,1900.3
		c-182.35,202.83-448.9,321.48-722.05,321.48c-238.73,0-473.07-90.07-650.29-249.72C396.14,1789,278.23,1523.14,278.23,1250
		c0-238.73,89.34-473.07,248.98-651.02C710.29,396.12,976.84,277.5,1250,277.5c238.73,0,473.09,90.07,650.29,249.71
		c203.56,183.08,321.48,448.91,321.48,722.79C2221.77,1488.75,2132.42,1723.08,1972.05,1900.3z"/>
	<polygon points="1418.44,1498.27 1418.44,1440.41 1092.55,1440.41 1092.55,1761.89 1426.49,1761.89 1426.49,1704.03 
		1426.49,1704.03 1173.84,1704.03 1173.84,1626.41 1411.1,1626.41 1411.1,1568.55 1173.84,1568.55 1173.84,1498.27 	"/>
	<path d="M1433.82,1894.42c0-73.94-61.54-95.92-124.51-95.92h-216.76v322.22h81.29v-128.15v-0.01h92.28l84.94,128.15h95.92
		l-95.92-128.15C1402.33,1981.59,1433.82,1950.81,1433.82,1894.42z M1299.78,1933.96h-125.94v0v-76.88h125.94
		c26.37,0,52.01,7.32,52.01,38.81C1351.79,1926.65,1326.15,1933.96,1299.78,1933.96z"/>
	<path d="M1414.03,596.06c0-43.95-26.37-74.71-68.09-84.23c30.02-13.18,50.52-31.49,50.52-65.9c0-69.58-65.17-78.36-120.83-78.36
		h-198.45V689.8h224.08C1362.05,689.8,1414.03,664.91,1414.03,596.06z M1157.73,426.16h117.88c22.72,0,44.68,5.86,43.22,33.68
		c-2.2,24.18-21.23,31.49-43.22,31.49h-117.88V426.16z M1157.73,631.2v-83.47h117.88c30.78,0,56.39,3.66,56.39,40.27
		c0,34.42-25.62,43.2-56.39,43.2H1157.73z"/>
	<path d="M960.01,1084.51h-86.42l-158.17,321.47h90.8l29.29-63.71h162.58l29.29,63.71h90.81L960.01,1084.51z M862.61,1284.41
		l53.46-117.16l0.74,0.73l0.73-0.73l54.19,117.16H862.61z"/>
	<path d="M639.99,1228.03c30.03-12.44,50.53-30.75,50.53-65.9c0-68.83-65.17-77.62-120.83-77.62H371.23v321.48h224.09
		c60.78,0,112.77-24.9,112.77-93.73C708.1,1269.04,681.73,1237.55,639.99,1228.03z M451.79,1142.36h117.9
		c22.71,0,44.67,6.59,42.48,33.68c-1.47,24.9-20.51,32.22-42.48,32.22h-117.9V1142.36z M569.68,1348.12h-117.9v-84.2h117.9
		c30.76,0,55.65,3.64,55.65,41.01C625.34,1339.32,599.71,1348.12,569.68,1348.12z"/>
	<polygon points="1337.16,1084.51 1242.69,1211.92 1148.21,1084.51 1049.36,1084.51 1202.4,1282.94 1202.4,1405.97 1282.97,1405.97 
		1282.97,1282.94 1436,1084.51 	"/>
	<polygon points="1533.4,1270.51 1747.97,1270.51 1747.97,1212.66 1533.4,1212.66 1533.4,1142.35 1755.3,1142.35 1755.3,1084.51 
		1452.11,1084.51 1452.11,1405.97 1764.1,1405.97 1764.1,1348.12 1533.4,1348.12 	"/>
	<path d="M1289.56,725.67h-86.42l-158.18,321.48h90.06l30.04-63.71h162.56l29.29,63.71h90.08L1289.56,725.67L1289.56,725.67z
		 M1300.52,924.86h-109.1l54.2-117.17l0.73,1.47v-1.47L1300.52,924.86z"/>
	<path d="M2070.18,1277.82c51.26-10.99,83.47-41,83.47-97.39c0-73.95-62.24-95.92-125.21-95.92h-216.02v321.47h80.53v-128.15v0
		h93.01l84.23,128.15h95.91L2070.18,1277.82z M2019.66,1219.98h-126.71v-77.62h126.71c26.37,0,51.98,7.33,51.98,38.82
		C2071.65,1212.66,2045.31,1219.98,2019.66,1219.98z"/>
</g>
</svg>
