<!-- Generator: Adobe Illustrator 28.1.0, SVG Export Plug-In . SVG Version: 6.00 Build 0)  -->
<svg version="1.1" id="svg3544" xmlns:svg="http://www.w3.org/2000/svg"
	 xmlns="http://www.w3.org/2000/svg" xmlns:xlink="http://www.w3.org/1999/xlink" x="0px" y="0px" viewBox="0 0 72 72"
	 style="enable-background:new 0 0 72 72;" xml:space="preserve">
<path d="M49.4,10.4c-4-2.1-8.6-3.2-13.4-3.2s-9.4,1.2-13.4,3.2l0,0C13.5,15.3,7.2,24.9,7.2,36s6.3,20.7,15.5,25.6
	c4,2,8.5,3.2,13.3,3.2s9.3-1.2,13.3-3.3c9.2-4.8,15.5-14.4,15.5-25.5S58.5,15.3,49.4,10.4z M10.1,36c0-9.4,5-17.6,12.6-22.2l0,0
	c3.7-2.2,7.9-3.5,12.6-3.7L32,33.6l-9.4,7.3l0,0l-9.5,7.4C11.2,44.6,10.1,40.5,10.1,36z M49.4,58.2c-4,2.4-8.5,3.7-13.4,3.7
	s-9.5-1.4-13.4-3.7c-3.5-2.1-6.4-5-8.6-8.4l8.6-3.5l0,0L36,40.8l13.4,5.4l0,0l8.6,3.5C55.9,53.2,52.8,56.1,49.4,58.2z M49.4,40.9
	L49.4,40.9l-9.3-7.2l-3.3-23.6c4.5,0.1,8.9,1.4,12.5,3.7l0,0c7.6,4.5,12.6,12.8,12.6,22.2c0,4.5-1.1,8.6-3.1,12.3L49.4,40.9z"/>
</svg>
