<!-- Generator: Adobe Illustrator 28.1.0, SVG Export Plug-In . SVG Version: 6.00 Build 0)  -->
<svg version="1.1" id="Layer_1" xmlns="http://www.w3.org/2000/svg" xmlns:xlink="http://www.w3.org/1999/xlink" x="0px" y="0px"
	 viewBox="0 0 72 72" style="enable-background:new 0 0 72 72;" xml:space="preserve">
<path d="M61.3,27.6c4.6,4.6,4.7,12.1,0,16.8l0,0L44.5,61.3c-4.6,4.6-12.1,4.7-16.8,0l0,0L10.7,44.4c-4.6-4.6-4.7-12.1,0-16.8l0,0
	l16.8-16.9c4.7-4.7,12.2-4.7,16.9,0l0,0L61.3,27.6z M48.7,40.2c2.3-2.3,2.3-6.1,0-8.4l-8.4-8.4c-2.3-2.3-6.1-2.3-8.4,0l-8.4,8.4
	c-2.3,2.3-2.3,6.1,0,8.4l8.4,8.4c2.3,2.3,6.1,2.3,8.4,0L48.7,40.2z"/>
</svg>
