<!-- Generator: Adobe Illustrator 28.1.0, SVG Export Plug-In . SVG Version: 6.00 Build 0)  -->
<svg version="1.1" id="Layer_1" xmlns="http://www.w3.org/2000/svg" xmlns:xlink="http://www.w3.org/1999/xlink" x="0px" y="0px"
	 viewBox="0 0 72 72" style="enable-background:new 0 0 72 72;" xml:space="preserve">
<g>
	<path d="M36.2,47.7c-0.5,0.3-1,0.7-1.5,1c-5.9-3.3-18.4-9.6-19.5-10.1c-1.2-0.6-3.2-1.4-2.9-3.4c0.3-2.7,5.1-8.6,7.1-11.1
		C30.3,10.9,35.1,6.8,38.3,7.2c3.4,0.4,5.4,4,5.6,20.6c-1.9-0.6-4-1.2-6.3-1.8c-0.2-2.4-0.7-6-0.8-7.3c-0.2-1.4-0.5-1.9-1-2
		c-0.7-0.1-2.3,1.4-3.7,2.9c-0.7,0.7-2.5,2.5-4.5,4.6c-1.7-0.1-2.8,0.3-3.4,1.1c-0.5,0.7-0.6,1.6-0.3,2.8c-1.1,1.1-2,2-2.7,2.7
		c-2.3,2.3-4.7,4.1-4.8,5c-0.1,0.8,1,1.5,2.7,2.5C22.9,40.5,32.7,45.9,36.2,47.7z M51.5,31.1c-3.9-1.3-13.3-4.9-23.3-6.2
		c-3.4-0.4-4.8,0.8-3.4,4c1.4,3.3,5,8.6,8.8,12.7c3.8,4,7.9,5.1,9.2-1.1c0.1-0.3,0.1-0.4,0.2-0.7c0.3-1.6,0.6-3.2,0.7-4.5
		c-1.7-0.8-3.6-1.6-5.4-2.3c0.1,1.4,0.3,3.9,0.3,5.8c0,0.3,0,0.5,0,0.7c0.1,3.1-0.9,3.1-2.7,1.8c-2-1.4-8.3-9.7-9-13.4
		c0-0.3,0.1-0.3,0.2-0.2c0.1,0,0.1,0,0.2,0.1l0,0l0,0c1.4,0.6,6.1,2.4,10.9,4.4c1.9,0.8,3.9,1.6,5.5,2.4c1.7,0.8,3.2,1.5,4.4,2.1
		c2.1,1.1,2.8,1.8,2,2.8c-4.3,4.4-19.4,10.6-24.5,18.3c0,0,0,0-0.1,0.1c-0.1,0.1-0.1,0.2-0.2,0.3c0,0,0,0.1-0.1,0.1
		c-0.3,0.5-0.6,1.3-0.8,2.3c-0.3,1.7,0.7,3.2,3.1,3.9c0.6,0.2,1.3,0.3,2,0.4c0.2,0,0.3,0,0.4,0c4.6,0.3,16.7-2.4,20.3-4
		c3.8-1.7,2.7-3.4,1.6-4.2c-0.8-0.7-5-3-7-4.1c-0.6,0.3-1,0.6-1.5,1c3.4,2.1,4.9,3.2,5.7,3.8c0.3,0.3,0.2,0.5-0.3,0.6
		c-0.1,0-0.3,0-0.3,0c-3.3,0.3-9.6,0.7-12.5,0.8c-0.4,0-0.9,0.1-1.2,0.1c0.8-0.7,1.5-1.3,1.9-1.6c6.3-4.4,16.8-10.6,19.9-13.3
		C58.6,41.7,64.8,35.7,51.5,31.1z"/>
</g>
</svg>
