<!-- Generator: Adobe Illustrator 28.1.0, SVG Export Plug-In . SVG Version: 6.00 Build 0)  -->
<svg version="1.1" id="Layer_1" xmlns="http://www.w3.org/2000/svg" xmlns:xlink="http://www.w3.org/1999/xlink" x="0px" y="0px"
	 viewBox="0 0 360 180" style="enable-background:new 0 0 360 180;" xml:space="preserve">
<g>
	<path d="M47.3,92.8L53.1,77l5.5,15.9H47.3V92.8z M64.4,108.8h5.4l-14-38.2h-5.3L36,108.8h5.4L45.6,97h14.5L64.4,108.8z M89.8,100.6
		c0,3.1-2.5,4.8-6.9,4.8c-3.5,0-5.8-1-7.1-3.3l-5.1,0.9c2,4.1,6.1,6,12,6c8,0,12.1-4.4,12.1-9.1c0-6-5.6-7.6-12-9
		c-3.1-0.6-6.8-1.8-6.8-4.5c0-2,1.9-4.3,5.8-4.3c3.9,0,6.3,2.6,6.6,3.8l4.5-1.9c-2.1-4-6.3-5.5-10.5-5.5c-6.8,0-11.1,3.3-11.1,8.5
		c0,6,5.1,7.1,10.1,8.3C85.7,96.4,89.8,97.4,89.8,100.6z M105.6,70.6l-5,2.1v7h-4.6v4h4.6v18.6c-0.1,3.8-0.1,6.5,5.6,6.5
		c1.9,0,3.9-0.4,4.8-0.5v-3.9c-1,0.3-2.3,0.6-3.1,0.6c-2.1,0-2.1-1.5-2.1-4.9V83.7h5.3v-4h-5.3v-9.1H105.6z M115.2,79.7v29h4.9V95.4
		c0-2.5-0.1-5.4,1.3-7.5c1.6-2.6,3.9-3.5,8.8-3.6v-5c-2,0.1-7.1,0.1-9.9,5.6v-5.1C120.2,79.7,115.2,79.7,115.2,79.7z M158.8,70.6
		v4.8h21.8l-21.7,28.5v5h27.9v-4.6h-22.2l21.7-28.8v-4.8h-27.5V70.6z M217.4,79.7v29h4.9V92.3c0-2.1,0-4.4,2.1-6.5
		c1.5-1.5,3.4-2.3,5.5-2.3c2.6,0,5.4,1.3,6.3,4c0.3,1,0.3,1.9,0.3,4.8v16.4h4.9v-17c0-2.5,0-4.3-0.5-5.9c-1.4-4.8-5.9-6.6-9.5-6.6
		c-1.8,0-6.4,0.4-9,5.1v-4.4h-4.9L217.4,79.7L217.4,79.7z M293,101.8c-1,2-2.9,3.8-6.8,3.8c-3.3,0-8.8-2-8.8-11.6
		c0-2.6,0.5-11.6,8.5-11.6c4,0,5.9,2.3,6.8,4.1l4.5-1.9c-2.8-4.6-7.9-5.8-11.5-5.8c-9.3,0-13.8,7.4-13.8,15.6c0,7.1,3.9,15,14.1,15
		c5.9,0,9.3-2.9,11-5.8L293,101.8z M193.8,91.3h15.4c-0.4-7.6-4.8-8.9-7.8-8.9C197.3,82.4,194.5,85.4,193.8,91.3z M213.2,103.3
		c-1.6,2.9-4.9,6-11.1,6c-8.5,0-13.5-5.8-13.5-15.5c0-10.9,7.1-15,13.3-15c5.4,0,10.4,3,12.1,10.3c0.5,2.5,0.5,4.6,0.5,5.9h-20.8
		c-0.1,4.9,1.9,11,8.8,10.9c2.8,0,4.8-1.4,6-3.3L213.2,103.3z M249.3,91.3h15.4c-0.4-7.6-4.8-8.9-7.8-8.9
		C252.7,82.4,249.8,85.4,249.3,91.3z M268.5,103.3c-1.6,2.9-4.9,6-11.1,6c-8.5,0-13.5-5.8-13.5-15.5c0-10.9,7.1-15,13.3-15
		c5.4,0,10.4,3,12.1,10.3c0.5,2.5,0.5,4.6,0.5,5.9h-20.9c-0.1,4.9,1.9,11,8.8,10.9c2.8,0,4.8-1.4,6-3.3L268.5,103.3z M324,108.8
		h-5.1c0,0-0.5-2-0.6-4.3c-1.5,1.5-4.3,4.6-9.8,4.6c-5.6,0-9.8-3.4-9.8-8.3c0-1.5,0.4-3.1,1.3-4.4c1.6-2.5,4.8-4.4,13.4-5.1L318,91
		v-0.8c0-3,0-8-6.5-8c-4,0-5.5,2-5.9,3.8l-4.5-1.9c0.1-0.1,0.1-0.4,0.3-0.5c1.8-3.1,5.1-5.1,10-5.1c2.6,0,6.1,0.6,8.4,2.5
		c3.3,2.5,3.1,7.3,3.1,7.3l0.3,14.9C323.1,103.3,323.4,107.5,324,108.8z M317.2,100.8c0.8-1.6,0.8-2.3,0.8-6.5
		c-1.9,0.3-4.5,0.6-7.6,1.4c-5.4,1.1-6.3,3.3-6.3,5.3c0,2.4,1.9,4.3,5.5,4.3C313,105.1,315.9,103.8,317.2,100.8z M155.4,108.8h-5
		c0,0-0.5-2-0.6-4.3c-1.5,1.5-4.3,4.6-9.8,4.6c-5.6,0-9.9-3.4-9.9-8.3c0-1.5,0.4-3.1,1.3-4.4c1.6-2.5,4.8-4.4,13.4-5.1l4.6-0.4v-0.8
		c0-3,0-8-6.5-8c-4.1,0-5.5,2-5.9,3.8l-4.5-1.9c0.1-0.1,0.1-0.4,0.3-0.5c1.8-3.1,5.1-5.1,10-5.1c2.6,0,6.1,0.6,8.4,2.5
		c3.3,2.5,3.1,7.3,3.1,7.3l0.1,14.9C154.5,103.3,154.8,107.5,155.4,108.8z M148.8,100.8c0.8-1.6,0.8-2.3,0.8-6.5
		c-1.9,0.3-4.5,0.6-7.6,1.4c-5.4,1.1-6.3,3.3-6.3,5.3c0,2.4,1.9,4.3,5.5,4.3C144.4,105.1,147.3,103.8,148.8,100.8z"/>
</g>
</svg>
