<!-- Generator: Adobe Illustrator 28.1.0, SVG Export Plug-In . SVG Version: 6.00 Build 0)  -->
<svg version="1.1" id="Layer_1" xmlns="http://www.w3.org/2000/svg" xmlns:xlink="http://www.w3.org/1999/xlink" x="0px" y="0px"
	 viewBox="0 0 72 72" style="enable-background:new 0 0 72 72;" xml:space="preserve">
<g>
	<path d="M26.4,64.8c5.3,0,9.6-4.3,9.6-9.6v-9.6h-9.6c-5.3,0-9.6,4.3-9.6,9.6S21.1,64.8,26.4,64.8z"/>
	<path d="M16.8,36c0-5.3,4.3-9.6,9.6-9.6H36v19.2h-9.6C21.1,45.6,16.8,41.3,16.8,36z"/>
	<path d="M16.8,16.8c0-5.3,4.3-9.6,9.6-9.6H36v19.2h-9.6C21.1,26.4,16.8,22.1,16.8,16.8z"/>
	<path d="M36,7.2h9.6c5.3,0,9.6,4.3,9.6,9.6s-4.3,9.6-9.6,9.6H36V7.2z"/>
	<path d="M55.2,36c0,5.3-4.3,9.6-9.6,9.6S36,41.3,36,36s4.3-9.6,9.6-9.6S55.2,30.7,55.2,36z"/>
</g>
</svg>
