<!-- Generator: Adobe Illustrator 28.1.0, SVG Export Plug-In . SVG Version: 6.00 Build 0)  -->
<svg version="1.1" id="Layer_1" xmlns="http://www.w3.org/2000/svg" xmlns:xlink="http://www.w3.org/1999/xlink" x="0px" y="0px"
	 viewBox="0 0 72 72" style="enable-background:new 0 0 72 72;" xml:space="preserve">
<g>
	<path d="M63.2,16.8l-2,30.9L42.5,7.2L63.2,16.8z M50.2,56.7L36,64.8l-14.2-8.1l2.9-7h22.6L50.2,56.7z M36,22.6l7.4,18.1H28.6
		L36,22.6z M10.7,47.7L8.8,16.8l20.8-9.6L10.7,47.7z"/>
	<path d="M63.2,16.8l-2,30.9L42.5,7.2L63.2,16.8z M50.2,56.7L36,64.8l-14.2-8.1l2.9-7h22.6L50.2,56.7z M36,22.6l7.4,18.1H28.6
		L36,22.6z M10.7,47.7L8.8,16.8l20.8-9.6L10.7,47.7z"/>
</g>
</svg>
