<!-- Generator: Adobe Illustrator 28.1.0, SVG Export Plug-In . SVG Version: 6.00 Build 0)  -->
<svg version="1.1"
	 id="Layer_1" xmlns:cc="http://creativecommons.org/ns#" xmlns:dc="http://purl.org/dc/elements/1.1/" xmlns:rdf="http://www.w3.org/1999/02/22-rdf-syntax-ns#"
	 xmlns="http://www.w3.org/2000/svg" xmlns:xlink="http://www.w3.org/1999/xlink" x="0px" y="0px" viewBox="0 0 1000 349.65"
	 style="enable-background:new 0 0 1000 349.65;" xml:space="preserve">
<g>
	<g transform="matrix(10.3654 0 0 -10.3654 -4991.695 7836.742)">
		<path d="M573.96,744.84c-1.69,0-3.22-1.36-5.13-2.95c-1.75-1.45-5.33-5.13-8.6-7.22c0.91,1.43,3.1,4.52,3.43,5.97
			c0.35,1.52-0.77,2.11-2.3,1.17c-1.67-1.03-3.26-5.98-5.62-5.98c-0.43,0-0.73,0.21-0.73,0.69c0.01,1.45,2.26,4.34,6.28,5.93
			c0.62,0.25,0.86,0.65,0.87,1c0,0.11-0.02,0.84-1.26,0.84c-3.98,0-9.35-4.65-10.1-8.21c-0.78-0.78-2.17-1.94-3.94-2.69
			c2,2.83,3.71,5.1,4.61,7.46c1.04,2.75-0.44,3.11-1.96,2.31c-1.48-0.78-2.52-2.95-2.96-3.78c-0.43-0.82-0.8-1.87-2.1-2.91
			s-2.65-0.87-1.7,1.17c0.85,1.82,2.77,3.73,4.42,4.61c0.39,0.21,0.73,0.33,0.72,0.86c-0.02,0.84-0.99,1.41-2.36,0.82
			c-1.87-0.81-2.77-1.35-4.35-1.35c-1.26,0-1.91,0.34-2.45,0.56c-0.72,0.31-1.25,0.2-1.53,0.11c-0.25-0.09-0.65-0.33-0.98-0.7
			c-0.26-0.29-0.49-0.77-0.54-1.07c-0.37-2.23-2.32-6.23-3.76-6.23c-0.49,0-1.04,0.14-0.9,1.28c0.23,1.87,2.48,4.39,3,4.89
			c0.52,0.51,1.5,0.85,1.57,1.41c0.06,0.47-0.23,0.99-1.15,0.99c-3.03,0-7.09-4.2-7.49-7.98c-0.47-0.44-1.04-0.87-1.68-0.87
			c-1.4,0-1.8,1.31-1.7,2.35c3.68,3.32,10.67,10.73,10.88,16.01c0.05,1.26-0.56,1.89-1.6,1.89c-2.6,0-6.24-3.8-8.51-6.73
			c-2.79-3.61-4.5-7.97-5.11-11.27c-2.04-1.77-2.87-1.89-3.76-1.89c-1.23,0-1.66,0.89-1.63,1.59c3.44,3.13,9.42,10.57,9.54,14.26
			c0.04,1.09-0.58,1.6-1.68,1.6c-2.34,0-5.67-2.47-8.05-5.73c-2.38-3.26-3.93-7.09-4.37-10.57c-1.79-1.6-3.12-1.93-4.22-1.93
			c-0.67,0-1.15,0.47-1.27,0.66c1.58,0.91,5.18,3.2,5.18,6.61c0,1.69-1.14,2.45-2.28,2.45c-2.89,0-7.44-3.6-7.41-8.58
			c0-0.09,0.01-0.39,0.03-0.51c-1.31-0.45-2.21-0.91-2-1.85c0.19-0.85,1.25-0.81,2.63-0.32c0.32-0.59,1.67-1.56,3.58-1.56
			c2.59,0,4.56,1.23,6.12,2.56c0.65-1.53,2.27-2.34,3.96-2.34c2.05,0,4.08,1.39,5.68,2.65c0.19-1.18,1.38-3.01,3.45-3.01
			c1.89,0,3.33,1.1,4.47,2.29c0.3-1.2,1.4-2.15,2.83-2.15c4.78,0,7.47,6.77,8.08,9.2c0.08,0.31,0.38,0.38,0.58,0.31
			c0.89-0.31,1.33-0.46,2.45-0.34c-1.82-1.43-3.42-3.87-3.42-5.65c0-1.78,1.54-2.61,2.67-2.61c1.13,0,2.62,0.73,3.61,1.65
			c-0.26-0.52-0.61-1.33-1.17-1.89c-1.03-0.28-4.05-1.37-5.97-2.54c-1.82-1.11-3.58-2.87-3.58-4.9c0-1.09,0.89-2.36,2.98-2.36
			c3.52,0,5.98,2.3,9.3,8.34c2.75,1.15,4.4,2.23,5.48,3.15c0.47-0.83,1.39-1.21,2.3-1.21c1.35,0,2.16,0.39,3.25,1.17
			c-0.15-0.37-0.39-0.93-0.76-1.42c-1.97-0.82-4.33-1.9-5.54-2.63c-3.22-1.94-3.94-3.69-3.94-5.06c0-0.84,0.72-2.3,2.89-2.3
			c4.7,0,7.61,5.84,9.51,9.15c1.39,0.74,3.38,2.1,5.42,3.67c-0.07-0.25-0.1-0.51-0.1-0.8c0-1.47,1.33-2.85,3.51-2.85
			c4.31,0,5.65,3.17,5.59,6.6c-0.02,1.12-0.18,2.01-0.2,2.41c-0.04,1.05,0.31,1.61,1.26,1.61c0.96,0,1.61,0.17,1.61,0.99
			c0,1.14-0.81,1.65-1.91,1.65 M530.56,750.88c0.12,0,0.17-0.11,0.17-0.28c-0.04-1.35-3.51-6.8-6.72-9.98
			C525.95,746.31,529.8,750.88,530.56,750.88 M503.1,737.2c0.14,2.42,2.06,4.29,2.82,4.29c0.28,0,0.41-0.16,0.41-0.49
			C506.33,740.13,505.17,738.33,503.1,737.2 M519.42,748.88c0.15,0,0.21-0.11,0.2-0.3c-0.03-1-2.53-5.58-5.73-8.76
			C515.58,744.98,518.32,748.88,519.42,748.88 M536.98,725.42c-0.25,0-0.37,0.16-0.37,0.4c0,1.47,3.27,3.21,4.98,3.84
			C540.86,728.46,538.14,725.42,536.98,725.42 M550.07,725.34c-0.24,0-0.33,0.14-0.33,0.38c0,1.3,2.96,3.31,4.68,3.94
			C553.52,728.12,551.05,725.34,550.07,725.34 M567.93,734.7c-0.21,0-0.52,0.05-0.52,0.74c0,0.5-0.24,1.06-1.12,1.06
			c-0.12,0-0.25-0.01-0.4-0.03c1.88,1.49,3.35,3.13,4.72,4.24C570.33,737.32,569.52,734.7,567.93,734.7"/>
		<path d="M566.28,745.47c-0.06-0.59-0.73-0.86-0.78-1.39c-0.03-0.31,0.19-0.52,0.57-0.51c0.99,0.01,3.63,1.54,3.86,3.91
			c0.12,1.2-0.63,2.24-1.94,2.24c-1.32,0-2.51-1.24-2.62-2.28C565.26,746.41,566.34,746.05,566.28,745.47 M497.56,728.73
			c-0.85,0.04-1.24,1.05-1.24,2.28c0,1.35,0.87,4.27,1.21,5.65c0.35,1.39,0.5,3.65-0.76,4.94c4.79,1.93,11.88,8.49,12.79,9.92
			c0.91,1.43,1.09,3.26-0.17,4.17c-1.25,0.91-3.3-0.28-4.51-2.02c-3.33-4.8-5.34-7.15-7.61-9.12c-1.77-1.54-2.63-1.57-3.48-1.68
			c0,0,3.27,5.35,4.49,6.96c1.46,1.92-0.34,2.64-2.09,1.43c-0.36-0.25-3.12-2.16-6.47-3.89c-5.97-3.08-7.41-4.5-7.41-6.35
			c0-0.82,0.57-1.85,1.77-1.85c2.34,0,4.65,4.18,5.79,5.22c0.44,0.41,1.46,1.3,1.86,1.3c0.13,0,0.22-0.08,0.22-0.33
			c0-0.8-1.55-3.07-3.96-5.67c-3.49-3.77-6.35-5.29-6.35-7.7c0-1.57,1.18-2.42,2.46-2.42c2.69,0,4.49,3.59,5.57,5.37
			c0.43,0.71,2.8,5.13,3.3,6.09c0.52-0.28,0.84-0.85,0.67-2.03c-0.32-2.11-2.2-4.67-2.2-8.23c0-2.91,2.69-3.82,3.77-3.83
			c1,0,2.32,0.39,2.65,1.38c0.04,0.15-0.01,0.4-0.28,0.42 M577.09,745.27c0.56,0,0.92-0.36,0.92-0.92c0-0.56-0.36-0.92-0.92-0.92
			c-0.57,0-0.92,0.36-0.92,0.92C576.17,744.92,576.52,745.28,577.09,745.27 M577.09,743.66c0.42,0,0.69,0.27,0.69,0.7
			s-0.27,0.7-0.69,0.7c-0.43,0-0.7-0.27-0.7-0.69C576.39,743.94,576.66,743.66,577.09,743.66 M577.15,744.83
			c0.14,0,0.3-0.07,0.3-0.28c0-0.14-0.09-0.22-0.19-0.26c0.06-0.09,0.11-0.22,0.19-0.22h0.05c0.01-0.01,0.02-0.03,0.02-0.07
			c0-0.06-0.05-0.11-0.14-0.11c-0.18,0-0.2,0.21-0.32,0.37h-0.11v-0.35c-0.02-0.01-0.07-0.02-0.11-0.02c-0.06,0-0.11,0.01-0.11,0.1
			v0.82c0.02,0.01,0.06,0.01,0.11,0.01L577.15,744.83L577.15,744.83z M576.96,744.66v-0.23h0.14c0.1,0,0.15,0.04,0.15,0.12
			c0,0.07-0.05,0.11-0.13,0.11H576.96L576.96,744.66z"/>
	</g>
</g>
</svg>
