<!-- Generator: Adobe Illustrator 28.1.0, SVG Export Plug-In . SVG Version: 6.00 Build 0)  -->
<svg version="1.1" id="Layer_1" xmlns="http://www.w3.org/2000/svg" xmlns:xlink="http://www.w3.org/1999/xlink" x="0px" y="0px"
	 viewBox="0 0 360 180" style="enable-background:new 0 0 360 180;" xml:space="preserve">
<g>
	<path d="M125.4,64H124v13.4l4.8,0V113l14.3,0l0-13.8c7.1,0.2,12.4-0.8,15.8-2.8c7.1-4.3,11.3-13.1,7.2-20.8
		C159.2,62.6,139.8,64,125.4,64z M146.1,88.9H143V77.7h3c2.9,0,6,1.4,6.7,4.4C153.7,86.1,149.9,88.9,146.1,88.9z"/>
	<path d="M189.3,68.6c-11.4,0-20,11.2-20,25s9,25.8,20,25.9c8.9,0.1,14.5-4.6,17.4-11.4l-4.6-3.9l-1.3,1c-5.2,4.2-18.2,3-18-6.6
		l0-0.8l26.3,0v-0.5c0-2.3,0.2-4.5,0-6.8C208.5,78.1,202.7,68.6,189.3,68.6z M184.3,88.8c0-5.1,2.4-9.1,7.8-9.3
		c5-0.2,7.8,4.2,7.8,9.3H184.3z"/>
	<path d="M37.4,63.8H36v13.4l4.8,0v35.6l14.3,0l0-13.8c7.1,0.2,12.4-0.8,15.8-2.8c7.1-4.3,11.3-13.1,7.2-20.8
		C71.2,62.5,51.8,63.8,37.4,63.8z M58.1,88.7H55V77.4h3c2.9,0,6,1.4,6.7,4.4C65.7,85.9,61.9,88.7,58.1,88.7z"/>
	<path d="M102.5,59.8c-11.1,0-20.1,11.1-20.1,24.7s9,24.7,20.1,24.7s20.1-11.1,20.1-24.7S113.6,59.8,102.5,59.8z M99.7,97.7
		c-4.9,0-8.9-4.4-8.9-9.9c0-5.5,4-9.9,8.9-9.9s8.9,4.4,8.9,9.9C108.6,93.3,104.6,97.7,99.7,97.7z"/>
	<path d="M321.1,109.4c-1.6,0-2.9,1.3-2.9,2.9c0,1.6,1.3,2.9,2.9,2.9c1.6,0,2.9-1.3,2.9-2.9C324,110.7,322.7,109.4,321.1,109.4z
		 M322.8,114.1c-0.5,0.5-1.1,0.7-1.7,0.7c-0.7,0-1.3-0.2-1.7-0.7c-0.5-0.5-0.7-1.1-0.7-1.7c0-0.7,0.2-1.3,0.7-1.7s1.1-0.7,1.7-0.7
		c0.7,0,1.2,0.2,1.7,0.7c0.5,0.5,0.7,1.1,0.7,1.7C323.5,113,323.3,113.6,322.8,114.1z"/>
	<path d="M322.5,111.6c0-0.5-0.4-0.9-1-0.9h-1.7v3.3h0.7v-1.3h0.7c0.3,0,0.6,0.2,0.6,0.8c0,0.4,0,0.4,0,0.5h0.6
		c-0.1-0.3,0-0.7-0.1-1c-0.1-0.4-0.3-0.5-0.5-0.6C322.2,112.3,322.5,112,322.5,111.6z M321.4,112.1l-0.9,0v-1h0.8
		c0.3,0,0.5,0.2,0.5,0.5S321.7,112.1,321.4,112.1z"/>
	<path d="M268,69.3c-11.4,0-20,11.2-20,25s9,25.8,20,25.9c8.9,0.1,14.5-4.6,17.4-11.4l-4.6-3.9l-1.3,1c-5.2,4.2-18.2,3-18-6.6l0-0.8
		l26.3,0v-0.5c0-2.3,0.2-4.5,0-6.8C287.1,78.8,281.3,69.3,268,69.3z M262.9,89.5c0-5.1,2.4-9.1,7.8-9.3c5-0.2,7.8,4.2,7.8,9.3H262.9
		z"/>
	<path d="M251.8,63.1l-15.3,0l0,7c0,8-3.6,12.4-7.3,12.5c-3.6,0-7.2-4.2-7.3-12.8l0-6.5h-13.7c0,14.5,2.7,26.8,13.6,30.6l0,19.1
		l14.4,0l0-18.8C248,90.9,251.8,78.3,251.8,63.1z"/>
	<path d="M321,103.6c5-6.7,2.9-15.4-3.6-19.8c-4.5-3-16.5-10-8.2-13.5c2.9-1.2,7.7-0.4,11.7,2.7l3.1,2.1l-0.3-11.6c0,0-2-1-4.4-1.7
		c-9.7-2.7-23.4-4-26.6,8.1c-1.3,4.9,1.5,8.6,4.7,12.1c2.5,2.8,12.3,8.2,11.3,12.8c-1,4.7-11.9,0-17.3-2.4l-1.1-0.5l0.4,12.4
		l1.2,0.6c2.9,1.4,5.8,2.4,8.8,3.3C307.2,110.4,315.9,110.3,321,103.6z"/>
</g>
</svg>
