<!-- Generator: Adobe Illustrator 28.1.0, SVG Export Plug-In . SVG Version: 6.00 Build 0)  -->
<svg version="1.1" id="Layer_1" xmlns="http://www.w3.org/2000/svg" xmlns:xlink="http://www.w3.org/1999/xlink" x="0px" y="0px"
	 viewBox="0 0 360 180" style="enable-background:new 0 0 360 180;" xml:space="preserve">
<style type="text/css">
	.st0{fill:#150301;}
</style>
<path class="st0" d="M139.2,127.7l16.6-74.9h20.5l-8.9,39.9l16.6-20h22.9l-20.6,25l8.5,30.1h-20.4l-8.5-28.5l-6.7,28.5L139.2,127.7
	L139.2,127.7z M65.2,90.1l14.4,37.7h19.6l16.9-74.9H96l-8.6,38.1L73.2,52.8H52.7L36,127.7h20.6C59,115.7,62.1,103,65.2,90.1z
	 M129.4,127.7l12.3-55h-20.1l-12.3,55H129.4z M122.5,60.6c0,1.7,0.4,7.8,11.4,7.8c9.1,0,12.7-5.9,12.7-10.2c0-2.9-2.4-8.1-11.4-8.1
	C126.9,50.2,122.5,55.7,122.5,60.6z M316.1,72c-8.6-2.6-19.3,1.7-24.5,9c0.5-2.3,1.1-4.9,1.7-7.9h-20.4l-11.9,54.7h20.3l6.8-31
	c1.2-5.7,5.8-8.1,9.9-7.1c1.8,0.5,4.2,1.8,3.4,6.6l-6.9,31.6h20.1l9.2-42.1C325.6,76.3,318,72.5,316.1,72z M247.8,122.8
	c8.8-7.2,13.2-19.4,13.1-30.9c-0.1-11-9.5-21.5-25.7-21.5c-31,0-35.5,24.2-36.4,28.6c-2.3,11.1,0.3,25.6,14.8,29.5
	C223.1,130.9,238.1,130.7,247.8,122.8z M225.1,90.9c1.5-4,5.4-4.9,7.2-4.9c4.4,0,5.7,2.6,5.3,5.1c-1.1,6.9-3.4,15.6-4.3,18.4
	c0,0,0,0.1,0,0.1c-1,3-3.8,4.8-7.2,4.8c-3.4,0-5.5-2.1-5.2-4.9C221.3,104.8,224.2,93.2,225.1,90.9z"/>
</svg>
